<svg width="40" height="40" viewBox="0 0 40 40" fill="none" xmlns="http://www.w3.org/2000/svg">
<circle cx="20" cy="20" r="20" fill="url(#paint0_linear_141_15771)"/>
<circle cx="20.0001" cy="20.0013" r="17.3333" fill="white"/>
<g clip-path="url(#clip0_141_15771)">
<path d="M26.6667 15.0842V14.1667C26.6667 11.8692 24.7975 10 22.5 10H17.5C15.2025 10 13.3333 11.8692 13.3333 14.1667V15.0842C11.4342 15.4717 10 17.155 10 19.1667V25.8333C10 28.1308 11.8692 30 14.1667 30H25.8333C28.1308 30 30 28.1308 30 25.8333V19.1667C30 17.155 28.5658 15.4708 26.6667 15.0842ZM11.6667 25.8333V19.1667C11.6667 18.08 12.3633 17.1542 13.3333 16.81V28.19C12.3633 27.8458 11.6667 26.92 11.6667 25.8333ZM15 14.1667C15 12.7883 16.1217 11.6667 17.5 11.6667H22.5C23.8783 11.6667 25 12.7883 25 14.1667V28.3333H15V14.1667ZM28.3333 25.8333C28.3333 26.92 27.6367 27.8458 26.6667 28.19V16.81C27.6367 17.1542 28.3333 18.08 28.3333 19.1667V25.8333ZM19.1667 21.6667C19.1667 22.1267 18.7942 22.5 18.3333 22.5H17.5C17.0392 22.5 16.6667 22.1267 16.6667 21.6667C16.6667 21.2067 17.0392 20.8333 17.5 20.8333H18.3333C18.7942 20.8333 19.1667 21.2067 19.1667 21.6667ZM23.3333 21.6667C23.3333 22.1267 22.9608 22.5 22.5 22.5H21.6667C21.2058 22.5 20.8333 22.1267 20.8333 21.6667C20.8333 21.2067 21.2058 20.8333 21.6667 20.8333H22.5C22.9608 20.8333 23.3333 21.2067 23.3333 21.6667ZM19.1667 25C19.1667 25.46 18.7942 25.8333 18.3333 25.8333H17.5C17.0392 25.8333 16.6667 25.46 16.6667 25C16.6667 24.54 17.0392 24.1667 17.5 24.1667H18.3333C18.7942 24.1667 19.1667 24.54 19.1667 25ZM23.3333 25C23.3333 25.46 22.9608 25.8333 22.5 25.8333H21.6667C21.2058 25.8333 20.8333 25.46 20.8333 25C20.8333 24.54 21.2058 24.1667 21.6667 24.1667H22.5C22.9608 24.1667 23.3333 24.54 23.3333 25ZM20.8333 17.5C20.8333 17.96 20.4608 18.3333 20 18.3333C19.5392 18.3333 19.1667 17.96 19.1667 17.5V16.6667H18.3333C17.8725 16.6667 17.5 16.2933 17.5 15.8333C17.5 15.3733 17.8725 15 18.3333 15H19.1667V14.1667C19.1667 13.7067 19.5392 13.3333 20 13.3333C20.4608 13.3333 20.8333 13.7067 20.8333 14.1667V15H21.6667C22.1275 15 22.5 15.3733 22.5 15.8333C22.5 16.2933 22.1275 16.6667 21.6667 16.6667H20.8333V17.5Z" fill="url(#paint1_linear_141_15771)"/>
</g>
<defs>
<linearGradient id="paint0_linear_141_15771" x1="4.62971e-08" y1="3.80952" x2="42.0865" y2="7.60863" gradientUnits="userSpaceOnUse">
<stop stop-color="#FBFDFF"/>
<stop offset="1" stop-color="#E9F6FF"/>
</linearGradient>
<linearGradient id="paint1_linear_141_15771" x1="40.7708" y1="16.602" x2="7.23884" y2="18.3536" gradientUnits="userSpaceOnUse">
<stop stop-color="#00ADEF"/>
<stop offset="1" stop-color="#D60F8C"/>
</linearGradient>
<clipPath id="clip0_141_15771">
<rect width="20" height="20" fill="white" transform="translate(10 10)"/>
</clipPath>
</defs>
</svg>
