<svg width="40" height="40" viewBox="0 0 40 40" fill="none" xmlns="http://www.w3.org/2000/svg">
<circle cx="20" cy="20" r="20" fill="url(#paint0_linear_141_15762)"/>
<circle cx="20.0001" cy="20.0013" r="17.3333" fill="white"/>
<g clip-path="url(#clip0_141_15762)">
<path d="M15.2908 19.1667H12.5C12.279 19.1667 12.067 19.2545 11.9107 19.4107C11.7545 19.567 11.6667 19.779 11.6667 20V22.5H10V20C10 19.337 10.2634 18.7011 10.7322 18.2322C11.2011 17.7634 11.837 17.5 12.5 17.5H16.2808C15.8449 17.9854 15.5085 18.5516 15.2908 19.1667ZM27.5 17.5H23.7192C24.1551 17.9854 24.4915 18.5516 24.7092 19.1667H27.5C27.721 19.1667 27.933 19.2545 28.0893 19.4107C28.2455 19.567 28.3333 19.779 28.3333 20V22.5H30V20C30 19.337 29.7366 18.7011 29.2678 18.2322C28.7989 17.7634 28.163 17.5 27.5 17.5ZM23.3333 20.8333C23.3333 20.1741 23.1378 19.5296 22.7716 18.9814C22.4053 18.4333 21.8847 18.006 21.2756 17.7537C20.6665 17.5014 19.9963 17.4354 19.3497 17.5641C18.7031 17.6927 18.1092 18.0101 17.643 18.4763C17.1768 18.9425 16.8593 19.5364 16.7307 20.183C16.6021 20.8296 16.6681 21.4999 16.9204 22.1089C17.1727 22.718 17.5999 23.2386 18.1481 23.6049C18.6963 23.9712 19.3407 24.1667 20 24.1667C20.8841 24.1667 21.7319 23.8155 22.357 23.1904C22.9821 22.5652 23.3333 21.7174 23.3333 20.8333ZM21.6667 20.8333C21.6667 21.163 21.5689 21.4852 21.3858 21.7593C21.2026 22.0334 20.9423 22.247 20.6378 22.3731C20.3333 22.4993 19.9982 22.5323 19.6748 22.468C19.3515 22.4037 19.0546 22.2449 18.8215 22.0118C18.5884 21.7788 18.4297 21.4818 18.3654 21.1585C18.301 20.8352 18.3341 20.5001 18.4602 20.1955C18.5863 19.891 18.8 19.6307 19.074 19.4476C19.3481 19.2644 19.6704 19.1667 20 19.1667C20.442 19.1667 20.8659 19.3423 21.1785 19.6548C21.4911 19.9674 21.6667 20.3913 21.6667 20.8333ZM25 27.5C25 26.837 24.7366 26.2011 24.2678 25.7322C23.7989 25.2634 23.163 25 22.5 25H17.5C16.837 25 16.2011 25.2634 15.7322 25.7322C15.2634 26.2011 15 26.837 15 27.5V30H16.6667V27.5C16.6667 27.279 16.7545 27.067 16.9107 26.9107C17.067 26.7545 17.279 26.6667 17.5 26.6667H22.5C22.721 26.6667 22.933 26.7545 23.0893 26.9107C23.2455 27.067 23.3333 27.279 23.3333 27.5V30H25V27.5ZM28.3333 13.3333C28.3333 12.6741 28.1378 12.0296 27.7716 11.4814C27.4053 10.9333 26.8847 10.506 26.2756 10.2537C25.6665 10.0014 24.9963 9.93543 24.3497 10.0641C23.7031 10.1927 23.1092 10.5101 22.643 10.9763C22.1768 11.4425 21.8593 12.0364 21.7307 12.683C21.6021 13.3296 21.6681 13.9999 21.9204 14.6089C22.1727 15.218 22.5999 15.7386 23.1481 16.1049C23.6963 16.4712 24.3407 16.6667 25 16.6667C25.8841 16.6667 26.7319 16.3155 27.357 15.6904C27.9821 15.0652 28.3333 14.2174 28.3333 13.3333ZM26.6667 13.3333C26.6667 13.663 26.5689 13.9852 26.3858 14.2593C26.2026 14.5334 25.9423 14.747 25.6378 14.8731C25.3333 14.9993 24.9982 15.0323 24.6748 14.968C24.3515 14.9037 24.0546 14.7449 23.8215 14.5118C23.5884 14.2788 23.4297 13.9818 23.3654 13.6585C23.301 13.3352 23.3341 13.0001 23.4602 12.6955C23.5863 12.391 23.8 12.1307 24.074 11.9476C24.3481 11.7644 24.6704 11.6667 25 11.6667C25.442 11.6667 25.8659 11.8423 26.1785 12.1548C26.4911 12.4674 26.6667 12.8913 26.6667 13.3333ZM18.3333 13.3333C18.3333 12.6741 18.1378 12.0296 17.7716 11.4814C17.4053 10.9333 16.8847 10.506 16.2756 10.2537C15.6665 10.0014 14.9963 9.93543 14.3497 10.0641C13.7031 10.1927 13.1092 10.5101 12.643 10.9763C12.1768 11.4425 11.8593 12.0364 11.7307 12.683C11.6021 13.3296 11.6681 13.9999 11.9204 14.6089C12.1727 15.218 12.5999 15.7386 13.1481 16.1049C13.6963 16.4712 14.3407 16.6667 15 16.6667C15.8841 16.6667 16.7319 16.3155 17.357 15.6904C17.9821 15.0652 18.3333 14.2174 18.3333 13.3333ZM16.6667 13.3333C16.6667 13.663 16.5689 13.9852 16.3858 14.2593C16.2026 14.5334 15.9423 14.747 15.6378 14.8731C15.3333 14.9993 14.9982 15.0323 14.6748 14.968C14.3515 14.9037 14.0546 14.7449 13.8215 14.5118C13.5884 14.2788 13.4297 13.9818 13.3654 13.6585C13.301 13.3352 13.3341 13.0001 13.4602 12.6955C13.5863 12.391 13.8 12.1307 14.074 11.9476C14.3481 11.7644 14.6704 11.6667 15 11.6667C15.442 11.6667 15.866 11.8423 16.1785 12.1548C16.4911 12.4674 16.6667 12.8913 16.6667 13.3333Z" fill="url(#paint1_linear_141_15762)"/>
</g>
<defs>
<linearGradient id="paint0_linear_141_15762" x1="4.62971e-08" y1="3.80952" x2="42.0865" y2="7.60863" gradientUnits="userSpaceOnUse">
<stop stop-color="#FBFDFF"/>
<stop offset="1" stop-color="#E9F6FF"/>
</linearGradient>
<linearGradient id="paint1_linear_141_15762" x1="40.7708" y1="16.602" x2="7.23884" y2="18.3536" gradientUnits="userSpaceOnUse">
<stop stop-color="#00ADEF"/>
<stop offset="1" stop-color="#D60F8C"/>
</linearGradient>
<clipPath id="clip0_141_15762">
<rect width="20" height="20" fill="white" transform="translate(10 10)"/>
</clipPath>
</defs>
</svg>
