<svg width="64" height="64" viewBox="0 0 64 64" fill="none" xmlns="http://www.w3.org/2000/svg">
<circle cx="32" cy="32" r="32" fill="url(#paint0_linear_6_414)"/>
<circle cx="32" cy="32" r="28" fill="white"/>
<path d="M37.7216 17.5311C39.9599 19.25 41.4459 21.5435 41.8542 24.3535C42.1261 26.9731 41.5271 29.5763 39.913 31.6868C39.7924 31.8313 39.6712 31.9751 39.549 32.1182C39.5036 32.1791 39.4581 32.24 39.4113 32.3027C38.9892 32.8492 38.4493 33.2419 37.8962 33.6475C37.7226 33.7777 37.5566 33.9179 37.3922 34.0594C37.3922 34.4701 37.5568 34.7345 37.7477 35.086C37.7849 35.1557 37.822 35.2253 37.8603 35.2971C37.9822 35.5252 38.1051 35.7528 38.2279 35.9803C38.3128 36.1386 38.3976 36.2969 38.4823 36.4552C38.9962 37.4138 39.5146 38.37 40.0377 39.3236C40.3376 39.8707 40.6344 40.4194 40.9282 40.9698C40.9634 41.0356 40.9986 41.1015 41.0348 41.1693C41.1767 41.4352 41.3186 41.7011 41.4604 41.967C41.9142 42.8178 42.3762 43.6613 42.8681 44.4907C43 44.7358 43 44.7358 43 44.9515C42.466 44.8675 41.972 44.6828 41.4645 44.5029C41.3695 44.4695 41.2745 44.4362 41.1767 44.4018C40.8744 44.2955 40.5723 44.1888 40.2702 44.082C40.0649 44.0098 39.8595 43.9375 39.6541 43.8653C39.1516 43.6885 38.6493 43.5113 38.1471 43.3339C38.1074 43.5166 38.1074 43.5166 38.0669 43.7031C37.836 44.759 37.5874 45.8071 37.3113 46.8523C37.2772 46.9824 37.2432 47.1125 37.2081 47.2466C37.126 47.5601 37.0435 47.8735 36.9608 48.1868C36.8896 48.1868 36.8184 48.1868 36.7451 48.1868C36.6963 48.0947 36.6476 48.0026 36.5973 47.9077C35.4312 45.7029 35.4312 45.7029 34.2445 43.5091C34.1948 43.4183 34.1451 43.3275 34.0939 43.2339C33.9915 43.0467 33.889 42.8596 33.7866 42.6724C33.4854 42.1214 33.1848 41.5701 32.8857 41.018C32.7837 40.8299 32.6812 40.6422 32.5787 40.4544C32.5173 40.3409 32.4559 40.2273 32.3926 40.1104C32.3376 40.0091 32.2826 39.9079 32.2259 39.8036C32.1078 39.5594 32.1078 39.5594 32.1078 39.3437C32.0367 39.3437 31.9655 39.3437 31.8922 39.3437C31.8643 39.4353 31.8365 39.5269 31.8079 39.6213C31.6698 40.0096 31.495 40.3639 31.2999 40.7254C31.263 40.7947 31.2261 40.8639 31.1881 40.9353C31.0683 41.1599 30.9478 41.3841 30.8272 41.6084C30.7436 41.7647 30.66 41.921 30.5765 42.0774C29.9599 43.2299 29.3367 44.3788 28.7078 45.5247C28.4113 46.0655 28.1163 46.6072 27.8211 47.1488C27.7116 47.3496 27.602 47.5504 27.4925 47.7512C27.4465 47.8355 27.4005 47.9198 27.3532 48.0067C27.3207 48.0661 27.2883 48.1256 27.2549 48.1868C27.1837 48.1868 27.1125 48.1868 27.0392 48.1868C26.8699 47.5304 26.701 46.874 26.5324 46.2174C26.4749 45.9939 26.4174 45.7705 26.3598 45.5471C26.2771 45.2265 26.1947 44.9058 26.1124 44.585C26.0865 44.4847 26.0605 44.3844 26.0338 44.281C26.0101 44.1882 25.9863 44.0954 25.9618 43.9997C25.9408 43.9178 25.9197 43.8359 25.898 43.7515C25.8529 43.5496 25.8529 43.5496 25.8529 43.3339C25.7689 43.3643 25.7689 43.3643 25.6832 43.3953C25.1008 43.6058 24.5183 43.8156 23.9355 44.025C23.718 44.1033 23.5005 44.1817 23.2831 44.2604C22.9709 44.3733 22.6584 44.4855 22.3459 44.5977C22.2485 44.633 22.1511 44.6684 22.0508 44.7049C21.9148 44.7535 21.9148 44.7535 21.776 44.803C21.6963 44.8318 21.6166 44.8605 21.5344 44.8901C21.3235 44.9515 21.3235 44.9515 21 44.9515C21.1706 44.4956 21.3874 44.0699 21.6159 43.641C21.6551 43.5668 21.6944 43.4926 21.7348 43.4162C21.8626 43.1752 21.9907 42.9344 22.1189 42.6936C22.2078 42.526 22.2967 42.3585 22.3857 42.1909C22.9091 41.2058 23.4375 40.2236 23.9741 39.2456C24.4904 38.3042 24.9966 37.3575 25.5025 36.4105C25.9032 35.6607 26.3072 34.9128 26.7157 34.1672C26.6004 34.0734 26.6004 34.0734 26.4827 33.9776C26.2682 33.8027 26.0541 33.6273 25.8403 33.4515C25.6656 33.3083 25.4903 33.1658 25.3129 33.026C23.4677 31.537 22.3759 29.0143 22.1121 26.7058C22.0992 26.5329 22.0879 26.3599 22.0784 26.1868C22.0727 26.1095 22.067 26.0322 22.0612 25.9526C21.9524 23.2107 23.088 20.7592 24.8638 18.7368C28.1429 15.2441 33.8499 14.821 37.7216 17.5311Z" fill="#FDB35D"/>
<path d="M26.8235 34.0593C26.9499 34.1179 27.0763 34.1764 27.2065 34.2367C29.7467 35.3991 32.4673 35.831 35.1725 34.9035C35.8529 34.6499 36.5141 34.3562 37.1765 34.0593C37.9909 35.5081 38.7778 36.9713 39.5609 38.4372C39.9196 39.1085 40.28 39.7789 40.6409 40.449C40.7021 40.5627 40.7633 40.6764 40.8263 40.7935C41.1431 41.3817 41.4611 41.9692 41.7809 42.5558C41.8774 42.7331 41.8774 42.7331 41.9759 42.9139C42.0982 43.1385 42.2208 43.363 42.3437 43.5873C42.3985 43.6879 42.4532 43.7884 42.5097 43.892C42.5576 43.9798 42.6056 44.0675 42.6551 44.158C42.7869 44.4174 42.8961 44.6798 43 44.9515C42.466 44.8675 41.972 44.6828 41.4645 44.5028C41.3695 44.4695 41.2745 44.4361 41.1767 44.4018C40.8744 44.2955 40.5723 44.1888 40.2702 44.082C40.0649 44.0097 39.8595 43.9375 39.6541 43.8653C39.1516 43.6885 38.6493 43.5113 38.1471 43.3338C38.1074 43.5166 38.1074 43.5166 38.0669 43.703C37.836 44.759 37.5874 45.807 37.3113 46.8522C37.2772 46.9823 37.2432 47.1125 37.2081 47.2465C37.126 47.56 37.0435 47.8734 36.9608 48.1868C36.8896 48.1868 36.8184 48.1868 36.7451 48.1868C36.6963 48.0947 36.6476 48.0025 36.5973 47.9076C35.4312 45.7029 35.4312 45.7029 34.2445 43.5091C34.1948 43.4183 34.1451 43.3274 34.0939 43.2338C33.9915 43.0467 33.889 42.8595 33.7866 42.6723C33.4854 42.1214 33.1848 41.5701 32.8857 41.0179C32.7837 40.8299 32.6812 40.6421 32.5787 40.4544C32.5173 40.3408 32.4559 40.2273 32.3926 40.1103C32.3101 39.9585 32.3101 39.9585 32.2259 39.8036C32.1078 39.5593 32.1078 39.5593 32.1078 39.3436C32.0367 39.3436 31.9655 39.3436 31.8922 39.3436C31.8643 39.4353 31.8365 39.5269 31.8079 39.6213C31.6698 40.0095 31.495 40.3639 31.2999 40.7254C31.2446 40.8292 31.2446 40.8292 31.1881 40.9352C31.0683 41.1599 30.9478 41.3841 30.8272 41.6083C30.7436 41.7647 30.66 41.921 30.5765 42.0774C29.9599 43.2299 29.3367 44.3788 28.7078 45.5246C28.4113 46.0655 28.1163 46.6072 27.8211 47.1488C27.7116 47.3496 27.602 47.5504 27.4925 47.7512C27.4465 47.8355 27.4005 47.9198 27.3532 48.0066C27.3045 48.0958 27.3045 48.0958 27.2549 48.1868C27.1837 48.1868 27.1125 48.1868 27.0392 48.1868C26.8699 47.5304 26.701 46.8739 26.5324 46.2174C26.4749 45.9939 26.4174 45.7705 26.3598 45.547C26.2771 45.2264 26.1947 44.9057 26.1124 44.585C26.0865 44.4847 26.0605 44.3843 26.0338 44.281C25.9982 44.1417 25.9982 44.1417 25.9618 43.9997C25.9408 43.9178 25.9197 43.8359 25.898 43.7515C25.8529 43.5495 25.8529 43.5495 25.8529 43.3338C25.7969 43.3541 25.7409 43.3744 25.6832 43.3952C25.1008 43.6058 24.5183 43.8156 23.9355 44.025C23.718 44.1032 23.5005 44.1817 23.2831 44.2603C22.9709 44.3733 22.6584 44.4855 22.3459 44.5976C22.1998 44.6507 22.1998 44.6507 22.0508 44.7048C21.9601 44.7372 21.8694 44.7696 21.776 44.803C21.6963 44.8317 21.6166 44.8605 21.5344 44.8901C21.3235 44.9515 21.3235 44.9515 21 44.9515C21.1706 44.4955 21.3874 44.0698 21.6159 43.6409C21.6551 43.5668 21.6944 43.4926 21.7348 43.4162C21.8626 43.1751 21.9907 42.9343 22.1189 42.6935C22.2078 42.526 22.2967 42.3584 22.3857 42.1909C22.9091 41.2057 23.4373 40.2233 23.9743 39.2454C24.2738 38.6996 24.5699 38.1522 24.863 37.603C24.8987 37.5361 24.9343 37.4693 24.9711 37.4004C25.1454 37.0738 25.3195 36.747 25.4931 36.4199C25.9186 35.6216 26.3619 34.8373 26.8235 34.0593Z" fill="#A0BC32"/>
<path d="M26.8235 34.0593C26.9499 34.1179 27.0763 34.1764 27.2065 34.2367C27.3776 34.3147 27.5488 34.3926 27.72 34.4705C27.8439 34.5281 27.8439 34.5281 27.9704 34.587C28.4979 34.8301 28.4979 34.8301 29.0604 34.9618C29.4681 35.0191 29.8045 35.0759 30.0847 35.4005C30.4213 35.8939 30.6721 36.4332 30.9283 36.9711C31.009 37.1333 31.0901 37.2954 31.1716 37.4572C31.3202 37.7531 31.4663 38.05 31.6104 38.3482C31.7773 38.7006 31.7773 38.7006 32 39.0201C31.9617 39.4157 31.8282 39.7224 31.644 40.0712C31.567 40.218 31.567 40.218 31.4884 40.3679C31.4326 40.4725 31.3768 40.5771 31.3192 40.6849C31.2612 40.7949 31.2031 40.9049 31.1433 41.0182C30.6519 41.9462 30.1497 42.8682 29.6447 43.7888C29.1958 44.6081 28.7543 45.4314 28.3125 46.2546C27.965 46.9015 27.6139 47.5461 27.2549 48.1868C27.1837 48.1868 27.1125 48.1868 27.0392 48.1868C26.8699 47.5304 26.701 46.8739 26.5324 46.2174C26.4749 45.9939 26.4174 45.7705 26.3598 45.547C26.2771 45.2264 26.1947 44.9057 26.1124 44.585C26.0865 44.4847 26.0605 44.3843 26.0338 44.281C25.9982 44.1417 25.9982 44.1417 25.9618 43.9997C25.9408 43.9178 25.9197 43.8359 25.898 43.7515C25.8529 43.5495 25.8529 43.5495 25.8529 43.3338C25.7969 43.3541 25.7409 43.3744 25.6832 43.3952C25.1008 43.6058 24.5183 43.8156 23.9355 44.025C23.718 44.1032 23.5005 44.1817 23.2831 44.2603C22.9709 44.3733 22.6584 44.4855 22.3459 44.5976C22.1998 44.6507 22.1998 44.6507 22.0508 44.7048C21.9601 44.7372 21.8694 44.7696 21.776 44.803C21.6963 44.8317 21.6166 44.8605 21.5344 44.8901C21.3235 44.9515 21.3235 44.9515 21 44.9515C21.1706 44.4955 21.3874 44.0698 21.6159 43.6409C21.6551 43.5668 21.6944 43.4926 21.7348 43.4162C21.8626 43.1751 21.9907 42.9343 22.1189 42.6935C22.2078 42.526 22.2967 42.3584 22.3857 42.1909C22.9091 41.2057 23.4373 40.2233 23.9743 39.2454C24.2738 38.6996 24.5699 38.1522 24.863 37.603C24.8987 37.5361 24.9343 37.4693 24.9711 37.4004C25.1454 37.0738 25.3195 36.747 25.4931 36.4199C25.9186 35.6216 26.3619 34.8373 26.8235 34.0593Z" fill="#51971C"/>
<path d="M31.8922 19.824C31.9633 19.824 32.0345 19.824 32.1078 19.824C32.1583 19.9765 32.1583 19.9765 32.2098 20.1322C32.7963 21.9916 32.7963 21.9916 34.0379 23.3961C34.9782 23.7862 36.0517 23.7987 37.0561 23.795C37.3922 23.8142 37.3922 23.8142 37.7157 24.0299C37.6323 24.0997 37.549 24.1695 37.4631 24.2414C35.9217 25.4506 35.9217 25.4506 34.9202 27.0585C34.8913 27.6548 35.0417 28.1819 35.2516 28.7353C35.48 29.3724 35.5944 30.0397 35.5588 30.7161C35.3835 30.6285 35.2081 30.5408 35.0328 30.453C34.8788 30.3761 34.7247 30.2995 34.5704 30.2231C34.1623 30.0206 33.7576 29.814 33.3573 29.5964C33.2811 29.5559 33.2049 29.5154 33.1265 29.4736C32.9803 29.3957 32.8351 29.3162 32.6909 29.2348C32.3586 29.06 32.1746 28.9737 31.8041 29.0679C31.4448 29.2128 31.1072 29.3771 30.7644 29.5577C30.701 29.5909 30.6375 29.6241 30.5721 29.6583C30.3716 29.7633 30.1714 29.869 29.9712 29.9747C29.7691 30.0811 29.5668 30.1874 29.3645 30.2934C29.1823 30.389 29.0003 30.485 28.8183 30.581C28.549 30.7161 28.549 30.7161 28.4412 30.7161C28.4838 29.7247 28.6568 28.7678 28.8514 27.7961C28.8808 27.6401 28.8808 27.6401 28.9109 27.4808C28.9387 27.3407 28.9387 27.3407 28.967 27.1977C28.9834 26.8839 28.9402 26.7704 28.7647 26.5102C28.5807 26.3084 28.3959 26.1163 28.2011 25.9255C28.1463 25.8711 28.0916 25.8166 28.0352 25.7606C27.8609 25.5876 27.686 25.4153 27.511 25.2431C27.3925 25.1256 27.274 25.0081 27.1555 24.8905C26.8657 24.603 26.5752 24.3163 26.2843 24.0299C26.6747 23.7842 26.9975 23.7947 27.4521 23.7965C29.0055 23.7835 29.0055 23.7835 30.3404 23.1075C31.0951 22.1671 31.5119 20.9551 31.8922 19.824Z" fill="#FEE89C"/>
<defs>
<linearGradient id="paint0_linear_6_414" x1="98.4667" y1="21.1263" x2="-8.8357" y2="26.7315" gradientUnits="userSpaceOnUse">
<stop stop-color="#00ADEF"/>
<stop offset="1" stop-color="#D60F8C"/>
</linearGradient>
</defs>
</svg>
