<svg width="40" height="40" viewBox="0 0 40 40" fill="none" xmlns="http://www.w3.org/2000/svg">
<circle cx="20" cy="20" r="20" fill="url(#paint0_linear_270_1158)"/>
<circle cx="20.0001" cy="20.0013" r="17.3333" fill="white"/>
<g clip-path="url(#clip0_270_1158)">
<path d="M24.8717 21.8475L21.2108 20.2708C20.43 19.935 19.5342 19.935 18.7542 20.2725L15.1167 21.8475C14.5142 22.1083 14.14 22.6783 14.1392 23.3342C14.1383 23.99 14.5117 24.5608 15.1125 24.8233L16.6667 25.5017V27.6617C16.6667 28.4733 17.1417 29.2167 17.8783 29.5558C18.5192 29.8508 19.2325 30 20 30C20.7675 30 21.4808 29.85 22.1233 29.5558C22.8583 29.2167 23.3333 28.4725 23.3333 27.6617V25.495L24.1667 25.1333V27.5008C24.1667 27.9617 24.5392 28.3342 25 28.3342C25.4608 28.3342 25.8333 27.9617 25.8333 27.5008C25.8333 27.5008 25.8333 23.3783 25.8333 23.3342C25.8333 22.6867 25.4658 22.1025 24.8717 21.8483V21.8475ZM19.4167 21.8025C19.7767 21.6458 20.1917 21.6458 20.5517 21.8008L24.1767 23.2817C24.1767 23.2933 24.1708 23.3025 24.17 23.3142L20.5575 24.8833C20.1942 25.0408 19.7775 25.0408 19.4142 24.8817L15.7783 23.3775L19.4158 21.8025H19.4167ZM21.6667 27.6608C21.6667 27.8267 21.5742 27.9733 21.4258 28.0417C20.5842 28.4275 19.415 28.4275 18.575 28.0417C18.4258 27.9733 18.3333 27.8267 18.3333 27.6608V26.2283L18.7483 26.4092C19.1425 26.5808 19.565 26.6667 19.9883 26.6667C20.4092 26.6667 20.83 26.5817 21.2225 26.4108L21.6667 26.2175V27.6608ZM15.8333 13.75C15.8333 14.44 15.2733 15 14.5833 15C13.8933 15 13.3333 14.44 13.3333 13.75C13.3333 13.06 13.8933 12.5 14.5833 12.5C15.2733 12.5 15.8333 13.06 15.8333 13.75ZM19.1667 13.75C19.1667 14.44 18.6067 15 17.9167 15C17.2267 15 16.6667 14.44 16.6667 13.75C16.6667 13.06 17.2267 12.5 17.9167 12.5C18.6067 12.5 19.1667 13.06 19.1667 13.75ZM25.8333 10H14.1667C11.8692 10 10 11.8692 10 14.1667V24.1667C10 26.4642 11.8692 28.3333 14.1667 28.3333C14.6267 28.3333 15 27.9608 15 27.5C15 27.0392 14.6267 26.6667 14.1667 26.6667C12.7883 26.6667 11.6667 25.545 11.6667 24.1667V17.5H28.3333V24.1667C28.3333 24.7758 28.1117 25.3633 27.7092 25.8192C27.405 26.1642 27.4375 26.6908 27.7833 26.995C28.1267 27.2992 28.6542 27.2675 28.9592 26.9208C29.6308 26.1608 30 25.1817 30 24.1658V14.1667C30 11.8692 28.1308 10 25.8333 10ZM11.6667 15.8333V14.1667C11.6667 12.7883 12.7883 11.6667 14.1667 11.6667H25.8333C27.2117 11.6667 28.3333 12.7883 28.3333 14.1667V15.8333H11.6667Z" fill="url(#paint1_linear_270_1158)"/>
</g>
<defs>
<linearGradient id="paint0_linear_270_1158" x1="4.62971e-08" y1="3.80952" x2="42.0865" y2="7.60863" gradientUnits="userSpaceOnUse">
<stop stop-color="#FBFDFF"/>
<stop offset="1" stop-color="#E9F6FF"/>
</linearGradient>
<linearGradient id="paint1_linear_270_1158" x1="40.7708" y1="16.602" x2="7.23884" y2="18.3536" gradientUnits="userSpaceOnUse">
<stop stop-color="#00ADEF"/>
<stop offset="1" stop-color="#D60F8C"/>
</linearGradient>
<clipPath id="clip0_270_1158">
<rect width="20" height="20" fill="white" transform="translate(10 10)"/>
</clipPath>
</defs>
</svg>
