<svg width="64" height="64" viewBox="0 0 64 64" fill="none" xmlns="http://www.w3.org/2000/svg">
<circle cx="32" cy="32" r="32" fill="url(#paint0_linear_6_393)"/>
<circle cx="32" cy="32" r="28" fill="white"/>
<g clip-path="url(#clip0_6_393)">
<path d="M14.7766 25.3714C14.9157 25.3696 14.9157 25.3696 15.0577 25.3677C15.6095 25.3675 16.0294 25.3792 16.479 25.7239C16.6782 26.0006 16.6457 26.3256 16.6451 26.6542C16.6451 26.7056 16.6452 26.7571 16.6452 26.8101C16.6451 26.9795 16.6445 27.149 16.644 27.3185C16.6438 27.4362 16.6437 27.5539 16.6436 27.6716C16.6434 27.981 16.6426 28.2905 16.6418 28.5999C16.6409 28.9714 16.6406 29.3429 16.6401 29.7143C16.6394 30.2783 16.638 30.8423 16.6367 31.4063C17.4205 31.3818 18.2042 31.3573 19.0117 31.3321C18.8648 31.2096 18.7178 31.0871 18.5664 30.961C18.3247 30.6283 18.0979 30.2528 18.0747 29.8338C18.1644 29.2867 18.4446 28.805 18.8633 28.4375C19.2201 28.2206 19.5226 28.1828 19.9312 28.1861C19.9921 28.1857 20.0529 28.1853 20.1157 28.1849C20.3159 28.1839 20.5162 28.1846 20.7164 28.1853C20.8562 28.1852 20.9959 28.1849 21.1356 28.1847C21.4281 28.1843 21.7206 28.1848 22.013 28.1858C22.3874 28.1871 22.7617 28.1864 23.1361 28.1851C23.4245 28.1842 23.7129 28.1845 24.0014 28.1851C24.1394 28.1852 24.2774 28.1851 24.4154 28.1845C24.6085 28.184 24.8015 28.1848 24.9946 28.1861C25.0513 28.1856 25.108 28.1852 25.1664 28.1847C25.5925 28.1897 25.8954 28.2853 26.2118 28.5735C26.6011 29.0335 26.86 29.3992 26.8403 30.0214C26.7334 30.6135 26.3613 30.9593 25.9141 31.3321C27.604 31.3566 29.294 31.381 31.0351 31.4063C31.0107 31.1614 30.9862 30.9164 30.9609 30.6641C31.0417 29.9007 31.365 29.304 31.9536 28.8179C32.4737 28.4147 32.9905 28.3301 33.6276 28.3333C33.6988 28.3328 33.7701 28.3323 33.8436 28.3318C34.0777 28.3304 34.3119 28.3307 34.546 28.3311C34.7098 28.3308 34.8736 28.3304 35.0374 28.33C35.3801 28.3293 35.7229 28.3295 36.0656 28.3302C36.5035 28.3311 36.9413 28.3296 37.3792 28.3274C37.7173 28.326 38.0554 28.3261 38.3935 28.3265C38.5549 28.3265 38.7163 28.326 38.8777 28.3251C39.1039 28.324 39.3301 28.3248 39.5564 28.3261C39.6222 28.3254 39.688 28.3246 39.7557 28.3239C40.4994 28.3326 41.0965 28.618 41.6484 29.1055C42.0937 29.7735 42.0937 29.7735 42.7617 31.3321C44.2802 31.3566 45.7987 31.381 47.3633 31.4063C47.3633 31.0879 47.3633 30.7695 47.3633 30.4414C47.4742 30.1196 47.5888 29.9429 47.8828 29.7735C48.0886 29.75 48.2774 29.7387 48.4832 29.7387C48.5412 29.7381 48.5992 29.7376 48.659 29.737C48.7814 29.7362 48.9039 29.736 49.0264 29.7363C49.2133 29.7364 49.3999 29.7333 49.5868 29.73C49.706 29.7296 49.8252 29.7294 49.9444 29.7294C50.0278 29.7276 50.0278 29.7276 50.1129 29.7257C50.4144 29.7297 50.5394 29.7606 50.7737 29.9571C50.8239 30.019 50.8741 30.0808 50.9258 30.1446C50.9503 30.1691 50.9748 30.1935 51 30.2188C51.0087 30.4453 51.0125 30.6701 51.0131 30.8967C51.0139 31.0035 51.0139 31.0035 51.0146 31.1125C51.0161 31.3495 51.0169 31.5865 51.0177 31.8235C51.018 31.9044 51.0183 31.9853 51.0186 32.0686C51.0201 32.4973 51.0212 32.9259 51.0219 33.3546C51.0227 33.7966 51.0253 34.2385 51.0282 34.6805C51.0302 35.0208 51.0308 35.3611 51.0311 35.7015C51.0314 35.8643 51.0323 36.0271 51.0336 36.19C51.0355 36.4188 51.0354 36.6475 51.0349 36.8763C51.0358 36.9429 51.0368 37.0095 51.0378 37.0781C51.033 37.6612 50.8639 38.137 50.5454 38.6241C49.6878 39.4443 48.7355 39.4435 47.6184 39.4312C47.4999 39.4304 47.3813 39.4298 47.2628 39.4292C46.9747 39.4275 46.6866 39.425 46.3984 39.4219C46.3995 40.0942 46.4026 40.7664 46.4082 41.4387C46.4108 41.7508 46.4126 42.063 46.4129 42.3751C46.4133 42.6764 46.4154 42.9776 46.4187 43.2789C46.4197 43.3938 46.42 43.5088 46.4197 43.6237C46.4193 43.7847 46.4212 43.9456 46.4237 44.1066C46.4244 44.2441 46.4244 44.2441 46.4252 44.3843C46.4859 44.6822 46.5959 44.7495 46.8437 44.9141C46.9585 45.0651 46.9585 45.0651 47.0478 45.2156C47.0781 45.2655 47.1083 45.3153 47.1395 45.3667C47.3831 45.8229 47.3541 46.4344 47.2575 46.9325C47.0817 47.3963 46.6942 47.8234 46.2639 48.0638C45.7653 48.2803 45.2277 48.3065 44.7039 48.1693C44.1709 47.958 43.8055 47.5517 43.5225 47.0664C43.3409 46.6034 43.3461 46.0588 43.5001 45.5905C43.6717 45.2284 43.8689 44.9523 44.1719 44.6914C44.5583 44.305 44.2943 43.6045 44.3203 43.0586C36.1889 43.0586 28.0575 43.0586 19.6797 43.0586C19.5742 44.5207 19.5742 44.5207 20.125 44.9883C20.2398 45.1466 20.2398 45.1466 20.3291 45.2945C20.3593 45.3436 20.3896 45.3928 20.4207 45.4435C20.6448 45.8555 20.6154 46.3147 20.5703 46.7696C20.3781 47.4023 20.0002 47.7849 19.4292 48.0916C18.8741 48.2734 18.3809 48.2995 17.8242 48.1055C17.3594 47.8594 16.9352 47.4344 16.746 46.9337C16.6254 46.3693 16.6182 45.7593 16.9229 45.2565C17.1091 44.9939 17.2574 44.7972 17.5273 44.6172C17.5629 44.3923 17.5629 44.3923 17.5594 44.1235C17.5602 44.0728 17.5609 44.0221 17.5617 43.9698C17.564 43.802 17.5646 43.6341 17.5653 43.4663C17.5666 43.35 17.5679 43.2337 17.5694 43.1174C17.5729 42.8112 17.5751 42.5049 17.577 42.1987C17.5792 41.8863 17.5827 41.5738 17.586 41.2614C17.5924 40.6483 17.5974 40.0351 17.6016 39.4219C17.5286 39.4227 17.4557 39.4235 17.3805 39.4243C17.1071 39.427 16.8336 39.4287 16.5601 39.4301C16.4423 39.4308 16.3245 39.4318 16.2066 39.4331C15.2606 39.4432 14.4504 39.4296 13.668 38.8282C13.0022 38.1512 12.967 37.4023 12.97 36.5027C12.9696 36.3877 12.9691 36.2726 12.9685 36.1576C12.9671 35.8467 12.9672 35.5357 12.9676 35.2247C12.9679 34.9648 12.9674 34.705 12.967 34.4451C12.9659 33.8321 12.966 33.2191 12.9669 32.6061C12.9677 31.974 12.9667 31.3419 12.9647 30.7097C12.9631 30.1664 12.9626 29.623 12.963 29.0797C12.9633 28.7554 12.9631 28.4312 12.9618 28.1069C12.9607 27.8022 12.9609 27.4976 12.9623 27.1929C12.9626 27.0812 12.9624 26.9694 12.9616 26.8577C12.9606 26.7051 12.9615 26.5525 12.9628 26.3999C12.9628 26.3145 12.9628 26.2292 12.9628 26.1412C13.0083 25.8636 13.1008 25.7414 13.2969 25.543C13.7702 25.3279 14.2668 25.3701 14.7766 25.3714ZM32.4644 29.9695C32.2297 30.303 32.1549 30.5507 32.1484 30.961C32.1974 31.1079 32.2464 31.2549 32.2969 31.4063C33.595 31.4063 34.893 31.4063 36.2305 31.4063C36.1746 30.9355 36.1746 30.9355 36.0841 30.4785C36.0709 30.4235 36.0577 30.3685 36.0442 30.3118C36.0239 30.229 36.0239 30.229 36.0032 30.1446C35.9893 30.0871 35.9755 30.0296 35.9613 29.9703C35.9276 29.8304 35.8935 29.6906 35.8594 29.5508C35.4778 29.5434 35.0963 29.5381 34.7146 29.5345C34.585 29.533 34.4554 29.531 34.3257 29.5284C34.1387 29.5248 33.9518 29.5231 33.7647 29.5218C33.7073 29.5203 33.6499 29.5188 33.5908 29.5172C33.1255 29.517 32.8101 29.644 32.4644 29.9695ZM37.0469 29.5508C37.1068 29.8323 37.1673 30.1137 37.2278 30.3951C37.2449 30.4752 37.2619 30.5554 37.2795 30.638C37.3043 30.7528 37.3043 30.7528 37.3295 30.8699C37.3447 30.9407 37.3599 31.0114 37.3755 31.0843C37.4112 31.2581 37.4112 31.2581 37.4922 31.4063C38.7903 31.4063 40.0884 31.4063 41.4258 31.4063C41.2419 30.8414 41.2419 30.8414 41.0037 30.3116C40.9712 30.2461 40.9388 30.1807 40.9054 30.1133C40.6713 29.8098 40.3734 29.5899 39.9906 29.5184C39.8007 29.5082 39.6143 29.509 39.4242 29.5146C39.3558 29.5151 39.2875 29.5156 39.2171 29.5162C39.0008 29.5182 38.7846 29.5229 38.5684 29.5276C38.4209 29.5295 38.2734 29.5312 38.1259 29.5327C37.7662 29.5368 37.4066 29.5432 37.0469 29.5508ZM19.6797 39.4219C19.6797 40.2302 19.6797 41.0384 19.6797 41.8711C27.8111 41.8711 35.9425 41.8711 44.3203 41.8711C44.3203 41.0629 44.3203 40.2546 44.3203 39.4219C36.1889 39.4219 28.0575 39.4219 19.6797 39.4219Z" fill="#38648C"/>
<path d="M19.9312 28.186C19.9921 28.1857 20.053 28.1853 20.1157 28.1849C20.3159 28.1839 20.5162 28.1845 20.7164 28.1853C20.8562 28.1851 20.9959 28.1849 21.1356 28.1846C21.4281 28.1843 21.7206 28.1848 22.013 28.1858C22.3874 28.1871 22.7617 28.1864 23.1361 28.185C23.4245 28.1842 23.7129 28.1845 24.0014 28.1851C24.1394 28.1852 24.2774 28.185 24.4154 28.1845C24.6085 28.1839 24.8015 28.1848 24.9946 28.186C25.0513 28.1856 25.108 28.1851 25.1664 28.1847C25.5925 28.1897 25.8954 28.2853 26.2118 28.5735C26.6011 29.0335 26.8601 29.3992 26.8403 30.0213C26.7334 30.6134 26.3613 30.9593 25.9141 31.332C27.604 31.3565 29.294 31.381 31.0352 31.4063C31.0107 31.1613 30.9862 30.9164 30.9609 30.6641C31.0417 29.9007 31.365 29.304 31.9536 28.8179C32.4737 28.4147 32.9905 28.3301 33.6276 28.3333C33.6988 28.3328 33.7701 28.3323 33.8436 28.3318C34.0777 28.3304 34.3119 28.3307 34.546 28.3311C34.7098 28.3308 34.8736 28.3304 35.0374 28.3299C35.3801 28.3293 35.7229 28.3294 36.0656 28.3302C36.5035 28.331 36.9413 28.3295 37.3792 28.3274C37.7173 28.326 38.0554 28.326 38.3935 28.3265C38.5549 28.3265 38.7163 28.326 38.8777 28.3251C39.1039 28.324 39.3301 28.3248 39.5564 28.3261C39.6222 28.3253 39.688 28.3246 39.7557 28.3239C40.4994 28.3325 41.0965 28.618 41.6484 29.1055C42.0937 29.7734 42.0937 29.7734 42.7617 31.332C44.3047 31.3565 45.8477 31.381 47.4375 31.4063C47.4444 32.5153 47.4444 32.5153 47.4514 33.6467C47.4534 33.8797 47.4555 34.1127 47.4576 34.3527C47.4582 34.5375 47.4588 34.7222 47.4592 34.907C47.461 35.0508 47.461 35.0508 47.4627 35.1975C47.4627 35.2893 47.4627 35.3812 47.4628 35.4759C47.4635 35.5953 47.4635 35.5953 47.4643 35.7171C47.4248 36.0363 47.2906 36.2289 47.0664 36.4531C46.8551 36.4719 46.8551 36.4719 46.5784 36.4722C46.5019 36.4726 46.5019 36.4726 46.424 36.473C46.2515 36.4737 46.0791 36.4733 45.9066 36.473C45.7824 36.4733 45.6582 36.4736 45.534 36.474C45.1913 36.4749 44.8487 36.4749 44.506 36.4747C44.137 36.4747 43.768 36.4755 43.3989 36.4762C42.6754 36.4774 41.9519 36.4778 41.2285 36.4779C40.6406 36.478 40.0528 36.4783 39.4649 36.4788C37.7998 36.4801 36.1347 36.4808 34.4696 36.4807C34.3349 36.4806 34.3349 36.4806 34.1974 36.4806C34.1074 36.4806 34.0175 36.4806 33.9248 36.4806C32.4665 36.4806 31.0082 36.482 29.5498 36.4841C28.054 36.4862 26.5581 36.4872 25.0622 36.4871C24.2218 36.4871 23.3813 36.4875 22.5409 36.4891C21.8254 36.4904 21.1099 36.4907 20.3944 36.4897C20.0291 36.4892 19.6638 36.4892 19.2985 36.4905C18.9644 36.4917 18.6303 36.4915 18.2962 36.4902C18.175 36.49 18.0539 36.4902 17.9327 36.491C17.7685 36.4921 17.6045 36.4913 17.4403 36.4901C17.3033 36.4901 17.3033 36.4901 17.1635 36.4902C16.8885 36.4459 16.8031 36.3756 16.6367 36.1563C16.5568 35.9166 16.5536 35.7447 16.5541 35.4927C16.5541 35.4021 16.5541 35.3115 16.5541 35.2181C16.5545 35.1202 16.5549 35.0223 16.5552 34.9215C16.5554 34.8203 16.5555 34.7191 16.5556 34.6179C16.5559 34.3518 16.5566 34.0857 16.5574 33.8196C16.5582 33.548 16.5585 33.2763 16.5589 33.0047C16.5596 32.4719 16.5611 31.9391 16.5625 31.4063C17.3707 31.3818 18.179 31.3573 19.0117 31.332C18.8648 31.2096 18.7178 31.0871 18.5664 30.9609C18.3247 30.6283 18.0979 30.2528 18.0747 29.8337C18.1644 29.2866 18.4446 28.805 18.8633 28.4375C19.2201 28.2205 19.5226 28.1828 19.9312 28.186ZM32.4644 29.9694C32.2297 30.303 32.1549 30.5507 32.1484 30.9609C32.1974 31.1079 32.2464 31.2549 32.2969 31.4063C33.595 31.4063 34.893 31.4063 36.2305 31.4063C36.1746 30.9354 36.1746 30.9354 36.0841 30.4785C36.0709 30.4235 36.0577 30.3685 36.0442 30.3118C36.0239 30.229 36.0239 30.229 36.0032 30.1445C35.9893 30.087 35.9755 30.0295 35.9613 29.9703C35.9276 29.8304 35.8935 29.6906 35.8594 29.5508C35.4778 29.5434 35.0963 29.538 34.7147 29.5345C34.585 29.533 34.4554 29.531 34.3257 29.5284C34.1387 29.5248 33.9518 29.5231 33.7647 29.5218C33.7073 29.5203 33.65 29.5187 33.5908 29.5172C33.1255 29.517 32.8101 29.6439 32.4644 29.9694ZM37.0469 29.5508C37.1069 29.8323 37.1673 30.1137 37.2278 30.395C37.2449 30.4752 37.2619 30.5554 37.2795 30.638C37.3043 30.7528 37.3043 30.7528 37.3295 30.8699C37.3447 30.9406 37.3599 31.0114 37.3755 31.0843C37.4112 31.258 37.4112 31.258 37.4922 31.4063C38.7903 31.4063 40.0884 31.4063 41.4258 31.4063C41.2419 30.8414 41.2419 30.8414 41.0037 30.3115C40.9712 30.2461 40.9388 30.1807 40.9054 30.1132C40.6713 29.8098 40.3734 29.5899 39.9906 29.5184C39.8007 29.5081 39.6143 29.509 39.4242 29.5145C39.3558 29.5151 39.2875 29.5156 39.2171 29.5161C39.0008 29.5182 38.7846 29.5229 38.5684 29.5276C38.4209 29.5295 38.2734 29.5312 38.1259 29.5327C37.7662 29.5367 37.4066 29.5431 37.0469 29.5508Z" fill="#76B7EB"/>
<path d="M14.7766 25.3714C14.9157 25.3696 14.9157 25.3696 15.0577 25.3677C15.6095 25.3675 16.0294 25.3792 16.479 25.7239C16.6569 25.9711 16.6456 26.2468 16.6441 26.5419C16.6438 26.6653 16.6438 26.6653 16.6435 26.7913C16.6429 26.8812 16.6422 26.9712 16.6416 27.0639C16.6411 27.2097 16.6405 27.3555 16.64 27.5014C16.6394 27.658 16.6386 27.8146 16.6378 27.9711C16.636 28.2977 16.6351 28.6242 16.6342 28.9508C16.6317 29.8793 16.6286 30.8078 16.624 31.7363C16.6214 32.2492 16.6197 32.7622 16.6188 33.2751C16.6182 33.5996 16.6166 33.9241 16.6143 34.2486C16.6128 34.4981 16.6128 34.7475 16.6126 34.9969C16.6117 35.0867 16.6108 35.1765 16.6098 35.269C16.61 35.3515 16.6102 35.4341 16.6104 35.5191C16.6101 35.5906 16.6098 35.6621 16.6095 35.7358C16.645 35.9938 16.7483 36.1936 16.9336 36.3789C17.0556 36.387 17.178 36.3898 17.3004 36.3907C17.3798 36.3914 17.4592 36.3921 17.541 36.3929C17.6289 36.3933 17.7167 36.3937 17.8073 36.3942C17.8992 36.3949 17.9912 36.3956 18.0859 36.3964C18.3387 36.3984 18.5916 36.4 18.8445 36.4015C19.1084 36.4031 19.3724 36.4051 19.6364 36.4071C20.1366 36.4108 20.6368 36.4141 21.137 36.4173C21.7063 36.421 22.2757 36.4251 22.845 36.4292C24.0165 36.4376 25.1879 36.4456 26.3594 36.4532C26.3978 36.528 26.4362 36.6029 26.4757 36.6801C26.5278 36.7801 26.58 36.8802 26.6322 36.9802C26.6698 37.0539 26.6698 37.0539 26.7082 37.1291C27.2146 38.0944 28.0229 38.7096 28.9483 39.25C29.0002 39.2822 29.052 39.3145 29.1055 39.3477C29.1055 39.3722 29.1055 39.3967 29.1055 39.4219C27.2881 39.4254 25.4707 39.428 23.6533 39.4296C22.8094 39.4304 21.9655 39.4314 21.1216 39.4331C20.386 39.4346 19.6504 39.4355 18.9148 39.4359C18.5254 39.4361 18.136 39.4365 17.7465 39.4376C17.3798 39.4386 17.013 39.4389 16.6462 39.4387C16.5118 39.4387 16.3775 39.439 16.2431 39.4396C15.2863 39.4435 14.46 39.437 13.668 38.8282C13.0022 38.1512 12.967 37.4023 12.97 36.5027C12.9696 36.3877 12.9691 36.2726 12.9685 36.1576C12.9671 35.8467 12.9672 35.5357 12.9676 35.2247C12.9679 34.9648 12.9674 34.705 12.967 34.4451C12.9659 33.8321 12.966 33.2191 12.9669 32.6061C12.9677 31.974 12.9667 31.3419 12.9647 30.7097C12.9631 30.1664 12.9626 29.623 12.963 29.0797C12.9633 28.7554 12.9631 28.4312 12.9618 28.1069C12.9607 27.8022 12.9609 27.4976 12.9623 27.1929C12.9626 27.0812 12.9624 26.9694 12.9616 26.8577C12.9606 26.7051 12.9615 26.5525 12.9628 26.3999C12.9628 26.3145 12.9628 26.2292 12.9628 26.1412C13.0083 25.8636 13.1008 25.7414 13.2969 25.543C13.7702 25.3279 14.2668 25.3701 14.7766 25.3714Z" fill="#325A7E"/>
<path d="M35.3862 17.045C36.3639 17.9895 36.9574 19.171 37.0024 20.5381C37.0215 21.9563 36.6096 23.1519 35.6741 24.2393C34.6898 25.2482 33.4145 25.777 32.0139 25.7982C30.6144 25.7874 29.3709 25.2644 28.3633 24.2814C27.2977 23.0812 26.9318 21.7348 27.0123 20.1635C27.1236 18.7819 27.9054 17.6579 28.9292 16.7714C29.5521 16.2923 30.3277 15.925 31.1094 15.8204C31.1834 15.8071 31.1834 15.8071 31.259 15.7935C32.7206 15.5688 34.2994 16.0424 35.3862 17.045Z" fill="#F28B74"/>
<path d="M19.9312 28.186C19.9921 28.1857 20.053 28.1853 20.1157 28.1849C20.3159 28.1839 20.5162 28.1845 20.7164 28.1853C20.8562 28.1851 20.9959 28.1849 21.1356 28.1846C21.4281 28.1843 21.7206 28.1848 22.013 28.1858C22.3874 28.1871 22.7617 28.1864 23.1361 28.185C23.4245 28.1842 23.7129 28.1845 24.0014 28.1851C24.1394 28.1852 24.2774 28.185 24.4154 28.1845C24.6085 28.1839 24.8015 28.1848 24.9946 28.186C25.0513 28.1856 25.108 28.1851 25.1664 28.1847C25.5925 28.1897 25.8954 28.2853 26.2118 28.5735C26.6011 29.0335 26.8601 29.3992 26.8403 30.0213C26.7576 30.4792 26.4755 30.8763 26.1367 31.1882C25.901 31.3405 25.7426 31.3694 25.4687 31.4063C25.5143 33.0118 25.9708 34.45 27.1401 35.5976C27.4572 35.8899 27.7764 36.1489 28.1406 36.3789C28.1406 36.4034 28.1406 36.4279 28.1406 36.4531C26.6845 36.4601 25.2285 36.4653 23.7724 36.4685C23.0963 36.47 22.4202 36.4721 21.7441 36.4755C21.155 36.4785 20.5658 36.4804 19.9766 36.4811C19.6645 36.4815 19.3525 36.4824 19.0405 36.4845C18.7468 36.4865 18.4532 36.4872 18.1596 36.4867C18.0518 36.4868 17.944 36.4874 17.8361 36.4885C17.689 36.49 17.5419 36.4895 17.3948 36.4888C17.3124 36.4891 17.23 36.4894 17.1451 36.4897C16.883 36.4444 16.7979 36.364 16.6367 36.1563C16.5568 35.9166 16.5536 35.7447 16.5541 35.4927C16.5541 35.4021 16.5541 35.3115 16.5541 35.2181C16.5545 35.1202 16.5549 35.0223 16.5552 34.9215C16.5554 34.8203 16.5555 34.7191 16.5556 34.6179C16.5559 34.3518 16.5566 34.0857 16.5574 33.8196C16.5582 33.548 16.5585 33.2763 16.5589 33.0047C16.5596 32.4719 16.5611 31.9391 16.5625 31.4063C17.3707 31.3818 18.179 31.3573 19.0117 31.332C18.8648 31.2096 18.7178 31.0871 18.5664 30.9609C18.3247 30.6283 18.0979 30.2528 18.0747 29.8337C18.1644 29.2866 18.4446 28.805 18.8633 28.4375C19.2201 28.2205 19.5226 28.1828 19.9312 28.186Z" fill="#CFD0D1"/>
<path d="M17.6016 39.3477C18.2873 39.3477 18.9731 39.3477 19.6797 39.3477C19.6797 40.1804 19.6797 41.0131 19.6797 41.8711C20.1425 41.8708 20.1425 41.8708 20.6146 41.8706C23.4408 41.8691 26.267 41.868 29.0931 41.8673C29.4631 41.8672 29.8332 41.8671 30.2032 41.867C30.2769 41.867 30.3506 41.867 30.4265 41.867C31.621 41.8666 32.8155 41.866 34.01 41.8654C35.2347 41.8647 36.4595 41.8643 37.6842 41.8641C38.4405 41.864 39.1969 41.8637 39.9533 41.8631C40.4712 41.8627 40.9891 41.8626 41.507 41.8627C41.8063 41.8627 42.1056 41.8626 42.4049 41.8622C42.6784 41.8619 42.952 41.8619 43.2255 41.8621C43.3723 41.8622 43.519 41.8618 43.6658 41.8615C43.7948 41.8617 43.7948 41.8617 43.9264 41.862C44.0012 41.8619 44.076 41.8619 44.1531 41.8619C44.3203 41.8711 44.3203 41.8711 44.3945 41.9453C44.3945 42.3127 44.3945 42.6801 44.3945 43.0586C36.2386 43.0586 28.0827 43.0586 19.6797 43.0586C19.5742 44.5207 19.5742 44.5207 20.125 44.9883C20.2398 45.1466 20.2398 45.1466 20.3291 45.2944C20.3593 45.3436 20.3896 45.3928 20.4207 45.4435C20.6448 45.8554 20.6154 46.3147 20.5703 46.7695C20.3781 47.4023 20.0002 47.7849 19.4292 48.0916C18.8741 48.2734 18.3809 48.2995 17.8242 48.1055C17.3594 47.8594 16.9352 47.4344 16.746 46.9336C16.6254 46.3692 16.6182 45.7592 16.9229 45.2565C17.1091 44.9939 17.2574 44.7971 17.5273 44.6172C17.563 44.3892 17.563 44.3892 17.5594 44.1166C17.5602 44.0652 17.5609 44.0138 17.5617 43.9608C17.564 43.7905 17.5647 43.6203 17.5653 43.45C17.5666 43.332 17.5679 43.2141 17.5694 43.0962C17.5729 42.7855 17.5751 42.4749 17.577 42.1642C17.5792 41.8473 17.5827 41.5305 17.5861 41.2136C17.5924 40.5916 17.5973 39.9696 17.6016 39.3477Z" fill="#37638C"/>
<path d="M25.4687 31.4062C27.3302 31.4062 29.1916 31.4062 31.1094 31.4062C31.3619 32.3867 31.3619 32.3867 31.6196 33.387C31.699 33.6935 31.699 33.6935 31.7799 34.0061C31.8222 34.1711 31.8644 34.3361 31.9066 34.5011C31.9283 34.5843 31.95 34.6675 31.9723 34.7532C32.1157 35.3162 32.2186 35.8775 32.2969 36.4531C31.7213 36.4702 31.1458 36.4818 30.5701 36.4898C30.3745 36.4932 30.179 36.4977 29.9835 36.5035C28.0964 36.5582 28.0964 36.5582 27.5814 36.1336C27.4002 35.9565 27.4002 35.9565 27.25 35.7852C27.147 35.6932 27.0435 35.6019 26.9392 35.5115C26.3112 34.8521 25.8899 34.0503 25.6172 33.1875C25.599 33.1315 25.5808 33.0756 25.5621 33.0179C25.4134 32.4732 25.4687 31.9954 25.4687 31.4062Z" fill="#E7E8E9"/>
<path d="M19.9312 28.186C19.9921 28.1857 20.053 28.1853 20.1157 28.1849C20.3159 28.1839 20.5162 28.1845 20.7164 28.1853C20.8562 28.1851 20.9959 28.1849 21.1356 28.1846C21.4281 28.1843 21.7206 28.1848 22.013 28.1858C22.3874 28.1871 22.7617 28.1864 23.1361 28.185C23.4245 28.1842 23.7129 28.1845 24.0014 28.1851C24.1394 28.1852 24.2774 28.185 24.4154 28.1845C24.6085 28.1839 24.8015 28.1848 24.9946 28.186C25.0513 28.1856 25.108 28.1851 25.1664 28.1847C25.5925 28.1897 25.8954 28.2853 26.2118 28.5735C26.6011 29.0335 26.8601 29.3992 26.8403 30.0213C26.7582 30.4764 26.4786 30.8736 26.1414 31.1836C25.7241 31.4561 25.3022 31.5025 24.8136 31.4997C24.7302 31.5001 24.7302 31.5001 24.6451 31.5005C24.4628 31.5011 24.2806 31.5007 24.0983 31.5002C23.9707 31.5003 23.8431 31.5004 23.7154 31.5006C23.4485 31.5008 23.1815 31.5005 22.9146 31.4998C22.5736 31.499 22.2327 31.4995 21.8917 31.5004C21.6283 31.5009 21.3649 31.5007 21.1015 31.5003C20.9758 31.5002 20.8501 31.5004 20.7245 31.5007C20.5483 31.5011 20.3722 31.5005 20.196 31.4997C20.1449 31.5 20.0937 31.5003 20.041 31.5006C19.5514 31.4964 19.0472 31.4366 18.6743 31.0902C18.3802 30.7377 18.1006 30.3025 18.0747 29.8337C18.1644 29.2866 18.4446 28.805 18.8633 28.4375C19.2201 28.2205 19.5226 28.1828 19.9312 28.186Z" fill="#76B7EA"/>
<path d="M37.4922 31.4062C38.8148 31.4062 40.1373 31.4062 41.5 31.4062C42.0044 32.4151 42.0044 32.4151 42.1494 32.8953C42.1781 32.988 42.2068 33.0807 42.2364 33.1762C42.4413 33.9319 42.4842 34.6461 42.4741 35.428C42.4711 35.7663 42.468 36.1046 42.4648 36.4531C41.1913 36.4531 39.9177 36.4531 38.6055 36.4531C38.5126 36.1282 38.4237 35.8077 38.3445 35.4799C38.3238 35.3943 38.3031 35.3086 38.2818 35.2204C38.1783 34.7892 38.0749 34.358 37.9722 33.9266C37.9382 33.7841 37.904 33.6418 37.8698 33.4994C37.8068 33.2363 37.7445 32.973 37.6824 32.7097C37.6632 32.6298 37.644 32.55 37.6242 32.4677C37.6067 32.393 37.5893 32.3184 37.5713 32.2415C37.556 32.1767 37.5406 32.1119 37.5248 32.0451C37.4922 31.8516 37.4922 31.8516 37.4922 31.4062Z" fill="#E7E8E9"/>
<path d="M42.7617 31.4062C44.3047 31.4062 45.8477 31.4062 47.4375 31.4062C47.4421 32.1456 47.4467 32.885 47.4514 33.6467C47.4545 33.9962 47.4545 33.9962 47.4576 34.3527C47.4582 34.5375 47.4588 34.7222 47.4592 34.907C47.4604 35.0029 47.4615 35.0987 47.4627 35.1975C47.4627 35.2893 47.4627 35.3812 47.4628 35.4759C47.4633 35.5555 47.4638 35.6351 47.4643 35.7171C47.4248 36.0363 47.2906 36.2289 47.0664 36.4531C46.9161 36.471 46.9161 36.471 46.7293 36.47C46.6595 36.47 46.5897 36.47 46.5177 36.4699C46.4422 36.4692 46.3667 36.4684 46.2888 36.4676C46.2116 36.4674 46.1344 36.4672 46.0549 36.467C45.8076 36.4662 45.5603 36.4643 45.313 36.4624C45.1456 36.4617 44.9782 36.461 44.8109 36.4604C44.3999 36.4587 43.989 36.4562 43.5781 36.4531C43.5767 36.3903 43.5752 36.3276 43.5737 36.2629C43.5678 36.0255 43.5614 35.7881 43.5546 35.5508C43.5518 35.4489 43.5492 35.347 43.5468 35.245C43.5265 34.3786 43.4524 33.5569 43.1746 32.7329C43.0305 32.2922 42.895 31.8507 42.7617 31.4062Z" fill="#CDCFD1"/>
<path d="M32.2227 31.4062C33.5697 31.4062 34.9168 31.4062 36.3047 31.4062C36.645 32.7676 36.645 32.7676 36.7526 33.2466C36.7648 33.3005 36.7771 33.3544 36.7897 33.4099C36.8276 33.5769 36.8654 33.744 36.9031 33.9111C36.9533 34.1334 37.0037 34.3557 37.0541 34.5779C37.0721 34.6575 37.0721 34.6575 37.0904 34.7386C37.1788 35.1266 37.2759 35.5118 37.3795 35.896C37.418 36.082 37.418 36.082 37.418 36.4531C36.1199 36.4531 34.8218 36.4531 33.4844 36.4531C33.2339 35.7016 33.2339 35.7016 33.149 35.3473C33.13 35.2683 33.1109 35.1893 33.0913 35.1079C33.0716 35.0249 33.0518 34.9418 33.0315 34.8563C33.0001 34.7256 33.0001 34.7256 32.9681 34.5922C32.9018 34.3158 32.8359 34.0392 32.77 33.7627C32.7252 33.5758 32.6804 33.3889 32.6355 33.202C32.5928 33.0236 32.55 32.8452 32.5074 32.6668C32.4873 32.5832 32.4673 32.4995 32.4467 32.4133C32.4281 32.3353 32.4095 32.2572 32.3903 32.1768C32.374 32.1084 32.3577 32.0401 32.3409 31.9696C32.2981 31.7826 32.2603 31.5944 32.2227 31.4062Z" fill="#E7E8E9"/>
<path d="M31.5083 17.8045C31.5875 17.8043 31.6667 17.8042 31.7483 17.804C31.8314 17.8045 31.9144 17.8051 32 17.8057C32.083 17.8051 32.1661 17.8045 32.2516 17.804C32.3309 17.8041 32.4101 17.8043 32.4917 17.8045C32.601 17.8048 32.601 17.8048 32.7126 17.805C32.8906 17.8242 32.8906 17.8242 33.0391 17.9727C33.0627 18.1462 33.0627 18.1462 33.0698 18.3606C33.0741 18.4754 33.0741 18.4754 33.0785 18.5925C33.0808 18.6727 33.0831 18.7529 33.0854 18.8355C33.0897 18.9566 33.0897 18.9566 33.0941 19.0802C33.1012 19.28 33.1075 19.4798 33.1133 19.6797C33.1897 19.6819 33.1897 19.6819 33.2676 19.6842C33.4976 19.6912 33.7276 19.6994 33.9575 19.7076C34.0778 19.711 34.0778 19.711 34.2005 19.7145C34.3153 19.7188 34.3153 19.7188 34.4324 19.7232C34.5385 19.7267 34.5385 19.7267 34.6468 19.7303C34.8203 19.7539 34.8203 19.7539 34.9687 19.9024C34.9868 20.0816 34.9868 20.0816 34.9858 20.3039C34.9857 20.3835 34.9856 20.463 34.9854 20.545C34.9845 20.6284 34.9836 20.7117 34.9827 20.7976C34.9826 20.9231 34.9826 20.9231 34.9825 21.0512C34.9791 21.6732 34.9791 21.6732 34.8945 21.7578C34.7571 21.7696 34.6192 21.7765 34.4814 21.7813C34.3979 21.7844 34.3144 21.7875 34.2284 21.7907C34.1406 21.7937 34.0527 21.7966 33.9622 21.7996C33.874 21.8028 33.7858 21.806 33.695 21.8093C33.4764 21.8172 33.2577 21.8248 33.0391 21.8321C33.0402 21.9118 33.0402 21.9118 33.0414 21.9932C33.0445 22.2333 33.0464 22.4733 33.0483 22.7134C33.0496 22.7971 33.0508 22.8808 33.0521 22.9671C33.0528 23.0869 33.0528 23.0869 33.0536 23.2092C33.0547 23.3199 33.0547 23.3199 33.0559 23.4329C33.0391 23.6133 33.0391 23.6133 32.8906 23.7617C32.7126 23.781 32.7126 23.781 32.4917 23.7815C32.4125 23.7817 32.3333 23.7818 32.2516 23.782C32.1686 23.7815 32.0856 23.7809 32 23.7803C31.9169 23.7809 31.8339 23.7815 31.7483 23.782C31.6691 23.7819 31.5899 23.7817 31.5083 23.7815C31.3989 23.7812 31.3989 23.7812 31.2874 23.781C31.1094 23.7617 31.1094 23.7617 30.9609 23.6133C30.9441 23.4329 30.9441 23.4329 30.9464 23.2092C30.9469 23.1293 30.9474 23.0494 30.9479 22.9671C30.9491 22.8834 30.9504 22.7997 30.9517 22.7134C30.9523 22.6291 30.953 22.5448 30.9537 22.458C30.9554 22.2493 30.9579 22.0407 30.9609 21.8321C30.8772 21.8293 30.8772 21.8293 30.7918 21.8264C30.5405 21.8178 30.2891 21.8087 30.0378 21.7996C29.906 21.7952 29.906 21.7952 29.7715 21.7907C29.6463 21.7861 29.6463 21.7861 29.5186 21.7813C29.4412 21.7786 29.3639 21.7759 29.2842 21.7731C29.1055 21.7578 29.1055 21.7578 29.0312 21.6836C29.0125 21.3888 29.0175 21.093 29.0173 20.7976C29.0164 20.7143 29.0155 20.6309 29.0146 20.545C29.0144 20.4654 29.0143 20.3859 29.0141 20.3039C29.0138 20.2305 29.0135 20.1572 29.0132 20.0816C29.0312 19.9024 29.0312 19.9024 29.1797 19.7539C29.3532 19.7303 29.3532 19.7303 29.5676 19.7232C29.6441 19.7203 29.7207 19.7175 29.7995 19.7145C29.8797 19.7122 29.9599 19.7099 30.0425 19.7076C30.1232 19.7047 30.204 19.7018 30.2872 19.6989C30.487 19.6918 30.6868 19.6855 30.8867 19.6797C30.8882 19.6288 30.8897 19.5779 30.8912 19.5254C30.8982 19.2954 30.9064 19.0654 30.9145 18.8355C30.9168 18.7553 30.9191 18.6751 30.9215 18.5925C30.9244 18.516 30.9272 18.4395 30.9302 18.3606C30.9325 18.2899 30.9349 18.2191 30.9373 18.1462C30.9863 17.7867 31.1969 17.8053 31.5083 17.8045Z" fill="#FEFDFD"/>
<path d="M46.366 44.5429C46.8285 44.8138 47.1256 45.2231 47.2891 45.7304C47.3582 46.4897 47.3085 47.002 46.8298 47.5997C46.4218 48.0402 45.9948 48.2201 45.3974 48.2558C44.7953 48.2493 44.3922 48.0648 43.9492 47.66C43.4858 47.1715 43.3828 46.7072 43.3987 46.049C43.4593 45.5716 43.6758 45.2221 43.9678 44.849C44.6575 44.316 45.5524 44.1803 46.366 44.5429Z" fill="#495059"/>
<path d="M19.6762 44.6036C20.1429 44.8734 20.403 45.302 20.5703 45.8047C20.6685 46.4459 20.5803 46.9819 20.1992 47.5117C19.7884 47.9724 19.2784 48.2038 18.6653 48.2539C18.107 48.2539 17.6621 48.0876 17.2606 47.6921C16.7671 47.1525 16.6684 46.7065 16.6846 45.9816C16.7201 45.6435 16.8152 45.4128 17.0078 45.1367C17.0476 45.0709 17.0874 45.0051 17.1284 44.9373C17.8237 44.2603 18.8152 44.197 19.6762 44.6036Z" fill="#495059"/>
<path d="M17.6016 39.3477C18.2873 39.3477 18.9731 39.3477 19.6797 39.3477C19.6797 41.0866 19.6797 42.8255 19.6797 44.6172C19.4837 44.5682 19.2878 44.5192 19.0859 44.4688C18.8183 44.4457 18.8183 44.4457 18.5571 44.4502C18.4283 44.4496 18.4283 44.4496 18.2968 44.449C18.0085 44.4617 18.0085 44.4617 17.6016 44.6172C17.6016 42.8782 17.6016 41.1393 17.6016 39.3477Z" fill="#75B6EA"/>
<path d="M44.3203 39.3477C45.0061 39.3477 45.6919 39.3477 46.3984 39.3477C46.3984 41.0866 46.3984 42.8255 46.3984 44.6172C46.2515 44.5682 46.1045 44.5192 45.9531 44.4688C45.6822 44.4454 45.6822 44.4454 45.4011 44.4502C45.3078 44.4498 45.2146 44.4494 45.1185 44.449C44.7948 44.4623 44.7948 44.4623 44.3203 44.6172C44.3203 42.8782 44.3203 41.1393 44.3203 39.3477Z" fill="#75B6EA"/>
<path d="M42.7617 31.4062C43.6189 31.4062 44.4762 31.4062 45.3594 31.4062C45.3594 33.0717 45.3594 34.7372 45.3594 36.4531C44.7716 36.4531 44.1838 36.4531 43.5781 36.4531C43.5745 36.3027 43.5709 36.1523 43.5671 35.9974C43.563 35.8485 43.5588 35.6996 43.5546 35.5508C43.5518 35.4489 43.5492 35.347 43.5468 35.245C43.5265 34.3786 43.4524 33.5569 43.1746 32.7329C43.0305 32.2922 42.895 31.8507 42.7617 31.4062Z" fill="#E7E8EA"/>
<path d="M35.8594 29.4766C36.2513 29.4766 36.6431 29.4766 37.0469 29.4766C37.2095 30.1039 37.3603 30.7282 37.4829 31.3645C37.5906 31.9204 37.7148 32.4705 37.8494 33.0205C38.0349 33.779 38.2071 34.5399 38.3735 35.3027C38.3852 35.3561 38.3969 35.4094 38.4089 35.4644C38.6055 36.3643 38.6055 36.3643 38.6055 36.4531C38.2136 36.4531 37.8217 36.4531 37.418 36.4531C37.3437 36.1362 37.2694 35.8192 37.1953 35.5022C37.1838 35.4531 37.1723 35.404 37.1605 35.3533C37.021 34.7569 36.8829 34.1603 36.7474 33.5629C36.7349 33.5081 36.7225 33.4533 36.7097 33.3968C36.6062 32.9408 36.6062 32.9408 36.5595 32.7345C36.3808 31.947 36.1935 31.1624 35.9875 30.3814C35.9705 30.3157 35.9535 30.25 35.9359 30.1822C35.921 30.1261 35.9062 30.0699 35.8908 30.0121C35.8594 29.8477 35.8594 29.8477 35.8594 29.4766Z" fill="#669ECA"/>
<path d="M20.0786 28.2008C20.1474 28.2018 20.2162 28.2028 20.2871 28.2039C20.4557 28.2065 20.6243 28.2101 20.793 28.2147C20.7756 28.3245 20.7756 28.3245 20.7579 28.4365C20.632 29.3301 20.6165 30.1259 21.1641 30.8866C21.3063 31.0382 21.4361 31.1396 21.6094 31.2577C21.6584 31.3067 21.7073 31.3557 21.7578 31.4061C21.3987 31.4172 21.0398 31.4253 20.6806 31.4306C20.5586 31.4328 20.4367 31.4359 20.3148 31.4397C19.1717 31.4751 19.1717 31.4751 18.796 31.2067C18.4238 30.8491 18.1059 30.3607 18.0747 29.8336C18.1644 29.2865 18.4446 28.8049 18.8633 28.4374C19.2619 28.1733 19.6181 28.188 20.0786 28.2008Z" fill="#69A4D3"/>
<path d="M17.6016 39.3477C18.2873 39.3477 18.9731 39.3477 19.6797 39.3477C19.6797 39.9355 19.6797 40.5233 19.6797 41.1289C18.9939 41.1289 18.3081 41.1289 17.6016 41.1289C17.6016 40.5411 17.6016 39.9533 17.6016 39.3477Z" fill="#639BC7"/>
<path d="M44.3203 39.3477C45.0061 39.3477 45.6919 39.3477 46.3984 39.3477C46.3984 39.9355 46.3984 40.5233 46.3984 41.1289C45.7127 41.1289 45.0269 41.1289 44.3203 41.1289C44.3203 40.5411 44.3203 39.9533 44.3203 39.3477Z" fill="#649CC8"/>
<path d="M45.582 45.7305C45.7583 45.8465 45.7583 45.8465 45.8789 46.0274C45.9211 46.3224 45.9252 46.4775 45.7583 46.7278C45.5288 46.8788 45.4066 46.8888 45.1367 46.8438C44.9605 46.7278 44.9605 46.7278 44.8398 46.5469C44.7977 46.2519 44.7936 46.0968 44.9605 45.8465C45.1899 45.6955 45.3121 45.6855 45.582 45.7305Z" fill="#74B3E5"/>
<path d="M18.8633 45.7305C19.0396 45.8465 19.0396 45.8465 19.1602 46.0274C19.2023 46.3224 19.2064 46.4775 19.0396 46.7278C18.8101 46.8788 18.6879 46.8888 18.418 46.8438C18.2417 46.7278 18.2417 46.7278 18.1211 46.5469C18.079 46.2519 18.0748 46.0968 18.2417 45.8465C18.4712 45.6955 18.5934 45.6855 18.8633 45.7305Z" fill="#74B3E5"/>
</g>
<defs>
<linearGradient id="paint0_linear_6_393" x1="98.4667" y1="21.1263" x2="-8.8357" y2="26.7315" gradientUnits="userSpaceOnUse">
<stop stop-color="#00ADEF"/>
<stop offset="1" stop-color="#D60F8C"/>
</linearGradient>
<clipPath id="clip0_6_393">
<rect width="38" height="38" fill="white" transform="translate(13 13)"/>
</clipPath>
</defs>
</svg>
