<svg width="64" height="64" viewBox="0 0 64 64" fill="none" xmlns="http://www.w3.org/2000/svg">
<g clip-path="url(#clip0_100_6543)">
<path d="M5.43412 5.68706C5.57421 5.68597 5.57421 5.68597 5.71713 5.68485C6.03112 5.68303 6.34498 5.68477 6.65897 5.68649C6.88593 5.68591 7.11289 5.68512 7.33984 5.68412C7.96432 5.68203 8.58877 5.68307 9.21325 5.68462C9.8864 5.68574 10.5595 5.684 11.2327 5.68263C12.5517 5.6804 13.8707 5.68088 15.1898 5.68233C16.2615 5.68346 17.3332 5.68361 18.405 5.68307C18.5574 5.68299 18.7097 5.68292 18.8667 5.68284C19.1763 5.68268 19.4858 5.68252 19.7953 5.68235C22.6996 5.68092 25.6039 5.68257 28.5082 5.68525C31.0017 5.68749 33.4952 5.6871 35.9887 5.68479C38.8824 5.68212 41.7761 5.68106 44.6698 5.6826C44.9782 5.68276 45.2866 5.68291 45.595 5.68307C45.7468 5.68315 45.8985 5.68322 46.0549 5.6833C47.1257 5.68374 48.1965 5.68301 49.2672 5.68183C50.5717 5.68043 51.8761 5.6808 53.1806 5.68347C53.8465 5.68479 54.5124 5.68529 55.1783 5.68365C55.7874 5.68216 56.3965 5.68297 57.0056 5.68563C57.2264 5.68619 57.4472 5.6859 57.668 5.6847C57.9673 5.68318 58.2665 5.68473 58.5659 5.68706C58.6523 5.68589 58.7387 5.68472 58.8278 5.68351C59.249 5.69009 59.4988 5.74927 59.866 5.96123C60.1815 6.313 60.2033 6.46559 60.2037 6.93285C60.2061 7.14223 60.2061 7.14223 60.2086 7.35584C60.2072 7.50919 60.2058 7.66255 60.2044 7.82055C60.2053 7.98346 60.2063 8.14636 60.2073 8.3142C60.2099 8.76677 60.2086 9.21926 60.2067 9.67183C60.2053 10.1597 60.2075 10.6476 60.2092 11.1356C60.212 12.0915 60.2114 13.0474 60.2096 14.0034C60.2081 14.7802 60.208 15.5569 60.2086 16.3337C60.2087 16.4442 60.2088 16.5546 60.2089 16.6684C60.2091 16.8928 60.2093 17.1172 60.2095 17.3415C60.2113 19.4466 60.2093 21.5517 60.2059 23.6568C60.2031 25.464 60.2036 27.2711 60.2065 29.0783C60.2098 31.1757 60.2111 33.2731 60.2092 35.3706C60.209 35.5941 60.2088 35.8177 60.2086 36.0413C60.2085 36.1513 60.2084 36.2613 60.2083 36.3746C60.2078 37.1506 60.2087 37.9267 60.2102 38.7027C60.2119 39.6482 60.2115 40.5936 60.2081 41.539C60.2065 42.0216 60.2059 42.5042 60.2079 42.9868C60.2101 43.5094 60.2075 44.0318 60.2044 44.5544C60.2065 44.7844 60.2065 44.7844 60.2086 45.0191C60.207 45.1587 60.2053 45.2983 60.2037 45.4421C60.2035 45.5628 60.2034 45.6834 60.2033 45.8078C60.125 46.125 60.125 46.125 59.866 46.4137C59.4213 46.6704 59.0652 46.6947 58.5659 46.6879C58.4725 46.6886 58.3791 46.6894 58.2829 46.6901C57.9689 46.6919 57.655 46.6902 57.341 46.6885C57.1141 46.689 56.8871 46.6898 56.6602 46.6908C56.0357 46.6929 55.4112 46.6919 54.7868 46.6903C54.1136 46.6892 53.4405 46.691 52.7673 46.6923C51.4483 46.6946 50.1293 46.6941 48.8102 46.6926C47.7385 46.6915 46.6668 46.6913 45.595 46.6919C45.4427 46.692 45.2903 46.692 45.1333 46.6921C44.8237 46.6923 44.5142 46.6924 44.2047 46.6926C41.3004 46.694 38.3961 46.6924 35.4918 46.6897C32.9983 46.6875 30.5048 46.6879 28.0114 46.6902C25.1176 46.6928 22.2239 46.6939 19.3302 46.6924C19.0218 46.6922 18.7134 46.692 18.405 46.6919C18.2532 46.6918 18.1015 46.6917 17.9451 46.6917C16.8743 46.6912 15.8035 46.692 14.7328 46.6931C13.4283 46.6945 12.1239 46.6942 10.8194 46.6915C10.1535 46.6902 9.48764 46.6897 8.82174 46.6913C8.21262 46.6928 7.60354 46.692 6.99443 46.6893C6.77362 46.6888 6.55282 46.689 6.33202 46.6903C6.03266 46.6918 5.73347 46.6902 5.43412 46.6879C5.3477 46.6891 5.26128 46.6902 5.17224 46.6914C4.75101 46.6849 4.50123 46.6257 4.13404 46.4137C3.81846 46.062 3.79674 45.9094 3.79635 45.4421C3.79472 45.3025 3.79309 45.1629 3.79141 45.0191C3.79281 44.8658 3.7942 44.7124 3.79564 44.5544C3.79466 44.3915 3.79369 44.2286 3.79268 44.0608C3.79007 43.6082 3.79137 43.1557 3.7933 42.7031C3.79471 42.2152 3.79253 41.7273 3.79081 41.2394C3.78803 40.2834 3.78863 39.3275 3.79045 38.3715C3.79186 37.5948 3.79205 36.818 3.79137 36.0413C3.79127 35.9308 3.79118 35.8203 3.79108 35.7065C3.79088 35.4822 3.79067 35.2578 3.79047 35.0334C3.78869 32.9283 3.79074 30.8233 3.79409 28.7182C3.79689 26.911 3.7964 25.1038 3.79352 23.2967C3.79018 21.1992 3.78886 19.1018 3.79078 17.0044C3.79098 16.7808 3.79117 16.5573 3.79137 16.3337C3.79146 16.2237 3.79156 16.1137 3.79166 16.0004C3.7922 15.2243 3.79129 14.4483 3.78982 13.6722C3.78807 12.7268 3.78854 11.7814 3.79187 10.836C3.79351 10.3533 3.79415 9.8708 3.79209 9.3882C3.78989 8.8656 3.79251 8.34314 3.79564 7.82055C3.79355 7.59052 3.79355 7.59052 3.79141 7.35584C3.79304 7.21625 3.79467 7.07667 3.79635 6.93285C3.7965 6.75184 3.7965 6.75184 3.79666 6.56718C3.875 6.24998 3.875 6.24998 4.13404 5.96123C4.57868 5.70456 4.93481 5.68029 5.43412 5.68706ZM5.875 7.74998C5.875 19.9187 5.875 32.0875 5.875 44.625C19.2813 44.625 32.6875 44.625 46.5 44.625C46.5 32.4562 46.5 20.2875 46.5 7.74998C33.0938 7.74998 19.6875 7.74998 5.875 7.74998ZM48.5 7.74998C48.5 11.38 48.5 15.01 48.5 18.75C51.6763 18.75 54.8525 18.75 58.125 18.75C58.125 15.12 58.125 11.49 58.125 7.74998C54.9487 7.74998 51.7725 7.74998 48.5 7.74998ZM48.5 20.75C48.5 24.3387 48.5 27.9275 48.5 31.625C51.6763 31.625 54.8525 31.625 58.125 31.625C58.125 28.0362 58.125 24.4475 58.125 20.75C54.9487 20.75 51.7725 20.75 48.5 20.75ZM48.5 33.625C48.5 37.255 48.5 40.885 48.5 44.625C51.6763 44.625 54.8525 44.625 58.125 44.625C58.125 40.995 58.125 37.365 58.125 33.625C54.9487 33.625 51.7725 33.625 48.5 33.625Z" fill="url(#paint0_linear_100_6543)"/>
<path d="M24.8984 9.55075C24.996 9.55075 25.0935 9.55074 25.194 9.55074C25.3995 9.5514 25.605 9.5536 25.8104 9.55722C26.1241 9.56245 26.4373 9.56235 26.751 9.56149C26.9512 9.5628 27.1514 9.56442 27.3516 9.56638C27.4448 9.5664 27.5381 9.56643 27.6341 9.56645C28.1916 9.57905 28.5568 9.65512 29 9.99997C29.15 10.2999 29.1409 10.4858 29.1414 10.8207C29.1422 11.001 29.1422 11.001 29.1429 11.185C29.1428 11.3835 29.1428 11.3835 29.1427 11.586C29.1432 11.7251 29.1436 11.8641 29.1441 12.0074C29.145 12.3101 29.1456 12.6129 29.1461 12.9157C29.147 13.3948 29.1489 13.8739 29.1513 14.353C29.1578 15.7155 29.1639 17.0779 29.1658 18.4405C29.1669 19.2731 29.1707 20.1058 29.1759 20.9384C29.1775 21.256 29.1781 21.5736 29.1778 21.8911C29.1775 22.3355 29.1803 22.7798 29.1838 23.2242C29.1829 23.3555 29.1821 23.4869 29.1813 23.6222C29.1905 24.3453 29.2322 24.8226 29.75 25.375C30.0651 25.5666 30.0651 25.5666 30.4063 25.6718C30.5735 25.7313 30.5735 25.7313 30.7442 25.792C30.8286 25.8194 30.913 25.8467 31 25.875C30.9988 25.7608 30.9988 25.7608 30.9975 25.6444C30.9892 24.8495 30.9835 24.0546 30.9794 23.2596C30.9775 22.9633 30.975 22.667 30.9717 22.3707C30.9672 21.9437 30.965 21.5168 30.9634 21.0898C30.9615 20.9583 30.9595 20.8267 30.9575 20.6912C30.9573 19.6953 31.0898 18.8146 31.7974 18.0483C32.6095 17.3536 33.4412 17.1485 34.4971 17.2002C35.6671 17.3544 36.4607 18.209 37.3148 18.9621C37.4694 19.0981 37.6258 19.2319 37.7827 19.3652C38.0261 19.5725 38.264 19.7844 38.5 20C38.5928 20.0846 38.6856 20.1692 38.7813 20.2563C40.3297 21.7328 41.5281 23.4773 42.5 25.375C42.5699 25.5069 42.6399 25.6389 42.7119 25.7749C43.1769 26.7061 43.1769 26.7061 43.1328 27.25C43 27.625 43 27.625 42.7969 27.8672C42.367 28.0595 42.0908 28.0735 41.625 28C41.1354 27.495 40.8386 26.9662 40.5469 26.3281C39.3801 23.9053 37.636 22.002 35.625 20.25C35.5216 20.1576 35.4181 20.0653 35.3115 19.9702C34.8601 19.5884 34.6126 19.3895 34.0156 19.3125C33.6225 19.3645 33.6225 19.3645 33.25 19.5C33.1023 19.8788 33.1061 20.2619 33.0993 20.6649C33.0969 20.7975 33.0944 20.9301 33.0918 21.0667C33.0897 21.209 33.0876 21.3514 33.0855 21.498C33.0816 21.7175 33.0816 21.7175 33.0776 21.9415C33.0694 22.4089 33.062 22.8763 33.0547 23.3437C33.0493 23.6606 33.0438 23.9775 33.0383 24.2944C33.025 25.0712 33.0122 25.8481 33 26.625C33.0765 26.6416 33.153 26.6581 33.2318 26.6752C33.3325 26.6973 33.4333 26.7194 33.5371 26.7421C33.6367 26.7638 33.7364 26.7856 33.8391 26.808C34.9611 27.0709 35.8722 27.5075 36.5 28.5C36.8783 29.286 36.8897 30.14 36.6494 30.9741C36.2956 31.7806 35.789 32.2425 35 32.625C34.6377 32.7422 34.3096 32.7669 33.9297 32.7656C33.8341 32.7659 33.7386 32.7662 33.6401 32.7666C33.375 32.75 33.375 32.75 33 32.625C33.0029 33.0288 33.0126 33.4322 33.0234 33.8359C33.0242 33.9499 33.0249 34.0639 33.0256 34.1814C33.0293 34.2921 33.0329 34.4029 33.0366 34.5171C33.0396 34.6693 33.0396 34.6693 33.0426 34.8245C33.2298 35.5069 33.8862 35.8625 34.4624 36.2055C34.6018 36.2892 34.7412 36.373 34.8847 36.4592C35.0351 36.5483 35.1855 36.6374 35.3359 36.7265C35.5705 36.8666 35.8048 37.0071 36.0392 37.1475C36.2 37.2439 36.3609 37.3403 36.5219 37.4365C37.0789 37.77 37.6314 38.1102 38.1817 38.4546C38.2557 38.5008 38.3298 38.547 38.4061 38.5946C38.7603 38.8157 39.114 39.0375 39.4669 39.2606C39.5937 39.3396 39.7205 39.4186 39.8511 39.5C39.9617 39.5696 40.0723 39.6392 40.1863 39.7109C40.5086 39.8795 40.7642 39.9608 41.125 40C41.471 39.8988 41.471 39.8988 41.75 39.625C42.7512 37.2601 42.7364 34.3797 42.375 31.875C42.2828 30.78 42.2828 30.78 42.5703 30.2968C42.9917 30.0592 43.2735 30.0654 43.75 30.125C44.0391 30.2422 44.0391 30.2422 44.25 30.5C45.2418 33.3858 44.9499 38.02 43.6187 40.7715C43.1789 41.4788 42.4891 41.8738 41.6934 42.0791C40.444 42.2637 39.4073 41.7526 38.375 41.1015C38.2703 41.0371 38.1657 40.9727 38.0578 40.9063C37.8287 40.7651 37.5999 40.6233 37.3715 40.4809C36.9744 40.234 36.5758 39.9898 36.1768 39.7461C35.486 39.3237 34.7969 38.8987 34.1088 38.4721C33.7986 38.28 33.4876 38.0893 33.1763 37.8989C33.0211 37.8025 32.866 37.706 32.7109 37.6093C32.5851 37.5317 32.4593 37.454 32.3296 37.374C31.6379 36.8514 31.175 36.234 31 35.375C30.9577 34.7697 30.9646 34.1688 30.9766 33.5625C30.9783 33.4 30.98 33.2376 30.9817 33.0703C30.9861 32.6718 30.9922 32.2734 31 31.875C30.8369 31.852 30.8369 31.852 30.6705 31.8286C30.2624 31.7523 29.9102 31.6393 29.523 31.4917C29.3176 31.4161 29.3176 31.4161 29.1082 31.3391C28.8254 31.2339 28.5431 31.1271 28.2615 31.0188C26.4878 30.3737 25.1322 30.6247 23.4141 31.25C23.1603 31.3397 22.9062 31.4287 22.6521 31.5175C22.4249 31.5972 22.1984 31.6787 21.9718 31.7602C21.625 31.875 21.625 31.875 21.375 31.875C21.377 31.9713 21.3789 32.0677 21.381 32.1669C21.3888 32.6087 21.3937 33.0504 21.3984 33.4922C21.4016 33.6437 21.4047 33.7952 21.408 33.9514C21.4176 35.1332 21.3385 36.1399 20.5011 37.0338C19.9451 37.5125 19.3036 37.8661 18.6719 38.2343C18.5175 38.3258 18.3633 38.4175 18.2091 38.5093C17.8874 38.7008 17.5652 38.8916 17.2428 39.0821C16.7514 39.3732 16.2635 39.6699 15.7764 39.9682C15.6977 40.0164 15.619 40.0645 15.5379 40.1141C15.2324 40.301 14.9269 40.488 14.6216 40.6754C12.0035 42.281 12.0035 42.281 10.6734 42.0742C9.86803 41.8689 9.18693 41.5197 8.74925 40.7904C8.41951 40.1726 8.24063 39.5663 8.10157 38.8828C8.08103 38.7894 8.06049 38.696 8.03932 38.5998C7.75882 37.2836 7.71987 35.983 7.71876 34.6406C7.71868 34.5488 7.71859 34.457 7.71851 34.3625C7.72061 32.92 7.79426 31.5331 8.12501 30.125C8.15519 29.9899 8.15519 29.9899 8.18599 29.8521C9.29548 25.008 12.4794 20.3203 16.6875 17.625C17.4606 17.1533 18.2405 17.1785 19.125 17.25C19.9959 17.4641 20.6415 18.1452 21.125 18.875C21.41 19.6435 21.4075 20.3618 21.3994 21.1753C21.3991 21.31 21.3987 21.4447 21.3984 21.5835C21.397 22.0114 21.3938 22.4393 21.3906 22.8672C21.3894 23.1583 21.3882 23.4494 21.3872 23.7404C21.3845 24.452 21.3803 25.1635 21.375 25.875C21.5976 25.7896 21.8187 25.7002 22.0391 25.6093C22.224 25.5354 22.224 25.5354 22.4126 25.4599C22.8575 25.1831 22.9393 24.9921 23.125 24.5C23.1775 24.0385 23.1733 23.5806 23.1691 23.1166C23.1694 22.9785 23.1697 22.8405 23.17 22.6982C23.1703 22.399 23.1699 22.0999 23.1687 21.8007C23.167 21.3274 23.1678 20.8541 23.1693 20.3808C23.1729 19.1203 23.1729 17.8598 23.1705 16.5993C23.1688 15.6907 23.17 14.7822 23.1738 13.8737C23.1745 13.5598 23.174 13.246 23.1722 12.9322C23.1699 12.4938 23.1713 12.0555 23.1735 11.6171C23.171 11.4224 23.171 11.4224 23.1685 11.2237C23.1752 10.6341 23.1817 10.3433 23.5377 9.85683C23.987 9.54797 24.3716 9.53917 24.8984 9.55075ZM25.25 11.625C25.25 12.2437 25.25 12.8625 25.25 13.5C25.8688 13.5 26.4875 13.5 27.125 13.5C27.125 12.8812 27.125 12.2625 27.125 11.625C26.5063 11.625 25.8875 11.625 25.25 11.625ZM25.25 15.5C25.25 16.1187 25.25 16.7375 25.25 17.375C25.8688 17.375 26.4875 17.375 27.125 17.375C27.125 16.7562 27.125 16.1375 27.125 15.5C26.5063 15.5 25.8875 15.5 25.25 15.5ZM17.2266 19.7265C17.1093 19.829 16.992 19.9315 16.8711 20.0371C16.7473 20.1496 16.6236 20.2622 16.5 20.375C16.3712 20.4903 16.2422 20.6055 16.1133 20.7207C15.7374 21.0588 15.3685 21.4038 15 21.75C14.9114 21.8304 14.8228 21.9108 14.7315 21.9936C12.4104 24.1773 10.9275 27.3308 10.125 30.375C10.0849 30.5245 10.0448 30.674 10.0034 30.8281C9.43107 33.4263 9.26838 37.3285 10.5 39.75C10.8357 40.0377 10.8357 40.0377 11.25 40.125C11.8006 39.9816 12.2546 39.7477 12.7412 39.457C12.8809 39.3739 13.0206 39.2909 13.1645 39.2053C13.3128 39.1161 13.4611 39.0268 13.6094 38.9375C13.7621 38.8461 13.9149 38.7548 14.0677 38.6635C15.1034 38.0436 16.1338 37.4157 17.1513 36.7665C17.3915 36.6146 17.6333 36.4656 17.8755 36.3169C18.0368 36.2165 18.1981 36.1161 18.3594 36.0156C18.47 35.9485 18.47 35.9485 18.5829 35.8801C18.9859 35.6264 19.202 35.4426 19.375 35C19.409 34.7225 19.409 34.7225 19.3994 34.4316C19.3986 34.3261 19.3978 34.2205 19.397 34.1118C19.3949 34.0027 19.3928 33.8936 19.3906 33.7812C19.3895 33.6702 19.3884 33.5592 19.3872 33.4448C19.3843 33.1715 19.3802 32.8982 19.375 32.625C19.23 32.6315 19.23 32.6315 19.082 32.6382C18.0728 32.6644 17.4025 32.5736 16.5313 32.039C15.9142 31.4049 15.7173 30.8227 15.6875 29.9375C15.7195 29.0155 15.9125 28.447 16.5796 27.8105C17.0204 27.4549 17.4921 27.2759 18.0234 27.0937C18.1123 27.0618 18.2012 27.0299 18.2927 26.997C18.652 26.8686 19.013 26.7456 19.375 26.625C19.3909 25.6952 19.4018 24.7655 19.4093 23.8357C19.4125 23.5194 19.4167 23.2032 19.4222 22.8871C19.4298 22.4322 19.4333 21.9774 19.436 21.5224C19.4393 21.3814 19.4425 21.2403 19.4458 21.095C19.4549 20.2591 19.4549 20.2591 19.0859 19.5346C18.766 19.215 18.766 19.215 18.314 19.1733C17.8096 19.2614 17.6072 19.3895 17.2266 19.7265ZM25.25 19.375C25.25 19.9937 25.25 20.6125 25.25 21.25C25.8688 21.25 26.4875 21.25 27.125 21.25C27.125 20.6312 27.125 20.0125 27.125 19.375C26.5063 19.375 25.8875 19.375 25.25 19.375ZM25.25 23.25C25.2407 23.3889 25.2313 23.5278 25.2217 23.6709C25.0465 25.808 25.0465 25.808 24.25 26.625C23.5147 27.1866 22.7855 27.5402 21.9072 27.8178C21.796 27.8547 21.6847 27.8916 21.57 27.9296C21.2191 28.0458 20.8675 28.1598 20.5156 28.2734C20.1612 28.3885 19.807 28.5042 19.4532 28.6212C19.2342 28.6936 19.0148 28.7649 18.795 28.8349C18.6961 28.8675 18.5971 28.9001 18.4952 28.9337C18.4084 28.9616 18.3216 28.9896 18.2321 29.0185C17.9628 29.142 17.8106 29.2697 17.625 29.5C17.5577 29.9519 17.5722 30.1676 17.8203 30.5547C18.1747 30.7818 18.3322 30.7547 18.7357 30.6854C19.2684 30.5636 19.7818 30.3836 20.2984 30.207C20.482 30.1453 20.482 30.1453 20.6693 30.0823C21.0585 29.9514 21.4472 29.8195 21.8359 29.6875C22.2261 29.5557 22.6163 29.424 23.0066 29.2926C23.2489 29.211 23.4911 29.129 23.7332 29.0468C23.8429 29.0097 23.9527 28.9725 24.0658 28.9343C24.162 28.9016 24.2581 28.869 24.3572 28.8353C26.2483 28.2325 27.9965 28.774 29.7969 29.4062C30.0164 29.4806 30.2359 29.5546 30.4556 29.6284C31.4275 29.9567 32.3951 30.2934 33.3494 30.6703C33.6662 30.7619 33.9218 30.7778 34.25 30.75C34.5546 30.5599 34.5546 30.5599 34.75 30.25C34.8229 29.8697 34.8229 29.8697 34.75 29.5C34.4905 29.176 34.2447 29.0507 33.8549 28.9222C33.6984 28.8695 33.6984 28.8695 33.5387 28.8158C33.4262 28.7791 33.3137 28.7424 33.1978 28.7046C32.9586 28.6238 32.7194 28.543 32.4802 28.4621C32.1041 28.3364 31.7279 28.2113 31.3513 28.087C30.9871 27.9663 30.6237 27.8434 30.2603 27.7202C30.149 27.6842 30.0378 27.6483 29.9232 27.6112C28.8866 27.2576 28.0265 26.7421 27.5 25.75C27.1866 24.9417 27.1782 24.1102 27.125 23.25C26.5063 23.25 25.8875 23.25 25.25 23.25Z" fill="url(#paint1_linear_100_6543)"/>
<path d="M2.3425 1.83667C2.48561 1.83511 2.48561 1.83511 2.63161 1.83352C2.94581 1.83052 3.25998 1.82941 3.57419 1.82859C3.7932 1.82747 4.01221 1.82633 4.23122 1.82517C4.68976 1.82311 5.1483 1.82214 5.60685 1.82178C6.19408 1.82111 6.7812 1.81639 7.3684 1.81069C7.82051 1.80697 8.27259 1.80607 8.72471 1.80594C8.94121 1.80541 9.15771 1.80386 9.37419 1.80125C9.67702 1.79789 9.9796 1.79849 10.2824 1.80005C10.3716 1.7982 10.4607 1.79634 10.5525 1.79443C11.0314 1.80147 11.237 1.86474 11.6181 2.16432C11.875 2.49997 11.875 2.49997 11.9531 2.94529C11.875 3.37497 11.875 3.37497 11.25 3.87497C8.15622 3.87497 5.06247 3.87497 1.87497 3.87497C1.87497 18.6012 1.87497 33.3275 1.87497 48.5C5.46952 48.4942 9.06407 48.4884 12.7676 48.4824C15.0382 48.4798 17.3089 48.4774 19.5796 48.4756C20.7718 48.4746 21.9641 48.4736 23.1564 48.4725C23.3058 48.4724 23.4553 48.4722 23.6093 48.4721C26.0242 48.4699 28.439 48.466 30.8539 48.4614C33.3309 48.4567 35.8079 48.4539 38.2849 48.4529C39.8143 48.4522 41.3436 48.4501 42.8729 48.446C43.9206 48.4434 44.9683 48.4426 46.0159 48.4432C46.6211 48.4435 47.2262 48.443 47.8313 48.4404C48.3847 48.4379 48.9382 48.4378 49.4916 48.4395C49.6924 48.4397 49.8931 48.4391 50.0938 48.4375C50.3658 48.4355 50.6376 48.4366 50.9095 48.4384C51.1365 48.4382 51.1365 48.4382 51.3681 48.4379C51.8249 48.5122 51.9709 48.6382 52.25 49C52.3208 49.25 52.3208 49.25 52.3203 49.5C52.3244 49.6237 52.3244 49.6237 52.3286 49.75C52.1976 50.1664 51.999 50.2756 51.625 50.5C51.1501 50.5731 50.6796 50.5631 50.2 50.5567C50.0561 50.5568 49.9121 50.5569 49.7638 50.557C49.2883 50.5566 48.8129 50.5527 48.3374 50.5488C48.0076 50.5479 47.6778 50.5472 47.348 50.5467C46.5688 50.5451 45.7897 50.541 45.0106 50.536C44.1233 50.5304 43.2361 50.5276 42.3488 50.5251C40.5242 50.5199 38.6996 50.5107 36.875 50.5C36.875 52.3975 36.875 54.295 36.875 56.25C37.37 56.25 37.865 56.25 38.375 56.25C39.4073 56.5408 39.9477 56.9832 40.498 57.875C40.8443 58.5568 40.7867 59.3077 40.7968 60.0547C40.8015 60.1843 40.8062 60.3139 40.811 60.4475C40.8125 60.5729 40.8139 60.6984 40.8154 60.8276C40.8179 60.9416 40.8204 61.0556 40.8229 61.173C40.7429 61.5315 40.6237 61.739 40.3567 61.9919C39.8265 62.2963 39.1655 62.2109 38.5722 62.2058C38.3359 62.2075 38.3359 62.2075 38.0947 62.2092C37.6634 62.212 37.2322 62.2109 36.8008 62.2089C36.349 62.2073 35.8972 62.2088 35.4454 62.2098C34.6867 62.2109 33.9281 62.2094 33.1694 62.2065C32.2928 62.2031 31.4163 62.2042 30.5397 62.2076C29.7865 62.2104 29.0334 62.2108 28.2801 62.2092C27.8305 62.2082 27.381 62.2081 26.9314 62.2102C26.4301 62.2123 25.929 62.2093 25.4277 62.2058C25.279 62.2071 25.1303 62.2084 24.977 62.2097C23.8579 62.1952 23.8579 62.1953 23.4702 61.8274C23.2248 61.4625 23.1723 61.2809 23.1758 60.8452C23.1761 60.722 23.1764 60.5988 23.1767 60.4719C23.1803 60.3445 23.1838 60.2171 23.1875 60.0859C23.1872 59.96 23.1868 59.8341 23.1865 59.7043C23.2 58.6686 23.3636 57.7614 24.125 57C25.1631 56.2444 25.7354 56.25 27.125 56.25C27.125 54.3525 27.125 52.455 27.125 50.5C26.3489 50.5019 25.5727 50.5039 24.7731 50.5059C22.2126 50.5121 19.6522 50.5163 17.0917 50.5194C15.5388 50.5213 13.986 50.524 12.4331 50.5283C11.0798 50.532 9.72648 50.5344 8.37314 50.5353C7.65644 50.5357 6.93976 50.5369 6.22307 50.5396C5.54859 50.5422 4.87413 50.543 4.19964 50.5424C3.95202 50.5425 3.70441 50.5432 3.45679 50.5447C3.11875 50.5465 2.78078 50.5461 2.44273 50.5451C2.34473 50.5462 2.24672 50.5473 2.14574 50.5484C1.54499 50.5435 1.13454 50.4446 0.624973 50.125C0.113482 49.5582 -0.0155653 49.2544 -0.0175028 48.4994C-0.0182142 48.3383 -0.0189254 48.1772 -0.0196583 48.0113C-0.0198199 47.8308 -0.0199685 47.6504 -0.0201054 47.47C-0.0206964 47.2796 -0.0213402 47.0892 -0.0220325 46.8989C-0.0237747 46.3738 -0.0247198 45.8487 -0.0255291 45.3237C-0.0263244 44.8738 -0.0275834 44.4239 -0.0288494 43.974C-0.033019 42.4916 -0.0357056 41.0091 -0.0379991 39.5266C-0.0385983 39.1408 -0.0392214 38.7549 -0.03985 38.369C-0.0437211 35.974 -0.0470575 33.579 -0.0491521 31.184C-0.0496458 30.629 -0.0501463 30.074 -0.0506554 29.519C-0.0507814 29.3811 -0.0509074 29.2432 -0.0510373 29.101C-0.0531637 26.8658 -0.0583027 24.6306 -0.0646582 22.3954C-0.0711259 20.1019 -0.0747695 17.8084 -0.0756769 15.5149C-0.0762602 14.2266 -0.0781097 12.9384 -0.0831449 11.6502C-0.0874275 10.5531 -0.0891768 9.45611 -0.0875919 8.35906C-0.0868624 7.79919 -0.0873549 7.23939 -0.0911131 6.67953C-0.0945257 6.16696 -0.094477 5.65452 -0.0916743 5.14195C-0.0912705 4.95654 -0.0921357 4.77113 -0.094399 4.58574C-0.112256 3.02857 -0.112256 3.02857 0.361981 2.45734C0.959787 1.88648 1.54044 1.83742 2.3425 1.83667ZM29.125 50.5C29.125 52.3975 29.125 54.295 29.125 56.25C31.0225 56.25 32.92 56.25 34.875 56.25C34.875 54.3525 34.875 52.455 34.875 50.5C32.9775 50.5 31.08 50.5 29.125 50.5ZM25.5 58.5C25.1344 58.9732 25.1344 58.9732 25.25 60.125C29.705 60.125 34.16 60.125 38.75 60.125C38.8338 59.0745 38.8338 59.0745 38.5 58.5C38.1597 58.2753 37.8911 58.2187 37.4876 58.2182C37.3362 58.2172 37.3362 58.2172 37.1818 58.2161C37.0722 58.2166 36.9625 58.2171 36.8496 58.2176C36.7333 58.2172 36.617 58.2167 36.4971 58.2163C36.1126 58.2152 35.7282 58.2159 35.3437 58.2168C35.0766 58.2166 34.8095 58.2164 34.5423 58.216C33.9825 58.2157 33.4226 58.2162 32.8628 58.2174C32.1448 58.2188 31.4269 58.218 30.709 58.2165C30.1573 58.2156 29.6057 58.2159 29.0541 58.2165C28.7894 58.2167 28.5246 58.2165 28.2599 58.2159C27.89 58.2153 27.5202 58.2162 27.1504 58.2176C27.0407 58.2171 26.9311 58.2166 26.8182 58.2161C26.6668 58.2171 26.6668 58.2171 26.5123 58.2182C26.4249 58.2183 26.3375 58.2184 26.2475 58.2185C25.9487 58.2565 25.7549 58.3401 25.5 58.5Z" fill="url(#paint2_linear_100_6543)"/>
<path d="M15.4494 1.79705C15.531 1.79621 15.6125 1.79538 15.6965 1.79452C15.9702 1.79249 16.2437 1.79492 16.5174 1.79732C16.7154 1.79678 16.9134 1.79596 17.1114 1.7949C17.6558 1.79277 18.2002 1.79455 18.7446 1.79696C19.3316 1.79889 19.9186 1.79722 20.5056 1.79599C21.6558 1.79418 22.8059 1.79571 23.956 1.79838C25.2949 1.80138 26.6337 1.80117 27.9726 1.80085C30.3613 1.80038 32.75 1.80299 35.1388 1.80725C37.4575 1.81139 39.7762 1.81316 42.0949 1.81238C44.6187 1.81153 47.1425 1.81184 49.6663 1.8143C49.7997 1.81443 49.9331 1.81456 50.0706 1.81469C50.3386 1.81495 50.6066 1.81522 50.8746 1.81548C51.8082 1.81635 52.7418 1.81643 53.6754 1.81625C54.813 1.81607 55.9506 1.81728 57.0882 1.82024C57.6688 1.82173 58.2494 1.82261 58.83 1.82189C59.3613 1.82124 59.8926 1.82232 60.4239 1.8248C60.6163 1.82539 60.8087 1.82535 61.0011 1.82462C61.2624 1.82372 61.5235 1.82513 61.7848 1.82711C61.93 1.82731 62.0752 1.8275 62.2248 1.82771C62.8398 1.90039 63.2514 2.15123 63.7295 2.53338C64.2216 3.17942 64.0852 4.06948 64.0785 4.84097C64.0792 5.03186 64.0801 5.22274 64.0812 5.41363C64.0836 5.93783 64.082 6.46197 64.0799 6.98617C64.0782 7.55162 64.0801 8.11706 64.0816 8.68251C64.0839 9.79009 64.0828 10.8976 64.0806 12.0052C64.0788 12.9053 64.0783 13.8053 64.0788 14.7054C64.0788 14.8334 64.0789 14.9615 64.0789 15.0934C64.0791 15.3535 64.0792 15.6136 64.0793 15.8737C64.0804 18.1743 64.0783 20.4749 64.0746 22.7755C64.071 25.0085 64.0701 27.2415 64.0721 29.4745C64.0741 31.9054 64.0747 34.3363 64.0725 36.7672C64.0722 37.0263 64.072 37.2855 64.0718 37.5446C64.0717 37.6721 64.0715 37.7997 64.0714 37.931C64.0707 38.8301 64.0711 39.7292 64.072 40.6283C64.0729 41.7238 64.0721 42.8193 64.0689 43.9149C64.0674 44.4739 64.0666 45.033 64.068 45.5921C64.0693 46.1037 64.0682 46.6154 64.0653 47.127C64.0647 47.3122 64.0649 47.4975 64.066 47.6827C64.0674 47.9343 64.0654 48.1859 64.0633 48.4375C64.0631 48.5773 64.063 48.7171 64.0628 48.8612C63.9684 49.4453 63.6823 49.8398 63.2422 50.2266C62.7918 50.5026 62.418 50.5163 61.9019 50.5182C61.7534 50.519 61.6049 50.5198 61.4518 50.5206C61.2913 50.5207 61.1307 50.5209 60.9653 50.521C60.8006 50.5214 60.6358 50.5218 60.4661 50.5223C60.1173 50.523 59.7686 50.5232 59.4198 50.5232C58.9733 50.5232 58.5268 50.5249 58.0803 50.527C57.6539 50.5287 57.2276 50.5287 56.8013 50.5288C56.641 50.5297 56.4807 50.5306 56.3155 50.5315C56.1666 50.5311 56.0177 50.5308 55.8643 50.5304C55.7333 50.5305 55.6023 50.5307 55.4673 50.5309C55.1195 50.4995 54.9175 50.4362 54.625 50.25C54.3648 49.9155 54.3755 49.7353 54.3906 49.3047C54.5 48.875 54.5 48.875 55 48.5C57.3512 48.5 59.7025 48.5 62.125 48.5C62.125 33.7738 62.125 19.0475 62.125 3.875C58.7033 3.88225 55.2817 3.8895 51.7563 3.89697C49.5945 3.90016 47.4326 3.9032 45.2708 3.90552C44.1355 3.90674 43.0003 3.908 41.8651 3.90933C41.7229 3.9095 41.5806 3.90966 41.434 3.90983C39.1351 3.91255 36.8363 3.91748 34.5375 3.92322C32.1793 3.92906 29.8211 3.93254 27.4629 3.93381C26.007 3.93466 24.5512 3.93738 23.0954 3.94245C22.0979 3.94575 21.1004 3.94675 20.1029 3.94594C19.5268 3.94554 18.9509 3.94616 18.3748 3.9495C17.8478 3.95254 17.3208 3.9527 16.7938 3.95056C16.6028 3.9503 16.4119 3.9511 16.2209 3.95305C15.9617 3.95555 15.7029 3.95421 15.4437 3.95191C15.2997 3.95214 15.1556 3.95238 15.0072 3.95262C14.5047 3.85058 14.317 3.64431 14 3.25C13.9219 2.875 13.9219 2.875 14 2.5C14.4529 1.93602 14.7314 1.79688 15.4494 1.79705Z" fill="url(#paint3_linear_100_6543)"/>
<path d="M9.58984 13.4336C9.70678 13.4331 9.82372 13.4327 9.9442 13.4322C10.1909 13.4318 10.4376 13.4327 10.6843 13.4348C11.0613 13.4375 11.438 13.4349 11.8149 13.4317C12.055 13.432 12.2951 13.4326 12.5352 13.4336C12.6475 13.4326 12.7599 13.4316 12.8757 13.4306C13.3998 13.4384 13.6794 13.4561 14.1335 13.7385C14.3942 14.0208 14.4579 14.1223 14.4453 14.5C14.4456 14.6238 14.4456 14.6238 14.4458 14.75C14.3366 15.1354 14.2007 15.2606 13.875 15.5C13.455 15.5764 13.0392 15.5701 12.6133 15.5664C12.4903 15.5669 12.3674 15.5674 12.2407 15.5679C11.9809 15.5682 11.7212 15.5673 11.4615 15.5652C11.0639 15.5625 10.6666 15.5652 10.269 15.5684C10.0166 15.5681 9.76416 15.5674 9.51172 15.5664C9.39283 15.5674 9.27394 15.5685 9.15144 15.5695C8.3286 15.5578 8.3286 15.5578 7.92557 15.2615C7.73711 14.9808 7.67903 14.8354 7.67969 14.5C7.67695 14.4175 7.67421 14.335 7.67139 14.25C7.94825 13.3696 8.83271 13.4268 9.58984 13.4336Z" fill="url(#paint4_linear_100_6543)"/>
<path d="M52.0703 27.0708C52.1739 27.0701 52.2774 27.0695 52.3841 27.0688C52.6026 27.068 52.8212 27.0682 53.0397 27.0692C53.3739 27.0703 53.7078 27.0667 54.042 27.0627C54.2546 27.0625 54.4671 27.0626 54.6797 27.063C54.7795 27.0616 54.8792 27.0602 54.982 27.0587C55.4359 27.0644 55.6962 27.084 56.0625 27.3632C56.2644 27.645 56.321 27.7819 56.3203 28.125C56.3231 28.2075 56.3258 28.29 56.3286 28.375C56.2025 28.776 55.9747 28.9012 55.625 29.125C55.2654 29.1709 54.9556 29.1895 54.5972 29.1826C54.4994 29.1825 54.4016 29.1824 54.3008 29.1823C54.0948 29.1815 53.8887 29.1795 53.6827 29.1764C53.3678 29.1719 53.053 29.1713 52.7381 29.1714C52.5375 29.1701 52.3369 29.1687 52.1363 29.167C52.0424 29.1667 51.9485 29.1664 51.8517 29.1661C51.3853 29.1577 51.0161 29.144 50.625 28.875C50.3648 28.5404 50.3755 28.3603 50.3907 27.9297C50.5 27.5 50.5 27.5 50.69 27.289C51.139 27.0515 51.5742 27.069 52.0703 27.0708Z" fill="url(#paint5_linear_100_6543)"/>
<path d="M52.1943 14.0996C52.2867 14.0989 52.379 14.0982 52.4741 14.0974C52.6693 14.0962 52.8645 14.0954 53.0598 14.0949C53.3574 14.0937 53.655 14.0899 53.9526 14.0859C54.1426 14.0851 54.3325 14.0844 54.5225 14.084C54.6553 14.0816 54.6553 14.0816 54.7908 14.0793C55.3407 14.0817 55.6879 14.1618 56.125 14.5C56.3182 14.8864 56.2867 15.1993 56.25 15.625C56.0664 15.8994 56.0664 15.8994 55.75 16.125C55.3824 16.1973 55.0216 16.1921 54.6479 16.187C54.5413 16.1872 54.4347 16.1874 54.3249 16.1875C54.0999 16.1873 53.875 16.1859 53.6501 16.1833C53.3054 16.1797 52.9611 16.1807 52.6165 16.1824C52.3978 16.1816 52.1791 16.1805 51.9604 16.1792C51.8058 16.1797 51.8058 16.1797 51.6479 16.1803C50.9306 16.1684 50.9306 16.1684 50.6647 15.9607C50.3921 15.612 50.3825 15.3095 50.375 14.875C50.8454 14.1021 51.3555 14.1046 52.1943 14.0996Z" fill="url(#paint6_linear_100_6543)"/>
<path d="M52.0044 40.0463C52.1138 40.046 52.2232 40.0457 52.3359 40.0454C52.5667 40.0456 52.7975 40.0472 53.0284 40.0503C53.3821 40.0546 53.7354 40.0529 54.0891 40.0505C54.3135 40.0514 54.5378 40.0526 54.7622 40.0542C54.8681 40.0535 54.9739 40.0529 55.083 40.0523C55.8102 40.0669 55.8102 40.0669 56.1286 40.352C56.3096 40.7589 56.3049 41.0607 56.25 41.5C56.0456 41.8029 55.8855 41.9732 55.5189 42.0455C55.2273 42.0642 54.94 42.066 54.6479 42.062C54.5413 42.0622 54.4347 42.0623 54.3249 42.0625C54.0999 42.0623 53.875 42.0609 53.6501 42.0583C53.3054 42.0547 52.9611 42.0557 52.6165 42.0573C52.3978 42.0566 52.1791 42.0555 51.9604 42.0542C51.8058 42.0547 51.8058 42.0547 51.6479 42.0553C50.9306 42.0434 50.9306 42.0434 50.6647 41.8357C50.3921 41.487 50.3825 41.1844 50.375 40.75C50.7726 40.0036 51.2382 40.0343 52.0044 40.0463Z" fill="url(#paint7_linear_100_6543)"/>
<path d="M9.17969 9.56299C9.4093 9.56287 9.4093 9.56287 9.64355 9.56274C9.88187 9.56649 9.88187 9.56649 10.125 9.57031C10.2839 9.56943 10.4428 9.56854 10.6064 9.56763C11.9277 9.57667 11.9277 9.57667 12.5 10C12.6805 10.3611 12.6721 10.5996 12.625 11C12.3009 11.4122 12.1137 11.603 11.5927 11.7039C11.4421 11.7038 11.2914 11.7037 11.1362 11.7036C10.8889 11.704 10.8889 11.704 10.6365 11.7043C10.5512 11.7028 10.466 11.7012 10.3781 11.6996C10.1174 11.6953 9.85719 11.697 9.59644 11.6995C8.33149 11.6902 8.33149 11.6902 7.95148 11.3862C7.73371 11.1039 7.679 10.9769 7.67969 10.625C7.67695 10.5425 7.67421 10.46 7.67139 10.375C7.89159 9.67472 8.52931 9.56191 9.17969 9.56299Z" fill="url(#paint8_linear_100_6543)"/>
<path d="M52.3672 23.1875C52.4909 23.184 52.6146 23.1804 52.742 23.1768C53.339 23.1752 53.6519 23.1799 54.148 23.5342C54.3754 23.8756 54.4544 23.9943 54.3907 24.3907C54.3807 24.4735 54.3707 24.5563 54.3604 24.6416C54.185 25.0126 54.0038 25.0918 53.625 25.25C53.2046 25.3002 52.7901 25.2967 52.3672 25.2891C52.255 25.2895 52.1428 25.2899 52.0271 25.2903C51.0919 25.2827 51.0919 25.2827 50.625 25C50.3648 24.6655 50.3755 24.4853 50.3907 24.0547C50.5 23.625 50.5 23.625 50.7176 23.4143C51.2304 23.116 51.7877 23.186 52.3672 23.1875Z" fill="url(#paint9_linear_100_6543)"/>
<path d="M52.3594 10.2265C52.5303 10.2242 52.5303 10.2242 52.7046 10.2219C52.8697 10.2215 52.8697 10.2215 53.0381 10.2212C53.1386 10.2206 53.2391 10.2201 53.3427 10.2196C53.6572 10.2534 53.8561 10.3359 54.125 10.5C54.3871 10.837 54.3744 11.0116 54.3516 11.4453C54.2488 11.8802 54.2206 11.9947 53.875 12.25C53.5764 12.2985 53.5764 12.2985 53.2271 12.2998C53.0377 12.3005 53.0377 12.3005 52.8445 12.3012C52.7128 12.2998 52.581 12.2983 52.4453 12.2968C52.3141 12.2983 52.1828 12.2997 52.0476 12.3012C51.9212 12.3008 51.7948 12.3003 51.6646 12.2998C51.5491 12.2994 51.4337 12.2989 51.3147 12.2985C50.9398 12.2407 50.7703 12.1384 50.5 11.875C50.375 11.4531 50.375 11.4531 50.375 11C50.9152 10.1431 51.4303 10.2272 52.3594 10.2265Z" fill="url(#paint10_linear_100_6543)"/>
<path d="M52.3594 36.0938C52.4598 36.0912 52.5601 36.0886 52.6636 36.086C53.2543 36.0821 53.6483 36.1121 54.125 36.5C54.375 36.875 54.375 36.875 54.3516 37.3125C54.2217 37.8719 54.2217 37.8719 53.875 38.125C53.563 38.1736 53.563 38.1736 53.1953 38.1749C53.0629 38.1753 52.9304 38.1758 52.7939 38.1763C52.6557 38.1749 52.5174 38.1734 52.375 38.1719C52.2367 38.1734 52.0985 38.1748 51.9561 38.1763C51.8236 38.1758 51.6912 38.1753 51.5547 38.1749C51.4334 38.1744 51.312 38.174 51.187 38.1736C50.875 38.125 50.875 38.125 50.6523 37.9608C50.3969 37.6074 50.3824 37.3041 50.375 36.875C50.8816 36.0428 51.4781 36.0994 52.3594 36.0938Z" fill="url(#paint11_linear_100_6543)"/>
</g>
<defs>
<linearGradient id="paint0_linear_100_6543" x1="90.597" y1="19.2193" x2="-3.7715" y2="26.001" gradientUnits="userSpaceOnUse">
<stop stop-color="#00ADEF"/>
<stop offset="1" stop-color="#D60F8C"/>
</linearGradient>
<linearGradient id="paint1_linear_100_6543" x1="64.8309" y1="20.316" x2="2.64356" y2="24.0126" gradientUnits="userSpaceOnUse">
<stop stop-color="#00ADEF"/>
<stop offset="1" stop-color="#D60F8C"/>
</linearGradient>
<linearGradient id="paint2_linear_100_6543" x1="80.5634" y1="21.741" x2="-7.39704" y2="25.7277" gradientUnits="userSpaceOnUse">
<stop stop-color="#00ADEF"/>
<stop offset="1" stop-color="#D60F8C"/>
</linearGradient>
<linearGradient id="paint3_linear_100_6543" x1="91.1137" y1="17.882" x2="7.03005" y2="22.4024" gradientUnits="userSpaceOnUse">
<stop stop-color="#00ADEF"/>
<stop offset="1" stop-color="#D60F8C"/>
</linearGradient>
<linearGradient id="paint4_linear_100_6543" x1="18.0956" y1="14.1366" x2="7.00854" y2="15.9711" gradientUnits="userSpaceOnUse">
<stop stop-color="#00ADEF"/>
<stop offset="1" stop-color="#D60F8C"/>
</linearGradient>
<linearGradient id="paint5_linear_100_6543" x1="59.53" y1="27.7603" x2="49.7452" y2="29.1899" gradientUnits="userSpaceOnUse">
<stop stop-color="#00ADEF"/>
<stop offset="1" stop-color="#D60F8C"/>
</linearGradient>
<linearGradient id="paint6_linear_100_6543" x1="59.4563" y1="14.7759" x2="49.7405" y2="16.1954" gradientUnits="userSpaceOnUse">
<stop stop-color="#00ADEF"/>
<stop offset="1" stop-color="#D60F8C"/>
</linearGradient>
<linearGradient id="paint7_linear_100_6543" x1="59.4654" y1="40.7096" x2="49.7586" y2="42.1917" gradientUnits="userSpaceOnUse">
<stop stop-color="#00ADEF"/>
<stop offset="1" stop-color="#D60F8C"/>
</linearGradient>
<linearGradient id="paint8_linear_100_6543" x1="15.3371" y1="10.2697" x2="7.08264" y2="11.2728" gradientUnits="userSpaceOnUse">
<stop stop-color="#00ADEF"/>
<stop offset="1" stop-color="#D60F8C"/>
</linearGradient>
<linearGradient id="paint9_linear_100_6543" x1="56.5811" y1="23.8754" x2="49.8759" y2="24.5419" gradientUnits="userSpaceOnUse">
<stop stop-color="#00ADEF"/>
<stop offset="1" stop-color="#D60F8C"/>
</linearGradient>
<linearGradient id="paint10_linear_100_6543" x1="56.5102" y1="10.9067" x2="49.8727" y2="11.5709" gradientUnits="userSpaceOnUse">
<stop stop-color="#00ADEF"/>
<stop offset="1" stop-color="#D60F8C"/>
</linearGradient>
<linearGradient id="paint11_linear_100_6543" x1="56.508" y1="36.7758" x2="49.8723" y2="37.4367" gradientUnits="userSpaceOnUse">
<stop stop-color="#00ADEF"/>
<stop offset="1" stop-color="#D60F8C"/>
</linearGradient>
<clipPath id="clip0_100_6543">
<rect width="64" height="64" fill="white"/>
</clipPath>
</defs>
</svg>
