<svg width="64" height="64" viewBox="0 0 64 64" fill="none" xmlns="http://www.w3.org/2000/svg">
<g clip-path="url(#clip0_1233_2943)">
<path fill-rule="evenodd" clip-rule="evenodd" d="M64.0652 54.0933C64.0652 55.9545 62.5525 57.4671 60.6914 57.4671H40.5895L38.9359 53.6188C38.8099 53.3444 38.5429 53.1591 38.2389 53.1591H25.8263C25.5297 53.1591 25.2554 53.3444 25.1293 53.6188L23.4758 57.4671H3.38128C1.51271 57.4671 6.10352e-05 55.9545 6.10352e-05 54.0933C6.10352e-05 52.2248 1.51271 50.7121 3.38128 50.7121H60.6914C62.5525 50.7121 64.0652 52.2248 64.0652 54.0933ZM38.9434 57.4671H25.1293L26.3305 54.6791H37.7347L38.9434 57.4671ZM60.9064 54.0859C60.9064 52.8328 59.8832 51.8095 58.63 51.8095C57.3695 51.8095 56.3462 52.8328 56.3462 54.0859C56.3462 55.3391 57.3695 56.3623 58.63 56.3623C59.8832 56.3623 60.9064 55.3391 60.9064 54.0859ZM3.26264 54.0859C3.26264 55.3465 4.2859 56.3623 5.53903 56.3623C6.79215 56.3623 7.81541 55.3465 7.81541 54.0859C7.81541 52.8328 6.79215 51.8095 5.53903 51.8095C4.2859 51.8095 3.26264 52.8328 3.26264 54.0859ZM59.3864 54.0859C59.3864 54.5086 59.0453 54.8497 58.63 54.8497C58.2074 54.8497 57.8663 54.5086 57.8663 54.0859C57.8663 53.6707 58.2074 53.3296 58.63 53.3296C59.0453 53.3296 59.3864 53.6707 59.3864 54.0859ZM5.53903 54.8422C5.11637 54.8422 4.7827 54.5086 4.7827 54.0859C4.7827 53.6633 5.11637 53.3296 5.53903 53.3296C5.96168 53.3296 6.29535 53.6633 6.29535 54.0859C6.29535 54.5086 5.96168 54.8422 5.53903 54.8422ZM6.13222 15.1575H23.2385C23.4313 15.8915 23.6315 16.4477 23.7279 16.6998H7.64487C7.03685 16.6998 6.54746 17.1966 6.54746 17.7972V49.1846H4.4861V16.8036C4.4861 15.899 5.2276 15.1575 6.13222 15.1575ZM21.6072 45.4475C22.5415 45.403 23.4016 45.0026 24.0319 44.313C24.6622 43.6234 24.981 42.7262 24.9365 41.7919C24.8994 40.8577 24.4916 39.9975 23.802 39.3673C23.1569 38.7815 22.3339 38.4552 21.4663 38.4552C21.0585 36.2307 21.407 34.6365 21.8519 33.6133C22.712 33.3463 23.6315 33.2054 24.5806 33.198L25.9894 34.6069L24.2321 36.3939C24.0838 36.5422 24.0097 36.7572 24.0171 36.9722C24.0319 37.1873 24.1357 37.3875 24.3063 37.5209L31.2837 43.0377V49.1921H15.1636V42.6743C15.1636 39.13 17.1138 36.0379 20.0056 34.4141C19.7386 35.5486 19.6497 36.9945 19.9833 38.7666C19.5607 38.9594 19.1825 39.2412 18.8563 39.5897C18.226 40.2793 17.9072 41.1765 17.9516 42.1108C17.9887 43.0451 18.3965 43.9052 19.0861 44.5355C19.7386 45.1287 20.5691 45.4475 21.4441 45.4475C21.4935 45.4475 21.5479 45.4475 21.6072 45.4475ZM37.5642 39.2709C36.9191 39.9827 36.5113 40.8725 36.3778 41.8438L35.8068 45.9517C35.7846 46.1519 35.8365 46.3521 35.9551 46.5153C36.0812 46.671 36.2591 46.7822 36.4594 46.8045L38.7432 47.1233C39.1584 47.1752 39.544 46.886 39.5959 46.4708C39.6552 46.0555 39.366 45.6774 38.9508 45.6181L37.4159 45.4104L37.8756 42.0515C38.0017 41.1617 38.4688 40.3683 39.188 39.8196C39.9073 39.2783 40.7971 39.041 41.6943 39.1596C42.5841 39.2857 43.3775 39.7528 43.9262 40.4721C44.4675 41.1987 44.7048 42.0885 44.5861 42.9783L44.119 46.3299L42.9845 46.1742C42.5693 46.1149 42.1837 46.404 42.1318 46.8193C42.0725 47.2345 42.3616 47.6201 42.7769 47.6794L44.6677 47.9389C44.7023 47.9439 44.7369 47.9463 44.7715 47.9463C44.9346 47.9463 45.0978 47.8944 45.2312 47.7906C45.3944 47.672 45.4982 47.4866 45.5278 47.2938L46.0914 43.186C46.2693 41.8883 45.9282 40.6056 45.1348 39.56C44.5046 38.7222 43.6444 38.1215 42.6582 37.8249C42.7917 36.9426 42.9771 35.3928 42.9474 33.8654C46.4399 35.2668 48.9165 38.6851 48.9165 42.6743V49.1921H32.8038V43.0377L37.5642 39.2709ZM21.9854 18.2198C21.8742 18.5016 21.8074 18.813 21.8074 19.1319V20.5407C21.8074 21.868 22.8826 22.9506 24.2099 22.9506H24.5213C25.2924 25.049 26.5456 26.7767 28.0953 27.8815C28.466 29.891 27.7468 31.1812 27.3835 31.678H24.6399C18.5819 31.678 13.6436 36.6089 13.6436 42.6743V49.1921H8.06752V18.2272L21.9854 18.2198ZM29.7043 28.7565C30.4458 29.0382 31.2318 29.194 32.04 29.194C32.8483 29.194 33.6268 29.0382 34.3683 28.7565C34.309 30.6473 35.0209 31.9449 35.4657 32.5603L32.04 40.7094L28.6069 32.5529C29.0518 31.9375 29.7637 30.6399 29.7043 28.7565ZM27.8135 34.5772L30.1937 40.2422L25.9079 36.8462L27.5911 35.1259C27.7468 34.9776 27.8135 34.77 27.8135 34.5772ZM56.4352 16.6998H40.3225C40.2731 16.1758 40.194 15.6617 40.0853 15.1575H57.9404C58.8525 15.1575 59.5866 15.899 59.5866 16.8036V49.1846H57.5326V17.7972C57.5326 17.1892 57.0358 16.6998 56.4352 16.6998ZM39.5588 22.9432H39.8628C41.1901 22.9432 42.2653 21.868 42.2653 20.5407V19.1319C42.2653 18.8056 42.1985 18.5016 42.0873 18.2198H56.0126V49.1846H50.4291V42.6669C50.4291 36.6089 45.4982 31.6705 39.4327 31.6705H36.6892C36.3333 31.1737 35.6066 29.8835 35.9848 27.8741C37.5271 26.7767 38.7876 25.0416 39.5588 22.9432ZM25.2183 17.5228C25.2183 17.5031 25.2183 17.4858 25.2183 17.4709C25.2232 17.3918 25.2282 17.3127 25.2331 17.2336C27.5985 16.8332 28.6588 15.4837 29.1037 14.5939C33.2561 16.025 36.3185 15.7729 38.3502 15.1575H38.5355C38.7061 15.899 38.8173 16.6701 38.8544 17.4561C38.8544 17.4759 38.8568 17.4956 38.8618 17.5154V17.5525C38.8667 17.7453 38.8692 17.9381 38.8692 18.1309C38.8692 19.4655 38.6764 20.7335 38.3205 21.8902C38.3007 21.9347 38.2859 21.9792 38.276 22.0237C37.6087 24.0999 36.4223 25.7905 34.9467 26.7618C34.9096 26.7841 34.8651 26.8138 34.8281 26.836C33.9753 27.3773 33.0336 27.6739 32.0326 27.6739C31.039 27.6739 30.0973 27.3773 29.2446 26.8434C29.2051 26.8088 29.163 26.7816 29.1186 26.7618C27.643 25.7831 26.4566 24.0851 25.7892 22.0015C25.7794 21.9718 25.7695 21.9421 25.7596 21.9125C25.3962 20.7483 25.196 19.473 25.196 18.1309C25.196 17.9282 25.2035 17.7255 25.2183 17.5228ZM41.4051 33.3982C41.4941 34.9554 41.2865 36.6905 41.153 37.6099C40.367 37.6247 39.5959 37.8249 38.9063 38.1957L39.7664 37.5135C39.937 37.3801 40.0408 37.1798 40.0556 36.9648C40.0704 36.7498 39.9889 36.5422 39.8406 36.3864L38.0906 34.5994L39.4921 33.1906C40.152 33.198 40.7897 33.2722 41.4051 33.3982ZM36.4816 35.1259L38.1648 36.8462L33.879 40.2422L36.2591 34.5698C36.2591 34.77 36.3259 34.9776 36.4816 35.1259ZM37.3491 33.1906L36.4816 34.0582L36.4742 34.073L36.8449 33.1906H37.3491ZM27.2277 33.1906L27.5985 34.073L27.5837 34.0582L26.7161 33.1906H27.2277ZM21.3477 39.9679C21.3773 39.9679 21.407 39.9679 21.4367 39.9679C21.9335 39.9679 22.408 40.1458 22.7714 40.4795C23.1644 40.8354 23.3942 41.3248 23.4165 41.8513C23.4387 42.3851 23.2607 42.8894 22.9048 43.2823C22.5489 43.6679 22.0595 43.8978 21.5331 43.9275C20.9992 43.9497 20.495 43.7643 20.102 43.4084C19.7164 43.0525 19.4865 42.5705 19.4569 42.0366C19.4346 41.5102 19.62 41.006 19.9759 40.613C20.3318 40.22 20.8212 39.9901 21.3477 39.9679ZM27.7468 7.75734C27.9989 7.74993 28.2288 7.61646 28.3622 7.40884C28.4215 7.32728 29.3336 6 31.4394 6C32.5072 6 33.8864 6.34109 35.614 7.36435C36.1553 7.76476 37.6013 8.97339 38.2019 10.1524C38.2983 10.36 39.062 11.8726 40.5895 12.3249C40.1891 12.6512 39.6181 13.0368 38.8692 13.363C38.847 13.3705 38.8247 13.3705 38.8025 13.3779C38.7357 13.4001 38.669 13.4298 38.6097 13.4669C38.4564 13.5311 38.2958 13.5904 38.1277 13.6448C38.0437 13.6596 37.9646 13.6868 37.8904 13.7264C35.8958 14.327 32.9743 14.453 28.9332 12.9181C28.7256 12.844 28.4957 12.8514 28.3029 12.9626C28.1101 13.0664 27.9692 13.2518 27.9247 13.4669C27.9025 13.5484 27.465 15.2983 24.9884 15.7284C24.4249 14.0897 23.676 10.8271 24.8179 9.0772C25.374 8.22448 26.3379 7.79442 27.7468 7.75734ZM40.7452 19.1319V20.5407C40.7452 20.9782 40.4263 21.3415 40.0111 21.4083C40.2336 20.4591 40.367 19.4581 40.3893 18.42C40.6043 18.5757 40.7452 18.8353 40.7452 19.1319ZM23.6834 18.4126C23.7056 19.4581 23.8317 20.4591 24.0541 21.4083C23.6389 21.3415 23.3201 20.9782 23.3201 20.5407V19.1319C23.3201 18.8353 23.4609 18.5757 23.6834 18.4126Z" fill="url(#paint0_linear_1233_2943)"/>
</g>
<defs>
<linearGradient id="paint0_linear_1233_2943" x1="98.5669" y1="22.9892" x2="-8.68426" y2="29.9631" gradientUnits="userSpaceOnUse">
<stop stop-color="#00ADEF"/>
<stop offset="1" stop-color="#D60F8C"/>
</linearGradient>
<clipPath id="clip0_1233_2943">
<rect width="64" height="64" fill="white"/>
</clipPath>
</defs>
</svg>
