<svg width="64" height="64" viewBox="0 0 64 64" fill="none" xmlns="http://www.w3.org/2000/svg">
<g clip-path="url(#clip0_100_6561)">
<path d="M26.8751 0.624983C27.2263 0.849188 27.4387 1.00233 27.6251 1.37498C27.6549 1.62352 27.6549 1.62352 27.6641 1.91405C27.6711 2.05641 27.6711 2.05641 27.6783 2.20164C27.6029 2.62441 27.419 2.8146 27.1251 3.12498C26.7637 3.29085 26.7637 3.29085 26.3438 3.41551C26.189 3.46345 26.0341 3.51138 25.8746 3.56077C25.7931 3.5852 25.7115 3.60962 25.6275 3.63478C22.6141 4.54377 20.007 5.93641 17.6251 7.99998C17.5215 8.08828 17.4179 8.17658 17.3111 8.26756C13.5707 11.5323 11.3053 16.0442 10.3751 20.875C10.3466 21.019 10.318 21.1631 10.2886 21.3115C9.71736 24.7712 10.1661 28.3196 11.2501 31.625C11.2789 31.7142 11.3077 31.8034 11.3374 31.8952C13.0603 37.1253 17.0468 41.5432 21.897 44.0815C24.2804 45.2715 26.8515 46.0709 29.5001 46.375C29.6195 46.3888 29.7389 46.4027 29.8619 46.417C35.4555 46.9711 41.2551 45.2944 45.6251 41.75C45.6941 41.6943 45.7632 41.6386 45.8344 41.5812C50.3312 37.928 53.1975 32.6032 53.8355 26.8384C54.1591 22.6983 53.5266 18.7573 51.7501 15C51.7111 14.9174 51.6722 14.8349 51.632 14.7498C50.6504 12.7113 49.2672 10.9173 47.7501 9.24998C47.666 9.15685 47.5818 9.06371 47.4952 8.96776C45.1425 6.4949 41.8738 4.6534 38.6221 3.68406C38.515 3.65194 38.4079 3.61981 38.2976 3.58671C38.0884 3.52509 37.8786 3.46554 37.6681 3.40837C37.0599 3.23118 36.7039 3.07703 36.3751 2.49998C36.2855 2.11532 36.3034 1.7627 36.3751 1.37498C36.5993 1.0162 36.7479 0.813568 37.1251 0.624983C38.0701 0.535933 38.8554 0.81882 39.7423 1.12498C39.8924 1.17624 40.0426 1.2275 40.1973 1.28032C44.5764 2.80523 48.5217 5.58332 51.3751 9.24998C51.4276 9.31661 51.4801 9.38324 51.5342 9.45189C55.5468 14.5759 57.2224 21.0683 56.5289 27.5119C55.9835 31.7733 54.4247 35.983 51.7501 39.375C51.6579 39.4933 51.5657 39.6115 51.4708 39.7334C51.081 40.2213 50.6798 40.6945 50.2535 41.1509C50.1906 41.2182 50.1278 41.2855 50.063 41.3549C49.9406 41.4851 49.8172 41.6144 49.6927 41.7427C49.3828 42.0699 49.1821 42.2994 49.1251 42.75C49.1947 42.9828 49.1947 42.9828 49.3292 43.2085C49.3776 43.2979 49.426 43.3873 49.4759 43.4795C49.5575 43.625 49.5575 43.625 49.6407 43.7734C49.757 43.9874 49.8733 44.2014 49.9893 44.4155C50.0832 44.5872 50.0832 44.5872 50.1789 44.7624C50.5237 45.3996 50.8548 46.0439 51.1876 46.6875C51.6641 47.6056 52.1424 48.5226 52.6251 49.4375C53.1174 50.371 53.6064 51.3061 54.0938 52.2422C54.1602 52.3695 54.2266 52.4968 54.295 52.6279C54.4242 52.8763 54.5529 53.1248 54.681 53.3737C54.8162 53.6358 54.9526 53.8972 55.0901 54.158C55.1587 54.2904 55.2273 54.4227 55.2979 54.5591C55.3603 54.6782 55.4227 54.7972 55.4869 54.9199C55.7037 55.4378 55.6711 55.7179 55.5001 56.25C55.2183 56.6163 55.0645 56.7285 54.6251 56.875C53.9888 56.9087 53.4602 56.8254 52.8475 56.657C52.762 56.6338 52.6766 56.6106 52.5885 56.5868C52.3089 56.5107 52.0297 56.4331 51.7506 56.3555C51.5557 56.3021 51.3607 56.2489 51.1658 56.1957C50.6549 56.0561 50.1443 55.9152 49.6338 55.774C49.112 55.63 48.5898 55.4871 48.0677 55.3442C47.0448 55.064 46.0223 54.7825 45.0001 54.5C44.5409 55.5648 44.1394 56.6416 43.7618 57.7378C43.7054 57.8995 43.649 58.0612 43.5924 58.2229C43.3551 58.9013 43.1183 59.5798 42.8844 60.2593C42.7402 60.6782 42.5942 61.0964 42.447 61.5143C42.3651 61.7485 42.2851 61.9833 42.2051 62.2182C41.7334 63.5519 41.7334 63.5519 41.1251 64C40.8126 64.083 40.8126 64.083 40.5001 64.0781C40.3969 64.0797 40.2938 64.0813 40.1876 64.083C39.6785 63.9478 39.383 63.5872 39.107 63.1465C38.9604 62.8775 38.8221 62.6056 38.6861 62.331C38.6086 62.1785 38.6086 62.1785 38.5296 62.0229C38.365 61.6981 38.202 61.3725 38.0391 61.0469C37.8789 60.7291 37.7183 60.4115 37.5577 60.0939C37.4503 59.8817 37.3431 59.6694 37.2361 59.4571C36.7143 58.4238 36.175 57.4001 35.6334 56.3772C35.3418 55.8256 35.0539 55.2721 34.7657 54.7187C34.7045 54.6014 34.6433 54.484 34.5802 54.3631C34.2478 53.7257 33.9159 53.0881 33.5845 52.4502C33.5168 52.3199 33.449 52.1895 33.3792 52.0553C33.2493 51.8056 33.1196 51.5559 32.9901 51.306C32.902 51.1366 32.902 51.1366 32.8121 50.9639C32.7608 50.865 32.7094 50.7661 32.6565 50.6642C32.5422 50.4528 32.4198 50.2456 32.2931 50.0413C32.1251 49.75 32.1251 49.75 32.1251 49.5C32.0426 49.5 31.9601 49.5 31.8751 49.5C31.848 49.5962 31.8209 49.6924 31.793 49.7915C31.5627 50.4201 31.2512 50.9954 30.9376 51.5859C30.8368 51.7773 30.8368 51.7773 30.734 51.9726C30.5315 52.357 30.3283 52.741 30.1251 53.125C29.9663 53.4262 29.8078 53.7275 29.6493 54.0288C29.5491 54.2193 29.4488 54.4098 29.3484 54.6003C28.9439 55.368 28.542 56.1369 28.1407 56.9062C28.0779 57.0265 28.0152 57.1467 27.9505 57.2706C27.6311 57.883 27.3124 58.4957 26.9947 59.1089C26.3777 60.2986 25.7556 61.4856 25.1173 62.664C25.0323 62.8231 25.0323 62.8231 24.9456 62.9854C24.8925 63.0826 24.8394 63.1797 24.7847 63.2798C24.7386 63.3649 24.6926 63.45 24.6451 63.5377C24.5001 63.75 24.5001 63.75 24.1251 64C23.837 64.0464 23.837 64.0464 23.5157 64.0547C23.4103 64.0597 23.3049 64.0647 23.1964 64.0698C22.7328 63.9691 22.5597 63.7281 22.2501 63.375C22.0739 63.0132 22.0739 63.0132 21.9346 62.6105C21.8812 62.459 21.8278 62.3075 21.7728 62.1514C21.7169 61.987 21.6609 61.8226 21.6051 61.6582C21.5457 61.488 21.4861 61.3178 21.4264 61.1477C21.2698 60.7007 21.1154 60.253 20.9615 59.805C20.7153 59.0899 20.4659 58.3759 20.2167 57.6618C20.1305 57.4141 20.0452 57.1661 19.96 56.918C19.6741 56.0925 19.3699 55.2916 19.0001 54.5C18.8924 54.5297 18.7847 54.5595 18.6738 54.5901C17.6571 54.8709 16.6401 55.1505 15.6228 55.429C15.0999 55.5722 14.5771 55.7157 14.0545 55.8603C13.5498 55.9998 13.0449 56.1383 12.5397 56.2761C12.3474 56.3287 12.1552 56.3817 11.9631 56.4351C11.6932 56.5101 11.423 56.5837 11.1526 56.657C10.9991 56.6992 10.8456 56.7414 10.6875 56.7848C10.0995 56.906 9.58979 56.9677 9.03132 56.7265C8.69596 56.4564 8.53584 56.2769 8.37507 55.875C8.37386 54.848 8.89346 54.0289 9.36726 53.1484C9.45373 52.985 9.54005 52.8214 9.62623 52.6578C9.79698 52.3342 9.96855 52.0111 10.141 51.6884C10.3864 51.2288 10.6292 50.7679 10.8712 50.3065C11.0169 50.029 11.1632 49.7518 11.3096 49.4746C11.6887 48.7555 12.063 48.0339 12.4376 47.3125C12.9413 46.3429 13.4455 45.3737 13.9532 44.4062C14.0285 44.2623 14.0285 44.2623 14.1053 44.1155C14.1755 43.9819 14.1755 43.9819 14.2471 43.8457C14.2902 43.7636 14.3333 43.6815 14.3776 43.5969C14.4852 43.402 14.6064 43.2148 14.7296 43.0293C14.8976 42.7638 14.8976 42.7638 14.8634 42.4888C14.7228 42.1924 14.5542 42.0266 14.3126 41.8047C13.6915 41.2046 13.1556 40.5556 12.6251 39.875C12.5704 39.8049 12.5157 39.7347 12.4594 39.6625C11.618 38.5744 10.8935 37.454 10.2509 36.238C10.1331 36.0152 10.0125 35.7939 9.89167 35.5727C7.40502 30.8592 6.74977 25.0734 7.75007 19.875C7.78125 19.7121 7.78125 19.7121 7.81306 19.5459C9.10481 13.0584 13.1216 7.46465 18.5812 3.8148C20.803 2.37946 24.1432 0.447625 26.8751 0.624983ZM17.1251 44.25C16.1359 46.0288 15.1914 47.8281 14.2636 49.6394C14.1741 49.814 14.0847 49.9885 13.9952 50.1631C13.9305 50.2892 13.9305 50.2892 13.8645 50.418C13.4745 51.1776 13.0759 51.9326 12.667 52.6823C12.4449 53.069 12.4449 53.069 12.3751 53.5C13.5149 53.2438 14.646 52.967 15.7706 52.6504C15.8776 52.6203 15.9847 52.5902 16.095 52.5592C16.5351 52.4353 16.975 52.3108 17.4146 52.185C17.7413 52.0917 18.0684 51.9999 18.3956 51.9082C18.4938 51.8797 18.592 51.8512 18.6931 51.8218C19.3392 51.6421 19.9724 51.4912 20.6306 51.7099C20.9695 51.9388 21.0398 52.1702 21.186 52.5494C21.2387 52.6847 21.2915 52.8199 21.3458 52.9593C21.3967 53.0965 21.4476 53.2337 21.5001 53.375C21.5451 53.4958 21.5901 53.6166 21.6365 53.741C21.7691 54.1044 21.8981 54.4689 22.026 54.834C22.0722 54.965 22.1185 55.0961 22.1662 55.2311C22.3117 55.6435 22.4567 56.0561 22.6016 56.4687C22.7011 56.751 22.8007 57.0332 22.9002 57.3154C23.1423 58.0018 23.3839 58.6883 23.6251 59.375C23.9302 59.0811 24.1182 58.814 24.3121 58.4355C24.3708 58.3218 24.4296 58.2081 24.4901 58.0909C24.5527 57.9681 24.6153 57.8453 24.6798 57.7187C24.8147 57.457 24.9496 57.1953 25.0845 56.9336C25.1535 56.7994 25.2224 56.6651 25.2933 56.5268C25.6148 55.9019 25.9403 55.2791 26.2657 54.6562C26.3277 54.5375 26.3896 54.4187 26.4535 54.2963C26.856 53.5251 27.2594 52.7544 27.6641 51.9844C27.7148 51.8879 27.7655 51.7914 27.8177 51.692C28.0496 51.2516 28.2833 50.8123 28.522 50.3755C28.5635 50.2995 28.6049 50.2236 28.6476 50.1453C28.7571 49.9454 28.8673 49.7459 28.9776 49.5464C29.1436 49.2679 29.1436 49.2679 29.1251 49C29.0377 48.9843 28.9504 48.9687 28.8605 48.9525C24.7333 48.2052 21.0761 46.9604 17.6339 44.5156C17.3107 44.2381 17.3107 44.2381 17.1251 44.25ZM46.2344 44.6172C42.8336 47.0078 38.9921 48.4558 34.8751 49C35.0372 49.5223 35.2348 49.9937 35.4884 50.478C35.5601 50.6157 35.6318 50.7533 35.7057 50.8951C35.7822 51.0406 35.8587 51.1861 35.9376 51.3359C36.0174 51.4885 36.0971 51.6412 36.1768 51.7938C36.4088 52.2379 36.6419 52.6815 36.8751 53.125C36.9346 53.2383 36.9941 53.3516 37.0554 53.4683C37.2574 53.8529 37.4595 54.2375 37.6625 54.6216C37.9485 55.163 38.232 55.7056 38.5133 56.2495C38.5799 56.378 38.6465 56.5066 38.7151 56.639C38.8439 56.8878 38.9724 57.1367 39.1005 57.3858C39.4553 58.0703 39.8321 58.7271 40.2501 59.375C40.4819 59.0272 40.6041 58.7477 40.7425 58.3572C40.7892 58.2262 40.836 58.0952 40.8841 57.9602C40.934 57.8188 40.9838 57.6774 41.0352 57.5317C41.087 57.3864 41.1388 57.2411 41.1921 57.0913C41.3296 56.7051 41.4668 56.3187 41.6036 55.9323C41.7963 55.3882 41.9895 54.8444 42.183 54.3006C42.286 54.0112 42.3887 53.7217 42.4911 53.4321C42.5378 53.3007 42.5845 53.1693 42.6326 53.034C42.6735 52.9185 42.7144 52.8031 42.7565 52.6841C43.0437 51.9353 43.0437 51.9353 43.336 51.7187C44.2626 51.4182 45.1824 51.7812 46.0806 52.0351C46.3068 52.0976 46.3068 52.0976 46.5375 52.1613C46.9361 52.2714 47.3344 52.3825 47.7326 52.4942C48.2956 52.6518 48.859 52.8077 49.4225 52.9637C49.7221 53.0468 50.0216 53.1302 50.321 53.2141C50.5232 53.2704 50.5232 53.2704 50.7295 53.3279C50.8484 53.3612 50.9674 53.3945 51.0899 53.4288C51.3665 53.5101 51.3665 53.5101 51.6251 53.5C51.4438 52.9004 51.1911 52.3568 50.9024 51.8032C50.8562 51.7135 50.81 51.6239 50.7623 51.5315C50.613 51.2421 50.4628 50.953 50.3126 50.664C50.2094 50.4648 50.1064 50.2656 50.0033 50.0663C49.7546 49.5858 49.5052 49.1056 49.2554 48.6255C49.1411 48.4058 49.0271 48.186 48.913 47.9662C48.2615 46.7106 47.5885 45.4716 46.8751 44.25C46.6332 44.25 46.4209 44.4815 46.2344 44.6172Z" fill="url(#paint0_linear_100_6561)"/>
<path d="M36.2501 6.62497C36.3468 6.64981 36.4435 6.67464 36.5431 6.70023C39.2978 7.41652 41.7089 8.64633 43.8751 10.5C43.9761 10.5857 44.0771 10.6714 44.1812 10.7597C47.7437 13.8692 50.0006 18.2698 50.3751 23C50.5677 27.3367 49.6968 31.554 47.1251 35.125C47.0737 35.1964 47.0223 35.2679 46.9694 35.3415C43.9072 39.5383 39.4854 42.0507 34.3751 42.875C33.8739 42.9431 33.3805 42.9839 32.8751 43C32.7429 43.005 32.6108 43.01 32.4747 43.0151C27.592 43.1099 22.8698 41.3216 19.334 37.9472C19.2238 37.8409 19.1136 37.7345 19.0001 37.625C18.9105 37.5418 18.8209 37.4587 18.7286 37.373C16.8482 35.5829 15.458 33.195 14.6251 30.75C14.5971 30.6679 14.5691 30.5859 14.5403 30.5013C13.0521 26.0484 13.2121 20.9923 15.3062 16.75C15.3702 16.6262 15.4342 16.5025 15.5001 16.375C15.5653 16.2435 15.6306 16.112 15.6978 15.9765C17.9129 11.6605 21.861 8.47141 26.4445 6.96787C29.4777 6.04584 33.1661 5.79613 36.2501 6.62497ZM24.8751 10.5C24.7507 10.5604 24.6263 10.6208 24.4981 10.6831C20.8946 12.5415 18.165 15.9781 16.9353 19.8082C15.6876 23.8879 16.0631 28.2196 18.0469 32.0078C20.0838 35.7408 23.4923 38.4805 27.5333 39.7466C28.7073 40.0695 29.907 40.3133 31.1251 40.375C31.2482 40.3816 31.3713 40.3882 31.4981 40.395C35.8334 40.512 39.77 38.8328 42.9332 35.9287C45.9448 33.0424 47.6897 29.1454 47.7852 24.9683C47.8253 21.0961 46.6331 17.4723 44.1251 14.5C43.9839 14.3325 43.9839 14.3325 43.8399 14.1616C41.3018 11.2526 37.7289 9.30866 33.8751 8.87497C33.7284 8.85822 33.5818 8.84146 33.4307 8.82419C30.4309 8.55862 27.5668 9.18643 24.8751 10.5Z" fill="url(#paint1_linear_100_6561)"/>
<path d="M32.5 17.125C33.0745 17.5462 33.3731 17.8909 33.6796 18.5469C33.7156 18.6226 33.7517 18.6983 33.7887 18.7763C33.9026 19.0168 34.0138 19.2583 34.125 19.5C34.1993 19.6581 34.2739 19.8161 34.3486 19.9741C34.5682 20.4399 34.7844 20.9073 35 21.375C35.0738 21.5348 35.1477 21.6947 35.2216 21.8545C35.398 22.2362 35.5741 22.618 35.75 23C35.8804 22.971 36.0108 22.942 36.1452 22.9122C39.7092 22.1202 39.7092 22.1202 39.9763 22.061C40.169 22.018 40.3617 21.9746 40.5543 21.9309C40.6539 21.9084 40.7534 21.8859 40.8559 21.8627C40.9908 21.832 40.9908 21.832 41.1284 21.8007C41.7102 21.681 42.0161 21.6884 42.539 21.9844C42.875 22.25 42.875 22.25 43 22.5C43.0889 23.3775 42.9425 24.0723 42.603 24.876C42.5623 24.9773 42.5215 25.0785 42.4796 25.1829C42.3504 25.503 42.2182 25.8218 42.0859 26.1406C41.9985 26.3552 41.9114 26.5699 41.8244 26.7847C41.6641 27.1804 41.5024 27.5755 41.3396 27.9703C41.1323 28.4764 40.9396 28.987 40.75 29.5C40.8402 29.4871 40.9304 29.4742 41.0234 29.4609C41.375 29.5 41.375 29.5 41.7265 29.7344C42.0605 30.2114 42.0904 30.5061 42.0615 31.0776C41.9663 31.5376 41.7514 31.7348 41.375 32C40.9651 32.1388 40.5774 32.1413 40.1469 32.1425C39.9981 32.1433 39.8493 32.144 39.696 32.1447C39.5332 32.1448 39.3704 32.145 39.2027 32.1451C39.0292 32.1457 38.8556 32.1463 38.6821 32.147C38.211 32.1486 37.7399 32.1495 37.2688 32.15C36.9743 32.1504 36.6799 32.1509 36.3854 32.1514C35.4635 32.1532 34.5415 32.1544 33.6196 32.1548C32.5564 32.1554 31.4931 32.1576 30.4299 32.1612C29.6073 32.1639 28.7848 32.1652 27.9623 32.1654C27.4713 32.1655 26.9804 32.1662 26.4894 32.1685C26.0274 32.1705 25.5654 32.1708 25.1034 32.1697C24.8538 32.1695 24.6043 32.1713 24.3547 32.173C23.564 32.1694 22.9365 32.1635 22.25 31.75C21.8967 31.2201 21.9029 30.747 22 30.125C22.2734 29.7344 22.2734 29.7344 22.625 29.5C22.9594 29.4853 22.9594 29.4853 23.25 29.5C23.2218 29.4289 23.1936 29.3578 23.1645 29.2845C22.8703 28.5411 22.5787 27.7967 22.2887 27.0517C22.1802 26.7742 22.0711 26.4969 21.9613 26.2199C21.8031 25.8206 21.6474 25.4204 21.4921 25.02C21.4429 24.8973 21.3937 24.7746 21.343 24.6482C21.0729 23.9435 20.8494 23.2599 21 22.5C21.2727 22.1555 21.4839 21.9455 21.875 21.75C22.7198 21.7701 23.547 21.9471 24.3681 22.1333C24.4801 22.1581 24.5921 22.1829 24.7075 22.2084C25.0603 22.2867 25.413 22.366 25.7656 22.4453C26.0068 22.499 26.248 22.5526 26.4892 22.6062C27.0763 22.7367 27.6632 22.8681 28.25 23C28.3073 22.8816 28.3646 22.7632 28.4236 22.6412C28.639 22.1962 28.8546 21.7512 29.0701 21.3063C29.1629 21.1147 29.2556 20.9232 29.3483 20.7317C29.61 20.1911 29.8721 19.6508 30.1351 19.1109C30.2384 18.8986 30.3413 18.6862 30.4442 18.4738C30.5259 18.3069 30.5259 18.3069 30.6093 18.1367C30.6772 17.9974 30.6772 17.9974 30.7465 17.8552C31.124 17.1784 31.7496 16.9065 32.5 17.125ZM31.875 21.625C31.8315 21.7119 31.788 21.7989 31.7432 21.8885C31.2871 22.8006 30.831 23.7128 30.375 24.625C30.3159 24.756 30.2568 24.8871 30.1959 25.0221C29.9941 25.3855 29.8613 25.5513 29.5 25.75C28.5277 25.9338 27.5147 25.6105 26.5781 25.375C26.2908 25.3042 26.0033 25.2339 25.7158 25.164C25.5902 25.1326 25.4646 25.1012 25.3352 25.0688C24.9754 24.9832 24.9754 24.9832 24.5 25C24.8127 26.5638 25.5492 28.0127 26.125 29.5C30.0025 29.5 33.88 29.5 37.875 29.5C38.9797 27.3055 38.9797 27.3055 39.5 25C38.5735 25.0948 37.6906 25.3068 36.7885 25.5339C34.9706 25.9687 34.9706 25.9687 34.1533 25.5889C33.7158 25.0562 33.4549 24.4533 33.1718 23.8281C33.053 23.5719 32.9342 23.3157 32.8154 23.0596C32.7334 22.8808 32.7334 22.8808 32.6497 22.6983C32.4821 22.3365 32.3067 21.98 32.125 21.625C32.0425 21.625 31.96 21.625 31.875 21.625Z" fill="url(#paint2_linear_100_6561)"/>
<path d="M32.6251 -1.28523e-05C33.0157 0.234362 33.0157 0.234362 33.2501 0.624987C33.3737 1.25327 33.3472 1.71313 33.0157 2.26561C32.4633 2.5971 32.0034 2.62358 31.3751 2.49999C30.9845 2.26561 30.9845 2.26561 30.7501 1.87499C30.6265 1.24671 30.653 0.786845 30.9845 0.234362C31.537 -0.0971275 31.9968 -0.123609 32.6251 -1.28523e-05Z" fill="url(#paint3_linear_100_6561)"/>
</g>
<defs>
<linearGradient id="paint0_linear_100_6561" x1="83.2743" y1="21.5612" x2="0.395211" y2="24.9292" gradientUnits="userSpaceOnUse">
<stop stop-color="#00ADEF"/>
<stop offset="1" stop-color="#D60F8C"/>
</linearGradient>
<linearGradient id="paint1_linear_100_6561" x1="70.2425" y1="18.301" x2="8.47036" y2="21.5231" gradientUnits="userSpaceOnUse">
<stop stop-color="#00ADEF"/>
<stop offset="1" stop-color="#D60F8C"/>
</linearGradient>
<linearGradient id="paint2_linear_100_6561" x1="54.9132" y1="22.0428" x2="18.0175" y2="24.8562" gradientUnits="userSpaceOnUse">
<stop stop-color="#00ADEF"/>
<stop offset="1" stop-color="#D60F8C"/>
</linearGradient>
<linearGradient id="paint3_linear_100_6561" x1="34.7377" y1="0.802132" x2="30.3182" y2="1.03299" gradientUnits="userSpaceOnUse">
<stop stop-color="#00ADEF"/>
<stop offset="1" stop-color="#D60F8C"/>
</linearGradient>
<clipPath id="clip0_100_6561">
<rect width="64" height="64" fill="white"/>
</clipPath>
</defs>
</svg>
