<svg width="64" height="64" viewBox="0 0 64 64" fill="none" xmlns="http://www.w3.org/2000/svg">
<g clip-path="url(#clip0_461_134)">
<path fill-rule="evenodd" clip-rule="evenodd" d="M32 64C27.675 64 23.4875 63.15 19.55 61.4875C15.7375 59.875 12.3125 57.5625 9.375 54.625C6.4375 51.6875 4.125 48.2625 2.5125 44.45C0.85 40.5125 0 36.325 0 32C0 27.675 0.85 23.4875 2.5125 19.55C4.125 15.7375 6.4375 12.3125 9.375 9.375C12.3125 6.4375 15.7375 4.125 19.55 2.5125C23.4875 0.85 27.675 0 32 0C36.325 0 40.5125 0.85 44.45 2.5125C48.2625 4.125 51.6875 6.4375 54.625 9.375C57.5625 12.3125 59.875 15.7375 61.4875 19.55C63.1625 23.5 64 27.6875 64 32C64 36.325 63.15 40.5125 61.4875 44.45C59.875 48.2625 57.5625 51.6875 54.625 54.625C51.6875 57.5625 48.2625 59.875 44.45 61.4875C40.5125 63.15 36.325 64 32 64ZM32 1.775C15.3375 1.775 1.775 15.3375 1.775 32C1.775 48.6625 15.3375 62.225 32 62.225C48.6625 62.225 62.225 48.6625 62.225 32C62.225 15.3375 48.6625 1.775 32 1.775Z" fill="url(#paint0_linear_461_134)"/>
<path fill-rule="evenodd" clip-rule="evenodd" d="M50.8125 53.125H13.1875C11.6625 53.125 10.425 51.8875 10.425 50.3625V19.2C10.425 17.675 11.6625 16.4375 13.1875 16.4375H17.1875V12.8375C17.1875 11.75 18.0625 10.875 19.15 10.875H20.975C22.0625 10.875 22.9375 11.75 22.9375 12.8375V16.425H22.2C21.8375 16.425 21.5375 16.6812 21.475 17.025V12.8375C21.475 12.5625 21.25 12.3375 20.975 12.3375H19.15C18.875 12.3375 18.65 12.5625 18.65 12.8375V21.5C18.65 21.775 18.875 22 19.15 22H20.975C21.1813 22 21.3563 21.875 21.4375 21.6938C21.4188 21.9125 21.5 22.1313 21.675 22.2875C21.9 22.4938 22.0813 22.75 22.2063 23.025C21.8688 23.3 21.4375 23.4625 20.975 23.4625H19.15C18.675 23.4625 18.2438 23.3 17.9063 23.025C18.0375 22.75 18.2125 22.5 18.4375 22.2875C18.7375 22.0125 18.75 21.55 18.475 21.25C18.2 20.95 17.7375 20.9375 17.4375 21.2125C17.35 21.2958 17.2667 21.3813 17.1875 21.4688V17.9125H13.1875C12.475 17.9125 11.8875 18.4875 11.8875 19.2125V50.375C11.8875 51.0875 12.4625 51.675 13.1875 51.675H50.825C51.5375 51.675 52.125 51.0875 52.125 50.375V19.2C52.125 18.4875 51.5375 17.9 50.825 17.9H46.8125V21.4688C48.1188 22.9312 48.1063 25.1625 46.7375 26.625C46.0125 27.4 45 27.8375 43.9375 27.8375C41.825 27.8375 40.1125 26.125 40.1125 24.0125C40.1125 23.075 40.45 22.1813 41.0625 21.4813V17.9H41.8C42.1563 17.9 42.4625 17.6437 42.525 17.3V21.5C42.525 21.775 42.75 22 43.025 22H44.85C45.125 22 45.35 21.775 45.35 21.5V12.8375C45.35 12.5625 45.125 12.3375 44.85 12.3375H43.025C42.75 12.3375 42.525 12.5625 42.525 12.8375V17.025C42.4625 16.6812 42.1563 16.425 41.8 16.425H41.0625V12.8375C41.0625 11.75 41.9375 10.875 43.025 10.875H44.85C45.9375 10.875 46.8125 11.7625 46.8125 12.8375V16.425H50.825C52.35 16.425 53.5875 17.6625 53.5875 19.1875V50.35C53.575 51.8875 52.3375 53.1125 50.8125 53.125ZM22.9375 21.4688C22.8583 21.3813 22.775 21.2958 22.6875 21.2125C22.675 21.2125 22.675 21.2 22.6625 21.2C22.3625 20.925 21.9 20.95 21.625 21.25C21.5563 21.325 21.5063 21.4125 21.475 21.5V17.3C21.5375 17.6437 21.8438 17.9 22.2 17.9H22.9375V21.4688ZM22.9375 21.4688C24.2438 22.9312 24.2313 25.1625 22.8625 26.625C22.125 27.4 21.1125 27.8375 20.0625 27.8375C17.95 27.8375 16.2375 26.125 16.225 24.0125C16.225 23.0688 16.5688 22.1687 17.1875 21.4688V21.5C17.1875 22.1125 17.4688 22.6625 17.9063 23.025C17.7625 23.3312 17.6875 23.6688 17.6875 24.0125C17.7125 25.325 18.8 26.3625 20.1 26.3375C21.375 26.3125 22.4 25.2875 22.425 24.0125C22.425 23.6688 22.35 23.3312 22.2063 23.025C22.65 22.6687 22.9375 22.1187 22.9375 21.5V21.4688ZM41.575 24.0125C41.6 25.325 42.6875 26.3625 43.9875 26.3375C45.2625 26.3125 46.2875 25.2875 46.3125 24.0125C46.3125 23.6688 46.2375 23.3312 46.0938 23.0187C45.7563 23.3 45.325 23.4625 44.85 23.4625H43.025C42.5563 23.4625 42.1313 23.3 41.7938 23.0312C41.65 23.3375 41.575 23.6688 41.575 24.0125ZM21.4375 21.6938C21.4417 21.6271 21.4542 21.5625 21.475 21.5C21.475 21.5688 21.4625 21.6375 21.4375 21.6938ZM42.525 17.3V17.025C42.5333 17.0708 42.5375 17.1167 42.5375 17.1625C42.5375 17.2083 42.5333 17.2542 42.525 17.3ZM21.475 17.025V17.3C21.4667 17.2542 21.4625 17.2083 21.4625 17.1625C21.4625 17.1167 21.4667 17.0708 21.475 17.025ZM41.0625 16.425V17.9H22.9375V16.425H41.0625ZM22.975 49.7375C19.575 49.7375 16.825 46.975 16.825 43.5875V38.075C17.0583 38.125 17.3 38.15 17.55 38.15C17.8063 38.15 18.0563 38.1187 18.3 38.0625V43.5875C18.3 46.175 20.4 48.275 22.9875 48.275C25.575 48.275 27.675 46.175 27.675 43.5875V36.2188C27.9063 36.275 28.1438 36.3 28.3875 36.3C28.65 36.3 28.9063 36.2687 29.15 36.2062V43.5875C29.1125 46.9875 26.3625 49.7375 22.975 49.7375ZM16.825 38.075C15.275 37.7438 14.1125 36.3625 14.1125 34.7125V30.825C14.175 31.1688 14.4813 31.425 14.8375 31.425H15.575V34.7125C15.55 35.7313 16.3063 36.5938 17.3063 36.7188C17.0188 36.825 16.825 37.1 16.825 37.4125V38.075ZM14.1125 30.7V30.825C14.1042 30.7792 14.1 30.7333 14.1 30.6875C14.1 30.2875 14.425 29.95 14.8375 29.95H15.975C16.375 29.95 16.7125 30.275 16.7125 30.6875C16.7125 31.1 16.375 31.425 15.975 31.425H15.575V30.7C15.575 30.3 15.25 29.975 14.85 29.975C14.4375 29.9625 14.1125 30.3 14.1125 30.7ZM17.5625 36.675C17.6542 36.675 17.7396 36.6917 17.8188 36.725C17.7188 36.7375 17.6167 36.7417 17.5125 36.7375C17.4417 36.7375 17.3729 36.7333 17.3063 36.725C17.3813 36.6937 17.4688 36.675 17.5625 36.675ZM17.8188 36.725C18.7688 36.5937 19.5125 35.7937 19.5375 34.8C19.5375 34.7812 19.5375 32.6 19.5375 31.425H20.2625C20.6625 31.425 20.9875 31.1 21 30.6875C21 30.4375 20.875 30.225 20.6938 30.0875C20.8875 30.2188 21.0125 30.4438 21.0125 30.7V34.7125C20.9938 36.3438 19.8375 37.7125 18.3 38.0625V37.4125C18.3 37.0937 18.1063 36.825 17.8188 36.725ZM19.5375 31.425H19.125C18.725 31.425 18.3875 31.1 18.3875 30.6875C18.3875 30.2875 18.7125 29.95 19.125 29.95H20.2625C20.4188 29.95 20.5688 30 20.6938 30.0875C20.575 30.0125 20.4313 29.9625 20.275 29.9625C19.8625 29.9625 19.5375 30.3 19.5375 30.7C19.5375 30.7063 19.5375 31 19.5375 31.425ZM27.675 36.2188C26.2688 35.9 25.225 34.6438 25.225 33.1375C25.225 31.3875 26.6375 29.975 28.3875 29.975C30.1375 29.975 31.55 31.3875 31.55 33.1375C31.55 34.6125 30.5313 35.8687 29.15 36.2062V35.5625C29.15 35.15 28.8125 34.825 28.4125 34.825C28 34.825 27.675 35.1625 27.675 35.5625V36.2188ZM28.3875 31.425C27.45 31.425 26.6875 32.1875 26.6875 33.125C26.6875 34.0625 27.45 34.825 28.3875 34.825C29.325 34.825 30.0875 34.0625 30.0875 33.125C30.0875 32.1875 29.325 31.425 28.3875 31.425ZM41.025 48.7125C36.1688 48.7125 32.2313 44.8063 32.1625 39.9813C32.2313 40.325 32.5313 40.575 32.8875 40.575H33.6625C34.0063 44.075 36.7875 46.8563 40.2875 47.2V47.975C40.2875 48.3875 40.625 48.7125 41.025 48.7125C41.425 48.7125 41.75 48.3875 41.7625 47.975V47.2C45.2625 46.8563 48.0438 44.075 48.3875 40.575H49.1625C49.525 40.575 49.8188 40.3125 49.8875 39.9625C49.825 44.8 45.875 48.7125 41.025 48.7125ZM32.1625 39.9813C32.1542 39.9354 32.15 39.8875 32.15 39.8375C32.15 39.7875 32.1542 39.7396 32.1625 39.6937C32.1625 39.7479 32.1625 39.8 32.1625 39.85C32.1625 39.8917 32.1625 39.9354 32.1625 39.9813ZM40.8813 30.9875C40.5375 31.0562 40.2875 31.3625 40.2875 31.7125V32.475C36.7875 32.8187 34.0063 35.6 33.6625 39.1H32.8875C32.525 39.1 32.2313 39.3625 32.1625 39.6937C32.2438 34.925 36.1125 31.0625 40.8813 30.9875ZM33.6625 39.1H36.1125C36.5125 39.1 36.85 39.425 36.85 39.8375C36.85 40.25 36.5125 40.575 36.1125 40.575H33.6625C33.6375 40.3333 33.625 40.0875 33.625 39.8375C33.625 39.5875 33.6375 39.3417 33.6625 39.1ZM40.2875 47.2V44.75C40.2875 44.35 40.6125 44.0125 41.025 44.0125C41.425 44.0125 41.7625 44.3375 41.7625 44.75V47.2C41.5208 47.225 41.275 47.2375 41.025 47.2375C40.775 47.2375 40.5292 47.225 40.2875 47.2ZM48.3875 40.575H45.9375C45.5375 40.575 45.2 40.25 45.2 39.8375C45.2 39.4375 45.525 39.1 45.9375 39.1H48.3875C48.4125 39.3417 48.425 39.5875 48.425 39.8375C48.425 40.0875 48.4125 40.3333 48.3875 40.575ZM41.7625 32.475V31.7125C41.7625 31.35 41.5 31.0562 41.1688 30.9875C45.9375 31.0625 49.8063 34.925 49.8875 39.6937C49.8188 39.35 49.5125 39.1 49.1625 39.1H48.3875C48.0438 35.6125 45.2625 32.8312 41.7625 32.475ZM49.8875 39.6937C49.8958 39.7396 49.9 39.7875 49.9 39.8375C49.9 39.8792 49.8958 39.9208 49.8875 39.9625C49.8875 39.925 49.8875 39.8875 49.8875 39.85C49.8875 39.8 49.8875 39.7479 49.8875 39.6937ZM40.8813 30.9875C40.9271 30.9792 40.975 30.975 41.025 30.975C41.075 30.975 41.1229 30.9792 41.1688 30.9875C41.1188 30.9875 41.0708 30.9875 41.025 30.9875C40.9792 30.9875 40.9313 30.9875 40.8813 30.9875ZM41.7625 32.475V34.9375C41.75 35.35 41.425 35.675 41.025 35.675C40.625 35.675 40.2875 35.35 40.2875 34.9375V32.475C40.5292 32.45 40.775 32.4375 41.025 32.4375C41.275 32.4375 41.5208 32.45 41.7625 32.475ZM42.925 41.675C42.8 41.675 42.675 41.6375 42.5625 41.575L40.6625 40.475C40.4375 40.35 40.3 40.1 40.3 39.8375V37.05C40.3 36.65 40.625 36.3125 41.0375 36.3125C41.45 36.3125 41.775 36.6375 41.775 37.05V39.4125L43.3125 40.3C43.6625 40.5 43.7875 40.95 43.575 41.3C43.425 41.5375 43.1875 41.675 42.925 41.675Z" fill="url(#paint1_linear_461_134)"/>
</g>
<defs>
<linearGradient id="paint0_linear_461_134" x1="98.4667" y1="21.1263" x2="-8.8357" y2="26.7315" gradientUnits="userSpaceOnUse">
<stop stop-color="#00ADEF"/>
<stop offset="1" stop-color="#D60F8C"/>
</linearGradient>
<linearGradient id="paint1_linear_461_134" x1="76.8323" y1="24.8216" x2="4.47468" y2="28.683" gradientUnits="userSpaceOnUse">
<stop stop-color="#00ADEF"/>
<stop offset="1" stop-color="#D60F8C"/>
</linearGradient>
<clipPath id="clip0_461_134">
<rect width="64" height="64" fill="white"/>
</clipPath>
</defs>
</svg>
