<svg width="64" height="64" viewBox="0 0 64 64" fill="none" xmlns="http://www.w3.org/2000/svg">
<path d="M37.4437 17.2227C38.4983 18.028 39.2963 18.8974 39.9144 20.0704C39.9551 20.1446 39.9958 20.2188 40.0378 20.2952C40.9882 22.2109 40.8014 24.4865 40.7884 26.5587C40.786 27.0018 40.7858 27.4449 40.7854 27.888C40.7842 28.7237 40.7812 29.5595 40.7774 30.3952C40.7732 31.3481 40.7711 32.3009 40.7692 33.2538C40.7653 35.2109 40.7588 37.168 40.7504 39.1251C40.9112 39.1235 41.0721 39.122 41.2378 39.1204C41.4521 39.1191 41.6664 39.1179 41.8807 39.1168C41.9864 39.1156 42.092 39.1145 42.2008 39.1134C44.2234 39.1051 46.0321 39.7737 47.5853 41.086C48.2988 41.7971 48.8692 42.6321 49.3754 43.5001C49.3456 43.3744 49.3456 43.3744 49.3153 43.2461C49.0084 41.4926 49.3101 39.7932 50.2806 38.2935C51.2889 36.9469 52.6045 36.107 54.2504 35.7501C56.2605 35.6274 57.9108 35.9158 59.5194 37.2178C60.7395 38.3466 61.3876 39.782 61.5394 41.4219C61.6065 43.3003 61.0072 44.6856 59.8754 46.1251C59.8341 46.1663 59.7929 46.2076 59.7504 46.2501C59.8799 46.2547 60.0095 46.2594 60.1429 46.2642C60.3142 46.2724 60.4854 46.2807 60.6566 46.2891C60.7845 46.2933 60.7845 46.2933 60.9149 46.2977C61.4383 46.3256 61.7605 46.3659 62.1254 46.7501C62.1897 47.1343 62.1897 47.1343 62.1921 47.6128C62.1931 47.7001 62.1942 47.7873 62.1953 47.8772C62.1982 48.1656 62.1973 48.4538 62.1962 48.7422C62.1968 48.9426 62.1976 49.1429 62.1985 49.3433C62.1998 49.7632 62.1992 50.1831 62.1974 50.603C62.1953 51.1415 62.1982 51.6798 62.2026 52.2183C62.2053 52.632 62.2052 53.0457 62.2041 53.4594C62.204 53.658 62.2049 53.8566 62.2067 54.0551C62.2089 54.3326 62.2071 54.6098 62.2043 54.8873C62.2041 55.0452 62.204 55.2031 62.2039 55.3658C62.1254 55.7501 62.1254 55.7501 61.8296 55.9888C61.4546 56.144 61.188 56.1682 60.7831 56.1617C60.6497 56.1605 60.5164 56.1593 60.379 56.158C60.2412 56.1549 60.1033 56.1517 59.9613 56.1485C59.821 56.1468 59.6808 56.1451 59.5363 56.1434C59.1909 56.139 58.8457 56.1328 58.5004 56.1251C58.5023 56.1955 58.5043 56.266 58.5063 56.3387C58.5142 56.6633 58.519 56.9879 58.5238 57.3126C58.5285 57.4788 58.5285 57.4788 58.5333 57.6485C58.5446 58.6683 58.3431 59.5304 57.613 60.2843C56.6001 61.2038 55.4475 61.2147 54.1517 61.2044C53.9525 61.2051 53.7533 61.2061 53.5541 61.2074C53.0092 61.21 52.4643 61.2087 51.9194 61.2068C51.3308 61.2053 50.7422 61.2075 50.1535 61.2092C49.0014 61.212 47.8493 61.2114 46.6972 61.2096C45.7607 61.2082 44.8242 61.208 43.8877 61.2087C43.7543 61.2088 43.6209 61.2089 43.4835 61.209C43.2125 61.2092 42.9415 61.2094 42.6706 61.2096C40.1307 61.2114 37.5908 61.2093 35.051 61.206C32.8725 61.2032 30.6941 61.2037 28.5156 61.2065C25.9847 61.2099 23.4539 61.2112 20.923 61.2093C20.653 61.2091 20.383 61.2089 20.1131 61.2087C19.9802 61.2086 19.8474 61.2085 19.7106 61.2084C18.7754 61.2079 17.8402 61.2088 16.905 61.2102C15.7651 61.212 14.6251 61.2115 13.4852 61.2082C12.9037 61.2065 12.3223 61.2059 11.7409 61.208C11.2083 61.2098 10.6757 61.2088 10.143 61.2055C9.95075 61.2048 9.75847 61.2051 9.5662 61.2067C8.35747 61.2155 7.3205 61.1311 6.38772 60.2843C5.65763 59.5304 5.45616 58.6683 5.46741 57.6485C5.47055 57.5376 5.47369 57.4268 5.47693 57.3126C5.47862 57.1978 5.48032 57.0831 5.48206 56.9649C5.48643 56.6849 5.49257 56.405 5.50037 56.1251C5.41276 56.127 5.32516 56.129 5.2349 56.131C4.83642 56.1388 4.43796 56.1437 4.03943 56.1485C3.83266 56.1532 3.83266 56.1532 3.62171 56.158C3.48837 56.1592 3.35503 56.1604 3.21765 56.1617C3.09524 56.1636 2.97283 56.1656 2.84671 56.1676C2.41931 56.1151 2.21116 56.0211 1.87537 55.7501C1.79685 55.3658 1.79685 55.3658 1.79648 54.8873C1.79559 54.8 1.79469 54.7128 1.79377 54.6229C1.79166 54.3345 1.79409 54.0463 1.79676 53.7579C1.79665 53.5575 1.79634 53.3572 1.79584 53.1568C1.79548 52.7369 1.79732 52.3171 1.80075 51.8971C1.80501 51.3586 1.80426 50.8203 1.80192 50.2818C1.8006 49.8681 1.80172 49.4544 1.8036 49.0407C1.80424 48.8421 1.80418 48.6436 1.8034 48.445C1.80272 48.1675 1.80526 47.8903 1.80869 47.6128C1.80946 47.4549 1.81024 47.297 1.81103 47.1343C1.87537 46.7501 1.87537 46.7501 2.1061 46.5086C2.37537 46.3751 2.37537 46.3751 2.75037 46.3751C2.70912 46.2771 2.66787 46.1791 2.62537 46.0782C2.36689 45.1412 2.43115 44.3067 2.82508 43.4166C3.22363 42.7538 3.8677 42.1943 4.62537 42.0001C5.47089 41.8421 6.31369 41.8533 7.17173 41.8494C7.34057 41.8482 7.50942 41.8469 7.67826 41.8456C8.13455 41.8423 8.59083 41.8396 9.04712 41.8371C9.52475 41.8344 10.0024 41.831 10.48 41.8276C11.3835 41.8214 12.287 41.8158 13.1906 41.8104C14.2196 41.8042 15.2486 41.7973 16.2776 41.7904C18.3935 41.7762 20.5094 41.7629 22.6254 41.7501C20.9402 39.5407 20.9402 39.5407 18.5361 38.3635C17.609 38.2802 16.6925 38.3154 15.766 38.3817C15.2463 38.4156 14.7257 38.4285 14.2052 38.443C13.8005 38.4544 13.3975 38.4702 12.9934 38.4956C11.9279 38.5516 11.0669 38.4302 10.2001 37.772C9.59997 37.0436 9.30419 36.3774 9.20349 35.4376C9.30856 34.457 9.61562 33.6544 10.3754 33.0001C11.1238 32.5256 11.7787 32.3587 12.6625 32.3628C12.8131 32.3632 12.9638 32.3637 13.119 32.3641C13.2758 32.3651 13.4326 32.3662 13.5941 32.3672C13.8322 32.3681 13.8322 32.3681 14.0751 32.3689C14.4668 32.3704 14.8586 32.3725 15.2504 32.3751C15.2091 32.2926 15.1679 32.2101 15.1254 32.1251C15.0456 31.1995 15.0747 30.4037 15.6805 29.6513C16.2227 29.0352 16.7857 28.4458 17.3676 27.8672C17.4506 27.7837 17.5337 27.7001 17.6193 27.6141C18.0229 27.2112 18.4315 26.8214 18.8641 26.4498C19.4612 25.9345 20.01 25.3743 20.5629 24.8126C21.189 24.1764 21.8179 23.5588 22.4952 22.9773C22.9985 22.529 23.4653 22.0427 23.9379 21.5626C25.0571 20.4254 25.0571 20.4254 25.6351 19.9297C26.0811 19.5473 26.4863 19.1358 26.8926 18.7118C29.7002 15.7952 33.9369 14.77 37.4437 17.2227ZM28.6254 19.2501C27.2202 20.9687 26.8337 22.4852 26.851 24.6802C26.8514 24.8524 26.8518 25.0245 26.852 25.1967C26.853 25.6461 26.8554 26.0955 26.8582 26.5449C26.8608 27.005 26.8619 27.465 26.8632 27.9251C26.8658 28.8251 26.8701 29.7251 26.8754 30.6251C27.0729 30.5267 27.2704 30.4283 27.4679 30.3298C27.5779 30.275 27.6879 30.2202 27.8012 30.1638C28.2472 29.9385 28.6846 29.7024 29.1176 29.4532C29.1982 29.4097 29.2788 29.3662 29.3619 29.3213C29.4397 29.2762 29.5174 29.2311 29.5975 29.1846C29.6662 29.1461 29.7348 29.1075 29.8055 29.0677C30.3871 28.4926 30.533 27.4851 30.7357 26.7203C30.7682 26.6 30.8007 26.4798 30.8341 26.3559C30.937 25.9744 31.0391 25.5927 31.141 25.211C31.244 24.8271 31.3471 24.4432 31.4506 24.0594C31.5147 23.8212 31.5786 23.5829 31.6421 23.3445C31.6709 23.2372 31.6997 23.13 31.7294 23.0194C31.7547 22.9249 31.7799 22.8304 31.8059 22.733C31.8754 22.5001 31.8754 22.5001 32.0004 22.2501C32.4052 22.1331 32.6549 22.0908 33.0551 22.2344C33.3234 22.5994 33.2387 22.8648 33.1816 23.297C33.081 23.8838 32.9299 24.4553 32.7753 25.0298C32.7232 25.2254 32.7232 25.2254 32.6701 25.425C32.5969 25.6988 32.5232 25.9724 32.4491 26.2459C32.3362 26.6646 32.226 27.0838 32.1158 27.5032C32.0442 27.77 31.9723 28.0366 31.9003 28.3033C31.8677 28.4284 31.8351 28.5535 31.8016 28.6825C31.5907 29.4478 31.4061 29.8603 30.7273 30.3032C30.6286 30.3575 30.5298 30.4119 30.4281 30.4678C30.3153 30.5306 30.2026 30.5933 30.0864 30.658C29.9652 30.7245 29.844 30.7909 29.7191 30.8594C29.4602 31.0036 29.2014 31.148 28.9428 31.2925C28.7417 31.4047 28.7417 31.4047 28.5366 31.519C27.8593 31.8995 27.1873 32.2889 26.516 32.6797C26.3937 32.7505 26.2713 32.8213 26.1453 32.8943C25.5884 33.2189 25.0353 33.549 24.4916 33.8951C24.4026 33.9515 24.3136 34.0079 24.222 34.066C23.8313 34.3904 23.7578 34.6821 23.7035 35.1797C23.7586 35.7035 23.8767 35.8868 24.2504 36.2501C24.5625 36.4868 24.7214 36.5008 25.1156 36.4908C25.8331 36.3766 26.4364 35.9613 27.0551 35.6016C27.1917 35.5236 27.3283 35.4456 27.4691 35.3652C27.8972 35.1201 28.3239 34.8728 28.7504 34.6251C28.8838 34.5479 29.0172 34.4706 29.1547 34.3911C29.2844 34.316 29.4141 34.241 29.5477 34.1636C29.6751 34.09 29.8025 34.0163 29.9337 33.9405C30.1865 33.7927 30.4382 33.6428 30.6886 33.4911C31.2394 33.1586 31.7647 32.8555 32.371 32.6368C33.0564 32.3683 33.6479 32.1131 33.9754 31.4104C34.4269 30.2519 34.6801 29.0196 34.9166 27.8021C34.9776 27.4913 35.0485 27.1824 35.1254 26.8751C35.4966 26.8751 35.8679 26.8751 36.2504 26.8751C36.5319 27.4381 36.5319 27.4381 36.4208 27.9117C36.3956 28.0215 36.3704 28.1313 36.3444 28.2444C36.3134 28.37 36.2823 28.4956 36.2504 28.6251C36.2156 28.7711 36.1809 28.9172 36.1451 29.0677C36.0462 29.4752 35.944 29.8814 35.8386 30.2872C35.7952 30.456 35.7527 30.6251 35.711 30.7944C35.6499 31.0427 35.5859 31.2902 35.5214 31.5377C35.4843 31.6835 35.4473 31.8294 35.4092 31.9797C35.117 32.7071 34.5784 33.0607 33.913 33.4327C33.7736 33.5113 33.6342 33.59 33.4907 33.6711C33.3403 33.7547 33.1898 33.8383 33.0394 33.9219C32.8841 34.0093 32.7288 34.0969 32.5735 34.1845C32.2524 34.3658 31.931 34.5466 31.6094 34.7272C30.8461 35.1567 30.0873 35.5939 29.3285 36.0313C29.1935 36.1087 29.0585 36.1861 28.9195 36.2659C28.3079 36.618 27.7053 36.9725 27.1254 37.3751C27.2311 37.5014 27.3368 37.6277 27.4457 37.7579C27.5051 37.8289 27.5646 37.9 27.6259 37.9732C27.7494 38.1102 27.7494 38.1102 27.8754 38.2501C27.9193 38.3211 27.9631 38.3922 28.0083 38.4655C28.3609 38.9426 28.6388 39.1071 29.2303 39.2022C29.8553 39.2382 30.4798 39.2235 31.1053 39.2105C31.3367 39.2089 31.5681 39.2076 31.7994 39.2068C32.4063 39.2034 33.0131 39.1948 33.6199 39.1851C34.2399 39.1762 34.86 39.1722 35.4801 39.1678C36.6953 39.1584 37.9103 39.1435 39.1254 39.1251C39.1312 37.0974 39.1356 35.0698 39.1383 33.0421C39.1396 32.1005 39.1414 31.1589 39.1442 30.2173C39.1467 29.396 39.1483 28.5748 39.1489 27.7535C39.1492 27.3191 39.15 26.8848 39.1518 26.4505C39.1538 25.964 39.1539 25.4776 39.1538 24.9911C39.1551 24.7783 39.1551 24.7783 39.1565 24.5612C39.1511 22.4624 38.6749 20.7226 37.2191 19.1641C35.9571 17.966 34.3702 17.4527 32.6566 17.4737C31.1571 17.571 29.6942 18.1812 28.6254 19.2501ZM24.8475 23.0201C24.7289 23.1407 24.6106 23.2617 24.4926 23.3829C24.0995 23.7848 23.7048 24.1686 23.2782 24.5347C22.676 25.0557 22.1212 25.6203 21.5629 26.1876C20.4437 27.3247 20.4437 27.3247 19.8827 27.8062C19.2473 28.3518 18.6613 28.9459 18.0707 29.5391C17.957 29.6523 17.8433 29.7655 17.7262 29.8821C17.6183 29.9902 17.5104 30.0982 17.3993 30.2095C17.3016 30.3074 17.2039 30.4052 17.1032 30.5061C16.7911 30.8403 16.7536 30.9559 16.7191 31.4219C16.753 31.9127 16.775 32.0444 17.1254 32.3751C17.8422 32.5501 18.6849 32.6144 19.3538 32.2509C19.8862 31.8574 20.3153 31.3625 20.7504 30.8672C20.8828 30.7236 21.0158 30.5805 21.1493 30.4378C21.3433 30.23 21.5368 30.0219 21.7285 29.812C22.2802 29.2082 22.8565 28.6658 23.5145 28.1801C24.3343 27.5735 25.1295 26.9725 25.3407 25.9284C25.4245 24.8642 25.3622 23.8103 25.2504 22.7501C25.0757 22.7355 25.0757 22.7355 24.8475 23.0201ZM24.9296 28.938C24.8061 29.0654 24.8061 29.0654 24.6801 29.1954C24.3519 29.5282 24.0211 29.8465 23.6644 30.1485C22.9008 30.8035 22.2064 31.5344 21.5004 32.2501C21.686 32.3738 21.686 32.3738 21.8754 32.5001C21.9991 32.5877 22.1229 32.6754 22.2504 32.7657C22.6047 33.0332 22.6047 33.0332 23.0004 33.0001C23.2739 32.8481 23.5346 32.6924 23.7972 32.5235C23.9388 32.4341 24.0804 32.3448 24.222 32.2554C24.3551 32.1712 24.4882 32.0869 24.6254 32.0001C24.7356 31.9466 24.8457 31.8932 24.9593 31.8382C25.2791 31.6527 25.2791 31.6527 25.3213 31.3186C25.318 31.2001 25.3148 31.0816 25.3114 30.9595C25.3094 30.831 25.3074 30.7025 25.3053 30.5701C25.3001 30.4361 25.2948 30.3022 25.2894 30.1641C25.2866 30.0287 25.2838 29.8933 25.2809 29.7537C25.2735 29.419 25.2632 29.0846 25.2504 28.7501C25.0952 28.7356 25.0952 28.7356 24.9296 28.938ZM11.1488 34.6016C10.9552 34.9582 10.8916 35.2183 10.8754 35.6251C11.0476 36.1318 11.2765 36.4895 11.7345 36.7797C12.2967 36.9813 12.9073 36.88 13.4933 36.837C13.9319 36.8065 14.3711 36.79 14.8105 36.773C14.9481 36.7677 14.9481 36.7677 15.0885 36.7623C20.2134 36.575 20.2134 36.575 21.9097 38.0912C22.7157 38.8895 23.4013 39.7888 24.0004 40.7501C24.4474 40.5766 24.8369 40.3814 25.2426 40.1251C25.6935 39.8487 26.1098 39.6357 26.6254 39.5001C26.3544 38.9186 26.039 38.4847 25.5004 38.1251C25.0608 38.0041 24.6224 37.9278 24.1737 37.8482C23.4566 37.6819 22.9819 37.3606 22.5839 36.7408C22.3028 36.1717 22.1964 35.6634 22.2084 35.0298C22.0613 34.534 21.8177 34.2473 21.3754 34.0001C20.6859 33.8877 20.0019 33.9036 19.3051 33.9136C19.1005 33.9141 18.896 33.9142 18.6915 33.9141C18.2636 33.9147 17.8358 33.9178 17.408 33.9229C16.8607 33.9292 16.3136 33.9307 15.7663 33.9304C15.3442 33.9305 14.9221 33.9326 14.5 33.9353C14.2983 33.9365 14.0965 33.9372 13.8948 33.9375C13.6124 33.9383 13.3301 33.9416 13.0477 33.9456C12.8873 33.947 12.7269 33.9484 12.5617 33.9499C11.987 34.016 11.5599 34.1905 11.1488 34.6016ZM52.0004 38.7501C51.0588 39.9725 50.7318 41.0875 50.8754 42.6251C51.168 43.9035 51.8983 45.0232 53.0004 45.7501C54.4188 46.4362 55.6004 46.5414 57.1063 46.0406C58.2452 45.5622 59.0945 44.6585 59.6019 43.5391C60.075 42.2194 59.9607 41.0119 59.3754 39.7501C58.7282 38.5897 57.7762 37.8328 56.514 37.4234C54.8223 37.1132 53.2112 37.5119 52.0004 38.7501ZM24.6254 42.6251C24.5526 42.7534 24.4799 42.8817 24.405 43.0139C24.1612 43.303 24.0269 43.3698 23.6508 43.4439C23.1813 43.4701 22.7149 43.4718 22.2451 43.4657C22.0641 43.4661 21.8832 43.4669 21.7022 43.4679C21.3131 43.4695 20.9241 43.4687 20.5349 43.466C19.9192 43.4619 19.3036 43.4631 18.6879 43.465C17.7136 43.4673 16.7395 43.4662 15.7653 43.4635C14.0216 43.4588 12.278 43.4583 10.5344 43.4616C9.92276 43.4627 9.31119 43.4616 8.69957 43.4588C8.31849 43.4574 7.93741 43.4576 7.55633 43.4581C7.38012 43.458 7.20391 43.4572 7.02771 43.4558C5.77129 43.4318 5.77129 43.4318 4.62537 43.8751C4.29729 44.2536 4.1452 44.5061 4.06287 45.0001C4.14316 45.4818 4.31755 45.7488 4.62537 46.1251C5.0577 46.4144 5.43768 46.4059 5.94952 46.4051C6.03213 46.4053 6.11474 46.4055 6.19985 46.4058C6.47643 46.4062 6.75297 46.4048 7.02954 46.4034C7.22789 46.4034 7.42624 46.4034 7.62459 46.4035C8.16303 46.4036 8.70145 46.4021 9.23989 46.4004C9.8026 46.3988 10.3653 46.3987 10.928 46.3984C11.9936 46.3976 13.0591 46.3956 14.1247 46.3931C15.3378 46.3903 16.5509 46.3889 17.764 46.3876C20.2595 46.385 22.7549 46.3806 25.2504 46.3751C25.2478 46.2912 25.2453 46.2073 25.2427 46.1208C25.2407 46.0098 25.2387 45.8987 25.2367 45.7842C25.2342 45.6746 25.2316 45.5649 25.229 45.4519C25.2713 44.8047 25.5918 44.3258 25.9847 43.8282C26.5151 43.4226 27.0849 43.3438 27.7382 43.3433C27.8827 43.3426 28.0273 43.3419 28.1763 43.3412C28.3331 43.3417 28.49 43.3422 28.6516 43.3427C28.8198 43.3424 28.988 43.3419 29.1562 43.3414C29.6115 43.3402 30.0668 43.3407 30.5221 43.3415C30.9989 43.3421 31.4757 43.3415 31.9524 43.3411C32.7526 43.3407 33.5528 43.3413 34.3529 43.3425C35.2783 43.3438 36.2036 43.3434 37.129 43.342C37.9238 43.3409 38.7186 43.3407 39.5134 43.3414C39.988 43.3418 40.4626 43.3418 40.9372 43.341C41.383 43.3403 41.8287 43.3408 42.2745 43.3422C42.5165 43.3427 42.7584 43.3419 43.0003 43.3412C43.1438 43.3419 43.2873 43.3426 43.4352 43.3433C43.6226 43.3434 43.6226 43.3434 43.8139 43.3436C44.1254 43.3751 44.1254 43.3751 44.5004 43.6251C44.5472 44.0626 44.5472 44.0626 44.5004 44.5001C44.078 44.7816 43.9374 44.7813 43.443 44.7815C43.2303 44.7825 43.2303 44.7825 43.0134 44.7835C42.7799 44.7828 42.7799 44.7828 42.5417 44.782C42.2902 44.7827 42.0387 44.7834 41.7872 44.7841C41.5167 44.7846 41.2463 44.7846 40.9758 44.7844C40.4122 44.784 39.8487 44.7858 39.2851 44.788C37.6825 44.7939 36.0799 44.7968 34.4773 44.7977C33.5922 44.7981 32.7072 44.8004 31.8221 44.8045C31.2618 44.8071 30.7016 44.8074 30.1413 44.806C29.7109 44.8056 29.2806 44.8084 28.8503 44.8108C28.6948 44.8098 28.5394 44.8087 28.3793 44.8077C28.2372 44.8091 28.0951 44.8104 27.9486 44.8119C27.7634 44.8121 27.7634 44.8121 27.5744 44.8123C27.1572 44.8931 27.0051 45.0404 26.7504 45.3751C26.7393 45.7668 26.7393 45.7668 26.8754 46.1251C27.3336 46.4306 27.5511 46.4059 28.0975 46.4051C28.2273 46.4054 28.2273 46.4054 28.3598 46.4058C28.6506 46.4062 28.9414 46.4048 29.2321 46.4034C29.4403 46.4034 29.6485 46.4034 29.8567 46.4035C30.4225 46.4036 30.9883 46.4021 31.5541 46.4004C32.1452 46.3988 32.7363 46.3987 33.3274 46.3984C34.4469 46.3976 35.5665 46.3956 36.6861 46.3931C37.9606 46.3903 39.235 46.3889 40.5095 46.3876C43.1315 46.385 45.7534 46.3806 48.3754 46.3751C48.3382 46.1558 48.3002 45.9367 48.2619 45.7177C48.2409 45.5956 48.2198 45.4736 48.1981 45.3479C47.8914 43.8814 46.9423 42.6066 45.7191 41.7813C44.6891 41.1599 43.5782 40.7377 42.3667 40.7317C42.242 40.7308 42.1172 40.7299 41.9887 40.7289C41.8533 40.7286 41.7178 40.7283 41.5783 40.7279C41.4345 40.7271 41.2907 40.7263 41.1425 40.7254C40.6668 40.723 40.191 40.7215 39.7152 40.7203C39.5523 40.7198 39.3894 40.7192 39.2216 40.7187C38.4479 40.7163 37.6741 40.7146 36.9004 40.7135C36.0111 40.7123 35.1218 40.709 34.2325 40.704C33.5428 40.7002 32.8531 40.6983 32.1633 40.6979C31.7525 40.6976 31.3418 40.6963 30.931 40.6934C30.4713 40.6903 30.0116 40.6904 29.5519 40.6913C29.3517 40.6889 29.3517 40.6889 29.1475 40.6865C27.3712 40.6985 25.8218 41.2957 24.6254 42.6251ZM49.5004 43.8751C49.6254 44.2501 49.6254 44.2501 49.6254 44.2501L49.5004 43.8751ZM49.6254 44.2501C49.664 44.534 49.7032 44.8178 49.7426 45.1016C49.7643 45.2597 49.7861 45.4178 49.8085 45.5806C49.8634 45.998 49.8634 45.998 50.0004 46.3751C50.3716 46.3751 50.7429 46.3751 51.1254 46.3751C51.0145 46.2333 50.9037 46.0915 50.7894 45.9454C50.3853 45.4088 50.0613 44.8444 49.7504 44.2501C49.7091 44.2501 49.6679 44.2501 49.6254 44.2501ZM3.37537 48.0001C3.37537 50.1451 3.37537 52.2901 3.37537 54.5001C22.2679 54.5001 41.1604 54.5001 60.6254 54.5001C60.6254 52.3551 60.6254 50.2101 60.6254 48.0001C41.7329 48.0001 22.8404 48.0001 3.37537 48.0001ZM7.12537 56.1251C6.91736 58.2133 6.91736 58.2133 7.62537 59.1251C8.10318 59.5028 8.46573 59.5471 9.067 59.5476C9.1477 59.5482 9.22839 59.5488 9.31153 59.5494C9.5823 59.5509 9.85299 59.5497 10.1238 59.5485C10.3197 59.549 10.5156 59.5497 10.7116 59.5506C11.2503 59.5524 11.789 59.5518 12.3277 59.5509C12.9086 59.5503 13.4894 59.5519 14.0703 59.5532C15.2084 59.5553 16.3465 59.5554 17.4846 59.5548C18.4094 59.5543 19.3343 59.5544 20.2591 59.5551C20.3906 59.5552 20.5222 59.5553 20.6577 59.5554C20.9249 59.5556 21.192 59.5558 21.4592 59.556C23.9659 59.5577 26.4726 59.557 28.9793 59.5556C31.2736 59.5543 33.5678 59.5559 35.8621 59.5589C38.2168 59.562 40.5715 59.5632 42.9262 59.5623C44.2486 59.5619 45.571 59.5622 46.8934 59.5644C48.0191 59.5662 49.1448 59.5663 50.2705 59.5641C50.845 59.5631 51.4195 59.5628 51.994 59.5647C52.5198 59.5664 53.0456 59.5658 53.5713 59.5634C53.7617 59.563 53.9521 59.5633 54.1424 59.5646C54.401 59.5663 54.6594 59.5648 54.918 59.5626C55.0617 59.5626 55.2053 59.5626 55.3534 59.5626C55.8508 59.4842 56.1131 59.3189 56.5004 59.0001C57.0683 58.175 57.0683 58.175 56.8754 56.1251C40.4579 56.1251 24.0404 56.1251 7.12537 56.1251Z" fill="url(#paint0_linear_1233_2975)"/>
<path d="M35.3227 3.70554C36.5962 4.64112 37.3821 5.83332 37.75 7.37497C37.901 9.16406 37.6441 10.6858 36.5 12.125C36.4103 12.2403 36.4103 12.2403 36.3188 12.3579C35.3354 13.4751 33.8938 13.9785 32.4512 14.1147C30.8835 14.1503 29.4605 13.6493 28.3047 12.5781C28.2041 12.4698 28.1036 12.3615 28 12.25C27.8969 12.1391 27.7937 12.0282 27.6875 11.914C26.644 10.6237 26.403 9.17055 26.5586 7.55319C26.8032 5.97594 27.6241 4.87324 28.8159 3.84909C30.7137 2.47296 33.3663 2.45943 35.3227 3.70554ZM30.125 4.99997C30.0472 5.0438 29.9693 5.08763 29.8892 5.13278C29.0741 5.64195 28.5578 6.47735 28.25 7.37497C28.0138 8.63067 28.1708 9.63021 28.8359 10.7187C29.5657 11.7385 30.5604 12.2754 31.7812 12.4843C32.8347 12.5699 33.8521 12.2635 34.6572 11.582C34.765 11.4795 34.765 11.4795 34.875 11.375C34.9443 11.3092 35.0136 11.2435 35.085 11.1757C35.8271 10.3929 36.1497 9.50941 36.1875 8.43747C36.1457 7.28939 35.7775 6.42944 34.9912 5.59421C34.0064 4.69909 33.033 4.42658 31.7168 4.46042C31.0942 4.51317 30.6518 4.6738 30.125 4.99997Z" fill="url(#paint1_linear_1233_2975)"/>
<defs>
<linearGradient id="paint0_linear_1233_2975" x1="94.7435" y1="30.8208" x2="-6.33499" y2="37.8525" gradientUnits="userSpaceOnUse">
<stop stop-color="#00ADEF"/>
<stop offset="1" stop-color="#D60F8C"/>
</linearGradient>
<linearGradient id="paint1_linear_1233_2975" x1="43.8607" y1="6.53092" x2="24.9586" y2="7.51399" gradientUnits="userSpaceOnUse">
<stop stop-color="#00ADEF"/>
<stop offset="1" stop-color="#D60F8C"/>
</linearGradient>
</defs>
</svg>
