<svg width="120" height="120" viewBox="0 0 120 120" fill="none" xmlns="http://www.w3.org/2000/svg">
<circle cx="60" cy="60" r="60" fill="url(#paint0_linear_270_1970)"/>
<circle cx="60" cy="60" r="52" fill="white"/>
<g clip-path="url(#clip0_270_1970)">
<path d="M36 60C36 73.234 46.766 84 60 84C73.234 84 84 73.234 84 60C84 46.766 73.234 36 60 36C46.766 36 36 46.766 36 60ZM46 53.78C46 52.128 46.596 50.472 47.856 49.214L51.07 46L57.398 52.328L53.256 56.47C55.314 61.592 58.8 64.938 63.53 66.744L67.672 62.602L74 68.93L70.786 72.144C69.528 73.404 67.872 74 66.22 74C57.74 74 46 62.912 46 53.78Z" fill="url(#paint1_linear_270_1970)"/>
</g>
<defs>
<linearGradient id="paint0_linear_270_1970" x1="1.38891e-07" y1="11.4286" x2="126.259" y2="22.8259" gradientUnits="userSpaceOnUse">
<stop stop-color="#FBFDFF"/>
<stop offset="1" stop-color="#E9F6FF"/>
</linearGradient>
<linearGradient id="paint1_linear_270_1970" x1="109.85" y1="51.8447" x2="29.3732" y2="56.0486" gradientUnits="userSpaceOnUse">
<stop stop-color="#00ADEF"/>
<stop offset="1" stop-color="#D60F8C"/>
</linearGradient>
<clipPath id="clip0_270_1970">
<rect width="48" height="48" fill="white" transform="translate(36 36)"/>
</clipPath>
</defs>
</svg>
