<svg width="23" height="23" viewBox="0 0 23 23" fill="none" xmlns="http://www.w3.org/2000/svg">
<path d="M7.19398 1.96501C7.10731 1.97946 7.02786 2.01196 6.95563 2.06252C6.8834 2.11308 6.82562 2.17447 6.78228 2.2467C6.75339 2.30449 6.73533 2.3731 6.72811 2.45255C6.72088 2.53201 6.71005 2.66563 6.6956 2.85342L6.67393 3.3518L6.45725 3.37347C5.44605 3.48904 4.58652 3.81768 3.87868 4.35939C3.17084 4.90111 2.67246 5.61979 2.38355 6.51542C2.31132 6.73211 2.25353 6.9813 2.2102 7.26299C2.16686 7.54468 2.13075 7.84443 2.10185 8.16224C2.08741 8.35003 2.08018 8.8773 2.08018 9.74405C2.08018 10.6252 2.08018 11.5678 2.08018 12.5718C2.08018 13.5758 2.08018 14.5111 2.08018 15.3779C2.08018 16.2591 2.08741 16.7936 2.10185 16.9814C2.14519 17.5736 2.23909 18.0973 2.38355 18.5523C2.528 19.0074 2.73024 19.4372 2.99027 19.8416C3.27918 20.2461 3.62588 20.5928 4.03036 20.8817C4.43484 21.1706 4.89711 21.3873 5.41715 21.5318C5.86497 21.6618 6.37419 21.7412 6.94479 21.7701C7.5154 21.799 8.89858 21.8135 11.0943 21.8135C12.9001 21.8135 14.1135 21.8063 14.7347 21.7918C15.3558 21.7774 15.8181 21.7412 16.1215 21.6835C16.8004 21.5679 17.3999 21.3548 17.92 21.0442C18.44 20.7337 18.8662 20.3328 19.1984 19.8416C19.4584 19.4372 19.6607 19.0074 19.8051 18.5523C19.9496 18.0973 20.0435 17.5736 20.0868 16.9814C20.1013 16.7936 20.1085 16.2591 20.1085 15.3779C20.1085 14.5111 20.1085 13.5722 20.1085 12.561C20.1085 11.5498 20.1085 10.6108 20.1085 9.74405C20.1085 8.86286 20.1013 8.32836 20.0868 8.14057C20.029 7.40384 19.8954 6.76461 19.6859 6.2229C19.4765 5.68118 19.1695 5.19364 18.765 4.76026C18.4039 4.38467 17.9597 4.0777 17.4324 3.83935C16.9051 3.60099 16.3381 3.4457 15.7314 3.37347L15.5147 3.3518L15.4931 2.85342C15.4786 2.5934 15.457 2.41283 15.4281 2.31171C15.3992 2.21059 15.3342 2.12391 15.233 2.05169C15.1319 1.97946 14.9875 1.94334 14.7997 1.94334C14.6119 1.94334 14.4602 1.97946 14.3446 2.05169C14.258 2.12391 14.1966 2.21059 14.1604 2.31171C14.1243 2.41283 14.1063 2.5934 14.1063 2.85342L14.0846 3.33013H8.10406V2.96177C8.10406 2.67285 8.0824 2.46339 8.03906 2.33338C7.99572 2.20337 7.90905 2.10225 7.77904 2.03002C7.70681 1.98668 7.61652 1.95779 7.50818 1.94334C7.39983 1.9289 7.2951 1.93612 7.19398 1.96501ZM14.1063 5.17197C14.1063 5.35976 14.1135 5.49339 14.1279 5.57284C14.1424 5.65229 14.1641 5.71368 14.193 5.75702C14.2363 5.84369 14.2941 5.91231 14.3663 5.96287C14.4385 6.01343 14.5252 6.04594 14.6263 6.06038C14.7274 6.08927 14.8358 6.09288 14.9514 6.07122C15.0669 6.04955 15.1608 6.00982 15.233 5.95204C15.3342 5.87981 15.3992 5.79675 15.4281 5.70285C15.457 5.60895 15.4786 5.43921 15.4931 5.19364L15.5147 4.73859L15.6664 4.76026C16.5332 4.87583 17.2157 5.17919 17.7141 5.67035C18.2125 6.1615 18.5267 6.84045 18.6567 7.7072C18.6711 7.80832 18.6856 7.91666 18.7 8.03223C18.7145 8.14779 18.7217 8.23447 18.7217 8.29225V8.50894H3.46698V8.29225C3.46698 8.13335 3.48865 7.92027 3.53198 7.65303C3.57532 7.38578 3.62588 7.1727 3.68366 7.0138C3.82812 6.53709 4.05564 6.129 4.36623 5.78952C4.67681 5.45005 5.04879 5.19364 5.48216 5.02029C5.62662 4.9625 5.79997 4.90833 6.00221 4.85777C6.20445 4.80721 6.3778 4.77471 6.52225 4.76026L6.67393 4.73859L6.6956 5.19364C6.71005 5.43921 6.73172 5.60895 6.76061 5.70285C6.7895 5.79675 6.85451 5.87981 6.95563 5.95204C7.05675 6.03871 7.2012 6.08205 7.389 6.08205C7.57679 6.08205 7.72848 6.03871 7.84404 5.95204C7.93072 5.87981 7.99211 5.79675 8.02822 5.70285C8.06434 5.60895 8.0824 5.43199 8.0824 5.17197L8.10406 4.69526H14.0846L14.1063 5.17197ZM18.7 13.6227V17.3931L18.5917 17.7831C18.505 18.1587 18.3931 18.4729 18.2558 18.7257C18.1186 18.9785 17.9416 19.2132 17.7249 19.4299C17.5083 19.6466 17.2699 19.8236 17.0099 19.9608C16.7498 20.098 16.4393 20.21 16.0781 20.2967L15.6664 20.3833H6.52225L6.11055 20.2967C5.40271 20.1233 4.85016 19.838 4.4529 19.4408C4.05564 19.0435 3.77034 18.491 3.59699 17.7831L3.48865 17.3931V13.6227L3.46698 9.87406H18.7217L18.7 13.6227ZM7.25899 12.5826C7.15787 12.6115 7.06397 12.6729 6.9773 12.7668C6.89062 12.8607 6.83284 12.9582 6.80395 13.0593C6.7895 13.1171 6.77867 13.1785 6.77144 13.2435C6.76422 13.3085 6.76061 13.3772 6.76061 13.4494C6.76061 13.5072 6.76422 13.5722 6.77144 13.6444C6.77867 13.7166 6.7895 13.7816 6.80395 13.8394V13.8178C6.83284 13.9189 6.89423 14.0164 6.98813 14.1103C7.08203 14.2042 7.17954 14.2656 7.28066 14.2945C7.36733 14.3234 7.49734 14.3378 7.67069 14.3378C7.84404 14.3378 7.98128 14.3234 8.0824 14.2945C8.18352 14.2656 8.2738 14.2114 8.35325 14.1319C8.43271 14.0525 8.4941 13.955 8.53744 13.8394C8.56633 13.7383 8.58077 13.6047 8.58077 13.4385C8.58077 13.2724 8.56633 13.1388 8.53744 13.0377C8.4941 12.9366 8.43271 12.8463 8.35325 12.7668C8.2738 12.6874 8.18352 12.626 8.0824 12.5826C7.98128 12.5537 7.84043 12.5393 7.65986 12.5393C7.47929 12.5393 7.34566 12.5537 7.25899 12.5826ZM10.6826 12.5826C10.4659 12.6549 10.3143 12.8102 10.2276 13.0485C10.1409 13.2869 10.1409 13.5433 10.2276 13.8178C10.2565 13.9333 10.3179 14.0344 10.4118 14.1211C10.5057 14.2078 10.6032 14.2728 10.7043 14.3161C10.8054 14.3306 10.9354 14.3378 11.0943 14.3378C11.2532 14.3378 11.3833 14.3306 11.4844 14.3161C11.6433 14.2583 11.7733 14.1536 11.8744 14.0019C11.9755 13.8503 12.0261 13.6661 12.0261 13.4494C12.0261 13.2183 11.9755 13.0268 11.8744 12.8752C11.7733 12.7235 11.6433 12.626 11.4844 12.5826C11.3833 12.5537 11.246 12.5393 11.0727 12.5393C10.8993 12.5393 10.7693 12.5537 10.6826 12.5826ZM14.0846 12.5826C13.9979 12.6115 13.9076 12.6729 13.8137 12.7668C13.7199 12.8607 13.6657 12.9582 13.6512 13.0593C13.6368 13.1171 13.626 13.1749 13.6187 13.2327C13.6115 13.2905 13.6079 13.3483 13.6079 13.406C13.6079 13.4349 13.6079 13.4602 13.6079 13.4819C13.6079 13.5036 13.6079 13.5216 13.6079 13.5361C13.6223 13.6805 13.6368 13.7816 13.6512 13.8394C13.6657 13.8972 13.6946 13.955 13.7379 14.0128C13.8101 14.1283 13.9004 14.2114 14.0088 14.262C14.1171 14.3125 14.258 14.3378 14.4313 14.3378C14.6191 14.3522 14.7708 14.3414 14.8863 14.3053C15.0019 14.2692 15.103 14.2078 15.1897 14.1211C15.2764 14.0489 15.3378 13.9586 15.3739 13.8503C15.41 13.7419 15.4281 13.6083 15.4281 13.4494C15.4281 13.4349 15.4281 13.4277 15.4281 13.4277C15.4281 13.3555 15.4245 13.2869 15.4172 13.2219C15.41 13.1569 15.3919 13.0882 15.3631 13.016L15.3847 13.0377C15.3414 12.9366 15.28 12.8463 15.2005 12.7668C15.1211 12.6874 15.0308 12.626 14.9297 12.5826H14.908C14.8213 12.5537 14.6841 12.5393 14.4963 12.5393C14.3085 12.5393 14.1713 12.5537 14.0846 12.5826ZM7.25899 15.3562C7.15787 15.3851 7.06397 15.4465 6.9773 15.5404C6.89062 15.6343 6.83284 15.7318 6.80395 15.8329C6.7895 15.8907 6.77867 15.9521 6.77144 16.0171C6.76422 16.0821 6.76061 16.1507 6.76061 16.223C6.76061 16.2808 6.76422 16.3458 6.77144 16.418C6.77867 16.4902 6.7895 16.5552 6.80395 16.613V16.5913C6.83284 16.6925 6.89423 16.79 6.98813 16.8839C7.08203 16.9778 7.17954 17.0392 7.28066 17.068C7.36733 17.0969 7.49734 17.1114 7.67069 17.1114C7.84404 17.1114 7.98128 17.0969 8.0824 17.068C8.18352 17.0392 8.2738 16.985 8.35325 16.9055C8.43271 16.8261 8.4941 16.7286 8.53744 16.613C8.56633 16.5119 8.58077 16.3783 8.58077 16.2121C8.58077 16.046 8.56633 15.9124 8.53744 15.8113C8.4941 15.7101 8.43271 15.6199 8.35325 15.5404C8.2738 15.461 8.18352 15.3996 8.0824 15.3562C7.98128 15.3273 7.84043 15.3129 7.65986 15.3129C7.47929 15.3129 7.34566 15.3273 7.25899 15.3562ZM10.6826 15.3562C10.4659 15.4285 10.3143 15.5837 10.2276 15.8221C10.1409 16.0605 10.1409 16.3169 10.2276 16.5913C10.2565 16.7069 10.3179 16.808 10.4118 16.8947C10.5057 16.9814 10.6032 17.0464 10.7043 17.0897C10.8054 17.1042 10.9354 17.1114 11.0943 17.1114C11.2532 17.1114 11.3833 17.1042 11.4844 17.0897C11.6433 17.0319 11.7733 16.9272 11.8744 16.7755C11.9755 16.6238 12.0261 16.4397 12.0261 16.223C12.0261 15.9918 11.9755 15.8004 11.8744 15.6488C11.7733 15.4971 11.6433 15.3996 11.4844 15.3562C11.3833 15.3273 11.246 15.3129 11.0727 15.3129C10.8993 15.3129 10.7693 15.3273 10.6826 15.3562ZM14.0846 15.3562C13.9979 15.3851 13.9076 15.4465 13.8137 15.5404C13.7199 15.6343 13.6657 15.7318 13.6512 15.8329C13.6368 15.8907 13.626 15.9485 13.6187 16.0063C13.6115 16.0641 13.6079 16.1218 13.6079 16.1796C13.6079 16.2085 13.6079 16.2338 13.6079 16.2555C13.6079 16.2771 13.6079 16.2952 13.6079 16.3096C13.6223 16.4541 13.6368 16.5552 13.6512 16.613C13.6657 16.6708 13.6946 16.7286 13.7379 16.7864C13.8101 16.9019 13.9004 16.985 14.0088 17.0355C14.1171 17.0861 14.258 17.1114 14.4313 17.1114C14.6191 17.1258 14.7708 17.115 14.8863 17.0789C15.0019 17.0428 15.103 16.9814 15.1897 16.8947C15.2764 16.8225 15.3378 16.7322 15.3739 16.6238C15.41 16.5155 15.4281 16.3819 15.4281 16.223C15.4281 16.2085 15.4281 16.2013 15.4281 16.2013C15.4281 16.1291 15.4245 16.0605 15.4172 15.9954C15.41 15.9304 15.3919 15.8618 15.3631 15.7896L15.3847 15.8113C15.3414 15.7101 15.28 15.6199 15.2005 15.5404C15.1211 15.461 15.0308 15.3996 14.9297 15.3562H14.908C14.8213 15.3273 14.6841 15.3129 14.4963 15.3129C14.3085 15.3129 14.1713 15.3273 14.0846 15.3562Z" fill="url(#paint0_linear_6_151)"/>
<defs>
<linearGradient id="paint0_linear_6_151" x1="29.8175" y1="15.252" x2="-0.423362" y2="13.8193" gradientUnits="userSpaceOnUse">
<stop stop-color="#00ADEF"/>
<stop offset="1" stop-color="#D60F8C"/>
</linearGradient>
</defs>
</svg>
