<svg width="24" height="24" viewBox="0 0 24 24" fill="none" xmlns="http://www.w3.org/2000/svg">
<path d="M23.954 5.54297L15.536 13.961C14.5974 14.8972 13.3257 15.423 12 15.423C10.6743 15.423 9.40263 14.8972 8.464 13.961L0.046 5.54297C0.032 5.70097 0 5.84397 0 6.00097V18.001C0.00158786 19.3266 0.528882 20.5974 1.46622 21.5347C2.40356 22.4721 3.67441 22.9994 5 23.001H19C20.3256 22.9994 21.5964 22.4721 22.5338 21.5347C23.4711 20.5974 23.9984 19.3266 24 18.001V6.00097C24 5.84397 23.968 5.70097 23.954 5.54297Z" fill="url(#paint0_linear_141_16513)"/>
<path d="M14.1219 12.546L23.2559 3.411C22.8134 2.67732 22.1893 2.07004 21.4439 1.64773C20.6984 1.22542 19.8567 1.00234 18.9999 1H4.9999C4.14312 1.00234 3.3014 1.22542 2.55592 1.64773C1.81045 2.07004 1.18637 2.67732 0.743896 3.411L9.8779 12.546C10.4415 13.1073 11.2045 13.4225 11.9999 13.4225C12.7953 13.4225 13.5583 13.1073 14.1219 12.546Z" fill="url(#paint1_linear_141_16513)"/>
<defs>
<linearGradient id="paint0_linear_141_16513" x1="36.925" y1="11.3058" x2="-3.21618" y2="14.1884" gradientUnits="userSpaceOnUse">
<stop stop-color="#00ADEF"/>
<stop offset="1" stop-color="#D60F8C"/>
</linearGradient>
<linearGradient id="paint1_linear_141_16513" x1="35.3795" y1="5.10063" x2="-2.13091" y2="8.65154" gradientUnits="userSpaceOnUse">
<stop stop-color="#00ADEF"/>
<stop offset="1" stop-color="#D60F8C"/>
</linearGradient>
</defs>
</svg>
