<svg width="132" height="132" viewBox="0 0 132 132" fill="none" xmlns="http://www.w3.org/2000/svg">
<circle cx="66" cy="66" r="66" fill="url(#paint0_linear_270_3753)"/>
<circle cx="66" cy="66" r="57.75" fill="white"/>
<g clip-path="url(#clip0_270_3753)">
<path d="M32.8114 42.4823C32.9206 42.4944 33.0298 42.5065 33.1423 42.5189C33.5007 42.5589 33.8589 42.6005 34.2171 42.6424C34.4 42.6634 34.4 42.6634 34.5867 42.6849C35.3397 42.7715 36.0924 42.8605 36.8449 42.9511C37.1894 42.9926 37.5339 43.0334 37.8785 43.0742C38.4802 43.1458 39.0813 43.2221 39.6824 43.2994C39.8614 43.3209 40.0403 43.3424 40.2247 43.3646C41.7851 43.5738 42.9166 44.025 43.9099 45.2798C44.7448 46.4497 44.6032 47.8711 44.5193 49.2408C44.469 49.4921 44.4188 49.7435 44.367 50.0025C45.8249 50.103 47.2828 50.2036 48.7849 50.3072C48.8855 50.0558 48.986 49.8044 49.0896 49.5455C49.3376 49.0092 49.6037 48.4826 49.8704 47.9554C49.9387 47.8139 50.0071 47.6724 50.0775 47.5266C50.552 46.5954 51.0502 45.9338 51.9841 45.4322C53.2555 45.0508 54.4453 45.3187 55.6731 45.7172C55.9659 45.8057 56.2588 45.8939 56.5518 45.9817C57.0068 46.1204 57.4608 46.2611 57.9135 46.4073C59.625 47.0303 59.625 47.0303 61.3766 46.9337C61.7922 46.665 62.1304 46.373 62.4959 46.0415C63.123 45.7153 63.766 45.6546 64.4603 45.5899C64.5779 45.578 64.6955 45.5661 64.8167 45.5539C65.2014 45.5154 65.5863 45.4785 65.9712 45.4417C66.2389 45.4154 66.5067 45.3891 66.7744 45.3627C67.3193 45.3092 67.8643 45.2564 68.4093 45.204C69.133 45.1343 69.8563 45.0608 70.5796 44.9865C71.7434 44.8677 72.9079 44.7643 74.074 44.6705C74.2174 44.6577 74.3608 44.645 74.5086 44.6318C76.1958 44.4928 77.4186 44.8052 78.8705 45.6654C79.3314 45.9346 79.7988 46.1907 80.2671 46.4468C80.981 46.8379 81.6937 47.2308 82.4041 47.6281C82.5678 47.7192 82.7316 47.8104 82.9003 47.9043C83.1992 48.0773 83.4937 48.2582 83.7818 48.4486C84.6603 49.0287 85.236 49.2101 86.2805 49.0694C86.3972 49.058 86.5138 49.0466 86.634 49.0349C86.9166 49.0066 87.1985 48.972 87.4802 48.9361C87.4732 48.787 87.4661 48.638 87.4588 48.4844C87.4168 46.958 87.5181 45.8584 88.5847 44.699C89.7958 43.4849 91.3953 43.408 93.0027 43.2137C93.254 43.1819 93.5054 43.1501 93.7567 43.1182C94.264 43.0542 94.7715 42.9919 95.2792 42.9309C95.8521 42.8621 96.4244 42.7897 96.9967 42.7157C97.4804 42.6537 97.9647 42.5958 98.449 42.5376C98.7115 42.5036 98.7115 42.5036 98.9794 42.4689C99.2211 42.4416 99.2211 42.4416 99.4678 42.4139C99.6066 42.3972 99.7455 42.3805 99.8885 42.3633C100.386 42.3915 100.641 42.5478 101.039 42.8423C101.397 43.3802 101.445 43.8381 101.519 44.463C101.534 44.5827 101.549 44.7024 101.565 44.8257C101.616 45.2279 101.665 45.6304 101.714 46.0328C101.75 46.3209 101.786 46.6089 101.822 46.8969C101.92 47.6806 102.017 48.4645 102.113 49.2484C102.214 50.0694 102.316 50.8903 102.418 51.7111C102.589 53.0914 102.759 54.4717 102.929 55.8522C103.124 57.4449 103.322 59.0373 103.52 60.6297C103.69 61.9981 103.86 63.3665 104.029 64.7351C104.129 65.5519 104.23 66.3686 104.332 67.1852C104.428 67.9546 104.523 68.7241 104.616 69.4937C104.651 69.775 104.686 70.0562 104.721 70.3373C105.182 74.0102 105.182 74.0102 105 74.8345C104.452 75.3718 104.049 75.5311 103.292 75.6206C103.107 75.6439 102.922 75.6671 102.732 75.691C102.534 75.7131 102.337 75.7353 102.134 75.7581C101.928 75.7828 101.723 75.8078 101.517 75.8329C101.101 75.8837 100.684 75.9331 100.267 75.9816C99.7217 76.0468 99.1776 76.1181 98.6335 76.1931C93.6592 76.8736 93.6592 76.8736 92.1517 75.7998C91.0892 74.9367 90.5893 74.0885 90.4367 72.7344C90.4153 72.5205 90.3944 72.3065 90.3748 72.0923C89.6764 72.1046 88.9783 72.1218 88.28 72.1399C88.0817 72.1434 87.8834 72.1468 87.679 72.1504C87.4885 72.1558 87.298 72.1612 87.1018 72.1667C86.9262 72.1707 86.7507 72.1747 86.5699 72.1788C86.0758 72.2494 85.8621 72.3677 85.4998 72.7017C85.6952 73.2879 85.9663 73.4398 86.4519 73.8157C88.1515 75.1732 88.1515 75.1732 88.2836 76.236C88.3249 77.2487 88.145 77.8732 87.4802 78.6431C86.5642 79.5628 85.9241 80.0576 84.5952 80.0618C84.4116 80.0644 84.228 80.0669 84.0388 80.0695C83.4835 80.0104 83.2212 79.8499 82.7576 79.5572C82.1765 79.7509 82.0274 80.01 81.6531 80.4903C79.9815 82.573 79.9815 82.573 78.7966 82.9087C77.6937 83.0277 76.7703 82.875 75.7498 82.4517C75.6649 82.5585 75.5801 82.6654 75.4927 82.7754C73.1734 85.6589 73.1734 85.6589 71.7418 85.8503C70.7344 85.9021 69.9481 85.6235 69.0466 85.1939C69.0099 85.2789 68.9732 85.364 68.9354 85.4516C68.542 86.1668 67.9238 86.7322 67.3709 87.3267C67.242 87.4712 67.1132 87.6158 66.9805 87.7647C66.1426 88.4951 65.5125 88.7321 64.3906 88.6883C63.5623 88.6578 63.2214 88.7449 62.6077 89.278C61.9916 89.7013 61.204 89.6719 60.4892 89.5601C59.6015 89.2969 59.0534 88.6815 58.5349 87.9361C58.3681 87.4356 58.3674 87.0621 58.3731 86.5364C58.3744 86.3709 58.3758 86.2053 58.3772 86.0348C58.3799 85.8448 58.3799 85.8448 58.3826 85.6509C58.2632 85.7263 58.1438 85.8017 58.0208 85.8794C57.208 86.2158 56.4524 86.2562 55.6029 86.008C54.8266 85.6675 54.3653 85.1734 53.9646 84.4322C53.8047 83.9524 53.7968 83.6113 53.8027 83.1087C53.8041 82.9573 53.8055 82.8059 53.8069 82.6499C53.8087 82.5342 53.8104 82.4185 53.8123 82.2994C53.7274 82.3341 53.6426 82.3689 53.5552 82.4047C52.5991 82.7649 51.9181 82.8716 50.9362 82.494C50.2252 82.1393 49.7655 81.6276 49.3943 80.9283C49.1707 80.2141 49.1573 79.5064 49.3943 78.7955C49.2466 78.8709 49.0989 78.9463 48.9468 79.024C48.1731 79.35 47.4302 79.4029 46.6253 79.1472C45.8147 78.7823 45.2256 78.2825 44.852 77.4529C44.5685 76.5686 44.7154 75.8676 44.9763 74.9869C45.278 74.5344 45.5796 74.0819 45.8904 73.6158C44.4325 73.5655 42.9745 73.5152 41.4724 73.4634C41.2713 73.9159 41.0702 74.3683 40.863 74.8345C40.1817 75.6618 39.335 76.3108 38.2732 76.5103C36.3989 76.6419 34.5405 76.3727 32.6849 76.1365C32.1764 76.0719 31.6677 76.0098 31.1589 75.9479C30.8325 75.9074 30.5062 75.8668 30.1799 75.8259C30.0293 75.8075 29.8787 75.7891 29.7235 75.7701C27.7651 75.518 27.7651 75.518 27.2027 75.1049C26.387 74.0182 27.1631 71.2391 27.3257 69.9283C27.3609 69.6381 27.3959 69.3478 27.4308 69.0576C27.5254 68.275 27.6215 67.4927 27.718 66.7104C27.7783 66.2212 27.8382 65.7319 27.8981 65.2426C28.107 63.5347 28.3171 61.827 28.5284 60.1194C28.7252 58.5286 28.9192 56.9376 29.112 55.3463C29.2779 53.9779 29.4457 52.6097 29.615 51.2417C29.716 50.4255 29.8162 49.6093 29.9145 48.7928C30.0068 48.0262 30.1015 47.26 30.1981 46.494C30.2331 46.2128 30.2672 45.9316 30.3005 45.6503C30.3459 45.2664 30.3945 44.8831 30.4439 44.4996C30.4626 44.3325 30.4626 44.3325 30.4817 44.162C30.5768 43.4579 30.758 43.0377 31.2654 42.5376C31.8344 42.348 32.2148 42.4151 32.8114 42.4823Z" fill="#F19F5C"/>
<path d="M32.8114 42.4828C32.9206 42.4948 33.0298 42.5069 33.1423 42.5194C33.5007 42.5594 33.8589 42.601 34.2171 42.6428C34.4 42.6639 34.4 42.6639 34.5867 42.6854C35.3397 42.772 36.0924 42.861 36.8449 42.9516C37.1894 42.993 37.5339 43.0339 37.8785 43.0747C38.4802 43.1463 39.0813 43.2226 39.6824 43.2998C39.8614 43.3214 40.0403 43.3429 40.2247 43.3651C41.7851 43.5743 42.9166 44.0255 43.9099 45.2803C44.7448 46.4501 44.6032 47.8715 44.5193 49.2412C44.469 49.4926 44.4188 49.744 44.367 50.003C45.8249 50.1035 47.2828 50.204 48.7849 50.3076C48.8855 50.0563 48.986 49.8049 49.0896 49.5459C49.3376 49.0096 49.6037 48.483 49.8704 47.9558C49.9387 47.8143 50.0071 47.6729 50.0775 47.5271C50.552 46.5959 51.0502 45.9342 51.9841 45.4326C53.2551 45.051 54.4907 45.3225 55.732 45.6802C55.8787 45.7208 56.0253 45.7614 56.1764 45.8032C56.6393 45.9317 57.1015 46.063 57.5637 46.1944C57.8797 46.2826 58.1957 46.3707 58.5117 46.4586C59.2818 46.6731 60.0511 46.8899 60.8201 47.1084C60.8201 47.7353 60.7718 47.873 60.4618 48.3819C60.3835 48.5123 60.3052 48.6426 60.2245 48.7769C60.1382 48.9176 60.052 49.0582 59.9631 49.2031C59.7797 49.5078 59.5965 49.8125 59.4133 50.1172C59.3181 50.2747 59.223 50.4322 59.125 50.5945C58.6737 51.3454 58.2328 52.1022 57.7922 52.8594C57.6604 53.0855 57.6604 53.0855 57.5259 53.3162C57.0599 54.1162 56.5958 54.9172 56.1337 55.7194C56.0381 55.8854 55.9424 56.0515 55.8439 56.2225C55.6523 56.5555 55.461 56.8887 55.27 57.2221C54.8025 58.0359 54.3284 58.8442 53.8373 59.6441C53.7449 59.7957 53.6525 59.9474 53.5573 60.1037C53.3832 60.3884 53.2073 60.672 53.0291 60.9542C52.577 61.6964 52.3129 62.2075 52.4412 63.1045C52.8459 63.9645 53.4128 64.3018 54.2693 64.628C55.9097 65.0969 57.9505 64.9546 59.4859 64.2536C61.4427 63.1588 62.6912 61.3544 63.9881 59.5771C64.0842 59.4468 64.1803 59.3165 64.2794 59.1823C64.3649 59.0649 64.4505 58.9476 64.5387 58.8267C64.781 58.5342 64.781 58.5342 65.238 58.2295C65.2883 58.3803 65.3386 58.5312 65.3904 58.6865C65.59 58.7949 65.7938 58.8956 65.9998 58.9912C66.2059 59.1525 66.4088 59.3179 66.6091 59.4864C67.8207 60.4413 69.4581 61.3629 71.0375 61.4451C71.9783 61.4998 72.4401 61.7439 73.1123 62.3904C73.2971 62.5583 73.482 62.7261 73.6669 62.8939C73.7597 62.9798 73.8525 63.0658 73.9481 63.1544C74.383 63.5528 74.8334 63.9324 75.2832 64.3137C76.1221 65.0315 76.9565 65.7543 77.7903 66.4781C78.4285 67.0317 79.0688 67.5827 79.7107 68.1319C80.5451 68.8457 81.3771 69.5624 82.2043 70.2847C82.6854 70.704 83.17 71.1169 83.6645 71.5203C83.8102 71.6407 83.8102 71.6407 83.9588 71.7634C84.1421 71.9145 84.3267 72.064 84.5128 72.2115C85.2669 72.8371 85.5928 73.4547 85.7188 74.4446C85.559 75.7456 84.8033 76.5987 83.824 77.4248C83.3289 77.7486 83.3289 77.7486 82.9099 77.8819C81.631 77.406 80.5182 76.1263 79.5244 75.2206C79.158 74.9049 78.9908 74.8385 78.5015 74.7969C78.0465 74.7994 78.0465 74.7994 77.7493 75.0064C77.4876 75.4425 77.4993 75.7051 77.5779 76.2061C78.0248 76.8318 78.5568 77.3392 79.1013 77.8819C78.7922 78.2516 78.4804 78.6192 78.1682 78.9864C78.038 79.1422 78.038 79.1422 77.9052 79.3012C77.3845 79.9106 76.8982 80.3687 76.2068 80.7764C75.6336 80.5353 75.2475 80.1723 74.7976 79.7481C73.6469 78.5826 73.6469 78.5826 72.1982 77.9485C71.7959 78.011 71.7959 78.011 71.5032 78.1961C71.2199 78.6839 71.2487 79.0035 71.3318 79.5576C71.5976 79.9545 71.9051 80.2904 72.2459 80.6241C69.6724 83.8789 69.6724 83.8789 68.2849 84.128C67.6514 84.187 67.0708 84.1441 66.4568 83.9756C66.4419 83.8762 66.4269 83.7769 66.4116 83.6745C66.2249 82.5837 65.9814 81.8854 65.0857 81.1763C64.3358 80.7884 63.4674 80.8048 62.6482 80.9287C62.3895 81.0728 62.1345 81.224 61.8865 81.3858C61.7859 81.3858 61.6854 81.3858 61.5818 81.3858C61.5889 81.2679 61.5959 81.1501 61.6032 81.0287C61.6388 80.003 61.6266 79.1691 60.9724 78.3389C60.0866 77.6338 59.3334 77.4729 58.2302 77.5772C57.4997 77.8493 56.98 78.2868 56.4021 78.7959C56.4074 78.6508 56.4127 78.5057 56.4182 78.3562C56.4223 78.1651 56.4264 77.974 56.4307 77.7771C56.436 77.588 56.4413 77.3989 56.4467 77.2041C56.3994 76.6298 56.2657 76.3685 55.9451 75.9014C55.9451 75.8008 55.9451 75.7003 55.9451 75.5967C54.91 75.06 54.0702 74.8458 52.8982 74.9873C52.3794 75.2315 52.3794 75.2315 51.9841 75.5967C51.8396 75.7098 51.6951 75.8229 51.5462 75.9395C51.4393 76.0275 51.3325 76.1154 51.2224 76.2061C51.2295 76.0993 51.2366 75.9924 51.2438 75.8824C51.2815 74.8922 51.233 74.1154 50.613 73.3115C49.839 72.6955 49.2072 72.4954 48.238 72.5064C47.4424 72.6005 46.8354 73.0051 46.2332 73.5115C46.12 73.5963 46.0069 73.6812 45.8904 73.7686C45.6855 73.7253 45.4826 73.6729 45.281 73.6162C44.9839 73.594 44.6862 73.5787 44.3884 73.568C44.2185 73.5617 44.0486 73.5553 43.8736 73.5487C43.6971 73.5427 43.5205 73.5367 43.3386 73.5305C43.1597 73.524 42.9808 73.5174 42.7965 73.5106C42.3552 73.4945 41.9138 73.4789 41.4724 73.4639C41.4177 73.6008 41.4177 73.6008 41.3619 73.7404C40.8609 74.938 40.1415 75.7969 38.9397 76.3584C36.9799 76.9092 34.656 76.3879 32.6849 76.137C32.1764 76.0724 31.6677 76.0103 31.1589 75.9484C30.8325 75.9079 30.5062 75.8672 30.1799 75.8264C30.0293 75.808 29.8787 75.7896 29.7235 75.7706C27.7651 75.5185 27.7651 75.5185 27.2027 75.1053C26.387 74.0187 27.1631 71.2396 27.3257 69.9287C27.3609 69.6385 27.3959 69.3483 27.4308 69.058C27.5254 68.2755 27.6215 67.4931 27.718 66.7108C27.7783 66.2216 27.8382 65.7324 27.8981 65.2431C28.107 63.5352 28.3171 61.8274 28.5284 60.1198C28.7252 58.5291 28.9192 56.938 29.112 55.3468C29.2779 53.9784 29.4457 52.6102 29.615 51.2421C29.716 50.426 29.8162 49.6097 29.9145 48.7932C30.0068 48.0267 30.1015 47.2605 30.1981 46.4944C30.2331 46.2133 30.2672 45.9321 30.3005 45.6508C30.3459 45.2669 30.3945 44.8835 30.4439 44.5001C30.4626 44.333 30.4626 44.333 30.4817 44.1625C30.5768 43.4583 30.758 43.0381 31.2654 42.5381C31.8344 42.3485 32.2148 42.4156 32.8114 42.4828Z" fill="#F8C194"/>
<path d="M100.734 42.5394C101.332 43.1335 101.465 43.6909 101.556 44.5014C101.571 44.6214 101.587 44.7413 101.602 44.8649C101.653 45.2661 101.701 45.6676 101.748 46.0692C101.784 46.3573 101.82 46.6454 101.857 46.9335C101.955 47.7157 102.049 48.4984 102.144 49.2811C102.243 50.1014 102.345 50.9214 102.446 51.7414C102.616 53.1197 102.785 54.4982 102.952 55.877C103.144 57.4675 103.34 59.0577 103.536 60.6477C103.746 62.3435 103.954 64.0396 104.162 65.7357C104.221 66.2226 104.281 66.7095 104.341 67.1963C104.436 67.9644 104.529 68.7327 104.622 69.5011C104.656 69.7819 104.69 70.0626 104.725 70.3432C105.18 74.017 105.18 74.017 105 74.8363C104.452 75.3736 104.049 75.5329 103.292 75.6224C103.015 75.6573 103.015 75.6573 102.732 75.6928C102.534 75.7149 102.337 75.7371 102.134 75.7599C101.928 75.7846 101.723 75.8096 101.517 75.8347C101.101 75.8855 100.684 75.9349 100.267 75.9834C99.7217 76.0486 99.1777 76.1199 98.6335 76.1949C93.6592 76.8754 93.6592 76.8754 92.1517 75.8016C90.9679 74.8399 90.5118 73.7719 90.3377 72.2706C90.323 72.1248 90.3084 71.9789 90.2933 71.8287C90.2755 71.6713 90.2577 71.5139 90.2394 71.3517C90.2013 71.0132 90.164 70.6746 90.1275 70.3359C90.0498 69.6228 89.9646 68.9108 89.8795 68.1986C89.8129 67.6404 89.7472 67.0821 89.6817 66.5238C89.1706 62.1578 89.1706 62.1578 88.6003 57.7994C88.3707 56.1211 88.1819 54.4385 87.9973 52.7548C87.8897 51.7815 87.7734 50.8126 87.6183 49.8454C87.3735 48.3026 87.159 46.635 88.0896 45.2816C89.3939 43.6274 91.0684 43.4516 93.0313 43.2155C93.2839 43.1836 93.5366 43.1515 93.7892 43.1193C94.2931 43.0554 94.7973 42.9928 95.3016 42.9314C95.9339 42.8542 96.5654 42.7722 97.1969 42.6888C97.5349 42.6452 97.8729 42.6018 98.211 42.5585C98.4389 42.5283 98.4389 42.5283 98.6715 42.4974C100.098 42.3225 100.098 42.3225 100.734 42.5394Z" fill="#5C9CED"/>
<path d="M32.8114 42.4828C32.9206 42.4948 33.0298 42.5069 33.1423 42.5194C33.5007 42.5594 33.8589 42.601 34.2171 42.6428C34.4 42.6639 34.4 42.6639 34.5867 42.6854C35.3397 42.772 36.0924 42.861 36.8449 42.9516C37.1894 42.993 37.5339 43.0339 37.8785 43.0747C38.4802 43.1463 39.0813 43.2226 39.6824 43.2998C39.8614 43.3214 40.0403 43.3429 40.2247 43.3651C41.7851 43.5743 42.9166 44.0255 43.9099 45.2803C45.1561 47.0264 44.4926 49.6052 44.1804 51.5636C43.9163 53.238 43.7195 54.9172 43.5291 56.6013C43.3172 58.467 43.0996 60.3303 42.8435 62.1905C42.5267 64.4961 42.262 66.8074 41.9975 69.1196C41.9386 69.6334 41.8793 70.1471 41.8196 70.6608C41.7914 70.9029 41.7635 71.1451 41.7357 71.3872C41.6969 71.7229 41.6571 72.0584 41.617 72.3939C41.5948 72.583 41.5725 72.772 41.5496 72.9668C41.3524 74.2372 40.8422 74.9925 39.8478 75.8002C37.8801 77.202 34.915 76.4208 32.6849 76.137C32.1764 76.0724 31.6677 76.0103 31.1589 75.9484C30.8325 75.9079 30.5062 75.8672 30.1799 75.8264C30.0293 75.808 29.8787 75.7896 29.7235 75.7706C27.7651 75.5185 27.7651 75.5185 27.2027 75.1053C26.387 74.0187 27.1631 71.2396 27.3257 69.9287C27.3609 69.6385 27.3959 69.3483 27.4308 69.058C27.5254 68.2755 27.6215 67.4931 27.718 66.7108C27.7783 66.2216 27.8382 65.7324 27.8981 65.2431C28.107 63.5352 28.3171 61.8274 28.5284 60.1198C28.7252 58.5291 28.9192 56.938 29.112 55.3468C29.2779 53.9784 29.4457 52.6102 29.615 51.2421C29.716 50.426 29.8162 49.6097 29.9145 48.7932C30.0068 48.0267 30.1015 47.2605 30.1981 46.4944C30.2331 46.2133 30.2672 45.9321 30.3005 45.6508C30.3459 45.2669 30.3945 44.8835 30.4439 44.5001C30.4626 44.333 30.4626 44.333 30.4817 44.1625C30.5768 43.4583 30.758 43.0381 31.2654 42.5381C31.8344 42.3485 32.2148 42.4156 32.8114 42.4828Z" fill="#EC5575"/>
<path d="M85.1953 72.7031C85.5525 73.006 85.9074 73.3111 86.2617 73.6172C86.3917 73.7274 86.5217 73.8375 86.6557 73.951C86.7896 74.0671 86.9235 74.1832 87.0615 74.3027C87.188 74.4111 87.3145 74.5195 87.4448 74.6312C88.0071 75.2211 88.3076 75.8264 88.3184 76.645C88.2825 77.6427 87.8707 78.2528 87.1799 78.9462C86.3206 79.7253 85.7824 80.0594 84.5955 80.0632C84.4118 80.0658 84.2282 80.0683 84.039 80.071C83.4837 80.0118 83.2214 79.8513 82.7578 79.5586C82.1767 79.7523 82.0276 80.0114 81.6533 80.4917C79.9817 82.5745 79.9817 82.5745 78.7969 82.9102C77.6939 83.0292 76.7705 82.8765 75.75 82.4531C75.6652 82.56 75.5803 82.6668 75.4929 82.7769C73.1736 85.6603 73.1736 85.6603 71.7421 85.8517C70.7346 85.9036 69.9483 85.6249 69.0469 85.1953C69.0102 85.2803 68.9734 85.3654 68.9356 85.453C68.5423 86.1682 67.924 86.7336 67.3711 87.3281C67.2423 87.4727 67.1134 87.6172 66.9807 87.7661C66.1131 88.5225 65.3494 88.7684 64.2022 88.7504C63.8672 88.6992 63.8672 88.6992 63.4102 88.3945C63.4662 88.3225 63.5222 88.2504 63.5799 88.1761C63.8381 87.8431 64.0954 87.5095 64.3528 87.1758C64.4409 87.0625 64.5289 86.9492 64.6197 86.8324C65.3175 85.9256 65.9548 85.0068 66.457 83.9766C66.5731 83.9836 66.6892 83.9907 66.8087 83.998C68.099 84.0431 69.0065 83.9169 70.0079 83.0696C70.785 82.3201 71.455 81.4938 72.0938 80.625C72.0278 80.5604 71.9618 80.4958 71.8938 80.4292C71.4342 79.9452 71.1986 79.67 71.0845 78.9968C71.1797 78.4922 71.1797 78.4922 71.4272 78.1208C71.8985 77.8108 72.1454 77.8225 72.7031 77.8828C73.1054 78.1345 73.1054 78.1345 73.5029 78.4827C73.6461 78.6064 73.7893 78.7301 73.9368 78.8576C74.0827 78.9884 74.2286 79.1192 74.3789 79.2539C74.5264 79.3847 74.6739 79.5155 74.8258 79.6502C75.1869 79.9729 75.5456 80.2977 75.9023 80.625C76.7145 80.4295 77.1505 80.0506 77.6829 79.4348C77.7548 79.3554 77.8268 79.2759 77.901 79.1941C78.3104 78.7341 78.6515 78.2692 78.9492 77.7305C78.852 77.646 78.7548 77.5616 78.6546 77.4746C78.5288 77.3642 78.4029 77.2538 78.2732 77.1401C78.1477 77.0306 78.0222 76.921 77.8929 76.8081C77.5029 76.4409 77.4361 76.3022 77.3782 75.769C77.4258 75.293 77.4258 75.293 77.6733 74.9312C78.1421 74.6104 78.3886 74.6273 78.9492 74.6836C79.3182 74.902 79.3182 74.902 79.6729 75.2073C79.8679 75.3728 79.8679 75.3728 80.0668 75.5417C80.5997 76.0153 81.1323 76.489 81.6569 76.9717C81.9651 77.2459 82.2588 77.5068 82.6055 77.7305C83.5793 77.5977 84.3466 76.8443 84.946 76.1023C85.4487 75.371 85.5454 74.8004 85.5 73.9219C85.4065 73.6649 85.3064 73.4101 85.1953 73.1602C85.1953 73.0093 85.1953 72.8585 85.1953 72.7031Z" fill="#E59F6A"/>
<path d="M90.2224 70.418C90.2853 70.4751 90.3481 70.5323 90.4129 70.5911C91.8992 71.9082 92.9559 72.3428 94.9451 72.2461C95.945 72.1553 96.9398 72.0167 97.9348 71.8843C98.3274 71.833 98.7199 71.7821 99.1125 71.7313C99.3715 71.6977 99.6305 71.6638 99.8894 71.6295C100.529 71.5457 101.169 71.4693 101.812 71.4075C101.997 71.3891 101.997 71.3891 102.187 71.3704C102.419 71.348 102.651 71.327 102.884 71.3078C103.577 71.2403 104.092 71.07 104.695 70.7227C104.875 71.7914 105.026 72.857 105.066 73.9409C105.076 74.1772 105.076 74.1772 105.085 74.4182C104.967 74.998 104.724 75.1216 104.238 75.4453C103.79 75.5632 103.79 75.5632 103.292 75.6221C103.107 75.6453 102.922 75.6685 102.732 75.6924C102.436 75.7256 102.436 75.7256 102.134 75.7595C101.928 75.7842 101.723 75.8092 101.517 75.8344C101.101 75.8851 100.684 75.9345 100.267 75.9831C99.7217 76.0482 99.1777 76.1195 98.6335 76.1945C93.6592 76.875 93.6592 76.875 92.1517 75.8012C90.7406 74.655 90.4755 73.4475 90.2677 71.7057C90.2304 71.2722 90.2125 70.8525 90.2224 70.418Z" fill="#3680D3"/>
<path d="M27.3046 70.7227C27.4254 70.7939 27.5461 70.8652 27.6705 70.9386C28.3443 71.2349 28.9498 71.3072 29.6767 71.3802C29.8164 71.3958 29.9562 71.4113 30.1002 71.4273C30.5456 71.4766 30.9913 71.5234 31.437 71.5701C32.0214 71.633 32.6058 71.6969 33.1901 71.7611C33.3302 71.7763 33.4702 71.7915 33.6146 71.8072C34.4927 71.9043 35.3601 72.0321 36.2302 72.1866C37.6237 72.4122 39.0123 72.436 40.2556 71.7046C40.6596 71.4109 40.9836 71.0908 41.3203 70.7227C41.4208 70.7227 41.5214 70.7227 41.6249 70.7227C41.6747 72.2146 41.6292 73.7559 40.7109 74.9883C39.8774 75.8754 39.0733 76.4539 37.8414 76.5429C36.1051 76.5641 34.4055 76.3569 32.6851 76.1379C32.1766 76.0733 31.6679 76.0112 31.159 75.9494C30.8327 75.9088 30.5064 75.8682 30.1801 75.8274C29.9542 75.7997 29.9542 75.7997 29.7237 75.7715C27.81 75.5252 27.81 75.5252 27.1648 75.1008C26.4859 74.0101 27.1053 71.9098 27.3046 70.7227Z" fill="#CC3A60"/>
<path d="M89.918 67.3709C89.9945 67.7233 89.9945 67.7233 90.0477 68.1868C90.0673 68.354 90.087 68.5212 90.1072 68.6935C90.1265 68.8698 90.1457 69.046 90.1655 69.2276C90.1962 69.4876 90.1962 69.4876 90.2274 69.7528C90.3173 70.5385 90.3861 71.3018 90.375 72.0936C90.2514 72.095 90.1277 72.0964 90.0004 72.0979C89.4364 72.1061 88.8727 72.1188 88.3088 72.1317C88.0171 72.1349 88.0171 72.1349 87.7194 72.1382C86.6537 72.1659 85.9068 72.2058 85.043 72.8553C84.9507 72.7705 84.8584 72.6856 84.7633 72.5982C83.8683 71.7831 82.9501 71.0104 81.9961 70.2654C82.5065 69.097 84.0097 68.1325 85.1596 67.6518C85.5816 67.5701 85.9842 67.5443 86.4141 67.5233C86.682 67.4958 86.9498 67.4669 87.2174 67.437C87.7922 67.3747 88.3669 67.3132 88.9426 67.2596C89.0644 67.248 89.1861 67.2364 89.3116 67.2244C89.6133 67.2186 89.6133 67.2186 89.918 67.3709Z" fill="#D37D42"/>
<path d="M34.9219 67.0667C35.6594 67.4217 36.0742 67.862 36.4454 68.5901C36.5448 69.3859 36.4218 69.898 35.9883 70.5706C35.2383 71.2474 34.7769 71.3874 33.7859 71.3745C33.211 71.3118 32.9049 71.1126 32.4844 70.7229C31.982 70.0028 31.8897 69.2914 32.0274 68.4378C32.666 67.1605 33.5646 66.8728 34.9219 67.0667Z" fill="#EBEAEF"/>
<path d="M98.4493 67.0682C99.0655 67.3763 99.4574 67.7057 99.8204 68.287C99.9538 69.0826 99.914 69.7687 99.5633 70.496C98.9462 71.1632 98.5277 71.3634 97.621 71.41C97.0504 71.3947 96.6813 71.3506 96.2308 70.9911C95.5676 70.2429 95.4795 69.684 95.4953 68.6982C95.589 68.0509 95.8369 67.8079 96.3165 67.3729C96.997 66.9193 97.6514 66.9746 98.4493 67.0682Z" fill="#E8ECF1"/>
</g>
<defs>
<linearGradient id="paint0_linear_270_3753" x1="203.087" y1="43.5729" x2="-18.2236" y2="55.1336" gradientUnits="userSpaceOnUse">
<stop stop-color="#00ADEF"/>
<stop offset="1" stop-color="#D60F8C"/>
</linearGradient>
<clipPath id="clip0_270_3753">
<rect width="78" height="78" fill="white" transform="translate(27 27)"/>
</clipPath>
</defs>
</svg>
