<svg width="64" height="64" viewBox="0 0 64 64" fill="none" xmlns="http://www.w3.org/2000/svg">
<circle cx="32" cy="32" r="32" fill="url(#paint0_linear_6_477)"/>
<circle cx="32" cy="32" r="28" fill="white"/>
<path d="M24.1096 16.3444C25.0223 17.3403 25.3564 18.6323 25.6914 19.9023C25.4954 19.8778 25.2995 19.8533 25.0976 19.8281C25.3063 20.6556 25.3063 20.6556 25.645 21.4331C25.7656 21.6835 25.7656 21.6835 25.7888 21.948C25.5595 22.5485 24.8988 22.7975 24.3505 23.058C24.0888 23.1901 23.8538 23.3464 23.6159 23.517C23.3339 23.6967 23.1337 23.7617 22.7969 23.7617C22.7969 24.1291 22.7969 24.4964 22.7969 24.875C22.875 24.8741 22.9532 24.8732 23.0337 24.8723C25.4607 24.8534 25.4607 24.8534 26.3417 25.5203C26.8899 26.0848 27.1493 26.7869 27.4306 27.5073C27.501 27.6875 27.5727 27.8671 27.6446 28.0466C27.69 28.1612 27.7353 28.2758 27.7805 28.3905C27.8125 28.4708 27.8125 28.4708 27.8452 28.5528C27.9306 28.7728 27.9922 28.9414 27.9922 29.1796C28.0576 29.1789 28.0576 29.1789 28.1244 29.1781C28.5795 29.1732 29.0346 29.1699 29.4898 29.1674C29.6595 29.1663 29.8293 29.1648 29.999 29.1628C30.2433 29.1601 30.4876 29.1589 30.7319 29.1579C30.8075 29.1567 30.8831 29.1556 30.9611 29.1544C31.4844 29.1543 31.7848 29.2588 32.2226 29.5507C32.2716 29.5017 32.3206 29.4528 32.3711 29.4023C32.5937 29.3837 32.5937 29.3837 32.8164 29.4023C32.9648 29.5507 32.9648 29.5507 32.988 29.7316C32.9607 29.9553 32.9039 29.9981 32.7422 30.1445C32.804 30.1456 32.8657 30.1466 32.9294 30.1478C33.1589 30.1523 33.3883 30.1578 33.6178 30.164C33.7659 30.1676 33.9139 30.1702 34.062 30.1728C34.1551 30.1754 34.2481 30.178 34.344 30.1807C34.4299 30.1827 34.5157 30.1846 34.6042 30.1866C34.8203 30.2187 34.8203 30.2187 34.962 30.3205C35.0429 30.4414 35.0429 30.4414 35.0337 30.6315C34.9687 30.8125 34.9687 30.8125 34.7461 30.9609C34.5548 30.9948 34.3681 31.0225 34.1755 31.0444C34.1234 31.0508 34.0713 31.0572 34.0177 31.0638C33.8894 31.0795 33.7611 31.0945 33.6328 31.1093C33.6446 31.1644 33.6563 31.2195 33.6685 31.2763C33.7408 31.6591 33.7832 31.9548 33.5679 32.2922C33.4092 32.4462 33.3372 32.5157 33.1173 32.5267C32.9675 32.5243 32.8177 32.5219 32.6679 32.5195C32.6898 32.6141 32.7116 32.7087 32.7342 32.8062C32.8178 33.1832 32.883 33.5619 32.9445 33.943C32.9615 34.047 32.9615 34.047 32.9788 34.1532C33.0025 34.2985 33.0261 34.4438 33.0496 34.5891C33.0856 34.812 33.122 35.0347 33.1585 35.2575C33.1815 35.3991 33.2045 35.5408 33.2275 35.6825C33.2384 35.749 33.2493 35.8156 33.2605 35.8842C33.2754 35.9768 33.2754 35.9768 33.2906 36.0712C33.3038 36.1525 33.3038 36.1525 33.3172 36.2354C33.3359 36.3789 33.3359 36.3789 33.3359 36.6015C33.6391 36.5998 33.942 36.5941 34.2451 36.5876C34.3311 36.5872 34.4171 36.5867 34.5057 36.5863C34.9898 36.5915 34.9898 36.5915 35.3804 36.3473C35.416 36.2842 35.4516 36.2212 35.4883 36.1562C35.7482 35.9733 36.052 35.9598 36.3603 35.9243C36.4121 35.9179 36.4638 35.9114 36.5172 35.9048C36.6442 35.8892 36.7713 35.8742 36.8984 35.8593C36.8494 35.8103 36.8004 35.7614 36.75 35.7109C36.7314 35.5253 36.7314 35.5253 36.75 35.3398C36.799 35.2908 36.8479 35.2418 36.8984 35.1914C37.1725 35.2129 37.4117 35.2635 37.6731 35.3491C38.1703 35.4712 38.6187 35.3289 39.0873 35.154C39.1372 35.1359 39.187 35.1179 39.2384 35.0994C39.3957 35.0425 39.5526 34.9848 39.7095 34.927C39.868 34.869 40.0266 34.8113 40.1852 34.7537C40.3281 34.7019 40.4707 34.6495 40.6134 34.5972C40.832 34.5234 40.832 34.5234 40.9804 34.5234C41.0161 34.276 41.0516 34.0286 41.0871 33.7812C41.1021 33.6772 41.1021 33.6772 41.1174 33.571C41.1371 33.4338 41.1565 33.2966 41.1757 33.1593C41.1932 33.035 41.2115 32.9107 41.2307 32.7867C41.2888 32.4859 41.2888 32.4859 41.1706 32.218C41.1324 32.1705 41.0941 32.1231 41.0547 32.0742C41.0064 31.7422 41.0146 31.6084 41.217 31.3366C41.4406 31.1727 41.5276 31.1451 41.7969 31.1835C41.8156 31.1307 41.8344 31.0779 41.8537 31.0235C42.0912 30.4763 42.4929 29.9643 42.9844 29.625C43.0333 29.625 43.0823 29.625 43.1328 29.625C43.1531 29.5813 43.1734 29.5377 43.1943 29.4928C43.3816 29.1381 43.6361 28.8666 43.9724 28.6508C44.1892 28.5318 44.1892 28.5318 44.2214 28.3174C44.2336 28.2299 44.2336 28.2299 44.2461 28.1406C44.1923 28.1279 44.1385 28.1153 44.0831 28.1023C43.2605 27.8961 42.7668 27.52 42.3175 26.802C42.1788 26.5337 42.1589 26.2888 42.1607 25.9894C42.1609 25.92 42.1612 25.8507 42.1614 25.7792C42.162 25.7074 42.1627 25.6355 42.1633 25.5615C42.1636 25.4885 42.164 25.4155 42.1643 25.3403C42.1652 25.1604 42.1664 24.9806 42.1679 24.8007C42.0805 24.786 42.0805 24.786 41.9913 24.7709C41.6448 24.6918 41.4756 24.4123 41.2773 24.1328C40.96 23.595 40.9755 22.9728 41.1199 22.3811C41.3629 21.6321 41.6592 21.1557 42.3489 20.7651C43.3446 20.3107 44.5149 20.3252 45.5356 20.7001C46.0177 20.9183 46.4725 21.1414 46.7324 21.6186C46.9044 21.9322 47.0961 22.0104 47.4221 22.1358C47.9326 22.3454 48.1857 22.7597 48.4023 23.2421C48.6297 23.947 48.4791 24.718 48.1582 25.3646C47.8905 25.8392 47.5782 26.2789 47.0896 26.5402C46.9179 26.582 46.9179 26.582 46.6211 26.582C46.6211 26.9984 46.6211 27.4147 46.6211 27.8437C46.768 27.8927 46.915 27.9417 47.0664 27.9921C47.2944 28.2123 47.3281 28.4252 47.3633 28.7343C47.4383 28.7282 47.5133 28.7221 47.5906 28.7158C48.0259 28.7434 48.2804 28.8994 48.574 29.2167C48.7681 29.5043 48.8653 29.7074 48.8777 30.0571C48.8819 30.1643 48.8819 30.1643 48.8861 30.2736C48.8884 30.3512 48.8906 30.4287 48.8929 30.5086C48.8956 30.5903 48.8984 30.6719 48.9012 30.756C48.9293 31.659 48.9383 32.5621 48.9397 33.4654C48.9404 33.748 48.9427 34.0306 48.945 34.3132C48.9455 34.4954 48.9459 34.6775 48.9462 34.8597C48.9471 34.943 48.948 35.0262 48.949 35.112C48.9488 35.1907 48.9485 35.2693 48.9483 35.3504C48.9486 35.4185 48.9488 35.4865 48.9491 35.5567C48.9248 35.7608 48.8824 35.8995 48.8104 36.089C48.6616 36.5146 48.6702 36.923 48.6751 37.3699C48.6752 37.4595 48.6753 37.549 48.6754 37.6412C48.6758 37.8849 48.6772 38.1285 48.6791 38.3722C48.6807 38.6283 48.6811 38.8844 48.6815 39.1406C48.6826 39.6255 48.6848 40.1105 48.6874 40.5954C48.692 41.4632 48.6948 42.331 48.6971 43.1988C48.6979 43.4533 48.6988 43.7077 48.7002 43.9621C48.7018 44.2459 48.703 44.5297 48.7041 44.8136C48.7047 44.8969 48.7053 44.9802 48.706 45.066C48.7072 45.5168 48.6844 45.9514 48.625 46.3984C48.527 46.3984 48.429 46.3984 48.3281 46.3984C48.3094 46.4426 48.2908 46.4868 48.2716 46.5323C48.0834 46.866 47.721 47.0715 47.3865 47.2426C47.1986 47.2934 47.0375 47.3001 46.8437 47.289C46.8472 47.3312 46.8506 47.3734 46.8542 47.4169C46.8568 47.4742 46.8595 47.5315 46.8623 47.5905C46.8657 47.6465 46.8692 47.7025 46.8727 47.7601C46.8437 47.957 46.8437 47.957 46.5469 48.4765C39.7135 48.4765 32.8802 48.4765 25.8398 48.4765C25.8398 46.2232 25.8398 43.97 25.8398 41.6484C25.7908 41.6484 25.7419 41.6484 25.6914 41.6484C25.6914 43.9017 25.6914 46.155 25.6914 48.4765C22.5564 48.4765 19.4214 48.4765 16.1914 48.4765C16.1914 46.7621 16.1914 45.0476 16.1914 43.2812C16.0689 43.2567 15.9465 43.2322 15.8203 43.207C15.6594 43.0991 15.6594 43.0991 15.5095 42.9658C15.4595 42.9225 15.4094 42.8793 15.3579 42.8347C15.0583 42.4988 15.0565 42.1373 15.0583 41.7057C15.0579 41.6445 15.0576 41.5833 15.0572 41.5203C15.0563 41.3153 15.0564 41.1103 15.0565 40.9053C15.0561 40.7583 15.0556 40.6112 15.055 40.4642C15.0537 40.0647 15.0534 39.6652 15.0533 39.2657C15.0532 39.0159 15.0529 38.7661 15.0525 38.5164C15.0511 37.6443 15.0505 36.7723 15.0506 35.9002C15.0507 35.0885 15.0491 34.2767 15.0468 33.4649C15.0448 32.7673 15.044 32.0697 15.0441 31.372C15.0442 30.9557 15.0438 30.5394 15.0422 30.123C15.0407 29.731 15.0407 29.339 15.0418 28.947C15.042 28.8036 15.0416 28.6603 15.0407 28.5169C15.0344 27.4375 15.1008 26.5062 15.8945 25.6914C16.5337 25.1082 17.2256 24.8643 18.0831 24.8677C18.1353 24.8678 18.1875 24.8679 18.2412 24.868C18.4068 24.8684 18.5724 24.8694 18.738 24.8703C18.8507 24.8707 18.9635 24.871 19.0762 24.8713C19.3516 24.8721 19.6269 24.8735 19.9023 24.875C19.9023 24.4586 19.9023 24.0422 19.9023 23.6132C19.8288 23.65 19.8288 23.65 19.7539 23.6875C19.0676 23.7483 18.4438 23.7086 17.8909 23.2656C17.6004 22.9877 17.3983 22.7624 17.356 22.3518C17.3683 21.944 17.4927 21.5513 17.5969 21.1594C17.6379 21.0024 17.6788 20.8453 17.7195 20.6883C17.7378 20.6193 17.7561 20.5503 17.7749 20.4792C17.8649 20.1035 17.9074 19.7476 17.9115 19.3613C17.9132 19.273 17.915 19.1847 17.9168 19.0937C17.92 18.9109 17.9223 18.728 17.9238 18.5452C17.9416 17.7743 18.0672 16.9974 18.5823 16.3911C19.0674 15.9316 19.523 15.8725 20.1667 15.8898C20.2597 15.893 20.2597 15.893 20.3546 15.8962C20.7598 15.9065 21.0398 15.8677 21.4 15.6692C22.2685 15.2089 23.4525 15.7468 24.1096 16.3444ZM46.6211 28.3632C46.6211 28.5102 46.6211 28.6571 46.6211 28.8085C46.6945 28.8085 46.768 28.8085 46.8437 28.8085C46.8192 28.6616 46.7947 28.5146 46.7695 28.3632C46.7205 28.3632 46.6715 28.3632 46.6211 28.3632ZM25.914 32.9648C25.914 34.5568 25.914 36.1488 25.914 37.789C26.7223 37.789 27.5305 37.789 28.3633 37.789C28.2653 37.6666 28.1673 37.5441 28.0664 37.4179C27.8014 36.6663 27.7341 35.8155 27.6118 35.029C27.5825 34.8411 27.553 34.6532 27.5233 34.4654C27.5049 34.3496 27.4868 34.2337 27.469 34.1177C27.4263 33.8294 27.4263 33.8294 27.3242 33.5585C27.165 33.5016 27.165 33.5016 26.9763 33.4565C26.6414 33.3627 26.4155 33.243 26.1367 33.039C26.0632 33.0145 25.9897 32.99 25.914 32.9648Z" fill="#9F6067"/>
<path d="M24.1096 16.3444C25.0223 17.3403 25.3564 18.6323 25.6914 19.9023C25.4954 19.8778 25.2995 19.8533 25.0976 19.8281C25.3063 20.6556 25.3063 20.6556 25.645 21.4331C25.7656 21.6835 25.7656 21.6835 25.7888 21.948C25.5595 22.5485 24.8988 22.7975 24.3505 23.058C24.0888 23.1901 23.8538 23.3464 23.6159 23.517C23.3339 23.6967 23.1337 23.7617 22.7969 23.7617C22.7969 24.1291 22.7969 24.4964 22.7969 24.875C22.875 24.8741 22.9532 24.8732 23.0337 24.8723C25.4607 24.8534 25.4607 24.8534 26.3417 25.5203C26.8887 26.0835 27.1492 26.7846 27.4306 27.5032C27.501 27.6826 27.5727 27.8614 27.6446 28.0401C27.69 28.1545 27.7353 28.2688 27.7805 28.3832C27.8125 28.463 27.8125 28.463 27.8452 28.5444C27.9447 28.8004 27.9922 28.975 27.9922 29.2539C27.942 29.2611 27.8919 29.2684 27.8403 29.2759C27.3258 29.3549 27.3258 29.3549 26.9531 29.6992C26.7419 30.1216 26.9896 30.8695 27.0598 31.3273C27.0695 31.3921 27.0793 31.4569 27.0893 31.5236C27.1408 31.8617 27.1975 32.1978 27.2639 32.5334C27.3303 32.8801 27.3358 33.206 27.3242 33.5585C26.8292 33.532 26.5374 33.3984 26.1367 33.1132C26.0632 33.0642 25.9897 33.0153 25.914 32.9648C25.914 34.5813 25.914 36.1978 25.914 37.8632C25.6446 37.8877 25.3752 37.9122 25.0976 37.9375C25.0936 38.2065 25.0907 38.4755 25.0884 38.7446C25.0865 38.8595 25.0865 38.8595 25.0846 38.9768C25.0839 39.0866 25.0839 39.0866 25.0831 39.1986C25.082 39.3 25.082 39.3 25.0808 39.4035C25.0814 39.5853 25.0814 39.5853 25.2461 39.7187C25.442 39.7432 25.6379 39.7677 25.8398 39.7929C25.8398 40.4052 25.8398 41.0175 25.8398 41.6484C25.7908 41.6484 25.7419 41.6484 25.6914 41.6484C25.6914 43.9017 25.6914 46.155 25.6914 48.4765C22.5564 48.4765 19.4214 48.4765 16.1914 48.4765C16.1914 46.7621 16.1914 45.0476 16.1914 43.2812C16.0689 43.2567 15.9465 43.2322 15.8203 43.207C15.6594 43.0991 15.6594 43.0991 15.5095 42.9658C15.4595 42.9225 15.4094 42.8793 15.3579 42.8347C15.0583 42.4988 15.0565 42.1373 15.0583 41.7057C15.0579 41.6445 15.0576 41.5833 15.0572 41.5203C15.0563 41.3153 15.0564 41.1103 15.0565 40.9053C15.0561 40.7583 15.0556 40.6112 15.055 40.4642C15.0537 40.0647 15.0534 39.6652 15.0533 39.2657C15.0532 39.0159 15.0529 38.7661 15.0525 38.5164C15.0511 37.6443 15.0505 36.7723 15.0506 35.9002C15.0507 35.0885 15.0491 34.2767 15.0468 33.4649C15.0448 32.7673 15.044 32.0697 15.0441 31.372C15.0442 30.9557 15.0438 30.5394 15.0422 30.123C15.0407 29.731 15.0407 29.339 15.0418 28.947C15.042 28.8036 15.0416 28.6603 15.0407 28.5169C15.0344 27.4375 15.1008 26.5062 15.8945 25.6914C16.5337 25.1082 17.2256 24.8643 18.0831 24.8677C18.1353 24.8678 18.1875 24.8679 18.2412 24.868C18.4068 24.8684 18.5724 24.8694 18.738 24.8703C18.8507 24.8707 18.9635 24.871 19.0762 24.8713C19.3516 24.8721 19.6269 24.8735 19.9023 24.875C19.9023 24.4586 19.9023 24.0422 19.9023 23.6132C19.8288 23.65 19.8288 23.65 19.7539 23.6875C19.0676 23.7483 18.4438 23.7086 17.8909 23.2656C17.6004 22.9877 17.3983 22.7624 17.356 22.3518C17.3683 21.944 17.4927 21.5513 17.5969 21.1594C17.6379 21.0024 17.6788 20.8453 17.7195 20.6883C17.7378 20.6193 17.7561 20.5503 17.7749 20.4792C17.8649 20.1035 17.9074 19.7476 17.9115 19.3613C17.9132 19.273 17.915 19.1847 17.9168 19.0937C17.92 18.9109 17.9223 18.728 17.9238 18.5452C17.9416 17.7743 18.0672 16.9974 18.5823 16.3911C19.0674 15.9316 19.523 15.8725 20.1667 15.8898C20.2597 15.893 20.2597 15.893 20.3546 15.8962C20.7598 15.9065 21.0398 15.8677 21.4 15.6692C22.2685 15.2089 23.4525 15.7468 24.1096 16.3444Z" fill="#77D6A5"/>
<path d="M46.3984 21.164C46.6127 21.3896 46.779 21.6283 46.9179 21.9061C47.0599 21.9767 47.0599 21.9767 47.2287 22.0407C47.8235 22.2989 48.1401 22.6581 48.4023 23.2421C48.6297 23.947 48.4791 24.7179 48.1582 25.3646C47.8905 25.8391 47.5782 26.2788 47.0896 26.5402C46.9179 26.5819 46.9179 26.5819 46.6211 26.5819C46.6211 26.9983 46.6211 27.4147 46.6211 27.8436C46.8415 27.9171 46.8415 27.9171 47.0664 27.9921C47.2944 28.2122 47.3281 28.4251 47.3633 28.7343C47.4383 28.7282 47.5133 28.722 47.5905 28.7157C48.0259 28.7434 48.2804 28.8993 48.5739 29.2167C48.7681 29.5043 48.8653 29.7074 48.8777 30.057C48.8819 30.1642 48.8819 30.1642 48.8861 30.2735C48.8884 30.3511 48.8906 30.4287 48.8929 30.5086C48.897 30.631 48.897 30.631 48.9012 30.756C48.9293 31.6589 48.9383 32.562 48.9397 33.4653C48.9404 33.7479 48.9427 34.0305 48.945 34.3131C48.9455 34.4953 48.9459 34.6775 48.9462 34.8596C48.9471 34.9429 48.948 35.0262 48.949 35.112C48.9488 35.1906 48.9485 35.2693 48.9483 35.3503C48.9487 35.4524 48.9487 35.4524 48.9491 35.5566C48.9247 35.761 48.8819 35.9041 48.8109 36.0946C48.6723 36.4908 48.6665 36.8617 48.6671 37.2783C48.6663 37.358 48.6656 37.4377 48.6648 37.5199C48.6626 37.7813 48.6619 38.0427 48.6612 38.3041C48.66 38.4862 48.6586 38.6683 48.6572 38.8504C48.6537 39.3281 48.6514 39.8058 48.6495 40.2834C48.6469 40.8574 48.6427 41.4314 48.6387 42.0054C48.6329 42.8759 48.6291 43.7465 48.625 44.6171C47.4493 44.6171 46.2737 44.6171 45.0625 44.6171C45.0608 44.0493 45.0593 43.4816 45.0584 42.9138C45.058 42.7209 45.0575 42.528 45.0569 42.3351C45.056 42.0569 45.0555 41.7787 45.0552 41.5005C45.0548 41.415 45.0545 41.3296 45.0541 41.2415C45.054 40.7539 45.0765 40.2769 45.1367 39.7929C45.2194 39.7837 45.302 39.7745 45.3872 39.765C45.6585 39.7449 45.6585 39.7449 45.8047 39.5702C45.8265 39.406 45.8265 39.406 45.8218 39.2174C45.8216 39.1479 45.8215 39.0784 45.8213 39.0068C45.8204 38.934 45.8195 38.8612 45.8186 38.7863C45.8185 38.7132 45.8185 38.6402 45.8184 38.5649C45.8478 38.2259 45.8478 38.2259 45.7304 37.9374C45.6017 37.93 45.4726 37.9278 45.3436 37.9277C45.2598 37.9274 45.1759 37.9271 45.0895 37.9268C44.9502 37.9268 44.9502 37.9268 44.8081 37.9269C44.659 37.9265 44.5099 37.9261 44.3608 37.9257C44.2 37.9253 44.0392 37.9251 43.8784 37.9249C43.5434 37.9244 43.2085 37.9232 42.8735 37.9218C42.7589 37.9213 42.6444 37.9209 42.5298 37.9204C42.4437 37.9201 42.4437 37.9201 42.3559 37.9197C41.5758 37.9166 40.7957 37.9141 40.0156 37.9132C39.4899 37.9126 38.9641 37.9109 38.4384 37.9081C38.1601 37.9066 37.8818 37.9057 37.6035 37.906C37.2928 37.9065 36.9822 37.9046 36.6716 37.9025C36.5794 37.903 36.4871 37.9035 36.3921 37.904C36.3074 37.9031 36.2227 37.9022 36.1354 37.9012C36.0252 37.9009 36.0252 37.9009 35.9128 37.9007C35.6541 37.8526 35.5291 37.7454 35.3398 37.5663C35.1498 37.2497 35.1379 36.8867 35.1914 36.5272C35.3515 36.2585 35.4984 36.1229 35.7851 36.0077C35.9778 35.9745 36.1665 35.9466 36.3603 35.9242C36.4121 35.9178 36.4638 35.9114 36.5172 35.9048C36.6442 35.8891 36.7713 35.8741 36.8984 35.8593C36.8494 35.8103 36.8004 35.7613 36.75 35.7108C36.7314 35.5253 36.7314 35.5253 36.75 35.3397C36.8234 35.2663 36.8234 35.2663 36.8984 35.1913C37.1725 35.2128 37.4117 35.2635 37.6731 35.349C38.1703 35.4712 38.6187 35.3289 39.0873 35.1539C39.1372 35.1359 39.187 35.1179 39.2384 35.0993C39.3956 35.0424 39.5526 34.9847 39.7094 34.9269C39.868 34.869 40.0266 34.8112 40.1852 34.7537C40.3281 34.7019 40.4707 34.6495 40.6134 34.5971C40.832 34.5233 40.832 34.5233 40.9804 34.5233C41.0161 34.276 41.0516 34.0286 41.0871 33.7811C41.1021 33.6771 41.1021 33.6771 41.1174 33.571C41.1371 33.4338 41.1565 33.2965 41.1757 33.1593C41.1932 33.0349 41.2115 32.9107 41.2307 32.7866C41.2888 32.4858 41.2888 32.4858 41.1706 32.2179C41.1324 32.1705 41.0941 32.123 41.0547 32.0741C41.0064 31.7422 41.0146 31.6083 41.217 31.3366C41.4406 31.1726 41.5276 31.145 41.7968 31.1835C41.8156 31.1307 41.8344 31.0779 41.8537 31.0235C42.0912 30.4762 42.4929 29.9642 42.9843 29.6249C43.0333 29.6249 43.0823 29.6249 43.1328 29.6249C43.1531 29.5813 43.1733 29.5376 43.1942 29.4927C43.3816 29.138 43.636 28.8665 43.9724 28.6508C44.1892 28.5318 44.1892 28.5318 44.2214 28.3174C44.2296 28.259 44.2377 28.2007 44.2461 28.1405C44.1923 28.1279 44.1385 28.1153 44.0831 28.1023C43.2605 27.8961 42.7668 27.5199 42.3175 26.802C42.1788 26.5336 42.1589 26.2887 42.1607 25.9893C42.1611 25.8853 42.1611 25.8853 42.1614 25.7791C42.1623 25.6714 42.1623 25.6714 42.1633 25.5614C42.1636 25.4884 42.164 25.4154 42.1643 25.3402C42.1652 25.1604 42.1664 24.9805 42.1679 24.8007C42.1096 24.7908 42.0513 24.781 41.9913 24.7708C41.6448 24.6918 41.4756 24.4122 41.2773 24.1327C40.96 23.5949 40.9755 22.9727 41.1199 22.381C41.3645 21.6269 41.6606 21.1528 42.3581 20.765C43.6525 20.1727 45.2389 20.3479 46.3984 21.164ZM46.6211 28.3632C46.6211 28.5101 46.6211 28.6571 46.6211 28.8085C46.6945 28.8085 46.768 28.8085 46.8437 28.8085C46.8192 28.6615 46.7947 28.5146 46.7695 28.3632C46.7205 28.3632 46.6715 28.3632 46.6211 28.3632Z" fill="#F0F6FE"/>
<path d="M28.8138 29.1646C28.891 29.1642 28.9682 29.1638 29.0477 29.1634C29.21 29.1627 29.3723 29.1622 29.5346 29.1619C29.7825 29.1612 30.0303 29.1589 30.2782 29.1565C30.4364 29.156 30.5946 29.1557 30.7528 29.1554C30.8265 29.1544 30.9003 29.1535 30.9763 29.1526C31.492 29.1542 31.7912 29.2632 32.2226 29.5508C32.2716 29.5018 32.3206 29.4528 32.3711 29.4024C32.5937 29.3838 32.5937 29.3838 32.8164 29.4024C32.9648 29.5508 32.9648 29.5508 32.988 29.7317C32.9607 29.9554 32.9039 29.9982 32.7422 30.1446C32.804 30.1456 32.8657 30.1467 32.9294 30.1478C33.1589 30.1524 33.3884 30.1579 33.6178 30.164C33.7659 30.1677 33.9139 30.1703 34.062 30.1728C34.1551 30.1755 34.2481 30.1781 34.344 30.1808C34.4299 30.1827 34.5158 30.1847 34.6043 30.1867C34.8203 30.2188 34.8203 30.2188 34.962 30.3206C35.043 30.4414 35.043 30.4414 35.0337 30.6316C34.9687 30.8125 34.9687 30.8125 34.7461 30.961C34.5548 30.9948 34.3681 31.0225 34.1755 31.0445C34.1234 31.0509 34.0713 31.0573 34.0177 31.0639C33.8894 31.0796 33.7611 31.0946 33.6328 31.1094C33.6446 31.1645 33.6563 31.2196 33.6685 31.2764C33.7408 31.6592 33.7832 31.9549 33.5679 32.2923C33.4092 32.4463 33.3372 32.5158 33.1173 32.5268C32.8926 32.5232 32.8926 32.5232 32.668 32.5196C32.6898 32.6142 32.7117 32.7088 32.7342 32.8063C32.8178 33.1833 32.883 33.5619 32.9445 33.9431C32.9559 34.0124 32.9672 34.0818 32.9788 34.1532C33.0025 34.2986 33.0261 34.4439 33.0496 34.5892C33.0856 34.812 33.122 35.0348 33.1585 35.2575C33.1815 35.3992 33.2045 35.5409 33.2275 35.6826C33.2384 35.7491 33.2493 35.8157 33.2605 35.8843C33.2704 35.946 33.2804 36.0077 33.2906 36.0713C33.3038 36.1526 33.3038 36.1526 33.3172 36.2355C33.3359 36.3789 33.3359 36.3789 33.3359 36.6016C33.9482 36.6016 34.5605 36.6016 35.1914 36.6016C35.2649 37.0057 35.2649 37.0057 35.3398 37.418C35.4586 37.6685 35.4586 37.6685 35.7109 37.7891C36.0311 37.8418 36.3466 37.8387 36.6705 37.8357C36.768 37.8362 36.8655 37.8368 36.966 37.8373C37.1778 37.8385 37.3895 37.8385 37.6012 37.8375C37.9358 37.8361 38.2704 37.8372 38.605 37.8387C39.1339 37.8407 39.6628 37.841 40.1918 37.8405C41.1399 37.8397 42.0879 37.8415 43.036 37.8445C43.3688 37.8454 43.7017 37.8455 44.0345 37.8449C44.1914 37.8447 44.3484 37.8448 44.5053 37.8451C44.697 37.8454 44.8886 37.8451 45.0803 37.8443C45.1642 37.8445 45.2482 37.8448 45.3347 37.8451C45.408 37.8451 45.4813 37.845 45.5567 37.8449C45.7305 37.8633 45.7305 37.8633 45.8789 38.0117C45.9124 38.2685 45.9029 38.5277 45.9021 38.7864C45.9033 38.8582 45.9045 38.93 45.9057 39.004C45.9058 39.0729 45.9058 39.1419 45.9059 39.2129C45.9062 39.3077 45.9062 39.3077 45.9065 39.4043C45.8789 39.5703 45.8789 39.5703 45.783 39.7031C45.5794 39.8475 45.3778 39.8066 45.1367 39.793C45.1367 40.0379 45.1367 40.2828 45.1367 40.5352C38.7687 40.5352 32.4008 40.5352 25.8398 40.5352C25.8398 40.2903 25.8398 40.0453 25.8398 39.793C25.7465 39.7976 25.6531 39.8022 25.5569 39.8069C25.3665 39.8163 25.28 39.8191 25.1271 39.7015C24.9953 39.5348 24.9947 39.4425 24.9939 39.2317C24.9936 39.1665 24.9933 39.1012 24.993 39.034C24.9938 38.9661 24.9947 38.8981 24.9956 38.8282C24.9947 38.7602 24.9939 38.6923 24.993 38.6223C24.9933 38.5571 24.9936 38.4918 24.9939 38.4246C24.9942 38.3352 24.9942 38.3352 24.9946 38.244C25.0307 38.0462 25.0853 37.9817 25.2461 37.8633C25.8569 37.7551 26.487 37.7647 27.1062 37.7473C27.214 37.7441 27.3218 37.7409 27.4296 37.7376C27.6913 37.7298 27.9531 37.7222 28.2148 37.7149C28.169 37.6575 28.1232 37.6001 28.076 37.541C27.861 37.2167 27.8222 36.8671 27.7643 36.4885C27.7519 36.4129 27.7395 36.3373 27.7267 36.2594C27.6874 36.018 27.6496 35.7763 27.6118 35.5347C27.5859 35.3751 27.5599 35.2156 27.5338 35.056C27.4096 34.2894 27.2944 33.5229 27.2054 32.7513C27.1793 32.5474 27.1449 32.3493 27.1015 32.1485C27.0113 31.7279 26.9618 31.3026 26.9128 30.8757C26.8925 30.7049 26.8699 30.5342 26.8427 30.3643C26.7939 30.038 26.7828 29.893 26.9299 29.5879C27.4055 29.0738 28.159 29.1675 28.8138 29.1646Z" fill="#9F6167"/>
<path d="M17.75 41.0547C18.1072 41.4043 18.1072 41.4043 18.2324 41.5974C18.3374 41.7426 18.3374 41.7426 18.5339 41.7505C18.7279 41.7389 18.7279 41.7389 18.8633 41.5742C19.0802 41.5602 19.29 41.5555 19.5069 41.5574C19.5746 41.5573 19.6423 41.5573 19.7121 41.5573C19.9319 41.5574 20.1516 41.5586 20.3714 41.5597C20.5069 41.5599 20.6423 41.5601 20.7777 41.5602C21.2807 41.561 21.7837 41.563 22.2866 41.5649C23.4102 41.568 24.5338 41.5711 25.6914 41.5742C25.6914 43.852 25.6914 46.1298 25.6914 48.4766C22.5564 48.4766 19.4214 48.4766 16.1914 48.4766C16.1914 46.7621 16.1914 45.0477 16.1914 43.2812C16.4363 43.2323 16.6813 43.1833 16.9336 43.1328C17.268 42.9718 17.4635 42.7839 17.6204 42.4428C17.7444 41.9937 17.7388 41.518 17.75 41.0547Z" fill="#5150AB"/>
<path d="M46.3984 21.164C46.6127 21.3896 46.779 21.6283 46.918 21.9061C47.0599 21.9767 47.0599 21.9767 47.2288 22.0407C47.8236 22.2989 48.1401 22.6581 48.4023 23.2421C48.6297 23.947 48.4791 24.7179 48.1582 25.3646C47.8905 25.8391 47.5782 26.2788 47.0896 26.5402C46.918 26.5819 46.918 26.5819 46.6211 26.5819C46.6211 26.9983 46.6211 27.4147 46.6211 27.8436C46.7681 27.8926 46.915 27.9416 47.0664 27.9921C47.2956 28.2134 47.3347 28.4223 47.3633 28.7343C47.1197 29.5857 46.4077 30.2782 45.8475 30.9365C45.6623 31.1563 45.485 31.3693 45.3594 31.6288C45.4285 31.9035 45.4285 31.9035 45.582 32.1483C45.6119 32.5947 45.4973 32.918 45.2109 33.2616C44.5198 33.9958 44.5198 33.9958 44.1765 34.0177C43.9492 34.0038 43.9492 34.0038 43.7266 33.8554C43.7511 33.7574 43.7756 33.6594 43.8008 33.5585C43.8661 33.566 43.9315 33.5734 43.9988 33.5811C44.3266 33.5511 44.4187 33.4342 44.6404 33.1967C44.7044 33.1295 44.7684 33.0624 44.8343 32.9932C45.0602 32.7337 45.0874 32.5669 45.0842 32.2205C45.072 32.056 45.072 32.056 44.9233 31.8932C44.6398 31.6847 44.45 31.6787 44.0977 31.703C43.8108 31.8635 43.7315 32.043 43.6225 32.3466C43.5918 32.4307 43.5611 32.5149 43.5296 32.6015C43.4981 32.6908 43.4667 32.78 43.4343 32.872C43.4017 32.9623 43.3691 33.0526 43.3355 33.1456C43.131 33.7149 42.9335 34.2862 42.7498 34.8625C42.6875 35.0429 42.6875 35.0429 42.6133 35.1171C42.514 35.1338 42.414 35.1463 42.3138 35.1568C42.2538 35.1633 42.1937 35.1697 42.1319 35.1764C42.0688 35.1828 42.0057 35.1893 41.9407 35.1959C41.8456 35.2061 41.8456 35.2061 41.7486 35.2164C41.5916 35.2331 41.4345 35.2493 41.2773 35.2655C41.2891 35.2289 41.3009 35.1922 41.313 35.1544C41.3669 34.8946 41.3691 34.6358 41.3751 34.3714C41.3766 34.3142 41.3781 34.2569 41.3797 34.198C41.3846 34.0157 41.3889 33.8335 41.3933 33.6513C41.3965 33.5275 41.3998 33.4037 41.403 33.2799C41.411 32.9769 41.4185 32.674 41.4258 32.371C41.3783 32.3496 41.3309 32.3281 41.282 32.3061C41.1289 32.2226 41.1289 32.2226 41.0547 32.0741C41.0176 31.7465 41.0171 31.6051 41.217 31.3366C41.4406 31.1726 41.5277 31.145 41.7969 31.1835C41.8156 31.1307 41.8344 31.0779 41.8537 31.0235C42.0912 30.4762 42.4929 29.9642 42.9844 29.6249C43.0334 29.6249 43.0823 29.6249 43.1328 29.6249C43.1632 29.5595 43.1632 29.5595 43.1943 29.4927C43.3816 29.138 43.6361 28.8665 43.9724 28.6508C44.1893 28.5318 44.1893 28.5318 44.2215 28.3174C44.2296 28.259 44.2377 28.2007 44.2461 28.1405C44.1923 28.1279 44.1386 28.1153 44.0832 28.1023C43.2606 27.8961 42.7668 27.5199 42.3176 26.802C42.1789 26.5336 42.1589 26.2887 42.1607 25.9893C42.161 25.92 42.1612 25.8506 42.1615 25.7791C42.1621 25.7073 42.1627 25.6354 42.1633 25.5614C42.1637 25.4884 42.164 25.4154 42.1644 25.3402C42.1652 25.1604 42.1664 24.9805 42.168 24.8007C42.1097 24.7908 42.0514 24.781 41.9913 24.7708C41.6449 24.6918 41.4756 24.4122 41.2773 24.1327C40.96 23.5949 40.9755 22.9727 41.1199 22.381C41.3646 21.6269 41.6606 21.1528 42.3582 20.765C43.6526 20.1727 45.2389 20.3479 46.3984 21.164ZM46.6211 28.3632C46.6211 28.5101 46.6211 28.6571 46.6211 28.8085C46.6946 28.8085 46.7681 28.8085 46.8438 28.8085C46.8193 28.6615 46.7948 28.5146 46.7695 28.3632C46.7206 28.3632 46.6716 28.3632 46.6211 28.3632Z" fill="#F7C3BF"/>
<path d="M28.8138 29.1646C28.891 29.1642 28.9682 29.1638 29.0477 29.1634C29.21 29.1627 29.3723 29.1622 29.5346 29.1619C29.7825 29.1612 30.0303 29.1589 30.2782 29.1565C30.4364 29.156 30.5946 29.1557 30.7528 29.1554C30.8265 29.1544 30.9003 29.1535 30.9763 29.1526C31.492 29.1542 31.7912 29.2632 32.2227 29.5508C32.2716 29.5018 32.3206 29.4528 32.3711 29.4024C32.5938 29.3838 32.5938 29.3838 32.8164 29.4024C32.9648 29.5508 32.9648 29.5508 32.988 29.7317C32.9608 29.9554 32.9039 29.9982 32.7422 30.1446C32.804 30.1456 32.8658 30.1467 32.9294 30.1478C33.1589 30.1524 33.3884 30.1579 33.6178 30.164C33.7659 30.1677 33.914 30.1703 34.062 30.1728C34.1551 30.1755 34.2481 30.1781 34.344 30.1808C34.4299 30.1827 34.5158 30.1847 34.6043 30.1867C34.8203 30.2188 34.8203 30.2188 34.962 30.3206C35.043 30.4414 35.043 30.4414 35.0337 30.6316C34.9688 30.8125 34.9688 30.8125 34.7461 30.961C34.5548 30.9948 34.3681 31.0225 34.1755 31.0445C34.1234 31.0509 34.0713 31.0573 34.0177 31.0639C33.8895 31.0796 33.7611 31.0946 33.6328 31.1094C33.6446 31.1645 33.6563 31.2196 33.6685 31.2764C33.7408 31.6592 33.7832 31.9549 33.5679 32.2923C33.4092 32.4463 33.3372 32.5158 33.1173 32.5268C32.8927 32.5232 32.8927 32.5232 32.668 32.5196C32.6898 32.6142 32.7117 32.7088 32.7342 32.8063C32.8179 33.1833 32.883 33.5619 32.9445 33.9431C32.9559 34.0124 32.9672 34.0818 32.9789 34.1532C33.0025 34.2986 33.0261 34.4439 33.0496 34.5892C33.0856 34.812 33.122 35.0348 33.1585 35.2575C33.1815 35.3992 33.2045 35.5409 33.2275 35.6826C33.2384 35.7491 33.2493 35.8157 33.2605 35.8843C33.2705 35.946 33.2804 36.0077 33.2906 36.0713C33.3038 36.1526 33.3038 36.1526 33.3172 36.2355C33.3359 36.3789 33.3359 36.3789 33.3359 36.6016C33.9482 36.6016 34.5605 36.6016 35.1914 36.6016C35.2649 37.0057 35.2649 37.0057 35.3398 37.418C35.4465 37.6444 35.4465 37.6444 35.5625 37.7891C34.6303 37.7977 33.698 37.8043 32.7657 37.8083C32.3329 37.8103 31.9 37.8129 31.4671 37.8171C31.0494 37.8211 30.6317 37.8233 30.214 37.8243C30.0546 37.825 29.8952 37.8263 29.7358 37.8283C29.5126 37.831 29.2895 37.8314 29.0663 37.8312C29.0003 37.8326 28.9343 37.8339 28.8663 37.8353C28.5378 37.8325 28.4055 37.8221 28.1386 37.6134C27.979 37.4005 27.9228 37.2572 27.8719 36.9973C27.8549 36.9123 27.8378 36.8273 27.8203 36.7398C27.8035 36.6452 27.7868 36.5506 27.7695 36.4532C27.7604 36.402 27.7512 36.3508 27.7418 36.298C27.6814 35.9567 27.6251 35.6147 27.5706 35.2723C27.5424 35.095 27.5136 34.9177 27.4847 34.7405C27.3786 34.0839 27.2853 33.4274 27.2078 32.7668C27.1807 32.5576 27.1462 32.3545 27.1016 32.1485C27.0113 31.7279 26.9619 31.3026 26.9128 30.8757C26.8926 30.7049 26.87 30.5342 26.8427 30.3643C26.7939 30.038 26.7828 29.893 26.9299 29.5879C27.4055 29.0738 28.159 29.1675 28.8138 29.1646Z" fill="#475F9C"/>
<path d="M24.1096 16.3444C25.0224 17.3403 25.3564 18.6323 25.6914 19.9023C25.4955 19.8778 25.2995 19.8533 25.0977 19.8281C25.3063 20.6556 25.3063 20.6556 25.645 21.4331C25.7656 21.6835 25.7656 21.6835 25.7888 21.948C25.5989 22.4454 25.1218 22.6889 24.657 22.9082C24.4926 22.9801 24.4926 22.9801 24.3555 23.0195C24.3065 22.995 24.2575 22.9705 24.207 22.9453C24.2312 22.911 24.2554 22.8768 24.2804 22.8415C24.3128 22.7931 24.3452 22.7447 24.3787 22.6948C24.4105 22.6483 24.4424 22.6018 24.4752 22.5539C24.7954 21.9243 24.8472 21.2912 24.8564 20.5935C24.8633 20.4616 24.8633 20.4616 24.8704 20.3272C24.8836 19.8439 24.8836 19.8439 24.6566 19.4364C24.4877 19.3058 24.315 19.1967 24.1328 19.0859C23.7024 18.6936 23.5164 18.2147 23.3164 17.6757C23.2867 17.7117 23.2569 17.7477 23.2262 17.7847C22.4584 18.6901 21.5343 19.2994 20.5007 19.8605C20.456 19.885 20.4114 19.9095 20.3653 19.9348C20.0696 20.0912 19.7775 20.1822 19.457 20.2734C19.2245 20.4821 19.1666 20.5932 19.1277 20.9042C19.163 21.1871 19.1972 21.3196 19.3828 21.5351C19.5543 21.6086 19.7257 21.6821 19.9023 21.7578C19.9023 22.3701 19.9023 22.9824 19.9023 23.6132C19.5262 23.8013 18.9771 23.7304 18.5786 23.6393C18.0854 23.4618 17.7297 23.1746 17.4392 22.7388C17.2484 22.2177 17.4608 21.671 17.5969 21.1594C17.638 21.0024 17.6788 20.8453 17.7196 20.6883C17.7378 20.6193 17.7561 20.5503 17.7749 20.4792C17.8649 20.1035 17.9074 19.7476 17.9115 19.3613C17.9133 19.273 17.915 19.1847 17.9168 19.0937C17.92 18.9109 17.9223 18.728 17.9238 18.5452C17.9416 17.7743 18.0672 16.9974 18.5824 16.3911C19.0674 15.9316 19.523 15.8725 20.1667 15.8898C20.2597 15.893 20.2597 15.893 20.3546 15.8962C20.7598 15.9065 21.0398 15.8677 21.4001 15.6692C22.2685 15.2089 23.4525 15.7468 24.1096 16.3444Z" fill="#333077"/>
<path d="M23.3164 17.5273C23.4573 17.7387 23.5124 17.8909 23.5854 18.1304C23.7496 18.5917 24.0349 19.0733 24.489 19.3015C24.6531 19.3893 24.757 19.4604 24.875 19.6055C24.9471 19.9328 24.9339 20.2507 24.9214 20.5842C24.9209 20.6719 24.9204 20.7596 24.9199 20.8499C24.9031 21.7401 24.703 22.4694 24.1328 23.168C23.7428 23.5025 23.3187 23.7617 22.7968 23.7617C22.795 24.1194 22.7937 24.4771 22.7928 24.8349C22.7924 24.9563 22.7919 25.0777 22.7912 25.1991C22.783 26.0398 22.783 26.0398 22.8544 26.8764C22.8887 27.1868 22.8787 27.4994 22.8757 27.8113C22.8754 27.8791 22.875 27.9468 22.8747 28.0167C22.8738 28.1817 22.8726 28.3467 22.8711 28.5117C22.6058 28.2526 22.3582 27.984 22.1196 27.7C22.0844 27.6582 22.0493 27.6165 22.0131 27.5735C21.6561 27.1474 21.3133 26.7106 20.9721 26.2717C20.7877 26.0346 20.6025 25.798 20.4172 25.5615C20.3827 25.5172 20.3481 25.4729 20.3125 25.4273C20.1816 25.2601 20.0526 25.0996 19.9023 24.9492C19.8845 24.8102 19.8845 24.8102 19.8855 24.6394C19.8855 24.5755 19.8855 24.5116 19.8855 24.4458C19.8863 24.3768 19.887 24.3077 19.8878 24.2366C19.888 24.166 19.8882 24.0953 19.8885 24.0226C19.8893 23.7965 19.8912 23.5704 19.893 23.3442C19.8938 23.1912 19.8945 23.0381 19.8951 22.885C19.8967 22.5093 19.8993 22.1335 19.9023 21.7578C19.8453 21.7493 19.7883 21.7408 19.7295 21.732C19.4572 21.6655 19.3422 21.5198 19.1601 21.3125C19.0433 21.0788 19.0601 20.9028 19.0859 20.6445C19.3231 20.2274 19.5767 20.1437 20.0194 19.9995C21.131 19.5744 22.6735 18.7245 23.2601 17.6564C23.288 17.5925 23.288 17.5925 23.3164 17.5273Z" fill="#F6C2BF"/>
<path d="M18.2695 29.7734C18.392 29.7734 18.5144 29.7734 18.6406 29.7734C18.6402 29.8532 18.6398 29.9329 18.6394 30.0151C18.6362 30.7675 18.636 31.5198 18.6389 32.2722C18.6403 32.659 18.6406 33.0457 18.6383 33.4325C18.6362 33.806 18.637 34.1794 18.6398 34.5528C18.6403 34.6951 18.6399 34.8374 18.6383 34.9797C18.6016 35.7364 18.6016 35.7364 18.8427 36.4279C18.9922 36.5601 19.1349 36.6531 19.3086 36.75C19.3987 36.8274 19.4873 36.9066 19.5736 36.9883C20.7221 38.0216 20.7221 38.0216 22.1289 38.6055C22.2595 38.6347 22.2595 38.6347 22.3927 38.6646C23.2634 38.8449 24.1366 38.8799 25.0234 38.9023C25.0289 38.9721 25.0289 38.9721 25.0344 39.0432C25.04 39.1039 25.0455 39.1646 25.0513 39.2271C25.059 39.3175 25.059 39.3175 25.0669 39.4097C25.085 39.5854 25.085 39.5854 25.2461 39.7188C25.442 39.7432 25.638 39.7677 25.8398 39.793C25.8398 40.4053 25.8398 41.0176 25.8398 41.6484C22.3864 41.6117 22.3864 41.6117 18.8633 41.5742C18.8388 41.4028 18.8143 41.2313 18.7891 41.0547C18.6731 40.8594 18.6731 40.8594 18.5283 40.6798C18.2006 40.1869 18.1991 39.7641 18.2105 39.185C18.2107 39.0817 18.2106 38.9785 18.2103 38.8753C18.2102 38.5976 18.2132 38.32 18.2168 38.0423C18.2201 37.7512 18.2204 37.4601 18.221 37.169C18.2226 36.6188 18.2269 36.0688 18.2321 35.5186C18.2379 34.8918 18.2408 34.2651 18.2434 33.6383C18.2488 32.35 18.2579 31.0617 18.2695 29.7734Z" fill="#5DB19C"/>
<path d="M46.3984 21.164C46.6127 21.3896 46.779 21.6283 46.918 21.9061C47.0599 21.9767 47.0599 21.9767 47.2288 22.0407C47.8236 22.2989 48.1401 22.6581 48.4023 23.2421C48.6297 23.947 48.4791 24.7179 48.1582 25.3646C47.8905 25.8391 47.5782 26.2788 47.0896 26.5402C46.918 26.5819 46.918 26.5819 46.6211 26.5819C46.62 26.4934 46.619 26.4049 46.6179 26.3138C46.6144 26.1975 46.6108 26.0812 46.6072 25.965C46.6068 25.9067 46.6063 25.8484 46.6059 25.7883C46.5996 25.6244 46.5897 25.4786 46.5469 25.3202C46.3779 25.1753 46.3779 25.1753 46.1758 25.0976C45.7618 24.7391 45.5745 24.2822 45.4336 23.7616C45.4336 23.6881 45.4336 23.6147 45.4336 23.539C45.3919 23.5497 45.3502 23.5604 45.3072 23.5714C44.3383 23.7854 43.2961 23.7284 42.3164 23.6132C42.2674 24.0051 42.2184 24.3969 42.168 24.8007C41.6912 24.7053 41.5501 24.5173 41.2773 24.1327C40.96 23.5949 40.9755 22.9727 41.1199 22.381C41.3646 21.6269 41.6606 21.1528 42.3582 20.765C43.6526 20.1727 45.2389 20.3479 46.3984 21.164Z" fill="#353E57"/>
<path d="M22.2031 41.5742C23.3543 41.5742 24.5054 41.5742 25.6914 41.5742C25.6914 43.852 25.6914 46.1298 25.6914 48.4766C24.5403 48.4766 23.3891 48.4766 22.2031 48.4766C22.2031 46.1988 22.2031 43.921 22.2031 41.5742Z" fill="#504FAB"/>
<path d="M30.6641 29.2538C30.8404 29.2458 31.0164 29.2399 31.1929 29.2353C31.2422 29.2328 31.2916 29.2303 31.3425 29.2277C31.7393 29.22 31.9227 29.3133 32.2227 29.5507C32.2716 29.5017 32.3206 29.4527 32.3711 29.4023C32.5938 29.3837 32.5938 29.3837 32.8164 29.4023C32.9648 29.5507 32.9648 29.5507 32.988 29.7316C32.9608 29.9553 32.9039 29.9981 32.7422 30.1445C32.804 30.1455 32.8658 30.1466 32.9294 30.1477C33.1589 30.1523 33.3884 30.1578 33.6178 30.1639C33.7659 30.1676 33.914 30.1702 34.062 30.1727C34.1551 30.1754 34.2481 30.178 34.344 30.1807C34.4299 30.1826 34.5158 30.1846 34.6043 30.1866C34.8203 30.2187 34.8203 30.2187 34.962 30.3205C35.043 30.4413 35.043 30.4413 35.0337 30.6315C34.9688 30.8124 34.9688 30.8124 34.7461 30.9609C34.5548 30.9947 34.3681 31.0224 34.1755 31.0444C34.1234 31.0508 34.0713 31.0572 34.0177 31.0638C33.8895 31.0795 33.7611 31.0945 33.6328 31.1093C33.6446 31.1644 33.6563 31.2195 33.6685 31.2763C33.7408 31.6591 33.7832 31.9548 33.5679 32.2922C33.4092 32.4461 33.3372 32.5157 33.1173 32.5267C32.9675 32.5243 32.8178 32.5219 32.668 32.5195C32.6898 32.6141 32.7117 32.7087 32.7342 32.8062C32.8179 33.1832 32.883 33.5618 32.9445 33.943C32.9559 34.0123 32.9672 34.0817 32.9789 34.1531C33.0025 34.2984 33.0261 34.4438 33.0496 34.5891C33.0856 34.8119 33.122 35.0347 33.1585 35.2574C33.1815 35.3991 33.2045 35.5408 33.2275 35.6825C33.2384 35.749 33.2493 35.8156 33.2605 35.8842C33.2705 35.9459 33.2804 36.0076 33.2906 36.0712C33.2994 36.1254 33.3082 36.1796 33.3172 36.2354C33.3359 36.3788 33.3359 36.3788 33.3359 36.6015C33.9482 36.6015 34.5605 36.6015 35.1914 36.6015C35.2404 36.8709 35.2894 37.1403 35.3398 37.4179C35.4133 37.5404 35.4868 37.6628 35.5625 37.789C34.3134 37.789 33.0643 37.789 31.7773 37.789C31.8998 37.642 32.0223 37.4951 32.1484 37.3437C32.3045 36.8424 32.158 36.3179 32.0696 35.8129C32.0525 35.7119 32.0355 35.6109 32.0186 35.5099C31.9824 35.2941 31.9458 35.0784 31.909 34.8627C31.8204 34.3417 31.7368 33.8199 31.6527 33.2982C31.6243 33.123 31.5958 32.9478 31.5672 32.7726C31.4821 32.2509 31.3983 31.7292 31.3199 31.2064C31.3068 31.1209 31.2938 31.0354 31.2804 30.9473C31.2569 30.792 31.234 30.6365 31.2118 30.4809C31.1391 30.0036 31.0473 29.5823 30.6641 29.2538Z" fill="#343178"/>
<path d="M25.8398 39.793C32.1833 39.793 38.5268 39.793 45.0625 39.793C45.0625 40.0379 45.0625 40.2828 45.0625 40.5352C38.719 40.5352 32.3755 40.5352 25.8398 40.5352C25.8398 40.2902 25.8398 40.0453 25.8398 39.793Z" fill="#8A4E57"/>
<path d="M19.1602 24.8751C19.4206 24.8261 19.6425 24.8179 19.9023 24.8751C20.1745 25.083 20.366 25.3443 20.5703 25.6173C20.6273 25.6906 20.6844 25.764 20.7431 25.8396C20.8659 25.9982 20.9876 26.1573 21.1087 26.3171C21.3357 26.6148 21.572 26.9046 21.8088 27.1944C22.1439 27.6045 22.4745 28.0173 22.7969 28.4376C22.7989 28.2165 22.8004 27.9954 22.8015 27.7742C22.8024 27.6818 22.8024 27.6818 22.8034 27.5874C22.8046 27.2868 22.797 26.9942 22.7598 26.6958C22.7133 26.3218 22.7144 25.9518 22.718 25.5755C22.7184 25.5077 22.7187 25.4399 22.719 25.3701C22.7199 25.2051 22.7211 25.0401 22.7227 24.8751C23.2834 24.8147 23.2834 24.8147 23.5223 24.9492C23.6378 25.0514 23.7393 25.1577 23.8406 25.274C23.8765 25.3117 23.9124 25.3494 23.9494 25.3882C24.207 25.6651 24.207 25.6651 24.207 25.8399C24.0934 25.9356 24.0934 25.9356 23.9473 26.0347C23.899 26.0678 23.8508 26.1009 23.8011 26.1351C23.7636 26.1601 23.7261 26.1852 23.6875 26.211C23.8166 26.3401 23.9987 26.3128 24.1746 26.327C24.2497 26.3332 24.3248 26.3394 24.4021 26.3458C24.4893 26.3526 24.4893 26.3526 24.5781 26.3594C24.542 26.9548 24.4138 27.5094 24.2627 28.085C24.2157 28.2682 24.1688 28.4515 24.1221 28.6347C24.0989 28.7257 24.0757 28.8167 24.0517 28.9104C23.8938 29.5417 23.754 30.1773 23.6133 30.8126C23.3652 30.7299 23.3119 30.666 23.1494 30.4693C22.9769 30.2657 22.8022 30.0714 22.6113 29.8848C22.3817 29.6593 22.1719 29.4211 21.9619 29.1774C21.8366 29.0365 21.7068 28.9037 21.5723 28.7716C21.3429 28.5463 21.1331 28.3085 20.9237 28.0647C20.7943 27.9195 20.659 27.7843 20.5193 27.649C20.2997 27.4338 20.1364 27.2154 19.9766 26.9532C20.1235 26.9287 20.2705 26.9042 20.4219 26.879C20.4219 26.83 20.4219 26.781 20.4219 26.7305C20.3815 26.7109 20.3411 26.6913 20.2995 26.6711C19.3922 26.2084 19.3922 26.2084 19.2567 25.8516C19.1831 25.5288 19.1657 25.2053 19.1602 24.8751Z" fill="#5EB19C"/>
<path d="M48.5508 36.5273C48.5753 36.5273 48.5998 36.5273 48.625 36.5273C48.625 39.197 48.625 41.8666 48.625 44.6172C47.4494 44.6172 46.2737 44.6172 45.0625 44.6172C45.0625 43.2701 45.0625 41.923 45.0625 40.5352C45.087 40.5352 45.1115 40.5352 45.1367 40.5352C45.1612 41.3679 45.1857 42.2006 45.2109 43.0586C46.2275 42.6955 47.3359 42.2685 47.8925 41.2748C47.9974 41.0377 47.9981 40.8156 48.0023 40.5586C48.0035 40.5067 48.0047 40.4547 48.006 40.4011C48.0095 40.2371 48.0112 40.073 48.0127 39.9089C48.0148 39.7969 48.017 39.6848 48.0194 39.5728C48.0248 39.2998 48.0285 39.0269 48.0312 38.7539C47.9861 38.7319 47.9409 38.7099 47.8943 38.6872C47.7035 38.5897 47.5341 38.4734 47.3586 38.3503C47.295 38.306 47.2314 38.2617 47.1658 38.2161C47.0194 38.1064 46.894 37.9967 46.7695 37.8633C46.8261 37.8434 46.8826 37.8235 46.9409 37.803C47.6553 37.5318 48.1616 37.1925 48.5508 36.5273Z" fill="#C7D9F7"/>
<path d="M45.1367 44.6172C46.3123 44.6172 47.488 44.6172 48.6992 44.6172C48.6992 45.8696 48.6992 45.8696 48.625 46.3984C48.527 46.3984 48.4291 46.3984 48.3281 46.3984C48.3001 46.4647 48.3001 46.4647 48.2716 46.5324C48.1677 46.7166 48.0667 46.8031 47.8967 46.9272C47.8473 46.9642 47.7978 47.0011 47.7468 47.0392C47.4043 47.2552 47.1279 47.3072 46.724 47.3036C46.6406 47.3032 46.5571 47.3028 46.4711 47.3024C46.366 47.3011 46.2609 47.2997 46.1526 47.2983C45.8174 47.2953 45.4821 47.2922 45.1367 47.2891C45.1367 46.4073 45.1367 45.5256 45.1367 44.6172Z" fill="#FB9234"/>
<path d="M46.6211 27.8438C46.8543 27.9059 47.0253 27.9525 47.2009 28.1221C47.3445 28.3942 47.3925 28.6323 47.307 28.9309C46.9295 29.6838 46.3907 30.2984 45.8475 30.9366C45.6623 31.1564 45.485 31.3694 45.3594 31.6289C45.4285 31.9036 45.4285 31.9036 45.582 32.1484C45.6119 32.5948 45.4973 32.9181 45.2109 33.2617C44.5198 33.9959 44.5198 33.9959 44.1765 34.0178C43.9492 34.0039 43.9492 34.0039 43.7266 33.8555C43.7633 33.7085 43.7633 33.7085 43.8008 33.5586C43.8661 33.5661 43.9315 33.5735 43.9988 33.5812C44.3266 33.5512 44.4187 33.4343 44.6404 33.1968C44.7364 33.096 44.7364 33.096 44.8343 32.9933C45.0602 32.7338 45.0874 32.567 45.0842 32.2206C45.072 32.0561 45.072 32.0561 44.9233 31.8933C44.6398 31.6848 44.45 31.6788 44.0977 31.7031C43.8108 31.8636 43.7315 32.0431 43.6225 32.3467C43.5918 32.4308 43.5611 32.515 43.5295 32.6016C43.4981 32.6909 43.4667 32.7801 43.4343 32.8721C43.4017 32.9624 43.3691 33.0527 43.3355 33.1457C43.131 33.715 42.9334 34.2863 42.7498 34.8626C42.6875 35.043 42.6875 35.043 42.6133 35.1172C42.514 35.1339 42.4139 35.1464 42.3138 35.1569C42.2538 35.1634 42.1937 35.1698 42.1319 35.1765C42.0688 35.1829 42.0057 35.1894 41.9407 35.196C41.8456 35.2062 41.8456 35.2062 41.7486 35.2165C41.5915 35.2332 41.4344 35.2494 41.2773 35.2656C41.8178 33.4167 43.0004 31.6157 44.0886 30.0427C44.2209 29.8508 44.3191 29.7038 44.3806 29.4766C44.4688 29.2539 44.4688 29.2539 44.6311 29.1147C44.885 29.0132 45.0883 29.0153 45.3594 29.0312C45.0957 29.3796 45.0957 29.3796 44.9146 29.5035C44.7345 29.6504 44.6787 29.7738 44.5905 29.9877C44.5613 30.0573 44.5322 30.1269 44.5021 30.1986C44.4727 30.2711 44.4433 30.3435 44.4131 30.4182C44.3673 30.5282 44.3673 30.5282 44.3206 30.6404C44.2455 30.8212 44.1712 31.0022 44.0977 31.1836C44.4343 31.281 44.7157 31.3213 45.0625 31.2578C45.3603 30.9969 45.5643 30.6966 45.7798 30.3666C45.9383 30.1301 46.1155 29.9088 46.2917 29.6853C46.6713 29.2347 46.6713 29.2347 46.7788 28.6833C46.7775 28.6234 46.7761 28.5634 46.7747 28.5016C46.773 28.4559 46.7713 28.4103 46.7695 28.3633C46.7205 28.3633 46.6716 28.3633 46.6211 28.3633C46.6211 28.1918 46.6211 28.0204 46.6211 27.8438Z" fill="#F79338"/>
<path d="M15.0781 40.2382C15.5323 40.2143 15.9861 40.1968 16.4407 40.1852C16.5951 40.1804 16.7495 40.1738 16.9037 40.1654C18.1429 40.0999 18.1429 40.0999 18.4753 40.3289C18.7169 40.5814 18.8516 40.864 18.9375 41.2031C18.9114 41.6002 18.9114 41.6002 18.7148 41.7968C18.5377 41.827 18.5377 41.827 18.3437 41.7968C18.1939 41.6507 18.1939 41.6507 18.0608 41.4628C18.0159 41.4008 17.971 41.3388 17.9248 41.275C17.875 41.2026 17.875 41.2026 17.8242 41.1289C17.8213 41.2391 17.8213 41.2391 17.8184 41.3515C17.7936 42.004 17.7626 42.5419 17.2676 43.0122C16.8314 43.2957 16.4879 43.3416 15.9687 43.2812C15.6057 43.1064 15.389 42.8569 15.1523 42.539C15.0693 42.2898 15.0697 42.1024 15.0709 41.84C15.0711 41.747 15.0713 41.6539 15.0716 41.5581C15.0722 41.4608 15.0728 41.3636 15.0735 41.2634C15.0739 41.1643 15.0742 41.0652 15.0745 40.9661C15.0754 40.7234 15.0766 40.4808 15.0781 40.2382Z" fill="#F7C3BF"/>
<path d="M46.1758 30.4414C46.2359 30.6502 46.2572 30.8275 46.2483 31.0443C46.2449 31.1334 46.2449 31.1334 46.2415 31.2244C46.2371 31.3199 46.2371 31.3199 46.2326 31.4173C46.2297 31.4833 46.2269 31.5494 46.2239 31.6175C46.2176 31.7571 46.2111 31.8967 46.2044 32.0363C46.1944 32.2492 46.1859 32.462 46.1775 32.6749C46.1712 32.8108 46.1649 32.9467 46.1584 33.0826C46.1561 33.1459 46.1537 33.2092 46.1513 33.2745C46.126 33.7496 46.0222 34.1351 45.6568 34.4663C45.3187 34.7382 44.9542 34.7854 44.5337 34.8435C44.4207 34.8611 44.4207 34.8611 44.3054 34.8791C43.768 34.9602 43.2309 35.0221 42.6875 35.043C42.8015 34.4473 42.9961 33.8915 43.2024 33.322C43.2356 33.2287 43.2688 33.1354 43.302 33.0421C43.7468 31.8043 43.7468 31.8043 44.0977 31.6289C44.4236 31.5867 44.5784 31.6074 44.8677 31.7681C45.119 31.9715 45.1293 32.0207 45.1738 32.3433C45.1706 32.7027 44.9995 32.8776 44.7558 33.1257C44.71 33.1706 44.6643 33.2155 44.6172 33.2617C44.5544 33.3352 44.4917 33.4087 44.427 33.4844C44.2461 33.6328 44.2461 33.6328 44.0002 33.656C43.9344 33.6484 43.8686 33.6407 43.8008 33.6328C43.8008 33.7063 43.8008 33.7798 43.8008 33.8555C44.0248 33.9675 44.1439 33.9668 44.3945 33.9297C44.8423 33.6265 45.382 33.1346 45.5078 32.5938C45.5014 32.2369 45.4592 31.9435 45.2852 31.6289C45.337 31.5618 45.3889 31.4948 45.4423 31.4257C45.5105 31.3373 45.5787 31.2488 45.647 31.1604C45.6811 31.1162 45.7153 31.0721 45.7505 31.0266C45.8984 30.8347 46.0413 30.6431 46.1758 30.4414Z" fill="#EEF4FD"/>
<path d="M36.8985 35.1914C37.4269 35.2144 37.986 35.4012 38.4571 35.6367C38.4698 35.8284 38.4821 36.0202 38.4942 36.2119C38.4977 36.2646 38.5012 36.3173 38.5049 36.3717C38.5343 36.847 38.5313 37.3098 38.5313 37.7891C40.858 37.7891 43.1848 37.7891 45.5821 37.7891C45.5821 37.8136 45.5821 37.838 45.5821 37.8633C44.3014 37.8702 43.0208 37.8755 41.7402 37.8787C41.1456 37.8802 40.551 37.8823 39.9563 37.8857C39.4381 37.8886 38.9198 37.8906 38.4015 37.8912C38.1271 37.8916 37.8527 37.8925 37.5783 37.8947C37.2719 37.8971 36.9656 37.8971 36.6592 37.897C36.5683 37.8981 36.4773 37.8991 36.3836 37.9002C35.7687 37.8972 35.7687 37.8972 35.4722 37.7229C35.2003 37.4014 35.1581 37.0985 35.1677 36.6871C35.204 36.4427 35.3091 36.3205 35.4883 36.1562C35.758 35.9839 36.0491 35.9602 36.3604 35.9243C36.4121 35.9179 36.4639 35.9115 36.5172 35.9049C36.6442 35.8892 36.7713 35.8742 36.8985 35.8594C36.8495 35.8104 36.8005 35.7614 36.75 35.7109C36.7315 35.5254 36.7315 35.5254 36.75 35.3398C36.799 35.2909 36.848 35.2419 36.8985 35.1914Z" fill="#F3C1BE"/>
<path d="M44.3203 28.5117C44.3203 28.6832 44.3203 28.8546 44.3203 29.0312C44.4918 29.0312 44.6632 29.0312 44.8398 29.0312C44.7817 29.0695 44.7235 29.1078 44.6636 29.1472C44.4568 29.3392 44.4372 29.428 44.3776 29.6923C44.3013 29.8994 44.1825 30.0478 44.0487 30.2231C43.7484 30.6278 43.4864 31.0441 43.2349 31.4805C43.1695 31.5931 43.1695 31.5931 43.1029 31.708C42.2215 33.2257 42.2215 33.2257 41.5 34.8203C41.4755 34.8203 41.451 34.8203 41.4258 34.8203C41.4258 34.0121 41.4258 33.2038 41.4258 32.3711C41.3278 32.3221 41.2298 32.2731 41.1289 32.2227C41.0124 31.9897 41.0286 31.8116 41.0547 31.5547C41.217 31.3367 41.217 31.3367 41.4258 31.1836C41.6345 31.1604 41.6345 31.1604 41.7969 31.1836C41.8156 31.1308 41.8344 31.078 41.8537 31.0236C42.0912 30.4763 42.4929 29.9643 42.9844 29.625C43.0334 29.625 43.0823 29.625 43.1328 29.625C43.1531 29.5814 43.1734 29.5377 43.1943 29.4928C43.3979 29.1073 43.8419 28.5117 44.3203 28.5117Z" fill="#81C2FA"/>
<path d="M47.4375 22.1289C47.9436 22.4492 48.2635 22.8072 48.4479 23.3848C48.6086 24.2485 48.395 25.013 47.933 25.741C47.6686 26.1089 47.3746 26.471 46.918 26.582C46.82 26.582 46.722 26.582 46.6211 26.582C46.62 26.4935 46.619 26.405 46.6179 26.3139C46.6144 26.1976 46.6108 26.0813 46.6072 25.9651C46.6067 25.9068 46.6063 25.8485 46.6059 25.7884C46.5996 25.6245 46.5896 25.4787 46.5469 25.3203C46.3781 25.1771 46.3781 25.1771 46.1758 25.0977C46.0447 24.9753 46.0447 24.9753 45.9346 24.8472C45.8974 24.8053 45.8603 24.7634 45.8221 24.7202C45.7131 24.5512 45.6848 24.4047 45.6562 24.207C45.7083 24.1773 45.7603 24.1475 45.814 24.1169C46.6679 23.6052 47.1068 23.0684 47.4375 22.1289Z" fill="#2D354A"/>
<path d="M46.5469 25.3203C46.5714 25.3203 46.5959 25.3203 46.6211 25.3203C46.6211 26.4714 46.6211 27.6226 46.6211 28.8086C46.6946 28.8086 46.768 28.8086 46.8438 28.8086C46.7975 29.08 46.6823 29.248 46.519 29.4673C46.466 29.5385 46.413 29.6096 46.3584 29.683C46.0605 30.0746 45.7589 30.464 45.4487 30.846C45.3461 30.9744 45.3461 30.9744 45.2202 31.1781C45.0625 31.332 45.0625 31.332 44.8062 31.352C44.6667 31.3352 44.6667 31.3352 44.5244 31.3181C44.4307 31.3079 44.3369 31.2976 44.2403 31.2871C44.1687 31.2774 44.0972 31.2678 44.0234 31.2578C44.1052 31.0567 44.1872 30.8557 44.2693 30.6548C44.2922 30.5983 44.3151 30.5419 44.3387 30.4837C44.7196 29.5537 44.7196 29.5537 45.0393 29.3003C45.1204 29.236 45.2016 29.1717 45.2852 29.1055C44.9668 29.081 44.6484 29.0565 44.3203 29.0312C44.2713 28.7129 44.2223 28.3945 44.1719 28.0664C44.24 28.0546 44.3081 28.0429 44.3783 28.0307C45.1328 27.8873 45.6741 27.7055 46.1572 27.0911C46.5235 26.5463 46.5209 25.9581 46.5469 25.3203Z" fill="#F99B99"/>
<path d="M22.2031 41.5742C22.4236 41.5742 22.644 41.5742 22.8711 41.5742C22.8711 43.852 22.8711 46.1298 22.8711 48.4766C22.6507 48.4766 22.4302 48.4766 22.2031 48.4766C22.2031 46.1988 22.2031 43.921 22.2031 41.5742Z" fill="#363383"/>
<path d="M46.6211 27.8438C46.8543 27.9059 47.0253 27.9525 47.2009 28.1221C47.3445 28.3942 47.3925 28.6323 47.307 28.9309C46.9295 29.6838 46.3907 30.2984 45.8475 30.9366C45.6622 31.1564 45.485 31.3694 45.3594 31.6289C45.4285 31.9036 45.4285 31.9036 45.582 32.1484C45.6119 32.5948 45.4973 32.9181 45.2109 33.2617C44.5198 33.9959 44.5198 33.9959 44.1765 34.0178C43.9492 34.0039 43.9492 34.0039 43.7265 33.8555C43.751 33.7575 43.7755 33.6595 43.8008 33.5586C43.8661 33.5661 43.9315 33.5735 43.9988 33.5812C44.3266 33.5512 44.4187 33.4343 44.6404 33.1968C44.7044 33.1296 44.7684 33.0625 44.8343 32.9933C45.0601 32.7338 45.0874 32.567 45.0842 32.2206C45.0719 32.0561 45.0719 32.0561 44.9233 31.8933C44.7063 31.7337 44.5318 31.6562 44.2568 31.6573C43.8526 31.7736 43.4729 32.1788 43.2577 32.5311C43.1942 32.7027 43.2207 32.7953 43.2812 32.9648C43.0975 33.0016 43.0975 33.0016 42.9101 33.0391C42.7334 32.774 42.7119 32.6835 42.7617 32.3711C42.8944 32.1805 43.0561 32.028 43.2256 31.8701C43.2909 31.806 43.2909 31.806 43.3575 31.7405C43.5671 31.5385 43.7501 31.3684 44.0234 31.2578C44.1861 31.2736 44.3484 31.2925 44.5105 31.3135C44.8663 31.3226 44.8663 31.3226 45.1786 31.172C45.4138 30.9289 45.5972 30.6483 45.781 30.3654C45.9388 30.129 46.1158 29.9083 46.2917 29.6853C46.6713 29.2347 46.6713 29.2347 46.7788 28.6833C46.7774 28.6234 46.7761 28.5634 46.7747 28.5016C46.773 28.4559 46.7713 28.4103 46.7695 28.3633C46.7205 28.3633 46.6715 28.3633 46.6211 28.3633C46.6211 28.1918 46.6211 28.0204 46.6211 27.8438Z" fill="#3A3A3A"/>
<path d="M32.5984 29.3745C32.8164 29.4023 32.8164 29.4023 32.9648 29.5508C32.988 29.7317 32.988 29.7317 32.9648 29.9219C32.8521 30.0451 32.8521 30.0451 32.7422 30.1445C32.804 30.1456 32.8657 30.1467 32.9294 30.1478C33.1589 30.1523 33.3884 30.1578 33.6178 30.164C33.7659 30.1677 33.9139 30.1702 34.062 30.1728C34.1551 30.1754 34.2481 30.1781 34.344 30.1808C34.4299 30.1827 34.5158 30.1847 34.6043 30.1867C34.8203 30.2188 34.8203 30.2188 34.962 30.3206C35.043 30.4414 35.043 30.4414 35.0337 30.6316C34.9687 30.8125 34.9687 30.8125 34.7461 30.9609C34.5548 30.9948 34.3681 31.0225 34.1755 31.0444C34.1234 31.0508 34.0713 31.0573 34.0177 31.0639C33.8894 31.0796 33.7611 31.0945 33.6328 31.1094C33.6446 31.1645 33.6563 31.2196 33.6685 31.2764C33.7408 31.6591 33.7832 31.9549 33.5679 32.2922C33.4092 32.4462 33.3372 32.5157 33.1173 32.5268C32.9675 32.5244 32.8177 32.5219 32.668 32.5195C32.5173 32.0174 32.4237 31.5108 32.3375 30.9941C32.3196 30.888 32.3011 30.782 32.282 30.6761C32.2543 30.522 32.2283 30.3677 32.2026 30.2132C32.1869 30.1217 32.1711 30.0302 32.1549 29.9359C32.1484 29.6992 32.1484 29.6992 32.2422 29.5204C32.3711 29.4023 32.3711 29.4023 32.5984 29.3745Z" fill="#F8C3C0"/>
<path d="M46.8438 28.8086C46.7975 29.08 46.6823 29.248 46.519 29.4673C46.466 29.5385 46.413 29.6096 46.3584 29.683C46.0605 30.0746 45.7589 30.464 45.4487 30.846C45.3461 30.9744 45.3461 30.9744 45.2202 31.1781C45.0625 31.332 45.0625 31.332 44.8062 31.352C44.7132 31.3408 44.6202 31.3296 44.5244 31.3181C44.4307 31.3079 44.3369 31.2976 44.2403 31.2871C44.1687 31.2774 44.0972 31.2678 44.0234 31.2578C44.1052 31.0567 44.1872 30.8557 44.2693 30.6548C44.2922 30.5983 44.3151 30.5419 44.3387 30.4837C44.6127 29.8146 44.8483 29.3187 45.5078 28.957C45.9399 28.8312 46.396 28.8086 46.8438 28.8086Z" fill="#82C2F9"/>
<path d="M44.3203 28.5117C44.3574 28.739 44.3574 28.739 44.3203 29.0312C44.1956 29.1681 44.0562 29.2729 43.9107 29.3873C43.599 29.6641 43.3617 29.9991 43.1105 30.3301C42.9378 30.5577 42.7514 30.7699 42.5623 30.9841C42.3141 31.2884 42.2822 31.4694 42.3176 31.8527C42.3164 32 42.3164 32 42.1726 32.2273C41.8695 32.419 41.6272 32.4426 41.2773 32.3711C41.0587 32.2055 41.057 32.09 41.0176 31.8191C41.0547 31.5547 41.0547 31.5547 41.217 31.3367C41.4406 31.1727 41.5277 31.1451 41.7969 31.1836C41.8156 31.1308 41.8344 31.078 41.8537 31.0236C42.0912 30.4763 42.4929 29.9643 42.9844 29.625C43.0334 29.625 43.0823 29.625 43.1328 29.625C43.1531 29.5814 43.1734 29.5377 43.1943 29.4928C43.3979 29.1073 43.8419 28.5117 44.3203 28.5117Z" fill="#353638"/>
<path d="M33.3359 36.6016C33.9482 36.6016 34.5605 36.6016 35.1914 36.6016C35.2404 36.871 35.2894 37.1404 35.3398 37.418C35.4133 37.5404 35.4868 37.6629 35.5625 37.7891C34.6808 37.7891 33.7991 37.7891 32.8906 37.7891C32.9151 37.7401 32.9396 37.6911 32.9648 37.6406C33.0138 37.6406 33.0628 37.6406 33.1133 37.6406C33.2895 37.2764 33.2866 37.0452 33.3359 36.6016Z" fill="#48609D"/>
<path d="M41.3516 32.3711C41.3761 32.3711 41.4005 32.3711 41.4258 32.3711C41.4295 32.7356 41.4321 33.1001 41.4339 33.4646C41.4347 33.5886 41.4357 33.7126 41.437 33.8365C41.4388 34.0149 41.4396 34.1932 41.4403 34.3715C41.441 34.4268 41.4418 34.4821 41.4426 34.5391C41.4427 35.0825 41.4427 35.0825 41.2773 35.2656C41.0934 35.319 40.9335 35.3516 40.7453 35.3758C40.6924 35.3836 40.6395 35.3914 40.585 35.3995C40.4728 35.4158 40.3606 35.4315 40.2483 35.4466C40.0777 35.4695 39.9074 35.4942 39.7372 35.5193C39.6279 35.535 39.5187 35.5505 39.4094 35.566C39.359 35.5732 39.3086 35.5804 39.2566 35.5878C38.9385 35.6302 38.6293 35.6556 38.3086 35.6367C38.2596 35.5877 38.2106 35.5387 38.1602 35.4883C38.8655 35.2266 39.5713 34.9661 40.28 34.7136C40.3334 34.6944 40.3868 34.6752 40.4418 34.6555C40.8146 34.5234 40.8146 34.5234 40.9805 34.5234C40.9868 34.4789 40.9932 34.4344 40.9997 34.3886C41.1472 33.3565 41.1472 33.3565 41.1764 33.1535C41.193 33.036 41.2091 32.9185 41.2243 32.8008C41.2698 32.4529 41.2698 32.4529 41.3516 32.3711Z" fill="#C7DAF9"/>
<path d="M45.7058 47.2818C45.7721 47.2821 45.8383 47.2823 45.9066 47.2826C46.01 47.2835 46.01 47.2835 46.1155 47.2845C46.1853 47.2848 46.2551 47.2851 46.327 47.2855C46.4992 47.2863 46.6715 47.2876 46.8438 47.2891C46.863 47.7902 46.8316 48.0584 46.5469 48.4766C46.3536 48.4786 46.1603 48.4801 45.967 48.4812C45.9123 48.4819 45.8575 48.4825 45.8011 48.4831C45.5598 48.4842 45.3672 48.4792 45.1367 48.4024C45.1367 48.0595 45.1367 47.7166 45.1367 47.3633C45.3507 47.292 45.4838 47.2804 45.7058 47.2818Z" fill="#363E56"/>
<path d="M19.9023 21.7578C20.0257 21.9429 20.0965 22.0879 20.176 22.2913C20.4591 22.9312 20.8966 23.3361 21.5352 23.6133C21.7083 23.674 21.8757 23.7198 22.0547 23.7617C21.622 24.0502 21.1191 23.9936 20.6167 23.989C20.381 23.9875 20.1452 23.986 19.9023 23.9844C19.9023 23.2496 19.9023 22.5148 19.9023 21.7578Z" fill="#FA9997"/>
<path d="M29.1055 32.8164C29.3217 32.8396 29.3994 32.8877 29.5554 33.0437C29.8702 33.521 30.0217 34.0225 29.9219 34.5977C29.8088 34.7681 29.8088 34.7681 29.6992 34.8945C29.4861 34.8717 29.4051 34.823 29.2493 34.6719C28.9453 34.2012 28.7953 33.6743 28.8828 33.1133C28.9942 32.9231 28.9942 32.9231 29.1055 32.8164Z" fill="#333278"/>
<path d="M46.1758 30.4414C46.2359 30.6502 46.2572 30.8275 46.2483 31.0443C46.2449 31.1334 46.2449 31.1334 46.2415 31.2244C46.2371 31.3199 46.2371 31.3199 46.2326 31.4173C46.2297 31.4833 46.2269 31.5494 46.2239 31.6175C46.2176 31.7571 46.2111 31.8967 46.2044 32.0363C46.1944 32.2492 46.1859 32.462 46.1775 32.6749C46.1712 32.8108 46.1649 32.9467 46.1584 33.0826C46.1561 33.1459 46.1537 33.2092 46.1513 33.2745C46.126 33.7496 46.0222 34.1351 45.6568 34.4663C45.3187 34.7382 44.9542 34.7854 44.5337 34.8435C44.4207 34.8611 44.4207 34.8611 44.3054 34.8791C43.768 34.9602 43.2309 35.0221 42.6875 35.043C42.6875 34.9695 42.6875 34.896 42.6875 34.8203C42.7567 34.8102 42.826 34.8002 42.8973 34.7898C43.1562 34.7518 43.4149 34.7131 43.6737 34.674C43.7853 34.6573 43.8969 34.6408 44.0086 34.6246C44.1699 34.6011 44.3311 34.5767 44.4922 34.5521C44.6374 34.5306 44.6374 34.5306 44.7855 34.5086C45.1378 34.4331 45.4687 34.3464 45.7226 34.0778C45.8482 33.7374 45.8476 33.404 45.8557 33.0437C45.8582 32.9679 45.8607 32.892 45.8632 32.8139C45.8805 32.2458 45.8878 31.6777 45.8789 31.1094C45.8054 31.1584 45.732 31.2073 45.6562 31.2578C45.7883 30.9577 45.9825 30.7041 46.1758 30.4414Z" fill="#CCDDF9"/>
<path d="M22.1289 21.832C22.7412 21.832 23.3535 21.832 23.9844 21.832C23.9095 22.2811 23.8421 22.4768 23.4834 22.7458C23.0996 22.8631 22.8211 22.8479 22.4722 22.667C22.2887 22.5097 22.1979 22.4308 22.1289 22.2031C22.1289 22.0807 22.1289 21.9582 22.1289 21.832Z" fill="#FEFDFD"/>
<path d="M44.2461 28.1406C44.3447 28.1634 44.3447 28.1634 44.4453 28.1867C45.172 28.3448 45.8785 28.4111 46.6211 28.4375C46.6211 28.5845 46.6211 28.7314 46.6211 28.8828C46.5425 28.8927 46.4638 28.9025 46.3828 28.9127C46.2798 28.9259 46.1767 28.9391 46.0737 28.9524C46.0219 28.9589 45.97 28.9653 45.9166 28.972C45.6289 29.0063 45.6289 29.0063 45.3594 29.1055C45.1829 29.0989 45.0066 29.0874 44.8306 29.073C44.7355 29.0654 44.6404 29.0579 44.5424 29.0501C44.4691 29.0439 44.3958 29.0377 44.3203 29.0312C44.2958 28.7373 44.2713 28.4434 44.2461 28.1406Z" fill="#F6C2BE"/>
<path d="M46.7695 28.957C46.6612 29.2763 46.4998 29.5048 46.2917 29.7688C46.2597 29.8098 46.2276 29.8507 46.1945 29.8929C46.1259 29.9805 46.057 30.0678 45.988 30.155C45.8744 30.2987 45.7613 30.4428 45.6484 30.5869C45.4535 30.8356 45.2581 31.0839 45.0625 31.332C44.9155 31.3075 44.7686 31.283 44.6172 31.2578C45.7094 28.957 45.7094 28.957 46.7695 28.957Z" fill="#EBF2FB"/>
<path d="M42.9102 26.2852C43.449 26.2852 43.9878 26.2852 44.543 26.2852C44.4497 26.8449 44.4497 26.8449 44.0977 27.1016C43.8197 27.1942 43.5646 27.2347 43.2902 27.1149C43.1699 27.0273 43.1699 27.0273 42.9844 26.8047C42.9599 26.6332 42.9354 26.4618 42.9102 26.2852Z" fill="#FEFCFC"/>
<path d="M44.3945 31.703C44.2429 31.9974 44.0911 32.2917 43.9393 32.5859C43.8878 32.6857 43.8363 32.7856 43.7849 32.8854C43.5013 33.4359 43.2165 33.9851 42.9101 34.5233C42.8359 34.3749 42.8359 34.3749 42.8921 34.1744C42.9222 34.0909 42.9522 34.0075 42.9832 33.9215C43.0159 33.8302 43.0486 33.7389 43.0824 33.6449C43.0998 33.5972 43.1172 33.5495 43.1352 33.5003C43.1878 33.3562 43.2395 33.2118 43.2911 33.0674C43.844 31.5364 43.844 31.5364 44.3945 31.703Z" fill="#85C0F4"/>
<path d="M46.8438 28.8086C46.8193 28.8821 46.7948 28.9556 46.7695 29.0313C46.6211 29.0807 46.4727 29.1302 46.3242 29.1797C46.1879 29.2699 46.0598 29.3662 45.9317 29.4676C45.6381 29.6599 45.3297 29.6316 44.9883 29.625C45.0047 29.4029 45.0787 29.3081 45.2202 29.1333C45.6336 28.8032 46.3373 28.8086 46.8438 28.8086Z" fill="#2386FA"/>
<path d="M25.8399 30.2188C25.9133 30.2188 25.9868 30.2188 26.0625 30.2188C26.0625 31.125 26.0625 32.0312 26.0625 32.9648C25.989 32.9159 25.9156 32.8669 25.8399 32.8164C25.82 32.6164 25.814 32.4336 25.8181 32.2337C25.8184 32.1762 25.8187 32.1188 25.8191 32.0596C25.8203 31.8758 25.8231 31.6921 25.8259 31.5083C25.8271 31.3838 25.8281 31.2594 25.829 31.1349C25.8314 30.8295 25.8353 30.5241 25.8399 30.2188Z" fill="#61B79D"/>
<path d="M42.9844 29.625C43.0334 29.6495 43.0823 29.674 43.1328 29.6992C43.0844 29.7566 43.036 29.814 42.9861 29.8732C42.9206 29.9512 42.855 30.0293 42.7896 30.1074C42.7557 30.1477 42.7219 30.188 42.6871 30.2295C42.4561 30.5065 42.2379 30.7894 42.0311 31.085C42.0028 31.1176 41.9745 31.1501 41.9453 31.1836C41.8963 31.1836 41.8473 31.1836 41.7969 31.1836C42.0181 30.5604 42.4511 30.0116 42.9844 29.625Z" fill="#78BEF3"/>
<path d="M23.5391 32.8164C23.8772 32.8576 23.8772 32.8576 23.9844 32.9648C23.9983 33.1458 23.9983 33.1458 23.9844 33.3359C23.9354 33.3849 23.8864 33.4339 23.8359 33.4844C23.4978 33.4431 23.4978 33.4431 23.3906 33.3359C23.3767 33.155 23.3767 33.155 23.3906 32.9648C23.4396 32.9159 23.4886 32.8669 23.5391 32.8164Z" fill="#5EB29C"/>
<path d="M23.5391 31.2578C23.8772 31.299 23.8772 31.299 23.9844 31.4062C23.9983 31.5872 23.9983 31.5872 23.9844 31.7773C23.9354 31.8263 23.8864 31.8753 23.8359 31.9258C23.4978 31.8845 23.4978 31.8845 23.3906 31.7773C23.3767 31.5964 23.3767 31.5964 23.3906 31.4062C23.4396 31.3573 23.4886 31.3083 23.5391 31.2578Z" fill="#5EB29C"/>
<path d="M23.9844 37.6405C23.9875 37.7889 23.9874 37.9374 23.9844 38.0858C23.9102 38.16 23.9102 38.16 23.6875 38.1693C23.4648 38.16 23.4648 38.16 23.3906 38.0858C23.3876 37.9374 23.3875 37.7889 23.3906 37.6405C23.603 37.5343 23.7568 37.596 23.9844 37.6405Z" fill="#5EB29C"/>
<path d="M23.6875 35.9985C23.9102 36.0078 23.9102 36.0078 23.9844 36.082C23.9983 36.2629 23.9983 36.2629 23.9844 36.4531C23.9354 36.5021 23.8864 36.5511 23.8359 36.6016C23.4978 36.5603 23.4978 36.5603 23.3906 36.4531C23.3813 36.2676 23.3813 36.2676 23.3906 36.082C23.4648 36.0078 23.4648 36.0078 23.6875 35.9985Z" fill="#5DB29C"/>
<path d="M23.6875 34.4399C23.9102 34.4492 23.9102 34.4492 23.9844 34.5234C23.9983 34.7043 23.9983 34.7043 23.9844 34.8945C23.9354 34.9435 23.8864 34.9925 23.8359 35.043C23.4978 35.0017 23.4978 35.0017 23.3906 34.8945C23.3813 34.709 23.3813 34.709 23.3906 34.5234C23.4648 34.4492 23.4648 34.4492 23.6875 34.4399Z" fill="#5DB19C"/>
<path d="M22.1289 20.0508C22.4029 20.1022 22.4029 20.1022 22.5 20.1992C22.5139 20.3801 22.5139 20.3801 22.5 20.5703C22.451 20.6193 22.402 20.6683 22.3515 20.7188C22.2781 20.7188 22.2046 20.7188 22.1289 20.7188C22.0275 20.5159 22.0451 20.349 22.0547 20.125C22.0792 20.1005 22.1036 20.076 22.1289 20.0508Z" fill="#353849"/>
<path d="M23.7617 20.0508C24.0358 20.1022 24.0358 20.1022 24.1328 20.1992C24.1358 20.3229 24.136 20.4467 24.1328 20.5703C23.9859 20.6438 23.9859 20.6438 23.8359 20.7188C23.6875 20.5703 23.6875 20.5703 23.6736 20.343C23.6875 20.125 23.6875 20.125 23.7617 20.0508Z" fill="#323647"/>
<path d="M44.3945 24.6523C44.4925 24.7013 44.5905 24.7503 44.6914 24.8008C44.6669 24.9722 44.6424 25.1437 44.6172 25.3203C44.5192 25.2958 44.4213 25.2713 44.3203 25.2461C44.3172 25.0729 44.3173 24.8997 44.3203 24.7266C44.3448 24.7021 44.3693 24.6776 44.3945 24.6523Z" fill="#383A4B"/>
<path d="M42.9844 24.6523C43.0334 24.6523 43.0823 24.6523 43.1328 24.6523C43.2333 24.8534 43.2119 25.0241 43.207 25.2461C43.1091 25.2706 43.0111 25.2951 42.9102 25.3203C42.8638 25.0698 42.8638 25.0698 42.8359 24.8008C42.8849 24.7518 42.9339 24.7028 42.9844 24.6523Z" fill="#353849"/>
<path d="M43.6523 32C43.7266 32.1484 43.7266 32.1484 43.6689 32.3253C43.6405 32.3924 43.612 32.4596 43.5828 32.5288C43.5545 32.5964 43.5263 32.6639 43.4972 32.7335C43.4749 32.7853 43.4527 32.8372 43.4297 32.8906C43.3317 32.8171 43.2338 32.7437 43.1328 32.668C43.2482 32.3847 43.4324 32.2084 43.6523 32Z" fill="#E68B38"/>
<path d="M44.3252 29.0239C44.4169 29.0252 44.4169 29.0252 44.5105 29.0265C44.5718 29.0272 44.6332 29.0279 44.6963 29.0286C44.7437 29.0294 44.7911 29.0303 44.8398 29.0312C44.6024 29.2347 44.3942 29.3748 44.0977 29.4765C44.0945 29.3528 44.0946 29.2291 44.0977 29.1054C44.1719 29.0312 44.1719 29.0312 44.3252 29.0239Z" fill="#1F81F5"/>
<path d="M17.75 41.0547C17.8768 41.1752 18.0004 41.2991 18.1211 41.4258C18.1211 41.4748 18.1211 41.5238 18.1211 41.5742C17.9986 41.5742 17.8762 41.5742 17.75 41.5742C17.75 41.4028 17.75 41.2313 17.75 41.0547Z" fill="#77B4A2"/>
<path d="M43.207 33.6328C43.256 33.6573 43.305 33.6818 43.3555 33.707C43.2085 33.9764 43.0616 34.2459 42.9102 34.5234C42.836 34.375 42.836 34.375 42.8722 34.217C42.8924 34.1574 42.9126 34.0978 42.9334 34.0364C42.953 33.9766 42.9726 33.9168 42.9928 33.8552C43.0586 33.707 43.0586 33.707 43.207 33.6328Z" fill="#95C3EA"/>
<path d="M48.5508 45.8047C48.5753 45.8047 48.5998 45.8047 48.625 45.8047C48.625 46.0006 48.625 46.1966 48.625 46.3984C48.527 46.3739 48.4291 46.3495 48.3281 46.3242C48.4016 46.1528 48.4751 45.9813 48.5508 45.8047Z" fill="#D4D8E7"/>
<defs>
<linearGradient id="paint0_linear_6_477" x1="98.4667" y1="21.1263" x2="-8.8357" y2="26.7315" gradientUnits="userSpaceOnUse">
<stop stop-color="#00ADEF"/>
<stop offset="1" stop-color="#D60F8C"/>
</linearGradient>
</defs>
</svg>
