<svg width="120" height="120" viewBox="0 0 120 120" fill="none" xmlns="http://www.w3.org/2000/svg">
<circle cx="60" cy="60" r="60" fill="url(#paint0_linear_141_15145)"/>
<circle cx="60" cy="60" r="52" fill="white"/>
<g clip-path="url(#clip0_141_15145)">
<path d="M57.196 50.8269C57.976 51.6069 59 51.9969 60.024 51.9969C61.048 51.9969 62.072 51.6069 62.852 50.8269L66.828 46.8509C68.388 45.2909 68.388 42.7529 66.828 41.1929L62.852 37.2169C61.294 35.6569 58.754 35.6569 57.196 37.2169L53.22 41.1929C51.66 42.7529 51.66 45.2909 53.22 46.8509L57.196 50.8269ZM60.024 40.0449L64 44.0229L60.026 48.0009L56.048 44.0209L60.024 40.0449ZM84 47.9989V68.2009C84 72.4749 82.336 76.4929 79.314 79.5149L75.414 83.4149C75.024 83.8049 74.512 84.0009 74 84.0009C73.488 84.0009 72.976 83.8049 72.586 83.4149C71.804 82.6329 71.804 81.3669 72.586 80.5869L76.486 76.6869C78.752 74.4209 80 71.4069 80 68.2009V47.9989C80 46.8969 79.104 45.9989 78 45.9989C76.896 45.9989 76 46.8969 76 47.9989C76 47.9989 75.976 64.0829 75.974 64.1289C75.944 65.4529 75.498 66.7729 74.598 67.8429L69.442 73.2129C69.05 73.6209 68.526 73.8269 68 73.8269C67.5 73.8269 67.002 73.6409 66.614 73.2689C65.82 72.5029 65.794 71.2369 66.56 70.4409L71.626 65.1729C71.886 64.8609 72.008 64.4389 72.002 64.0049C72.002 64.0049 72.002 64.0029 72.002 64.0009V63.9109C71.976 63.4689 71.812 63.0209 71.492 62.6649C71.138 62.2689 70.65 62.0349 70.118 62.0049C69.59 61.9649 69.076 62.1549 68.678 62.5109L62.352 68.3329C63.414 70.3349 64 72.5809 64 74.8849V82.0029C64 83.1069 63.106 84.0029 62 84.0029C60.894 84.0029 60 83.1069 60 82.0029V74.8849C60 72.0969 58.822 69.4149 56.77 67.5249L51.304 62.4929C50.926 62.1549 50.412 61.9689 49.884 62.0049C49.352 62.0349 48.864 62.2689 48.51 62.6649C47.852 63.3989 47.832 64.5209 48.466 65.2749L53.608 70.6149C54.374 71.4109 54.348 72.6769 53.554 73.4429C52.756 74.2089 51.492 74.1829 50.726 73.3889L45.494 67.9469C44.572 66.8529 44.062 65.5429 44.002 64.2329C43.992 64.1529 44.002 48.0009 44.002 48.0009C44.002 46.8989 43.106 46.0009 42.002 46.0009C40.898 46.0009 40.002 46.8989 40.002 48.0009V68.2029C40.002 71.4089 41.25 74.4209 43.516 76.6889L47.416 80.5889C48.198 81.3689 48.198 82.6349 47.416 83.4169C47.026 83.8069 46.514 84.0029 46.002 84.0029C45.49 84.0029 44.978 83.8069 44.588 83.4169L40.688 79.5169C37.666 76.4949 36.002 72.4769 36.002 68.2029V47.9989C36.002 44.6909 38.694 41.9989 42.002 41.9989C45.31 41.9989 48.002 44.6909 48.002 47.9989V58.3669C48.534 58.1789 49.086 58.0389 49.666 58.0069C51.246 57.9229 52.798 58.4589 53.992 59.5269C53.992 59.5269 59.81 64.9149 59.974 65.0829L65.992 59.5449C67.202 58.4589 68.754 57.9209 70.338 58.0069C70.918 58.0389 71.47 58.1789 72.002 58.3669V47.9989C72.002 44.6909 74.694 41.9989 78.002 41.9989C81.31 41.9989 84 44.6909 84 47.9989Z" fill="url(#paint1_linear_141_15145)"/>
</g>
<defs>
<linearGradient id="paint0_linear_141_15145" x1="1.38891e-07" y1="11.4286" x2="126.259" y2="22.8259" gradientUnits="userSpaceOnUse">
<stop stop-color="#FBFDFF"/>
<stop offset="1" stop-color="#E9F6FF"/>
</linearGradient>
<linearGradient id="paint1_linear_141_15145" x1="109.852" y1="51.877" x2="29.3756" y2="56.0848" gradientUnits="userSpaceOnUse">
<stop stop-color="#00ADEF"/>
<stop offset="1" stop-color="#D60F8C"/>
</linearGradient>
<clipPath id="clip0_141_15145">
<rect width="48" height="48" fill="white" transform="translate(36 36)"/>
</clipPath>
</defs>
</svg>
