<svg width="120" height="120" viewBox="0 0 120 120" fill="none" xmlns="http://www.w3.org/2000/svg">
<circle cx="60" cy="60" r="60" fill="url(#paint0_linear_270_1981)"/>
<circle cx="60" cy="60" r="52" fill="white"/>
<g clip-path="url(#clip0_270_1981)">
<path d="M84 82.0011C84 83.1051 83.104 84.0011 82 84.0011H38C36.896 84.0011 36 83.1051 36 82.0011C36 78.6871 38.686 76.0011 42 76.0011H78C81.314 76.0011 84 78.6871 84 82.0011ZM80.422 48.4071L83.422 45.3731C84.2 44.5871 84.192 43.3231 83.406 42.5451C82.618 41.7671 81.354 41.7751 80.578 42.5611L77.578 45.5951C76.8 46.3811 76.808 47.6451 77.594 48.4231C77.984 48.8071 78.492 49.0011 79 49.0011C79.516 49.0011 80.032 48.8031 80.422 48.4071ZM72.776 41.9211L74.33 38.9211C74.838 37.9411 74.454 36.7331 73.474 36.2251C72.498 35.7171 71.286 36.0971 70.778 37.0811L69.224 40.0811C68.716 41.0611 69.1 42.2691 70.08 42.7771C70.372 42.9291 70.688 43.0011 70.998 43.0011C71.72 43.0011 72.42 42.6091 72.776 41.9211ZM42.406 48.4231C43.192 47.6451 43.198 46.3811 42.422 45.5951L39.422 42.5611C38.648 41.7751 37.378 41.7691 36.594 42.5451C35.808 43.3231 35.802 44.5871 36.578 45.3731L39.578 48.4071C39.968 48.8031 40.484 49.0011 41 49.0011C41.508 49.0011 42.018 48.8071 42.406 48.4231ZM49.92 42.7771C50.9 42.2691 51.284 41.0631 50.776 40.0811L49.222 37.0811C48.712 36.0971 47.502 35.7171 46.526 36.2251C45.546 36.7331 45.162 37.9391 45.67 38.9211L47.224 41.9211C47.58 42.6091 48.278 43.0011 49.002 43.0011C49.312 43.0011 49.626 42.9291 49.92 42.7771ZM78 62.0011V70.0011C78 71.1071 77.106 72.0011 76 72.0011H44C42.894 72.0011 42 71.1071 42 70.0011V62.0011C42 52.0751 50.074 44.0011 60 44.0011C69.926 44.0011 78 52.0751 78 62.0011ZM62 56.0011C62 54.8951 61.106 54.0011 60 54.0011C55.588 54.0011 52 57.5891 52 62.0011C52 63.1071 52.894 64.0011 54 64.0011C55.106 64.0011 56 63.1071 56 62.0011C56 59.7951 57.794 58.0011 60 58.0011C61.106 58.0011 62 57.1071 62 56.0011Z" fill="url(#paint1_linear_270_1981)"/>
</g>
<defs>
<linearGradient id="paint0_linear_270_1981" x1="1.38891e-07" y1="11.4286" x2="126.259" y2="22.8259" gradientUnits="userSpaceOnUse">
<stop stop-color="#FBFDFF"/>
<stop offset="1" stop-color="#E9F6FF"/>
</linearGradient>
<linearGradient id="paint1_linear_270_1981" x1="109.851" y1="51.8451" x2="29.3731" y2="56.049" gradientUnits="userSpaceOnUse">
<stop stop-color="#00ADEF"/>
<stop offset="1" stop-color="#D60F8C"/>
</linearGradient>
<clipPath id="clip0_270_1981">
<rect width="48" height="48" fill="white" transform="translate(36 36)"/>
</clipPath>
</defs>
</svg>
