<svg width="40" height="40" viewBox="0 0 40 40" fill="none" xmlns="http://www.w3.org/2000/svg">
<circle cx="20" cy="20" r="20" fill="url(#paint0_linear_270_1167)"/>
<circle cx="20.0001" cy="20.0013" r="17.3333" fill="white"/>
<g clip-path="url(#clip0_270_1167)">
<path d="M19.9998 20C22.7573 20 24.9998 17.7575 24.9998 15C24.9998 12.2425 22.7573 10 19.9998 10C17.2423 10 14.9998 12.2425 14.9998 15C14.9998 17.7575 17.2423 20 19.9998 20ZM19.9998 11.6667C21.8382 11.6667 23.3332 13.1617 23.3332 15C23.3332 16.8383 21.8382 18.3333 19.9998 18.3333C18.1615 18.3333 16.6665 16.8383 16.6665 15C16.6665 13.1617 18.1615 11.6667 19.9998 11.6667ZM28.3332 29.1667C28.3332 29.6275 27.9607 30 27.4998 30C27.039 30 26.6665 29.6275 26.6665 29.1667C26.6665 26.845 25.3023 24.835 23.3332 23.8967V25.9767C24.3032 26.3208 24.9998 27.2467 24.9998 28.3333V29.1667C24.9998 29.6275 24.6273 30 24.1665 30C23.7057 30 23.3332 29.6275 23.3332 29.1667V28.3333C23.3332 27.8733 22.9598 27.5 22.4998 27.5C22.0398 27.5 21.6665 27.8733 21.6665 28.3333V29.1667C21.6665 29.6275 21.294 30 20.8332 30C20.3723 30 19.9998 29.6275 19.9998 29.1667V28.3333C19.9998 27.2467 20.6965 26.3208 21.6665 25.9767V23.3933C21.394 23.3542 21.1157 23.3333 20.8332 23.3333H19.1665C18.5873 23.3333 18.0282 23.4183 17.4998 23.5767V26.0575C17.9982 26.3458 18.3332 26.8842 18.3332 27.5008C18.3332 28.4217 17.5873 29.1675 16.6665 29.1675C15.7457 29.1675 14.9998 28.4217 14.9998 27.5008C14.9998 26.8842 15.3348 26.3458 15.8332 26.0575V24.3833C14.3232 25.4392 13.3332 27.19 13.3332 29.1675C13.3332 29.6283 12.9607 30.0008 12.4998 30.0008C12.039 30.0008 11.6665 29.6283 11.6665 29.1675C11.6665 25.0317 15.0307 21.6675 19.1665 21.6675H20.8332C24.969 21.6675 28.3332 25.0308 28.3332 29.1667Z" fill="url(#paint1_linear_270_1167)"/>
</g>
<defs>
<linearGradient id="paint0_linear_270_1167" x1="4.62971e-08" y1="3.80952" x2="42.0865" y2="7.60863" gradientUnits="userSpaceOnUse">
<stop stop-color="#FBFDFF"/>
<stop offset="1" stop-color="#E9F6FF"/>
</linearGradient>
<linearGradient id="paint1_linear_270_1167" x1="37.3089" y1="16.6022" x2="9.34228" y2="17.8196" gradientUnits="userSpaceOnUse">
<stop stop-color="#00ADEF"/>
<stop offset="1" stop-color="#D60F8C"/>
</linearGradient>
<clipPath id="clip0_270_1167">
<rect width="20" height="20" fill="white" transform="translate(10 10)"/>
</clipPath>
</defs>
</svg>
