<svg width="76" height="76" viewBox="0 0 76 76" fill="none" xmlns="http://www.w3.org/2000/svg">
<g filter="url(#filter0_i_141_16401)">
<circle cx="38" cy="38" r="38" fill="white"/>
</g>
<path d="M46 22H30C27.7947 22 26 23.7947 26 26V54H35.3333V46H31.3333V43.3333H44.6667V46H40.6667V54H50V26C50 23.7947 48.2053 22 46 22ZM34 40.6667H31.3333V38H34V40.6667ZM34 35.3333H31.3333V32.6667H34V35.3333ZM34 30H31.3333V27.3333H34V30ZM39.3333 40.6667H36.6667V38H39.3333V40.6667ZM39.3333 35.3333H36.6667V32.6667H39.3333V35.3333ZM39.3333 30H36.6667V27.3333H39.3333V30ZM44.6667 40.6667H42V38H44.6667V40.6667ZM44.6667 35.3333H42V32.6667H44.6667V35.3333ZM44.6667 30H42V27.3333H44.6667V30Z" fill="url(#paint0_linear_141_16401)"/>
<defs>
<filter id="filter0_i_141_16401" x="0" y="0" width="94" height="91" filterUnits="userSpaceOnUse" color-interpolation-filters="sRGB">
<feFlood flood-opacity="0" result="BackgroundImageFix"/>
<feBlend mode="normal" in="SourceGraphic" in2="BackgroundImageFix" result="shape"/>
<feColorMatrix in="SourceAlpha" type="matrix" values="0 0 0 0 0 0 0 0 0 0 0 0 0 0 0 0 0 0 127 0" result="hardAlpha"/>
<feOffset dx="18" dy="15"/>
<feGaussianBlur stdDeviation="17.5"/>
<feComposite in2="hardAlpha" operator="arithmetic" k2="-1" k3="1"/>
<feColorMatrix type="matrix" values="0 0 0 0 0 0 0 0 0 0.498039 0 0 0 0 0.992157 0 0 0 0.09 0"/>
<feBlend mode="normal" in2="shape" result="effect1_innerShadow_141_16401"/>
</filter>
<linearGradient id="paint0_linear_141_16401" x1="62.925" y1="32.5631" x2="22.6386" y2="34.1415" gradientUnits="userSpaceOnUse">
<stop stop-color="#00ADEF"/>
<stop offset="1" stop-color="#D60F8C"/>
</linearGradient>
</defs>
</svg>
