<svg width="64" height="64" viewBox="0 0 64 64" fill="none" xmlns="http://www.w3.org/2000/svg">
<circle cx="32" cy="32" r="32" fill="url(#paint0_linear_6_435)"/>
<circle cx="32" cy="32" r="28" fill="white"/>
<g clip-path="url(#clip0_6_435)">
<path d="M17.866 17.1145C18.1578 17.1623 18.244 17.2189 18.418 17.4531C18.5026 17.7071 18.4995 17.9049 18.4968 18.1721C18.4962 18.2597 18.4955 18.3472 18.4948 18.4374C18.4939 18.5045 18.4931 18.5715 18.4922 18.6406C18.5462 18.64 18.6003 18.6393 18.6559 18.6386C19.1659 18.6327 19.6758 18.6282 20.1858 18.6252C20.4479 18.6237 20.7101 18.6216 20.9722 18.6182C21.2738 18.6144 21.5754 18.6129 21.877 18.6116C21.9708 18.6101 22.0647 18.6086 22.1614 18.607C22.2491 18.607 22.3367 18.6069 22.427 18.6069C22.504 18.6063 22.5809 18.6056 22.6602 18.6049C22.9262 18.65 23.0494 18.7528 23.2422 18.9375C23.3245 19.0938 23.3245 19.0938 23.3721 19.2483C23.4257 19.4449 23.4257 19.4449 23.5391 19.6055C23.7122 19.6085 23.8854 19.6086 24.0586 19.6055C24.0667 19.5598 24.0749 19.5142 24.0832 19.4672C24.095 19.4072 24.1068 19.3472 24.1189 19.2854C24.1357 19.1963 24.1357 19.1963 24.1528 19.1054C24.2142 18.9153 24.2727 18.8363 24.4297 18.7148C24.6802 18.6453 24.6802 18.6453 24.9492 18.6406C25.1572 18.7717 25.2843 18.8655 25.3945 19.0859C25.4411 19.5424 25.3409 19.8911 25.0977 20.2734C24.9158 20.4693 24.7259 20.6435 24.5039 20.793C24.4549 20.793 24.4059 20.793 24.3555 20.793C24.3555 21.2338 24.3555 21.6747 24.3555 22.1289C24.4564 22.1334 24.5573 22.1379 24.6613 22.1425C24.7929 22.1488 24.9244 22.1551 25.0559 22.1614C25.1225 22.1643 25.1892 22.1672 25.2578 22.1702C25.3212 22.1733 25.3846 22.1764 25.4499 22.1796C25.5086 22.1824 25.5673 22.1851 25.6278 22.1879C25.7656 22.2031 25.7656 22.2031 25.8398 22.2773C25.8588 22.5768 25.8536 22.8772 25.8538 23.1772C25.8547 23.2611 25.8556 23.3449 25.8565 23.4312C25.8573 23.871 25.8242 24.2303 25.6914 24.6523C25.6778 24.8522 25.6705 25.0422 25.6729 25.2415C25.6723 25.2908 25.6717 25.3401 25.6711 25.3909C25.6723 25.7017 25.724 25.9609 25.8065 26.2622C25.8789 26.6341 25.8579 27.0164 25.8538 27.3938C25.8537 27.5216 25.8537 27.5216 25.8536 27.652C25.8503 28.2786 25.8503 28.2786 25.7656 28.3633C25.6389 28.371 25.5118 28.3736 25.3848 28.3741C25.3036 28.3745 25.2224 28.375 25.1387 28.3755C25.0502 28.3756 24.9618 28.3757 24.8707 28.3757C24.7805 28.376 24.6904 28.3762 24.5975 28.3765C24.4064 28.3769 24.2153 28.377 24.0241 28.377C23.7308 28.3772 23.4374 28.3785 23.1441 28.38C22.9588 28.3802 22.7736 28.3803 22.5884 28.3804C22.5001 28.3809 22.4118 28.3815 22.3209 28.382C22.2394 28.3818 22.1579 28.3815 22.074 28.3813C22.002 28.3814 21.9301 28.3815 21.8559 28.3816C21.6836 28.3633 21.6836 28.3633 21.5352 28.2148C21.501 27.9614 21.5106 27.7049 21.512 27.4495C21.5121 27.3754 21.5122 27.3014 21.5123 27.2252C21.5187 26.7275 21.5769 26.2954 21.7074 25.8152C21.8246 25.3549 21.7695 24.9801 21.6465 24.5271C21.4887 23.9018 21.3143 22.7933 21.6094 22.2031C22.1237 22.2031 22.638 22.2031 23.168 22.2031C23.1435 22.1541 23.119 22.1052 23.0938 22.0547C23.0863 21.7898 23.079 21.5253 23.0814 21.2603C23.0767 21.0938 23.0674 20.9527 23.0195 20.793C22.8115 20.6109 22.8115 20.6109 22.5742 20.4961C22.4257 20.3274 22.3034 20.1772 22.2031 19.9766C20.3662 19.9398 20.3662 19.9398 18.4922 19.9023C18.4922 23.1353 18.4922 26.3683 18.4922 29.6992C18.7126 29.7237 18.933 29.7482 19.1602 29.7734C20.0707 30.0474 20.7737 30.7445 21.4694 31.3579C21.6778 31.5404 21.8892 31.7194 22.1011 31.8979C22.1589 31.9468 22.1589 31.9468 22.2179 31.9965C22.296 32.0624 22.374 32.1282 22.4521 32.194C22.6723 32.3796 22.8923 32.5655 23.1123 32.7515C23.154 32.7866 23.1957 32.8218 23.2386 32.858C23.5307 33.1049 23.5307 33.1049 23.6133 33.1875C23.7408 33.1966 23.8686 33.2007 23.9964 33.2027C24.0781 33.2042 24.1599 33.2057 24.2441 33.2072C24.333 33.2085 24.4219 33.2097 24.5135 33.211C24.604 33.2125 24.6945 33.2141 24.7877 33.2157C25.0781 33.2205 25.3685 33.2249 25.6589 33.2292C25.8553 33.2325 26.0516 33.2357 26.2479 33.239C26.7304 33.2469 27.2128 33.2545 27.6953 33.2617C27.6943 33.1697 27.6934 33.0777 27.6924 32.9829C27.6916 32.8611 27.6908 32.7393 27.6901 32.6175C27.689 32.5267 27.689 32.5267 27.688 32.4341C27.685 31.7879 27.8165 31.3134 28.2235 30.8021C28.6929 30.3385 29.2145 30.1329 29.8621 30.1356C29.9168 30.1355 29.9716 30.1355 30.028 30.1354C30.2119 30.1353 30.3958 30.1357 30.5798 30.1361C30.7114 30.1361 30.8431 30.1361 30.9747 30.1361C31.3326 30.1361 31.6905 30.1365 32.0483 30.137C32.4222 30.1375 32.796 30.1375 33.1698 30.1376C33.878 30.1378 34.5861 30.1384 35.2942 30.1392C36.1003 30.14 36.9063 30.1404 37.7124 30.1408C39.3708 30.1416 41.0291 30.1429 42.6875 30.1445C42.6875 29.7527 42.6875 29.3608 42.6875 28.957C42.4325 28.9594 42.4325 28.9594 42.1723 28.9617C41.6092 28.9667 41.046 28.9699 40.4829 28.9724C40.1416 28.974 39.8004 28.9761 39.4591 28.9794C39.1294 28.9827 38.7998 28.9844 38.4702 28.9852C38.3447 28.9857 38.2192 28.9868 38.0938 28.9884C36.7635 29.0048 36.7635 29.0048 36.2678 28.5606C35.8205 28.0831 35.8375 27.5101 35.839 26.8963C35.8384 26.7782 35.8384 26.7782 35.8378 26.6577C35.8368 26.3983 35.8369 26.1389 35.8371 25.8796C35.8368 25.6987 35.8364 25.5178 35.8361 25.3369C35.8355 24.9582 35.8356 24.5794 35.8359 24.2007C35.8364 23.7159 35.8351 23.2312 35.8334 22.7465C35.8323 22.373 35.8322 21.9996 35.8325 21.6262C35.8324 21.4475 35.832 21.2688 35.8313 21.0901C35.8304 20.84 35.8309 20.5899 35.8317 20.3398C35.8312 20.2665 35.8306 20.1931 35.83 20.1175C35.8342 19.5623 35.9335 19.1625 36.2444 18.6917C36.8065 18.1545 37.5295 18.2377 38.2563 18.2407C38.379 18.2404 38.5017 18.24 38.6244 18.2395C38.9563 18.2385 39.2883 18.2389 39.6203 18.2396C39.9684 18.2402 40.3165 18.2397 40.6646 18.2393C41.2491 18.2389 41.8335 18.2394 42.418 18.2405C43.0929 18.2417 43.7677 18.2413 44.4426 18.2401C45.023 18.2391 45.6033 18.2389 46.1837 18.2395C46.5299 18.2399 46.8761 18.2399 47.2223 18.2392C47.5479 18.2385 47.8734 18.239 48.199 18.2403C48.3181 18.2406 48.4373 18.2405 48.5565 18.24C49.8758 18.235 49.8758 18.235 50.3526 18.6334C50.3933 18.6832 50.4339 18.7331 50.4758 18.7844C50.5178 18.8341 50.5598 18.8837 50.6031 18.9349C50.7734 19.1921 50.7867 19.4362 50.7878 19.7395C50.7882 19.8111 50.7886 19.8827 50.7891 19.9565C50.7891 20.0345 50.7892 20.1125 50.7893 20.1929C50.7897 20.2755 50.79 20.3581 50.7904 20.4432C50.7915 20.7165 50.792 20.9899 50.7924 21.2632C50.7928 21.4531 50.7933 21.643 50.7937 21.8328C50.7944 22.1801 50.7948 22.5274 50.7951 22.8747C50.7954 23.3853 50.7967 23.8959 50.7989 24.4065C50.8007 24.8493 50.8012 25.2921 50.8014 25.7349C50.8016 25.923 50.8022 26.1111 50.8032 26.2993C50.8044 26.5624 50.8043 26.8255 50.8038 27.0886C50.8045 27.1664 50.8052 27.2441 50.8059 27.3242C50.8029 27.8395 50.726 28.1587 50.3877 28.5627C49.9802 28.9054 49.6029 28.9904 49.0805 28.9823C49.0247 28.9823 48.9688 28.9824 48.9113 28.9824C48.7286 28.9823 48.5459 28.9805 48.3632 28.9788C48.2358 28.9784 48.1084 28.978 47.981 28.9778C47.6471 28.977 47.3132 28.9748 46.9792 28.9723C46.6379 28.97 46.2966 28.969 45.9553 28.9679C45.2866 28.9655 44.6179 28.9616 43.9492 28.957C43.9492 29.3489 43.9492 29.7408 43.9492 30.1445C44.0469 30.143 44.1446 30.1414 44.2452 30.1398C44.6099 30.1344 44.9747 30.131 45.3395 30.1282C45.4969 30.1267 45.6543 30.1247 45.8117 30.1221C46.0389 30.1185 46.266 30.1168 46.4932 30.1155C46.5628 30.114 46.6325 30.1125 46.7042 30.1109C47.3978 30.1107 47.916 30.3488 48.4226 30.8171C48.7631 31.1992 48.9315 31.6561 48.9303 32.1637C48.9303 32.2424 48.9303 32.3212 48.9303 32.4023C48.9299 32.4872 48.9295 32.5721 48.9291 32.6596C48.929 32.7901 48.929 32.7901 48.9288 32.9232C48.9284 33.2015 48.9275 33.4798 48.9265 33.7581C48.9261 33.9466 48.9258 34.135 48.9255 34.3235C48.9247 34.786 48.9234 35.2485 48.9219 35.7109C49.0131 35.7075 49.1044 35.704 49.1985 35.7005C49.3196 35.6977 49.4408 35.695 49.562 35.6924C49.622 35.6899 49.682 35.6874 49.7438 35.6848C50.1528 35.6782 50.3781 35.7363 50.7031 36.0078C50.9724 36.2913 51.023 36.5186 51.0371 36.8984C51.023 37.2782 50.9724 37.5056 50.7031 37.7891C50.3272 38.0788 50.0578 38.1702 49.591 38.1674C49.5216 38.1672 49.4523 38.1669 49.3808 38.1667C49.309 38.1661 49.2371 38.1654 49.1631 38.1648C49.0901 38.1645 49.0171 38.1641 48.9419 38.1638C48.762 38.1629 48.5822 38.1617 48.4023 38.1602C48.4035 38.2129 48.4047 38.2656 48.4059 38.3199C48.4105 38.562 48.4134 38.804 48.4163 39.0461C48.4181 39.129 48.42 39.2119 48.4219 39.2974C48.4271 39.8912 48.3588 40.3683 48.0637 40.8877C47.8807 41.0566 47.723 41.1423 47.5004 41.2507C47.4332 41.2836 47.3659 41.3165 47.2966 41.3505C47.2194 41.3878 47.2194 41.3878 47.1406 41.4258C47.1212 41.7504 47.1093 42.0749 47.0989 42.3999C47.0933 42.4917 47.0877 42.5836 47.0819 42.6782C47.0538 43.1719 47.0538 43.1719 47.2843 43.5815C47.4549 43.6904 47.6291 43.7819 47.8086 43.875C48.1746 44.3048 48.2353 44.8066 48.2101 45.3559C48.1344 45.9186 47.8679 46.2263 47.4447 46.588C46.981 46.9075 46.4982 46.8953 45.9531 46.8438C45.4594 46.7157 45.1233 46.3646 44.8398 45.9531C44.6029 45.4728 44.6075 44.9153 44.7511 44.405C44.9889 43.8639 45.1661 43.8059 45.7305 43.4297C45.755 42.7684 45.7795 42.1071 45.8047 41.4258C36.7916 41.4258 27.7784 41.4258 18.4922 41.4258C18.5289 42.4177 18.5289 42.4177 18.5664 43.4297C18.7134 43.5277 18.8603 43.6256 19.0117 43.7266C19.1474 43.8562 19.1474 43.8562 19.2529 43.9817C19.2885 44.0229 19.3241 44.0642 19.3608 44.1066C19.6743 44.5608 19.6558 45.0499 19.6055 45.582C19.4774 46.0757 19.1263 46.4118 18.7148 46.6953C18.2553 46.9236 17.687 46.9346 17.1971 46.7901C16.6995 46.556 16.325 46.1687 16.1172 45.6562C15.9873 45.1423 16.0191 44.6212 16.285 44.1568C16.5104 43.8374 16.7389 43.6168 17.082 43.4297C17.131 43.4297 17.18 43.4297 17.2305 43.4297C17.206 42.7684 17.1815 42.1071 17.1562 41.4258C16.9113 41.3033 16.6664 41.1809 16.4141 41.0547C16.2468 40.8828 16.2468 40.8828 16.1497 40.7161C16.099 40.6333 16.099 40.6333 16.0473 40.5488C15.8388 40.1187 15.8782 39.6626 15.876 39.1946C15.8744 39.1128 15.8729 39.0311 15.8713 38.9468C15.8708 38.8294 15.8708 38.8294 15.8702 38.7095C15.8691 38.6022 15.8691 38.6022 15.8681 38.4927C15.8945 38.3086 15.8945 38.3086 16.1172 38.0859C16.4846 38.0859 16.852 38.0859 17.2305 38.0859C17.2305 36.7389 17.2305 35.3918 17.2305 34.0039C17.1325 33.9549 17.0345 33.9059 16.9336 33.8555C16.818 33.758 16.7054 33.6571 16.595 33.554C16.3307 33.3114 16.0623 33.0788 15.7832 32.8535C15.5164 32.6377 15.2575 32.4167 15.0039 32.1855C14.7487 31.953 14.4882 31.7304 14.22 31.5129C13.9574 31.2996 13.6965 31.0849 13.4407 30.8635C13.3878 30.8179 13.3349 30.7723 13.2803 30.7252C13.0174 30.4554 12.9769 30.2292 12.9722 29.8569C12.9797 29.4704 13.0223 29.2461 13.2969 28.957C13.5949 28.7006 13.8497 28.6196 14.229 28.57C14.7458 28.6155 15.0939 28.9205 15.4631 29.2539C15.5523 29.3328 15.6415 29.4117 15.7307 29.4905C15.7694 29.5252 15.8081 29.5599 15.8479 29.5957C16.3927 30.0623 16.296 29.9195 17.2305 29.8477C17.2305 26.5657 17.2305 23.2838 17.2305 19.9023C16.8631 19.9023 16.4957 19.9023 16.1172 19.9023C15.7461 19.6797 15.7461 19.6797 15.6719 19.5312C15.6379 19.0731 15.6379 19.0731 15.7693 18.8354C16.0305 18.5839 16.349 18.6319 16.6877 18.636C16.7398 18.6363 16.7919 18.6367 16.8456 18.637C16.9739 18.6379 17.1022 18.6392 17.2305 18.6406C17.224 18.5265 17.224 18.5265 17.2174 18.4101C17.2139 18.3092 17.2106 18.2082 17.2073 18.1072C17.2042 18.0572 17.2011 18.0072 17.1979 17.9557C17.1907 17.6642 17.2201 17.5407 17.4009 17.3082C17.6016 17.1562 17.6016 17.1562 17.866 17.1145ZM29.2539 31.5547C28.8404 32.0858 28.8404 32.0858 28.957 33.2617C30.2061 33.2617 31.4552 33.2617 32.7422 33.2617C32.7422 32.6249 32.7422 31.9881 32.7422 31.332C32.3169 31.3269 31.8918 31.3225 31.4666 31.3198C31.322 31.3187 31.1775 31.3172 31.0329 31.3152C30.8247 31.3125 30.6166 31.3113 30.4084 31.3103C30.312 31.3086 30.312 31.3086 30.2136 31.3068C29.8396 31.3067 29.5703 31.3332 29.2539 31.5547ZM33.9297 31.332C33.9297 31.9688 33.9297 32.6056 33.9297 33.2617C35.1788 33.2617 36.4279 33.2617 37.7148 33.2617C37.7148 32.6249 37.7148 31.9881 37.7148 31.332C36.4657 31.332 35.2166 31.332 33.9297 31.332ZM38.9023 31.332C38.9023 31.9688 38.9023 32.6056 38.9023 33.2617C40.1514 33.2617 41.4005 33.2617 42.6875 33.2617C42.6875 32.6249 42.6875 31.9881 42.6875 31.332C41.4384 31.332 40.1893 31.332 38.9023 31.332ZM43.9492 31.332C43.9492 31.9688 43.9492 32.6056 43.9492 33.2617C44.1674 33.2847 44.1674 33.2847 44.3899 33.3081C44.9235 33.3912 45.3475 33.553 45.6861 33.9897C46.0109 34.5272 45.9877 35.0987 46.0273 35.7109C46.5907 35.7109 47.154 35.7109 47.7344 35.7109C47.7412 35.2011 47.7471 34.6915 47.7507 34.1816C47.7522 34.0083 47.7542 33.8349 47.7568 33.6616C47.7604 33.4121 47.7621 33.1627 47.7634 32.9132C47.7649 32.836 47.7664 32.7587 47.768 32.6791C47.7681 32.2426 47.7471 31.964 47.4375 31.6289C47.0641 31.298 46.7577 31.2917 46.2831 31.303C46.2161 31.3035 46.1492 31.3039 46.0803 31.3043C45.8678 31.306 45.6554 31.3097 45.4429 31.3135C45.2983 31.315 45.1537 31.3163 45.0092 31.3175C44.6558 31.3205 44.3026 31.3264 43.9492 31.332ZM18.4922 35.1914C18.4922 36.1466 18.4922 37.1018 18.4922 38.0859C19.6433 38.0859 20.7945 38.0859 21.9805 38.0859C21.7968 37.939 21.7968 37.939 21.6094 37.7891C21.4818 37.674 21.355 37.558 21.229 37.4412C20.8878 37.1288 20.5363 36.8342 20.1763 36.5439C19.9775 36.3797 19.7865 36.2095 19.5962 36.0356C19.0938 35.5042 19.0938 35.5042 18.4922 35.1914Z" fill="#FEDD80"/>
<path d="M38.2563 18.2407C38.379 18.2404 38.5017 18.24 38.6244 18.2395C38.9564 18.2385 39.2883 18.2389 39.6203 18.2396C39.9684 18.2402 40.3165 18.2397 40.6646 18.2393C41.2491 18.2389 41.8335 18.2394 42.418 18.2405C43.0929 18.2417 43.7677 18.2413 44.4426 18.2401C45.023 18.2391 45.6033 18.2389 46.1837 18.2395C46.5299 18.2399 46.8761 18.2399 47.2223 18.2392C47.5479 18.2385 47.8734 18.239 48.199 18.2403C48.3182 18.2406 48.4373 18.2405 48.5565 18.24C49.8758 18.235 49.8758 18.235 50.3526 18.6334C50.4136 18.7081 50.4136 18.7081 50.4758 18.7844C50.5178 18.8341 50.5598 18.8837 50.6031 18.9349C50.7734 19.1921 50.7867 19.4362 50.7878 19.7395C50.7882 19.8111 50.7886 19.8827 50.7891 19.9565C50.7891 20.0345 50.7892 20.1125 50.7893 20.1929C50.7897 20.2755 50.79 20.3581 50.7904 20.4432C50.7915 20.7165 50.792 20.9899 50.7924 21.2632C50.7928 21.4531 50.7933 21.643 50.7937 21.8328C50.7944 22.1801 50.7949 22.5274 50.7951 22.8747C50.7954 23.3853 50.7967 23.8959 50.7989 24.4065C50.8007 24.8493 50.8012 25.2921 50.8014 25.7349C50.8016 25.923 50.8022 26.1111 50.8032 26.2993C50.8044 26.5624 50.8043 26.8255 50.8038 27.0886C50.8045 27.1664 50.8052 27.2441 50.8059 27.3242C50.8029 27.8395 50.726 28.1587 50.3877 28.5627C49.9802 28.9054 49.6029 28.9904 49.0805 28.9823C49.0247 28.9823 48.9688 28.9824 48.9113 28.9824C48.7286 28.9823 48.5459 28.9805 48.3632 28.9788C48.2358 28.9784 48.1084 28.978 47.981 28.9778C47.6471 28.977 47.3132 28.9748 46.9792 28.9723C46.6379 28.97 46.2966 28.969 45.9553 28.9679C45.2866 28.9655 44.6179 28.9616 43.9492 28.957C43.9492 29.3489 43.9492 29.7408 43.9492 30.1445C44.0469 30.143 44.1446 30.1414 44.2452 30.1398C44.61 30.1344 44.9747 30.131 45.3395 30.1282C45.4969 30.1267 45.6543 30.1247 45.8117 30.1221C46.0389 30.1185 46.266 30.1168 46.4932 30.1155C46.5628 30.114 46.6325 30.1125 46.7042 30.1109C47.3978 30.1107 47.916 30.3488 48.4226 30.8171C48.7631 31.1992 48.9315 31.6561 48.9303 32.1637C48.9303 32.2424 48.9303 32.3212 48.9303 32.4023C48.9299 32.4872 48.9295 32.5721 48.9291 32.6596C48.929 32.7901 48.929 32.7901 48.9288 32.9232C48.9284 33.2015 48.9275 33.4798 48.9265 33.7581C48.9261 33.9465 48.9258 34.135 48.9255 34.3235C48.9247 34.786 48.9234 35.2485 48.9219 35.7109C49.0131 35.7075 49.1044 35.704 49.1985 35.7005C49.3196 35.6977 49.4408 35.695 49.562 35.6924C49.622 35.6899 49.682 35.6874 49.7438 35.6848C50.1528 35.6782 50.3781 35.7363 50.7031 36.0078C50.9724 36.2913 51.023 36.5186 51.0371 36.8984C51.023 37.2782 50.9724 37.5056 50.7031 37.7891C50.3376 38.0708 50.0689 38.1694 49.6145 38.17C49.515 38.1702 49.515 38.1702 49.4134 38.1703C49.3446 38.17 49.2758 38.1697 49.2048 38.1694C49.1374 38.1697 49.07 38.17 49.0006 38.1703C48.9338 38.1702 48.8669 38.1701 48.7981 38.17C48.7382 38.1699 48.6783 38.1698 48.6165 38.1698C48.3207 38.1565 48.0283 38.1213 47.7344 38.0859C47.7341 38.0116 47.7338 37.9373 47.7336 37.8607C47.7308 37.1596 47.7265 36.4586 47.7207 35.7575C47.7178 35.3971 47.7154 35.0367 47.7143 34.6763C47.7131 34.3284 47.7106 33.9804 47.707 33.6325C47.7059 33.4999 47.7054 33.3673 47.7053 33.2346C47.7051 33.0486 47.7031 32.8627 47.7007 32.6766C47.701 32.622 47.7014 32.5674 47.7018 32.5111C47.6942 32.134 47.5984 31.9207 47.3633 31.6289C47.0377 31.351 46.6987 31.3713 46.2903 31.3683C46.2233 31.3669 46.1563 31.3656 46.0872 31.3642C45.874 31.3602 45.6608 31.3577 45.4475 31.3552C45.3026 31.3528 45.1577 31.3502 45.0128 31.3475C44.6583 31.3412 44.3038 31.3363 43.9492 31.332C43.9496 31.3803 43.95 31.4286 43.9504 31.4783C43.9601 32.8911 43.926 34.2992 43.875 35.7109C43.5076 35.7109 43.1402 35.7109 42.7617 35.7109C42.711 34.2502 42.6791 32.7939 42.6875 31.332C41.4384 31.332 40.1893 31.332 38.9023 31.332C38.9023 32.7771 38.9023 34.2221 38.9023 35.7109C38.535 35.7109 38.1676 35.7109 37.7891 35.7109C37.7362 34.25 37.7069 32.7942 37.7148 31.332C36.4657 31.332 35.2166 31.332 33.9297 31.332C33.9297 32.7771 33.9297 34.2221 33.9297 35.7109C33.5378 35.7109 33.1459 35.7109 32.7422 35.7109C32.7422 34.2659 32.7422 32.8209 32.7422 31.332C32.0028 31.3435 32.0028 31.3435 31.2485 31.3552C31.0937 31.3571 30.9389 31.3589 30.7794 31.3608C30.6557 31.3632 30.532 31.3657 30.4084 31.3683C30.3449 31.3687 30.2815 31.3692 30.2162 31.3697C29.8442 31.3786 29.5699 31.4117 29.2539 31.6289C29.0271 31.9094 28.9983 32.1434 28.9828 32.4984C28.9792 32.5777 28.9792 32.5777 28.9756 32.6585C28.9364 33.6331 28.9304 34.6095 28.9175 35.5847C28.9138 35.8673 28.9096 36.15 28.9056 36.4327C28.8977 36.9838 28.8902 37.5348 28.8828 38.0859C28.5154 38.0859 28.148 38.0859 27.7695 38.0859C27.7597 37.491 27.75 36.896 27.7405 36.301C27.7361 36.0246 27.7316 35.7482 27.727 35.4717C27.7168 34.8494 27.7075 34.2271 27.6993 33.6047C27.6958 33.3667 27.6908 33.1288 27.6852 32.8908C27.6831 32.7668 27.6811 32.6427 27.6791 32.5187C27.6774 32.4665 27.6756 32.4142 27.6739 32.3605C27.6676 31.7786 27.864 31.2537 28.2235 30.8021C28.6929 30.3385 29.2145 30.1329 29.8621 30.1356C29.9168 30.1355 29.9716 30.1355 30.028 30.1354C30.2119 30.1353 30.3958 30.1357 30.5798 30.1361C30.7114 30.1361 30.8431 30.1361 30.9747 30.1361C31.3326 30.1361 31.6905 30.1365 32.0483 30.137C32.4222 30.1375 32.796 30.1375 33.1698 30.1376C33.878 30.1378 34.5861 30.1384 35.2942 30.1392C36.1003 30.14 36.9063 30.1404 37.7124 30.1408C39.3708 30.1416 41.0291 30.1429 42.6875 30.1445C42.6875 29.7527 42.6875 29.3608 42.6875 28.957C42.4325 28.9594 42.4325 28.9594 42.1723 28.9617C41.6092 28.9667 41.046 28.9699 40.4829 28.9724C40.1416 28.974 39.8004 28.9761 39.4591 28.9794C39.1295 28.9827 38.7998 28.9844 38.4702 28.9852C38.3447 28.9857 38.2193 28.9868 38.0938 28.9884C36.7635 29.0048 36.7635 29.0048 36.2678 28.5606C35.8205 28.0831 35.8375 27.5101 35.839 26.8963C35.8386 26.8176 35.8382 26.7388 35.8378 26.6577C35.8368 26.3983 35.8369 26.1389 35.8371 25.8796C35.8368 25.6987 35.8364 25.5178 35.8361 25.3369C35.8355 24.9582 35.8356 24.5794 35.8359 24.2007C35.8364 23.7159 35.8351 23.2312 35.8334 22.7465C35.8323 22.373 35.8322 21.9996 35.8325 21.6262C35.8324 21.4475 35.832 21.2688 35.8313 21.0901C35.8304 20.84 35.8309 20.5899 35.8317 20.3398C35.8312 20.2665 35.8306 20.1931 35.83 20.1175C35.8342 19.5623 35.9335 19.1625 36.2444 18.6916C36.8065 18.1545 37.5295 18.2377 38.2563 18.2407Z" fill="#918291"/>
<path d="M17.866 17.1145C18.1578 17.1623 18.244 17.2189 18.418 17.4531C18.5026 17.7071 18.4995 17.9049 18.4968 18.1721C18.4962 18.2597 18.4955 18.3472 18.4948 18.4374C18.4939 18.5045 18.4931 18.5715 18.4922 18.6406C18.5462 18.64 18.6003 18.6393 18.6559 18.6386C19.1659 18.6327 19.6758 18.6282 20.1858 18.6252C20.4479 18.6237 20.7101 18.6216 20.9722 18.6182C21.2738 18.6144 21.5754 18.6129 21.877 18.6116C21.9708 18.6101 22.0647 18.6086 22.1614 18.607C22.2491 18.607 22.3367 18.6069 22.427 18.6069C22.504 18.6063 22.5809 18.6056 22.6602 18.6049C22.9262 18.65 23.0494 18.7528 23.2422 18.9375C23.3245 19.0938 23.3245 19.0938 23.3721 19.2483C23.4257 19.4449 23.4257 19.4449 23.5391 19.6055C23.7122 19.6085 23.8854 19.6086 24.0586 19.6055C24.0667 19.5598 24.0749 19.5142 24.0832 19.4672C24.095 19.4072 24.1068 19.3472 24.1189 19.2854C24.1357 19.1963 24.1357 19.1963 24.1528 19.1054C24.2142 18.9153 24.2727 18.8363 24.4297 18.7148C24.6802 18.6453 24.6802 18.6453 24.9492 18.6406C25.1572 18.7717 25.2843 18.8655 25.3945 19.0859C25.4411 19.5424 25.3409 19.8911 25.0977 20.2734C24.9158 20.4693 24.7259 20.6435 24.5039 20.793C24.4549 20.793 24.4059 20.793 24.3555 20.793C24.3555 21.2338 24.3555 21.6747 24.3555 22.1289C24.4564 22.1334 24.5573 22.1379 24.6613 22.1425C24.7929 22.1488 24.9244 22.1551 25.0559 22.1614C25.1225 22.1643 25.1892 22.1672 25.2578 22.1702C25.3212 22.1733 25.3846 22.1764 25.4499 22.1796C25.5086 22.1824 25.5673 22.1851 25.6278 22.1879C25.7656 22.2031 25.7656 22.2031 25.8398 22.2773C25.8588 22.5768 25.8536 22.8772 25.8538 23.1772C25.8547 23.2611 25.8556 23.3449 25.8565 23.4312C25.8573 23.871 25.8242 24.2303 25.6914 24.6523C25.6778 24.8522 25.6705 25.0422 25.6729 25.2415C25.6723 25.2908 25.6717 25.3401 25.6711 25.3909C25.6723 25.7017 25.724 25.9609 25.8065 26.2622C25.8789 26.6341 25.8579 27.0164 25.8538 27.3938C25.8537 27.5216 25.8537 27.5216 25.8536 27.652C25.8503 28.2786 25.8503 28.2786 25.7656 28.3633C25.6389 28.371 25.5118 28.3736 25.3848 28.3741C25.3036 28.3745 25.2224 28.375 25.1387 28.3755C25.0502 28.3756 24.9618 28.3757 24.8707 28.3757C24.7805 28.376 24.6904 28.3762 24.5975 28.3765C24.4064 28.3769 24.2153 28.377 24.0241 28.377C23.7308 28.3772 23.4374 28.3785 23.1441 28.38C22.9588 28.3802 22.7736 28.3803 22.5884 28.3804C22.5001 28.3809 22.4118 28.3815 22.3209 28.382C22.2394 28.3818 22.1579 28.3815 22.074 28.3813C22.002 28.3814 21.9301 28.3815 21.8559 28.3816C21.6836 28.3633 21.6836 28.3633 21.5352 28.2148C21.501 27.9614 21.5106 27.7049 21.512 27.4495C21.5121 27.3754 21.5122 27.3014 21.5123 27.2252C21.5187 26.7275 21.5769 26.2954 21.7074 25.8152C21.8246 25.3549 21.7695 24.9801 21.6465 24.5271C21.4887 23.9018 21.3143 22.7933 21.6094 22.2031C22.1237 22.2031 22.638 22.2031 23.168 22.2031C23.1435 22.1541 23.119 22.1052 23.0938 22.0547C23.0863 21.7898 23.079 21.5253 23.0814 21.2603C23.0767 21.0938 23.0674 20.9527 23.0195 20.793C22.8115 20.6109 22.8115 20.6109 22.5742 20.4961C22.4257 20.3274 22.3034 20.1772 22.2031 19.9766C20.3662 19.9398 20.3662 19.9398 18.4922 19.9023C18.4922 23.1353 18.4922 26.3683 18.4922 29.6992C18.7126 29.7237 18.933 29.7482 19.1602 29.7734C20.0707 30.0474 20.7737 30.7445 21.4694 31.3579C21.6778 31.5404 21.8892 31.7194 22.1011 31.8979C22.1589 31.9468 22.1589 31.9468 22.2179 31.9965C22.296 32.0624 22.374 32.1282 22.4521 32.194C22.6723 32.3796 22.8923 32.5655 23.1123 32.7515C23.154 32.7866 23.1957 32.8218 23.2386 32.858C23.5307 33.1049 23.5307 33.1049 23.6133 33.1875C23.7404 33.1962 23.8678 33.1999 23.9952 33.2016C24.0767 33.2028 24.1582 33.204 24.2422 33.2053C24.3752 33.2068 24.3752 33.2068 24.5109 33.2084C24.6463 33.2104 24.6463 33.2104 24.7846 33.2125C25.0745 33.2169 25.3644 33.2208 25.6543 33.2246C26.0354 33.2296 26.4166 33.2351 26.7977 33.2408C26.9307 33.2424 26.9307 33.2424 27.0664 33.2439C27.1479 33.2451 27.2294 33.2464 27.3133 33.2477C27.3855 33.2486 27.4576 33.2495 27.5319 33.2505C27.6953 33.2617 27.6953 33.2617 27.7695 33.3359C27.7765 33.484 27.7782 33.6322 27.778 33.7804C27.778 33.8755 27.7779 33.9706 27.7779 34.0686C27.7776 34.1731 27.7772 34.2777 27.7768 34.3822C27.7766 34.4886 27.7765 34.595 27.7765 34.7014C27.7762 34.9819 27.7754 35.2624 27.7746 35.543C27.7739 35.829 27.7735 36.115 27.7732 36.4011C27.7724 36.9627 27.7711 37.5243 27.7695 38.0859C27.025 38.0963 26.2805 38.1042 25.5359 38.109C25.1901 38.1113 24.8444 38.1145 24.4986 38.1195C24.1646 38.1244 23.8307 38.127 23.4967 38.1282C23.3696 38.129 23.2425 38.1306 23.1154 38.133C21.9105 38.155 21.9105 38.155 21.4943 37.7567C21.4588 37.7184 21.4233 37.6801 21.3867 37.6406C21.3045 37.5707 21.2217 37.5016 21.138 37.4336C21.0568 37.3636 20.9758 37.2935 20.895 37.2231C20.8048 37.1453 20.7145 37.0674 20.6242 36.9895C20.532 36.9097 20.4398 36.8298 20.3477 36.75C20.1685 36.5952 19.9891 36.4406 19.8096 36.2861C19.7506 36.2351 19.7506 36.2351 19.6905 36.183C19.3231 35.8667 18.9459 35.5693 18.5664 35.2656C18.5419 36.1963 18.5174 37.127 18.4922 38.0859C18.0758 38.0859 17.6595 38.0859 17.2305 38.0859C17.2305 36.7389 17.2305 35.3918 17.2305 34.0039C17.1325 33.9549 17.0345 33.9059 16.9336 33.8555C16.818 33.758 16.7054 33.6571 16.595 33.554C16.3307 33.3114 16.0623 33.0788 15.7832 32.8535C15.5164 32.6377 15.2575 32.4167 15.0039 32.1855C14.7487 31.953 14.4882 31.7304 14.22 31.5129C13.9574 31.2996 13.6965 31.0849 13.4407 30.8635C13.3878 30.8179 13.3349 30.7723 13.2803 30.7252C13.0174 30.4554 12.9769 30.2292 12.9722 29.8569C12.9797 29.4704 13.0223 29.2461 13.2969 28.957C13.5949 28.7006 13.8497 28.6196 14.229 28.57C14.7458 28.6155 15.0939 28.9205 15.4631 29.2539C15.5523 29.3328 15.6415 29.4117 15.7307 29.4905C15.7694 29.5252 15.8081 29.5599 15.8479 29.5957C16.3927 30.0623 16.296 29.9195 17.2305 29.8477C17.2305 26.5657 17.2305 23.2838 17.2305 19.9023C16.8631 19.9023 16.4957 19.9023 16.1172 19.9023C15.7461 19.6797 15.7461 19.6797 15.6719 19.5312C15.6379 19.0731 15.6379 19.0731 15.7693 18.8354C16.0305 18.5839 16.349 18.6319 16.6877 18.636C16.7398 18.6363 16.7919 18.6367 16.8456 18.637C16.9739 18.6379 17.1022 18.6392 17.2305 18.6406C17.224 18.5265 17.224 18.5265 17.2174 18.4101C17.2139 18.3092 17.2106 18.2082 17.2073 18.1072C17.2042 18.0572 17.2011 18.0072 17.1979 17.9557C17.1907 17.6642 17.2201 17.5407 17.4009 17.3082C17.6016 17.1562 17.6016 17.1562 17.866 17.1145Z" fill="#E7ECF1"/>
<path d="M37.6771 19.4381C37.7521 19.4378 37.7521 19.4378 37.8287 19.4374C37.9971 19.4368 38.1655 19.4373 38.334 19.4377C38.4544 19.4375 38.5748 19.4373 38.6952 19.437C39.0229 19.4363 39.3506 19.4365 39.6783 19.437C40.0207 19.4374 40.363 19.437 40.7054 19.4368C41.2804 19.4365 41.8554 19.4369 42.4304 19.4376C43.096 19.4384 43.7615 19.4381 44.427 19.4373C44.9976 19.4367 45.5682 19.4366 46.1389 19.4369C46.48 19.4372 46.8212 19.4372 47.1623 19.4367C47.483 19.4363 47.8037 19.4366 48.1243 19.4374C48.2423 19.4376 48.3602 19.4376 48.4782 19.4373C48.6387 19.4369 48.7991 19.4374 48.9596 19.4381C49.0496 19.4382 49.1396 19.4382 49.2323 19.4383C49.4414 19.4569 49.4414 19.4569 49.5898 19.6054C49.6085 19.7484 49.6085 19.7484 49.6087 19.9265C49.6093 20.0277 49.6093 20.0277 49.61 20.1309C49.6095 20.2422 49.6095 20.2422 49.609 20.3557C49.6094 20.4726 49.6094 20.4726 49.6098 20.5919C49.6105 20.8507 49.6101 21.1094 49.6096 21.3681C49.6097 21.5472 49.6098 21.7264 49.61 21.9055C49.6102 22.2814 49.6099 22.6572 49.6092 23.0331C49.6083 23.5158 49.6088 23.9985 49.6097 24.4812C49.6103 24.8512 49.6101 25.2213 49.6097 25.5913C49.6096 25.7693 49.6097 25.9474 49.6101 26.1254C49.6104 26.3738 49.6099 26.6223 49.609 26.8707C49.6093 26.9449 49.6096 27.0191 49.61 27.0955C49.6095 27.1629 49.6091 27.2304 49.6087 27.2999C49.6086 27.388 49.6086 27.388 49.6085 27.478C49.5898 27.621 49.5898 27.621 49.4414 27.7694C49.2323 27.7881 49.2323 27.7881 48.9596 27.7883C48.8846 27.7886 48.8846 27.7886 48.808 27.789C48.6396 27.7896 48.4712 27.7891 48.3028 27.7887C48.1823 27.7889 48.0619 27.7891 47.9415 27.7894C47.6138 27.7901 47.2861 27.7899 46.9584 27.7894C46.616 27.789 46.2737 27.7894 45.9313 27.7896C45.3563 27.7899 44.7813 27.7895 44.2063 27.7888C43.5407 27.788 42.8752 27.7883 42.2097 27.7891C41.6391 27.7897 41.0685 27.7898 40.4978 27.7894C40.1567 27.7892 39.8155 27.7892 39.4744 27.7897C39.1537 27.7901 38.8331 27.7898 38.5124 27.789C38.3944 27.7888 38.2765 27.7888 38.1585 27.7891C37.998 27.7895 37.8376 27.789 37.6771 27.7883C37.5871 27.7882 37.4971 27.7882 37.4044 27.7881C37.1953 27.7694 37.1953 27.7694 37.0469 27.621C37.0282 27.478 37.0282 27.478 37.028 27.2999C37.0274 27.1987 37.0274 27.1987 37.0268 27.0955C37.0271 27.0213 37.0274 26.9471 37.0277 26.8707C37.0274 26.7927 37.0271 26.7148 37.0269 26.6344C37.0262 26.3757 37.0267 26.117 37.0272 25.8583C37.0271 25.6792 37.0269 25.5 37.0267 25.3209C37.0265 24.945 37.0268 24.5692 37.0275 24.1933C37.0284 23.7106 37.0279 23.2279 37.027 22.7452C37.0265 22.3752 37.0266 22.0051 37.027 21.6351C37.0271 21.4571 37.027 21.279 37.0266 21.101C37.0263 20.8526 37.0268 20.6041 37.0277 20.3557C37.0274 20.2815 37.0271 20.2073 37.0268 20.1309C37.0272 20.0635 37.0276 19.996 37.028 19.9265C37.0281 19.8678 37.0281 19.809 37.0282 19.7484C37.0766 19.378 37.3771 19.4383 37.6771 19.4381Z" fill="#8DB8FE"/>
<path d="M28.8828 33.2617C30.1564 33.2617 31.43 33.2617 32.7422 33.2617C32.7422 34.07 32.7422 34.8782 32.7422 35.7109C33.1341 35.7109 33.5259 35.7109 33.9297 35.7109C33.9297 34.9027 33.9297 34.0945 33.9297 33.2617C34.4674 33.26 35.0051 33.2585 35.5428 33.2576C35.7259 33.2573 35.909 33.2568 36.0921 33.2561C36.3546 33.2552 36.6171 33.2548 36.8796 33.2545C36.962 33.2541 37.0444 33.2537 37.1293 33.2533C37.243 33.2533 37.243 33.2533 37.359 33.2533C37.426 33.2531 37.4931 33.253 37.5622 33.2528C37.7148 33.2617 37.7148 33.2617 37.7891 33.3359C37.7956 33.5123 37.7976 33.6864 37.7963 33.8627C37.7962 33.9153 37.7961 33.9679 37.796 34.0221C37.7956 34.1908 37.7946 34.3594 37.7937 34.5281C37.7933 34.6422 37.793 34.7562 37.7927 34.8703C37.7919 35.1505 37.7905 35.4307 37.7891 35.7109C38.1564 35.7109 38.5238 35.7109 38.9023 35.7109C38.9023 34.9027 38.9023 34.0945 38.9023 33.2617C40.1759 33.2617 41.4495 33.2617 42.7617 33.2617C42.7617 34.07 42.7617 34.8782 42.7617 35.7109C43.1291 35.7109 43.4965 35.7109 43.875 35.7109C43.8741 35.5404 43.8733 35.3698 43.8724 35.194C43.8718 35.0294 43.8714 34.8649 43.8709 34.7003C43.8705 34.5856 43.87 34.4709 43.8694 34.3562C43.8685 34.1917 43.8681 34.0272 43.8678 33.8627C43.8674 33.8111 43.867 33.7596 43.8666 33.7065C43.8666 33.5829 43.8704 33.4594 43.875 33.3359C43.9492 33.2617 43.9492 33.2617 44.209 33.2432C44.787 33.2525 45.2539 33.4438 45.6562 33.8555C46.082 34.4627 46.034 34.987 46.0273 35.7109C46.5907 35.7109 47.154 35.7109 47.7344 35.7109C47.7344 36.4947 47.7344 37.2784 47.7344 38.0859C41.5134 38.0859 35.2923 38.0859 28.8828 38.0859C28.8828 36.4939 28.8828 34.902 28.8828 33.2617Z" fill="#E7ECF1"/>
<path d="M38.2563 18.2407C38.379 18.2404 38.5017 18.24 38.6244 18.2395C38.9563 18.2385 39.2883 18.2389 39.6203 18.2396C39.9684 18.2402 40.3165 18.2397 40.6646 18.2393C41.2491 18.2389 41.8335 18.2394 42.418 18.2405C43.0929 18.2417 43.7677 18.2413 44.4426 18.2401C45.023 18.2391 45.6033 18.2389 46.1836 18.2395C46.5299 18.2399 46.8761 18.2399 47.2223 18.2392C47.5479 18.2385 47.8734 18.239 48.199 18.2403C48.3181 18.2406 48.4373 18.2405 48.5565 18.24C49.8758 18.235 49.8758 18.235 50.3526 18.6334C50.4136 18.7081 50.4136 18.7081 50.4758 18.7844C50.5178 18.8341 50.5598 18.8837 50.6031 18.9349C50.7734 19.1921 50.7867 19.4362 50.7878 19.7395C50.7882 19.8111 50.7886 19.8827 50.789 19.9565C50.7892 20.0735 50.7892 20.0735 50.7893 20.1929C50.7897 20.2755 50.79 20.3581 50.7904 20.4432C50.7915 20.7165 50.792 20.9899 50.7924 21.2632C50.7928 21.4531 50.7933 21.643 50.7937 21.8328C50.7944 22.1801 50.7948 22.5274 50.7951 22.8747C50.7954 23.3853 50.7967 23.8959 50.7989 24.4065C50.8007 24.8493 50.8012 25.2921 50.8014 25.7349C50.8016 25.923 50.8022 26.1111 50.8031 26.2993C50.8044 26.5624 50.8043 26.8255 50.8038 27.0886C50.8045 27.1664 50.8052 27.2441 50.8059 27.3242C50.8029 27.8395 50.726 28.1587 50.3877 28.5627C49.9802 28.9054 49.6029 28.9904 49.0805 28.9823C49.0247 28.9823 48.9688 28.9824 48.9113 28.9824C48.7286 28.9823 48.5459 28.9805 48.3632 28.9788C48.2358 28.9784 48.1084 28.978 47.981 28.9778C47.6471 28.977 47.3131 28.9748 46.9792 28.9723C46.6379 28.97 46.2966 28.969 45.9553 28.9679C45.2866 28.9655 44.6179 28.9616 43.9492 28.957C43.9492 29.3489 43.9492 29.7408 43.9492 30.1445C43.5328 30.1445 43.1165 30.1445 42.6875 30.1445C42.6875 29.7527 42.6875 29.3608 42.6875 28.957C42.4325 28.9594 42.4325 28.9594 42.1723 28.9617C41.6092 28.9667 41.046 28.9699 40.4829 28.9724C40.1416 28.974 39.8004 28.9761 39.4591 28.9794C39.1294 28.9827 38.7998 28.9844 38.4702 28.9852C38.3447 28.9857 38.2192 28.9868 38.0938 28.9884C36.7635 29.0048 36.7635 29.0048 36.2678 28.5606C35.8205 28.0831 35.8374 27.5101 35.839 26.8963C35.8386 26.8176 35.8382 26.7388 35.8378 26.6577C35.8368 26.3983 35.8369 26.1389 35.837 25.8796C35.8368 25.6987 35.8364 25.5178 35.8361 25.3369C35.8355 24.9582 35.8355 24.5794 35.8359 24.2007C35.8364 23.7159 35.8351 23.2312 35.8334 22.7465C35.8323 22.373 35.8322 21.9996 35.8325 21.6262C35.8324 21.4475 35.832 21.2688 35.8313 21.0901C35.8304 20.84 35.8309 20.5899 35.8317 20.3398C35.8312 20.2665 35.8306 20.1931 35.83 20.1175C35.8342 19.5623 35.9335 19.1625 36.2444 18.6916C36.8065 18.1545 37.5295 18.2377 38.2563 18.2407ZM37.0469 19.6055C37.0244 19.7539 37.0244 19.7539 37.028 19.9266C37.0276 19.9941 37.0272 20.0615 37.0268 20.131C37.0271 20.2052 37.0274 20.2793 37.0277 20.3558C37.0274 20.4337 37.0271 20.5117 37.0269 20.592C37.0262 20.8507 37.0267 21.1094 37.0272 21.3682C37.0271 21.5473 37.0269 21.7265 37.0267 21.9056C37.0265 22.2815 37.0268 22.6573 37.0275 23.0332C37.0284 23.5159 37.0279 23.9986 37.027 24.4813C37.0265 24.8513 37.0266 25.2213 37.027 25.5914C37.0271 25.7694 37.027 25.9474 37.0266 26.1255C37.0263 26.3739 37.0268 26.6223 37.0277 26.8708C37.0274 26.945 37.0271 27.0192 37.0268 27.0956C37.0272 27.163 37.0276 27.2305 37.028 27.2999C37.0281 27.3587 37.0281 27.4175 37.0282 27.4781C37.0344 27.6388 37.0344 27.6388 37.1953 27.7695C37.4147 27.7922 37.4147 27.7922 37.6771 27.7884C37.7271 27.7886 37.7771 27.7888 37.8287 27.7891C37.9971 27.7897 38.1655 27.7892 38.334 27.7887C38.4544 27.7889 38.5748 27.7892 38.6952 27.7895C39.0229 27.7902 39.3506 27.7899 39.6783 27.7895C40.0207 27.7891 40.363 27.7894 40.7054 27.7897C41.2804 27.7899 41.8554 27.7896 42.4304 27.7889C43.096 27.7881 43.7615 27.7883 44.427 27.7892C44.9976 27.7898 45.5682 27.7899 46.1389 27.7895C46.48 27.7893 46.8212 27.7893 47.1623 27.7898C47.483 27.7902 47.8037 27.7899 48.1243 27.789C48.2423 27.7888 48.3602 27.7889 48.4782 27.7892C48.6387 27.7896 48.7991 27.7891 48.9596 27.7884C49.0496 27.7883 49.1396 27.7883 49.2323 27.7882C49.4515 27.7912 49.4515 27.7912 49.5898 27.6211C49.6123 27.4727 49.6123 27.4727 49.6087 27.2999C49.6091 27.2325 49.6095 27.1651 49.61 27.0956C49.6097 27.0214 49.6094 26.9472 49.609 26.8708C49.6093 26.7928 49.6096 26.7149 49.6098 26.6345C49.6105 26.3758 49.6101 26.1171 49.6096 25.8584C49.6097 25.6793 49.6098 25.5001 49.61 25.321C49.6102 24.9451 49.6099 24.5693 49.6092 24.1934C49.6083 23.7107 49.6088 23.228 49.6097 22.7453C49.6103 22.3752 49.6101 22.0052 49.6097 21.6352C49.6096 21.4571 49.6097 21.2791 49.6101 21.1011C49.6104 20.8526 49.6099 20.6042 49.609 20.3558C49.6095 20.2445 49.6095 20.2445 49.61 20.131C49.6093 20.0298 49.6093 20.0298 49.6087 19.9266C49.6086 19.8678 49.6086 19.8091 49.6085 19.7485C49.6023 19.5878 49.6023 19.5878 49.4414 19.457C49.222 19.4343 49.222 19.4343 48.9596 19.4382C48.9096 19.4379 48.8596 19.4377 48.808 19.4375C48.6396 19.4369 48.4712 19.4374 48.3028 19.4378C48.1823 19.4376 48.0619 19.4374 47.9415 19.437C47.6138 19.4364 47.2861 19.4366 46.9584 19.4371C46.616 19.4375 46.2737 19.4371 45.9313 19.4369C45.3563 19.4366 44.7813 19.437 44.2063 19.4377C43.5407 19.4385 42.8752 19.4382 42.2097 19.4374C41.6391 19.4367 41.0685 19.4366 40.4978 19.437C40.1567 19.4373 39.8155 19.4373 39.4744 19.4368C39.1537 19.4364 38.8331 19.4367 38.5124 19.4375C38.3944 19.4377 38.2765 19.4377 38.1585 19.4373C37.998 19.4369 37.8376 19.4374 37.6771 19.4382C37.5871 19.4382 37.4971 19.4383 37.4044 19.4383C37.1852 19.4354 37.1852 19.4354 37.0469 19.6055Z" fill="#918291"/>
<path d="M17.866 17.1145C18.1578 17.1623 18.244 17.2189 18.418 17.4531C18.5026 17.7071 18.4995 17.9049 18.4968 18.1721C18.4962 18.2597 18.4955 18.3472 18.4948 18.4374C18.4939 18.5045 18.4931 18.5715 18.4922 18.6406C18.5462 18.64 18.6003 18.6393 18.6559 18.6386C19.1659 18.6327 19.6758 18.6282 20.1858 18.6252C20.4479 18.6237 20.7101 18.6216 20.9722 18.6182C21.2738 18.6144 21.5754 18.6129 21.877 18.6116C21.9708 18.6101 22.0647 18.6086 22.1614 18.607C22.2491 18.607 22.3367 18.6069 22.427 18.6069C22.504 18.6063 22.5809 18.6056 22.6602 18.6049C22.9262 18.65 23.0494 18.7528 23.2422 18.9375C23.3245 19.0938 23.3245 19.0938 23.3721 19.2483C23.4257 19.4449 23.4257 19.4449 23.5391 19.6055C23.7122 19.6085 23.8855 19.6086 24.0586 19.6055C24.0667 19.5598 24.0749 19.5142 24.0832 19.4672C24.1009 19.3772 24.1009 19.3772 24.1189 19.2854C24.1357 19.1963 24.1357 19.1963 24.1528 19.1054C24.2142 18.9153 24.2727 18.8363 24.4297 18.7148C24.6802 18.6453 24.6802 18.6453 24.9492 18.6406C25.1572 18.7717 25.2843 18.8655 25.3945 19.0859C25.4411 19.5424 25.3409 19.8911 25.0977 20.2734C24.9158 20.4693 24.7259 20.6435 24.5039 20.793C24.4549 20.793 24.4059 20.793 24.3555 20.793C24.3555 21.2338 24.3555 21.6747 24.3555 22.1289C24.4564 22.1334 24.5573 22.1379 24.6613 22.1425C24.7929 22.1488 24.9244 22.1551 25.0559 22.1614C25.1226 22.1643 25.1892 22.1672 25.2578 22.1702C25.3212 22.1733 25.3846 22.1764 25.4499 22.1796C25.5086 22.1824 25.5673 22.1851 25.6278 22.1879C25.7656 22.2031 25.7656 22.2031 25.8398 22.2773C25.8588 22.5768 25.8536 22.8772 25.8538 23.1772C25.8547 23.2611 25.8556 23.3449 25.8565 23.4312C25.8573 23.871 25.8242 24.2303 25.6914 24.6523C25.6778 24.8522 25.6706 25.0422 25.6729 25.2415C25.6723 25.2908 25.6717 25.3401 25.6711 25.3909C25.6723 25.7017 25.724 25.9609 25.8065 26.2622C25.8789 26.6341 25.8579 27.0164 25.8538 27.3938C25.8537 27.5216 25.8537 27.5216 25.8536 27.652C25.8503 28.2786 25.8503 28.2786 25.7656 28.3633C25.6389 28.371 25.5118 28.3736 25.3848 28.3741C25.3036 28.3745 25.2224 28.375 25.1387 28.3755C25.0502 28.3756 24.9618 28.3757 24.8707 28.3757C24.7805 28.376 24.6904 28.3762 24.5975 28.3765C24.4064 28.3769 24.2153 28.377 24.0242 28.377C23.7308 28.3772 23.4374 28.3785 23.1441 28.38C22.9588 28.3802 22.7736 28.3803 22.5884 28.3804C22.5001 28.3809 22.4118 28.3815 22.3209 28.382C22.2394 28.3818 22.1579 28.3815 22.074 28.3813C22.002 28.3814 21.9301 28.3815 21.8559 28.3816C21.6836 28.3633 21.6836 28.3633 21.5352 28.2148C21.501 27.9614 21.5106 27.7049 21.512 27.4495C21.5121 27.3754 21.5122 27.3014 21.5123 27.2252C21.5187 26.7275 21.5769 26.2954 21.7074 25.8152C21.8246 25.3549 21.7696 24.9801 21.6465 24.5271C21.4887 23.9018 21.3143 22.7933 21.6094 22.2031C22.1237 22.2031 22.6381 22.2031 23.168 22.2031C23.1435 22.1541 23.119 22.1052 23.0938 22.0547C23.0864 21.7898 23.079 21.5253 23.0814 21.2603C23.0767 21.0938 23.0674 20.9527 23.0195 20.793C22.8115 20.6109 22.8115 20.6109 22.5742 20.4961C22.4257 20.3274 22.3035 20.1772 22.2031 19.9766C20.3662 19.9398 20.3662 19.9398 18.4922 19.9023C18.4922 23.1353 18.4922 26.3683 18.4922 29.6992C17.8676 29.7727 17.8676 29.7727 17.2305 29.8477C17.2305 26.5657 17.2305 23.2838 17.2305 19.9023C16.8631 19.9023 16.4957 19.9023 16.1172 19.9023C15.7461 19.6797 15.7461 19.6797 15.6719 19.5312C15.6379 19.0731 15.6379 19.0731 15.7693 18.8354C16.0305 18.5839 16.349 18.6319 16.6877 18.636C16.7398 18.6363 16.7919 18.6367 16.8456 18.637C16.9739 18.6379 17.1022 18.6392 17.2305 18.6406C17.2262 18.5646 17.2219 18.4885 17.2174 18.4101C17.2139 18.3092 17.2106 18.2082 17.2073 18.1072C17.2042 18.0572 17.2011 18.0072 17.1979 17.9557C17.1908 17.6642 17.2201 17.5407 17.4009 17.3082C17.6016 17.1562 17.6016 17.1562 17.866 17.1145Z" fill="#796C78"/>
<path d="M20.1157 30.214C20.5871 30.5708 21.0271 30.9685 21.4706 31.3589C21.6787 31.541 21.8896 31.7197 22.1011 31.8978C22.1396 31.9304 22.1782 31.9629 22.2179 31.9964C22.296 32.0623 22.374 32.1281 22.4521 32.1938C22.6723 32.3795 22.8923 32.5654 23.1123 32.7513C23.154 32.7865 23.1957 32.8217 23.2386 32.8579C23.5307 33.1048 23.5307 33.1048 23.6133 33.1874C23.7404 33.1961 23.8678 33.1998 23.9952 33.2014C24.0767 33.2027 24.1582 33.2039 24.2422 33.2052C24.3752 33.2067 24.3752 33.2067 24.5109 33.2083C24.6463 33.2103 24.6463 33.2103 24.7846 33.2124C25.0745 33.2168 25.3644 33.2207 25.6543 33.2245C26.0354 33.2295 26.4166 33.235 26.7977 33.2407C26.9307 33.2422 26.9307 33.2422 27.0664 33.2438C27.1479 33.245 27.2294 33.2463 27.3133 33.2475C27.4215 33.2489 27.4215 33.2489 27.5319 33.2504C27.6953 33.2616 27.6953 33.2616 27.7695 33.3358C27.7761 33.5121 27.7781 33.6863 27.7768 33.8626C27.7766 33.9415 27.7766 33.9415 27.7765 34.022C27.776 34.1907 27.7751 34.3593 27.7742 34.528C27.7738 34.642 27.7735 34.7561 27.7732 34.8702C27.7723 35.1504 27.7711 35.4306 27.7695 35.7108C27.1501 35.7334 26.5309 35.7504 25.9112 35.7608C25.6233 35.7658 25.3357 35.7726 25.0479 35.7836C22.9325 35.8627 22.9325 35.8627 22.3273 35.384C22.1589 35.2233 22.009 35.0556 21.865 34.8729C21.6752 34.6482 21.446 34.4686 21.2197 34.2821C21.1338 34.2087 21.048 34.1352 20.9623 34.0615C20.7414 33.8736 20.5173 33.69 20.292 33.5075C19.9673 33.244 19.657 32.968 19.348 32.6864C19.1536 32.5136 18.9542 32.349 18.752 32.1854C18.4852 31.9696 18.2263 31.7486 17.9727 31.5175C17.542 31.1252 17.0913 30.758 16.6347 30.3964C16.5339 30.3155 16.4363 30.2305 16.3398 30.1444C16.3398 30.0954 16.3398 30.0464 16.3398 29.996C17.6431 29.7023 18.9208 29.42 20.1157 30.214Z" fill="#8DB9FE"/>
<path d="M21.6094 22.203C21.8769 22.1965 22.1443 22.1926 22.4119 22.1891C22.5259 22.1863 22.5259 22.1863 22.6422 22.1834C22.7516 22.1824 22.7516 22.1824 22.8633 22.1813C22.9641 22.1795 22.9641 22.1795 23.067 22.1777C23.2782 22.2082 23.3234 22.2736 23.4648 22.4257C23.7246 22.4628 23.7246 22.4628 23.9844 22.4257C24.019 22.3888 24.0537 22.352 24.0894 22.3141C24.2502 22.1622 24.3489 22.1763 24.5671 22.1787C24.671 22.1792 24.671 22.1792 24.777 22.1798C24.8852 22.1821 24.8852 22.1821 24.9956 22.1844C25.0683 22.1848 25.141 22.1852 25.2159 22.1856C25.7542 22.1916 25.7542 22.1916 25.8398 22.2772C25.8588 22.5767 25.8536 22.8771 25.8538 23.1771C25.8547 23.2609 25.8556 23.3447 25.8565 23.4311C25.8573 23.8709 25.8242 24.2302 25.6914 24.6522C25.6778 24.8521 25.6705 25.042 25.6729 25.2413C25.6723 25.2907 25.6717 25.34 25.6711 25.3908C25.6723 25.7016 25.724 25.9608 25.8065 26.262C25.8789 26.634 25.8579 27.0162 25.8538 27.3937C25.8537 27.4789 25.8537 27.5641 25.8536 27.6518C25.8503 28.2785 25.8503 28.2785 25.7656 28.3632C25.6389 28.3709 25.5118 28.3734 25.3848 28.3739C25.263 28.3747 25.263 28.3747 25.1387 28.3754C25.0502 28.3755 24.9618 28.3755 24.8707 28.3756C24.7805 28.3759 24.6904 28.3761 24.5975 28.3764C24.4064 28.3768 24.2153 28.3769 24.0242 28.3769C23.7308 28.3771 23.4374 28.3784 23.1441 28.3798C22.9588 28.38 22.7736 28.3802 22.5884 28.3803C22.5001 28.3808 22.4118 28.3813 22.3209 28.3819C22.2394 28.3817 22.1579 28.3814 22.074 28.3812C22.002 28.3813 21.9301 28.3814 21.8559 28.3815C21.6836 28.3632 21.6836 28.3632 21.5352 28.2147C21.501 27.9613 21.5106 27.7048 21.512 27.4493C21.5121 27.3753 21.5122 27.3013 21.5123 27.225C21.5187 26.7274 21.5769 26.2953 21.7074 25.8151C21.8246 25.3548 21.7696 24.98 21.6465 24.527C21.4887 23.9017 21.3143 22.7932 21.6094 22.203Z" fill="#FE7E7B"/>
<path d="M44.9141 21.6836C45.1941 21.79 45.3445 21.8903 45.5496 22.1104C45.7112 22.2941 45.7112 22.2941 45.9068 22.2913C46.1457 22.1832 46.3141 22.0368 46.506 21.8599C46.6838 21.7023 46.7676 21.6837 47.0108 21.665C47.4104 21.6917 47.6376 21.799 47.906 22.0964C48.1144 22.3974 48.1579 22.6574 48.1055 23.0195C47.946 23.4019 47.7304 23.6471 47.439 23.9305C47.3752 23.9938 47.3752 23.9938 47.3101 24.0583C47.1753 24.1919 47.0397 24.3247 46.9041 24.4575C46.8121 24.5484 46.7201 24.6393 46.6282 24.7303C46.4038 24.9523 46.1786 25.1736 45.9531 25.3945C45.7279 25.297 45.6094 25.2081 45.4704 25.0069C45.1629 24.6095 44.8804 24.2671 44.3726 24.1512C43.787 24.0879 43.2007 24.0989 42.6133 24.1328C42.592 24.1883 42.5707 24.2438 42.5488 24.301C42.4346 24.577 42.2848 24.8238 42.1309 25.0791C42.1009 25.1299 42.071 25.1807 42.0401 25.233C41.8151 25.6081 41.8151 25.6081 41.6485 25.6914C41.2143 25.7259 41.2143 25.7259 41.0547 25.6914C40.8711 25.482 40.7741 25.2741 40.6804 25.0136C40.6543 24.9415 40.6283 24.8695 40.6014 24.7953C40.575 24.7206 40.5485 24.6458 40.5213 24.5688C40.4939 24.4936 40.4666 24.4183 40.4385 24.3407C40.2383 23.7828 40.2383 23.7828 40.2383 23.6133C40.1893 23.6133 40.1403 23.6133 40.0899 23.6133C40.07 23.6577 40.0501 23.7021 40.0296 23.7478C39.9389 23.9148 39.8652 24.0127 39.7188 24.1328C39.4875 24.179 39.2537 24.1672 39.0183 24.1653C38.9227 24.1675 38.9227 24.1675 38.8251 24.1698C38.3605 24.1694 38.3605 24.1694 38.1181 23.9986C37.9615 23.7591 37.9718 23.596 38.0117 23.3164C38.1364 23.1512 38.1364 23.1512 38.3086 23.0195C38.5063 23.0108 38.5063 23.0108 38.7261 23.0288C38.9656 23.02 39.1303 23.0091 39.3106 22.8423C39.4933 22.6204 39.6456 22.3828 39.7959 22.1382C39.9414 21.9063 39.9414 21.9063 40.0899 21.832C40.5193 21.7905 40.5193 21.7905 40.6836 21.832C41.0147 22.1394 41.1213 22.5511 41.2588 22.9685C41.2822 23.0376 41.3057 23.1068 41.3298 23.178C41.3872 23.3476 41.4439 23.5174 41.5 23.6875C41.6247 23.5215 41.7488 23.3551 41.872 23.188C42.2018 22.9375 42.4943 22.9788 42.8963 22.9963C42.9689 22.998 43.0416 22.9997 43.1164 23.0014C43.2952 23.0058 43.4737 23.0119 43.6524 23.0195C43.6499 22.9265 43.6474 22.8335 43.6448 22.7377C43.6359 22.405 43.7287 22.2358 43.9492 21.9805C44.2737 21.7065 44.4913 21.6308 44.9141 21.6836Z" fill="#EDF2F5"/>
<path d="M47.1406 18.2695C47.4786 18.2639 47.8165 18.2599 48.1544 18.2573C48.2692 18.2561 48.3839 18.2546 48.4986 18.2527C49.8699 18.2301 49.8699 18.2301 50.3526 18.6333C50.4136 18.7081 50.4136 18.7081 50.4758 18.7844C50.5178 18.834 50.5598 18.8837 50.6031 18.9348C50.7734 19.1921 50.7867 19.4361 50.7878 19.7395C50.7882 19.8111 50.7886 19.8827 50.7891 19.9564C50.7891 20.0344 50.7892 20.1125 50.7893 20.1929C50.7899 20.3168 50.7899 20.3168 50.7904 20.4431C50.7915 20.7165 50.792 20.9898 50.7924 21.2632C50.7928 21.453 50.7933 21.6429 50.7937 21.8328C50.7944 22.1801 50.7948 22.5274 50.7951 22.8747C50.7954 23.3852 50.7967 23.8958 50.7989 24.4064C50.8007 24.8492 50.8012 25.292 50.8014 25.7348C50.8016 25.923 50.8022 26.1111 50.8032 26.2992C50.8044 26.5624 50.8043 26.8254 50.8038 27.0886C50.8048 27.2052 50.8048 27.2052 50.8059 27.3242C50.8029 27.8394 50.726 28.1586 50.3877 28.5627C49.9727 28.9117 49.5931 28.9904 49.0613 28.9787C49.006 28.9784 48.9508 28.9781 48.8938 28.9778C48.7191 28.9765 48.5445 28.9737 48.3699 28.9709C48.2507 28.9698 48.1315 28.9688 48.0123 28.9679C47.7217 28.9654 47.4312 28.9616 47.1406 28.957C47.2891 28.8085 47.2891 28.8085 47.5024 28.7158C47.7798 28.5604 47.8812 28.4184 48.0312 28.1406C48.0589 28.0175 48.0842 27.8938 48.1055 27.7695C48.201 27.765 48.2966 27.7605 48.3951 27.7559C48.5197 27.7496 48.6442 27.7433 48.7688 27.737C48.8319 27.7341 48.895 27.7312 48.96 27.7282C49.02 27.7251 49.0801 27.722 49.1419 27.7187C49.1975 27.716 49.2531 27.7133 49.3103 27.7105C49.4432 27.7088 49.4432 27.7088 49.5156 27.621C49.5229 27.517 49.525 27.4126 49.525 27.3083C49.5253 27.2409 49.5255 27.1734 49.5257 27.104C49.5255 27.0294 49.5254 26.9548 49.5252 26.878C49.5254 26.7999 49.5255 26.7218 49.5256 26.6414C49.526 26.3819 49.5257 26.1225 49.5255 25.863C49.5255 25.6836 49.5256 25.5041 49.5257 25.3247C49.5258 24.9481 49.5256 24.5715 49.5253 24.1949C49.5249 23.7109 49.5251 23.227 49.5256 22.743C49.5258 22.3723 49.5257 22.0016 49.5256 21.631C49.5255 21.4525 49.5256 21.274 49.5257 21.0955C49.5259 20.8465 49.5256 20.5975 49.5252 20.3485C49.5254 20.2739 49.5255 20.1993 49.5257 20.1225C49.5255 20.0551 49.5253 19.9876 49.525 19.9181C49.525 19.8592 49.525 19.8003 49.525 19.7395C49.5303 19.6038 49.5303 19.6038 49.4414 19.5312C49.3419 19.5196 49.2419 19.5126 49.1419 19.5077C49.0819 19.5046 49.0219 19.5015 48.96 19.4983C48.8969 19.4954 48.8338 19.4925 48.7688 19.4895C48.7054 19.4862 48.642 19.483 48.5767 19.4797C48.4197 19.4718 48.2626 19.4644 48.1055 19.457C48.0914 19.4166 48.0774 19.3762 48.063 19.3346C48.0439 19.2814 48.0248 19.2282 48.0052 19.1734C47.9865 19.1208 47.9679 19.0682 47.9487 19.014C47.8142 18.7064 47.6011 18.5339 47.303 18.3947C47.2494 18.3779 47.1958 18.361 47.1406 18.3437C47.1406 18.3192 47.1406 18.2947 47.1406 18.2695Z" fill="#7A6D79"/>
<path d="M17.2305 19.8281C17.6223 19.8281 18.0142 19.8281 18.418 19.8281C18.4922 19.9023 18.4922 19.9023 18.5013 20.0645C18.5013 20.1367 18.5012 20.2088 18.5011 20.2832C18.5012 20.3657 18.5013 20.4483 18.5014 20.5333C18.5012 20.6246 18.5009 20.716 18.5006 20.8101C18.5006 20.9057 18.5006 21.0012 18.5006 21.0997C18.5007 21.3625 18.5002 21.6253 18.4997 21.8881C18.4993 22.1625 18.4992 22.4369 18.4991 22.7113C18.4989 23.2312 18.4983 23.7511 18.4975 24.271C18.4967 24.8628 18.4963 25.4546 18.4959 26.0463C18.4951 27.264 18.4938 28.4816 18.4922 29.6992C17.8676 29.7727 17.8676 29.7727 17.2305 29.8477C17.2305 26.5412 17.2305 23.2348 17.2305 19.8281Z" fill="#908190"/>
<path d="M21.6094 22.203C21.8769 22.1965 22.1443 22.1926 22.4119 22.1891C22.5259 22.1863 22.5259 22.1863 22.6422 22.1834C22.7516 22.1824 22.7516 22.1824 22.8633 22.1813C22.9641 22.1795 22.9641 22.1795 23.067 22.1777C23.2782 22.2082 23.3234 22.2736 23.4649 22.4257C23.7246 22.4628 23.7246 22.4628 23.9844 22.4257C24.0191 22.3888 24.0537 22.352 24.0894 22.3141C24.2502 22.1622 24.3489 22.1763 24.5671 22.1787C24.671 22.1792 24.671 22.1792 24.777 22.1798C24.8852 22.1821 24.8852 22.1821 24.9956 22.1844C25.0683 22.1848 25.141 22.1852 25.216 22.1856C25.7542 22.1916 25.7542 22.1916 25.8399 22.2772C25.8588 22.5767 25.8536 22.8771 25.8538 23.1771C25.8547 23.2609 25.8556 23.3447 25.8565 23.4311C25.8573 23.8695 25.8293 24.2324 25.6914 24.6522C25.6713 24.8234 25.6557 24.9951 25.645 25.1671C25.6395 25.252 25.6339 25.3368 25.6282 25.4243C25.6246 25.4879 25.6209 25.5515 25.6172 25.6171C24.8092 25.6848 24.2308 25.5884 23.5037 25.2257C23.0781 25.0171 22.7229 24.9295 22.2495 24.9027C22.1571 24.8972 22.0647 24.8916 21.9695 24.8859C21.8996 24.8823 21.8298 24.8786 21.7578 24.8749C21.472 24.0684 21.4688 23.1981 21.5352 22.3514C21.5597 22.3025 21.5842 22.2535 21.6094 22.203Z" fill="#F4F7F8"/>
<path d="M17.2305 41.4258C17.6468 41.4258 18.0632 41.4258 18.4922 41.4258C18.4925 41.6376 18.4925 41.6376 18.4928 41.8537C18.4956 42.0389 18.4985 42.224 18.5015 42.4092C18.5013 42.5023 18.5011 42.5954 18.5009 42.6913C18.5063 42.9449 18.5161 43.181 18.5664 43.4297C18.765 43.6358 18.765 43.6358 19.0117 43.7266C19.1474 43.8562 19.1474 43.8562 19.2529 43.9817C19.2885 44.0229 19.3241 44.0642 19.3608 44.1066C19.6743 44.5608 19.6558 45.0499 19.6055 45.582C19.4774 46.0757 19.1263 46.4118 18.7149 46.6953C18.2553 46.9236 17.687 46.9346 17.1971 46.7901C16.6995 46.556 16.3251 46.1687 16.1172 45.6562C15.9873 45.1423 16.0191 44.6212 16.2851 44.1568C16.5104 43.8374 16.739 43.6168 17.082 43.4297C17.131 43.4297 17.18 43.4297 17.2305 43.4297C17.2305 42.7684 17.2305 42.1071 17.2305 41.4258Z" fill="#918291"/>
<path d="M45.8047 41.4258C46.2211 41.4258 46.6374 41.4258 47.0664 41.4258C47.064 41.5653 47.0616 41.7048 47.0592 41.8485C47.0599 42.0323 47.0607 42.2161 47.0618 42.3999C47.0597 42.4917 47.0577 42.5836 47.0555 42.6782C47.0473 43.1736 47.0473 43.1736 47.2866 43.5815C47.4566 43.6899 47.6301 43.7817 47.8086 43.875C48.1746 44.3048 48.2353 44.8066 48.2101 45.3559C48.1344 45.9186 47.8679 46.2263 47.4447 46.588C46.981 46.9075 46.4982 46.8953 45.9531 46.8438C45.4594 46.7157 45.1233 46.3646 44.8398 45.9531C44.6029 45.4728 44.6075 44.9153 44.7511 44.405C44.9606 43.9282 44.9606 43.9282 45.223 43.7911C45.4242 43.6859 45.5725 43.5939 45.7305 43.4297C45.8246 43.0862 45.8173 42.7541 45.8093 42.3999C45.8101 42.2596 45.8101 42.2596 45.8109 42.1164C45.8118 41.8862 45.8086 41.656 45.8047 41.4258Z" fill="#918291"/>
<path d="M48.1055 19.457C48.5463 19.457 48.9872 19.457 49.4414 19.457C49.6215 19.6372 49.6085 19.6802 49.6087 19.9266C49.6091 19.9941 49.6095 20.0615 49.61 20.131C49.6097 20.2052 49.6094 20.2793 49.6091 20.3558C49.6093 20.4337 49.6096 20.5117 49.6098 20.592C49.6105 20.8507 49.6101 21.1094 49.6096 21.3682C49.6097 21.5473 49.6098 21.7265 49.61 21.9056C49.6102 22.2815 49.6099 22.6573 49.6092 23.0332C49.6084 23.5159 49.6088 23.9986 49.6097 24.4813C49.6103 24.8513 49.6101 25.2214 49.6097 25.5914C49.6096 25.7694 49.6097 25.9474 49.6101 26.1255C49.6105 26.3739 49.6099 26.6223 49.6091 26.8708C49.6094 26.945 49.6097 27.0192 49.61 27.0956C49.6095 27.163 49.6091 27.2305 49.6087 27.2999C49.6086 27.3587 49.6086 27.4175 49.6085 27.4781C49.5898 27.6211 49.5898 27.6211 49.4414 27.7695C49.0005 27.7695 48.5597 27.7695 48.1055 27.7695C48.1055 25.0264 48.1055 22.2833 48.1055 19.457Z" fill="#70AAF1"/>
<path d="M23.6875 33.2616C24.2569 33.2597 24.8263 33.2584 25.3957 33.2575C25.5896 33.2572 25.7835 33.2567 25.9774 33.256C26.2554 33.2551 26.5334 33.2547 26.8114 33.2544C26.8986 33.254 26.9859 33.2536 27.0758 33.2532C27.1561 33.2532 27.2363 33.2532 27.319 33.2532C27.39 33.253 27.461 33.2529 27.5342 33.2527C27.6953 33.2616 27.6953 33.2616 27.7695 33.3358C27.7695 34.1196 27.7695 34.9033 27.7695 35.7108C26.1775 35.7108 24.5855 35.7108 22.9453 35.7108C22.9963 35.3541 23.0422 35.0866 23.1541 34.7561C23.1803 34.6781 23.2065 34.6001 23.2335 34.5197C23.2609 34.4398 23.2882 34.3598 23.3164 34.2775C23.3438 34.1961 23.3711 34.1147 23.3993 34.0309C23.6007 33.4352 23.6007 33.4352 23.6875 33.2616Z" fill="#70AAF1"/>
<path d="M38.9023 33.2617C40.1759 33.2617 41.4495 33.2617 42.7617 33.2617C42.7617 34.07 42.7617 34.8782 42.7617 35.7109C41.4881 35.7109 40.2145 35.7109 38.9023 35.7109C38.9023 34.9027 38.9023 34.0945 38.9023 33.2617Z" fill="#6FABF1"/>
<path d="M28.8828 33.2617C30.1564 33.2617 31.43 33.2617 32.7422 33.2617C32.7422 34.07 32.7422 34.8782 32.7422 35.7109C31.4686 35.7109 30.195 35.7109 28.8828 35.7109C28.8828 34.9027 28.8828 34.0945 28.8828 33.2617Z" fill="#70AAF1"/>
<path d="M33.9297 33.2616C34.4674 33.2599 35.0051 33.2584 35.5428 33.2575C35.7259 33.2572 35.909 33.2567 36.0921 33.256C36.3546 33.2551 36.6171 33.2547 36.8796 33.2544C36.962 33.254 37.0444 33.2536 37.1293 33.2532C37.243 33.2532 37.243 33.2532 37.359 33.2532C37.426 33.253 37.4931 33.2529 37.5622 33.2527C37.7148 33.2616 37.7148 33.2616 37.7891 33.3358C37.7956 33.5121 37.7976 33.6863 37.7963 33.8626C37.7961 33.9589 37.7959 34.0551 37.7957 34.1543C37.7951 34.2776 37.7944 34.4009 37.7937 34.528C37.7922 34.9183 37.7906 35.3087 37.7891 35.7108C36.5155 35.7108 35.2419 35.7108 33.9297 35.7108C33.9297 34.9026 33.9297 34.0943 33.9297 33.2616Z" fill="#70AAF0"/>
<path d="M45.8789 38.0859C46.7116 38.0859 47.5444 38.0859 48.4023 38.0859C48.4069 38.3906 48.4115 38.6952 48.4163 39.009C48.4193 39.151 48.4193 39.151 48.4224 39.2959C48.4267 39.891 48.3592 40.3676 48.0637 40.8877C47.3869 41.5125 46.66 41.4721 45.7954 41.449C45.6736 41.4471 45.5519 41.4454 45.4301 41.4439C45.1343 41.4398 44.8387 41.4335 44.543 41.4258C44.7176 41.3094 44.8691 41.228 45.0579 41.1428C45.3921 40.9772 45.5733 40.7817 45.7361 40.4436C45.8178 40.199 45.8286 39.989 45.8354 39.7312C45.8381 39.6447 45.8407 39.5583 45.8434 39.4692C45.846 39.3602 45.8485 39.2512 45.8511 39.1389C45.8649 38.6177 45.8649 38.6177 45.8789 38.0859Z" fill="#FECD61"/>
<path d="M32.7422 31.332C33.1341 31.332 33.5259 31.332 33.9297 31.332C33.9297 32.7771 33.9297 34.2221 33.9297 35.7109C33.5378 35.7109 33.1459 35.7109 32.7422 35.7109C32.7422 34.2659 32.7422 32.8209 32.7422 31.332Z" fill="#796E7B"/>
<path d="M42.6875 31.332C43.1039 31.332 43.5202 31.332 43.9492 31.332C43.96 32.7938 43.9278 34.2503 43.875 35.7109C43.5076 35.7109 43.1402 35.7109 42.7617 35.7109C42.7111 34.2505 42.6762 32.7935 42.6875 31.332Z" fill="#796C78"/>
<path d="M37.7148 31.332C38.1067 31.332 38.4986 31.332 38.9023 31.332C38.9023 32.7771 38.9023 34.2221 38.9023 35.7109C38.535 35.7109 38.1676 35.7109 37.7891 35.7109C37.7362 34.2503 37.7041 32.7938 37.7148 31.332Z" fill="#796D79"/>
<path d="M44.209 33.2432C44.787 33.2525 45.2539 33.4438 45.6562 33.8555C46.0906 34.475 46.0273 34.9099 46.0273 35.7109C45.3171 35.7109 44.6068 35.7109 43.875 35.7109C43.8733 35.3741 43.8718 35.0372 43.8709 34.7003C43.8705 34.5856 43.87 34.4709 43.8694 34.3562C43.8685 34.1917 43.8681 34.0272 43.8677 33.8627C43.8674 33.8111 43.867 33.7596 43.8666 33.7065C43.8666 33.5829 43.8704 33.4594 43.875 33.3359C43.9492 33.2617 43.9492 33.2617 44.209 33.2432Z" fill="#70AAF0"/>
<path d="M48.9219 35.7109C49.1331 35.7048 49.3444 35.6987 49.562 35.6924C49.6277 35.6897 49.6934 35.687 49.7611 35.6842C50.1624 35.6786 50.3848 35.7419 50.7031 36.0078C50.9724 36.2913 51.023 36.5186 51.0371 36.8984C51.023 37.2782 50.9724 37.5056 50.7031 37.789C50.1 38.2539 49.7515 38.1601 48.9219 38.1601C48.9219 37.3519 48.9219 36.5436 48.9219 35.7109Z" fill="#D4DEE2"/>
<path d="M17.2305 34.0781C17.5185 34.2221 17.7431 34.3921 17.9866 34.5977C18.0271 34.6311 18.0676 34.6646 18.1094 34.6991C18.4084 34.9496 18.4084 34.9496 18.4922 35.1172C18.4986 35.3391 18.5008 35.5592 18.4994 35.7811C18.4993 35.8468 18.4992 35.9125 18.4991 35.9801C18.4987 36.1904 18.4978 36.4006 18.4968 36.6108C18.4965 36.7532 18.4961 36.8955 18.4958 37.0379C18.495 37.3872 18.4937 37.7366 18.4922 38.0859C18.0758 38.0859 17.6595 38.0859 17.2305 38.0859C17.2305 36.7634 17.2305 35.4408 17.2305 34.0781Z" fill="#D4DEE2"/>
<path d="M45.8789 35.7109C46.4912 35.7109 47.1035 35.7109 47.7344 35.7109C47.7344 36.4947 47.7344 37.2784 47.7344 38.0859C47.1221 38.0859 46.5098 38.0859 45.8789 38.0859C45.8789 37.3022 45.8789 36.5184 45.8789 35.7109Z" fill="#D5DEE2"/>
<path d="M45.8047 41.4258C46.2211 41.4258 46.6374 41.4258 47.0664 41.4258C47.0664 42.0871 47.0664 42.7484 47.0664 43.4297C46.65 43.4297 46.2337 43.4297 45.8047 43.4297C45.8047 42.7684 45.8047 42.1071 45.8047 41.4258Z" fill="#7A6C79"/>
<path d="M17.2305 41.4258C17.6468 41.4258 18.0632 41.4258 18.4922 41.4258C18.4922 42.0871 18.4922 42.7484 18.4922 43.4297C18.0758 43.4297 17.6595 43.4297 17.2305 43.4297C17.2305 42.7684 17.2305 42.1071 17.2305 41.4258Z" fill="#796C78"/>
<path d="M17.866 17.1145C18.1578 17.1623 18.244 17.2189 18.418 17.4531C18.5019 17.705 18.502 17.9024 18.5015 18.1675C18.5017 18.2975 18.5017 18.2975 18.502 18.4301C18.4922 18.6406 18.4922 18.6406 18.418 18.7148C18.2178 18.7203 18.0196 18.7217 17.8196 18.7195C17.7633 18.7191 17.707 18.7188 17.649 18.7185C17.5095 18.7176 17.37 18.7163 17.2305 18.7148C17.2204 18.5245 17.2131 18.3347 17.2073 18.1443C17.2042 18.0908 17.201 18.0372 17.1978 17.9821C17.1908 17.6729 17.2052 17.5602 17.4009 17.3058C17.6016 17.1562 17.6016 17.1562 17.866 17.1145Z" fill="#908190"/>
<path d="M43.0287 28.8755C43.1392 28.8759 43.2496 28.8769 43.3601 28.8781C43.5545 28.8796 43.7489 28.8812 43.9492 28.8827C43.9492 29.2991 43.9492 29.7155 43.9492 30.1445C43.5328 30.1445 43.1165 30.1445 42.6875 30.1445C42.686 29.95 42.6844 29.7556 42.6829 29.5553C42.6822 29.494 42.6815 29.4327 42.6808 29.3695C42.6803 29.232 42.6838 29.0944 42.6875 28.957C42.7617 28.8827 42.7617 28.8827 43.0287 28.8755Z" fill="#685F68"/>
</g>
<defs>
<linearGradient id="paint0_linear_6_435" x1="98.4667" y1="21.1263" x2="-8.8357" y2="26.7315" gradientUnits="userSpaceOnUse">
<stop stop-color="#00ADEF"/>
<stop offset="1" stop-color="#D60F8C"/>
</linearGradient>
<clipPath id="clip0_6_435">
<rect width="38" height="38" fill="white" transform="translate(13 13)"/>
</clipPath>
</defs>
</svg>
