<svg width="132" height="132" viewBox="0 0 132 132" fill="none" xmlns="http://www.w3.org/2000/svg">
<circle cx="66" cy="66" r="66" fill="url(#paint0_linear_270_3731)"/>
<circle cx="66" cy="66" r="57.75" fill="white"/>
<g clip-path="url(#clip0_270_3731)">
<path d="M80.9061 31.4062C82.5598 31.4851 84.1762 31.7239 85.8103 31.9775C86.0724 32.0176 86.3344 32.0576 86.5964 32.0976C87.231 32.1944 87.8654 32.2923 88.4998 32.3906C88.4828 32.5046 88.4657 32.6186 88.4482 32.736C88.3842 33.168 88.3215 33.6002 88.2595 34.0326C88.2196 34.308 88.1785 34.5832 88.1373 34.8584C87.7653 36.9062 87.7653 36.9062 88.1834 38.877C88.647 39.4694 89.0243 39.7682 89.7786 39.8921C91.51 40.0045 92.823 38.581 94.0976 37.5657C94.2021 37.4827 94.3066 37.3997 94.4143 37.3141C94.5075 37.2394 94.6008 37.1647 94.6969 37.0877C94.9649 36.8933 95.2311 36.7482 95.5311 36.6094C96.5068 37.7581 97.3991 38.9602 98.2875 40.1766C98.5791 40.5757 98.8731 40.9725 99.173 41.3654C99.2327 41.4436 99.2923 41.5218 99.3537 41.6024C99.5098 41.8063 99.6666 42.0096 99.8234 42.213C100.031 42.5156 100.031 42.5156 100.031 42.7969C99.8081 42.9917 99.8081 42.9917 99.496 43.2155C99.3258 43.3388 99.3258 43.3388 99.1522 43.4646C99.0303 43.5517 98.9085 43.6388 98.783 43.7285C98.537 43.9074 98.2911 44.0865 98.0453 44.2657C97.9266 44.3521 97.8078 44.4384 97.6855 44.5274C96.1369 45.5991 96.1369 45.5991 95.2586 47.209C95.2443 48.0401 95.4785 48.6035 95.9969 49.248C96.6892 49.7955 97.4918 49.8906 98.3468 50.0094C98.4518 50.0246 98.5567 50.0398 98.6648 50.0555C98.9971 50.1035 99.3295 50.1504 99.6619 50.1973C99.8884 50.2298 100.115 50.2624 100.341 50.295C100.894 50.3746 101.447 50.4532 102 50.5312C102.02 51.3864 101.945 52.1931 101.82 53.0383C101.793 53.2306 101.793 53.2306 101.764 53.4267C101.726 53.6957 101.687 53.9647 101.647 54.2336C101.587 54.6451 101.527 55.0568 101.468 55.4685C101.43 55.7307 101.392 55.9929 101.354 56.2551C101.337 56.3779 101.319 56.5006 101.301 56.6271C101.284 56.7417 101.267 56.8563 101.249 56.9743C101.227 57.1247 101.227 57.1247 101.205 57.2782C101.156 57.5651 101.09 57.8436 101.015 58.125C100.896 58.108 100.778 58.0909 100.655 58.0734C100.205 58.0095 99.7555 57.9468 99.3057 57.8847C99.1125 57.8578 98.9194 57.8305 98.7264 57.8028C96.6018 57.3992 96.6018 57.3992 94.5467 57.7822C93.9647 58.2551 93.6568 58.6674 93.4991 59.4049C93.3688 61.0441 94.9414 62.5069 95.8851 63.7039C95.9823 63.8289 96.0796 63.954 96.1798 64.0829C96.268 64.1947 96.3561 64.3065 96.4469 64.4217C96.6485 64.7231 96.7369 64.9425 96.7967 65.2969C96.7312 65.3447 96.6657 65.3926 96.5983 65.4419C96.2804 65.6745 95.9628 65.9075 95.6453 66.1406C95.468 66.2708 95.468 66.2708 95.2872 66.4036C94.2214 67.1888 93.1694 67.9914 92.1235 68.8029C92.0052 68.894 91.8869 68.9851 91.7649 69.0789C91.6604 69.1599 91.5559 69.2409 91.4483 69.3244C91.1717 69.5156 91.1717 69.5156 90.7498 69.6562C89.9173 68.6639 89.1277 67.6469 88.3574 66.6059C88.2886 66.5131 88.2197 66.4203 88.1488 66.3246C88.0876 66.2417 88.0265 66.1588 87.9634 66.0733C87.7879 65.8391 87.7879 65.8391 87.5154 65.5781C87.4787 65.6658 87.442 65.7535 87.4042 65.8438C85.3898 70.6302 82.6895 74.4639 78.3836 77.4258C76.6199 78.6464 75.5926 80.0648 75.0833 82.1862C74.871 83.58 74.9425 85.0191 74.9491 86.426C74.9503 86.8541 74.9473 87.282 74.9438 87.7101C74.9456 87.839 74.9475 87.968 74.9495 88.1008C74.9364 89.2543 74.5538 90.1534 73.7957 91.0225C73.6826 91.1182 73.5695 91.2139 73.4529 91.3125C73.3543 91.3966 73.2557 91.4807 73.1541 91.5674C72.8904 91.7344 72.8904 91.7344 72.4686 91.7344C72.4692 91.814 72.4698 91.8937 72.4704 91.9758C72.4767 92.8109 72.4809 93.6459 72.484 94.4809C72.4854 94.7919 72.4873 95.1029 72.4898 95.4138C72.4932 95.8628 72.4948 96.3117 72.496 96.7606C72.4982 96.9666 72.4982 96.9666 72.5004 97.1767C72.5006 98.6167 72.3772 99.8069 71.3436 100.875C70.2636 101.898 69.0944 102.044 67.6483 102.042C67.5286 102.043 67.4088 102.043 67.2855 102.044C67.0341 102.045 66.7828 102.045 66.5314 102.044C66.1506 102.044 65.77 102.047 65.3892 102.051C63.7815 102.057 62.348 102.039 61.0439 100.98C60.4079 100.348 59.9779 99.6167 59.9382 98.7117C59.9401 98.5256 59.9401 98.5256 59.9419 98.3358C59.9427 98.1945 59.9436 98.0533 59.9444 97.9077C59.9456 97.7559 59.9468 97.6042 59.948 97.4478C59.9475 97.126 59.9466 96.8042 59.9455 96.4824C59.944 95.9753 59.9442 95.4684 59.9495 94.9613C59.9542 94.4716 59.9517 93.9824 59.948 93.4927C59.9527 93.2655 59.9527 93.2655 59.9576 93.0337C59.9652 92.2589 59.9652 92.2589 59.5692 91.6345C59.2771 91.4464 59.2771 91.4464 58.9741 91.3126C58.369 91.0157 57.9721 90.4975 57.7169 89.8821C57.4397 88.9862 57.356 88.1638 57.3497 87.2289C57.3472 87.0873 57.3447 86.9457 57.3421 86.7998C57.3345 86.3529 57.3297 85.906 57.325 85.459C57.3203 85.1537 57.3155 84.8485 57.3104 84.5433C57.2986 83.7997 57.2889 83.0561 57.2811 82.3125C56.7054 82.7948 56.1543 83.2834 55.6359 83.8281C55.4636 84.0058 55.4636 84.0058 55.2879 84.187C55.0495 84.4343 54.8122 84.6826 54.5759 84.9319C54.4617 85.0491 54.3474 85.1663 54.2296 85.287C54.1269 85.3943 54.0241 85.5016 53.9183 85.6122C53.6248 85.8281 53.6248 85.8281 53.3535 85.8236C52.9704 85.6445 52.6438 85.4215 52.2988 85.1766C52.1521 85.0749 52.0055 84.9732 51.8544 84.8685C51.6228 84.7068 51.3918 84.5445 51.162 84.3805C50.9389 84.2218 50.7136 84.0664 50.4882 83.911C50.3548 83.8169 50.2214 83.7228 50.084 83.6258C49.5975 83.3948 49.3544 83.4319 48.8436 83.5781C48.4151 83.8781 48.3335 84.2047 48.2195 84.7031C48.1854 84.8503 48.1514 84.9975 48.1163 85.1492C47.885 86.2183 47.6592 87.2882 47.4373 88.3594C45.7203 88.3594 44.0032 88.3594 42.2342 88.3594C41.7684 86.206 41.7684 86.206 41.6243 85.528C41.5659 85.2641 41.5659 85.2641 41.5063 84.9948C41.4673 84.8144 41.4283 84.634 41.3881 84.4481C41.2278 83.9194 41.2278 83.9194 40.8279 83.5781C40.4326 83.4451 40.218 83.404 39.8229 83.5461C39.6757 83.6343 39.6757 83.6343 39.5255 83.7242C39.4161 83.7897 39.3067 83.8552 39.1941 83.9227C38.5442 84.3456 37.9238 84.8069 37.306 85.275C37.2057 85.3484 37.1053 85.4218 37.0019 85.4974C36.9128 85.5644 36.8236 85.6313 36.7318 85.7003C36.4686 85.8281 36.4686 85.8281 36.2055 85.8274C35.7472 85.6133 35.4298 85.2627 35.0821 84.9047C35.0048 84.8269 34.9276 84.7491 34.848 84.6689C34.602 84.4205 34.3576 84.1707 34.1131 83.9209C33.9464 83.7521 33.7796 83.5833 33.6127 83.4147C33.2041 83.0015 32.7969 82.587 32.3904 82.1719C32.8208 81.3645 33.2808 80.6058 33.823 79.8691C33.9452 79.7011 34.0674 79.533 34.1894 79.3649C34.2919 79.2238 34.3943 79.0828 34.4998 78.9375C34.8462 78.4179 34.8359 78.1454 34.7811 77.5312C34.4422 77.0393 33.9675 76.9693 33.41 76.8281C33.3181 76.8046 33.2263 76.7811 33.1317 76.7568C32.2747 76.542 31.4099 76.3722 30.5414 76.2112C30.1404 76.125 30.1404 76.125 29.9998 75.9844C29.9874 75.6094 29.9836 75.2381 29.9861 74.8632C29.9863 74.751 29.9865 74.6389 29.9867 74.5233C29.9875 74.1636 29.9892 73.804 29.991 73.4443C29.9917 73.2011 29.9924 72.9578 29.9929 72.7146C29.9945 72.117 29.9969 71.5194 29.9998 70.9219C32.2038 70.3671 32.2038 70.3671 32.9518 70.1962C33.132 70.1544 33.3122 70.1125 33.4978 70.0693C33.5927 70.0486 33.6875 70.0278 33.7851 70.0064C34.3913 69.8644 34.3913 69.8644 34.7811 69.375C34.8506 68.719 34.7436 68.3691 34.3768 67.8281C34.2885 67.6967 34.2002 67.5653 34.1092 67.4299C33.5418 66.6211 32.9707 65.8153 32.3904 65.0156C32.6166 64.4591 33.0021 64.075 33.4176 63.655C33.4908 63.5805 33.564 63.5061 33.6394 63.4294C33.7939 63.2729 33.9487 63.1168 34.104 62.961C34.3415 62.7217 34.5764 62.48 34.8113 62.238C34.9618 62.0861 35.1125 61.9344 35.2634 61.7829C35.3334 61.7101 35.4034 61.6373 35.4756 61.5623C35.9652 61.079 35.9652 61.079 36.3333 61.075C36.6798 61.2556 36.989 61.4604 37.3063 61.689C37.4396 61.783 37.5729 61.8771 37.7103 61.9741C37.9888 62.1729 38.2668 62.3724 38.5441 62.5728C39.5254 63.2977 39.5254 63.2977 40.6873 63.4687C41.0887 63.2446 41.2119 63.0217 41.3538 62.5896C41.4546 62.196 41.5389 61.8017 41.6189 61.4033C41.6476 61.2689 41.6762 61.1345 41.7057 60.996C41.7623 60.7301 41.818 60.4641 41.8729 60.1979C41.9875 59.6462 42.1107 59.0966 42.2342 58.5469C42.7911 58.5469 43.3479 58.5469 43.9217 58.5469C43.9152 58.4102 43.9086 58.2735 43.9019 58.1327C43.7255 52.693 46.1374 47.3641 49.7856 43.4198C49.8924 43.307 49.9992 43.1943 50.1092 43.0781C50.2174 42.9625 50.3256 42.8468 50.4371 42.7277C53.7462 39.2957 58.3602 37.1545 63.0467 36.4687C63.1349 36.4538 63.2232 36.4388 63.3141 36.4233C64.0056 36.3223 64.6598 36.3398 65.3571 36.3836C68.2896 36.5576 68.2896 36.5576 70.7991 35.1462C70.9836 34.9753 71.1656 34.8017 71.3447 34.6252C71.8268 34.1677 72.3598 33.7742 72.8904 33.375C73.5245 33.973 74.0475 34.636 74.5779 35.3262C74.6628 35.4355 74.7476 35.5448 74.835 35.6574C75.2165 36.1508 75.5894 36.6454 75.9413 37.1603C76.3608 37.7213 76.7343 37.9438 77.3904 38.1562C78.105 38.2583 78.5951 38.1054 79.2334 37.8129C79.9449 37.2276 80.155 36.4038 80.282 35.5283C80.2982 35.4277 80.3144 35.3271 80.3311 35.2235C80.3843 34.8889 80.4344 34.5539 80.4842 34.2187C80.524 33.9584 80.5639 33.698 80.6039 33.4376C80.7071 32.7608 80.8073 32.0837 80.9061 31.4062ZM82.1717 42.9375C82.4463 43.4232 82.7397 43.8231 83.1209 44.2295C84.2258 45.4554 85.0388 46.8405 85.8279 48.2812C85.9019 48.4123 85.9758 48.5434 86.052 48.6784C87.4524 51.2891 88.062 54.2214 88.3592 57.1406C89.6955 55.9687 90.372 53.8203 90.5119 52.1105C90.6137 49.8316 89.9596 47.7273 88.4471 45.9961C88.2327 45.7711 88.016 45.5482 87.7967 45.3281C87.7102 45.2384 87.6237 45.1487 87.5347 45.0562C86.1302 43.7059 84.1115 42.9375 82.1717 42.9375ZM40.4017 69.5651C39.2087 71.1573 38.9304 72.7736 39.1404 74.7187C39.4648 76.3155 40.4423 77.5905 41.7239 78.559C42.2844 78.9196 42.8648 79.1622 43.4998 79.3594C43.6262 79.3996 43.6262 79.3996 43.7552 79.4407C45.4703 79.772 47.0561 79.4642 48.5271 78.542C49.6782 77.7151 50.4899 76.7924 50.9529 75.4219C50.9513 74.9039 50.834 74.7428 50.4838 74.3551C50.3422 74.2235 50.1997 74.0928 50.0564 73.9629C48.5258 72.4986 47.4402 70.776 46.4449 68.9187C46.261 68.5764 46.0714 68.2375 45.8816 67.8984C45.7908 67.7344 45.6999 67.5704 45.6092 67.4062C43.5158 67.2365 41.7765 67.9734 40.4017 69.5651Z" fill="#FEB41F"/>
<path d="M80.9062 31.4062C82.56 31.4851 84.1764 31.7239 85.8105 31.9775C86.0726 32.0176 86.3346 32.0576 86.5966 32.0976C87.2312 32.1944 87.8656 32.2923 88.5 32.3906C88.483 32.5046 88.4659 32.6186 88.4484 32.736C88.3844 33.168 88.3217 33.6002 88.2597 34.0326C88.2198 34.308 88.1787 34.5832 88.1375 34.8584C87.7655 36.9063 87.7655 36.9063 88.1836 38.877C88.6472 39.4694 89.0245 39.7682 89.7788 39.8921C91.5102 40.0045 92.8232 38.581 94.0978 37.5657C94.2023 37.4827 94.3068 37.3997 94.4145 37.3141C94.5077 37.2394 94.601 37.1647 94.6971 37.0877C94.9651 36.8933 95.2313 36.7482 95.5312 36.6094C96.507 37.7581 97.3993 38.9602 98.2877 40.1766C98.5793 40.5757 98.8733 40.9725 99.1732 41.3654C99.2329 41.4436 99.2925 41.5218 99.3539 41.6024C99.51 41.8063 99.6668 42.0096 99.8236 42.213C100.031 42.5156 100.031 42.5156 100.031 42.7969C99.8083 42.9917 99.8083 42.9917 99.4962 43.2155C99.326 43.3388 99.326 43.3388 99.1524 43.4646C99.0306 43.5517 98.9087 43.6388 98.7832 43.7285C98.5372 43.9074 98.2913 44.0865 98.0455 44.2657C97.9268 44.3521 97.808 44.4384 97.6857 44.5274C96.1371 45.5991 96.1371 45.5991 95.2588 47.209C95.2445 48.0401 95.4787 48.6035 95.9971 49.248C96.6894 49.7955 97.492 49.8906 98.347 50.0094C98.452 50.0246 98.5569 50.0398 98.665 50.0555C98.9973 50.1035 99.3297 50.1504 99.6621 50.1973C99.8886 50.2298 100.115 50.2624 100.342 50.295C100.894 50.3746 101.447 50.4532 102 50.5312C102.02 51.3864 101.946 52.1931 101.82 53.0383C101.793 53.2306 101.793 53.2306 101.765 53.4267C101.726 53.6957 101.687 53.9647 101.647 54.2336C101.587 54.6451 101.528 55.0568 101.469 55.4685C101.431 55.7307 101.393 55.9929 101.355 56.2551C101.337 56.3779 101.319 56.5006 101.301 56.6271C101.284 56.7417 101.267 56.8563 101.25 56.9743C101.228 57.1247 101.228 57.1247 101.205 57.2782C101.156 57.5651 101.09 57.8436 101.016 58.125C100.897 58.108 100.778 58.0909 100.655 58.0734C100.206 58.0095 99.7557 57.9468 99.3059 57.8847C99.1127 57.8578 98.9196 57.8305 98.7266 57.8028C96.602 57.3992 96.602 57.3992 94.5469 57.7822C93.9649 58.2551 93.657 58.6674 93.4993 59.4049C93.369 61.0441 94.9416 62.5069 95.8853 63.7039C95.9825 63.8289 96.0798 63.954 96.18 64.0829C96.2682 64.1947 96.3563 64.3065 96.4471 64.4217C96.6487 64.7231 96.7371 64.9425 96.7969 65.2969C96.7314 65.3447 96.6659 65.3926 96.5985 65.4419C96.2806 65.6745 95.963 65.9075 95.6455 66.1406C95.5273 66.2274 95.4091 66.3142 95.2874 66.4036C94.2216 67.1888 93.1696 67.9914 92.1237 68.8029C91.9462 68.9395 91.9462 68.9395 91.7651 69.0789C91.6606 69.1599 91.5561 69.2409 91.4485 69.3244C91.1719 69.5156 91.1719 69.5156 90.75 69.6562C89.9271 68.6754 89.1455 67.6706 88.3823 66.643C87.6457 65.5134 87.6457 65.5134 86.5312 64.875C85.7266 64.7915 85.1087 64.8286 84.4219 65.2969C83.8512 65.8927 83.6235 66.2839 83.4902 67.1162C83.4747 67.2097 83.4591 67.3033 83.4431 67.3997C83.2177 68.8023 83.0479 70.2151 82.875 71.625C81.4981 71.5428 80.1418 71.3748 78.7769 71.1811C78.4327 71.1323 78.0884 71.0844 77.7441 71.0367C77.5236 71.0058 77.303 70.9748 77.0825 70.9438C76.9804 70.9296 76.8783 70.9154 76.7731 70.9008C76.3157 70.8355 75.8668 70.7665 75.4219 70.6406C75.4626 70.2627 75.5036 69.8847 75.5449 69.5068C75.5574 69.3925 75.5699 69.2781 75.5828 69.1603C75.6638 68.4299 75.7578 67.703 75.8613 66.9756C76.1198 65.4071 76.1198 65.4071 75.6059 63.962C75.0556 63.328 74.4664 63.1433 73.6553 63.0645C72.5669 63.105 71.863 63.7204 71.0538 64.3758C70.6574 64.6928 70.2494 64.9937 69.8418 65.2962C69.4031 65.6221 68.9672 65.9517 68.5312 66.2812C68.0378 66.0776 67.7983 65.8307 67.481 65.4056C67.3898 65.2847 67.2986 65.1638 67.2047 65.0392C67.1088 64.9096 67.0129 64.78 66.9141 64.6465C66.7659 64.4484 66.7659 64.4484 66.6147 64.2463C66.4129 63.9766 66.2115 63.7066 66.0104 63.4363C65.7423 63.0783 65.4703 62.7238 65.1958 62.3707C65.1174 62.269 65.039 62.1673 64.9582 62.0626C64.8121 61.8732 64.6651 61.6845 64.5171 61.4966C64.1563 61.0241 64.0312 60.8483 64.0312 60.2344C64.2845 59.9774 64.2845 59.9774 64.6377 59.7169C64.7659 59.621 64.894 59.5251 65.0261 59.4263C65.2297 59.2781 65.2297 59.2781 65.4375 59.127C65.5689 59.0292 65.7003 58.9315 65.8358 58.8309C66.3267 58.4663 66.8175 58.102 67.3173 57.7497C67.8498 57.3686 68.2745 57.0614 68.5312 56.4375C68.6452 55.6746 68.6299 54.9761 68.3203 54.2666C67.1882 53.1062 65.9211 53.0051 64.3916 52.8164C64.0595 52.7731 63.7274 52.729 63.3955 52.6845C63.19 52.6571 62.9843 52.6306 62.7786 52.6051C62.0778 52.5153 62.0778 52.5153 61.9219 52.3594C61.9409 50.9295 62.1656 49.5004 62.3658 48.0869C62.4149 47.7394 62.4626 47.3917 62.5102 47.0439C62.5411 46.8226 62.572 46.6013 62.603 46.3801C62.6172 46.2762 62.6315 46.1724 62.6461 46.0654C62.7494 45.3443 62.7494 45.3443 62.9062 45.1875C63.7873 45.1472 64.6131 45.2594 65.4814 45.3984C67.558 45.7692 67.558 45.7692 69.5156 45.1875C69.847 44.8583 69.847 44.8583 70.0781 44.4844C70.1361 44.4003 70.1941 44.3162 70.2539 44.2295C70.4976 43.5187 70.4305 42.9651 70.1457 42.2915C69.741 41.5178 69.199 40.846 68.6631 40.1602C68.5618 40.0291 68.4606 39.898 68.3563 39.763C68.1688 39.5203 67.9808 39.2779 67.7924 39.0358C67.567 38.7447 67.345 38.4514 67.125 38.1562C67.3328 37.6257 67.6107 37.417 68.083 37.1104C68.4713 36.8572 68.8017 36.6204 69.1267 36.2886C69.6558 35.7684 70.2432 35.3483 70.8428 34.9131C70.96 34.8271 71.0772 34.7411 71.1979 34.6524C71.8002 34.2121 72.4063 33.7825 73.0312 33.375C73.6445 34.097 74.2338 34.8256 74.7797 35.5997C74.864 35.7182 74.9483 35.8367 75.0351 35.9588C75.2023 36.1953 75.3676 36.4331 75.5307 36.6724C76.0504 37.4041 76.5258 37.873 77.3906 38.1562C78.1052 38.2583 78.5953 38.1054 79.2336 37.8129C79.9451 37.2276 80.1552 36.4038 80.2822 35.5283C80.2984 35.4277 80.3146 35.3271 80.3313 35.2235C80.3845 34.8889 80.4346 34.5539 80.4844 34.2188C80.5242 33.9584 80.5641 33.698 80.6041 33.4376C80.7073 32.7608 80.8075 32.0837 80.9062 31.4062ZM82.1719 42.9375C82.4465 43.4232 82.7399 43.8231 83.1211 44.2295C84.226 45.4554 85.039 46.8405 85.8281 48.2812C85.9021 48.4123 85.976 48.5434 86.0522 48.6784C87.4526 51.2891 88.0622 54.2214 88.3594 57.1406C89.6957 55.9687 90.3722 53.8203 90.5121 52.1105C90.6139 49.8316 89.9598 47.7273 88.4473 45.9961C88.2329 45.7711 88.0162 45.5482 87.7969 45.3281C87.7104 45.2384 87.6239 45.1487 87.5349 45.0562C86.1304 43.7059 84.1117 42.9375 82.1719 42.9375Z" fill="#1CC7EA"/>
<path d="M42.2342 58.5469C42.7911 58.5469 43.3479 58.5469 43.9217 58.5469C43.9338 58.7445 43.946 58.9421 43.9585 59.1456C44.1373 61.721 44.6016 64.1606 45.4801 66.5905C45.6092 66.9844 45.6092 66.9844 45.6092 67.4062C45.5086 67.4082 45.408 67.4102 45.3043 67.4123C43.5162 67.4979 41.9466 68.0714 40.6873 69.375C40.3035 69.8662 39.9911 70.3696 39.7029 70.9219C39.6522 71.018 39.6014 71.114 39.5491 71.213C39.016 72.4718 39.0777 74.2823 39.5008 75.5625C40.2116 77.1741 41.3287 78.4212 42.9988 79.0693C43.1641 79.1186 43.3295 79.1679 43.4998 79.2188C43.581 79.2441 43.6622 79.2695 43.7459 79.2957C45.4587 79.6406 47.052 79.3175 48.5271 78.4102C49.531 77.6931 50.153 76.8456 50.6656 75.7311C50.8123 75.4219 50.8123 75.4219 51.0936 75C51.2128 75.0954 51.3321 75.1907 51.455 75.2889C52.3236 75.9792 53.1983 76.6501 54.1082 77.2852C55.6855 78.4012 56.9937 79.8059 57.3368 81.7916C57.2535 82.3598 56.8951 82.6584 56.501 83.0453C56.4212 83.1258 56.3414 83.2063 56.2591 83.2892C56.0902 83.4586 55.9204 83.6271 55.7498 83.7948C55.4885 84.0523 55.2311 84.3134 54.9739 84.5751C54.8094 84.7392 54.6446 84.9031 54.4795 85.0668C54.4025 85.1453 54.3254 85.2238 54.246 85.3046C53.7089 85.8254 53.7089 85.8254 53.3379 85.8373C52.9726 85.6388 52.638 85.4173 52.2988 85.1766C52.1521 85.0749 52.0055 84.9732 51.8544 84.8685C51.6228 84.7068 51.3918 84.5445 51.162 84.3805C50.9389 84.2218 50.7136 84.0664 50.4882 83.911C50.3548 83.8169 50.2214 83.7228 50.084 83.6258C49.5975 83.3948 49.3544 83.4319 48.8436 83.5781C48.4151 83.8782 48.3335 84.2047 48.2195 84.7031C48.1684 84.9239 48.1684 84.9239 48.1163 85.1492C47.885 86.2183 47.6592 87.2882 47.4373 88.3594C45.7203 88.3594 44.0032 88.3594 42.2342 88.3594C41.7684 86.2061 41.7684 86.2061 41.6243 85.528C41.5659 85.2641 41.5659 85.2641 41.5063 84.9948C41.4673 84.8144 41.4283 84.634 41.3881 84.4481C41.2278 83.9194 41.2278 83.9194 40.8279 83.5781C40.4326 83.4451 40.218 83.404 39.8229 83.5461C39.7247 83.6049 39.6266 83.6637 39.5255 83.7242C39.4161 83.7897 39.3067 83.8552 39.1941 83.9227C38.5442 84.3456 37.9238 84.8069 37.306 85.275C37.1555 85.3851 37.1555 85.3851 37.0019 85.4974C36.9128 85.5644 36.8236 85.6314 36.7318 85.7003C36.4686 85.8281 36.4686 85.8281 36.2055 85.8274C35.7472 85.6133 35.4298 85.2627 35.0821 84.9047C35.0048 84.8269 34.9276 84.7491 34.848 84.6689C34.602 84.4205 34.3576 84.1707 34.1131 83.9209C33.9464 83.7521 33.7796 83.5833 33.6127 83.4147C33.2041 83.0015 32.7969 82.5871 32.3904 82.1719C32.8208 81.3645 33.2808 80.6058 33.823 79.8691C33.9452 79.7011 34.0674 79.533 34.1894 79.3649C34.2919 79.2238 34.3943 79.0828 34.4998 78.9375C34.8462 78.4179 34.8359 78.1454 34.7811 77.5312C34.4422 77.0393 33.9675 76.9693 33.41 76.8281C33.3181 76.8046 33.2263 76.7811 33.1317 76.7568C32.2747 76.542 31.4099 76.3722 30.5414 76.2112C30.1404 76.125 30.1404 76.125 29.9998 75.9844C29.9874 75.6094 29.9836 75.2382 29.9861 74.8632C29.9863 74.7511 29.9865 74.6389 29.9867 74.5233C29.9875 74.1637 29.9892 73.804 29.991 73.4443C29.9917 73.2011 29.9924 72.9578 29.9929 72.7146C29.9945 72.117 29.9969 71.5194 29.9998 70.9219C32.2038 70.3671 32.2038 70.3671 32.9518 70.1962C33.132 70.1544 33.3122 70.1125 33.4978 70.0693C33.6401 70.0382 33.6401 70.0382 33.7851 70.0064C34.3913 69.8644 34.3913 69.8644 34.7811 69.375C34.8506 68.719 34.7436 68.3691 34.3768 67.8281C34.2885 67.6967 34.2002 67.5653 34.1092 67.4299C33.5418 66.6211 32.9707 65.8153 32.3904 65.0156C32.6166 64.4591 33.0021 64.075 33.4176 63.655C33.4908 63.5805 33.564 63.5061 33.6394 63.4294C33.7939 63.2729 33.9487 63.1168 34.104 62.961C34.3415 62.7217 34.5764 62.48 34.8113 62.238C34.9618 62.0861 35.1125 61.9344 35.2634 61.7829C35.3334 61.7101 35.4034 61.6373 35.4756 61.5623C35.9652 61.079 35.9652 61.079 36.3333 61.075C36.6798 61.2556 36.989 61.4604 37.3063 61.689C37.4396 61.783 37.5729 61.8771 37.7103 61.9741C37.9888 62.1729 38.2668 62.3724 38.5441 62.5728C39.5254 63.2977 39.5254 63.2977 40.6873 63.4688C41.0887 63.2446 41.2119 63.0217 41.3538 62.5896C41.4546 62.196 41.5389 61.8017 41.6189 61.4033C41.6619 61.2017 41.6619 61.2017 41.7057 60.996C41.7623 60.7301 41.818 60.4641 41.8729 60.1979C41.9875 59.6462 42.1107 59.0966 42.2342 58.5469Z" fill="#C9DEFE"/>
<path d="M80.8927 42.8718C81.5309 42.8122 81.9795 42.7976 82.5115 43.1816C82.8538 43.5504 83.1452 43.9333 83.4377 44.3428C83.5544 44.4972 83.6714 44.6514 83.7887 44.8054C84.6155 45.909 85.3152 47.0678 85.9689 48.2803C86.0423 48.4107 86.1158 48.541 86.1914 48.6753C87.3423 50.8161 88.1637 53.4456 88.3595 55.8741C88.3768 55.997 88.394 56.1199 88.4117 56.2465C88.4638 56.8315 88.4848 57.2445 88.1365 57.7352C86.2493 59.4929 83.8821 60.2949 81.3398 60.2725C79.2015 60.1698 77.2301 59.1698 75.7033 57.7022C74.838 56.7154 74.2138 55.6863 73.7345 54.4678C73.6851 54.3545 73.6356 54.2412 73.5846 54.1245C72.9956 52.5103 73.0498 50.0802 73.6988 48.5039C73.757 48.3837 73.8152 48.2635 73.8752 48.1397C73.9348 48.0094 73.9945 47.879 74.0559 47.7447C75.1876 45.4718 77.1763 43.9075 79.5573 43.1036C79.9981 42.9886 80.4434 42.9431 80.8927 42.8718Z" fill="#FEB41F"/>
<path d="M59.9529 91.875C64.0831 91.875 68.2133 91.875 72.4686 91.875C72.4744 92.9133 72.4802 93.9517 72.4861 95.0215C72.4887 95.3464 72.4913 95.6713 72.4939 96.0061C72.4947 96.2678 72.4954 96.5296 72.496 96.7914C72.4975 96.9239 72.4989 97.0563 72.5004 97.1928C72.5008 98.6266 72.3724 99.812 71.3436 100.875C70.2636 101.898 69.0944 102.044 67.6483 102.042C67.4687 102.043 67.4687 102.043 67.2855 102.044C67.0342 102.045 66.7828 102.045 66.5315 102.044C66.1507 102.044 65.77 102.047 65.3893 102.051C63.7815 102.057 62.348 102.039 61.0439 100.98C60.4047 100.345 59.9812 99.6148 59.936 98.707C59.9363 98.5808 59.9367 98.4546 59.937 98.3247C59.937 98.1791 59.937 98.0336 59.937 97.8836C59.9378 97.7317 59.9385 97.5797 59.9392 97.4231C59.9394 97.2827 59.9395 97.1423 59.9396 96.9976C59.9404 96.4736 59.9423 95.9497 59.9442 95.4258C59.9471 94.254 59.95 93.0823 59.9529 91.875Z" fill="#A0A0A0"/>
<path d="M56.7187 44.0625C57.2645 44.2444 57.3609 44.4713 57.6679 44.9502C57.7571 45.086 57.8463 45.2217 57.9382 45.3616C58.125 45.75 58.125 45.75 58.1398 46.0367C57.89 46.4799 57.4834 46.7318 57.0791 47.0244C54.4907 48.9863 52.7703 51.7634 51.9375 54.8906C51.9019 55.0099 51.8663 55.1292 51.8297 55.2521C51.5125 56.3822 51.4518 57.4385 51.4629 58.6084C51.4612 58.78 51.4596 58.9516 51.4579 59.1283C51.4616 60.3004 51.6236 61.3564 51.9375 62.4844C51.9654 62.5871 51.9933 62.6897 52.0221 62.7955C52.9855 66.1605 55.2946 69.4507 58.3819 71.2088C58.9345 71.5029 59.499 71.7718 60.0645 72.0399C63.2182 73.5387 65.5572 75.3056 66.875 78.6738C67.2783 79.8534 67.36 80.9346 67.4062 82.1719C66.5709 82.1719 65.7356 82.1719 64.875 82.1719C64.846 81.8644 64.817 81.557 64.7871 81.2402C64.5853 79.5645 63.9229 78.0646 62.7656 76.8281C62.6782 76.7333 62.5908 76.6385 62.5008 76.5408C61.6413 75.6961 60.6306 75.2342 59.5562 74.7248C54.7451 72.4206 51.3767 68.8584 49.5732 63.8291C48.6607 60.8942 48.4917 57.7336 49.2656 54.75C49.2928 54.6135 49.32 54.477 49.348 54.3364C49.8773 51.8101 51.2747 49.3944 52.9218 47.4375C53.0154 47.3251 53.1089 47.2127 53.2053 47.0969C54.2075 45.936 55.3891 44.8386 56.7187 44.0625Z" fill="#FFAA00"/>
<path d="M59.9531 96.9375C64.0833 96.9375 68.2134 96.9375 72.4688 96.9375C72.4688 99.7126 72.4688 99.7126 71.3438 100.875C70.2638 101.898 69.0946 102.044 67.6485 102.042C67.4689 102.043 67.4689 102.043 67.2857 102.044C67.0343 102.045 66.783 102.045 66.5316 102.044C66.1508 102.044 65.7702 102.047 65.3894 102.051C63.7817 102.057 62.3482 102.039 61.0441 100.98C60.4757 100.415 60.1463 99.8198 59.9531 99.0469C59.9531 98.3508 59.9531 97.6547 59.9531 96.9375Z" fill="#EAEAEA"/>
<path d="M59.9531 91.875C64.0833 91.875 68.2134 91.875 72.4688 91.875C72.4688 92.7103 72.4688 93.5456 72.4688 94.4062C68.3386 94.4062 64.2084 94.4062 59.9531 94.4062C59.9531 93.5709 59.9531 92.7356 59.9531 91.875Z" fill="#EAEAEA"/>
<path d="M34.2188 37.0337C34.5506 37.1847 34.5506 37.1847 34.8867 37.4116C35.0207 37.5017 35.1547 37.5918 35.2927 37.6846C35.4507 37.7953 35.6083 37.9065 35.7656 38.018C35.8571 38.0829 35.9486 38.1478 36.0428 38.2146C36.684 38.6715 37.3207 39.1344 37.9566 39.5985C38.3028 39.8505 38.6501 40.101 38.9978 40.351C39.1116 40.4328 39.2253 40.5146 39.3425 40.5989C39.5599 40.7553 39.7773 40.9115 39.9949 41.0676C41.4827 42.1397 41.4827 42.1397 41.6719 42.518C41.7687 43.5022 41.7687 43.5022 41.3819 44.0649C40.9688 44.3462 40.9688 44.3462 40.5293 44.4516C39.7023 44.2916 39.1131 43.8453 38.4375 43.3618C38.3463 43.2969 38.255 43.232 38.1609 43.1652C37.5196 42.7083 36.8826 42.2456 36.2466 41.7813C35.9003 41.5293 35.553 41.2789 35.2053 41.0288C35.0916 40.947 34.9779 40.8652 34.8607 40.7809C34.6433 40.6246 34.4258 40.4683 34.2083 40.3122C32.7204 39.2401 32.7204 39.2401 32.5313 38.8618C32.4758 38.2738 32.4679 37.9745 32.7949 37.4731C33.2658 37.0023 33.562 36.9859 34.2188 37.0337Z" fill="#FFAA00"/>
<path d="M39.8261 49.1786C40.1249 49.4071 40.1249 49.4071 40.2655 49.6884C40.3631 50.6802 40.3631 50.6802 40.0172 51.1525C39.4272 51.7189 38.607 51.8317 37.8364 52.0208C37.5839 52.0854 37.5839 52.0854 37.3263 52.1512C36.88 52.2645 36.4332 52.3755 35.9861 52.4856C35.5332 52.5983 35.0815 52.7157 34.6295 52.8321C34.2835 52.9194 33.9375 53.0064 33.5913 53.0931C33.4294 53.1346 33.2675 53.1762 33.1007 53.2191C32.2986 53.4145 31.6485 53.57 30.8436 53.3446C30.3996 52.969 30.2416 52.6475 30.1932 52.079C30.179 51.8066 30.179 51.8066 30.2811 51.5165C31.0021 50.762 31.776 50.5823 32.7723 50.3448C32.9311 50.3052 33.0898 50.2657 33.2534 50.2249C33.5882 50.1419 33.9233 50.0601 34.2587 49.9793C34.7707 49.8558 35.2817 49.7286 35.7927 49.6008C36.1188 49.5205 36.445 49.4403 36.7713 49.3605C36.9235 49.3227 37.0758 49.2849 37.2326 49.246C39.0556 48.8101 39.0556 48.8101 39.8261 49.1786Z" fill="#FFA900"/>
<path d="M44.4758 30.0312C44.9522 30.2072 45.2085 30.5637 45.4689 30.9821C45.6687 31.4981 45.8004 32.0263 45.9326 32.563C45.9718 32.7153 46.0111 32.8675 46.0515 33.0243C46.1338 33.3453 46.2151 33.6665 46.2953 33.988C46.4176 34.4781 46.5431 34.9672 46.6692 35.4563C46.749 35.7692 46.8287 36.0821 46.9082 36.3951C46.9452 36.5404 46.9823 36.6858 47.0204 36.8355C47.5367 38.9107 47.5367 38.9107 47.2619 39.5427C47.0158 39.8415 47.0158 39.8415 46.5939 40.1227C45.6021 40.2172 45.6021 40.2172 45.1762 39.9151C44.8004 39.4208 44.6759 38.9253 44.5197 38.3298C44.4855 38.2043 44.4513 38.0788 44.4161 37.9495C44.2958 37.5027 44.1792 37.055 44.0627 36.6071C44.0135 36.4209 43.9642 36.2347 43.9148 36.0485C43.7828 35.5498 43.653 35.0506 43.5246 34.5511C43.4736 34.3531 43.4222 34.1553 43.3703 33.9576C42.8367 31.9154 42.8367 31.9154 42.9377 30.8415C43.3601 30.1947 43.743 30.0593 44.4758 30.0312Z" fill="#FFAA00"/>
<path d="M89.5844 82.7987C90.2863 82.97 90.7874 83.532 91.3125 84.0023C91.5355 84.1928 91.7598 84.3817 91.9843 84.5704C92.2189 84.7678 92.4524 84.9664 92.6858 85.1652C93.0993 85.5159 93.519 85.8584 93.9404 86.1995C94.457 86.6228 94.9721 87.0474 95.4785 87.4827C95.5934 87.5806 95.7084 87.6785 95.8268 87.7794C96.1348 88.1267 96.2059 88.3235 96.2344 88.7835C95.9533 89.6562 95.9533 89.6562 95.5576 89.97C95.114 90.0841 94.8684 90.1276 94.4062 90.0491C93.9458 89.7676 93.5486 89.4166 93.1406 89.0648C92.9963 88.9428 92.8518 88.8211 92.7072 88.6995C92.3948 88.4363 92.0833 88.1722 91.7723 87.9074C90.9834 87.2372 90.1853 86.5772 89.3668 85.9435C89.2403 85.8453 89.1138 85.747 88.9834 85.6458C88.8701 85.5593 88.7568 85.4729 88.6401 85.3838C88.2183 84.9983 88.0901 84.709 88.043 84.1429C88.0777 83.7258 88.1266 83.5016 88.3594 83.1585C88.7929 82.8695 89.0648 82.7827 89.5844 82.7987Z" fill="#FFAA00"/>
<path d="M91.2658 75.8217C91.465 75.8197 91.465 75.8197 91.6683 75.8176C91.8832 75.8167 91.8832 75.8167 92.1025 75.8158C92.25 75.815 92.3976 75.8142 92.5496 75.8134C92.8619 75.8121 93.1742 75.8111 93.4865 75.8106C93.964 75.8092 94.4414 75.8049 94.9188 75.8004C95.2222 75.7995 95.5256 75.7988 95.829 75.7982C95.9717 75.7965 96.1144 75.7948 96.2614 75.793C97.515 75.7969 97.515 75.7969 98.0625 76.2662C98.4142 76.7937 98.4192 77.0479 98.3438 77.6725C97.9864 78.1168 97.7607 78.3356 97.2188 78.5162C97.0046 78.5305 96.7899 78.5371 96.5753 78.5389C96.4453 78.5403 96.3153 78.5416 96.1813 78.543C96.0411 78.5436 95.901 78.5442 95.7565 78.5448C95.6121 78.5456 95.4676 78.5464 95.3188 78.5472C95.0131 78.5486 94.7075 78.5495 94.4018 78.55C93.9345 78.5514 93.4673 78.5558 93 78.5602C92.703 78.5611 92.406 78.5618 92.1091 78.5624C91.9694 78.5641 91.8298 78.5659 91.686 78.5677C90.7889 78.5648 90.2773 78.4654 89.625 77.8131C89.5541 77.386 89.5618 76.9754 89.625 76.5475C90.0717 75.9314 90.5337 75.8277 91.2658 75.8217Z" fill="#FFA900"/>
<path d="M84.422 86.1076C84.7287 86.5677 84.7396 86.7059 84.7441 87.2397C84.7468 87.4565 84.7468 87.4565 84.7496 87.6777C84.7499 87.8337 84.7502 87.9897 84.7505 88.1505C84.7514 88.3109 84.7524 88.4712 84.7533 88.6365C84.7548 88.9758 84.7554 89.3152 84.7554 89.6546C84.756 90.1744 84.7611 90.694 84.7664 91.2137C84.7673 91.5432 84.7678 91.8727 84.7681 92.2022C84.7701 92.358 84.7721 92.5137 84.7742 92.6741C84.7733 92.8191 84.7725 92.9641 84.7716 93.1135C84.772 93.2409 84.7724 93.3683 84.7728 93.4995C84.6814 93.9494 84.4888 94.1155 84.1408 94.4044C83.7395 94.6051 83.4609 94.5887 83.0158 94.5451C82.6361 94.292 82.3771 94.1114 82.172 93.7013C82.1572 93.4796 82.1511 93.2573 82.1494 93.0351C82.148 92.8966 82.1466 92.7581 82.1453 92.6155C82.1447 92.4653 82.1441 92.3152 82.1434 92.1605C82.1426 92.0065 82.1418 91.8525 82.141 91.6938C82.1397 91.3674 82.1388 91.041 82.1382 90.7147C82.1369 90.2156 82.1325 89.7166 82.1281 89.2175C82.1271 88.9007 82.1264 88.5838 82.1259 88.2669C82.1241 88.1176 82.1224 87.9684 82.1206 87.8145C82.1246 86.5024 82.1246 86.5024 82.5939 85.9669C83.3147 85.5738 83.7244 85.7185 84.422 86.1076Z" fill="#FFA900"/>
<path d="M64.875 84.5625C65.7103 84.5625 66.5456 84.5625 67.4062 84.5625C67.4062 85.8155 67.4062 87.0684 67.4062 88.3594C66.5709 88.3594 65.7356 88.3594 64.875 88.3594C64.875 87.1064 64.875 85.8534 64.875 84.5625Z" fill="#FFAA01"/>
</g>
<defs>
<linearGradient id="paint0_linear_270_3731" x1="203.087" y1="43.5729" x2="-18.2236" y2="55.1336" gradientUnits="userSpaceOnUse">
<stop stop-color="#00ADEF"/>
<stop offset="1" stop-color="#D60F8C"/>
</linearGradient>
<clipPath id="clip0_270_3731">
<rect width="72" height="72" fill="white" transform="translate(30 30)"/>
</clipPath>
</defs>
</svg>
