<svg width="40" height="40" viewBox="0 0 40 40" fill="none" xmlns="http://www.w3.org/2000/svg">
<circle cx="20" cy="20" r="20" fill="url(#paint0_linear_141_15780)"/>
<circle cx="19.9998" cy="20.0013" r="17.3333" fill="white"/>
<g clip-path="url(#clip0_141_15780)">
<path d="M25.8333 10H14.1667C11.8692 10 10 11.8692 10 14.1667V20.8333C10 23.1308 11.8692 25 14.1667 25H25.8333C28.1308 25 30 23.1308 30 20.8333V14.1667C30 11.8692 28.1308 10 25.8333 10ZM28.3333 20.8333C28.3333 22.2117 27.2117 23.3333 25.8333 23.3333H14.1667C12.7883 23.3333 11.6667 22.2117 11.6667 20.8333V14.1667C11.6667 12.7883 12.7883 11.6667 14.1667 11.6667H25.8333C27.2117 11.6667 28.3333 12.7883 28.3333 14.1667V20.8333ZM18.3333 28.3333C18.3333 29.2542 17.5875 30 16.6667 30C15.7458 30 15 29.2542 15 28.3333C15 27.4125 15.7458 26.6667 16.6667 26.6667C17.5875 26.6667 18.3333 27.4125 18.3333 28.3333ZM22.7742 15.8408L19.4433 13.99C18.24 13.2675 16.5767 14.2458 16.6233 15.6492V19.35C16.5758 20.7533 18.24 21.7308 19.4433 21.0092L22.775 19.1583C24.0575 18.4958 24.0567 16.5025 22.7742 15.8408ZM21.9642 17.7017L18.6333 19.5525C18.5375 19.6058 18.4558 19.58 18.4042 19.55C18.3525 19.5192 18.29 19.46 18.29 19.3508V15.6492C18.29 15.54 18.3517 15.48 18.4042 15.45C18.4342 15.4325 18.4742 15.4158 18.5217 15.4158C18.5558 15.4158 18.5933 15.4242 18.6342 15.4467L21.965 17.2975C22.0642 17.3525 22.085 17.4375 22.085 17.5C22.085 17.5625 22.0642 17.6475 21.9658 17.7025L21.9642 17.7017ZM30 28.3325C30 28.7933 29.6267 29.1658 29.1667 29.1658H20.8333C20.3733 29.1658 20 28.7933 20 28.3325C20 27.8717 20.3733 27.4992 20.8333 27.4992H29.1667C29.6267 27.4992 30 27.8717 30 28.3325ZM13.3333 28.3325C13.3333 28.7933 12.96 29.1658 12.5 29.1658H10.8333C10.3733 29.1658 10 28.7933 10 28.3325C10 27.8717 10.3733 27.4992 10.8333 27.4992H12.5C12.96 27.4992 13.3333 27.8717 13.3333 28.3325Z" fill="url(#paint1_linear_141_15780)"/>
</g>
<defs>
<linearGradient id="paint0_linear_141_15780" x1="4.62971e-08" y1="3.80952" x2="42.0865" y2="7.60863" gradientUnits="userSpaceOnUse">
<stop stop-color="#FBFDFF"/>
<stop offset="1" stop-color="#E9F6FF"/>
</linearGradient>
<linearGradient id="paint1_linear_141_15780" x1="40.7708" y1="16.602" x2="7.23884" y2="18.3536" gradientUnits="userSpaceOnUse">
<stop stop-color="#00ADEF"/>
<stop offset="1" stop-color="#D60F8C"/>
</linearGradient>
<clipPath id="clip0_141_15780">
<rect width="20" height="20" fill="white" transform="translate(10 10)"/>
</clipPath>
</defs>
</svg>
