<svg width="120" height="120" viewBox="0 0 120 120" fill="none" xmlns="http://www.w3.org/2000/svg">
<circle cx="60" cy="60" r="60" fill="url(#paint0_linear_141_15140)"/>
<circle cx="60" cy="60" r="52" fill="white"/>
<g clip-path="url(#clip0_141_15140)">
<path d="M64.028 75.6072L69.016 68.6252L72.792 73.8172L77.662 65.7492L84 73.9372V67.4012L70 49.3172V46.0012L78 41.0012L70 36.0012H66V49.3172L42 80.3172V84.0012H84V80.0012H47.302L57.526 66.7952L64.026 75.6072H64.028ZM72.484 66.5892L68.99 61.7812L63.978 68.7972L60.074 63.5052L68 53.2672L75.036 62.3552L72.482 66.5872L72.484 66.5892ZM39.586 55.5872L42.414 58.4152L44.414 56.4152L46 58.0012V62.0012H49.172C52 60.0012 53.944 57.0012 53.944 53.3012C57.184 49.7192 59.838 45.1012 61.834 39.5752C62.21 38.5872 61.952 37.4752 61.164 36.7312C60.37 35.9792 59.234 35.7832 58.45 36.1572C52.86 38.1712 48.412 40.7212 44.78 43.9992H44.768C41.002 43.9992 38.002 45.9992 36.002 48.8292V52.0012H40L41.586 53.5872L39.586 55.5872ZM51.042 50.5492L47.636 53.9792L44.026 50.3672L47.454 46.9612C50.004 44.6472 53.102 42.7112 56.952 41.0452C55.312 44.8292 53.32 48.0272 51.042 50.5472V50.5492Z" fill="url(#paint1_linear_141_15140)"/>
</g>
<defs>
<linearGradient id="paint0_linear_141_15140" x1="1.38891e-07" y1="11.4286" x2="126.259" y2="22.8259" gradientUnits="userSpaceOnUse">
<stop stop-color="#FBFDFF"/>
<stop offset="1" stop-color="#E9F6FF"/>
</linearGradient>
<linearGradient id="paint1_linear_141_15140" x1="109.849" y1="51.8268" x2="29.3752" y2="56.0278" gradientUnits="userSpaceOnUse">
<stop stop-color="#00ADEF"/>
<stop offset="1" stop-color="#D60F8C"/>
</linearGradient>
<clipPath id="clip0_141_15140">
<rect width="48" height="48" fill="white" transform="translate(36 36)"/>
</clipPath>
</defs>
</svg>
