<svg width="64" height="64" viewBox="0 0 64 64" fill="none" xmlns="http://www.w3.org/2000/svg">
<circle cx="32" cy="32" r="32" fill="url(#paint0_linear_6_519)"/>
<circle cx="32" cy="32" r="28" fill="white"/>
<g clip-path="url(#clip0_6_519)">
<path d="M31.7649 12.9766C31.9752 12.9769 32.1855 12.9751 32.3959 12.9733C33.5633 12.9692 34.7204 13.0816 35.8501 13.3897C35.936 13.4129 35.936 13.4129 36.0236 13.4366C36.7852 13.654 37.6069 13.9678 38.0859 14.6329C38.1605 14.8566 38.157 15.0232 38.1514 15.2558C38.1501 15.6445 38.1593 15.9393 38.3921 16.2611C38.5322 16.3916 38.675 16.5195 38.8197 16.6449C39.7405 17.4556 40.3533 18.7908 40.7439 19.9302C40.7645 19.9897 40.7852 20.0491 40.8065 20.1103C41.2163 21.3741 41.2378 22.6255 41.2449 23.9427C41.2521 24.9729 41.2669 25.9986 41.3455 27.0263C41.3543 27.1414 41.3543 27.1414 41.3632 27.2589C41.4539 28.3512 41.6464 29.4068 41.9639 30.4554C42.3084 31.6043 42.3084 31.6043 42.168 32.0743C41.9005 32.5401 41.5611 32.8134 41.1011 33.0762C41.0424 33.1108 40.9837 33.1454 40.9232 33.181C40.3616 33.5076 39.7892 33.8064 39.1992 34.0782C39.1472 34.1024 39.0952 34.1265 39.0416 34.1514C37.8147 34.714 36.5131 35.1398 35.1914 35.4141C35.228 35.5292 35.2672 35.6435 35.3074 35.7574C35.3289 35.8211 35.3504 35.8848 35.3726 35.9505C35.6912 36.5174 36.2707 36.7458 36.846 36.9872C36.9675 37.0395 36.9675 37.0395 37.0916 37.0929C37.3531 37.2052 37.6151 37.3163 37.8772 37.4273C38.0566 37.5042 38.2359 37.5812 38.4152 37.6582C39.104 37.9538 39.7939 38.247 40.4848 38.5377C40.6325 38.5998 40.78 38.6621 40.9275 38.7245C41.0919 38.7938 41.2565 38.8624 41.4215 38.9301C42.4129 39.3461 43.0766 39.8682 43.508 40.868C43.6145 41.1515 43.6617 41.3949 43.6638 41.6979C43.6644 41.7672 43.6651 41.8365 43.6657 41.9078C43.6662 42.0211 43.6662 42.0211 43.6667 42.1366C43.6673 42.2165 43.6679 42.2965 43.6685 42.3788C43.6704 42.6435 43.6716 42.9082 43.6726 43.1729C43.673 43.2634 43.6734 43.3539 43.6738 43.4472C43.6758 43.9264 43.6773 44.4055 43.6783 44.8847C43.6793 45.2808 43.6814 45.6769 43.6844 46.073C43.6881 46.5517 43.6899 47.0303 43.6905 47.509C43.691 47.6911 43.6921 47.8732 43.6939 48.0553C43.6962 48.3107 43.6962 48.5661 43.6957 48.8215C43.6969 48.8961 43.6981 48.9707 43.6994 49.0476C43.6948 49.5681 43.5784 49.974 43.2813 50.4063C42.8973 50.7715 42.4916 51.0181 41.9506 51.0194C41.8784 51.0199 41.8063 51.0204 41.732 51.021C41.6533 51.0208 41.5746 51.0206 41.4935 51.0204C41.4094 51.0208 41.3254 51.0212 41.2388 51.0216C40.9565 51.0227 40.6743 51.0228 40.392 51.0228C40.1899 51.0233 39.9878 51.024 39.7857 51.0247C39.2361 51.0264 38.6865 51.027 38.1369 51.0273C37.7935 51.0276 37.4502 51.0281 37.1069 51.0286C36.1559 51.0301 35.2049 51.0313 34.2538 51.0315C34.1626 51.0315 34.1626 51.0315 34.0695 51.0315C33.9461 51.0316 33.8228 51.0316 33.6994 51.0316C33.6382 51.0316 33.577 51.0316 33.5139 51.0317C33.422 51.0317 33.422 51.0317 33.3281 51.0317C32.3352 51.032 31.3423 51.034 30.3493 51.0367C29.3293 51.0396 28.3093 51.041 27.2893 51.041C26.7168 51.0411 26.1443 51.0417 25.5718 51.0438C25.0843 51.0457 24.5968 51.0462 24.1092 51.0451C23.8607 51.0445 23.6121 51.0448 23.3636 51.0463C23.0936 51.0478 22.8237 51.047 22.5537 51.0457C22.4758 51.0467 22.3979 51.0476 22.3177 51.0487C21.7906 51.0427 21.379 50.9313 20.9414 50.629C20.4244 50.0848 20.3255 49.6039 20.3261 48.8719C20.3256 48.7921 20.3251 48.7123 20.3246 48.63C20.3232 48.3661 20.3229 48.1022 20.3227 47.8382C20.3223 47.6544 20.3218 47.4705 20.3212 47.2866C20.3203 46.9009 20.3201 46.5152 20.3202 46.1295C20.3202 45.6366 20.3182 45.1438 20.3156 44.6509C20.3139 44.2709 20.3136 43.8909 20.3137 43.5109C20.3135 43.3293 20.3129 43.1477 20.3117 42.966C20.3103 42.7112 20.3107 42.4564 20.3116 42.2015C20.3108 42.1273 20.3099 42.0531 20.3091 41.9766C20.3164 41.146 20.6122 40.3419 21.2084 39.7495C21.5799 39.4077 21.9465 39.1956 22.409 38.9987C22.4791 38.9678 22.5493 38.9369 22.6215 38.9051C22.8526 38.8039 23.0844 38.7046 23.3164 38.6055C23.3971 38.5709 23.4777 38.5362 23.5608 38.5005C24.2508 38.2043 24.9425 37.9122 25.6344 37.6207C25.8957 37.5105 26.1568 37.3999 26.418 37.2893C26.4959 37.2566 26.5738 37.2239 26.6542 37.1902C27.8515 36.7612 27.8515 36.7612 28.6487 35.8553C28.6677 35.8029 28.6867 35.7505 28.7063 35.6965C28.7256 35.6435 28.745 35.5905 28.765 35.5359C28.7794 35.4957 28.7938 35.4555 28.8086 35.4141C28.7575 35.4011 28.7065 35.3881 28.6538 35.3747C27.5689 35.096 26.5065 34.799 25.4688 34.3751C25.3862 34.3417 25.3862 34.3417 25.3021 34.3076C22.6306 33.2132 22.6306 33.2132 21.9016 32.2413C21.7185 31.6065 21.8499 31.0767 22.0361 30.46C22.7196 28.1951 22.745 25.8542 22.7565 23.5064C22.7685 21.4651 22.7685 21.4651 23.0195 20.4962C23.0358 20.4319 23.052 20.3677 23.0687 20.3015C23.1123 20.143 23.1609 19.9882 23.2144 19.8328C23.233 19.7781 23.2516 19.7234 23.2708 19.667C23.7379 18.3552 24.5309 17.0739 25.5972 16.1677C25.8174 15.9077 25.81 15.7489 25.812 15.4122C25.8167 14.9472 25.8754 14.7027 26.1776 14.3502C27.5691 13.0636 29.9737 12.9725 31.7649 12.9766Z" fill="#FE8086"/>
<path d="M31.7649 12.9766C31.9752 12.9769 32.1855 12.9751 32.3959 12.9733C33.5633 12.9692 34.7204 13.0816 35.8501 13.3897C35.936 13.4129 35.936 13.4129 36.0236 13.4366C36.7852 13.654 37.6069 13.9678 38.086 14.6329C38.1605 14.8566 38.157 15.0232 38.1514 15.2558C38.1501 15.6445 38.1593 15.9393 38.3921 16.2611C38.5322 16.3916 38.675 16.5195 38.8197 16.6449C39.7405 17.4556 40.3533 18.7908 40.7439 19.9302C40.7646 19.9897 40.7852 20.0491 40.8065 20.1103C41.2164 21.3741 41.2378 22.6255 41.2449 23.9427C41.2521 24.9729 41.2669 25.9986 41.3455 27.0263C41.3543 27.1414 41.3543 27.1414 41.3632 27.2589C41.454 28.3512 41.6464 29.4068 41.9639 30.4554C42.3084 31.6043 42.3084 31.6043 42.168 32.0743C41.9005 32.5401 41.5611 32.8134 41.1011 33.0762C41.0424 33.1108 40.9837 33.1454 40.9232 33.181C40.3616 33.5076 39.7892 33.8064 39.1992 34.0782C39.1472 34.1024 39.0952 34.1265 39.0416 34.1514C37.829 34.7074 36.4502 35.2609 35.1172 35.4141C34.8553 35.1522 34.9673 34.3351 34.963 33.9565C34.9721 33.1115 34.9721 33.1115 35.2598 32.8292C35.492 32.6655 35.7472 32.5528 36.0081 32.4422C36.2482 32.3271 36.4324 32.1632 36.6248 31.9815C36.6606 31.9479 36.6965 31.9143 36.7335 31.8797C37.4114 31.2191 37.8854 30.4266 38.2344 29.5508C38.2633 29.4837 38.2922 29.4165 38.3219 29.3473C38.5132 28.8546 38.5691 28.3731 38.6136 27.8508C38.6201 27.7786 38.6266 27.7065 38.6333 27.6321C38.6491 27.4553 38.6646 27.2785 38.6797 27.1016C38.6243 27.1023 38.5689 27.1029 38.5118 27.1036C37.9878 27.1096 37.4637 27.1141 36.9396 27.117C36.6702 27.1186 36.4008 27.1206 36.1314 27.124C35.8711 27.1273 35.6108 27.129 35.3504 27.1298C35.2036 27.1306 35.0567 27.1329 34.9099 27.1353C34.1597 27.1355 33.722 26.9933 33.169 26.4661C32.7208 26.0429 32.4284 25.8094 31.7974 25.8196C31.4161 25.8656 31.1897 26.1279 30.9378 26.3919C30.5492 26.7934 30.0635 27.0855 29.4973 27.1106C29.4202 27.1104 29.343 27.1102 29.2636 27.1101C29.1759 27.1101 29.0883 27.11 28.998 27.11C28.9037 27.1097 28.8095 27.1093 28.7124 27.1089C28.6156 27.1088 28.5188 27.1087 28.4191 27.1086C28.1624 27.1083 27.9057 27.1075 27.649 27.1067C27.3868 27.106 27.1246 27.1056 26.8624 27.1053C26.3484 27.1045 25.8344 27.1032 25.3203 27.1016C25.3396 27.3474 25.3606 27.593 25.3818 27.8386C25.3898 27.9416 25.3898 27.9416 25.3981 28.0467C25.5462 29.7185 26.4788 31.1632 27.6933 32.2784C27.8768 32.4148 27.9947 32.4828 28.2007 32.5613C28.7838 32.8031 28.7838 32.8031 28.957 33.1133C29.0915 33.841 29.0194 34.6076 28.957 35.3399C28.7489 35.444 28.645 35.3852 28.4216 35.326C28.3422 35.305 28.2629 35.284 28.1811 35.2624C28.0531 35.2273 28.0531 35.2273 27.9226 35.1915C27.7917 35.1557 27.7917 35.1557 27.6581 35.1193C26.9111 34.9111 26.1865 34.6683 25.4688 34.3751C25.3863 34.3417 25.3863 34.3417 25.3021 34.3076C22.6306 33.2132 22.6306 33.2132 21.9016 32.2413C21.7185 31.6065 21.8499 31.0767 22.0362 30.46C22.7196 28.1951 22.745 25.8542 22.7565 23.5064C22.7685 21.4651 22.7685 21.4651 23.0195 20.4962C23.0358 20.4319 23.052 20.3677 23.0687 20.3015C23.1123 20.143 23.1609 19.9882 23.2144 19.8328C23.233 19.7781 23.2516 19.7234 23.2708 19.667C23.7379 18.3552 24.5309 17.0739 25.5972 16.1677C25.8174 15.9077 25.81 15.7489 25.812 15.4122C25.8167 14.9472 25.8754 14.7027 26.1776 14.3502C27.5691 13.0636 29.9737 12.9725 31.7649 12.9766Z" fill="#966A5B"/>
<path d="M36.0078 36.6758C36.553 36.8476 37.0733 37.06 37.598 37.2863C37.6858 37.324 37.7736 37.3616 37.864 37.4004C38.0495 37.48 38.235 37.5597 38.4204 37.6396C38.6532 37.7399 38.8861 37.8398 39.1192 37.9397C39.6908 38.1847 40.2618 38.4314 40.832 38.6797C40.9465 38.7295 40.9465 38.7295 41.0632 38.7802C41.2699 38.8705 41.4762 38.9615 41.6824 39.0528C41.7416 39.0787 41.8009 39.1046 41.8619 39.1312C42.6511 39.4841 43.1545 40.0205 43.4866 40.8208C43.6562 41.2795 43.6849 41.6925 43.6835 42.1787C43.6841 42.2587 43.6848 42.3386 43.6854 42.421C43.6871 42.6837 43.6872 42.9464 43.6871 43.2091C43.6877 43.3927 43.6882 43.5763 43.6888 43.76C43.6898 44.1442 43.69 44.5284 43.6895 44.9127C43.6891 45.4039 43.6914 45.8951 43.6944 46.3863C43.6963 46.7653 43.6965 47.1443 43.6962 47.5234C43.6963 47.7045 43.6971 47.8855 43.6984 48.0666C43.7 48.3202 43.6993 48.5737 43.698 48.8273C43.699 48.9014 43.7 48.9754 43.701 49.0516C43.6948 49.57 43.5766 49.9755 43.2812 50.4062C42.858 50.8088 42.4481 51.0189 41.8576 51.0178C41.7653 51.0181 41.673 51.0183 41.5779 51.0185C41.4762 51.0179 41.3745 51.0174 41.2728 51.0169C41.1652 51.0168 41.0577 51.0168 40.9501 51.0169C40.6587 51.017 40.3672 51.0161 40.0757 51.0151C39.7709 51.0141 39.4661 51.014 39.1613 51.0139C38.5844 51.0134 38.0074 51.0122 37.4305 51.0107C36.6507 51.0087 35.8709 51.0079 35.0911 51.0071C33.8628 51.0057 32.6345 51.0027 31.4062 51C31.4062 47.8895 31.4062 44.779 31.4062 41.5742C31.4797 41.6232 31.5532 41.6722 31.6289 41.7227C31.8872 41.7778 32.1123 41.7742 32.3711 41.7227C32.8046 41.3724 33.1088 40.8276 33.4148 40.3682C33.5127 40.2229 33.6107 40.0776 33.7088 39.9324C33.7579 39.8595 33.8071 39.7866 33.8577 39.7115C34.0811 39.3824 34.3088 39.0563 34.5374 38.7307C34.5796 38.6706 34.6218 38.6104 34.6653 38.5485C34.7911 38.3695 34.917 38.1906 35.043 38.0117C35.1298 37.8882 35.2165 37.7647 35.3033 37.6412C35.3851 37.525 35.4668 37.4089 35.5486 37.2927C35.5864 37.2389 35.6243 37.185 35.6633 37.1296C35.925 36.7586 35.925 36.7586 36.0078 36.6758Z" fill="#FE7F85"/>
<path d="M32.5242 25.8397C32.777 26.0118 32.9698 26.2132 33.1809 26.4332C33.5994 26.8345 34.0139 27.0341 34.5933 27.0425C34.7292 27.0447 34.7292 27.0447 34.8679 27.047C34.9658 27.0482 35.0636 27.0494 35.1645 27.0507C35.2657 27.0522 35.3669 27.0538 35.4681 27.0554C35.7342 27.0595 36.0003 27.0631 36.2664 27.0667C36.538 27.0705 36.8096 27.0746 37.0813 27.0787C37.6141 27.0867 38.1469 27.0942 38.6797 27.1014C38.6821 27.2775 38.6839 27.4536 38.6852 27.6297C38.686 27.679 38.6867 27.7283 38.6875 27.779C38.6967 29.3575 37.777 30.8759 36.7083 31.9723C35.9817 32.664 35.1645 33.1377 34.2266 33.4843C34.1687 33.5063 34.1108 33.5283 34.0512 33.5509C32.4531 34.1243 30.6799 33.9454 29.1517 33.2496C27.4434 32.4283 26.257 31.0726 25.6013 29.308C25.4047 28.7407 25.3081 28.2326 25.3157 27.6303C25.3161 27.5792 25.3164 27.5281 25.3167 27.4754C25.3176 27.3508 25.3189 27.2261 25.3204 27.1014C25.3739 27.101 25.4274 27.1006 25.4826 27.1001C25.9892 27.0958 26.4958 27.0905 27.0024 27.084C27.2628 27.0806 27.5232 27.0777 27.7836 27.0757C28.0836 27.0734 28.3835 27.0694 28.6834 27.0652C28.7761 27.0647 28.8688 27.0643 28.9644 27.0638C29.5798 27.0535 30.0921 26.996 30.5899 26.6005C30.6383 26.5623 30.6867 26.5241 30.7366 26.4848C30.947 26.3089 31.1534 26.1287 31.357 25.945C31.6876 25.6633 32.131 25.7113 32.5242 25.8397Z" fill="#FEFEFE"/>
<path d="M28.2766 19.9538C28.4377 20.0284 28.5952 20.1084 28.7529 20.1899C30.0991 20.8546 31.516 21.3671 32.9648 21.7578C33.025 21.7741 33.0852 21.7904 33.1472 21.8073C34.2872 22.1127 35.4423 22.3643 36.6154 22.5C37.3319 22.5915 37.994 22.8032 38.457 23.3906C38.7593 23.9063 38.7942 24.3635 38.7829 24.9518C38.7824 25.0349 38.782 25.1179 38.7816 25.2035C38.7799 25.4667 38.7762 25.7298 38.7724 25.9929C38.7709 26.1722 38.7696 26.3515 38.7684 26.5308C38.7651 26.9685 38.7601 27.4061 38.7539 27.8437C38.7294 27.8437 38.7049 27.8437 38.6796 27.8437C38.6796 27.5988 38.6796 27.3539 38.6796 27.1015C38.5965 27.1025 38.5965 27.1025 38.5118 27.1035C37.9877 27.1095 37.4636 27.114 36.9395 27.1169C36.6701 27.1185 36.4008 27.1206 36.1314 27.1239C35.871 27.1272 35.6107 27.1289 35.3503 27.1297C35.2035 27.1305 35.0567 27.1328 34.9098 27.1352C34.1596 27.1354 33.7219 26.9932 33.1689 26.466C32.7207 26.0429 32.4283 25.8093 31.7973 25.8195C31.4161 25.8655 31.1896 26.1278 30.9377 26.3918C30.5492 26.7933 30.0635 27.0854 29.4972 27.1105C29.4201 27.1103 29.343 27.1101 29.2635 27.11C29.1759 27.11 29.0882 27.11 28.9979 27.11C28.9037 27.1096 28.8094 27.1092 28.7123 27.1088C28.5671 27.1086 28.5671 27.1086 28.419 27.1085C28.1623 27.1082 27.9056 27.1075 27.6489 27.1066C27.3867 27.1059 27.1245 27.1055 26.8623 27.1052C26.3483 27.1044 25.8343 27.1031 25.3203 27.1015C25.3203 27.322 25.3203 27.5424 25.3203 27.7695C25.2958 27.7695 25.2713 27.7695 25.2461 27.7695C25.2391 27.1365 25.2339 26.5036 25.2307 25.8706C25.2291 25.5766 25.227 25.2826 25.2237 24.9886C25.2204 24.7042 25.2186 24.4198 25.2179 24.1354C25.2173 24.0276 25.2163 23.9197 25.2147 23.8119C25.1975 22.6203 25.5072 21.6598 26.3269 20.779C26.809 20.3174 27.5691 19.686 28.2766 19.9538Z" fill="#EBBC83"/>
<path d="M25.8399 15.9688C25.8421 16.0315 25.8421 16.0315 25.8443 16.0956C25.8515 16.2884 25.8596 16.4811 25.8677 16.6738C25.87 16.7397 25.8723 16.8055 25.8747 16.8733C25.9091 17.6531 26.0796 18.2374 26.6006 18.8308C27.0146 19.1978 27.4523 19.5296 27.918 19.8281C27.6981 19.9747 27.4769 20.0858 27.2407 20.2039C26.2727 20.7251 25.7163 21.508 25.3819 22.5421C25.271 23.0011 25.2793 23.4603 25.2835 23.9299C25.2835 24.0372 25.2834 24.1446 25.2832 24.252C25.2831 24.4758 25.284 24.6996 25.2857 24.9234C25.2878 25.2066 25.2876 25.4898 25.2867 25.7731C25.2861 25.9946 25.2867 26.216 25.2876 26.4375C25.288 26.5418 25.288 26.646 25.2877 26.7503C25.2847 28.7542 25.9379 30.5038 27.3469 31.9533C27.6152 32.2071 27.8475 32.4264 28.196 32.5569C28.5159 32.6887 28.7819 32.8014 28.957 33.1133C29.0922 33.8406 29.0193 34.6078 28.957 35.3398C28.7489 35.4439 28.645 35.3852 28.4216 35.3259C28.3422 35.3049 28.2629 35.2839 28.1811 35.2623C28.0531 35.2272 28.0531 35.2272 27.9226 35.1914C27.7917 35.1557 27.7917 35.1557 27.6581 35.1192C26.9111 34.911 26.1865 34.6682 25.4688 34.375C25.3863 34.3416 25.3863 34.3416 25.3021 34.3076C22.6306 33.2132 22.6306 33.2132 21.9016 32.2412C21.7185 31.6064 21.8499 31.0767 22.0362 30.46C22.7196 28.1951 22.745 25.8541 22.7565 23.5063C22.7685 21.465 22.7685 21.465 23.0195 20.4961C23.0439 20.3997 23.0439 20.3997 23.0687 20.3014C23.1123 20.1429 23.1609 19.9882 23.2144 19.8328C23.233 19.778 23.2516 19.7233 23.2708 19.6669C23.5651 18.8405 24.8458 15.9688 25.8399 15.9688Z" fill="#785353"/>
<path d="M31.7649 12.9766C31.9753 12.9769 32.1855 12.9751 32.3959 12.9733C33.5633 12.9692 34.7204 13.0816 35.8501 13.3897C35.936 13.4129 35.936 13.4129 36.0236 13.4366C36.7852 13.654 37.6069 13.9678 38.086 14.6329C38.1757 14.9021 38.175 15.1519 38.1779 15.4325C38.1785 15.4889 38.1791 15.5454 38.1797 15.6036C38.1807 15.723 38.1815 15.8424 38.1821 15.9618C38.1834 16.1439 38.1866 16.326 38.1899 16.5081C38.1906 16.6242 38.1913 16.7404 38.1918 16.8565C38.1931 16.9108 38.1944 16.965 38.1957 17.0208C38.1946 17.2926 38.1681 17.4409 38.019 17.6714C37.7661 17.9197 37.6105 17.9083 37.2628 17.9104C37.1181 17.9115 37.1181 17.9115 36.9705 17.9127C36.8629 17.9131 36.7554 17.9136 36.6479 17.914C36.5351 17.9147 36.4224 17.9154 36.3096 17.9162C35.9387 17.9185 35.5678 17.92 35.1969 17.9214C35.1023 17.9218 35.1023 17.9218 35.0058 17.9222C34.4113 17.9244 33.8167 17.9264 33.2221 17.9277C32.4611 17.9293 31.7002 17.9324 30.9392 17.9376C30.4044 17.9411 29.8696 17.9429 29.3348 17.9434C29.0152 17.9438 28.6957 17.9449 28.3761 17.9479C28.0755 17.9506 27.7749 17.9512 27.4742 17.9502C27.3639 17.9502 27.2536 17.951 27.1433 17.9526C26.3154 17.9639 26.3154 17.9639 26.0628 17.8058C25.8099 17.5223 25.7875 17.2173 25.7958 16.8545C25.7958 16.7984 25.7958 16.7422 25.7958 16.6844C25.7962 16.5663 25.7975 16.4482 25.7996 16.3301C25.8028 16.15 25.8027 15.97 25.8022 15.7898C25.803 15.6746 25.8039 15.5595 25.8051 15.4444C25.8051 15.3908 25.8051 15.3373 25.8051 15.2822C25.8145 14.8801 25.9201 14.6505 26.1776 14.3502C27.5692 13.0636 29.9737 12.9725 31.7649 12.9766Z" fill="#FE7F85"/>
<path d="M28.957 33.1133C29.0298 33.1428 29.1026 33.1724 29.1777 33.2029C31.2077 34.0087 33.0327 33.9295 35.043 33.1133C35.0429 33.1761 35.0428 33.2389 35.0427 33.3035C35.0435 33.541 35.0462 33.7783 35.0502 34.0156C35.0515 34.1175 35.0521 34.2195 35.0519 34.3214C35.0508 35.0871 35.147 35.7857 35.6902 36.3672C35.8203 36.4821 35.8203 36.4821 36.0078 36.6016C35.8867 36.9828 35.6542 37.2726 35.4187 37.5896C35.3303 37.7103 35.2419 37.8311 35.1537 37.952C35.1097 38.0123 35.0657 38.0726 35.0203 38.1347C34.8428 38.3801 34.6709 38.629 34.5002 38.8792C34.4684 38.9257 34.4365 38.9723 34.4036 39.0203C34.3346 39.1211 34.2656 39.222 34.1967 39.3228C33.9537 39.6779 33.7102 40.0326 33.4658 40.3867C33.4167 40.4585 33.3676 40.5304 33.317 40.6044C32.5274 41.7464 32.5274 41.7464 32.1933 41.8543C31.916 41.8784 31.7168 41.8707 31.4984 41.6873C31.1618 41.2795 30.8555 40.8558 30.5574 40.4192C30.4529 40.2677 30.3484 40.1161 30.244 39.9646C30.1909 39.8873 30.1378 39.81 30.083 39.7303C29.8234 39.353 29.5618 38.9769 29.3003 38.6008C29.2511 38.5299 29.202 38.4589 29.1513 38.3858C28.9351 38.0742 28.7176 37.764 28.4923 37.4588C28.4567 37.4104 28.4211 37.3619 28.3844 37.312C28.32 37.2249 28.2549 37.1382 28.1891 37.0521C28.1055 36.939 28.1055 36.939 27.9922 36.75C28.0664 36.5273 28.0664 36.5273 28.2705 36.3789C28.6732 36.0504 28.8522 35.5699 28.9195 35.0646C28.9356 34.768 28.9419 34.4725 28.9431 34.1755C28.9448 34.072 28.9467 33.9684 28.9488 33.8649C28.9531 33.6143 28.9558 33.3639 28.957 33.1133Z" fill="#E2A875"/>
<path d="M28.2891 13.3711C28.2902 13.4354 28.2912 13.4998 28.2924 13.5661C28.2969 13.8073 28.3024 14.0485 28.3086 14.2898C28.311 14.3937 28.3131 14.4976 28.3148 14.6016C28.3047 15.5625 28.3047 15.5625 28.7622 16.3677C29.0762 16.562 29.3352 16.655 29.7053 16.6574C29.7795 16.6582 29.8537 16.659 29.9301 16.6599C30.0107 16.6601 30.0912 16.6602 30.1742 16.6604C30.3024 16.6615 30.3024 16.6615 30.4332 16.6626C30.7155 16.6649 30.9978 16.6662 31.2802 16.6674C31.476 16.6688 31.6718 16.6703 31.8676 16.6718C32.3302 16.6753 32.7928 16.678 33.2554 16.6805C33.7823 16.6833 34.309 16.687 34.8358 16.6907C35.9192 16.6984 37.0026 16.705 38.086 16.7109C38.086 16.4905 38.086 16.2701 38.086 16.043C38.1105 16.043 38.1349 16.043 38.1602 16.043C38.1682 16.2703 38.1741 16.4974 38.1787 16.7249C38.1812 16.789 38.1837 16.8532 38.1863 16.9192C38.1911 17.235 38.1897 17.4054 38.0199 17.6796C37.7633 17.9167 37.6066 17.9083 37.2628 17.9104C37.1663 17.9111 37.0699 17.9119 36.9705 17.9126C36.8629 17.9131 36.7554 17.9135 36.6479 17.9139C36.5351 17.9146 36.4224 17.9154 36.3096 17.9161C35.9387 17.9185 35.5678 17.92 35.1969 17.9213C35.1023 17.9217 35.1023 17.9217 35.0058 17.9221C34.4113 17.9244 33.8167 17.9263 33.2221 17.9276C32.4611 17.9292 31.7002 17.9323 30.9392 17.9375C30.4044 17.941 29.8696 17.9428 29.3348 17.9434C29.0152 17.9437 28.6957 17.9448 28.3761 17.9478C28.0755 17.9505 27.7749 17.9512 27.4742 17.9502C27.3639 17.9502 27.2536 17.9509 27.1433 17.9525C26.3154 17.9638 26.3154 17.9638 26.0628 17.8058C25.8099 17.5222 25.7875 17.2172 25.7958 16.8544C25.7958 16.7983 25.7958 16.7422 25.7958 16.6843C25.7962 16.5662 25.7975 16.4481 25.7996 16.3301C25.8028 16.1499 25.8027 15.9699 25.8022 15.7897C25.803 15.6746 25.8039 15.5594 25.8051 15.4443C25.8051 15.3908 25.8051 15.3373 25.8051 15.2821C25.8145 14.88 25.9201 14.6505 26.1776 14.3501C26.6747 13.8906 27.5855 13.3711 28.2891 13.3711Z" fill="#E4646D"/>
<path d="M26.7304 43.0587C26.9449 43.2103 27.0827 43.3262 27.1311 43.5925C27.1381 43.7823 27.1339 43.9683 27.1247 44.158C27.1231 44.2236 27.1214 44.2892 27.1197 44.3568C27.1153 44.5179 27.1087 44.6789 27.1015 44.8399C27.1928 44.8365 27.2841 44.833 27.3781 44.8295C27.4993 44.8267 27.6205 44.824 27.7417 44.8214C27.8017 44.8189 27.8617 44.8164 27.9235 44.8138C28.3305 44.8072 28.561 44.8627 28.8828 45.1368C29.0417 45.4545 28.9769 45.8746 28.9789 46.2273C28.9802 46.3833 28.9834 46.5391 28.9867 46.6949C28.9875 46.7945 28.9881 46.8941 28.9886 46.9937C28.9897 47.0841 28.9908 47.1745 28.9919 47.2676C28.9504 47.5583 28.8676 47.6787 28.6601 47.8829C28.4372 47.9572 28.2833 47.9682 28.0502 47.9714C27.9712 47.9726 27.8921 47.9738 27.8107 47.975C27.4501 47.9783 27.0894 47.9814 26.7287 47.9831C26.5384 47.9843 26.3481 47.9863 26.1578 47.9892C25.8834 47.9932 25.6092 47.9949 25.3348 47.996C25.2497 47.9976 25.1647 47.9993 25.0771 48.0011C24.4956 47.9995 24.4956 47.9995 24.1905 47.8032C24.0252 47.5311 24.0117 47.3583 24.0119 47.0407C24.0117 46.9892 24.0115 46.9377 24.0114 46.8847C24.0114 46.7763 24.0124 46.6679 24.0143 46.5596C24.0168 46.3941 24.0158 46.2288 24.0144 46.0632C24.0149 45.9576 24.0156 45.8521 24.0165 45.7465C24.0173 45.6509 24.0181 45.5553 24.019 45.4568C24.0647 45.1728 24.131 45.0873 24.3554 44.9141C24.5259 44.8289 24.6214 44.8313 24.8106 44.8327C24.8704 44.8329 24.9302 44.8331 24.9918 44.8334C25.0543 44.834 25.1168 44.8346 25.1811 44.8353C25.2442 44.8356 25.3072 44.8359 25.3722 44.8363C25.5281 44.8372 25.6839 44.8385 25.8398 44.8399C25.8381 44.7469 25.8364 44.6539 25.8346 44.5581C25.8332 44.4356 25.8319 44.313 25.8305 44.1905C25.8293 44.1293 25.8281 44.068 25.8268 44.005C25.8263 43.9456 25.8258 43.8863 25.8253 43.8252C25.8245 43.7708 25.8238 43.7164 25.823 43.6603C25.8428 43.4766 25.8895 43.3629 25.9883 43.2071C26.2666 43.0215 26.4008 43.0189 26.7304 43.0587Z" fill="#FEFEFE"/>
<path d="M28.4276 20.0161C28.5272 20.0639 28.6263 20.1127 28.7251 20.1622C28.7761 20.187 28.8272 20.2118 28.8799 20.2373C29.0049 20.2981 29.1294 20.3599 29.2539 20.422C29.2539 20.471 29.2539 20.52 29.2539 20.5704C29.1421 20.6398 29.0269 20.7038 28.9106 20.7652C28.3817 21.0719 28.0805 21.4941 27.8437 22.0548C27.7739 22.3381 27.7583 22.606 27.7542 22.8972C27.7528 22.9908 27.7513 23.0844 27.7498 23.1808C27.7485 23.2822 27.7472 23.3836 27.746 23.485C27.7445 23.5893 27.7429 23.6936 27.7413 23.7979C27.7372 24.0715 27.7336 24.3452 27.73 24.6189C27.7262 24.8985 27.7221 25.1781 27.718 25.4577C27.71 26.0057 27.7027 26.5537 27.6953 27.1017C26.9115 27.1017 26.1278 27.1017 25.3203 27.1017C25.3203 27.3221 25.3203 27.5425 25.3203 27.7696C25.2958 27.7696 25.2713 27.7696 25.2461 27.7696C25.2391 27.1367 25.2339 26.5037 25.2307 25.8707C25.2291 25.5767 25.227 25.2827 25.2237 24.9887C25.2204 24.7043 25.2186 24.4199 25.2179 24.1355C25.2173 24.0277 25.2163 23.9199 25.2147 23.8121C25.1975 22.6205 25.5072 21.66 26.3269 20.7792C26.8925 20.2375 27.6341 19.6717 28.4276 20.0161Z" fill="#E1A875"/>
<path d="M25.3203 27.1016C26.1041 27.1016 26.8878 27.1016 27.6953 27.1016C27.7068 27.3794 27.7068 27.3794 27.7185 27.6628C27.8129 29.4091 28.3879 30.9821 29.5508 32.2969C29.59 32.3422 29.6292 32.3876 29.6696 32.4343C30.2501 33.0605 31.0986 33.7118 31.9681 33.753C32.0528 33.7555 32.0528 33.7555 32.1392 33.7581C32.1973 33.7606 32.2555 33.7631 32.3154 33.7657C32.4576 33.7718 32.5999 33.7767 32.7422 33.7812C32.7422 33.8057 32.7422 33.8302 32.7422 33.8555C30.6715 33.9333 28.9205 33.4315 27.3521 32.0278C26.2696 31.0199 25.5635 29.6741 25.3203 28.2148C25.3203 27.8475 25.3203 27.4801 25.3203 27.1016Z" fill="#EBE8EA"/>
<path d="M31.4062 41.5742C31.5165 41.6477 31.5165 41.6477 31.6289 41.7227C31.8079 41.7462 31.8079 41.7462 32 41.7412C32.0964 41.7418 32.0964 41.7418 32.1948 41.7424C32.3908 41.7341 32.3908 41.7341 32.5938 41.5742C32.5938 44.6847 32.5938 47.7952 32.5938 51C32.2019 51 31.81 51 31.4062 51C31.4062 47.8895 31.4062 44.779 31.4062 41.5742Z" fill="#E5646E"/>
<path d="M28.957 33.1133C29.13 33.1822 29.303 33.251 29.4812 33.322C31.4035 34.0508 33.1643 33.8614 35.043 33.1133C35.043 33.5541 35.043 33.995 35.043 34.4492C33.1034 35.366 30.9434 35.178 28.957 34.5234C28.957 34.0581 28.957 33.5927 28.957 33.1133Z" fill="#D19A6E"/>
<path d="M28.8828 45.2852C28.9073 45.2852 28.9318 45.2852 28.957 45.2852C28.9644 45.5955 28.9698 45.9057 28.9733 46.2161C28.9748 46.3215 28.9769 46.427 28.9794 46.5324C28.983 46.6844 28.9847 46.8364 28.986 46.9884C28.9884 47.1254 28.9884 47.1254 28.9907 47.2652C28.9507 47.5581 28.8693 47.6776 28.6602 47.8828C28.4373 47.9571 28.2834 47.9681 28.0502 47.9713C27.9712 47.9725 27.8922 47.9737 27.8107 47.975C27.4501 47.9783 27.0894 47.9813 26.7288 47.983C26.5384 47.9842 26.3481 47.9863 26.1578 47.9891C25.8834 47.9932 25.6092 47.9948 25.3348 47.9959C25.2072 47.9984 25.2072 47.9984 25.0771 48.001C24.7296 48.0001 24.4956 47.9931 24.1876 47.8247C24.0586 47.5859 24.0586 47.5859 24.0586 46.6953C25.6506 46.6953 27.2426 46.6953 28.8828 46.6953C28.8828 46.23 28.8828 45.7646 28.8828 45.2852Z" fill="#ECE7EA"/>
<path d="M26.7305 43.0587C26.945 43.2103 27.0827 43.3262 27.1311 43.5925C27.1381 43.7823 27.134 43.9683 27.1248 44.158C27.1231 44.2236 27.1214 44.2892 27.1197 44.3568C27.1153 44.5179 27.1087 44.6789 27.1016 44.8399C27.5424 44.8399 27.9833 44.8399 28.4375 44.8399C28.4375 44.8644 28.4375 44.8889 28.4375 44.9141C27.9966 44.9141 27.5558 44.9141 27.1016 44.9141C27.0526 45.0366 27.0036 45.1591 26.9531 45.2852C26.7949 45.4435 26.6945 45.5 26.4753 45.545C26.1991 45.4911 26.0884 45.3509 25.9141 45.1368C25.9141 45.0633 25.9141 44.9898 25.9141 44.9141C25.4487 44.9141 24.9834 44.9141 24.5039 44.9141C24.5039 44.8896 24.5039 44.8652 24.5039 44.8399C24.9448 44.8399 25.3856 44.8399 25.8398 44.8399C25.834 44.4136 25.834 44.4136 25.8265 43.9873C25.8261 43.9338 25.8257 43.8803 25.8253 43.8252C25.8246 43.7708 25.8238 43.7164 25.823 43.6603C25.8428 43.4766 25.8895 43.3629 25.9883 43.2071C26.2666 43.0215 26.4008 43.0189 26.7305 43.0587Z" fill="#DDD5D8"/>
<path d="M35.3398 24.0586C35.6109 24.2662 35.6936 24.3812 35.7414 24.7187C35.7533 25.1382 35.7413 25.4178 35.4883 25.7656C35.2614 25.8791 35.0704 25.8571 34.8203 25.8399C34.5839 25.7092 34.5358 25.6544 34.4492 25.3945C34.3716 24.5543 34.3716 24.5543 34.6023 24.1839C34.8811 24.0237 35.0235 23.9965 35.3398 24.0586Z" fill="#714B49"/>
<path d="M28.9199 24.0076C29.1797 24.0586 29.1797 24.0586 29.3977 24.1838C29.6339 24.5632 29.6155 24.9589 29.5508 25.3945C29.3801 25.7396 29.3801 25.7396 29.1797 25.8398C28.7147 25.8829 28.7147 25.8829 28.4839 25.7007C28.208 25.3398 28.2393 24.9429 28.2891 24.5039C28.417 24.1919 28.5856 24.0732 28.9199 24.0076Z" fill="#714B49"/>
</g>
<defs>
<linearGradient id="paint0_linear_6_519" x1="98.4667" y1="21.1263" x2="-8.8357" y2="26.7315" gradientUnits="userSpaceOnUse">
<stop stop-color="#00ADEF"/>
<stop offset="1" stop-color="#D60F8C"/>
</linearGradient>
<clipPath id="clip0_6_519">
<rect width="38" height="38" fill="white" transform="translate(13 13)"/>
</clipPath>
</defs>
</svg>
