<svg width="64" height="64" viewBox="0 0 64 64" fill="none" xmlns="http://www.w3.org/2000/svg">
<circle cx="32" cy="32" r="32" fill="url(#paint0_linear_6_456)"/>
<circle cx="32" cy="32" r="28" fill="white"/>
<path d="M31.6289 15.5977C33.2059 16.8836 34.1389 18.5534 34.4147 20.5629C34.502 21.5527 34.4105 22.5681 34.1848 23.5345C34.1405 23.7328 34.1405 23.7328 34.1523 23.9102C34.2626 24.0611 34.3779 24.147 34.5313 24.2529C34.7855 24.4385 34.8917 24.6472 34.9687 24.9493C35.056 25.7978 34.9668 26.5542 34.4678 27.2686C33.9649 27.8837 33.3944 28.3256 32.5891 28.419C32.4927 28.4252 32.3962 28.4313 32.2969 28.4376C32.2891 28.4894 32.2814 28.5413 32.2734 28.5947C32.2148 28.8419 32.1222 29.038 32.0046 29.2633C31.9657 29.34 31.9268 29.4167 31.8866 29.4958C31.7818 29.679 31.679 29.7957 31.5216 29.94C31.0826 30.3488 30.8957 30.6471 30.8722 31.2379C30.8677 31.4722 30.8719 31.7056 30.8774 31.9398C30.8776 32.0612 30.8774 32.1826 30.8769 32.3041C30.8763 32.5987 30.8802 32.893 30.8867 33.1876C31.0027 33.1858 31.0027 33.1858 31.1211 33.1841C31.4137 33.18 31.7062 33.1774 31.9988 33.1754C32.1244 33.1742 32.25 33.1727 32.3756 33.1708C34.394 33.1403 36.0551 33.7141 37.6406 34.9688C37.6895 35.0061 37.7384 35.0435 37.7888 35.0819C39.0946 36.1254 40.0708 37.9897 40.2728 39.6275C40.2908 39.856 40.3049 40.0835 40.3125 40.3126C41.0059 40.259 41.6306 40.2054 42.168 39.7188C42.6434 39.1122 42.6244 38.4467 42.6285 37.7093C42.6292 37.6281 42.63 37.547 42.6307 37.4634C42.6331 37.1963 42.6349 36.9293 42.6368 36.6622C42.6383 36.4766 42.6398 36.291 42.6414 36.1054C42.6451 35.6675 42.6485 35.2296 42.6517 34.7917C42.6557 34.2439 42.6602 33.6961 42.6647 33.1483C42.6727 32.1718 42.6802 31.1953 42.6875 30.2188C42.632 30.2143 42.5766 30.2097 42.5195 30.205C42.4464 30.1987 42.3733 30.1924 42.2981 30.1859C42.2258 30.1798 42.1535 30.1737 42.079 30.1674C40.5451 29.999 39.1218 29.0301 38.1477 27.8754C36.9593 26.3019 36.6651 24.6726 36.6633 22.7494C36.6631 22.6568 36.6628 22.5642 36.6626 22.4688C36.6622 22.2747 36.662 22.0806 36.662 21.8865C36.6619 21.6889 36.6615 21.4913 36.6605 21.2937C36.6591 21.0058 36.6588 20.7179 36.6587 20.4301C36.6581 20.3424 36.6576 20.2547 36.6571 20.1644C36.6589 19.4909 36.6782 18.8825 37.1211 18.3438C37.471 17.9964 37.7665 17.7636 38.2752 17.7356C38.4134 17.7382 38.4134 17.7382 38.5544 17.7408C38.6475 17.7421 38.7406 17.7435 38.8365 17.7449C38.9072 17.7466 38.9779 17.7483 39.0508 17.7501C39.0439 17.6192 39.0439 17.6192 39.0369 17.4857C39.0375 17.1485 39.1085 16.9312 39.2734 16.6368C39.4597 16.4827 39.5505 16.4875 39.793 16.4976C40.0618 16.5761 40.1465 16.6339 40.3125 16.8595C40.3567 17.082 40.3541 17.3011 40.3519 17.5274C40.3522 17.5922 40.3525 17.657 40.3528 17.7237C40.353 17.8604 40.3524 17.9972 40.3512 18.1339C40.3496 18.3431 40.3512 18.5521 40.3531 18.7613C40.3529 18.8943 40.3525 19.0273 40.3519 19.1602C40.3525 19.2227 40.3531 19.2852 40.3537 19.3496C40.3468 19.7827 40.3468 19.7827 40.1709 20.0159C39.9553 20.1675 39.8191 20.1674 39.5631 20.1541C39.3426 20.1088 39.251 20.0096 39.125 19.8282C39.0068 19.5524 39.0459 19.2321 39.0508 18.9376C38.9177 18.9585 38.7847 18.9803 38.6518 19.0025C38.5778 19.0146 38.5037 19.0266 38.4274 19.0391C38.2238 19.0709 38.2238 19.0709 38.0859 19.2345C38.0065 19.4655 38.0019 19.6836 38.0009 19.9265C38.0005 20.0057 38 20.0848 37.9995 20.1663C37.9994 20.2517 37.9993 20.3371 37.9992 20.4251C37.999 20.514 37.9987 20.6028 37.9985 20.6944C37.9981 20.883 37.9979 21.0716 37.998 21.2602C37.9978 21.5447 37.9965 21.8292 37.995 22.1138C37.9908 23.8825 38.0422 25.4771 39.125 26.9532C39.1582 27 39.1914 27.0468 39.2256 27.095C39.9473 28.0241 41.2322 28.7187 42.3906 28.8829C43.8405 29.0141 45.1121 28.8295 46.3242 27.9923C46.4212 27.926 46.4212 27.926 46.5202 27.8583C47.5824 27.0731 48.2148 25.8547 48.4766 24.5782C48.5518 23.976 48.5627 23.3759 48.5632 22.7697C48.5635 22.6778 48.5637 22.586 48.564 22.4913C48.5644 22.2986 48.5645 22.1059 48.5645 21.9131C48.5647 21.6181 48.566 21.323 48.5674 21.0279C48.5677 20.84 48.5678 20.6522 48.5679 20.4643C48.5687 20.3322 48.5687 20.3322 48.5695 20.1974C48.5693 20.1154 48.569 20.0334 48.5688 19.9489C48.569 19.8411 48.569 19.8411 48.5691 19.7311C48.5491 19.5135 48.5005 19.3551 48.4023 19.1602C48.1237 19.001 47.8272 18.9747 47.5117 18.9376C47.5186 19.0685 47.5186 19.0685 47.5256 19.202C47.5262 19.5363 47.4453 19.7565 47.2891 20.0509C47.0568 20.167 46.7984 20.1768 46.5469 20.1251C46.3709 20.0022 46.2652 19.904 46.222 19.6886C46.2106 19.5118 46.2089 19.3374 46.2106 19.1602C46.2103 19.0955 46.21 19.0307 46.2097 18.964C46.2095 18.8272 46.21 18.6905 46.2113 18.5537C46.2129 18.3445 46.2113 18.1355 46.2094 17.9264C46.2096 17.7934 46.21 17.6604 46.2106 17.5274C46.21 17.465 46.2094 17.4025 46.2087 17.3381C46.2157 16.9059 46.2157 16.9059 46.3873 16.6736C46.5962 16.5282 46.7378 16.4936 46.9922 16.4884C47.2212 16.5821 47.3306 16.6581 47.4607 16.8687C47.5313 17.1642 47.5236 17.4479 47.5117 17.7501C47.5798 17.7466 47.6479 17.7432 47.7181 17.7396C48.725 17.71 48.725 17.71 49.1445 18.047C49.6478 18.5262 49.8633 18.9664 49.8966 19.6651C49.8969 19.7366 49.8972 19.808 49.8975 19.8816C49.8982 20.0044 49.8982 20.0044 49.8989 20.1296C49.899 20.2611 49.899 20.2611 49.8992 20.3953C49.8994 20.487 49.8997 20.5788 49.8999 20.6733C49.9003 20.8677 49.9005 21.0621 49.9005 21.2565C49.9005 21.5496 49.902 21.8428 49.9034 22.1359C49.9092 24.6689 49.6035 26.6739 47.7903 28.5344C46.7966 29.4716 45.3353 30.2188 43.9492 30.2188C43.9494 30.2818 43.9494 30.2818 43.9496 30.346C43.9529 31.3707 43.9554 32.3955 43.9569 33.4203C43.9577 33.9159 43.9587 34.4115 43.9604 34.9071C43.962 35.3859 43.9629 35.8647 43.9633 36.3435C43.9636 36.5256 43.9641 36.7078 43.9649 36.8899C43.9769 39.7158 43.9769 39.7158 43.0023 40.7547C42.3824 41.3195 41.7319 41.5277 40.9109 41.5094C40.853 41.5087 40.7952 41.508 40.7356 41.5073C40.5946 41.5056 40.4535 41.5029 40.3125 41.5001C40.3128 41.5411 40.313 41.5822 40.3133 41.6244C40.3199 42.623 40.3248 43.6215 40.3279 44.62C40.3294 45.1029 40.3315 45.5858 40.3349 46.0687C40.3381 46.5345 40.3399 47.0003 40.3407 47.4661C40.3412 47.6441 40.3423 47.822 40.3439 47.9999C40.346 48.2487 40.3463 48.4974 40.3462 48.7462C40.3473 48.8201 40.3483 48.894 40.3494 48.9701C40.349 49.0379 40.3486 49.1058 40.3482 49.1757C40.3485 49.2345 40.3487 49.2934 40.349 49.354C40.2972 49.5834 40.1969 49.6655 40.0156 49.8126C39.8154 49.8498 39.8154 49.8498 39.5812 49.8499C39.4918 49.8507 39.4025 49.8515 39.3104 49.8523C39.2112 49.8517 39.1119 49.851 39.0126 49.8503C38.9073 49.8506 38.8019 49.8511 38.6966 49.8517C38.4067 49.8529 38.1169 49.8523 37.827 49.8514C37.5146 49.8507 37.2021 49.8518 36.8896 49.8526C36.2774 49.8539 35.6651 49.8536 35.0529 49.8527C34.5554 49.8521 34.058 49.852 33.5605 49.8523C33.4898 49.8524 33.419 49.8524 33.3461 49.8524C33.2025 49.8525 33.0588 49.8526 32.9151 49.8527C31.567 49.8536 30.2189 49.8526 28.8708 49.851C27.7134 49.8497 26.556 49.8499 25.3986 49.8513C24.0554 49.8529 22.7122 49.8535 21.369 49.8526C21.2258 49.8525 21.0827 49.8524 20.9395 49.8523C20.8338 49.8522 20.8338 49.8522 20.726 49.8522C20.229 49.8519 19.732 49.8523 19.235 49.853C18.6295 49.8539 18.024 49.8537 17.4185 49.8521C17.1094 49.8513 16.8003 49.851 16.4912 49.852C16.2085 49.8529 15.9258 49.8524 15.6431 49.8508C15.5406 49.8505 15.4381 49.8506 15.3356 49.8513C15.1967 49.8522 15.0577 49.8511 14.9188 49.8499C14.8029 49.8499 14.8029 49.8499 14.6846 49.8498C14.4321 49.8029 14.3441 49.7154 14.1875 49.5157C14.1501 49.3309 14.1501 49.3309 14.1498 49.1194C14.1485 48.9988 14.1485 48.9988 14.1473 48.8758C14.1482 48.744 14.1482 48.744 14.1491 48.6095C14.1486 48.5167 14.148 48.4238 14.1475 48.3282C14.1464 48.0734 14.1467 47.8187 14.1476 47.5639C14.1484 47.2961 14.1477 47.0284 14.1472 46.7606C14.1467 46.31 14.1474 45.8593 14.1488 45.4087C14.1504 44.8907 14.1499 44.3728 14.1482 43.8548C14.1469 43.4083 14.1467 42.9619 14.1475 42.5154C14.1479 42.2496 14.148 41.9838 14.147 41.718C14.1397 39.4392 14.5407 37.5706 16.043 35.7852C16.0996 35.7102 16.1562 35.6352 16.2146 35.5579C17.3936 34.2693 19.1419 33.3933 20.8672 33.1876C21.0844 33.1784 21.3012 33.1789 21.5186 33.1803C21.5788 33.1804 21.6391 33.1805 21.7011 33.1807C21.8916 33.1811 22.0822 33.182 22.2727 33.1829C22.4026 33.1833 22.5326 33.1837 22.6625 33.184C22.9794 33.1848 23.2963 33.1861 23.6133 33.1876C23.6155 32.8271 23.6143 32.4668 23.6101 32.1063C23.6091 31.9838 23.6091 31.8614 23.61 31.739C23.6372 31.0453 23.6372 31.0453 23.4284 30.405C23.2989 30.2788 23.1659 30.1759 23.0195 30.0704C22.2031 28.9649 22.2031 28.9649 22.2031 28.4376C22.1082 28.433 22.0133 28.4284 21.9155 28.4237C21.1611 28.3351 20.5409 27.8879 20.0508 27.3243C19.5638 26.5381 19.4682 25.855 19.5312 24.9493C19.6048 24.6525 19.7045 24.4306 19.9713 24.2686C20.0205 24.2391 20.0697 24.2096 20.1204 24.1793C20.2671 24.0782 20.2671 24.0782 20.3476 23.9102C20.3283 23.5156 20.2411 23.141 20.1594 22.7553C19.7921 20.8224 20.2625 18.8443 21.3221 17.2094C22.2547 15.9164 23.452 15.0171 24.9492 14.4845C24.996 14.4678 25.0427 14.4511 25.0909 14.434C27.2788 13.6996 29.8185 14.2135 31.6289 15.5977Z" fill="#FE6B6B"/>
<path d="M31.6289 15.5977C33.2059 16.8836 34.1389 18.5534 34.4147 20.5629C34.502 21.5527 34.4105 22.5681 34.1848 23.5345C34.1405 23.7328 34.1405 23.7328 34.1523 23.9102C34.2626 24.0611 34.3779 24.147 34.5313 24.2529C34.7855 24.4385 34.8917 24.6472 34.9687 24.9493C35.056 25.7978 34.9668 26.5542 34.4678 27.2686C33.9649 27.8837 33.3944 28.3256 32.5891 28.419C32.4927 28.4252 32.3962 28.4313 32.2969 28.4376C32.2891 28.4894 32.2814 28.5413 32.2734 28.5947C32.2148 28.8419 32.1222 29.038 32.0046 29.2633C31.9657 29.34 31.9268 29.4167 31.8866 29.4958C31.7816 29.6789 31.6779 29.7969 31.5213 29.9421C31.0967 30.3405 30.8967 30.6281 30.8774 31.204C30.8744 31.4295 30.8797 31.6541 30.8867 31.8795C30.8895 32.1043 30.8905 32.329 30.8913 32.5538C30.8918 32.6081 30.8922 32.6623 30.8927 32.7182C30.8949 33.6804 30.7319 34.3834 30.0891 35.1167C29.2544 35.9245 28.1691 36.1876 27.0458 36.1835C26.198 36.1655 25.4921 35.8999 24.8008 35.4141C24.73 35.3652 24.73 35.3652 24.6578 35.3153C24.0371 34.8377 23.7428 34.2321 23.6387 33.4701C23.6108 33.1601 23.6022 32.8544 23.6008 32.5434C23.6005 32.4878 23.6002 32.4322 23.5998 32.3749C23.599 32.1452 23.5986 31.9156 23.6018 31.686C23.6318 31.0214 23.6318 31.0214 23.429 30.4092C23.2993 30.2824 23.1654 30.1777 23.0195 30.0704C22.2031 28.9649 22.2031 28.9649 22.2031 28.4376C22.1082 28.433 22.0133 28.4284 21.9155 28.4237C21.1611 28.3351 20.5409 27.8879 20.0508 27.3243C19.5638 26.5381 19.4682 25.855 19.5312 24.9493C19.6048 24.6525 19.7045 24.4306 19.9713 24.2686C20.0451 24.2244 20.0451 24.2244 20.1204 24.1793C20.2671 24.0782 20.2671 24.0782 20.3476 23.9102C20.3283 23.5156 20.2411 23.141 20.1594 22.7553C19.7921 20.8224 20.2625 18.8443 21.3221 17.2094C22.2547 15.9164 23.452 15.0171 24.9492 14.4845C24.996 14.4678 25.0427 14.4511 25.0909 14.434C27.2788 13.6996 29.8185 14.2135 31.6289 15.5977Z" fill="#FCD4A5"/>
<path d="M31.6289 15.5977C33.2059 16.8836 34.1389 18.5534 34.4147 20.5629C34.5105 21.648 34.3861 22.7741 34.1524 23.836C33.8749 23.9285 33.8226 23.868 33.5586 23.7618C33.3906 23.7409 33.2219 23.7257 33.053 23.7154C32.9668 23.7099 32.8806 23.7043 32.7918 23.6986C32.6938 23.6931 32.6938 23.6931 32.5938 23.6876C32.5918 23.6321 32.5899 23.5766 32.588 23.5194C32.5837 23.4463 32.5795 23.3732 32.5752 23.2979C32.5718 23.2256 32.5683 23.1533 32.5648 23.0788C32.5081 22.8188 32.4287 22.7397 32.2227 22.5743C32.0251 22.5317 32.0251 22.5317 31.8087 22.5395C31.7286 22.5385 31.6485 22.5374 31.566 22.5363C31.3988 22.5369 31.2316 22.5375 31.0644 22.5381C30.3892 22.5292 29.9009 22.3914 29.4024 21.9063C29.2086 21.6368 29.0522 21.3552 28.906 21.0575C28.8278 20.8586 28.8278 20.8586 28.6602 20.7931C28.4072 20.7656 28.2683 20.7553 28.0571 20.9044C27.9055 21.1066 27.8035 21.3112 27.6947 21.5384C27.4424 22.0362 27.0285 22.3239 26.5078 22.5001C26.3046 22.5188 26.3046 22.5188 26.0821 22.519C25.9983 22.5196 25.9146 22.5201 25.8284 22.5206C25.6939 22.5205 25.6939 22.5205 25.5566 22.5204C25.3664 22.5219 25.1761 22.5234 24.9859 22.525C24.6862 22.5269 24.3865 22.528 24.0868 22.5284C23.7974 22.5288 23.5081 22.5316 23.2187 22.5343C23.1289 22.5339 23.039 22.5335 22.9465 22.5332C22.863 22.5341 22.7795 22.5351 22.6935 22.5361C22.5834 22.5365 22.5834 22.5365 22.4712 22.5368C22.2227 22.5849 22.1347 22.6741 21.9805 22.8712C21.929 23.0962 21.929 23.0962 21.9248 23.335C21.9206 23.415 21.9164 23.495 21.9121 23.5774C21.9101 23.6383 21.9082 23.6991 21.9063 23.7618C21.8426 23.7601 21.779 23.7584 21.7135 23.7566C21.2529 23.7493 20.8555 23.7489 20.4219 23.9102C19.7728 22.2411 19.9475 20.1124 20.6348 18.4885C21.4334 16.6867 22.813 15.3161 24.6483 14.5938C24.7484 14.5567 24.8487 14.5202 24.9492 14.4845C24.996 14.4678 25.0427 14.4511 25.0909 14.434C27.2788 13.6996 29.8185 14.2135 31.6289 15.5977Z" fill="#33658A"/>
<path d="M40.0156 16.5625C40.1936 16.6858 40.2971 16.7817 40.3402 16.9989C40.3519 17.1757 40.3536 17.3501 40.3519 17.5273C40.3522 17.5921 40.3525 17.6569 40.3528 17.7236C40.353 17.8604 40.3524 17.9971 40.3512 18.1339C40.3496 18.343 40.3512 18.552 40.3531 18.7612C40.3529 18.8942 40.3525 19.0272 40.3519 19.1602C40.3525 19.2226 40.3531 19.2851 40.3537 19.3495C40.3468 19.7826 40.3468 19.7826 40.1709 20.0158C39.9553 20.1674 39.8191 20.1673 39.5631 20.154C39.3426 20.1087 39.251 20.0095 39.125 19.8281C39.0068 19.5523 39.0459 19.232 39.0508 18.9375C38.9177 18.9584 38.7847 18.9802 38.6518 19.0024C38.5778 19.0145 38.5037 19.0266 38.4274 19.039C38.2238 19.0708 38.2238 19.0708 38.0859 19.2344C38.0065 19.4654 38.0019 19.6835 38.0009 19.9265C38.0005 20.0056 38 20.0847 37.9995 20.1662C37.9994 20.2516 37.9993 20.3371 37.9992 20.4251C37.999 20.5139 37.9987 20.6027 37.9985 20.6943C37.9981 20.8829 37.9979 21.0715 37.998 21.2601C37.9978 21.5446 37.9964 21.8291 37.995 22.1137C37.9908 23.8824 38.0422 25.477 39.125 26.9531C39.1582 26.9999 39.1914 27.0467 39.2256 27.0949C39.9473 28.0241 41.2322 28.7186 42.3906 28.8828C43.8405 29.014 45.1121 28.8294 46.3242 27.9922C46.4212 27.9259 46.4212 27.9259 46.5202 27.8582C47.5824 27.073 48.2148 25.8546 48.4765 24.5781C48.5518 23.9759 48.5627 23.3758 48.5632 22.7696C48.5635 22.6778 48.5637 22.5859 48.564 22.4912C48.5644 22.2985 48.5645 22.1058 48.5645 21.9131C48.5647 21.618 48.566 21.3229 48.5674 21.0278C48.5677 20.8399 48.5678 20.6521 48.5679 20.4642C48.5687 20.3321 48.5687 20.3321 48.5695 20.1974C48.5693 20.1153 48.569 20.0333 48.5688 19.9488C48.569 19.841 48.569 19.841 48.5691 19.731C48.5491 19.5134 48.5005 19.355 48.4023 19.1602C48.1237 19.0009 47.8272 18.9746 47.5117 18.9375C47.5186 19.0684 47.5186 19.0684 47.5256 19.2019C47.5262 19.5362 47.4453 19.7564 47.289 20.0508C47.0568 20.1669 46.7984 20.1767 46.5469 20.125C46.3709 20.0021 46.2652 19.9039 46.222 19.6885C46.2106 19.5118 46.2089 19.3373 46.2106 19.1602C46.2103 19.0954 46.21 19.0306 46.2097 18.9639C46.2095 18.8271 46.21 18.6904 46.2113 18.5536C46.2129 18.3445 46.2113 18.1355 46.2094 17.9263C46.2096 17.7933 46.21 17.6603 46.2106 17.5273C46.21 17.4649 46.2094 17.4024 46.2087 17.338C46.2157 16.9059 46.2157 16.9059 46.3873 16.6735C46.5962 16.5282 46.7377 16.4935 46.9922 16.4883C47.2212 16.582 47.3306 16.658 47.4607 16.8687C47.5313 17.1641 47.5236 17.4478 47.5117 17.75C47.6139 17.7448 47.6139 17.7448 47.7181 17.7396C48.725 17.7099 48.725 17.7099 49.1445 18.0469C49.6477 18.5261 49.8633 18.9664 49.8966 19.665C49.8969 19.7365 49.8972 19.8079 49.8975 19.8815C49.8982 20.0043 49.8982 20.0043 49.8989 20.1295C49.899 20.261 49.899 20.261 49.8992 20.3952C49.8994 20.487 49.8997 20.5787 49.8999 20.6732C49.9003 20.8676 49.9005 21.062 49.9005 21.2564C49.9004 21.5496 49.902 21.8427 49.9034 22.1359C49.9092 24.6688 49.6035 26.6739 47.7903 28.5343C46.7966 29.4715 45.3353 30.2188 43.9492 30.2188C43.9493 30.2607 43.9495 30.3027 43.9496 30.3459C43.9529 31.3707 43.9554 32.3954 43.9569 33.4202C43.9577 33.9158 43.9587 34.4114 43.9604 34.907C43.962 35.3858 43.9629 35.8646 43.9633 36.3434C43.9636 36.5256 43.9641 36.7077 43.9649 36.8898C43.9769 39.7157 43.9769 39.7157 43.0023 40.7546C42.3193 41.3769 41.6322 41.5218 40.7385 41.5237C40.6559 41.5244 40.5733 41.5252 40.4882 41.5259C40.2164 41.5282 39.9445 41.5295 39.6726 41.5307C39.4837 41.5321 39.2947 41.5336 39.1058 41.5351C38.66 41.5385 38.2142 41.5413 37.7684 41.5437C37.2607 41.5466 36.7529 41.5503 36.2451 41.554C35.2012 41.5616 34.1572 41.5683 33.1133 41.5742C33.0879 41.6254 33.0626 41.6766 33.0365 41.7294C32.9865 41.83 32.9865 41.83 32.9356 41.9326C32.9026 41.9991 32.8696 42.0656 32.8356 42.1341C32.5467 42.698 32.0659 42.9915 31.4851 43.2178C30.7919 43.4114 30.2223 43.3011 29.5995 42.9623C29.2517 42.7394 29.0036 42.5368 28.7947 42.1772C28.7584 42.1162 28.7221 42.0552 28.6848 41.9923C28.3992 41.4279 28.3231 40.8131 28.4885 40.1965C28.5591 40.0272 28.6388 39.8753 28.7344 39.7188C28.7658 39.6669 28.7973 39.615 28.8297 39.5616C29.1887 39.0317 29.6783 38.7023 30.293 38.5312C31.0659 38.4359 31.7696 38.6002 32.3989 39.0693C32.7553 39.4427 33.021 39.8005 33.1133 40.3125C34.1178 40.3062 35.1224 40.2992 36.1269 40.2912C36.5934 40.2875 37.0598 40.284 37.5263 40.2812C37.9768 40.2784 38.4272 40.275 38.8776 40.2711C39.0492 40.2697 39.2208 40.2686 39.3924 40.2677C39.6333 40.2665 39.8742 40.2643 40.115 40.2619C40.1855 40.2618 40.256 40.2616 40.3286 40.2615C40.9953 40.2532 41.6545 40.1808 42.168 39.7188C42.6352 39.1008 42.6243 38.4532 42.6285 37.7092C42.6292 37.6281 42.63 37.5469 42.6307 37.4633C42.6331 37.1962 42.6349 36.9292 42.6368 36.6622C42.6383 36.4765 42.6398 36.2909 42.6414 36.1053C42.6451 35.6674 42.6485 35.2295 42.6517 34.7916C42.6557 34.2438 42.6602 33.696 42.6647 33.1482C42.6727 32.1717 42.6802 31.1952 42.6875 30.2188C42.632 30.2142 42.5766 30.2096 42.5195 30.2049C42.4464 30.1986 42.3733 30.1923 42.2981 30.1859C42.2258 30.1798 42.1535 30.1737 42.079 30.1674C40.5451 29.9989 39.1218 29.03 38.1477 27.8754C36.9593 26.3018 36.6651 24.6725 36.6633 22.7493C36.6629 22.6104 36.6629 22.6104 36.6626 22.4687C36.6622 22.2746 36.662 22.0806 36.662 21.8865C36.6619 21.6888 36.6615 21.4912 36.6605 21.2936C36.6591 21.0057 36.6588 20.7179 36.6587 20.43C36.6581 20.3423 36.6576 20.2546 36.657 20.1643C36.6589 19.4908 36.6782 18.8824 37.1211 18.3438C37.471 17.9963 37.7665 17.7635 38.2752 17.7355C38.3674 17.7372 38.4595 17.7389 38.5544 17.7407C38.6475 17.7421 38.7406 17.7434 38.8365 17.7448C38.9426 17.7474 38.9426 17.7474 39.0508 17.75C39.0462 17.6627 39.0416 17.5755 39.0369 17.4856C39.0375 17.1484 39.1085 16.9311 39.2734 16.6367C39.5151 16.4367 39.7246 16.4776 40.0156 16.5625Z" fill="#DBE9EE"/>
<path d="M42.6875 30.2188C43.0794 30.2188 43.4712 30.2188 43.875 30.2188C43.8819 31.3756 43.8872 32.5324 43.8904 33.6892C43.8919 34.2264 43.894 34.7636 43.8974 35.3008C43.9004 35.7693 43.9023 36.2378 43.9029 36.7064C43.9033 36.9542 43.9044 37.2019 43.9064 37.4498C43.9085 37.7272 43.9088 38.0047 43.9087 38.2822C43.9098 38.3632 43.9108 38.4442 43.9119 38.5277C43.9074 39.3794 43.649 40.0651 43.0586 40.6836C42.3766 41.3347 41.6317 41.5451 40.7048 41.5405C40.6222 41.5413 40.5395 41.5421 40.4544 41.5428C40.1841 41.545 39.9139 41.5451 39.6436 41.5452C39.4551 41.5463 39.2666 41.5476 39.0781 41.5489C38.6344 41.5518 38.1907 41.5535 37.7471 41.5544C37.2414 41.5556 36.7358 41.5585 36.2302 41.5615C35.1912 41.5676 34.1522 41.5716 33.1133 41.5742C33.0879 41.6254 33.0626 41.6766 33.0365 41.7294C33.0032 41.7964 32.9699 41.8635 32.9356 41.9326C32.9026 41.9991 32.8696 42.0656 32.8356 42.1341C32.5467 42.698 32.0659 42.9915 31.4851 43.2178C30.7919 43.4114 30.2223 43.3011 29.5995 42.9623C29.2517 42.7394 29.0036 42.5368 28.7947 42.1772C28.7403 42.0857 28.7403 42.0857 28.6848 41.9923C28.3992 41.4279 28.3231 40.8131 28.4885 40.1965C28.5591 40.0272 28.6388 39.8753 28.7344 39.7188C28.7658 39.6669 28.7973 39.615 28.8297 39.5616C29.1887 39.0317 29.6783 38.7023 30.293 38.5312C31.0659 38.4359 31.7696 38.6002 32.3989 39.0693C32.7553 39.4427 33.021 39.8005 33.1133 40.3125C34.1178 40.3062 35.1224 40.2992 36.1269 40.2912C36.5934 40.2875 37.0598 40.284 37.5263 40.2812C37.9768 40.2784 38.4272 40.275 38.8776 40.2711C39.0492 40.2697 39.2208 40.2686 39.3924 40.2677C39.6333 40.2665 39.8742 40.2643 40.115 40.2619C40.1855 40.2618 40.256 40.2616 40.3286 40.2615C40.9953 40.2532 41.6545 40.1808 42.168 39.7188C42.6352 39.1008 42.6243 38.4532 42.6285 37.7092C42.6292 37.6281 42.63 37.5469 42.6307 37.4633C42.6331 37.1962 42.6349 36.9292 42.6368 36.6622C42.6383 36.4765 42.6398 36.2909 42.6414 36.1053C42.6451 35.6674 42.6485 35.2295 42.6517 34.7916C42.6557 34.2438 42.6602 33.696 42.6647 33.1482C42.6727 32.1717 42.6802 31.1952 42.6875 30.2188Z" fill="#C8D4D8"/>
<path d="M23.6133 30.6641C23.8613 30.7594 24.0493 30.8508 24.2534 31.0212C25.2692 31.8026 26.5947 32.0074 27.8437 31.9258C28.7984 31.799 29.6174 31.4619 30.4136 30.9276C30.5681 30.8267 30.7212 30.7448 30.8867 30.6641C30.8904 31.0058 30.8931 31.3475 30.8949 31.6892C30.8956 31.805 30.8966 31.9208 30.8979 32.0366C30.9107 33.2088 30.8986 34.1931 30.0891 35.1166C29.2544 35.9244 28.1691 36.1876 27.0458 36.1834C26.198 36.1654 25.4921 35.8999 24.8008 35.4141C24.7536 35.3814 24.7064 35.3488 24.6578 35.3152C24.0374 34.8378 23.7421 34.2319 23.6387 33.4699C23.5906 32.9354 23.598 32.4016 23.604 31.8655C23.6047 31.7483 23.6054 31.6311 23.606 31.514C23.6076 31.2306 23.6102 30.9474 23.6133 30.6641Z" fill="#FDCD96"/>
<path d="M32.1484 38.9023C32.6195 39.1865 32.9874 39.7018 33.1411 40.229C33.293 41.0382 33.1489 41.671 32.7352 42.3816C32.3966 42.8448 31.7969 43.1301 31.2578 43.2812C30.4473 43.3907 29.8598 43.1643 29.2061 42.695C29.0249 42.5334 28.9162 42.3864 28.7947 42.1772C28.7584 42.1162 28.7221 42.0551 28.6848 41.9923C28.3992 41.4278 28.3231 40.813 28.4885 40.1965C28.5591 40.0271 28.6388 39.8753 28.7344 39.7187C28.7658 39.6669 28.7973 39.615 28.8297 39.5616C29.6165 38.4001 30.9688 38.26 32.1484 38.9023Z" fill="#DBE7EC"/>
<path d="M36.1562 46.25C37.5278 46.25 38.8994 46.25 40.3125 46.25C40.3186 46.7827 40.3247 47.3154 40.3311 47.8643C40.3338 48.032 40.3365 48.1998 40.3392 48.3727C40.3401 48.5059 40.3409 48.6391 40.3415 48.7723C40.343 48.8413 40.3445 48.9103 40.3461 48.9813C40.3461 49.0476 40.3462 49.1139 40.3462 49.1821C40.3469 49.2395 40.3475 49.2969 40.3482 49.3559C40.297 49.5848 40.2005 49.6719 40.0156 49.8125C39.8334 49.8482 39.8334 49.8482 39.6276 49.8462C39.5504 49.8462 39.4732 49.8462 39.3936 49.8461C39.2692 49.8438 39.2692 49.8438 39.1424 49.8415C39.0572 49.8411 38.9719 49.8407 38.8841 49.8402C38.6118 49.8386 38.3396 49.8348 38.0674 49.8311C37.8828 49.8296 37.6982 49.8282 37.5136 49.827C37.0611 49.824 36.6088 49.8182 36.1562 49.8125C36.1562 48.6369 36.1562 47.4612 36.1562 46.25Z" fill="#FDD4A5"/>
<path d="M14.1875 46.25C15.5591 46.25 16.9306 46.25 18.3438 46.25C18.3438 47.4256 18.3438 48.6012 18.3438 49.8125C17.7995 49.8193 17.2554 49.8252 16.7112 49.8288C16.526 49.8303 16.3408 49.8323 16.1557 49.8349C15.8896 49.8385 15.6237 49.8402 15.3576 49.8415C15.2747 49.843 15.1918 49.8446 15.1064 49.8461C14.9906 49.8462 14.9906 49.8462 14.8724 49.8462C14.8045 49.8469 14.7366 49.8475 14.6666 49.8482C14.4228 49.8004 14.3359 49.712 14.1875 49.5156C14.1518 49.3559 14.1518 49.3559 14.1538 49.1821C14.1538 49.1159 14.1539 49.0496 14.1539 48.9813C14.1554 48.9124 14.1569 48.8434 14.1585 48.7723C14.1588 48.7084 14.1591 48.6445 14.1594 48.5786C14.161 48.3405 14.1651 48.1024 14.1689 47.8643C14.1751 47.3316 14.1812 46.7988 14.1875 46.25Z" fill="#FDD4A5"/>
<path d="M32.5938 23.6875C32.7469 23.6841 32.9001 23.6817 33.0533 23.6797C33.1386 23.6782 33.2239 23.6768 33.3117 23.6753C33.8553 23.7022 34.2982 23.9732 34.6719 24.3555C35.0846 24.8608 35.0278 25.523 34.9688 26.1367C34.7915 26.9521 34.3026 27.5831 33.6328 28.0664C33.1976 28.322 32.7972 28.4058 32.2969 28.4375C32.3124 28.3733 32.3278 28.3091 32.3438 28.243C32.5486 27.2955 32.5606 26.361 32.5706 25.3946C32.573 25.2283 32.5756 25.0621 32.5782 24.8959C32.5845 24.4931 32.5896 24.0903 32.5938 23.6875Z" fill="#FCCD97"/>
<path d="M21.9062 23.7617C21.9067 23.8039 21.9071 23.846 21.9076 23.8894C21.9124 24.3339 21.9186 24.7782 21.9257 25.2226C21.9282 25.3878 21.9303 25.553 21.932 25.7181C21.9418 26.6483 21.9656 27.534 22.2031 28.4375C21.3883 28.3981 20.8109 28.0732 20.2192 27.5179C19.5566 26.756 19.4642 25.9131 19.5312 24.9492C19.6467 24.4831 19.9533 24.1695 20.3476 23.9101C20.7824 23.666 21.444 23.5306 21.9062 23.7617Z" fill="#FCCD97"/>
<path d="M31.1836 39.7187C31.512 39.8829 31.7176 40.0859 31.9258 40.3867C32.0265 40.6888 32.0389 40.9614 32 41.2773C31.8357 41.5998 31.645 41.8358 31.332 42.0195C30.9663 42.1103 30.6706 42.1162 30.3069 42.0148C29.971 41.8107 29.7542 41.6315 29.6522 41.25C29.5925 40.8318 29.6231 40.5334 29.8477 40.164C30.2613 39.7404 30.6053 39.6546 31.1836 39.7187Z" fill="#C8D4D9"/>
<path d="M47.2148 16.5625C47.5218 16.8695 47.5242 17.2094 47.5268 17.6213C47.5272 17.6741 47.5276 17.727 47.5281 17.7814C47.5288 17.8932 47.5293 18.005 47.5295 18.1168C47.5303 18.2865 47.5326 18.4562 47.5349 18.6259C47.5354 18.7348 47.5358 18.8437 47.5361 18.9526C47.537 19.0028 47.5379 19.053 47.5388 19.1047C47.5371 19.4767 47.4583 19.7264 47.2891 20.0508C47.0568 20.167 46.7984 20.1768 46.5469 20.125C46.3709 20.0021 46.2652 19.9039 46.222 19.6886C46.2106 19.5118 46.2089 19.3373 46.2106 19.1602C46.2103 19.0954 46.21 19.0307 46.2097 18.9639C46.2095 18.8272 46.21 18.6904 46.2113 18.5537C46.2129 18.3445 46.2113 18.1355 46.2094 17.9263C46.2096 17.7933 46.21 17.6604 46.2106 17.5274C46.21 17.4649 46.2094 17.4024 46.2087 17.3381C46.2157 16.9044 46.2157 16.9044 46.3916 16.6739C46.6903 16.4597 46.8546 16.4804 47.2148 16.5625Z" fill="#C8D4D8"/>
<path d="M40.0156 16.5624C40.1944 16.6855 40.297 16.7812 40.3402 16.9988C40.3519 17.1756 40.3536 17.3501 40.3519 17.5273C40.3522 17.592 40.3525 17.6568 40.3528 17.7236C40.353 17.8603 40.3524 17.997 40.3512 18.1338C40.3496 18.343 40.3512 18.552 40.3531 18.7612C40.3529 18.8941 40.3525 19.0271 40.3519 19.1601C40.3525 19.2226 40.3531 19.285 40.3537 19.3494C40.3468 19.7826 40.3468 19.7826 40.1709 20.0158C40.0028 20.1339 39.922 20.1652 39.7187 20.162C39.6453 20.1632 39.6453 20.1632 39.5703 20.1644C39.3437 20.1042 39.2667 20.0158 39.125 19.8281C39.0804 19.6056 39.0834 19.3864 39.0856 19.1601C39.0853 19.0953 39.085 19.0306 39.0847 18.9638C39.0845 18.8271 39.085 18.6903 39.0863 18.5536C39.0879 18.3444 39.0863 18.1354 39.0844 17.9262C39.0846 17.7932 39.085 17.6603 39.0856 17.5273C39.085 17.4648 39.0844 17.4023 39.0837 17.338C39.0907 16.9043 39.0907 16.9043 39.2666 16.6738C39.5472 16.4726 39.6789 16.4749 40.0156 16.5624Z" fill="#C8D4D9"/>
<defs>
<linearGradient id="paint0_linear_6_456" x1="98.4667" y1="21.1263" x2="-8.8357" y2="26.7315" gradientUnits="userSpaceOnUse">
<stop stop-color="#00ADEF"/>
<stop offset="1" stop-color="#D60F8C"/>
</linearGradient>
</defs>
</svg>
