<svg width="132" height="132" viewBox="0 0 132 132" fill="none" xmlns="http://www.w3.org/2000/svg">
<circle cx="66" cy="66" r="66" fill="url(#paint0_linear_270_3655)"/>
<circle cx="66" cy="66" r="57.75" fill="white"/>
<g clip-path="url(#clip0_270_3655)">
<path d="M65.9524 26.9537C66.0998 26.9539 66.2471 26.9542 66.399 26.9545C68.5825 26.9614 70.7071 27.0389 72.8555 27.4583C73.0604 27.4951 73.0604 27.4951 73.2696 27.5326C77.8966 28.3699 82.2893 30.1019 86.3254 32.5011C86.4364 32.5669 86.5474 32.6327 86.6618 32.7005C87.0234 32.9427 87.0234 32.9427 87.4189 33.2889C89.0037 34.6008 90.662 34.6016 92.6601 34.5994C92.8268 34.6011 92.9934 34.6029 93.1651 34.6047C95.0734 34.6084 96.7133 34.5532 98.1335 33.1665C98.7084 32.5186 99.2239 31.8588 99.668 31.1145C100.262 31.3125 100.464 31.6743 100.801 32.1714C100.862 32.2609 100.923 32.3505 100.986 32.4427C102.241 34.3337 102.686 36.475 102.311 38.7163C102.008 40.1618 101.503 41.5424 100.491 42.6555C100.041 43.3759 100.267 44.3382 100.325 45.1587C100.335 45.3128 100.335 45.3128 100.346 45.47C100.469 47.1802 100.71 48.777 101.801 50.1575C102.293 50.4923 102.753 50.6229 103.324 50.7669C104.21 51.3349 104.683 52.062 105 53.052C105.207 54.4128 104.954 55.3989 104.238 56.556C104.049 56.9338 104.102 57.0545 104.194 57.4605C104.234 57.6467 104.234 57.6467 104.274 57.8366C104.331 58.0906 104.387 58.3445 104.444 58.5983C104.965 61.0352 105.057 63.4706 105.048 65.9537C105.047 66.1747 105.047 66.1747 105.047 66.4003C105.04 68.5838 104.962 70.7083 104.543 72.8567C104.518 72.9934 104.494 73.13 104.469 73.2708C103.424 79.0425 101.033 84.463 97.5351 89.1575C97.4087 89.331 97.2824 89.5046 97.1561 89.6782C96.1588 91.0183 95.0389 92.2239 93.8789 93.4231C93.7975 93.5079 93.716 93.5927 93.6321 93.68C92.6083 94.7424 91.5392 95.7133 90.375 96.6224C90.2287 96.7408 90.0824 96.8592 89.9316 96.9812C83.8482 101.819 75.7962 104.97 67.987 105.038C67.8449 105.039 67.7028 105.041 67.5564 105.042C64.4002 105.068 61.3322 105.048 58.2305 104.392C58.0717 104.358 57.913 104.325 57.7495 104.291C47.596 102.076 38.725 95.8599 33.0434 87.1718C32.6342 86.5245 32.2504 85.8639 31.875 85.1966C31.8234 85.1062 31.7719 85.0159 31.7188 84.9228C29.6001 81.1888 28.2246 77.0707 27.457 72.8567C27.4321 72.7294 27.4071 72.6021 27.3814 72.471C26.5902 68.3266 26.6798 63.6402 27.4004 59.4897C27.4639 59.1042 27.5189 58.719 27.5665 58.3311C27.5819 58.2093 27.5973 58.0876 27.6132 57.9621C27.6088 57.5716 27.5153 57.3721 27.3142 57.0415C26.8353 56.2189 26.8858 55.3462 27 54.4231C27.2981 53.4284 27.9227 52.7523 28.771 52.1665C29.1328 51.9856 29.1328 51.9856 29.5898 51.9856C29.6118 51.8694 29.6338 51.7531 29.6565 51.6333C29.7422 51.2239 29.7422 51.2239 29.8945 50.7669C29.9118 50.5255 29.9216 50.2835 29.9267 50.0415C30.0544 45.4249 31.1493 41.3794 34.5086 38.0565C36.3742 36.2956 38.7814 35.0076 41.3133 34.5769C42.9658 34.2937 44.057 33.6649 45.4142 32.7064C49.1019 30.1938 53.5326 28.6363 57.8591 27.6963C58.0236 27.6606 58.1881 27.6248 58.3575 27.5879C60.8814 27.073 63.3823 26.9436 65.9524 26.9537Z" fill="#F5C9AD"/>
<path d="M99.6678 31.1133C100.262 31.3112 100.464 31.673 100.801 32.1702C100.862 32.2597 100.923 32.3492 100.986 32.4414C102.241 34.3324 102.686 36.4737 102.311 38.715C102.008 40.1605 101.503 41.5411 100.491 42.6543C100.04 43.3747 100.267 44.3369 100.325 45.1575C100.335 45.3115 100.335 45.3115 100.346 45.4687C100.469 47.179 100.71 48.7757 101.801 50.1562C102.293 50.4911 102.753 50.6216 103.324 50.7656C104.209 51.3337 104.682 52.0607 105 53.0508C105.207 54.4115 104.954 55.3977 104.238 56.5547C104.049 56.9326 104.102 57.0532 104.193 57.4592C104.233 57.6454 104.233 57.6454 104.274 57.8353C104.331 58.0893 104.387 58.3432 104.444 58.597C104.965 61.0339 105.057 63.4693 105.047 65.9524C105.047 66.1735 105.047 66.1735 105.047 66.399C105.04 68.5825 104.962 70.7071 104.543 72.8555C104.518 72.9921 104.494 73.1288 104.468 73.2696C103.904 76.3884 102.899 79.3927 101.648 82.3008C101.598 82.3008 101.548 82.3008 101.496 82.3008C101.494 82.1097 101.493 81.9186 101.492 81.7217C101.485 81.0019 101.475 80.2822 101.464 79.5624C101.46 79.2529 101.457 78.9434 101.455 78.6339C101.428 75.0732 100.737 71.9728 98.1443 69.3516C96.8086 68.1697 95.3037 67.3732 93.6621 66.7004C93.0448 66.4248 92.4826 66.0966 91.9078 65.7429C91.8036 65.6796 91.6994 65.6163 91.5921 65.551C91.3383 65.3966 91.085 65.2414 90.8318 65.0859C90.8389 65.2442 90.846 65.4025 90.8533 65.5656C90.9027 67.1312 90.8401 68.4186 89.7369 69.6372C88.9957 70.3145 88.1373 70.6346 87.1756 70.875C87.6783 71.1766 88.1811 71.4783 88.699 71.7891C88.3893 72.5634 87.9961 73.1817 87.5356 73.8719C87.0377 75.0876 87.6518 76.5185 87.9754 77.7305C88.0234 77.913 88.0714 78.0956 88.1208 78.2836C88.4087 79.3704 88.7121 80.451 89.0381 81.5269C89.3192 82.4637 89.5521 83.4108 89.7826 84.3613C90.0231 85.3427 90.3008 86.3093 90.6132 87.2704C90.9101 88.2225 90.9101 88.2225 90.6795 88.6992C90.4464 89.0284 90.2101 89.3393 89.9559 89.6514C89.8826 89.7425 89.8094 89.8337 89.7339 89.9276C89.5755 90.1244 89.4167 90.3209 89.2575 90.5171C88.9915 90.8472 88.7296 91.1803 88.4681 91.514C88.2913 91.7374 88.1143 91.9608 87.9373 92.1841C87.8533 92.2919 87.7693 92.3998 87.6828 92.5109C87.6034 92.6101 87.524 92.7092 87.4422 92.8113C87.3723 92.8999 87.3024 92.9884 87.2303 93.0796C87.0233 93.2695 87.0233 93.2695 86.5662 93.2695C86.2921 92.9648 86.0485 92.6641 85.8045 92.3364C85.6556 92.1414 85.5066 91.9464 85.3576 91.7514C85.281 91.6503 85.2045 91.5492 85.1256 91.4451C84.7457 90.9469 84.3558 90.4567 83.9669 89.9656C82.9043 88.6226 82.9043 88.6226 82.9457 88.0738C83.0787 87.3969 83.2345 86.73 83.4051 86.0618C83.439 85.9277 83.4729 85.7936 83.5078 85.6554C83.7521 84.6968 84.0103 83.7428 84.2785 82.7907C84.6157 81.593 84.9351 80.3907 85.2558 79.1886C85.5492 78.095 85.8558 77.0067 86.1973 75.927C86.4148 75.2192 86.5341 74.6759 86.252 73.979C86.1092 73.6172 86.1092 73.6172 86.2615 73.1602C86.3086 72.6047 86.3392 72.0492 86.371 71.4927C86.4139 71.0273 86.4139 71.0273 86.5662 70.875C86.3918 70.7053 86.3918 70.7053 86.2139 70.5322C85.3475 69.6456 85.3475 69.6456 85.3475 69.1992C84.915 68.979 84.4778 68.7757 84.0335 68.5803C83.7063 68.4363 83.3821 68.2927 83.0623 68.1328C82.9248 67.7204 82.8919 67.4872 82.8951 67.0646C82.8956 66.9492 82.8961 66.8339 82.8966 66.715C82.8979 66.5953 82.8991 66.4756 82.9005 66.3523C82.9011 66.2308 82.9018 66.1094 82.9025 65.9842C82.9043 65.6848 82.9071 65.3854 82.91 65.0859C82.7717 65.0639 82.6335 65.0419 82.491 65.0193C81.9959 64.9336 81.9959 64.9336 81.7036 64.853C81.3568 64.7745 81.0492 64.764 80.6938 64.7664C80.5778 64.7668 80.4618 64.7671 80.3423 64.7675C80.1967 64.7689 80.0512 64.7703 79.9012 64.7717C79.4362 64.7749 78.9711 64.778 78.492 64.7812C78.492 63.2228 78.492 61.6643 78.492 60.0586C77.939 60.0083 77.386 59.958 76.8162 59.9062C76.5191 59.8631 76.2225 59.8159 75.9273 59.7611C75.7724 59.7327 75.6175 59.7043 75.458 59.6751C75.2943 59.6443 75.1306 59.6135 74.962 59.5818C74.7846 59.5491 74.6072 59.5164 74.4244 59.4826C73.9419 59.3934 73.4595 59.3036 72.9772 59.2134C72.4662 59.1179 71.9551 59.0233 71.4439 58.9286C70.583 58.7689 69.7222 58.6086 68.8615 58.4479C67.8791 58.2645 66.8965 58.082 65.9138 57.8999C64.9569 57.7227 64.0001 57.5448 63.0434 57.3668C62.6423 57.2921 62.2411 57.2176 61.84 57.1432C61.6497 57.1079 61.4594 57.0726 61.2633 57.0362C61.0986 57.0057 60.9338 56.9751 60.7641 56.9437C58.3371 56.4874 55.9276 55.989 53.5076 55.4883C53.5076 58.555 53.5076 61.6216 53.5076 64.7812C52.5524 64.7812 51.5972 64.7812 50.6131 64.7812C50.6017 63.76 50.5935 62.7388 50.588 61.7175C50.5857 61.371 50.5826 61.0246 50.5786 60.6781C50.5456 57.7309 50.729 55.3786 52.1365 52.7461C52.2147 52.5988 52.2929 52.4515 52.3734 52.2998C54.0814 49.3682 57.0233 47.5075 60.2405 46.6357C61.9109 46.2263 63.6005 46.2615 65.3104 46.2766C65.8566 46.281 66.4025 46.2797 66.9487 46.2777C69.1592 46.2798 71.2083 46.3758 73.3123 47.1094C73.3145 46.9729 73.3168 46.8364 73.319 46.6957C73.3285 46.1783 73.3398 45.661 73.3523 45.1437C73.3573 44.9219 73.3616 44.7 73.3651 44.4781C73.4106 41.6731 73.8492 38.9991 75.8784 36.8958C77.7345 35.2112 79.832 34.3815 82.3225 34.467C82.6293 34.4745 82.9361 34.4819 83.2428 34.4892C83.4037 34.4935 83.5646 34.4978 83.7303 34.5022C84.7739 34.5273 85.8179 34.5347 86.8617 34.546C87.7744 34.5569 88.6862 34.5734 89.5984 34.6022C94.0126 34.9634 94.0126 34.9634 97.9264 33.3694C98.6202 32.7048 99.1875 31.9445 99.6678 31.1133Z" fill="#D2A388"/>
<path d="M38.2734 67.6758C38.324 67.9185 38.324 67.9185 38.3756 68.1661C38.5036 68.7797 38.6321 69.3933 38.7606 70.0069C38.8157 70.2699 38.8707 70.533 38.9255 70.7961C39.2249 72.2323 39.5336 73.665 39.8743 75.092C40.0614 75.8776 40.2388 76.6649 40.4116 77.4537C40.4371 77.5699 40.4626 77.686 40.4889 77.8057C40.5925 78.2781 40.6959 78.7506 40.7986 79.2232C41.2132 81.9559 41.2132 81.9559 42.8163 84.0045C43.5263 84.4068 44.1652 84.5952 44.9765 84.4336C45.3092 84.3004 45.6152 84.1488 45.9269 83.9724C46.1953 83.8242 46.1953 83.8242 46.6523 83.6719C46.8281 83.3289 46.8281 83.3289 46.957 82.9101C47.0053 82.7685 47.0536 82.6268 47.1033 82.4809C47.5548 81.0458 47.8626 79.5975 48.1585 78.1238C48.196 77.9418 48.2335 77.7597 48.2722 77.5722C48.305 77.4085 48.3378 77.2447 48.3716 77.0761C48.4804 76.6641 48.4804 76.6641 48.7851 76.207C49.1333 76.1731 49.1333 76.1731 49.5564 76.1975C50.3591 76.2424 51.0584 76.0956 51.832 75.9023C51.9151 76.0698 51.9981 76.2374 52.0837 76.4099C52.7921 77.8093 53.5286 78.9924 54.5742 80.168C54.6665 80.2913 54.7588 80.4146 54.8539 80.5417C55.2631 81.0233 55.7208 81.3852 56.2214 81.7676C56.3114 81.8377 56.4015 81.9078 56.4943 81.98C56.5843 82.0497 56.6743 82.1194 56.7671 82.1913C56.8567 82.2613 56.9462 82.3314 57.0385 82.4036C57.3133 82.6116 57.3133 82.6116 57.6201 82.7749C57.9249 82.9517 58.1511 83.101 58.3828 83.3672C58.5105 83.8721 58.4845 84.3454 58.4494 84.862C58.4446 84.9967 58.4398 85.1313 58.4349 85.27C58.4223 85.6008 58.4032 85.9313 58.3828 86.2617C58.4833 86.2617 58.5839 86.2617 58.6875 86.2617C59.8036 89.6817 60.8085 93.1331 61.7409 96.6074C61.9602 97.4182 62.208 98.2116 62.4842 99.005C62.7268 99.7593 62.9347 100.522 63.1435 101.287C63.1848 101.437 63.226 101.587 63.2685 101.742C63.3066 101.883 63.3447 102.023 63.3839 102.169C63.4184 102.296 63.4528 102.423 63.4882 102.554C63.5625 102.867 63.5625 102.867 63.5625 103.172C63.663 103.172 63.7636 103.172 63.8672 103.172C63.889 102.938 63.889 102.938 63.9112 102.699C64.036 101.704 64.2949 100.736 64.5337 99.7632C64.58 99.5707 64.6264 99.3783 64.6741 99.18C64.8777 98.3431 65.0866 97.5183 65.3585 96.7008C65.5861 95.9454 65.6102 95.3623 65.231 94.6421C65.0329 94.3172 64.8248 94.0024 64.6098 93.6885C64.4652 93.476 64.3219 93.2626 64.1802 93.0481C64.0847 92.9087 64.0847 92.9087 63.9873 92.7665C63.8672 92.5078 63.8672 92.5078 64.0195 92.0508C64.3688 91.8008 64.3688 91.8008 64.8098 91.5557C64.9533 91.4732 65.0969 91.3907 65.2448 91.3057C65.7897 91.1013 66.054 91.1278 66.6093 91.289C67.0319 91.5039 67.0319 91.5039 67.4282 91.7556C67.5613 91.8391 67.6945 91.9225 67.8317 92.0085C67.931 92.0727 68.0304 92.1369 68.1328 92.2031C67.9701 92.6741 67.7661 93.0771 67.4931 93.4909C67.4315 93.5854 67.3699 93.6798 67.3065 93.7771C67.1787 93.9711 67.0486 94.1636 66.9161 94.3544C66.4936 95.0144 66.3863 95.4627 66.5203 96.2362C66.7011 97.018 66.9057 97.7911 67.1235 98.5635C68.1328 102.181 68.1328 102.181 68.1328 103.02C68.2333 103.02 68.3339 103.02 68.4375 103.02C68.4634 102.889 68.4893 102.758 68.516 102.623C68.733 101.564 68.988 100.534 69.317 99.5037C69.5661 98.7188 69.7897 97.9264 70.018 97.1352C70.3493 95.9908 70.6915 94.8513 71.0559 93.717C71.3802 92.7072 71.6647 91.693 71.9307 90.666C72.3269 89.1808 72.823 87.7183 73.3125 86.2617C74.6148 86.5886 75.8628 87.0157 77.1211 87.4805C77.1211 87.6815 77.1211 87.8826 77.1211 88.0898C77.4203 88.3954 77.4203 88.3954 77.8161 88.6706C80.2371 90.5314 82.0134 93.2464 82.4531 96.3164C82.5093 97.0535 82.5351 97.7869 82.543 98.5259C82.5466 98.7552 82.5528 98.9845 82.5618 99.2137C82.6347 101.092 82.6347 101.092 82.2363 101.644C81.9097 101.862 81.6068 101.982 81.2343 102.105C81.1037 102.161 80.9731 102.216 80.8385 102.272C80.3939 102.457 79.9457 102.621 79.4919 102.781C79.3254 102.841 79.1588 102.9 78.9872 102.96C77.2238 103.569 75.4444 104.021 73.6172 104.391C73.4672 104.423 73.3172 104.455 73.1627 104.488C68.3879 105.478 62.9936 105.398 58.2304 104.391C58.0717 104.357 57.913 104.324 57.7495 104.289C47.596 102.075 38.725 95.8586 33.0434 87.1705C30.306 82.8405 30.306 82.8405 30.3004 80.8547C30.2993 80.7293 30.2983 80.6039 30.2973 80.4748C30.2957 80.2092 30.295 79.9436 30.2951 79.678C30.2944 79.2795 30.2889 78.8812 30.2831 78.4827C30.2606 75.1665 31.2258 72.3799 33.5531 69.9443C34.6698 68.8772 36.6855 67.308 38.2734 67.6758Z" fill="#66B9EC"/>
<path d="M65.9523 26.9537C66.0997 26.9539 66.2471 26.9542 66.3989 26.9545C68.5825 26.9614 70.707 27.0389 72.8554 27.4583C73.0604 27.4951 73.0604 27.4951 73.2695 27.5326C78.859 28.544 84.4848 30.8251 89.0039 34.3138C89.0039 34.364 89.0039 34.4143 89.0039 34.4661C88.9049 34.467 88.8059 34.4679 88.7038 34.4688C87.6657 34.4786 86.6276 34.4915 85.5895 34.5061C85.203 34.5111 84.8165 34.5154 84.43 34.5189C83.8717 34.524 83.3136 34.532 82.7554 34.5405C82.4996 34.542 82.4996 34.542 82.2387 34.5434C79.9768 34.5849 77.8099 35.2371 76.1272 36.8161C73.8846 39.2071 73.5593 42.0103 73.4888 45.1404C73.4534 45.7995 73.3817 46.4544 73.3125 47.1106C73.1185 47.0676 72.9244 47.0247 72.7246 46.9804C70.5936 46.5355 68.5348 46.4014 66.3606 46.4135C65.8279 46.4156 65.2955 46.4103 64.7628 46.4046C61.0717 46.3918 57.4987 47.089 54.7265 49.7005C54.5232 49.9288 54.3201 50.1573 54.1171 50.386C53.6802 50.8309 53.4122 51.003 52.7841 51.024C50.1726 50.7924 47.7059 49.677 45.8834 47.7879C44.9648 46.6377 44.1926 45.2309 43.8911 43.7876C43.8655 43.6673 43.84 43.5469 43.8137 43.4229C43.786 43.2876 43.786 43.2876 43.7578 43.1497C43.7187 43.242 43.6796 43.3343 43.6393 43.4294C42.6922 45.5023 41.1286 46.8979 39.025 47.7147C36.9292 48.4542 34.8617 48.3177 32.789 47.5677C32.3433 47.3419 31.9742 47.1028 31.5703 46.806C31.3898 47.8387 31.367 48.8732 31.3322 49.9195C31.3256 50.1036 31.3191 50.2877 31.3123 50.4774C31.2962 50.9293 31.2807 51.3813 31.2656 51.8333C30.9137 51.8333 30.5617 51.8333 30.1992 51.8333C29.6058 47.7369 30.2494 43.426 32.7597 40.0407C34.8966 37.2853 37.8236 35.1705 41.3133 34.5769C42.9658 34.2937 44.057 33.6649 45.4142 32.7064C49.1018 30.1938 53.5326 28.6363 57.8591 27.6963C58.0236 27.6606 58.188 27.6248 58.3575 27.5879C60.8814 27.073 63.3823 26.9436 65.9523 26.9537Z" fill="#FEE052"/>
<path d="M43.7577 42.9961C43.9791 43.3756 44.0785 43.6845 44.1672 44.1196C44.6945 46.2937 46.0698 48.097 47.9228 49.3142C49.6 50.2772 51.4383 50.7582 53.3554 50.918C53.2705 51.0656 53.1857 51.2133 53.0983 51.3655C53.0146 51.5125 53.0146 51.5125 52.9293 51.6624C52.8078 51.8759 52.6856 52.0889 52.5627 52.3016C51.1431 54.7948 50.6993 57.0774 50.6876 59.9057C50.685 60.1449 50.6822 60.3841 50.6793 60.6234C50.6721 61.2447 50.6676 61.866 50.6635 62.4874C50.659 63.1248 50.6519 63.7621 50.645 64.3995C50.632 65.6439 50.6217 66.8883 50.6132 68.1328C50.5126 68.1328 50.4121 68.1328 50.3085 68.1328C50.2883 68.2815 50.2681 68.4301 50.2472 68.5833C50.2203 68.7771 50.1934 68.971 50.1657 69.1707C50.1392 69.3633 50.1127 69.556 50.0854 69.7544C50.0038 70.2656 50.0038 70.2656 49.8515 70.7227C49.5481 70.8282 49.2433 70.9295 48.9374 71.0273C48.5086 71.3083 48.4789 71.4902 48.3471 71.9985C48.3254 72.6271 48.3623 72.8501 48.7851 73.3125C49.137 73.413 49.4889 73.5136 49.8515 73.6172C50.1531 74.9746 50.1531 74.9746 50.4609 76.3594C49.9078 76.3594 49.3548 76.3594 48.7851 76.3594C48.3416 77.7448 48.0566 79.145 47.7835 80.5726C47.2547 83.1742 47.2547 83.1742 46.3328 83.9358C45.5209 84.4683 44.7366 84.7293 43.7577 84.5859C42.923 84.303 42.1006 83.9127 41.6406 83.1312C41.4261 82.6545 41.3028 82.1667 41.181 81.6605C41.1548 81.5536 41.1286 81.4468 41.1017 81.3367C40.8402 80.2536 40.6152 79.1636 40.3964 78.0713C40.2821 77.501 40.1657 76.931 40.0491 76.3612C40.0267 76.2515 40.0043 76.1419 39.9812 76.0289C39.8095 75.1935 39.622 74.3639 39.4216 73.535C39.2438 72.7963 39.0755 72.0559 38.9137 71.3136C38.8895 71.2031 38.8653 71.0926 38.8404 70.9788C38.7655 70.6364 38.6908 70.2939 38.6161 69.9514C38.5916 69.8389 38.5671 69.7265 38.5418 69.6106C38.4013 68.9657 38.261 68.3208 38.121 67.6758C35.8589 68.0139 33.8268 69.5476 32.4712 71.3439C32.1233 71.875 31.815 72.4159 31.5226 72.9792C31.473 73.0729 31.4234 73.1666 31.3722 73.2631C30.4521 75.1314 30.4264 77.1144 30.3991 79.1492C30.394 79.4117 30.3888 79.6742 30.3833 79.9368C30.3705 80.5724 30.3603 81.208 30.3515 81.8438C27.5638 79.0561 26.9886 71.6182 26.969 67.8597C26.9679 67.7224 26.9669 67.5851 26.9658 67.4437C26.9632 67.0037 26.9623 66.5638 26.9618 66.1238C26.9615 65.974 26.9612 65.8243 26.9609 65.67C26.9599 63.5757 27.0415 61.5556 27.4004 59.4885C27.4638 59.1029 27.5188 58.7177 27.5664 58.3298C27.5896 58.1472 27.5896 58.1472 27.6132 57.9609C27.6087 57.5703 27.5153 57.3708 27.3141 57.0403C26.8352 56.2176 26.8857 55.345 26.9999 54.4219C27.298 53.4271 27.9227 52.751 28.7709 52.1653C29.1327 51.9844 29.1327 51.9844 29.5898 51.9844C29.6086 51.8713 29.6275 51.7581 29.6469 51.6416C29.7352 51.2529 29.8544 50.9596 30.0468 50.6133C30.0971 50.6133 30.1473 50.6133 30.1991 50.6133C30.1991 51.0155 30.1991 51.4177 30.1991 51.832C30.551 51.832 30.903 51.832 31.2655 51.832C31.2643 51.6616 31.2643 51.6616 31.2631 51.4878C31.2599 50.9678 31.258 50.4478 31.256 49.9277C31.2547 49.749 31.2535 49.5703 31.2522 49.3862C31.2495 48.4595 31.2739 47.5683 31.4179 46.6523C31.5286 46.713 31.6394 46.7737 31.7535 46.8362C33.9347 47.9855 36.1492 48.4276 38.5667 47.7336C41.0924 46.8318 42.6161 45.3995 43.7577 42.9961Z" fill="#F5C9AD"/>
<path d="M99.6678 31.1133C100.262 31.3112 100.464 31.673 100.801 32.1702C100.862 32.2597 100.923 32.3492 100.986 32.4414C102.241 34.3324 102.686 36.4737 102.311 38.715C102.009 40.1561 101.511 41.5768 100.47 42.6622C100.171 43.1804 100.272 43.6877 100.325 44.2625C100.429 45.7075 100.444 47.1469 100.439 48.5947C100.439 48.7561 100.439 48.7561 100.438 48.9208C100.436 49.5358 100.433 50.1507 100.43 50.7656C100.093 50.8904 99.757 51.014 99.4202 51.137C99.2329 51.2059 99.0455 51.2748 98.8525 51.3458C98.3583 51.5072 97.8967 51.6109 97.3826 51.6797C97.0916 50.4803 96.9192 49.2744 96.7542 48.052C96.7263 47.8506 96.6983 47.6491 96.6703 47.4477C96.4686 45.9711 96.4686 45.9711 96.4686 45.2812C96.3511 45.3303 96.2337 45.3794 96.1127 45.43C94.349 45.9227 92.0056 45.8139 90.3748 44.9766C89.6577 44.572 88.9636 44.1567 88.3595 43.5937C87.8352 43.2299 87.5339 43.2223 86.8999 43.2176C86.7987 43.216 86.6976 43.2145 86.5934 43.2128C86.2611 43.2084 85.9291 43.2081 85.5968 43.2079C85.3656 43.2057 85.1345 43.2031 84.9033 43.2003C84.2965 43.1937 83.6897 43.1906 83.0828 43.1883C82.4629 43.1853 81.8431 43.1789 81.2232 43.1728C80.0081 43.1614 78.7931 43.1537 77.5779 43.1484C77.558 43.3132 77.5381 43.478 77.5175 43.6478C77.4906 43.8676 77.4637 44.0873 77.4367 44.3071C77.4237 44.4153 77.4106 44.5235 77.3972 44.635C77.318 45.2777 77.2198 45.9117 77.0953 46.5476C76.7408 48.065 76.7408 48.065 77.0441 49.5201C77.3839 49.8137 77.3839 49.8137 77.7797 50.0485C78.9044 50.766 79.6086 52.1534 80.2154 53.3174C80.2631 53.406 80.3109 53.4947 80.36 53.5861C81.5427 55.9747 81.463 58.4511 81.4246 61.0488C81.4216 61.412 81.4188 61.7752 81.4163 62.1384C81.4096 63.0194 81.3992 63.9003 81.3865 64.7812C80.4313 64.7812 79.4761 64.7812 78.492 64.7812C78.492 63.2228 78.492 61.6643 78.492 60.0586C77.939 60.0083 77.386 59.958 76.8162 59.9062C76.5191 59.8631 76.2225 59.8159 75.9273 59.7611C75.7724 59.7327 75.6175 59.7043 75.458 59.6751C75.2943 59.6443 75.1306 59.6135 74.962 59.5818C74.7846 59.5491 74.6072 59.5164 74.4244 59.4826C73.9419 59.3934 73.4595 59.3036 72.9772 59.2134C72.4662 59.1179 71.9551 59.0233 71.4439 58.9286C70.583 58.7689 69.7222 58.6086 68.8615 58.4479C67.8791 58.2645 66.8965 58.082 65.9138 57.8999C64.9569 57.7227 64.0001 57.5448 63.0434 57.3668C62.6423 57.2921 62.2411 57.2176 61.84 57.1432C61.6497 57.1079 61.4594 57.0726 61.2633 57.0362C61.0986 57.0057 60.9338 56.9751 60.7641 56.9437C58.3371 56.4874 55.9276 55.989 53.5076 55.4883C53.5076 58.555 53.5076 61.6216 53.5076 64.7812C52.5524 64.7812 51.5972 64.7812 50.6131 64.7812C50.6017 63.76 50.5935 62.7388 50.588 61.7175C50.5857 61.371 50.5826 61.0246 50.5786 60.6781C50.5456 57.7309 50.729 55.3786 52.1365 52.7461C52.2147 52.5988 52.2929 52.4515 52.3734 52.2998C54.0814 49.3682 57.0233 47.5075 60.2405 46.6357C61.9109 46.2263 63.6005 46.2615 65.3104 46.2766C65.8566 46.281 66.4025 46.2797 66.9487 46.2777C69.1592 46.2798 71.2083 46.3758 73.3123 47.1094C73.3145 46.9729 73.3168 46.8364 73.319 46.6957C73.3285 46.1783 73.3398 45.661 73.3523 45.1437C73.3573 44.9219 73.3616 44.7 73.3651 44.4781C73.4106 41.6731 73.8492 38.9991 75.8784 36.8958C77.7345 35.2112 79.832 34.3815 82.3225 34.467C82.6293 34.4745 82.9361 34.4819 83.2428 34.4892C83.4037 34.4935 83.5646 34.4978 83.7303 34.5022C84.7739 34.5273 85.8179 34.5347 86.8617 34.546C87.7744 34.5569 88.6862 34.5734 89.5984 34.6022C94.0126 34.9634 94.0126 34.9634 97.9264 33.3694C98.6202 32.7048 99.1875 31.9445 99.6678 31.1133Z" fill="#3D4159"/>
<path d="M90.832 65.0859C91.3603 65.2825 91.8149 65.5152 92.2888 65.8191C92.8493 66.1628 93.401 66.4341 94.0122 66.676C97.0324 67.8942 99.3859 69.9725 100.742 72.9477C101.535 74.9509 101.636 76.9104 101.639 79.0444C101.64 79.2784 101.64 79.2784 101.641 79.5171C101.636 81.7909 101.49 83.6258 100.063 85.4851C99.8116 85.8162 99.5911 86.1565 99.3716 86.5093C97.7945 89.0227 95.9479 91.3007 93.8789 93.4219C93.7578 93.5477 93.7578 93.5477 93.6342 93.6761C92.6096 94.7395 91.5402 95.7113 90.375 96.6211C90.2287 96.7395 90.0824 96.8579 89.9317 96.9799C88.0502 98.4761 86.0096 99.727 83.8909 100.858C83.7666 100.925 83.6424 100.992 83.5144 101.061C83.3996 101.121 83.2849 101.18 83.1666 101.242C83.0654 101.295 82.9641 101.348 82.8598 101.403C82.7759 101.433 82.692 101.464 82.6055 101.496C82.5049 101.446 82.4044 101.396 82.3008 101.344C82.304 101.203 82.3072 101.063 82.3105 100.919C82.321 100.386 82.3285 99.8538 82.3343 99.3214C82.3373 99.0931 82.3414 98.8649 82.3468 98.6367C82.4258 95.1733 81.2849 92.3675 78.9724 89.7519C78.3643 89.1189 77.6836 88.5968 76.9688 88.0898C77.019 87.8888 77.0693 87.6877 77.1211 87.4805C77.0213 87.4545 76.9216 87.4286 76.8188 87.4019C75.8611 87.1476 74.924 86.8563 73.9879 86.5313C73.6336 86.3988 73.6336 86.3988 73.3125 86.4141C73.288 86.506 73.2635 86.598 73.2383 86.6927C72.4306 89.7148 72.4306 89.7148 72.0938 90.6797C71.7965 91.5318 71.5654 92.3983 71.332 93.2695C71.0607 94.2824 70.773 95.2785 70.4275 96.2688C70.1965 96.989 70.0043 97.7188 69.8086 98.4492C69.5244 99.5099 69.2263 100.556 68.866 101.593C68.7041 102.064 68.5685 102.539 68.4375 103.02C68.337 103.02 68.2364 103.02 68.1328 103.02C68.0741 102.782 68.0741 102.782 68.0142 102.54C67.8672 101.947 67.7197 101.353 67.5721 100.76C67.5086 100.504 67.4452 100.249 67.382 99.9933C67.2904 99.6233 67.1984 99.2534 67.1063 98.8836C67.0766 98.764 67.047 98.6443 67.0164 98.521C66.8588 97.8928 66.6838 97.2777 66.479 96.6628C66.2544 95.9217 66.2506 95.3468 66.6142 94.6397C66.8092 94.3119 67.0152 93.9952 67.2283 93.679C67.3703 93.4641 67.5117 93.2489 67.6526 93.0333C67.7154 92.9395 67.7783 92.8458 67.843 92.7492C68.0056 92.51 68.0056 92.51 67.9805 92.2031C67.7221 92.0445 67.4614 91.8897 67.1997 91.7366C67.0548 91.65 66.9098 91.5634 66.7605 91.4741C66.212 91.2514 65.9546 91.2794 65.3906 91.4414C65.001 91.6154 65.001 91.6154 64.6479 91.8318C64.5289 91.9011 64.4099 91.9704 64.2873 92.0419C64.199 92.0951 64.1106 92.1483 64.0195 92.2031C64.1822 92.6741 64.3862 93.0772 64.6593 93.4909C64.7208 93.5854 64.7824 93.6798 64.8458 93.7771C64.9736 93.9711 65.1037 94.1636 65.2362 94.3544C65.6648 95.0239 65.7619 95.4763 65.6259 96.2606C65.4771 96.9073 65.3086 97.5452 65.124 98.1826C64.6584 99.8355 64.2538 101.499 63.8672 103.172C63.7666 103.172 63.6661 103.172 63.5625 103.172C62.6845 100.453 62.6845 100.453 62.3438 99.1348C62.1257 98.2931 61.8774 97.4672 61.6106 96.6401C61.2054 95.3803 60.8422 94.1113 60.4901 92.8357C60.2291 91.8923 59.9617 90.9512 59.6861 90.012C59.6388 89.8505 59.6388 89.8505 59.5905 89.6857C59.4649 89.2575 59.3393 88.8294 59.2125 88.4015C59.1245 88.1046 59.0372 87.8074 58.9499 87.5102C58.8993 87.339 58.8486 87.1678 58.7964 86.9914C58.6875 86.5664 58.6875 86.5664 58.6875 86.1094C59.0836 85.8797 59.4804 85.6514 59.8777 85.4238C59.9901 85.3584 60.1025 85.293 60.2184 85.2257C60.3269 85.1638 60.4354 85.1019 60.5472 85.0382C60.6469 84.9808 60.7466 84.9233 60.8494 84.8641C61.125 84.7383 61.125 84.7383 61.582 84.7383C61.5826 85.0199 61.5826 85.0199 61.5832 85.3072C61.6123 87.0173 61.7119 88.5144 62.9817 89.7978C64.2025 90.8082 65.3638 90.9476 66.9141 90.832C67.9937 90.651 68.7863 90.1285 69.5039 89.3086C69.9716 88.5718 70.2727 87.8309 70.3138 86.955C70.3202 86.8259 70.3266 86.6968 70.3332 86.5637C70.3392 86.4295 70.3451 86.2953 70.3513 86.157C70.3612 85.953 70.3612 85.953 70.3713 85.7449C70.3874 85.4094 70.403 85.0738 70.418 84.7383C71.1491 84.8582 71.6183 85.1184 72.2461 85.5C72.2316 85.4105 72.2172 85.321 72.2022 85.2289C72.1652 84.8342 72.1622 84.5172 72.2461 84.1289C72.6001 83.7464 73.0316 83.5427 73.4934 83.3101C73.7471 83.1687 74 83.0261 74.2522 82.8822C74.3775 82.8111 74.5029 82.7401 74.632 82.6668C77.0786 81.1991 79.192 78.5812 80.168 75.9023C80.3596 75.9526 80.5513 76.0029 80.7488 76.0547C82.1026 76.3454 83.1807 76.3523 84.4092 75.6631C85.0543 75.2361 85.5152 74.702 85.957 74.0742C86.1581 74.1748 86.3592 74.2753 86.5664 74.3789C86.4626 75.216 86.2885 76.0183 86.0808 76.8354C86.0306 77.035 86.0306 77.035 85.9793 77.2386C85.7075 78.3043 85.4079 79.3607 85.1004 80.4165C84.7252 81.7141 84.3888 83.0211 84.0582 84.3307C83.8411 85.1831 83.6034 86.0173 83.3255 86.8521C83.1005 87.5791 82.9641 88.1078 83.2148 88.8516C83.4988 89.2944 83.4988 89.2944 83.8813 89.699C84.0195 89.8558 84.1574 90.0129 84.2949 90.1703C84.4033 90.2931 84.4033 90.2931 84.5139 90.4184C84.9824 90.9639 85.4158 91.5378 85.8552 92.1068C86.1744 92.5174 86.4891 92.9153 86.8711 93.2695C87.8608 92.1199 88.8194 90.9552 89.7365 89.7466C90.0703 89.3086 90.0703 89.3086 90.4375 88.9563C90.7116 88.493 90.7012 88.4238 90.5922 87.9226C90.5219 87.6731 90.4494 87.4241 90.375 87.1758C90.3061 86.897 90.2386 86.6179 90.1721 86.3385C90.0972 86.0367 90.022 85.735 89.9465 85.4333C89.8861 85.192 89.8861 85.192 89.8245 84.9457C89.5031 83.6699 89.1576 82.4023 88.7999 81.1363C88.5672 80.3067 88.3414 79.4752 88.1166 78.6435C87.9449 78.0083 87.7715 77.3741 87.5864 76.7426C87.5569 76.6397 87.5275 76.5369 87.4972 76.4309C87.4202 76.1625 87.3412 75.8946 87.2621 75.6268C87.078 74.5899 87.3744 73.8839 87.947 73.0364C88.3789 72.4588 88.3789 72.4588 88.5469 71.7891C88.2039 71.5519 88.2039 71.5519 87.7852 71.3225C87.5291 71.1771 87.2746 71.0288 87.0234 70.875C87.0234 70.8247 87.0234 70.7745 87.0234 70.7227C87.1285 70.7038 87.2336 70.685 87.3418 70.6655C88.6418 70.3802 89.5523 69.849 90.2851 68.7142C90.8196 67.5783 90.8014 66.3187 90.832 65.0859Z" fill="#DCE7EC"/>
<path d="M58.6876 86.2617C59.8036 89.6817 60.8086 93.1331 61.741 96.6074C61.9603 97.4182 62.2081 98.2117 62.4842 99.005C62.7269 99.7593 62.9348 100.522 63.1436 101.287C63.2055 101.512 63.2055 101.512 63.2686 101.742C63.3067 101.883 63.3448 102.023 63.384 102.169C63.4357 102.359 63.4357 102.359 63.4883 102.554C63.5626 102.867 63.5626 102.867 63.5626 103.172C63.6631 103.172 63.7637 103.172 63.8672 103.172C63.8818 103.016 63.8963 102.86 63.9113 102.699C64.0361 101.704 64.2949 100.736 64.5337 99.7632C64.5801 99.5707 64.6264 99.3783 64.6742 99.18C64.8778 98.3431 65.0867 97.5183 65.3585 96.7008C65.5862 95.9454 65.6102 95.3623 65.231 94.6421C65.033 94.3172 64.8249 94.0024 64.6099 93.6885C64.4653 93.476 64.322 93.2626 64.1803 93.0482C64.1166 92.9552 64.053 92.8623 63.9874 92.7665C63.8672 92.5078 63.8672 92.5078 64.0196 92.0508C64.3689 91.8008 64.3689 91.8008 64.8099 91.5557C64.9534 91.4732 65.097 91.3907 65.2449 91.3057C65.7898 91.1013 66.0541 91.1278 66.6094 91.2891C67.0319 91.5039 67.0319 91.5039 67.4283 91.7556C67.5614 91.8391 67.6946 91.9225 67.8318 92.0085C67.9808 92.1049 67.9808 92.1049 68.1329 92.2031C67.9702 92.6741 67.7662 93.0772 67.4931 93.4909C67.4316 93.5854 67.37 93.6798 67.3066 93.7771C67.1788 93.9711 67.0487 94.1636 66.9162 94.3544C66.4936 95.0144 66.3864 95.4627 66.5204 96.2362C66.7012 97.0181 66.9058 97.7912 67.1236 98.5635C68.1329 102.181 68.1329 102.181 68.1329 103.02C68.2334 103.02 68.334 103.02 68.4376 103.02C68.4635 102.889 68.4894 102.758 68.5161 102.623C68.7331 101.564 68.9881 100.534 69.3171 99.5037C69.5662 98.7188 69.7898 97.9264 70.0181 97.1353C70.3493 95.9908 70.6916 94.8514 71.056 93.717C71.3803 92.7072 71.6648 91.693 71.9308 90.666C72.327 89.1808 72.8231 87.7183 73.3126 86.2617C74.6149 86.5886 75.8629 87.0157 77.1212 87.4805C77.1212 87.6816 77.1212 87.8827 77.1212 88.0898C77.4203 88.3954 77.4203 88.3954 77.8162 88.6707C80.2372 90.5314 82.0135 93.2464 82.4532 96.3164C82.5094 97.0535 82.5352 97.7869 82.5431 98.5259C82.5467 98.7552 82.5529 98.9845 82.5619 99.2137C82.6348 101.092 82.6348 101.092 82.2364 101.644C81.9098 101.862 81.6069 101.982 81.2344 102.105C81.1038 102.161 80.9731 102.216 80.8385 102.272C80.394 102.457 79.9458 102.621 79.492 102.781C79.3254 102.841 79.1589 102.9 78.9873 102.96C77.2238 103.569 75.4445 104.021 73.6172 104.391C73.4673 104.423 73.3173 104.455 73.1628 104.488C68.388 105.478 62.9937 105.398 58.2305 104.391C58.0718 104.357 57.9131 104.324 57.7495 104.289C51.0258 102.823 51.0258 102.823 49.5469 101.344C49.5132 100.723 49.5186 100.102 49.5187 99.48C49.5184 99.1704 49.5156 98.8609 49.5127 98.5513C49.5076 95.106 50.5474 92.138 52.9638 89.6423C54.3694 88.2422 54.3694 88.2422 54.879 88.2422C54.879 87.9405 54.879 87.6389 54.879 87.3281C55.4277 87.1493 55.9769 86.972 56.5262 86.7949C56.6822 86.7441 56.8382 86.6932 56.999 86.6408C57.1487 86.5927 57.2985 86.5446 57.4527 86.495C57.5908 86.4503 57.7288 86.4056 57.871 86.3596C58.2305 86.2617 58.2305 86.2617 58.6876 86.2617Z" fill="#2A3050"/>
<path d="M52.9781 37.1984C53.1026 37.3014 53.2271 37.4043 53.3554 37.5103C53.4831 37.6132 53.6107 37.7161 53.7422 37.8221C56.5895 40.2375 58.0753 43.634 58.6875 47.2603C58.5292 47.3341 58.3709 47.408 58.2078 47.484C56.6147 48.2431 55.3008 49.0494 54.1171 50.3833C53.6802 50.8282 53.4122 51.0003 52.7841 51.0213C50.1726 50.7897 47.7059 49.6743 45.8834 47.7851C44.9648 46.635 44.1926 45.2282 43.8911 43.7849C43.8655 43.6646 43.84 43.5442 43.8137 43.4201C43.7952 43.33 43.7768 43.2399 43.7578 43.147C43.7187 43.2393 43.6796 43.3316 43.6393 43.4267C42.6922 45.4996 41.1286 46.8952 39.025 47.712C36.9292 48.4515 34.8617 48.315 32.789 47.565C32.3433 47.3392 31.9742 47.1001 31.5703 46.8032C31.3898 47.836 31.367 48.8705 31.3322 49.9168C31.3256 50.1009 31.3191 50.285 31.3123 50.4747C31.2962 50.9266 31.2807 51.3786 31.2656 51.8306C30.9137 51.8306 30.5617 51.8306 30.1992 51.8306C29.6058 47.7342 30.2494 43.4232 32.7597 40.038C35.0793 37.047 38.3893 34.832 42.2069 34.3445C46.0516 33.957 49.8939 34.7944 52.9781 37.1984Z" fill="#CB7A3B"/>
<path d="M31.4179 46.6523C31.5251 46.7113 31.6323 46.7702 31.7428 46.8309C31.8932 46.9102 32.0437 46.9895 32.1986 47.0713C32.3436 47.1491 32.4885 47.2268 32.6378 47.3069C33.5022 47.7162 34.4587 47.9276 35.3788 48.1758C35.3804 48.2596 35.382 48.3435 35.3836 48.4299C35.4001 49.3048 35.4176 50.1797 35.4355 51.0545C35.4421 51.3808 35.4485 51.7071 35.4546 52.0333C35.4634 52.503 35.4731 52.9727 35.483 53.4424C35.4855 53.5876 35.4881 53.7328 35.4907 53.8825C35.5062 54.5848 35.5422 55.2543 35.6835 55.9453C35.8406 55.8448 35.9977 55.7442 36.1596 55.6406C36.6908 55.3424 37.0473 55.2178 37.664 55.3359C38.2727 55.715 38.5317 55.9354 38.7304 56.6309C38.7304 57.2836 38.602 57.6515 38.2543 58.1924C37.7258 58.5447 37.0698 58.5352 36.4452 58.5352C37.1388 59.9186 37.839 61.1857 38.8827 62.3438C38.9685 62.4402 39.0544 62.5366 39.1428 62.6359C40.86 64.4577 43.568 65.9115 46.0429 66.3047C46.7137 66.3068 47.3606 66.2536 48.0234 66.1523C48.0234 66.5545 48.0234 66.9567 48.0234 67.3711C47.6584 67.4698 47.2934 67.5681 46.9284 67.6663C46.8258 67.694 46.7232 67.7218 46.6174 67.7505C45.6644 68.0062 44.8522 68.1516 43.8625 68.1423C43.6714 68.141 43.4803 68.1396 43.2834 68.1382C43.0658 68.1355 43.0658 68.1355 42.8437 68.1328C43.2708 69.2789 43.8396 70.3755 44.967 70.9512C45.0706 70.9763 45.1743 71.0014 45.2812 71.0273C45.2309 71.1279 45.1806 71.2284 45.1288 71.332C43.8821 71.4387 42.9683 71.2938 41.9296 70.5703C41.2055 69.9272 40.6354 69.1052 40.5223 68.1231C40.5138 67.7982 40.5184 67.4769 40.5299 67.1521C40.532 67.0407 40.5341 66.9292 40.5362 66.8144C40.5415 66.5429 40.5497 66.2714 40.5585 66C40.4091 66.0866 40.2596 66.1732 40.1056 66.2624C39.0617 66.8615 38.0209 67.4325 36.9213 67.9233C35.9688 68.3538 35.1325 68.8552 34.3124 69.5039C34.1971 69.5907 34.0819 69.6775 33.9631 69.7669C32.013 71.3445 30.9378 73.7818 30.5038 76.207C30.4601 76.6628 30.4477 77.1163 30.4407 77.574C30.4378 77.6971 30.4348 77.8203 30.4318 77.9472C30.4228 78.3352 30.4157 78.7231 30.4086 79.1111C30.4028 79.3764 30.3968 79.6417 30.3908 79.907C30.3762 80.5526 30.3634 81.1981 30.3515 81.8438C27.5638 79.0561 26.9886 71.6182 26.969 67.8597C26.9679 67.7224 26.9669 67.5851 26.9658 67.4437C26.9632 67.0037 26.9623 66.5638 26.9618 66.1238C26.9615 65.974 26.9612 65.8243 26.9609 65.67C26.9599 63.5757 27.0415 61.5556 27.4004 59.4885C27.4638 59.1029 27.5188 58.7177 27.5664 58.3298C27.5896 58.1472 27.5896 58.1472 27.6132 57.9609C27.6087 57.5703 27.5153 57.3708 27.3141 57.0403C26.8352 56.2176 26.8857 55.345 26.9999 54.4219C27.298 53.4271 27.9227 52.751 28.7709 52.1653C29.1327 51.9844 29.1327 51.9844 29.5898 51.9844C29.6086 51.8713 29.6275 51.7581 29.6469 51.6416C29.7352 51.2529 29.8544 50.9596 30.0468 50.6133C30.0971 50.6133 30.1473 50.6133 30.1991 50.6133C30.1991 51.0155 30.1991 51.4177 30.1991 51.832C30.551 51.832 30.903 51.832 31.2655 51.832C31.2643 51.6616 31.2643 51.6616 31.2631 51.4878C31.2599 50.9678 31.258 50.4478 31.256 49.9277C31.2547 49.749 31.2535 49.5703 31.2522 49.3862C31.2495 48.4595 31.2739 47.5683 31.4179 46.6523Z" fill="#E9B498"/>
<path d="M53.508 55.4883C54.394 55.5867 55.2216 55.6932 56.0883 55.8691C56.2845 55.9084 56.4807 55.9477 56.6828 55.9882C57.1643 56.0977 57.1643 56.0977 57.4689 56.25C57.2982 56.8242 57.0768 57.3434 56.812 57.8782C56.4485 58.6655 56.2058 59.461 55.9836 60.2966C55.9515 60.4153 55.9194 60.5339 55.8864 60.6562C55.5225 62.0785 55.4646 63.4965 55.4629 64.9592C55.4624 65.1173 55.4619 65.2754 55.4613 65.4383C55.4606 65.7711 55.4602 66.1038 55.4602 66.4365C55.4599 66.9386 55.4571 67.4406 55.4543 67.9427C55.4403 73.103 56.5566 77.3107 60.2111 81.082C62.3006 83.1803 65.5835 84.9974 68.599 85.0513C68.9605 85.018 69.3019 84.9673 69.6564 84.8906C69.8653 84.8491 69.8653 84.8491 70.0784 84.8067C70.1905 84.7841 70.3026 84.7615 70.4182 84.7383C70.5423 88.1272 70.5423 88.1272 69.3041 89.6609C68.4868 90.5395 67.6447 90.9363 66.4441 91.0153C64.886 91.0375 63.7956 90.688 62.6486 89.6133C62.3491 89.2275 62.1042 88.8316 61.8869 88.3945C61.8304 88.2873 61.7738 88.1801 61.7155 88.0696C61.5191 87.4259 61.5502 86.8065 61.5632 86.1379C61.5646 86.0033 61.5659 85.8687 61.5673 85.73C61.5709 85.3994 61.5764 85.0688 61.5822 84.7383C61.2424 84.9061 60.9029 85.0744 60.5634 85.2429C60.4681 85.29 60.3727 85.337 60.2745 85.3854C59.8451 85.599 59.4274 85.8181 59.018 86.0683C58.6877 86.2617 58.6877 86.2617 58.383 86.2617C58.3968 86.0704 58.4105 85.8792 58.4247 85.6821C58.5078 84.3222 58.5078 84.3222 58.0313 83.0953C57.4576 82.5696 56.7775 82.2142 56.0978 81.8438C54.2535 80.5344 52.697 78.2793 51.8322 76.207C51.8322 76.1065 51.8322 76.0059 51.8322 75.9023C51.694 75.9526 51.5557 76.0029 51.4133 76.0547C50.9182 76.207 50.9182 76.207 50.3088 76.207C50.2315 75.9185 50.1556 75.6296 50.0803 75.3406C50.0379 75.1797 49.9954 75.0189 49.9517 74.8532C49.861 74.4229 49.8323 74.0547 49.8518 73.6172C49.6884 73.6109 49.525 73.6046 49.3566 73.5981C48.7853 73.4648 48.7853 73.4648 48.4045 73.0649C48.1235 72.4327 48.1247 72.143 48.3283 71.4844C48.6711 71.0369 48.6711 71.0369 49.09 70.7227C49.4971 70.703 49.4971 70.703 49.8518 70.7227C49.872 70.574 49.8922 70.4253 49.913 70.2722C49.9534 69.9814 49.9534 69.9814 49.9946 69.6848C50.0211 69.4922 50.0476 69.2995 50.0749 69.101C50.1564 68.5898 50.1564 68.5898 50.3088 68.1328C50.4093 68.1328 50.5099 68.1328 50.6135 68.1328C50.6135 67.0268 50.6135 65.9208 50.6135 64.7812C51.5687 64.7812 52.5239 64.7812 53.508 64.7812C53.508 61.7146 53.508 58.6479 53.508 55.4883Z" fill="#E9B599"/>
<path d="M103.781 56.707C103.932 56.7824 103.932 56.7824 104.086 56.8594C104.204 57.3141 104.303 57.7602 104.391 58.2209C104.416 58.3426 104.441 58.4643 104.467 58.5896C104.947 61.0347 105.057 63.4675 105.048 65.9524C105.047 66.0998 105.047 66.2471 105.047 66.399C105.04 68.5825 104.962 70.7071 104.543 72.8555C104.518 72.9921 104.494 73.1288 104.469 73.2696C103.904 76.3884 102.9 79.3927 101.648 82.3008C101.598 82.3008 101.548 82.3008 101.496 82.3008C101.495 82.1097 101.493 81.9186 101.492 81.7217C101.486 81.0019 101.476 80.2822 101.464 79.5624C101.46 79.2529 101.457 78.9434 101.455 78.6339C101.428 75.0732 100.737 71.9728 98.1445 69.3516C96.8052 68.1666 95.2975 67.3724 93.6528 66.6957C93.0876 66.4439 92.5813 66.1499 92.0603 65.8191C91.9258 65.735 91.9258 65.735 91.7886 65.6492C91.5709 65.5129 91.3538 65.3757 91.1367 65.2383C91.3841 64.7435 91.9209 64.6553 92.4126 64.4575C93.5296 63.9872 94.4654 63.4253 95.4023 62.6484C95.532 62.5436 95.6616 62.4387 95.7951 62.3307C97.4343 60.9379 98.502 59.1835 99.5156 57.3164C99.5948 57.3408 99.6739 57.3651 99.7554 57.3902C100.954 57.645 102.254 57.6303 103.324 57.0117C103.475 56.9112 103.626 56.8106 103.781 56.707Z" fill="#FEE052"/>
<path d="M27.7615 57.7734C28.0587 57.9198 28.3476 58.0633 28.6274 58.2412C29.7565 58.9202 31.0811 58.8206 32.3318 58.5352C32.4096 58.6864 32.4874 58.8376 32.5675 58.9934C34.2701 62.2134 36.7331 64.6741 40.2537 65.8477C40.2537 65.9482 40.2537 66.0487 40.2537 66.1523C39.1709 66.7947 38.0904 67.3999 36.9402 67.9138C35.9812 68.3477 35.1382 68.8506 34.3123 69.5039C34.197 69.5907 34.0817 69.6775 33.963 69.7669C32.0128 71.3445 30.9376 73.7818 30.5037 76.207C30.46 76.6628 30.4476 77.1163 30.4406 77.574C30.4377 77.6971 30.4347 77.8203 30.4317 77.9472C30.4227 78.3352 30.4155 78.7231 30.4085 79.1111C30.4027 79.3764 30.3967 79.6417 30.3906 79.907C30.3761 80.5526 30.3633 81.1981 30.3514 81.8438C27.5637 79.0561 26.9885 71.6182 26.9689 67.8597C26.9678 67.7224 26.9668 67.5851 26.9657 67.4436C26.9631 67.0037 26.9621 66.5637 26.9617 66.1238C26.9615 65.9741 26.9612 65.8244 26.9609 65.6701C26.9607 62.9698 27.1507 60.4091 27.7615 57.7734Z" fill="#FEE052"/>
<path d="M61.582 84.7383C61.5826 85.0199 61.5826 85.0199 61.5832 85.3072C61.6123 87.0173 61.7119 88.5144 62.9817 89.7978C64.2025 90.8082 65.3638 90.9476 66.9141 90.832C67.9937 90.651 68.7863 90.1285 69.5039 89.3086C69.9716 88.5718 70.2727 87.8309 70.3138 86.955C70.3202 86.8259 70.3266 86.6968 70.3332 86.5637C70.3392 86.4295 70.3451 86.2953 70.3513 86.157C70.3612 85.953 70.3612 85.953 70.3713 85.7449C70.3874 85.4094 70.403 85.0738 70.418 84.7383C71.1473 84.8261 71.675 85.1406 72.2937 85.5095C72.4411 85.5957 72.4411 85.5957 72.5915 85.6836C72.8324 85.8245 73.0725 85.9668 73.3125 86.1094C73.0669 87.3375 72.7077 88.5285 72.3487 89.7269C72.1857 90.2725 72.0256 90.8189 71.8652 91.3652C71.8018 91.5811 71.7383 91.7969 71.6748 92.0127C71.6434 92.1195 71.612 92.2264 71.5796 92.3364C70.5322 95.8975 69.4849 99.4585 68.4375 103.02C68.337 103.02 68.2364 103.02 68.1328 103.02C68.0741 102.782 68.0741 102.782 68.0142 102.54C67.8672 101.947 67.7197 101.353 67.5721 100.76C67.5086 100.504 67.4452 100.249 67.382 99.9933C67.2904 99.6233 67.1984 99.2534 67.1063 98.8836C67.0766 98.764 67.047 98.6443 67.0164 98.521C66.8588 97.8928 66.6838 97.2777 66.479 96.6628C66.2544 95.9217 66.2506 95.3468 66.6142 94.6397C66.8092 94.3119 67.0152 93.9952 67.2283 93.679C67.3703 93.4641 67.5117 93.2489 67.6526 93.0333C67.7469 92.8927 67.7469 92.8927 67.843 92.7492C68.0056 92.51 68.0056 92.51 67.9805 92.2031C67.7221 92.0445 67.4614 91.8897 67.1997 91.7366C67.0548 91.65 66.9098 91.5634 66.7605 91.4741C66.212 91.2514 65.9546 91.2794 65.3906 91.4414C65.001 91.6154 65.001 91.6154 64.6479 91.8318C64.5289 91.9011 64.4099 91.9704 64.2873 92.0419C64.199 92.0951 64.1106 92.1483 64.0195 92.2031C64.1822 92.6741 64.3862 93.0772 64.6593 93.4909C64.7208 93.5854 64.7824 93.6798 64.8458 93.7771C64.9736 93.9711 65.1037 94.1636 65.2362 94.3544C65.6648 95.0239 65.7619 95.4763 65.6259 96.2606C65.4771 96.9073 65.3086 97.5452 65.124 98.1826C64.6584 99.8355 64.2538 101.499 63.8672 103.172C63.7666 103.172 63.6661 103.172 63.5625 103.172C62.6845 100.453 62.6845 100.453 62.3438 99.1348C62.1257 98.2931 61.8774 97.4672 61.6106 96.6401C61.2054 95.3803 60.8422 94.1113 60.4901 92.8357C60.2291 91.8923 59.9617 90.9512 59.6861 90.012C59.6545 89.9043 59.623 89.7967 59.5905 89.6857C59.4649 89.2575 59.3393 88.8294 59.2125 88.4015C59.1245 88.1046 59.0372 87.8074 58.9499 87.5102C58.8993 87.339 58.8486 87.1678 58.7964 86.9914C58.6875 86.5664 58.6875 86.5664 58.6875 86.1094C59.0836 85.8797 59.4804 85.6514 59.8777 85.4238C59.9901 85.3584 60.1025 85.293 60.2184 85.2257C60.3269 85.1638 60.4354 85.1019 60.5472 85.0382C60.6469 84.9808 60.7466 84.9233 60.8494 84.8641C61.125 84.7383 61.125 84.7383 61.582 84.7383Z" fill="#2CA0CD"/>
<path d="M76.9688 88.0898C79.7162 89.6466 81.4603 92.5588 82.3163 95.5273C82.5229 96.515 82.5323 97.5206 82.5431 98.5259C82.5466 98.7552 82.5529 98.9845 82.5618 99.2137C82.6347 101.092 82.6347 101.092 82.2363 101.644C81.9097 101.862 81.6068 101.982 81.2344 102.105C81.1037 102.161 80.9731 102.216 80.8385 102.272C80.3939 102.457 79.9456 102.621 79.4919 102.781C79.3274 102.84 79.1628 102.899 78.9933 102.959C76.8123 103.716 74.55 104.334 72.2461 104.543C72.5421 103.622 72.8713 102.722 73.2369 101.826C73.2863 101.705 73.3356 101.583 73.3865 101.457C73.4898 101.203 73.5934 100.948 73.6972 100.694C73.8558 100.304 74.0137 99.915 74.1715 99.5254C74.2725 99.2768 74.3736 99.0281 74.4747 98.7795C74.5217 98.6636 74.5687 98.5478 74.6171 98.4284C74.6613 98.3201 74.7056 98.2117 74.7512 98.1C74.7897 98.0054 74.8283 97.9107 74.868 97.8132C74.9982 97.5122 75.1463 97.2191 75.293 96.9258C74.74 96.9258 74.187 96.9258 73.6172 96.9258C73.7297 96.3632 73.8477 95.9128 74.0477 95.3856C74.1047 95.2346 74.1616 95.0837 74.2203 94.9281C74.2819 94.7669 74.3434 94.6056 74.4069 94.4395C74.4702 94.2726 74.5335 94.1057 74.5987 93.9337C74.7325 93.5814 74.8666 93.2293 75.001 92.8773C75.2068 92.3377 75.4114 91.7976 75.6158 91.2575C75.746 90.9153 75.8762 90.5731 76.0065 90.231C76.0677 90.0691 76.129 89.9073 76.1921 89.7405C76.2496 89.5905 76.307 89.4405 76.3662 89.2859C76.4165 89.1539 76.4668 89.0219 76.5186 88.8859C76.6641 88.5469 76.6641 88.5469 76.9688 88.0898Z" fill="#3E4259"/>
<path d="M54.879 87.7852C55.1644 88.2133 55.3292 88.5804 55.5119 89.0584C55.5759 89.2251 55.64 89.3919 55.7059 89.5636C55.7743 89.7436 55.8428 89.9236 55.9132 90.109C55.9838 90.2936 56.0544 90.4782 56.1271 90.6684C56.2763 91.0587 56.425 91.4492 56.5735 91.8398C56.764 92.3409 56.9555 92.8417 57.1473 93.3423C57.3299 93.8195 57.5118 94.297 57.6938 94.7745C57.7628 94.9548 57.8318 95.1351 57.9029 95.3208C57.9975 95.5702 57.9975 95.5702 58.094 95.8246C58.1499 95.9714 58.2059 96.1182 58.2635 96.2694C58.3829 96.6211 58.3829 96.6211 58.3829 96.9258C57.8299 96.9258 57.2769 96.9258 56.7071 96.9258C56.794 97.1349 56.8809 97.344 56.9704 97.5594C57.2925 98.3349 57.614 99.1106 57.9354 99.8864C58.0746 100.222 58.2139 100.558 58.3534 100.894C58.5539 101.376 58.7538 101.858 58.9536 102.341C59.0474 102.566 59.0474 102.566 59.143 102.796C59.201 102.936 59.2589 103.077 59.3186 103.221C59.3697 103.344 59.4208 103.467 59.4734 103.594C59.5922 103.909 59.6804 104.216 59.754 104.543C58.6365 104.464 57.5821 104.267 56.4976 103.991C56.2601 103.93 56.2601 103.93 56.0178 103.869C50.6827 102.48 50.6827 102.48 49.5469 101.344C49.5132 100.723 49.5186 100.102 49.5187 99.48C49.5184 99.1704 49.5156 98.8609 49.5127 98.5513C49.5076 95.106 50.5474 92.138 52.9638 89.6423C54.3694 88.2422 54.3694 88.2422 54.879 88.2422C54.879 88.0914 54.879 87.9405 54.879 87.7852Z" fill="#3D4259"/>
<path d="M64.5906 46.4708C64.9199 46.4731 65.2492 46.4751 65.5785 46.477C66.3791 46.482 67.1797 46.4896 67.9803 46.4993C67.5143 46.7433 67.0579 46.9032 66.5514 47.0472C63.38 47.9584 60.9529 49.7877 59.302 52.6562C58.6908 53.8218 58.265 54.9802 57.9256 56.2493C56.4404 56.0843 54.973 55.7807 53.5076 55.4876C53.5076 58.5543 53.5076 61.621 53.5076 64.7806C52.5524 64.7806 51.5972 64.7806 50.6131 64.7806C50.6017 63.7593 50.5935 62.7381 50.588 61.7168C50.5857 61.3703 50.5826 61.0239 50.5786 60.6774C50.5456 57.7303 50.729 55.378 52.1365 52.7454C52.2147 52.5981 52.2929 52.4508 52.3734 52.2991C53.8435 49.7757 56.3806 47.8515 59.1444 46.9564C59.2551 46.9166 59.3659 46.8768 59.48 46.8358C61.1406 46.3215 62.8716 46.4498 64.5906 46.4708Z" fill="#2B304F"/>
<path d="M86.5662 70.875C87.4302 70.9171 88.0078 71.3136 88.699 71.7891C88.4219 72.5598 87.9881 73.1936 87.5356 73.8719C87.0376 75.0876 87.6518 76.5185 87.9754 77.7305C88.0234 77.913 88.0713 78.0956 88.1208 78.2836C88.4086 79.3704 88.7121 80.451 89.038 81.5269C89.3191 82.4637 89.5521 83.4108 89.7825 84.3613C90.0231 85.3427 90.3007 86.3093 90.6131 87.2704C90.9101 88.2225 90.9101 88.2225 90.6795 88.6992C90.4464 89.0284 90.2101 89.3393 89.9558 89.6514C89.8826 89.7425 89.8093 89.8337 89.7339 89.9276C89.5755 90.1244 89.4167 90.3209 89.2575 90.5171C88.9915 90.8472 88.7296 91.1803 88.4681 91.514C88.2912 91.7374 88.1143 91.9608 87.9373 92.1841C87.8533 92.2919 87.7693 92.3998 87.6827 92.5109C87.6033 92.6101 87.524 92.7092 87.4422 92.8113C87.3722 92.8999 87.3023 92.9884 87.2303 93.0796C87.0232 93.2695 87.0232 93.2695 86.5662 93.2695C86.292 92.9648 86.0484 92.6641 85.8045 92.3364C85.6555 92.1414 85.5066 91.9464 85.3575 91.7514C85.281 91.6503 85.2044 91.5492 85.1255 91.4451C84.7456 90.9469 84.3558 90.4567 83.9668 89.9656C82.9042 88.6226 82.9042 88.6226 82.9456 88.0738C83.0787 87.3969 83.2344 86.73 83.405 86.0618C83.4389 85.9277 83.4729 85.7936 83.5078 85.6554C83.752 84.6969 84.0102 83.7428 84.2785 82.7907C84.6157 81.593 84.935 80.3907 85.2558 79.1886C85.5492 78.095 85.8558 77.0067 86.1972 75.927C86.4147 75.2192 86.5341 74.6759 86.252 73.979C86.1092 73.6172 86.1092 73.6172 86.2615 73.1602C86.3085 72.6047 86.3391 72.0492 86.371 71.4927C86.4138 71.0273 86.4138 71.0273 86.5662 70.875Z" fill="#F65151"/>
<path d="M38.2734 67.6766C38.3293 67.8887 38.3828 68.1015 38.4352 68.3145C38.4803 68.4922 38.4803 68.4922 38.5263 68.6734C38.5862 69.1069 38.5605 69.3928 38.4257 69.8094C38.1871 70.0754 38.1871 70.0754 37.883 70.3331C35.999 72.1224 35.1004 74.8335 35.0323 77.3757C35.0203 78.0471 35.0152 78.7184 35.0111 79.3898C35.0082 79.6811 35.0052 79.9725 35.0021 80.2638C34.9943 81.0254 34.9883 81.787 34.9826 82.5486C34.9765 83.3279 34.9687 84.1071 34.9611 84.8864C34.9464 86.4115 34.9335 87.9366 34.9218 89.4617C34.8213 89.4617 34.7207 89.4617 34.6171 89.4617C34.4389 89.2511 34.4389 89.2511 34.241 88.9529C34.1673 88.8425 34.0936 88.7321 34.0176 88.6183C33.939 88.4976 33.8603 88.3769 33.7792 88.2525C33.698 88.129 33.6168 88.0054 33.5331 87.8781C32.9959 87.0541 32.4736 86.222 31.9701 85.377C31.9123 85.2809 31.8545 85.1848 31.7949 85.0858C31.6107 84.7709 31.4383 84.451 31.2656 84.1297C31.1851 83.9928 31.1047 83.856 31.0218 83.7149C30.2821 82.3349 30.2186 81.1274 30.2491 79.5869C30.2562 79.1991 30.2553 78.8119 30.2533 78.424C30.2644 75.143 31.2549 72.3502 33.5531 69.9451C34.6218 68.9239 36.7412 67.2388 38.2734 67.6766Z" fill="#2DA1CE"/>
<path d="M44.9766 71.6385C45.3009 71.7474 45.3009 71.7474 45.5859 71.9432C45.696 72.3074 45.696 72.3074 45.7478 72.743C45.9164 73.8565 46.2478 74.548 47.1094 75.2947C47.6004 75.63 48.1008 75.9428 48.6328 76.2088C48.4067 77.4853 48.1612 78.7572 47.8997 80.0269C47.8459 80.3016 47.8459 80.3016 47.7911 80.5818C47.2513 83.1788 47.2513 83.1788 46.3329 83.9376C45.5209 84.47 44.7367 84.7311 43.7578 84.5877C42.923 84.3048 42.1005 83.9143 41.6405 83.1327C40.937 81.5693 40.7117 79.6695 40.3701 77.9921C40.3007 77.6518 40.2302 77.3118 40.1596 76.9717C40.1142 76.7507 40.0689 76.5298 40.0236 76.3088C39.9836 76.1137 39.9436 75.9186 39.9024 75.7175C39.7928 75.1199 39.7143 74.5271 39.6445 73.9236C40.2247 73.6009 40.8049 73.2783 41.3852 72.9557C41.5826 72.8459 41.78 72.7361 41.9774 72.6263C42.261 72.4686 42.5446 72.3109 42.8283 72.1532C43.0844 72.0108 43.0844 72.0108 43.3456 71.8656C44.0024 71.5037 44.2323 71.4747 44.9766 71.6385Z" fill="#F1EFEB"/>
<path d="M80.7139 34.6016C80.9197 34.6016 80.9197 34.6016 81.1297 34.6016C81.2765 34.6024 81.4233 34.6032 81.5746 34.604C81.7259 34.6042 81.8772 34.6044 82.0331 34.6047C82.5158 34.6055 82.9985 34.6074 83.4813 34.6094C83.8088 34.6101 84.1363 34.6108 84.4638 34.6114C85.2661 34.6131 86.0685 34.6157 86.8709 34.6189C86.8709 34.6691 86.8709 34.7194 86.8709 34.7712C86.7601 34.7918 86.6494 34.8125 86.5353 34.8337C84.5603 35.2566 82.8056 36.2598 81.6174 37.9139C80.5085 39.6488 80.1533 41.1276 80.0154 43.1501C79.2111 43.1501 78.4067 43.1501 77.5779 43.1501C77.5371 43.4895 77.4962 43.8288 77.4542 44.1784C77.3273 45.1986 77.1905 46.2173 77.0447 47.2348C77.0267 47.3667 77.0087 47.4985 76.9901 47.6343C76.972 47.758 76.9539 47.8816 76.9352 48.0091C76.9196 48.1188 76.904 48.2285 76.8879 48.3416C76.8162 48.6345 76.8162 48.6345 76.5115 49.0915C76.4192 49.0234 76.3269 48.9552 76.2318 48.885C76.0404 48.7469 76.0404 48.7469 75.845 48.6059C75.7213 48.5158 75.5976 48.4257 75.4701 48.3328C74.8272 47.9224 74.151 47.5945 73.4647 47.2634C73.4532 46.5865 73.445 45.9096 73.4396 45.2327C73.4373 45.0034 73.4342 44.7741 73.4302 44.5449C73.3819 41.7088 73.8274 39.0234 75.8784 36.8975C77.1816 35.7146 78.8993 34.5965 80.7139 34.6016Z" fill="#2B2F4F"/>
<path d="M43.1484 34.3125C43.1484 34.413 43.1484 34.5136 43.1484 34.6172C43.007 34.6675 42.8656 34.7177 42.7199 34.7695C40.0902 35.9224 38.6106 38.4586 37.5402 41.0057C36.6491 43.2938 36.24 45.7445 35.9882 48.1758C34.3114 48.0833 32.9544 47.7829 31.5703 46.8047C31.3898 47.8375 31.367 48.8719 31.3322 49.9182C31.3256 50.1023 31.3191 50.2864 31.3123 50.4761C31.2962 50.9281 31.2807 51.38 31.2656 51.832C30.9137 51.832 30.5617 51.832 30.1992 51.832C29.6058 47.7356 30.2494 43.4247 32.7597 40.0394C35.2059 36.8852 39.0207 34.3125 43.1484 34.3125Z" fill="#A35418"/>
<path d="M40.5586 66C40.5608 66.1583 40.5629 66.3166 40.5651 66.4796C40.605 67.8933 40.7113 69.0968 41.6887 70.2061C42.6311 71.0652 43.5746 71.2304 44.7998 71.1958C44.9084 71.1905 45.017 71.1852 45.1289 71.1797C45.0001 71.1043 44.8713 71.0289 44.7385 70.9512C43.9132 70.4003 43.0958 69.5699 42.8438 68.5898C42.8438 68.439 42.8438 68.2882 42.8438 68.1328C42.9659 68.1289 43.088 68.125 43.2139 68.1209C44.5728 68.0531 45.8294 67.8158 47.1492 67.499C47.7188 67.3711 47.7188 67.3711 48.1758 67.3711C48.1758 66.9186 48.1758 66.4662 48.1758 66C49.0611 66.233 49.9058 66.6347 50.6133 67.2188C50.7085 67.7329 50.7085 67.7329 50.6133 68.1328C50.5127 68.1328 50.4122 68.1328 50.3086 68.1328C50.2884 68.2815 50.2681 68.4301 50.2473 68.5833C50.2204 68.7771 50.1935 68.971 50.1658 69.1707C50.1393 69.3633 50.1127 69.556 50.0854 69.7544C50.0039 70.2656 50.0039 70.2656 49.8516 70.7227C49.5482 70.8282 49.2434 70.9295 48.9375 71.0273C48.5087 71.3083 48.479 71.4902 48.3472 71.9985C48.3255 72.6271 48.3624 72.8501 48.7852 73.3125C49.1371 73.413 49.489 73.5136 49.8516 73.6172C50.0527 74.5221 50.2537 75.427 50.4609 76.3594C48.9451 76.4565 48.0688 76.1416 46.8237 75.3025C46.1255 74.6248 45.6219 73.8211 45.5681 72.8317C45.567 72.5349 45.5757 72.238 45.5859 71.9414C44.8951 71.6618 44.4806 71.619 43.7578 71.7891C43.3206 71.982 43.3206 71.982 42.8902 72.2318C42.7309 72.32 42.5716 72.4082 42.4075 72.499C42.2436 72.5915 42.0796 72.684 41.9106 72.7793C41.5837 72.9624 41.2564 73.1449 40.9287 73.3268C40.7846 73.408 40.6404 73.4892 40.4919 73.5729C40.1519 73.7442 39.8639 73.8506 39.4922 73.9219C39.4615 73.7814 39.4308 73.6409 39.3991 73.4961C39.2839 72.9689 39.1686 72.4416 39.0533 71.9144C39.0037 71.6873 38.954 71.4602 38.9044 71.2331C38.8562 71.0125 38.8079 70.792 38.7597 70.5714C38.7127 70.3562 38.6657 70.1411 38.6187 69.9259C38.4953 69.3606 38.3685 68.7962 38.2389 68.2322C38.1211 67.6758 38.1211 67.6758 38.1211 67.2188C38.4698 67.0148 38.8189 66.8118 39.1685 66.6094C39.2676 66.5512 39.3668 66.4931 39.469 66.4332C40.2194 66 40.2194 66 40.5586 66Z" fill="#F5C9AE"/>
<path d="M66.6094 91.289C67.0319 91.5038 67.0319 91.5038 67.4282 91.7555C67.6279 91.8807 67.6279 91.8807 67.8317 92.0085C67.9311 92.0727 68.0304 92.1369 68.1328 92.2031C67.9701 92.674 67.7662 93.0771 67.4931 93.4908C67.4315 93.5853 67.37 93.6798 67.3065 93.7771C67.1787 93.971 67.0486 94.1635 66.9161 94.3543C66.4936 95.0144 66.3863 95.4627 66.5204 96.2361C66.7012 97.018 66.9057 97.7911 67.1235 98.5634C68.1328 102.181 68.1328 102.181 68.1328 103.019C68.2334 103.019 68.3339 103.019 68.4375 103.019C68.3646 103.264 68.2916 103.508 68.2185 103.753C68.1779 103.889 68.1372 104.025 68.0953 104.165C68.0103 104.445 67.9205 104.723 67.8281 105C66.0686 105 64.309 105 62.4961 105C62.4961 104.95 62.4961 104.899 62.4961 104.848C62.9988 104.848 63.5016 104.848 64.0195 104.848C63.8687 104.295 63.7179 103.742 63.5625 103.172C63.663 103.172 63.7636 103.172 63.8672 103.172C63.8817 103.016 63.8963 102.86 63.9112 102.699C64.036 101.704 64.2949 100.736 64.5337 99.7631C64.6032 99.4744 64.6032 99.4744 64.6741 99.1799C64.8777 98.343 65.0866 97.5182 65.3585 96.7008C65.5862 95.9453 65.6102 95.3623 65.231 94.642C65.033 94.3171 64.8248 94.0024 64.6099 93.6884C64.4652 93.4759 64.3219 93.2625 64.1802 93.0481C64.1166 92.9551 64.0529 92.8622 63.9873 92.7665C63.8672 92.5077 63.8672 92.5077 64.0195 92.0507C64.3689 91.8008 64.3689 91.8008 64.8098 91.5556C64.9534 91.4731 65.0969 91.3906 65.2448 91.3057C65.7897 91.1012 66.054 91.1277 66.6094 91.289Z" fill="#3D435B"/>
<path d="M82.9104 65.0859C82.9607 66.0914 83.0109 67.0969 83.0627 68.1328C83.5152 68.2836 83.9676 68.4345 84.4338 68.5898C85.2308 68.9962 85.5987 69.5145 86.0495 70.2621C86.262 70.6111 86.262 70.6111 86.719 70.875C86.6687 70.9253 86.6184 70.9755 86.5666 71.0273C86.5343 71.3664 86.5104 71.7062 86.4905 72.0461C86.3787 73.9367 86.3787 73.9367 85.9953 74.3884C85.8822 74.4858 85.7691 74.5832 85.6526 74.6836C85.5395 74.8061 85.4263 74.9287 85.3098 75.0549C84.108 76.1748 83.1521 76.3783 81.5393 76.3594C81.7404 75.4545 81.9415 74.5495 82.1487 73.6172C82.5006 73.5166 82.8525 73.4161 83.2151 73.3125C83.5734 72.8197 83.6748 72.531 83.6626 71.9224C83.4959 71.4113 83.3392 71.1966 82.9104 70.875C82.658 70.8171 82.4041 70.7654 82.1487 70.7227C82.0719 70.3768 81.9959 70.0309 81.9201 69.6848C81.8777 69.4922 81.8353 69.2995 81.7916 69.101C81.6916 68.5898 81.6916 68.5898 81.6916 68.1328C81.5911 68.1328 81.4905 68.1328 81.3869 68.1328C81.2008 66.0772 81.2008 66.0772 81.6476 65.5263C82.0668 65.269 82.4133 65.0859 82.9104 65.0859Z" fill="#F5C9AE"/>
<path d="M81.3867 61.582C81.7386 61.8837 82.0905 62.1853 82.4531 62.4961C84.766 64.2759 87.3197 65.6175 90.3161 65.2877C90.4361 65.2714 90.5561 65.2551 90.6797 65.2383C90.6797 65.6907 90.6797 66.1432 90.6797 66.6094C90.3434 66.7084 90.007 66.8066 89.6704 66.9045C89.3894 66.9867 89.3894 66.9867 89.1027 67.0706C88.2 67.3112 87.3652 67.3924 86.4331 67.3806C86.3282 67.3799 86.2234 67.3792 86.1153 67.3785C85.8594 67.3768 85.6035 67.374 85.3477 67.3711C85.6928 68.684 86.2013 69.4895 87.3281 70.2656C87.4789 70.3159 87.6298 70.3662 87.7852 70.418C87.7852 70.5185 87.7852 70.6191 87.7852 70.7227C86.8459 70.9253 86.8459 70.9253 86.3093 70.7131C85.883 70.3559 85.624 69.9849 85.3477 69.5039C85.3477 69.4034 85.3477 69.3028 85.3477 69.1992C84.9151 68.979 84.4779 68.7757 84.0337 68.5803C83.7065 68.4363 83.3822 68.2927 83.0625 68.1328C82.925 67.7204 82.8921 67.4872 82.8953 67.0646C82.8958 66.9492 82.8963 66.8339 82.8968 66.715C82.898 66.5953 82.8993 66.4756 82.9006 66.3523C82.9013 66.2308 82.902 66.1094 82.9027 65.9842C82.9045 65.6848 82.9072 65.3854 82.9102 65.0859C82.7719 65.0671 82.6337 65.0482 82.4912 65.0288C81.9961 64.9336 81.9961 64.9336 81.3867 64.6289C81.3867 63.6234 81.3867 62.618 81.3867 61.582Z" fill="#BF8E75"/>
<path d="M64.0195 92.5071C64.3565 92.9075 64.6193 93.3584 64.8955 93.8021C64.9746 93.9207 65.0538 94.0393 65.1353 94.1615C65.5964 94.9002 65.794 95.4044 65.6309 96.2693C65.6019 96.3852 65.5729 96.501 65.543 96.6204C65.5136 96.7426 65.4842 96.8647 65.4539 96.9906C65.3511 97.39 65.2387 97.7858 65.124 98.1819C64.6584 99.8348 64.2538 101.498 63.8672 103.171C63.7666 103.171 63.6661 103.171 63.5625 103.171C63.0714 101.65 62.6006 100.133 62.2027 98.5854C61.982 97.7565 61.708 96.9425 61.4324 96.1304C61.1676 95.3251 61.0424 94.5713 60.9727 93.7259C61.3934 93.4917 61.816 93.261 62.239 93.0308C62.4186 92.9308 62.4186 92.9308 62.6017 92.8288C62.7748 92.7353 62.7748 92.7353 62.9513 92.6398C63.0574 92.5816 63.1636 92.5234 63.2729 92.4634C63.5625 92.3548 63.5625 92.3548 64.0195 92.5071Z" fill="#65B7EA"/>
<path d="M68.1326 92.3555C68.8374 92.5676 69.4499 92.8575 70.094 93.2124C70.2696 93.3086 70.4451 93.4049 70.626 93.504C70.8246 93.6142 70.8246 93.6142 71.0271 93.7266C70.8023 95.0143 70.4406 96.2497 70.0633 97.4989C69.8995 98.0434 69.7398 98.5891 69.5798 99.1348C69.5174 99.3472 69.4549 99.5597 69.3924 99.7721C69.3611 99.8785 69.3298 99.9849 69.2975 100.095C69.0108 101.07 68.724 102.045 68.4373 103.02C68.3367 103.02 68.2362 103.02 68.1326 103.02C68.0934 102.861 68.0543 102.703 68.014 102.54C67.867 101.947 67.7195 101.353 67.5719 100.76C67.5084 100.504 67.445 100.249 67.3818 99.9933C67.2902 99.6233 67.1982 99.2534 67.106 98.8836C67.0764 98.764 67.0467 98.6443 67.0162 98.521C66.8586 97.8928 66.6835 97.2777 66.4788 96.6628C66.2508 95.9076 66.2501 95.3369 66.6283 94.6205C66.8431 94.2667 67.07 93.925 67.3042 93.5837C67.3835 93.465 67.4627 93.3463 67.5443 93.224C67.7387 92.9333 67.9348 92.6439 68.1326 92.3555Z" fill="#65B8EA"/>
<path d="M77.7305 79.8633C77.7808 79.8633 77.8311 79.8633 77.8829 79.8633C77.8829 82.7791 77.8829 85.695 77.8829 88.6992C77.5812 88.4981 77.2796 88.297 76.9688 88.0898C77.0191 87.8888 77.0694 87.6877 77.1212 87.4805C77.0285 87.4581 76.9358 87.4357 76.8403 87.4126C75.93 87.1797 75.0494 86.8936 74.1695 86.5664C74.0663 86.5285 73.9631 86.4906 73.8568 86.4515C73.5714 86.3435 73.2895 86.2267 73.0079 86.1094C72.8582 86.056 72.7086 86.0025 72.5544 85.9475C72.1776 85.5866 72.1662 85.4252 72.1206 84.9138C72.1449 84.4572 72.1661 84.2181 72.4743 83.8749C72.8039 83.6541 73.1377 83.4759 73.4935 83.3005C73.7462 83.1619 73.9981 83.0218 74.2493 82.8804C74.3745 82.8104 74.4997 82.7405 74.6288 82.6684C75.1625 82.3489 75.6327 81.9738 76.1024 81.5676C76.2526 81.4378 76.4028 81.308 76.5576 81.1743C76.8628 80.8797 77.1273 80.5968 77.3943 80.2709C77.5053 80.1364 77.6162 80.0019 77.7305 79.8633Z" fill="#BED4DD"/>
<path d="M100.278 42.9961C100.45 45.5863 100.446 48.1712 100.43 50.7656C100.094 50.8904 99.7573 51.014 99.4206 51.137C99.2333 51.2059 99.0459 51.2748 98.8529 51.3458C98.3587 51.5072 97.8971 51.6109 97.383 51.6797C96.2857 46.9277 96.2857 46.9277 96.6213 45.2812C97.0283 44.8817 97.5352 44.6549 98.04 44.3958C98.6483 44.0713 99.6586 42.9961 100.278 42.9961Z" fill="#2B304F"/>
<path d="M32.1725 58.5492C32.6382 58.7545 32.7042 59.0552 32.9033 59.515C33.3572 60.48 33.925 61.2337 34.6172 62.0382C34.6904 62.1335 34.7637 62.2287 34.8392 62.3269C35.4119 63.0581 36.1111 63.5535 36.8726 64.0794C36.983 64.1599 37.0933 64.2404 37.207 64.3234C37.207 64.3737 37.207 64.4239 37.207 64.4757C34.8945 64.4757 32.5819 64.4757 30.1992 64.4757C30.1992 62.6156 30.1992 60.7555 30.1992 58.839C30.8779 58.7636 30.8779 58.7636 31.5703 58.6867C31.875 58.5343 31.875 58.5343 32.1725 58.5492Z" fill="#A35419"/>
<path d="M100.429 47.5664C100.847 48.0629 101.045 48.5635 101.277 49.166C101.592 49.8884 101.592 49.8884 102.167 50.3943C102.428 50.4887 102.693 50.5758 102.959 50.6549C103.795 50.9085 104.253 51.4851 104.676 52.2129C105.162 53.2727 105.197 54.3467 104.875 55.4639C104.452 56.4444 103.822 57.0057 102.867 57.4688C102.391 57.627 101.957 57.6372 101.458 57.6306C101.219 57.6275 100.98 57.6243 100.734 57.6211C100.835 56.867 100.935 56.1129 101.039 55.3359C101.391 55.2354 101.743 55.1348 102.105 55.0312C102.48 54.4695 102.457 54.1715 102.41 53.5078C102.018 52.9196 101.708 52.9071 101.039 52.7461C101.02 52.6173 101.002 52.4884 100.983 52.3557C100.827 51.2446 100.827 51.2446 100.563 50.1562C100.331 49.3155 100.406 48.4303 100.429 47.5664Z" fill="#D2A388"/>
<path d="M90.832 65.0859C91.3906 65.2939 91.8848 65.5472 92.3936 65.8572C92.5927 65.9777 92.5927 65.9777 92.7958 66.1006C93.1172 66.3047 93.1172 66.3047 93.2695 66.457C93.1882 67.3395 93.0218 68.1956 92.8357 69.0612C92.8089 69.1879 92.782 69.3147 92.7544 69.4453C92.6695 69.8458 92.5839 70.2461 92.4983 70.6465C92.4402 70.9198 92.3822 71.1932 92.3242 71.4665C92.1828 72.1327 92.0408 72.7988 91.8984 73.4648C91.0282 73.1898 90.3478 72.7805 89.5835 72.2866C89.1725 72.0427 89.1725 72.0427 88.7956 72.2151C88.7135 72.2756 88.6314 72.3361 88.5469 72.3984C88.5469 72.1973 88.5469 71.9963 88.5469 71.7891C88.2105 71.5189 88.2105 71.5189 87.7852 71.3035C87.5297 71.1633 87.2754 71.0212 87.0234 70.875C87.0234 70.8247 87.0234 70.7745 87.0234 70.7227C87.1285 70.7038 87.2336 70.685 87.3418 70.6655C88.6418 70.3802 89.5523 69.849 90.2851 68.7142C90.8196 67.5783 90.8014 66.3187 90.832 65.0859Z" fill="#BFD4DD"/>
<path d="M40.5586 66C40.5608 66.1583 40.5629 66.3166 40.5651 66.4796C40.605 67.8933 40.7113 69.0968 41.6887 70.2061C42.8809 71.2929 44.0521 71.2371 45.5859 71.1797C45.5859 71.4311 45.5859 71.6824 45.5859 71.9414C45.388 71.8613 45.388 71.8613 45.186 71.7795C44.2973 71.5327 43.6725 71.7922 42.8902 72.2318C42.7309 72.32 42.5716 72.4082 42.4075 72.499C42.2436 72.5915 42.0796 72.684 41.9106 72.7793C41.5837 72.9624 41.2564 73.1449 40.9287 73.3268C40.7846 73.408 40.6404 73.4892 40.4919 73.5729C40.1519 73.7442 39.8639 73.8506 39.4922 73.9219C39.4615 73.7814 39.4308 73.6409 39.3991 73.4961C39.2839 72.9689 39.1686 72.4416 39.0533 71.9144C39.0037 71.6873 38.954 71.4602 38.9044 71.2331C38.8562 71.0125 38.8079 70.792 38.7597 70.5714C38.7127 70.3562 38.6657 70.1411 38.6187 69.9259C38.4953 69.3606 38.3685 68.7962 38.2389 68.2322C38.1211 67.6758 38.1211 67.6758 38.1211 67.2188C38.4698 67.0148 38.8189 66.8118 39.1685 66.6094C39.2676 66.5512 39.3668 66.4931 39.469 66.4332C40.2194 66 40.2194 66 40.5586 66Z" fill="#D7D4CF"/>
<path d="M29.8947 50.7656C29.945 50.7656 29.9953 50.7656 30.0471 50.7656C30.0471 51.1678 30.0471 51.57 30.0471 51.9844C30.3487 51.9844 30.6503 51.9844 30.9611 51.9844C30.8143 53.4179 30.8143 53.4179 30.6564 54.1172C30.3045 54.2177 29.9526 54.3183 29.59 54.4219C29.412 55.3145 29.412 55.3145 29.6091 56.1738C29.936 56.4713 29.936 56.4713 30.6564 56.5547C30.8073 57.3088 30.9581 58.0629 31.1135 58.8398C30.0112 58.9011 29.298 58.8403 28.3713 58.2305C28.2847 58.1735 28.1981 58.1166 28.1088 58.0579C27.5102 57.6137 27.1545 57.1256 27.0002 56.4023C26.8776 55.2177 26.8893 54.1876 27.6096 53.2031C28.0625 52.6806 28.5132 52.2943 29.133 51.9844C29.2838 51.9844 29.4346 51.9844 29.59 51.9844C29.612 51.8681 29.634 51.7519 29.6567 51.6321C29.7424 51.2227 29.7424 51.2227 29.8947 50.7656Z" fill="#F6CAAB"/>
<path d="M70.418 86.2617C70.5062 87.6506 70.1905 88.5827 69.304 89.6609C68.7122 90.2931 68.1424 90.8117 67.2378 90.8511C66.0929 90.4389 65.3228 89.7927 64.6581 88.7813C64.4125 88.258 64.2995 87.7395 64.1719 87.1758C64.2761 87.1697 64.3803 87.1637 64.4876 87.1575C66.4254 87.0395 68.5653 86.2617 70.418 86.2617Z" fill="#F4C9AD"/>
<path d="M77.578 43.1484C78.684 43.1484 79.79 43.1484 80.9295 43.1484C80.4771 43.7517 80.4771 43.7517 80.0155 44.3672C78.8754 46.0469 78.2701 47.9127 77.7303 49.8516C76.8561 49.3307 76.8561 49.3307 76.7018 48.9875C76.6472 48.4758 76.7291 47.9938 76.8103 47.4896C76.8354 47.3252 76.8354 47.3252 76.8611 47.1574C76.8967 46.9262 76.9328 46.6951 76.9695 46.464C77.0256 46.1105 77.08 45.7568 77.134 45.4029C77.1688 45.1781 77.2038 44.9532 77.2388 44.7284C77.2633 44.5699 77.2633 44.5699 77.2883 44.4081C77.3579 43.9716 77.4378 43.5688 77.578 43.1484Z" fill="#BC8C74"/>
<path d="M81.3865 68.1328C81.4871 68.1328 81.5876 68.1328 81.6912 68.1328C81.7682 68.45 81.8442 68.7674 81.9197 69.085C81.9621 69.2617 82.0046 69.4384 82.0483 69.6205C82.1482 70.1133 82.1482 70.1133 82.1482 70.7227C82.2582 70.7069 82.3682 70.6912 82.4815 70.675C82.91 70.7227 82.91 70.7227 83.3289 71.0464C83.7136 71.538 83.824 71.7772 83.824 72.3984C83.5911 73.004 83.4542 73.2544 82.91 73.6172C82.5005 73.6362 82.5005 73.6362 82.1482 73.6172C82.137 73.7444 82.137 73.7444 82.1256 73.8743C82.0468 74.6784 81.9038 75.4276 81.6912 76.207C80.6953 76.1333 80.6953 76.1333 80.4159 75.822C80.2662 75.2334 80.4848 74.7368 80.6724 74.179C81.1394 72.7453 81.2654 71.3985 81.3199 69.8943C81.3264 69.7247 81.333 69.5551 81.3398 69.3804C81.3559 68.9646 81.3714 68.5487 81.3865 68.1328Z" fill="#EAB599"/>
<path d="M63.1055 75.4447C63.3823 75.5475 63.6584 75.6524 63.9338 75.759C65.7035 76.3474 67.1797 76.1023 68.8672 75.4441C69.334 75.2979 69.5185 75.261 69.9609 75.4447C70.0752 75.7875 70.0752 75.7875 70.1133 76.2065C69.4169 77.1183 68.1431 77.3531 67.0664 77.5776C65.4447 77.7844 63.9674 77.5104 62.4961 76.8158C62.1254 76.5106 62.1254 76.5106 61.8867 76.2065C61.9058 75.797 61.9058 75.797 62.0391 75.4447C62.4557 75.2364 62.6579 75.3308 63.1055 75.4447Z" fill="#EAB599"/>
<path d="M91.2891 76.9688C93.2497 76.9688 95.2104 76.9688 97.2305 76.9688C97.2305 77.572 97.2305 78.1753 97.2305 78.7969C95.2698 78.7969 93.3091 78.7969 91.2891 78.7969C91.2891 78.1936 91.2891 77.5903 91.2891 76.9688Z" fill="#BFD5DE"/>
<path d="M61.582 67.3692C62.0429 67.6337 62.4074 67.9536 62.6484 68.4356C62.7125 68.9017 62.7209 69.3414 62.6484 69.8067C62.275 70.2942 61.8745 70.6975 61.2773 70.8731C60.5906 70.8606 60.2965 70.7952 59.7729 70.3399C59.6661 70.2142 59.5593 70.0886 59.4492 69.9591C59.3989 69.9088 59.3486 69.8585 59.2968 69.8067C59.212 69.2307 59.1689 68.6672 59.4563 68.147C60.0702 67.405 60.6322 67.2071 61.582 67.3692Z" fill="#44475D"/>
<path d="M71.6367 67.3692C72.0975 67.6337 72.4621 67.9536 72.7031 68.4356C72.7672 68.9017 72.7778 69.3417 72.7031 69.8067C72.3318 70.2638 72.3318 70.2638 71.9414 70.5684C71.8911 70.6187 71.8408 70.669 71.789 70.7208C71.2739 70.7876 70.78 70.795 70.2656 70.7208C69.799 70.3495 69.799 70.3495 69.5039 69.9591C69.4536 69.9088 69.4033 69.8585 69.3515 69.8067C69.2666 69.2307 69.2236 68.6672 69.511 68.147C70.1249 67.405 70.6869 67.2071 71.6367 67.3692Z" fill="#44475D"/>
<path d="M100.43 49.5469C100.48 49.5469 100.53 49.5469 100.582 49.5469C100.859 50.6282 101.105 51.6265 101.039 52.7461C101.206 52.7587 101.372 52.7712 101.544 52.7842C102.105 52.8984 102.105 52.8984 102.401 53.146C102.632 53.6641 102.641 54.0125 102.562 54.5742C102.229 55.0217 102.229 55.0217 101.801 55.3359C101.372 55.3835 101.372 55.3835 101.039 55.3359C101.043 55.4243 101.046 55.5127 101.05 55.6037C101.067 56.3436 101.02 56.9248 100.734 57.6211C99.8584 57.4878 99.8584 57.4878 99.5156 57.3164C99.6613 56.6471 99.8093 55.9797 99.9822 55.3169C100.286 54.0598 100.322 52.8265 100.363 51.5369C100.373 51.2498 100.373 51.2498 100.383 50.9569C100.399 50.4869 100.415 50.0169 100.43 49.5469Z" fill="#BF8F75"/>
<path d="M83.5195 56.8591C84.188 56.9234 84.7293 57.0688 85.3477 57.3161C86.734 57.5827 87.764 57.5415 89.0682 56.9924C89.4855 56.8508 89.7854 56.8115 90.2227 56.8591C90.5273 57.1638 90.5273 57.1638 90.5273 57.4494C90.2376 58.0652 89.7035 58.2892 89.0973 58.5224C87.3221 59.0744 85.6769 58.9778 83.9766 58.2302C83.7199 58.0825 83.4651 57.9314 83.2148 57.7732C83.3481 57.0305 83.3481 57.0305 83.5195 56.8591Z" fill="#BF8E75"/>
<path d="M47.7188 59.2967C47.7942 59.6738 47.7942 59.6738 47.8711 60.0584C46.7553 60.9923 45.2082 61.2314 43.7911 61.185C42.7196 61.0536 41.7045 60.7492 40.8633 60.0584C40.9136 59.8071 40.9638 59.5557 41.0156 59.2967C41.5896 59.2537 41.9275 59.2958 42.4629 59.5252C43.8443 60.081 45.4559 59.8346 46.8047 59.2967C47.1842 59.107 47.3243 59.1784 47.7188 59.2967Z" fill="#EAB599"/>
<path d="M83.0626 49.8528C83.5518 50.225 83.7784 50.4797 83.9767 51.062C83.9767 51.6424 83.8294 51.9559 83.5196 52.4427C82.905 52.8524 82.4133 52.8662 81.6915 52.7473C81.225 52.4522 81.225 52.4522 80.9298 51.9856C80.8247 51.5051 80.8185 51.0944 80.9298 50.6145C81.6024 49.7649 82.0121 49.6035 83.0626 49.8528Z" fill="#44465C"/>
<path d="M64.8197 71.2938C65.1048 71.2932 65.1048 71.2932 65.3957 71.2926C65.695 71.2944 65.695 71.2944 66.0003 71.2962C66.1998 71.295 66.3994 71.2938 66.6049 71.2926C66.795 71.293 66.9851 71.2934 67.181 71.2938C67.3562 71.2941 67.5313 71.2945 67.7118 71.2948C68.1331 71.3343 68.1331 71.3343 68.4378 71.6389C68.4916 72.0584 68.5098 72.2985 68.2623 72.6498C67.8652 72.9431 67.576 72.9168 67.0858 72.9184C66.9106 72.919 66.7354 72.9196 66.5549 72.9202C66.3719 72.9184 66.1889 72.9166 66.0003 72.9148C65.8173 72.9166 65.6343 72.9184 65.4457 72.9202C65.1829 72.9193 65.1829 72.9193 64.9149 72.9184C64.7542 72.9179 64.5936 72.9174 64.4281 72.9168C64.0199 72.8577 64.0199 72.8577 63.7384 72.6498C63.4908 72.2985 63.509 72.0584 63.5628 71.6389C63.9832 71.2186 64.232 71.2949 64.8197 71.2938Z" fill="#EAB599"/>
<path d="M39.0354 51.832C40.0687 51.8493 40.0687 51.8493 40.5041 52.1665C40.8437 52.5393 41.0087 52.8642 41.1111 53.3555C40.9851 53.9602 40.7654 54.3806 40.2541 54.7266C39.7706 54.8498 39.3677 54.8414 38.883 54.7266C38.4183 54.4231 38.1831 54.2182 38.0493 53.6697C38.0022 53.0322 38.0727 52.8046 38.4926 52.2986C38.6215 52.1949 38.7503 52.0912 38.883 51.9844C38.9333 51.9341 38.9836 51.8838 39.0354 51.832Z" fill="#45475D"/>
<path d="M49.6994 51.8302C50.1107 52.1044 50.3914 52.3 50.6135 52.7442C50.7175 53.8019 50.7175 53.8019 50.3183 54.42C49.694 54.8277 49.2071 54.8686 48.4807 54.7247C47.9626 54.4009 47.8892 54.1809 47.7285 53.5916C47.7177 52.9781 47.7955 52.7595 48.176 52.2872C48.6593 51.8039 49.0255 51.7339 49.6994 51.8302Z" fill="#45475D"/>
<path d="M49.0898 50.0039C49.3382 50.0644 49.5856 50.1286 49.8325 50.1943C50.0393 50.2474 50.0393 50.2474 50.2503 50.3015C50.6133 50.4609 50.6133 50.4609 50.799 50.7531C50.8382 50.8578 50.8775 50.9625 50.918 51.0703C50.9997 51.2243 51.0814 51.3782 51.1655 51.5369C51.375 51.9844 51.375 51.9844 51.375 52.4414C50.6108 52.4855 50.2935 52.4445 49.6992 51.9844C49.0759 51.8895 48.8475 51.9424 48.3186 52.2986C47.8711 52.5938 47.8711 52.5938 47.4331 52.5557C47.3263 52.518 47.2194 52.4803 47.1094 52.4414C47.1723 51.6387 47.2967 51.1877 47.8711 50.6133C48.3372 50.3074 48.5025 50.3086 49.0898 50.3086C49.0898 50.208 49.0898 50.1075 49.0898 50.0039Z" fill="#E9B498"/>
<path d="M40.5967 50.4794C41.1021 50.824 41.3434 51.1375 41.625 51.6791C41.6631 52.1171 41.6631 52.1171 41.625 52.4409C41.1965 52.5456 41.1965 52.5456 40.7109 52.5932C40.5586 52.4409 40.4062 52.2885 40.2539 52.1362C39.8473 52.0172 39.4586 51.9657 39.0352 51.9838C38.8269 52.129 38.6234 52.2815 38.4258 52.4409C37.8545 52.4694 37.8545 52.4694 37.3594 52.4409C37.3982 51.6456 37.6812 51.2516 38.1866 50.6764C38.8447 50.0821 39.8213 50.211 40.5967 50.4794Z" fill="#E8B499"/>
<path d="M92.0508 49.8498C92.4222 50.164 92.4222 50.164 92.6602 50.4592C92.6099 50.5598 92.5597 50.6603 92.5079 50.7639C92.4073 50.6633 92.3068 50.5628 92.2032 50.4592C91.8066 50.508 91.8066 50.508 91.4415 50.6116C91.4415 50.8629 91.4415 51.1143 91.4415 51.3733C91.7908 51.5042 91.7908 51.5042 92.2032 51.5256C92.5588 51.2463 92.5588 51.2463 92.8125 50.9162C92.8669 51.5004 92.8579 51.7623 92.5269 52.2588C92.0831 52.7157 91.9693 52.7386 91.3177 52.792C90.8119 52.7874 90.6812 52.7453 90.2322 52.4587C89.7671 51.9795 89.7671 51.9795 89.7627 51.522C89.8481 50.5525 89.8481 50.5525 90.2037 50.0783C90.843 49.627 91.3082 49.6805 92.0508 49.8498Z" fill="#42455B"/>
<path d="M85.8233 53.7707C85.9783 53.7703 86.1334 53.7699 86.2931 53.7695C86.4556 53.7707 86.6181 53.7719 86.7856 53.7731C87.0284 53.7713 87.0284 53.7713 87.2762 53.7695C87.5091 53.7701 87.5091 53.7701 87.7466 53.7707C87.9603 53.7712 87.9603 53.7712 88.1783 53.7718C88.547 53.8112 88.547 53.8112 89.0041 54.1159C89.0517 54.4967 89.0517 54.4967 89.0041 54.8776C88.5326 55.3491 88.0393 55.2271 87.3952 55.2314C87.2255 55.2309 87.0557 55.2304 86.8808 55.2299C86.627 55.2336 86.627 55.2336 86.3681 55.2373C86.206 55.2374 86.0439 55.2375 85.8769 55.2376C85.728 55.2381 85.5792 55.2385 85.4258 55.239C85.0431 55.1823 85.0431 55.1823 84.7607 54.9699C84.5861 54.7253 84.5861 54.7253 84.6147 54.411C84.8815 53.7748 85.187 53.7723 85.8233 53.7707Z" fill="#BF8E75"/>
<path d="M44.272 55.7531C44.5159 55.7484 44.5159 55.7484 44.7647 55.7436C44.9206 55.7428 45.0766 55.742 45.2372 55.7412C45.3806 55.7398 45.5241 55.7384 45.6719 55.7369C46.043 55.7912 46.043 55.7912 46.3242 56.0026C46.5 56.2482 46.5 56.2482 46.4619 56.572C46.3477 56.8576 46.3477 56.8576 46.1953 57.01C45.5901 57.0484 44.983 57.0382 44.3767 57.0385C44.2056 57.0404 44.0344 57.0423 43.8581 57.0442C43.6948 57.0445 43.5315 57.0448 43.3633 57.0451C43.1373 57.046 43.1373 57.046 42.9069 57.047C42.5391 57.01 42.5391 57.01 42.2344 56.7053C42.3878 55.447 43.1841 55.7583 44.272 55.7531Z" fill="#EAB599"/>
<path d="M58.3828 83.3672C59.338 83.7694 60.2932 84.1716 61.2773 84.5859C60.8058 85.0575 60.3187 85.3578 59.7444 85.6809C59.6473 85.737 59.5502 85.793 59.4501 85.8508C58.7266 86.2617 58.7266 86.2617 58.3828 86.2617C58.3828 85.3065 58.3828 84.3513 58.3828 83.3672Z" fill="#FCDF54"/>
<path d="M82.9104 65.0859C82.9607 66.0914 83.0109 67.0969 83.0627 68.1328C82.5097 68.1328 81.9567 68.1328 81.3869 68.1328C81.2008 66.0772 81.2008 66.0772 81.6476 65.5263C82.0668 65.269 82.4133 65.0859 82.9104 65.0859Z" fill="#C0D3DA"/>
<path d="M48.1758 66C48.8205 66.2149 49.3284 66.3995 49.9087 66.7236C50.0418 66.7951 50.175 66.8666 50.3122 66.9402C50.4612 67.0781 50.4612 67.0781 50.6133 67.2188C50.6133 67.5204 50.6133 67.822 50.6133 68.1328C49.4067 68.2082 49.4067 68.2082 48.1758 68.2852C48.1758 67.5311 48.1758 66.777 48.1758 66Z" fill="#D6D4CE"/>
<path d="M50.6133 65.0859C50.6133 65.7898 50.6133 66.4936 50.6133 67.2188C50.0757 67.0037 49.6156 66.7962 49.1184 66.5142C48.998 66.4462 48.8776 66.3783 48.7536 66.3083C48.6635 66.2568 48.5733 66.2054 48.4805 66.1523C48.4805 66.0518 48.4805 65.9513 48.4805 65.8477C48.7785 65.72 49.0769 65.5932 49.3755 65.4668C49.6247 65.3608 49.6247 65.3608 49.8789 65.2526C50.3086 65.0859 50.3086 65.0859 50.6133 65.0859Z" fill="#FDE055"/>
<path d="M100.43 47.5664C100.842 48.0685 101.103 48.5957 101.372 49.1851C101.453 49.3598 101.534 49.5346 101.617 49.7147C101.801 50.1562 101.801 50.1562 101.801 50.4609C101.399 50.4609 100.996 50.4609 100.582 50.4609C100.454 49.7977 100.413 49.1745 100.42 48.4995C100.422 48.3239 100.423 48.1484 100.424 47.9675C100.426 47.8351 100.428 47.7028 100.43 47.5664Z" fill="#FCDE54"/>
<path d="M61.5725 68.1055C62.039 68.134 62.039 68.134 62.3437 68.4387C62.3818 68.8196 62.3818 68.8196 62.3437 69.2004C62.039 69.5051 62.039 69.5051 61.6677 69.5527C61.2773 69.5051 61.2773 69.5051 60.9917 69.3242C60.8203 69.0481 60.8203 69.0481 60.8584 68.6482C61.0186 68.1408 61.0186 68.1408 61.5725 68.1055Z" fill="#F3F3F4"/>
<path d="M71.7988 68.1055C72.2463 68.134 72.2463 68.134 72.3987 68.2864C72.4272 68.7339 72.4272 68.7339 72.3987 69.2004C72.094 69.5051 72.094 69.5051 71.7131 69.5432C71.3323 69.5051 71.3323 69.5051 71.0276 69.2004C70.9895 68.8196 70.9895 68.8196 71.0276 68.4387C71.3323 68.134 71.3323 68.134 71.7988 68.1055Z" fill="#F8F8F9"/>
<path d="M50.7654 55.4883C50.866 55.5386 50.9665 55.5888 51.0701 55.6406C50.9193 56.445 50.7685 57.2494 50.6131 58.0781C50.1561 57.7734 50.1561 57.7734 50.0513 57.4759C49.9248 56.5459 49.9248 56.5459 50.165 56.109C50.3751 55.8596 50.3751 55.8596 50.7654 55.4883Z" fill="#E7B398"/>
<path d="M91.5937 50.3086C92.2877 50.3932 92.2877 50.3932 92.5078 50.6133C92.5363 50.9846 92.5363 50.9846 92.5078 51.375C92.4072 51.4755 92.3067 51.5761 92.2031 51.6797C91.5091 51.5951 91.5091 51.5951 91.289 51.375C91.2604 51.0037 91.2604 51.0037 91.289 50.6133C91.3895 50.5127 91.4901 50.4122 91.5937 50.3086Z" fill="#EFEFF1"/>
<path d="M82.6054 50.3086C83.2994 50.3932 83.2994 50.3932 83.5195 50.6133C83.548 50.9846 83.548 50.9846 83.5195 51.375C83.4189 51.4755 83.3184 51.5761 83.2148 51.6797C82.5208 51.5951 82.5208 51.5951 82.3007 51.375C82.2722 51.0037 82.2722 51.0037 82.3007 50.6133C82.4013 50.5127 82.5018 50.4122 82.6054 50.3086Z" fill="#EFEFF1"/>
<path d="M49.5468 52.4414C49.9467 52.4985 49.9467 52.4985 50.3085 52.5938C50.4037 52.9556 50.4037 52.9556 50.4609 53.3555C50.1562 53.6602 50.1562 53.6602 49.7658 53.6887C49.3945 53.6602 49.3945 53.6602 49.2421 53.5078C49.2136 53.1365 49.2136 53.1365 49.2421 52.7461C49.3427 52.6455 49.4432 52.545 49.5468 52.4414Z" fill="#F2F3F4"/>
<path d="M39.7968 52.4414C40.1967 52.4985 40.1967 52.4985 40.5585 52.5938C40.6537 52.9556 40.6537 52.9556 40.7109 53.3555C40.4062 53.6602 40.4062 53.6602 40.0158 53.6887C39.6445 53.6602 39.6445 53.6602 39.4921 53.5078C39.4636 53.1365 39.4636 53.1365 39.4921 52.7461C39.5927 52.6455 39.6932 52.545 39.7968 52.4414Z" fill="#F2F3F4"/>
<path d="M35.5312 37.207C35.5312 37.6641 35.5312 37.6641 35.3075 37.9397C35.2054 38.0394 35.1033 38.1392 34.998 38.2419C34.8881 38.3504 34.7781 38.4589 34.6648 38.5707C34.5485 38.6831 34.4323 38.7955 34.3125 38.9114C34.1962 39.0256 34.08 39.1398 33.9602 39.2574C33.6724 39.5399 33.3835 39.8212 33.0938 40.1016C33.0938 39.4566 33.463 39.1838 33.884 38.74C33.9944 38.62 33.9944 38.62 34.1069 38.4975C34.5512 38.021 35.0107 37.602 35.5312 37.207Z" fill="#AC5D20"/>
<path d="M72.0938 84.1289C72.0938 84.5311 72.0938 84.9333 72.0938 85.3477C71.5628 85.2493 71.1754 85.0275 70.7227 84.7383C71.6367 84.1289 71.6367 84.1289 72.0938 84.1289Z" fill="#F7DE57"/>
<path d="M81.3867 64.6289C81.745 64.7201 82.1006 64.8223 82.4531 64.9336C82.5034 65.0341 82.5537 65.1347 82.6055 65.2383C82.0022 65.5399 82.0022 65.5399 81.3867 65.8477C81.3867 65.4455 81.3867 65.0433 81.3867 64.6289Z" fill="#FADC58"/>
</g>
<defs>
<linearGradient id="paint0_linear_270_3655" x1="203.087" y1="43.5729" x2="-18.2236" y2="55.1336" gradientUnits="userSpaceOnUse">
<stop stop-color="#00ADEF"/>
<stop offset="1" stop-color="#D60F8C"/>
</linearGradient>
<clipPath id="clip0_270_3655">
<rect width="78" height="78" fill="white" transform="translate(27 27)"/>
</clipPath>
</defs>
</svg>
