<svg width="18" height="18" viewBox="0 0 18 18" fill="none" xmlns="http://www.w3.org/2000/svg">
<g clip-path="url(#clip0_6_380)">
<path d="M9.75 0.750221C9.75 0.551309 9.82902 0.360543 9.96967 0.219891C10.1103 0.0792388 10.3011 0.000221163 10.5 0.000221163C12.4885 0.00240486 14.3948 0.793282 15.8009 2.19933C17.2069 3.60538 17.9978 5.51177 18 7.50022C18 7.69913 17.921 7.8899 17.7803 8.03055C17.6397 8.1712 17.4489 8.25022 17.25 8.25022C17.0511 8.25022 16.8603 8.1712 16.7197 8.03055C16.579 7.8899 16.5 7.69913 16.5 7.50022C16.4982 5.90947 15.8655 4.38438 14.7407 3.25955C13.6158 2.13472 12.0908 1.50201 10.5 1.50022C10.3011 1.50022 10.1103 1.4212 9.96967 1.28055C9.82902 1.1399 9.75 0.949134 9.75 0.750221ZM10.5 4.50022C11.2956 4.50022 12.0587 4.81629 12.6213 5.3789C13.1839 5.94151 13.5 6.70457 13.5 7.50022C13.5 7.69913 13.579 7.8899 13.7197 8.03055C13.8603 8.1712 14.0511 8.25022 14.25 8.25022C14.4489 8.25022 14.6397 8.1712 14.7803 8.03055C14.921 7.8899 15 7.69913 15 7.50022C14.9988 6.30711 14.5243 5.16321 13.6807 4.31956C12.837 3.4759 11.6931 3.00141 10.5 3.00022C10.3011 3.00022 10.1103 3.07924 9.96967 3.21989C9.82902 3.36054 9.75 3.55131 9.75 3.75022C9.75 3.94913 9.82902 4.1399 9.96967 4.28055C10.1103 4.4212 10.3011 4.50022 10.5 4.50022ZM17.3197 12.5545C17.7544 12.9903 17.9985 13.5807 17.9985 14.1962C17.9985 14.8117 17.7544 15.4021 17.3197 15.838L16.6373 16.6247C10.4947 22.5055 -4.45275 7.56172 1.33725 1.39972L2.19975 0.649721C2.63607 0.227229 3.2212 -0.00649203 3.82853 -0.000877705C4.43586 0.00473662 5.01656 0.249235 5.445 0.679721C5.46825 0.702971 6.858 2.50822 6.858 2.50822C7.27037 2.94144 7.49993 3.51692 7.49895 4.11502C7.49797 4.71313 7.26653 5.28785 6.85275 5.71972L5.98425 6.81172C6.46488 7.97956 7.17155 9.04091 8.06363 9.93479C8.95572 10.8287 10.0156 11.5375 11.1825 12.0205L12.2812 11.1467C12.7132 10.7333 13.2878 10.5021 13.8857 10.5013C14.4836 10.5004 15.0589 10.73 15.492 11.1422C15.492 11.1422 17.2965 12.5312 17.3197 12.5545ZM16.2878 13.645C16.2878 13.645 14.493 12.2642 14.4697 12.241C14.3152 12.0878 14.1065 12.0018 13.8889 12.0018C13.6713 12.0018 13.4625 12.0878 13.308 12.241C13.2877 12.262 11.775 13.4672 11.775 13.4672C11.6731 13.5484 11.5517 13.6016 11.423 13.6215C11.2942 13.6415 11.1625 13.6276 11.0407 13.5812C9.52909 13.0184 8.15605 12.1373 7.01462 10.9975C5.8732 9.85779 4.99005 8.48604 4.425 6.97522C4.3749 6.85181 4.35856 6.71729 4.37768 6.58547C4.39679 6.45366 4.45066 6.32932 4.53375 6.22522C4.53375 6.22522 5.739 4.71172 5.75925 4.69222C5.91245 4.53771 5.99841 4.32893 5.99841 4.11135C5.99841 3.89376 5.91245 3.68498 5.75925 3.53047C5.736 3.50797 4.35525 1.71172 4.35525 1.71172C4.19842 1.5711 3.99375 1.49579 3.78318 1.50123C3.57262 1.50667 3.3721 1.59244 3.22275 1.74097L2.36025 2.49097C-1.87125 7.57897 11.082 19.8137 15.5408 15.6002L16.224 14.8127C16.3841 14.6644 16.4803 14.4597 16.4922 14.2417C16.5041 14.0238 16.4308 13.8098 16.2878 13.645Z" fill="white"/>
</g>
<defs>
<clipPath id="clip0_6_380">
<rect width="18" height="18" fill="white"/>
</clipPath>
</defs>
</svg>
