<svg width="76" height="76" viewBox="0 0 76 76" fill="none" xmlns="http://www.w3.org/2000/svg">
<g filter="url(#filter0_i_141_16415)">
<circle cx="38" cy="38" r="38" fill="white"/>
</g>
<path d="M34 34.0013H24.208L26.7667 27.2506C27.0569 26.493 27.5696 25.8408 28.2373 25.3799C28.9051 24.9189 29.6966 24.6708 30.508 24.668H34V34.0013ZM36.6667 34.0013H48.4333L43.12 26.3813C42.7516 25.8525 42.2608 25.4205 41.6895 25.1222C41.1181 24.8239 40.4832 24.6681 39.8387 24.668H36.6667V34.0013ZM54 40.668C54 39.6071 53.5786 38.5897 52.8284 37.8395C52.0783 37.0894 51.0609 36.668 50 36.668H26C24.9391 36.668 23.9217 37.0894 23.1716 37.8395C22.4214 38.5897 22 39.6071 22 40.668V46.0013H54V40.668ZM32.5893 48.668C33.372 53.94 25.2933 53.9373 26.0773 48.668H32.5893ZM43.4107 48.668C42.628 53.94 50.7067 53.9373 49.9227 48.668H43.4107Z" fill="url(#paint0_linear_141_16415)"/>
<defs>
<filter id="filter0_i_141_16415" x="0" y="0" width="94" height="91" filterUnits="userSpaceOnUse" color-interpolation-filters="sRGB">
<feFlood flood-opacity="0" result="BackgroundImageFix"/>
<feBlend mode="normal" in="SourceGraphic" in2="BackgroundImageFix" result="shape"/>
<feColorMatrix in="SourceAlpha" type="matrix" values="0 0 0 0 0 0 0 0 0 0 0 0 0 0 0 0 0 0 127 0" result="hardAlpha"/>
<feOffset dx="18" dy="15"/>
<feGaussianBlur stdDeviation="17.5"/>
<feComposite in2="hardAlpha" operator="arithmetic" k2="-1" k3="1"/>
<feColorMatrix type="matrix" values="0 0 0 0 0 0 0 0 0 0.498039 0 0 0 0 0.992157 0 0 0 0.09 0"/>
<feBlend mode="normal" in2="shape" result="effect1_innerShadow_141_16415"/>
</filter>
<linearGradient id="paint0_linear_141_16415" x1="71.2333" y1="33.8952" x2="17.6274" y2="37.1008" gradientUnits="userSpaceOnUse">
<stop stop-color="#00ADEF"/>
<stop offset="1" stop-color="#D60F8C"/>
</linearGradient>
</defs>
</svg>
