<svg width="76" height="76" viewBox="0 0 76 76" fill="none" xmlns="http://www.w3.org/2000/svg">
<g filter="url(#filter0_i_141_16359)">
<circle cx="38" cy="38" r="38" fill="white"/>
</g>
<g clip-path="url(#clip0_141_16359)">
<path d="M46 38C41.5813 38 38 41.5813 38 46C38 50.4187 41.5813 54 46 54C50.4187 54 54 50.4187 54 46C54 41.5813 50.4187 38 46 38ZM49.5827 46.992L46 50.576V47.3347H42V44.668H46V41.396L49.5827 44.9787C50.1387 45.5347 50.1387 46.436 49.5827 46.992ZM35.4253 47.3333H34V44.6667H35.4253C35.5413 43.7347 35.7747 42.8413 36.116 42H34V39.3333H37.68C39.0987 37.564 41.0707 36.2667 43.3333 35.6827V26C43.3333 23.7947 41.5387 22 39.3333 22H26C23.7947 22 22 23.7947 22 26V54H38.9613C37.056 52.3227 35.7573 49.9813 35.4253 47.3333ZM34 28.6667H38V31.3333H34V28.6667ZM34 34H38V36.6667H34V34ZM31.3333 47.3333H27.3333V44.6667H31.3333V47.3333ZM31.3333 42H27.3333V39.3333H31.3333V42ZM31.3333 36.6667H27.3333V34H31.3333V36.6667ZM31.3333 31.3333H27.3333V28.6667H31.3333V31.3333Z" fill="url(#paint0_linear_141_16359)"/>
</g>
<defs>
<filter id="filter0_i_141_16359" x="0" y="0" width="94" height="91" filterUnits="userSpaceOnUse" color-interpolation-filters="sRGB">
<feFlood flood-opacity="0" result="BackgroundImageFix"/>
<feBlend mode="normal" in="SourceGraphic" in2="BackgroundImageFix" result="shape"/>
<feColorMatrix in="SourceAlpha" type="matrix" values="0 0 0 0 0 0 0 0 0 0 0 0 0 0 0 0 0 0 127 0" result="hardAlpha"/>
<feOffset dx="18" dy="15"/>
<feGaussianBlur stdDeviation="17.5"/>
<feComposite in2="hardAlpha" operator="arithmetic" k2="-1" k3="1"/>
<feColorMatrix type="matrix" values="0 0 0 0 0 0 0 0 0 0.498039 0 0 0 0 0.992157 0 0 0 0.09 0"/>
<feBlend mode="normal" in2="shape" result="effect1_innerShadow_141_16359"/>
</filter>
<linearGradient id="paint0_linear_141_16359" x1="71.2333" y1="32.5631" x2="17.5821" y2="35.3657" gradientUnits="userSpaceOnUse">
<stop stop-color="#00ADEF"/>
<stop offset="1" stop-color="#D60F8C"/>
</linearGradient>
<clipPath id="clip0_141_16359">
<rect width="32" height="32" fill="white" transform="translate(22 22)"/>
</clipPath>
</defs>
</svg>
