<svg width="64" height="64" viewBox="0 0 64 64" fill="none" xmlns="http://www.w3.org/2000/svg">
<circle cx="32" cy="32" r="32" fill="url(#paint0_linear_6_498)"/>
<circle cx="32" cy="32" r="28" fill="white"/>
<path d="M29.3979 14.8616C29.4877 14.8561 29.4877 14.8561 29.5794 14.8505C29.7805 14.8387 29.9816 14.829 30.1829 14.8195C30.3272 14.8117 30.4715 14.8038 30.6158 14.7959C31.95 14.7255 33.2857 14.6866 34.6214 14.6554C35.5165 14.634 36.4092 14.6038 37.3029 14.5495C40.5823 14.3553 44.3487 14.137 46.9843 16.4506C49.0653 18.367 49.3834 20.838 49.5061 23.5177C49.6056 25.9429 49.5235 28.3707 49.4304 30.7947C49.3927 31.7862 49.3682 32.7774 49.3521 33.7695C49.3504 33.8751 49.3504 33.8751 49.3487 33.9828C49.3441 34.2659 49.3396 34.549 49.3353 34.832C49.3013 37.0443 49.2543 39.2562 49.1778 41.4675C49.1722 41.6349 49.1669 41.8023 49.1618 41.9697C49.1523 42.2748 49.1411 42.5797 49.1296 42.8847C49.1269 42.9741 49.1243 43.0635 49.1215 43.1556C49.1181 43.237 49.1147 43.3184 49.1112 43.4022C49.1087 43.4725 49.1061 43.5429 49.1035 43.6153C49.0644 43.8338 49.0004 43.9382 48.8477 44.0977C48.6382 44.1675 48.5118 44.1812 48.2951 44.1811C48.2272 44.1812 48.1592 44.1813 48.0893 44.1815C48.0145 44.1813 47.9398 44.1811 47.8628 44.1808C47.7835 44.1809 47.7042 44.181 47.6225 44.181C47.3555 44.1812 47.0885 44.1808 46.8215 44.1803C46.6306 44.1803 46.4398 44.1803 46.2489 44.1804C45.8373 44.1804 45.4256 44.1802 45.014 44.1798C44.4189 44.1792 43.8237 44.179 43.2286 44.1789C42.2631 44.1787 41.2975 44.1782 40.332 44.1775C39.394 44.1768 38.4559 44.1763 37.5179 44.176C37.4312 44.176 37.4312 44.176 37.3427 44.1759C37.0528 44.1758 36.7628 44.1757 36.4728 44.1757C34.0665 44.1749 31.6602 44.1736 29.2539 44.1719C29.336 44.2663 29.4181 44.3607 29.5004 44.455C29.5461 44.5076 29.5918 44.5601 29.639 44.6143C29.8116 44.8087 29.9919 44.9913 30.177 45.1739C30.2412 45.2374 30.3054 45.3009 30.3715 45.3664C30.4191 45.4131 30.4666 45.4598 30.5156 45.5079C30.3966 45.8051 30.1875 46.0034 29.963 46.2234C29.9237 46.2625 29.8844 46.3016 29.8439 46.3419C29.7187 46.4663 29.593 46.5901 29.4673 46.7139C29.3821 46.7983 29.297 46.8828 29.2119 46.9673C29.0036 47.1739 28.7949 47.3801 28.5859 47.586C28.359 47.4856 28.213 47.3756 28.0458 47.1931C27.9794 47.123 27.9794 47.123 27.9117 47.0515C27.8197 46.9529 27.7283 46.8538 27.6375 46.7541C27.394 46.4783 27.394 46.4783 27.0572 46.3909C26.8579 46.4824 26.6635 46.5768 26.4707 46.6814C25.9995 46.9241 25.4164 47.2149 24.875 47.2149C24.875 47.8272 24.875 48.4395 24.875 49.0704C23.9443 49.0704 23.0136 49.0704 22.0547 49.0704C22.0547 48.458 22.0547 47.8457 22.0547 47.2149C21.6138 47.1047 21.6138 47.1047 21.1641 46.9922C20.9749 46.9219 20.7872 46.847 20.6028 46.7649C20.517 46.7273 20.4311 46.6897 20.3427 46.651C20.125 46.5469 20.125 46.5469 19.9023 46.3985C19.6389 46.4205 19.5131 46.5387 19.3329 46.7235C19.259 46.7985 19.259 46.7985 19.1836 46.875C19.133 46.9274 19.0824 46.9799 19.0303 47.034C18.9785 47.0867 18.9268 47.1395 18.8734 47.1939C18.7458 47.3241 18.6188 47.4548 18.4922 47.586C18.1949 47.467 17.9966 47.2579 17.7767 47.0334C17.7376 46.9941 17.6984 46.9547 17.6581 46.9142C17.5338 46.789 17.41 46.6634 17.2861 46.5376C17.2017 46.4525 17.1172 46.3673 17.0327 46.2822C16.8261 46.074 16.62 45.8653 16.4141 45.6563C16.5145 45.4294 16.6244 45.2834 16.8069 45.1162C16.8536 45.0719 16.9004 45.0277 16.9485 44.9821C17.0471 44.8901 17.1463 44.7987 17.246 44.7078C17.5218 44.4643 17.5218 44.4643 17.6091 44.1276C17.5177 43.9282 17.4232 43.7339 17.3186 43.5411C17.076 43.0698 16.7852 42.4868 16.7852 41.9454C16.1729 41.9454 15.5605 41.9454 14.9297 41.9454C14.9297 41.0147 14.9297 40.084 14.9297 39.125C15.542 39.125 16.1543 39.125 16.7852 39.125C16.8586 38.8311 16.9321 38.5372 17.0078 38.2344C17.0782 38.0452 17.1531 37.8576 17.2351 37.6731C17.2727 37.5873 17.3103 37.5015 17.349 37.4131C17.4531 37.1954 17.4531 37.1954 17.6016 36.9727C17.5795 36.7093 17.4614 36.5834 17.2766 36.4033C17.2266 36.354 17.1766 36.3048 17.1251 36.254C17.0726 36.2034 17.0201 36.1528 16.9661 36.1006C16.9133 36.0489 16.8605 35.9971 16.8062 35.9438C16.676 35.8162 16.5452 35.6891 16.4141 35.5625C16.5331 35.2653 16.7422 35.067 16.9666 34.847C17.006 34.8079 17.0453 34.7688 17.0858 34.7285C17.211 34.6041 17.3367 34.4803 17.4624 34.3565C17.5476 34.2721 17.6327 34.1876 17.7178 34.1031C17.9261 33.8965 18.1348 33.6903 18.3438 33.4844C18.5707 33.5848 18.7167 33.6948 18.8839 33.8773C18.9502 33.9474 18.9502 33.9474 19.018 34.0189C19.11 34.1175 19.2014 34.2166 19.2922 34.3163C19.5357 34.5921 19.5357 34.5921 19.8725 34.6795C20.0718 34.588 20.2661 34.4936 20.459 34.389C20.9302 34.1463 21.5132 33.8555 22.0547 33.8555C22.0547 33.2432 22.0547 32.6309 22.0547 32C22.9854 32 23.9161 32 24.875 32C24.875 32.6124 24.875 33.2247 24.875 33.8555C25.3159 33.9657 25.3159 33.9657 25.7656 34.0782C25.9548 34.1485 26.1425 34.2234 26.3269 34.3055C26.4556 34.3619 26.4556 34.3619 26.587 34.4194C26.8047 34.5235 26.8047 34.5235 27.0273 34.6719C27.506 34.619 27.8833 34.1766 28.1915 33.8401C28.6793 33.2184 28.5835 32.4374 28.566 31.6867C28.5659 31.5072 28.5663 31.3276 28.5672 31.1481C28.5682 30.7136 28.564 30.2793 28.5577 29.8449C28.5506 29.3385 28.5502 28.8322 28.5501 28.3258C28.5499 27.4225 28.545 26.5194 28.5369 25.6162C28.529 24.7403 28.5226 23.8644 28.5188 22.9884C28.5185 22.9344 28.5183 22.8803 28.518 22.8246C28.5155 22.2343 28.5134 21.644 28.5117 21.0537C28.5116 21.0018 28.5114 20.95 28.5112 20.8966C28.51 20.4778 28.51 20.4778 28.5095 20.2748C28.5079 19.6685 28.5048 19.0622 28.4992 18.4559C28.4953 18.0314 28.4927 17.6069 28.4906 17.1825C28.4895 17.0082 28.4878 16.834 28.4856 16.6597C28.4826 16.4225 28.4814 16.1852 28.4807 15.948C28.4794 15.8785 28.478 15.8091 28.4766 15.7376C28.4774 15.4576 28.4795 15.2803 28.6253 15.0373C28.8773 14.8894 29.1126 14.8739 29.3979 14.8616ZM20.3816 37.8433C19.7423 38.6404 19.3183 39.666 19.357 40.6993C19.5064 41.8982 19.9479 42.9323 20.8904 43.722C21.7994 44.3979 22.872 44.7373 23.998 44.5853C25.1373 44.3796 26.0883 43.8627 26.7861 42.9288C27.2112 42.2848 27.4616 41.5979 27.5469 40.8321C27.5562 40.754 27.5562 40.754 27.5657 40.6744C27.6262 39.6444 27.1725 38.5827 26.5264 37.8077C25.7266 36.9594 24.6536 36.4853 23.4927 36.4253C22.3121 36.4569 21.1694 36.9597 20.3816 37.8433Z" fill="#D7EBFD"/>
<path d="M22.0547 32C22.9854 32 23.9161 32 24.875 32C24.875 32.6123 24.875 33.2246 24.875 33.8555C25.1689 33.9289 25.4628 34.0024 25.7656 34.0781C25.9548 34.1485 26.1425 34.2234 26.3269 34.3054C26.4127 34.343 26.4985 34.3806 26.587 34.4194C26.8047 34.5234 26.8047 34.5234 27.0273 34.6719C27.2908 34.6498 27.4166 34.5317 27.5967 34.3469C27.646 34.2969 27.6953 34.2469 27.746 34.1954C27.7967 34.1429 27.8473 34.0904 27.8994 34.0364C27.9512 33.9836 28.0029 33.9309 28.0563 33.8765C28.1839 33.7463 28.3109 33.6156 28.4375 33.4844C28.8963 33.8632 29.3131 34.2773 29.7317 34.6997C29.8001 34.7685 29.8686 34.8373 29.9391 34.9082C30.1067 35.0766 30.2741 35.2453 30.4414 35.4141C30.3409 35.641 30.2301 35.7884 30.0486 35.9568C29.9785 36.0237 29.9785 36.0237 29.9069 36.0919C29.8082 36.1847 29.709 36.2771 29.6095 36.369C29.563 36.4136 29.5166 36.4582 29.4687 36.5042C29.4258 36.5442 29.3828 36.5843 29.3385 36.6256C29.2375 36.7454 29.2375 36.7454 29.2693 36.8965C29.3267 37.0433 29.3884 37.1828 29.46 37.3232C29.4859 37.3755 29.5118 37.4277 29.5385 37.4816C29.5922 37.589 29.6465 37.6961 29.7014 37.8028C29.9278 38.2644 29.9716 38.5819 30.0703 39.125C30.7071 39.125 31.3439 39.125 32 39.125C32 40.0557 32 40.9864 32 41.9453C31.3632 41.9453 30.7264 41.9453 30.0703 41.9453C30.0213 42.1902 29.9723 42.4352 29.9219 42.6875C29.834 42.9391 29.834 42.9391 29.741 43.1514C29.7087 43.2261 29.6765 43.3008 29.6433 43.3778C29.5719 43.5324 29.4932 43.6837 29.4116 43.8333C29.3093 44.0663 29.3293 44.1539 29.4023 44.3945C29.5109 44.5436 29.5109 44.5436 29.6531 44.6743C29.7031 44.7233 29.7531 44.7724 29.8046 44.8229C29.8571 44.8729 29.9096 44.9229 29.9636 44.9744C30.0164 45.0258 30.0691 45.0772 30.1235 45.1302C30.2536 45.2568 30.3843 45.3826 30.5156 45.5078C30.3966 45.8051 30.1875 46.0034 29.963 46.2233C29.9237 46.2624 29.8844 46.3016 29.8439 46.3419C29.7187 46.4662 29.593 46.59 29.4673 46.7139C29.3821 46.7983 29.297 46.8828 29.2119 46.9673C29.0036 47.1739 28.7949 47.38 28.5859 47.5859C28.359 47.4855 28.213 47.3756 28.0458 47.1931C27.9794 47.123 27.9794 47.123 27.9117 47.0515C27.8197 46.9529 27.7283 46.8537 27.6375 46.754C27.394 46.4782 27.394 46.4782 27.0572 46.3909C26.8579 46.4823 26.6635 46.5768 26.4707 46.6814C25.9995 46.924 25.4164 47.2148 24.875 47.2148C24.875 47.8271 24.875 48.4395 24.875 49.0703C23.9443 49.0703 23.0136 49.0703 22.0547 49.0703C22.0547 48.458 22.0547 47.8457 22.0547 47.2148C21.7608 47.1414 21.4669 47.0679 21.1641 46.9922C20.9749 46.9218 20.7872 46.8469 20.6028 46.7649C20.517 46.7273 20.4311 46.6897 20.3427 46.651C20.125 46.5469 20.125 46.5469 19.9023 46.3984C19.6389 46.4205 19.5131 46.5386 19.3329 46.7234C19.2837 46.7734 19.2344 46.8234 19.1836 46.8749C19.133 46.9274 19.0824 46.9799 19.0303 47.0339C18.9785 47.0867 18.9268 47.1395 18.8734 47.1938C18.7458 47.324 18.6188 47.4548 18.4922 47.5859C18.1949 47.4669 17.9966 47.2578 17.7767 47.0334C17.718 46.9744 17.718 46.9744 17.6581 46.9142C17.5338 46.789 17.41 46.6633 17.2861 46.5376C17.2017 46.4524 17.1172 46.3673 17.0327 46.2822C16.8261 46.0739 16.62 45.8652 16.4141 45.6562C16.5145 45.4293 16.6244 45.2833 16.8069 45.1161C16.8536 45.0719 16.9004 45.0276 16.9485 44.982C17.0471 44.89 17.1463 44.7986 17.246 44.7078C17.5218 44.4643 17.5218 44.4643 17.6091 44.1275C17.5177 43.9282 17.4232 43.7339 17.3186 43.541C17.076 43.0698 16.7852 42.4868 16.7852 41.9453C16.1729 41.9453 15.5605 41.9453 14.9297 41.9453C14.9297 41.0146 14.9297 40.0839 14.9297 39.125C15.542 39.125 16.1543 39.125 16.7852 39.125C16.8586 38.8311 16.9321 38.5372 17.0078 38.2344C17.0782 38.0452 17.1531 37.8575 17.2351 37.6731C17.2915 37.5444 17.2915 37.5444 17.349 37.413C17.4531 37.1953 17.4531 37.1953 17.6016 36.9727C17.5795 36.7092 17.4614 36.5834 17.2766 36.4033C17.2266 36.354 17.1766 36.3047 17.1251 36.254C17.0726 36.2033 17.0201 36.1527 16.9661 36.1006C16.9133 36.0488 16.8605 35.9971 16.8062 35.9437C16.676 35.8161 16.5452 35.6891 16.4141 35.5625C16.5331 35.2652 16.7422 35.0669 16.9666 34.847C17.006 34.8079 17.0453 34.7688 17.0858 34.7284C17.211 34.6041 17.3367 34.4803 17.4624 34.3564C17.5476 34.272 17.6327 34.1876 17.7178 34.1031C17.9261 33.8964 18.1348 33.6903 18.3438 33.4844C18.5707 33.5848 18.7167 33.6948 18.8839 33.8772C18.9281 33.9239 18.9724 33.9707 19.018 34.0188C19.11 34.1174 19.2014 34.2166 19.2922 34.3163C19.5357 34.5921 19.5357 34.5921 19.8725 34.6794C20.0718 34.588 20.2661 34.4935 20.459 34.3889C20.9302 34.1463 21.5132 33.8555 22.0547 33.8555C22.0547 33.2432 22.0547 32.6309 22.0547 32ZM20.3816 37.8433C19.7423 38.6404 19.3183 39.6659 19.357 40.6992C19.5064 41.8981 19.9479 42.9322 20.8904 43.7219C21.7994 44.3978 22.872 44.7373 23.998 44.5853C25.1373 44.3795 26.0883 43.8626 26.7861 42.9287C27.2112 42.2848 27.4616 41.5979 27.5469 40.832C27.5562 40.754 27.5562 40.754 27.5657 40.6743C27.6262 39.6444 27.1725 38.5827 26.5264 37.8076C25.7266 36.9594 24.6536 36.4853 23.4927 36.4253C22.3121 36.4569 21.1694 36.9597 20.3816 37.8433Z" fill="#FEB030"/>
<path d="M38.1184 21.3217C38.4074 21.3927 38.5141 21.4384 38.6797 21.6835C38.7307 21.8876 38.7307 21.8876 38.6797 22.1288C38.336 22.5974 37.8918 23.0018 37.4815 23.4111C37.3867 23.506 37.3867 23.506 37.2901 23.6027C37.1576 23.7352 37.0251 23.8676 36.8924 23.9999C36.6888 24.2032 36.4855 24.4069 36.2822 24.6106C36.1532 24.7396 36.0241 24.8686 35.895 24.9975C35.8341 25.0586 35.7732 25.1197 35.7104 25.1826C35.6542 25.2386 35.5979 25.2946 35.5399 25.3524C35.4904 25.4018 35.4409 25.4513 35.3899 25.5023C35.2194 25.6598 35.138 25.6895 34.9038 25.7099C34.6719 25.6913 34.6719 25.6913 34.5456 25.5805C34.3022 25.4209 34.0697 25.4387 33.7882 25.4411C33.6721 25.4398 33.5561 25.4385 33.44 25.4372C33.2578 25.4364 33.0755 25.4362 32.8933 25.4363C32.7169 25.436 32.5405 25.434 32.3641 25.4318C32.3098 25.4324 32.2554 25.433 32.1994 25.4337C31.9441 25.4299 31.803 25.4139 31.5969 25.2576C31.2825 24.8254 31.3838 24.1881 31.3803 23.6735C31.379 23.5408 31.377 23.408 31.3742 23.2753C31.3701 23.0835 31.3685 22.8918 31.3674 22.6999C31.3657 22.6409 31.364 22.5818 31.3623 22.5209C31.3635 22.2 31.3766 22.0904 31.5896 21.8333C31.6515 21.7839 31.7135 21.7344 31.7773 21.6835C31.8018 21.659 31.8263 21.6345 31.8516 21.6093C32.0559 21.5999 32.2583 21.5953 32.4627 21.5942C32.5243 21.5938 32.5859 21.5934 32.6494 21.5929C32.7802 21.5922 32.911 21.5917 33.0417 21.5914C33.2413 21.5907 33.4408 21.5884 33.6404 21.5861C33.7673 21.5856 33.8943 21.5852 34.0213 21.5849C34.1106 21.5835 34.1106 21.5835 34.2017 21.5821C34.6317 21.5838 34.88 21.6689 35.1914 21.9804C35.2151 22.1675 35.2151 22.1675 35.2221 22.4007C35.2264 22.5256 35.2264 22.5256 35.2308 22.653C35.2331 22.7402 35.2354 22.8275 35.2378 22.9174C35.2421 23.0491 35.2421 23.0491 35.2465 23.1835C35.2535 23.401 35.2599 23.6184 35.2656 23.8358C35.2949 23.8064 35.3241 23.777 35.3543 23.7467C35.6587 23.4407 35.9633 23.1349 36.2681 22.8293C36.3818 22.7152 36.4955 22.601 36.6091 22.4867C36.7724 22.3226 36.9358 22.1587 37.0994 21.9949C37.1502 21.9437 37.201 21.8925 37.2533 21.8398C37.3008 21.7922 37.3484 21.7447 37.3973 21.6957C37.439 21.6538 37.4807 21.612 37.5237 21.5689C37.7341 21.3745 37.8266 21.3111 38.1184 21.3217Z" fill="#55C4CC"/>
<path d="M38.3828 28.3632C38.5684 28.5256 38.5684 28.5256 38.6797 28.7343C38.6959 28.9775 38.6545 29.1157 38.5059 29.3096C38.1632 29.6944 37.8071 30.0631 37.4423 30.4269C37.3826 30.4866 37.323 30.5464 37.2615 30.608C37.1363 30.7332 37.0111 30.8583 36.8857 30.9833C36.6936 31.175 36.5019 31.3671 36.3102 31.5593C36.1882 31.6813 36.0661 31.8032 35.944 31.9251C35.8868 31.9826 35.8295 32.04 35.7704 32.0992C35.7172 32.1523 35.6639 32.2053 35.609 32.26C35.5389 32.33 35.5389 32.33 35.4674 32.4014C35.2796 32.5753 35.1566 32.6637 34.8992 32.6911C34.6719 32.6679 34.6719 32.6679 34.5447 32.5569C34.3063 32.4001 34.0829 32.4153 33.8071 32.4177C33.6947 32.4164 33.5824 32.4151 33.47 32.4138C33.2938 32.4131 33.1176 32.4128 32.9414 32.4129C32.7707 32.4127 32.6001 32.4106 32.4294 32.4084C32.377 32.409 32.3247 32.4097 32.2707 32.4103C32.007 32.4063 31.8596 32.3761 31.6346 32.2342C31.3516 31.9403 31.3921 31.6108 31.3886 31.2259C31.388 31.1645 31.3874 31.1031 31.3868 31.0398C31.3857 30.9099 31.3849 30.78 31.3844 30.6501C31.3831 30.4519 31.3798 30.2537 31.3765 30.0555C31.3758 29.9292 31.3752 29.8029 31.3747 29.6766C31.3734 29.6175 31.3721 29.5584 31.3707 29.4975C31.3719 29.2036 31.3852 29.0642 31.5474 28.81C31.9364 28.4357 32.5985 28.5632 33.1108 28.5599C33.2512 28.5587 33.3917 28.5566 33.5321 28.5538C33.7347 28.5497 33.9372 28.5481 34.1399 28.547C34.2337 28.5445 34.2337 28.5445 34.3295 28.5419C34.6436 28.5431 34.7825 28.5589 35.0451 28.7462C35.2119 28.9864 35.2394 29.1094 35.2439 29.3991C35.2461 29.4816 35.2482 29.5641 35.2504 29.6492C35.2509 29.7345 35.2513 29.8199 35.2517 29.9079C35.2536 29.9947 35.2555 30.0816 35.2574 30.171C35.2617 30.3848 35.2644 30.5986 35.2656 30.8124C35.296 30.7819 35.3263 30.7514 35.3576 30.72C35.6728 30.4031 35.9883 30.0865 36.3039 29.7701C36.4218 29.6519 36.5395 29.5336 36.6572 29.4152C36.8262 29.2454 36.9954 29.0758 37.1646 28.9062C37.2438 28.8265 37.2438 28.8265 37.3246 28.7451C37.3982 28.6715 37.3982 28.6715 37.4732 28.5965C37.5164 28.5531 37.5595 28.5098 37.604 28.4651C37.8585 28.2311 38.0588 28.285 38.3828 28.3632Z" fill="#8AC9FD"/>
<path d="M44.0977 14.9297C44.4106 15.0862 44.615 15.2777 44.8575 15.5218C44.9031 15.5672 44.9488 15.6126 44.9958 15.6594C45.1463 15.8093 45.2964 15.9597 45.4464 16.1102C45.5507 16.2145 45.6551 16.3188 45.7596 16.423C45.9782 16.6414 46.1965 16.86 46.4146 17.0789C46.6948 17.3599 46.9757 17.6403 47.2568 17.9205C47.4723 18.1355 47.6876 18.3509 47.9027 18.5665C48.0062 18.67 48.1098 18.7735 48.2135 18.8768C48.3579 19.0209 48.5019 19.1655 48.6458 19.3102C48.7107 19.3746 48.7107 19.3746 48.7769 19.4404C49.0703 19.7369 49.0703 19.7369 49.0703 19.9023C47.4293 19.9023 45.7884 19.9023 44.0977 19.9023C44.0977 18.2614 44.0977 16.6204 44.0977 14.9297Z" fill="#8CCAFE"/>
<path d="M39.6937 29.8822C39.7664 29.8816 39.839 29.8809 39.9139 29.8803C40.1543 29.8786 40.3945 29.8791 40.6349 29.8797C40.8018 29.8794 40.9687 29.8789 41.1357 29.8784C41.4856 29.8776 41.8354 29.8779 42.1853 29.879C42.6341 29.8803 43.0828 29.8785 43.5315 29.8759C43.8763 29.8743 44.221 29.8744 44.5657 29.875C44.7311 29.8751 44.8966 29.8746 45.0621 29.8735C45.2933 29.8722 45.5244 29.8733 45.7555 29.8749C45.8584 29.8736 45.8584 29.8736 45.9633 29.8723C46.4249 29.8792 46.4249 29.8792 46.6656 30.0937C46.8099 30.3703 46.7866 30.5172 46.6953 30.8124C46.4832 31.0463 46.3167 31.1278 46.0088 31.147C45.8816 31.1487 45.7543 31.1489 45.6271 31.1477C45.5574 31.1482 45.4878 31.1487 45.416 31.1493C45.186 31.1506 44.9561 31.1497 44.7262 31.1487C44.5662 31.1489 44.4062 31.1492 44.2462 31.1496C43.9111 31.15 43.5759 31.1494 43.2408 31.148C42.8112 31.1463 42.3818 31.1473 41.9522 31.149C41.6219 31.1501 41.2916 31.1498 40.9613 31.149C40.8029 31.1488 40.6445 31.1491 40.4862 31.1497C40.2648 31.1505 40.0435 31.1494 39.8221 31.1477C39.7567 31.1483 39.6913 31.1489 39.6239 31.1495C39.3193 31.1453 39.1639 31.1338 38.9005 30.9677C38.7233 30.78 38.6844 30.7077 38.6565 30.4506C38.6797 30.2187 38.6797 30.2187 38.7848 30.0582C39.0758 29.8512 39.3446 29.8797 39.6937 29.8822Z" fill="#C6CBD4"/>
<path d="M39.8305 33.2892C39.935 33.2884 39.935 33.2884 40.0417 33.2876C40.2712 33.2863 40.5007 33.2878 40.7303 33.2894C40.8901 33.2893 41.05 33.2891 41.2099 33.2888C41.5446 33.2886 41.8793 33.2897 42.214 33.2917C42.643 33.2943 43.0719 33.2938 43.5008 33.2924C43.8308 33.2916 44.1608 33.2923 44.4908 33.2934C44.649 33.2938 44.8071 33.2938 44.9653 33.2933C45.1863 33.2929 45.4073 33.2944 45.6283 33.2964C45.6936 33.296 45.7588 33.2955 45.8261 33.295C46.1256 33.2997 46.2865 33.3133 46.548 33.471C46.755 33.6986 46.7802 33.8472 46.7695 34.1524C46.6218 34.3608 46.503 34.5 46.2465 34.5578C46.0567 34.572 45.8701 34.5737 45.6797 34.5716C45.5717 34.5725 45.5717 34.5725 45.4616 34.5735C45.2241 34.5752 44.9866 34.5741 44.7491 34.5728C44.5839 34.5731 44.4188 34.5734 44.2536 34.5739C43.9076 34.5744 43.5617 34.5736 43.2158 34.5719C42.7721 34.5698 42.3285 34.571 41.8848 34.5732C41.5438 34.5746 41.2029 34.5742 40.8619 34.5732C40.6983 34.5729 40.5347 34.5732 40.3711 34.5741C40.1426 34.5751 39.9142 34.5736 39.6857 34.5716C39.584 34.5727 39.584 34.5727 39.4804 34.5738C39.0229 34.5661 39.0229 34.5661 38.7867 34.3489C38.653 34.1034 38.6224 33.9821 38.6797 33.7071C39.04 33.3168 39.3135 33.2823 39.8305 33.2892Z" fill="#C6CBD4"/>
<path d="M39.6857 26.3857C39.7934 26.3847 39.7934 26.3847 39.9034 26.3837C40.141 26.3821 40.3785 26.3831 40.6161 26.3844C40.7811 26.3842 40.9462 26.3838 41.1113 26.3833C41.4574 26.3828 41.8035 26.3836 42.1496 26.3853C42.5932 26.3874 43.0367 26.3862 43.4803 26.384C43.8212 26.3826 44.1622 26.3831 44.5031 26.384C44.6667 26.3843 44.8302 26.384 44.9938 26.3831C45.2225 26.3822 45.451 26.3836 45.6797 26.3857C45.7473 26.3849 45.8149 26.3842 45.8846 26.3834C46.2146 26.3889 46.3566 26.4024 46.6283 26.6057C46.7695 26.8048 46.7695 26.8048 46.7788 27.0692C46.6769 27.3805 46.6032 27.4531 46.3242 27.6212C46.0917 27.664 45.8631 27.6618 45.6271 27.6596C45.5575 27.6601 45.4878 27.6606 45.416 27.6612C45.186 27.6625 44.9562 27.6616 44.7262 27.6606C44.5662 27.6608 44.4062 27.6611 44.2462 27.6615C43.9111 27.6619 43.5759 27.6613 43.2408 27.6599C42.8113 27.6582 42.3818 27.6592 41.9522 27.661C41.6219 27.662 41.2916 27.6617 40.9613 27.6609C40.8029 27.6607 40.6445 27.661 40.4862 27.6616C40.2648 27.6624 40.0435 27.6613 39.8221 27.6596C39.7567 27.6602 39.6913 27.6608 39.6239 27.6614C39.324 27.6573 39.1629 27.644 38.9008 27.4863C38.6956 27.26 38.6744 27.1075 38.6797 26.8048C38.9191 26.3483 39.2212 26.3805 39.6857 26.3857Z" fill="#C6CBD4"/>
<path d="M39.6857 22.8974C39.7934 22.8964 39.7934 22.8964 39.9034 22.8954C40.141 22.8938 40.3785 22.8949 40.6161 22.8961C40.7811 22.8959 40.9462 22.8955 41.1113 22.895C41.4574 22.8945 41.8035 22.8953 42.1496 22.897C42.5932 22.8991 43.0367 22.8979 43.4803 22.8957C43.8212 22.8944 44.1622 22.8948 44.5031 22.8957C44.6667 22.896 44.8302 22.8957 44.9938 22.8948C45.2225 22.8939 45.451 22.8953 45.6797 22.8974C45.7473 22.8966 45.8149 22.8959 45.8846 22.8951C46.2146 22.9006 46.3566 22.9141 46.6283 23.1174C46.7695 23.3165 46.7695 23.3165 46.7788 23.5809C46.6769 23.8922 46.6032 23.9648 46.3242 24.1329C46.0917 24.1757 45.8631 24.1735 45.6271 24.1713C45.5575 24.1718 45.4878 24.1724 45.416 24.1729C45.186 24.1742 44.9562 24.1733 44.7262 24.1723C44.5662 24.1725 44.4062 24.1728 44.2462 24.1732C43.9111 24.1736 43.5759 24.173 43.2408 24.1716C42.8113 24.1699 42.3818 24.1709 41.9522 24.1727C41.6219 24.1737 41.2916 24.1734 40.9613 24.1726C40.8029 24.1724 40.6445 24.1727 40.4862 24.1734C40.2648 24.1741 40.0435 24.173 39.8221 24.1713C39.7567 24.1719 39.6913 24.1725 39.6239 24.1731C39.324 24.169 39.1629 24.1557 38.9008 23.998C38.6956 23.7718 38.6744 23.6192 38.6797 23.3165C38.9191 22.86 39.2212 22.8922 39.6857 22.8974Z" fill="#C6CBD3"/>
<path d="M38.1184 21.3217C38.4074 21.3927 38.5141 21.4384 38.6797 21.6835C38.7307 21.8876 38.7307 21.8876 38.6797 22.1288C38.336 22.5975 37.8918 23.0018 37.4815 23.4111C37.4183 23.4744 37.3551 23.5376 37.2901 23.6027C37.1576 23.7353 37.0251 23.8677 36.8924 24C36.6888 24.2033 36.4855 24.4069 36.2822 24.6107C36.1532 24.7397 36.0241 24.8686 35.895 24.9976C35.8341 25.0586 35.7732 25.1197 35.7104 25.1826C35.6542 25.2387 35.5979 25.2947 35.5399 25.3524C35.4904 25.4019 35.4409 25.4513 35.3899 25.5023C35.2319 25.6483 35.1348 25.688 34.9224 25.7284C34.3289 25.6405 33.824 24.9291 33.4148 24.5178C33.3579 24.4612 33.301 24.4046 33.2424 24.3463C33.1884 24.2922 33.1344 24.2381 33.0788 24.1823C33.0301 24.1335 32.9814 24.0848 32.9312 24.0345C32.7608 23.8499 32.7428 23.7682 32.719 23.5112C32.7422 23.2421 32.7422 23.2421 32.8582 23.0612C33.1203 22.8932 33.2514 22.8889 33.5586 22.9452C33.7827 23.0925 33.9642 23.2746 34.1523 23.4648C34.2138 23.5252 34.2752 23.5857 34.3385 23.648C34.5004 23.8084 34.6608 23.97 34.8203 24.1327C35.0399 24.0802 35.0399 24.0802 35.2656 23.9843C35.3181 23.8869 35.3673 23.7877 35.4141 23.6874C35.5149 23.5682 35.5149 23.5682 35.6318 23.4517C35.6756 23.4076 35.7195 23.3635 35.7646 23.3181C35.8119 23.2714 35.8591 23.2247 35.9078 23.1766C35.9565 23.1279 36.0052 23.0793 36.0553 23.0292C36.1581 22.9266 36.2611 22.8242 36.3643 22.7219C36.5223 22.5653 36.6796 22.4082 36.8368 22.2509C36.9369 22.1512 37.0369 22.0516 37.137 21.952C37.1841 21.905 37.2312 21.858 37.2797 21.8095C37.3238 21.7659 37.3679 21.7223 37.4133 21.6774C37.4519 21.6391 37.4905 21.6007 37.5303 21.5612C37.7397 21.3707 37.8304 21.3112 38.1184 21.3217Z" fill="#3F8F97"/>
<path d="M38.3828 28.3633C38.5684 28.5256 38.5684 28.5256 38.6797 28.7343C38.6959 28.9775 38.6545 29.1157 38.5058 29.3097C38.1632 29.6944 37.8071 30.0631 37.4423 30.4269C37.3826 30.4866 37.3229 30.5464 37.2614 30.608C37.1363 30.7332 37.011 30.8583 36.8857 30.9833C36.6936 31.175 36.5019 31.3671 36.3102 31.5593C36.1882 31.6813 36.0661 31.8032 35.944 31.9252C35.8867 31.9826 35.8295 32.0401 35.7704 32.0992C35.7171 32.1523 35.6639 32.2053 35.609 32.26C35.5389 32.33 35.5389 32.33 35.4674 32.4014C35.2813 32.5737 35.1559 32.6633 34.9015 32.694C34.6216 32.6622 34.5385 32.5931 34.3379 32.3989C34.2751 32.3388 34.2124 32.2787 34.1477 32.2168C34.075 32.1446 34.0023 32.0723 33.9297 32C33.8385 31.9107 33.7473 31.8214 33.656 31.7321C33.4721 31.5509 33.2885 31.3694 33.1063 31.1865C33.0683 31.1484 33.0303 31.1102 32.9911 31.071C32.8095 30.8721 32.7438 30.7532 32.7144 30.4831C32.7422 30.2187 32.7422 30.2187 32.8582 30.0378C33.1203 29.8698 33.2514 29.8655 33.5586 29.9218C33.7827 30.0691 33.9642 30.2512 34.1523 30.4414C34.2138 30.5018 34.2752 30.5623 34.3385 30.6246C34.5004 30.785 34.6608 30.9466 34.8203 31.1093C35.0526 31.0064 35.2089 30.8871 35.387 30.7068C35.4385 30.655 35.49 30.6033 35.5431 30.5499C35.5979 30.4941 35.6527 30.4383 35.7092 30.3808C35.7945 30.2949 35.7945 30.2949 35.8816 30.2072C36.0632 30.0243 36.2443 29.8409 36.4253 29.6574C36.6069 29.4738 36.7886 29.2902 36.9706 29.1069C37.0838 28.9927 37.1968 28.8784 37.3096 28.7639C37.3606 28.7124 37.4117 28.6609 37.4642 28.6078C37.5316 28.5395 37.5316 28.5395 37.6004 28.4698C37.8562 28.2317 38.0546 28.284 38.3828 28.3633Z" fill="#408F97"/>
<defs>
<linearGradient id="paint0_linear_6_498" x1="98.4667" y1="21.1263" x2="-8.8357" y2="26.7315" gradientUnits="userSpaceOnUse">
<stop stop-color="#00ADEF"/>
<stop offset="1" stop-color="#D60F8C"/>
</linearGradient>
</defs>
</svg>
