<svg width="132" height="132" viewBox="0 0 132 132" fill="none" xmlns="http://www.w3.org/2000/svg">
<circle cx="66" cy="66" r="66" fill="url(#paint0_linear_270_3633)"/>
<circle cx="66" cy="66" r="57.75" fill="white"/>
<path d="M69.9897 32.6474C71.4806 33.5754 72.6587 34.1946 74.4618 34.1655C74.6507 34.1636 74.8395 34.1617 75.034 34.1598C75.426 34.1545 75.818 34.1486 76.2099 34.142C79.3639 34.1142 79.3639 34.1142 80.4729 35.0754C81.5156 36.1218 82.1636 37.243 82.8223 38.5531C83.5346 39.924 84.3605 41.0613 85.7478 41.788C85.9326 41.8882 86.1175 41.9884 86.3024 42.0885C86.492 42.1884 86.6816 42.2882 86.8713 42.3879C90.0274 44.0655 90.0274 44.0655 90.7099 45.8508C91.0106 47.0747 90.9115 48.3805 90.907 49.6333C90.8861 51.7217 90.8861 51.7217 91.594 53.6613C91.6425 53.7537 91.691 53.8461 91.741 53.9413C91.8787 54.1946 92.0266 54.4423 92.1748 54.6896C92.6119 55.4335 93.0254 56.1845 93.4126 56.9557C93.4988 57.1274 93.585 57.299 93.6738 57.4758C94.1753 58.5777 94.1967 59.7025 93.7863 60.8435C93.434 61.7722 92.9474 62.5904 92.4223 63.4303C91.0935 65.5594 90.9165 67.1647 90.9182 69.6355C90.9132 73.0108 90.9132 73.0108 89.7849 74.3324C88.8965 75.128 87.7789 75.6488 86.7352 76.2113C84.6987 77.3147 83.697 78.4489 82.6057 80.4738C81.0304 83.3968 81.0304 83.3968 79.6011 84.0051C79.4787 84.0577 79.3563 84.1103 79.2303 84.1645C79.1376 84.2034 79.0449 84.2423 78.9494 84.2824C78.9491 84.5628 78.9491 84.5628 78.9488 84.8488C78.9462 86.6107 78.9397 88.3725 78.9293 90.1344C78.9241 91.0402 78.9203 91.9459 78.9196 92.8517C78.919 93.7259 78.9146 94.6001 78.9078 95.4743C78.9058 95.8077 78.9051 96.1412 78.9058 96.4746C78.9066 96.9419 78.9026 97.4089 78.8975 97.8762C78.8995 98.0828 78.8995 98.0828 78.9015 98.2936C78.8896 98.9504 78.8509 99.3819 78.4278 99.9014C77.8923 100.416 77.6522 100.562 76.9118 100.631C75.803 100.535 75.0724 99.8564 74.2553 99.1645C74.0243 98.9714 73.7932 98.7784 73.562 98.5854C73.4447 98.4869 73.3273 98.3884 73.2064 98.2869C72.5549 97.7415 71.8976 97.203 71.2404 96.6644C70.6794 96.2039 70.1223 95.7395 69.5702 95.2684C69.4555 95.1715 69.3408 95.0746 69.2226 94.9747C69.0047 94.7904 68.7878 94.6048 68.5722 94.4177C67.8004 93.7685 67.071 93.3185 66.0371 93.2379C65.9181 93.2519 65.7991 93.2658 65.6765 93.2802C65.5567 93.2914 65.4369 93.3026 65.3135 93.3141C64.4119 93.5727 63.7132 94.2732 63.02 94.8798C62.831 95.0435 62.6419 95.2072 62.4529 95.3708C62.3108 95.4939 62.3108 95.4939 62.1659 95.6196C61.7457 95.9825 61.3213 96.3406 60.8967 96.6984C60.2903 97.2099 59.6869 97.7246 59.086 98.2425C56.1259 100.792 56.1259 100.792 54.8101 100.779C54.2453 100.716 53.9256 100.502 53.508 100.126C53.2433 99.6917 53.1654 99.3709 53.1667 98.8651C53.1663 98.7361 53.1659 98.6071 53.1654 98.4742C53.1671 98.2638 53.1671 98.2638 53.1687 98.0491C53.1687 97.9004 53.1687 97.7518 53.1686 97.5986C53.1688 97.1073 53.1712 96.616 53.1736 96.1247C53.1741 95.784 53.1746 95.4434 53.1749 95.1027C53.176 94.2061 53.179 93.3095 53.1824 92.4128C53.1855 91.4979 53.1869 90.5829 53.1885 89.668C53.1917 87.8728 53.1969 86.0776 53.2033 84.2824C53.11 84.2634 53.0166 84.2444 52.9205 84.2248C52.7976 84.1988 52.6747 84.1729 52.5481 84.1461C52.4265 84.1208 52.3049 84.0955 52.1796 84.0695C51.0915 83.782 50.3349 82.8599 49.7811 81.9256C49.5557 81.5042 49.3366 81.08 49.1186 80.6547C47.8792 78.3272 46.5344 77.1117 44.1984 75.8761C42.7641 75.111 41.4757 74.4117 40.9099 72.7929C40.6333 71.8085 40.6727 70.8431 40.7016 69.8288C40.746 68.0872 40.7786 66.3873 39.9399 64.811C39.8462 64.6332 39.7526 64.4555 39.656 64.2724C39.3272 63.6825 38.9711 63.1099 38.6164 62.5353C37.7885 61.1884 37.2891 59.9339 37.5726 58.3494C37.8777 57.133 38.5462 56.0949 39.1877 55.0324C39.3852 54.7027 39.582 54.3727 39.778 54.0422C39.9047 53.8324 39.9047 53.8324 40.0339 53.6185C40.7354 52.2988 40.7218 50.8807 40.704 49.4213C40.7023 49.2622 40.7006 49.1031 40.6989 48.9392C40.6944 48.6218 40.6879 48.3044 40.6788 47.9872C40.6568 46.5449 40.8632 45.2756 41.8912 44.2047C42.7799 43.4453 43.8242 42.9033 44.8476 42.3486C46.8772 41.2458 47.8453 40.1492 48.9377 38.1222C50.2339 35.7171 50.2339 35.7171 51.2229 34.923C51.336 34.8319 51.4491 34.7408 51.5656 34.6469C53.1301 33.9713 54.8919 34.1428 56.554 34.1866C58.2716 34.2118 59.5218 33.9099 60.9919 33.0378C61.0973 32.9771 61.2026 32.9164 61.3112 32.8538C61.8414 32.5465 62.3628 32.2286 62.8772 31.8952C65.3921 30.3254 67.6841 31.203 69.9897 32.6474Z" fill="#F6B24B"/>
<path d="M66.2897 46.6953C67.0812 46.9694 67.5105 47.9304 67.8637 48.6403C67.9456 48.8095 67.9456 48.8095 68.0292 48.9823C68.0879 49.1009 68.1466 49.2195 68.2071 49.3417C68.3929 49.7179 68.5771 50.0948 68.7612 50.4718C68.9466 50.8492 69.1324 51.2264 69.3185 51.6034C69.4337 51.8372 69.5486 52.0712 69.6629 52.3054C69.8106 52.6064 69.9615 52.9055 70.1132 53.2044C70.1851 53.3519 70.257 53.4994 70.3311 53.6513C70.5471 53.9943 70.5471 53.9943 70.9301 54.0989C71.0714 54.1166 71.2126 54.1342 71.3581 54.1524C71.5176 54.1743 71.677 54.1962 71.8412 54.2187C72.0125 54.2391 72.1838 54.2594 72.3603 54.2804C72.7188 54.3297 73.0772 54.3793 73.4356 54.4291C73.6176 54.4533 73.7996 54.4775 73.9872 54.5025C74.821 54.6144 75.6523 54.738 76.4831 54.8707C76.6283 54.891 76.7734 54.9114 76.923 54.9323C77.5764 55.0379 77.9674 55.1362 78.5129 55.5283C78.8573 56.0358 78.864 56.2577 78.7968 56.8607C78.5662 57.2129 78.5662 57.2129 78.2344 57.5546C78.1091 57.6855 77.9838 57.8164 77.8547 57.9513C77.7131 58.0942 77.5716 58.237 77.4257 58.3841C77.2705 58.5437 77.1154 58.7035 76.9604 58.8633C76.5474 59.2875 76.1305 59.7076 75.7118 60.1263C75.4506 60.3878 75.1907 60.6505 74.9308 60.9133C74.7645 61.08 74.5982 61.2466 74.4318 61.4131C74.3544 61.4917 74.2769 61.5702 74.1971 61.6511C73.652 62.1927 73.652 62.1927 73.3124 62.1927C73.222 63.7098 73.5004 65.1452 73.7695 66.6297C73.8354 66.9954 73.901 67.3612 73.9651 67.7272C74.0046 67.9531 74.0452 68.1789 74.0871 68.4043C74.2206 69.165 74.328 69.9536 74.2265 70.724C73.8465 71.1822 73.6299 71.3177 73.0378 71.3738C72.4722 71.3268 72.1311 71.1706 71.6313 70.9043C71.4576 70.8129 71.2839 70.7215 71.1049 70.6273C70.9235 70.5294 70.7421 70.4315 70.5607 70.3336C70.3852 70.2408 70.2098 70.148 70.029 70.0524C69.3121 69.6724 68.5961 69.2915 67.89 68.8918C67.7158 68.7943 67.5416 68.6969 67.3621 68.5965C67.1284 68.4634 67.1284 68.4634 66.8899 68.3276C66.3398 68.0818 65.9647 68.0312 65.3987 68.2474C65.2562 68.3271 65.2562 68.3271 65.1109 68.4085C64.9455 68.4988 64.9455 68.4988 64.7768 68.5909C64.6589 68.657 64.5409 68.723 64.4194 68.7911C64.1624 68.9303 63.9051 69.0689 63.6475 69.2071C63.5112 69.2802 63.3749 69.3533 63.2345 69.4287C62.4719 69.8311 61.7001 70.2132 60.925 70.5907C60.7769 70.6646 60.6289 70.7385 60.4763 70.8146C59.1506 71.4555 59.1506 71.4555 58.3827 71.3333C58.0209 71.1143 58.0209 71.1143 57.7734 70.724C57.6769 69.8214 57.8142 68.9265 57.9733 68.0395C57.9936 67.9199 58.0139 67.8004 58.0348 67.6772C58.1204 67.1725 58.2087 66.6683 58.2969 66.164C58.6414 64.1913 58.6414 64.1913 58.6874 62.1927C58.5969 62.1517 58.5064 62.1107 58.4131 62.0685C58.0777 61.8879 57.8595 61.7072 57.5917 61.4387C57.5008 61.3482 57.4098 61.2577 57.3161 61.1645C57.2198 61.0671 57.1234 60.9696 57.0241 60.8692C56.9239 60.7689 56.8237 60.6687 56.7204 60.5653C56.5092 60.3536 56.2983 60.1415 56.0878 59.9291C55.7647 59.6033 55.4405 59.2787 55.116 58.9542C54.9109 58.7484 54.7059 58.5425 54.5009 58.3365C54.4037 58.2391 54.3064 58.1416 54.2062 58.0412C54.1167 57.9507 54.0271 57.8603 53.9349 57.767C53.8559 57.6874 53.7769 57.6078 53.6955 57.5258C53.3043 57.0922 53.3218 56.6773 53.2905 56.1097C53.3862 55.6446 53.5944 55.4729 53.9648 55.1849C54.345 55.0802 54.345 55.0802 54.7931 55.0326C55.7163 54.9161 56.6224 54.7559 57.5353 54.5755C58.6477 54.3568 59.7508 54.1764 60.8786 54.056C61.3338 53.9534 61.4366 53.8557 61.7343 53.5091C61.907 53.225 61.907 53.225 62.0562 52.9075C62.1152 52.7875 62.1742 52.6675 62.235 52.5439C62.3286 52.3504 62.3286 52.3504 62.424 52.1529C62.5586 51.8795 62.6932 51.606 62.8278 51.3326C63.0384 50.9018 63.2486 50.4709 63.4585 50.0398C63.6617 49.6233 63.8664 49.2075 64.0712 48.7918C64.1333 48.6631 64.1954 48.5344 64.2593 48.4018C64.7561 47.3955 65.0732 46.7582 66.2897 46.6953Z" fill="#F8CE6B"/>
<path d="M78.7967 84.1289C78.8144 86.0994 78.8279 88.0699 78.8362 90.0405C78.8401 90.9555 78.8455 91.8705 78.8542 92.7855C78.8624 93.6686 78.867 94.5516 78.869 95.4347C78.8704 95.7716 78.8731 96.1084 78.8772 96.4453C78.8828 96.9173 78.8835 97.389 78.8832 97.861C78.8873 98.0698 78.8873 98.0698 78.8915 98.2828C78.8861 98.9437 78.8543 99.3778 78.4283 99.9011C77.8919 100.414 77.6516 100.561 76.9114 100.63C75.8027 100.534 75.072 99.8553 74.2549 99.1633C74.0239 98.9703 73.7928 98.7773 73.5617 98.5843C73.4443 98.4858 73.3269 98.3873 73.206 98.2858C72.5545 97.7404 71.8972 97.2019 71.2401 96.6633C70.679 96.2028 70.1219 95.7384 69.5698 95.2673C69.4551 95.1703 69.3404 95.0734 69.2222 94.9736C69.0043 94.7893 68.7874 94.6037 68.5718 94.4166C67.8 93.7673 67.0706 93.3173 66.0367 93.2368C65.9177 93.2507 65.7987 93.2647 65.6761 93.2791C65.5563 93.2902 65.4365 93.3014 65.3131 93.313C64.4115 93.5716 63.7128 94.2721 63.0196 94.8787C62.8306 95.0424 62.6416 95.206 62.4525 95.3696C62.3578 95.4517 62.2631 95.5338 62.1656 95.6184C61.7453 95.9814 61.3209 96.3394 60.8963 96.6973C60.2899 97.2087 59.6865 97.7234 59.0856 98.2413C56.1255 100.791 56.1255 100.791 54.8097 100.778C54.2449 100.715 53.9253 100.501 53.5076 100.125C53.243 99.6906 53.165 99.3698 53.1663 98.864C53.1659 98.735 53.1655 98.6059 53.165 98.473C53.1661 98.3328 53.1672 98.1925 53.1684 98.048C53.1683 97.8993 53.1683 97.7506 53.1682 97.5974C53.1684 97.1061 53.1708 96.6149 53.1732 96.1236C53.1738 95.7829 53.1742 95.4422 53.1745 95.1015C53.1757 94.2049 53.1787 93.3083 53.182 92.4117C53.1851 91.4968 53.1865 90.5818 53.1881 89.6668C53.1913 87.8716 53.1965 86.0764 53.2029 84.2812C53.9722 84.2622 54.7413 84.2485 55.5108 84.2394C55.7717 84.2356 56.0326 84.2304 56.2935 84.2238C58.6638 84.1649 60.2192 84.7047 62.2293 85.9761C63.6903 86.8965 64.943 87.6121 66.7068 87.2442C68.0715 86.8508 69.2354 86.1068 70.4362 85.3704C70.7951 85.1509 71.1569 84.9374 71.5223 84.7288C71.6173 84.6736 71.7124 84.6184 71.8103 84.5615C72.563 84.2216 73.3806 84.2499 74.1907 84.233C74.3177 84.2299 74.4448 84.2267 74.5757 84.2235C74.9798 84.2135 75.3838 84.2045 75.7879 84.1956C76.062 84.189 76.3362 84.1823 76.6103 84.1756C78.5402 84.1289 78.5402 84.1289 78.7967 84.1289Z" fill="#E93564"/>
<path d="M51.832 37.6641C52.991 38.4367 53.0734 40.92 53.3555 42.2344C53.9971 42.0094 54.5218 41.6722 55.0789 41.2917C59.2514 38.5315 64.7434 37.5759 69.6423 38.5096C75.4589 39.7601 80.4465 42.9465 83.7237 47.9508C86.5993 52.4855 87.8718 58.0574 86.7039 63.3615C85.7131 67.4619 83.9866 70.8485 81.082 73.9219C80.9 74.1213 80.9 74.1213 80.7143 74.3248C77.2086 78.0263 72.0151 80.1619 66.9492 80.3685C66.1233 80.3852 65.3013 80.3641 64.4766 80.3203C64.3624 80.3144 64.2482 80.3085 64.1306 80.3025C60.3954 80.0714 56.6395 78.6106 53.6602 76.3594C53.5276 76.2604 53.3951 76.1614 53.2585 76.0594C48.7681 72.5458 45.7778 67.5813 45.0474 61.8909C44.4527 56.2508 45.9901 51.302 49.0899 46.6523C48.9469 46.6547 48.9469 46.6547 48.801 46.6572C48.3704 46.6635 47.9399 46.6675 47.5093 46.6714C47.3593 46.6739 47.2092 46.6765 47.0546 46.6791C46.9113 46.6801 46.7679 46.6811 46.6202 46.6821C46.4216 46.6845 46.4216 46.6845 46.2189 46.6869C45.8906 46.6523 45.8906 46.6523 45.5859 46.3477C46.4376 45.7056 47.5133 45.6301 48.5361 45.4443C49.5209 45.2493 50.2635 44.9705 51.0703 44.3672C50.5187 43.7983 49.9385 43.2828 49.3297 42.7753C49.211 42.6584 49.211 42.6584 49.0899 42.5391C49.0899 42.4385 49.0899 42.338 49.0899 42.2344C49.7062 42.3218 50.1195 42.519 50.6419 42.8533C51.1252 43.1942 51.1252 43.1942 51.6797 43.3008C51.7956 42.618 51.8413 42.0189 51.7654 41.3298C51.6814 40.5566 51.6619 39.793 51.6607 39.0161C51.6596 38.8426 51.6596 38.8426 51.6586 38.6656C51.6608 37.8353 51.6608 37.8353 51.832 37.6641ZM55.1836 43.7578C55.1836 43.8584 55.1836 43.9589 55.1836 44.0625C55.7428 44.4202 56.2001 44.3913 56.8522 44.3636C56.9528 44.3598 57.0534 44.356 57.157 44.3521C57.4768 44.3396 57.7965 44.3249 58.1162 44.3101C58.3336 44.3012 58.551 44.2925 58.7684 44.2839C59.3001 44.2626 59.8317 44.2393 60.3633 44.2148C59.7838 44.5249 59.272 44.7393 58.6256 44.8564C58.3991 44.9005 58.3991 44.9005 58.168 44.9456C57.8544 45.0043 57.5406 45.0618 57.2266 45.1182C56.2824 45.3048 55.7088 45.5016 55.0313 46.1953C55.4714 46.7369 55.9058 47.2501 56.45 47.6902C56.8594 48.0234 56.8594 48.0234 57.0117 48.3281C56.4212 48.1182 55.9638 47.8418 55.4597 47.4712C54.9869 47.0809 54.9869 47.0809 54.4219 46.957C54.1884 47.4241 54.2969 47.8967 54.3362 48.4043C54.433 49.8021 54.4366 51.1933 54.4219 52.5938C54.1172 52.4414 54.1172 52.4414 54.0035 52.1638C53.9688 52.0447 53.934 51.9256 53.8982 51.8029C53.8593 51.6714 53.8204 51.5399 53.7804 51.4045C53.7407 51.2659 53.701 51.1274 53.6602 50.9846C53.6205 50.8502 53.5808 50.7158 53.54 50.5773C53.3595 49.9606 53.189 49.3447 53.0425 48.7191C52.8804 48.1078 52.6645 47.7623 52.2891 47.2617C51.6807 47.5011 51.3447 47.9 50.918 48.3853C50.1762 49.2243 50.1762 49.2243 49.842 49.5243C49.4238 49.988 49.1944 50.5049 48.9375 51.0703C48.8841 51.1867 48.8308 51.3031 48.7758 51.423C46.5642 56.3228 46.6399 61.4582 48.4805 66.457C49.3981 68.7062 50.7646 70.6482 52.4414 72.3984C52.5978 72.5693 52.5978 72.5693 52.7574 72.7436C54.9853 75.0991 58.0264 76.707 61.125 77.5781C61.305 77.6311 61.305 77.6311 61.4886 77.6852C64.6391 78.5518 68.7306 78.3404 71.7891 77.2734C71.9648 77.2167 72.1406 77.1599 72.3217 77.1015C77.1739 75.3969 80.8989 71.8151 83.1643 67.2491C84.1721 65.0914 84.7847 62.7423 84.8906 60.3633C84.8963 60.243 84.9019 60.1227 84.9077 59.9987C85.0912 55.3453 83.6499 50.8449 80.625 47.2617C80.4985 47.1105 80.3721 46.9593 80.2418 46.8035C77.1279 43.1918 72.4621 40.829 67.7111 40.429C63.4431 40.1433 58.5865 40.9221 55.1836 43.7578Z" fill="#FAD78F"/>
<path d="M66.0685 47.9922C66.743 48.2208 66.857 48.4416 67.1676 49.056C67.2253 49.1802 67.2831 49.3043 67.3425 49.4323C67.4056 49.5596 67.4686 49.6868 67.5336 49.8179C67.7378 50.2332 67.9358 50.6512 68.1328 51.07C68.2746 51.3678 68.4164 51.6655 68.5583 51.9632C68.7625 52.3918 68.9657 52.8207 69.1652 53.2515C69.2251 53.3801 69.2851 53.5088 69.3468 53.6414C69.3994 53.7554 69.4519 53.8694 69.506 53.9869C69.6523 54.2949 69.6523 54.2949 69.961 54.5739C70.2946 54.6507 70.632 54.7117 70.9702 54.7649C71.1214 54.7891 71.1214 54.7891 71.2756 54.8138C71.4897 54.8478 71.7038 54.8811 71.918 54.914C72.2408 54.9635 72.5633 55.0147 72.8858 55.0664C73.8902 55.2251 74.8896 55.3729 75.9056 55.4361C76.4938 55.5373 76.7436 55.7927 77.1211 56.2497C77.2449 56.7639 77.2449 56.7639 77.1211 57.3161C76.1399 58.8354 73.8707 59.865 72.2461 60.5153C72.0529 60.5969 72.0529 60.5969 71.8557 60.6802C68.1068 62.1697 63.5654 62.0706 59.8625 60.5219C59.144 60.2024 58.4565 59.8377 57.7735 59.4489C57.6024 59.3539 57.4314 59.2588 57.2551 59.1609C55.011 57.8848 55.011 57.8848 54.7266 57.3161C54.6382 56.3616 54.6382 56.3616 55.0122 55.8879C55.4687 55.5388 55.7775 55.4572 56.3405 55.3892C56.7997 55.3328 57.2584 55.276 57.7167 55.2127C58.4575 55.1108 59.1853 55.022 59.933 55.0012C61.1407 54.9507 61.1407 54.9507 62.1262 54.3217C62.6043 53.6346 62.923 52.879 63.2354 52.1056C63.4787 51.5122 63.7512 50.9341 64.0264 50.3549C64.1591 50.075 64.2891 49.7938 64.4162 49.5112C64.475 49.3831 64.5338 49.2549 64.5944 49.1229C64.6453 49.0097 64.6963 48.8964 64.7488 48.7798C65.0983 48.2132 65.4072 48.0311 66.0685 47.9922Z" fill="#FBE6B4"/>
<path d="M53.2033 85.8061C53.9942 85.787 54.7851 85.7733 55.5762 85.7642C55.8445 85.7604 56.1128 85.7553 56.3811 85.7486C58.0211 85.709 59.349 85.7448 60.8205 86.5678C60.9541 86.641 61.0878 86.7141 61.2256 86.7895C61.5843 86.9905 61.9358 87.2008 62.2868 87.4152C63.4764 88.1407 64.6246 88.7302 66.0001 89.0053C66.0001 90.3627 66.0001 91.7201 66.0001 93.1186C65.4471 93.3197 64.8941 93.5208 64.3244 93.728C63.8869 94.02 63.8869 94.02 63.5626 94.3659C63.0602 94.8509 62.5556 95.3094 62.0106 95.7465C61.3326 96.2957 60.6694 96.8592 60.0111 97.4318C59.9153 97.5151 59.8194 97.5984 59.7207 97.6842C59.3276 98.026 58.9347 98.368 58.5421 98.7104C58.2546 98.9608 57.9666 99.2104 57.6784 99.4599C57.5487 99.5734 57.5487 99.5734 57.4163 99.6892C56.5335 100.452 55.9636 100.827 54.794 100.79C54.2427 100.71 53.9177 100.495 53.508 100.126C53.0897 99.542 53.1627 98.8772 53.1687 98.1892C53.1686 98.0554 53.1686 97.9216 53.1685 97.7837C53.1688 97.3419 53.1711 96.9001 53.1735 96.4582C53.1741 96.1517 53.1745 95.8452 53.1748 95.5386C53.176 94.7322 53.179 93.9258 53.1823 93.1193C53.1855 92.2963 53.1869 91.4732 53.1884 90.6501C53.1917 89.0354 53.1969 87.4208 53.2033 85.8061Z" fill="#F35170"/>
<path d="M77.6889 44.4232C81.3116 47.3484 84.145 51.5355 84.7383 56.2511C84.7484 56.6527 84.7529 57.0497 84.7478 57.4509C84.7471 57.5557 84.7464 57.6606 84.7457 57.7686C84.7439 58.0245 84.7412 58.2804 84.7383 58.5363C84.4281 58.0711 84.3239 57.68 84.198 57.1414C83.5077 54.1961 82.1162 51.7028 80.168 49.3957C80.016 49.2101 80.016 49.2101 79.8609 49.0208C76.9354 45.586 72.5578 43.5601 68.1328 42.9972C65.18 42.7781 62.4131 43.0957 59.6016 44.0053C58.8211 44.2426 58.0715 44.3097 57.2593 44.3398C57.0593 44.3514 57.0593 44.3514 56.8552 44.3633C56.1921 44.3931 55.7711 44.4026 55.1836 44.0636C55.3898 43.445 55.7897 43.2741 56.3262 42.9592C56.428 42.8991 56.5299 42.8391 56.6348 42.7772C63.2308 38.9947 71.7309 39.7303 77.6889 44.4232Z" fill="#EF7D56"/>
<path d="M51.832 37.6641C52.3289 37.9953 52.3577 38.0401 52.5081 38.5781C52.5458 38.7123 52.5835 38.8464 52.6223 38.9846C52.719 39.3812 52.8068 39.7763 52.8889 40.1759C52.9268 40.3573 52.9268 40.3573 52.9654 40.5422C53.0152 40.7842 53.063 41.0266 53.1085 41.2694C53.256 41.9925 53.44 42.4471 53.9648 42.9961C54.5613 42.7973 54.7254 42.4999 55.1074 42.0059C55.7422 41.1849 55.7422 41.1849 56.25 41.0156C56.0905 41.5955 55.8774 42.0529 55.5454 42.5486C55.2354 43.0223 55.0929 43.3296 55.1836 43.9102C55.7428 44.2679 56.2001 44.2389 56.8522 44.2113C56.9528 44.2075 57.0534 44.2036 57.157 44.1997C57.4768 44.1872 57.7965 44.1725 58.1162 44.1577C58.3336 44.1488 58.551 44.1401 58.7684 44.1315C59.3001 44.1102 59.8317 44.0869 60.3633 44.0625C60.4136 44.163 60.4638 44.2636 60.5156 44.3672C59.456 44.8836 58.3598 45.0641 57.2057 45.2705C56.2935 45.4511 55.7578 45.598 55.1836 46.3477C55.3789 46.5212 55.3789 46.5212 55.5781 46.6982C55.7482 46.8511 55.9182 47.004 56.0881 47.157C56.217 47.2711 56.217 47.2711 56.3485 47.3876C56.9945 47.9717 56.9945 47.9717 57.1641 48.4805C56.5914 48.3816 56.1899 48.1203 55.7073 47.8044C55.4902 47.6633 55.4902 47.6633 55.2687 47.5194C54.986 47.3325 54.7038 47.145 54.4219 46.957C54.4082 47.6833 54.4004 48.3975 54.498 49.1184C54.634 50.2004 54.7683 51.5545 54.4219 52.5938C54.2711 52.5435 54.1202 52.4932 53.9648 52.4414C53.8339 52.1638 53.8339 52.1638 53.731 51.8029C53.6926 51.6714 53.6542 51.5399 53.6146 51.4045C53.5762 51.2659 53.5378 51.1274 53.4983 50.9846C53.4593 50.8502 53.4203 50.7158 53.3802 50.5773C53.2024 49.959 53.0357 49.3399 52.8859 48.7143C52.7531 48.2027 52.5867 47.8469 52.2891 47.4141C51.6976 47.649 51.3834 48.0202 50.9751 48.4995C50.7593 48.7526 50.5384 49.0017 50.3086 49.2422C50.208 49.2422 50.1075 49.2422 50.0039 49.2422C50.1016 48.6614 50.375 48.2615 50.699 47.7759C51.0892 47.2557 51.0892 47.2557 51.2227 46.6523C50.9828 46.6547 50.9828 46.6547 50.738 46.6572C50.1458 46.6627 49.5536 46.6662 48.9613 46.6691C48.7048 46.6706 48.4482 46.6727 48.1917 46.6753C47.8234 46.679 47.4551 46.6808 47.0868 46.6821C46.9717 46.6837 46.8566 46.6852 46.7381 46.6869C46.4554 46.6869 46.1727 46.671 45.8906 46.6523C45.7901 46.5518 45.6895 46.4513 45.5859 46.3477C46.4376 45.7056 47.5133 45.6301 48.5361 45.4443C49.5209 45.2493 50.2635 44.9705 51.0703 44.3672C50.5187 43.7983 49.9384 43.2828 49.3297 42.7753C49.211 42.6584 49.211 42.6584 49.0898 42.5391C49.0898 42.4385 49.0898 42.338 49.0898 42.2344C49.7062 42.3218 50.1195 42.519 50.6418 42.8533C51.1252 43.1942 51.1252 43.1942 51.6797 43.3008C51.7956 42.618 51.8412 42.0189 51.7654 41.3298C51.6814 40.5566 51.6619 39.793 51.6606 39.0161C51.6596 38.8426 51.6596 38.8426 51.6586 38.6656C51.6608 37.8353 51.6608 37.8353 51.832 37.6641Z" fill="#FEFCF8"/>
<path d="M78.7969 84.1289C78.7969 84.6819 78.7969 85.2349 78.7969 85.8047C78.5458 85.8068 78.5458 85.8068 78.2896 85.809C77.6621 85.8151 77.0347 85.8252 76.4072 85.8363C76.1369 85.8406 75.8665 85.8438 75.5961 85.846C73.4622 85.843 73.4622 85.843 71.4844 86.5664C71.3542 86.637 71.2241 86.7076 71.0901 86.7803C70.6777 87.0103 70.2713 87.2483 69.8657 87.49C67.4679 88.9165 67.4679 88.9165 66.019 88.9182C65.7651 88.9226 65.7651 88.9226 65.5061 88.9271C64.053 88.7353 62.8339 87.9344 61.604 87.1859C61.245 86.9717 60.8825 86.7668 60.5156 86.5664C60.4085 86.5057 60.3014 86.4449 60.1911 86.3824C58.8839 85.746 57.4231 85.8541 56.0024 85.8428C55.7305 85.8385 55.4585 85.8339 55.1866 85.8291C54.5254 85.8179 53.8643 85.8103 53.2031 85.8047C53.2031 85.302 53.2031 84.7992 53.2031 84.2812C53.9724 84.2622 54.7415 84.2485 55.511 84.2394C55.7719 84.2356 56.0328 84.2304 56.2937 84.2238C57.9135 84.1836 59.2185 84.2264 60.668 85.043C60.8018 85.1178 60.9355 85.1926 61.0734 85.2697C61.464 85.4976 61.8473 85.7343 62.2295 85.9761C63.6905 86.8965 64.9432 87.6121 66.707 87.2442C68.0717 86.8508 69.2356 86.1068 70.4363 85.3704C70.7953 85.1509 71.1571 84.9374 71.5225 84.7288C71.6175 84.6736 71.7126 84.6184 71.8105 84.5615C72.5632 84.2216 73.3807 84.2499 74.1909 84.233C74.3179 84.2299 74.445 84.2267 74.5759 84.2235C74.9799 84.2135 75.384 84.2045 75.7881 84.1956C76.0622 84.189 76.3364 84.1823 76.6105 84.1756C78.5404 84.1289 78.5404 84.1289 78.7969 84.1289Z" fill="#CC114A"/>
<path d="M65.543 46.1966C65.6938 46.272 65.6938 46.272 65.8477 46.3489C65.6953 46.806 65.6953 46.806 65.351 47.049C64.7652 47.5631 64.5209 48.1588 64.1969 48.8584C64.0585 49.146 63.92 49.4335 63.7815 49.721C63.5663 50.1731 63.3523 50.6257 63.1398 51.0791C62.9334 51.5178 62.7227 51.9544 62.5116 52.3909C62.4495 52.5266 62.3874 52.6623 62.3234 52.8021C61.8147 53.845 61.8147 53.845 61.1995 54.1229C60.7673 54.2432 60.3618 54.3493 59.9176 54.4047C59.7165 54.4314 59.7165 54.4314 59.5114 54.4586C59.3746 54.4752 59.2378 54.4918 59.0969 54.5089C58.1531 54.629 57.2247 54.7706 56.2932 54.9649C55.6692 55.0862 55.036 55.1422 54.404 55.2069C53.8397 55.3744 53.6772 55.6163 53.3555 56.0989C53.2549 56.2498 53.1544 56.4006 53.0508 56.556C52.6687 56.15 52.458 55.8936 52.3652 55.3372C52.4617 54.7583 52.6405 54.5355 53.0508 54.1185C53.5031 53.9602 53.5031 53.9602 54.041 53.8709C54.1884 53.8453 54.1884 53.8453 54.3388 53.8192C54.6707 53.7628 55.0031 53.7118 55.3359 53.6614C55.4581 53.6422 55.5803 53.623 55.7062 53.6032C56.0936 53.5423 56.4812 53.4826 56.8689 53.4234C56.998 53.4036 57.1272 53.3838 57.2602 53.3633C57.8479 53.2754 58.4317 53.196 59.0243 53.1509C59.2117 53.134 59.399 53.1171 59.592 53.0997C59.8345 53.0847 59.8345 53.0847 60.0818 53.0693C61.0363 52.6962 61.4704 51.3311 61.8968 50.445C62.0096 50.2149 62.1223 49.9849 62.2351 49.755C62.4096 49.3975 62.5835 49.0399 62.7566 48.6818C62.9257 48.3326 63.0967 47.9843 63.2679 47.6361C63.319 47.529 63.3702 47.4219 63.4228 47.3115C63.9667 46.2123 64.3273 45.9265 65.543 46.1966Z" fill="#EF7C56"/>
<path d="M51.9843 47.2617C52.2795 47.3665 52.2795 47.3665 52.5937 47.5664C52.7449 47.9235 52.7449 47.9235 52.7461 48.3281C52.5092 48.6661 52.5092 48.6661 52.1557 49.0137C50.7227 50.5178 49.6849 52.256 48.7851 54.1172C48.713 54.266 48.641 54.4149 48.5667 54.5683C47.8399 56.2573 47.5887 58.1072 47.2617 59.9062C47.2114 59.9062 47.1611 59.9062 47.1093 59.9062C46.9388 56.2482 47.8326 52.4836 49.8515 49.3945C50.1451 49.0778 50.438 48.817 50.7811 48.556C51.2533 48.1839 51.6052 47.7262 51.9843 47.2617Z" fill="#EF7E57"/>
<path d="M57.9256 61.7344C58.6682 62.1533 58.6682 62.1533 58.8396 62.4961C58.8821 63.4361 58.7677 64.309 58.6064 65.2335C58.5827 65.3738 58.559 65.5141 58.5346 65.6587C58.4595 66.1027 58.383 66.5465 58.3064 66.9902C58.255 67.2929 58.2036 67.5956 58.1523 67.8983C58.027 68.6368 57.9004 69.3751 57.7732 70.1133C57.1878 69.9937 57.1878 69.9937 56.9722 69.6985C56.553 68.412 57.1313 66.6785 57.389 65.3876C57.6288 64.1748 57.7935 62.9634 57.9256 61.7344Z" fill="#EF7D56"/>
<path d="M55.4882 88.3945C55.6893 88.3945 55.8904 88.3945 56.0976 88.3945C56.5053 88.9953 56.4461 89.6502 56.4427 90.347C56.443 90.477 56.4433 90.6069 56.4436 90.7408C56.4438 91.0149 56.4432 91.2891 56.442 91.5632C56.4403 91.9831 56.442 92.403 56.4439 92.8229C56.4437 93.0894 56.4433 93.3559 56.4427 93.6224C56.4433 93.7481 56.4439 93.8738 56.4446 94.0033C56.4397 94.5984 56.4351 94.896 56.0976 95.4023C55.5072 95.269 55.5072 95.269 55.3358 95.0977C55.1566 94.0829 55.1551 93.0842 55.1553 92.0567C55.1549 91.7469 55.1522 91.4371 55.1493 91.1272C55.149 90.9292 55.1487 90.7313 55.1484 90.5273C55.1478 90.3482 55.1471 90.1691 55.1465 89.9846C55.1873 89.4074 55.3115 88.9436 55.4882 88.3945Z" fill="#F9A5B5"/>
<path d="M66.1523 50.0039C66.2786 51.5619 66.0186 52.98 65.0597 54.2511C64.9678 54.3577 64.8759 54.4644 64.7812 54.5742C64.4098 54.5171 64.4098 54.5171 64.0195 54.4219C63.7251 53.8332 63.8083 53.2655 63.9766 52.6509C64.8883 50.0039 64.8883 50.0039 66.1523 50.0039Z" fill="#FDF7E6"/>
<path d="M70.2656 53.5078C71.8108 53.6544 73.3431 53.8504 74.874 54.1077C75.0226 54.1317 75.1712 54.1557 75.3242 54.1804C76.1039 54.3156 76.7421 54.4763 77.4258 54.8789C77.4258 54.9292 77.4258 54.9795 77.4258 55.0312C76.7416 55.0571 76.1257 55.0287 75.4536 54.8956C74.808 54.7734 74.1632 54.6721 73.5119 54.5849C73.254 54.5493 73.254 54.5493 72.9909 54.5129C72.6352 54.4642 72.2794 54.4175 71.9233 54.3725C71.7531 54.3483 71.5829 54.3242 71.4076 54.2993C71.2539 54.2789 71.1002 54.2585 70.9419 54.2375C70.5703 54.1172 70.5703 54.1172 70.3656 53.8011C70.3326 53.7043 70.2996 53.6075 70.2656 53.5078Z" fill="#EF8257"/>
<defs>
<linearGradient id="paint0_linear_270_3633" x1="203.087" y1="43.5729" x2="-18.2236" y2="55.1336" gradientUnits="userSpaceOnUse">
<stop stop-color="#00ADEF"/>
<stop offset="1" stop-color="#D60F8C"/>
</linearGradient>
</defs>
</svg>
