<svg width="132" height="132" viewBox="0 0 132 132" fill="none" xmlns="http://www.w3.org/2000/svg">
<circle cx="66" cy="66" r="66" fill="url(#paint0_linear_141_16230)"/>
<circle cx="66" cy="66" r="57.75" fill="white"/>
<g clip-path="url(#clip0_141_16230)">
<path d="M65.781 26.9416C65.9415 26.9418 65.9415 26.9418 66.1053 26.9419C67.8541 26.9481 69.504 27.08 71.1797 27.6081C71.2863 27.6416 71.3929 27.6751 71.5027 27.7095C74.2077 28.589 76.6218 30.0009 78.4922 32.1784C78.4922 32.279 78.4922 32.3795 78.4922 32.4831C78.6141 32.4959 78.7361 32.5087 78.8617 32.5218C79.5604 32.6677 80.1597 32.9377 80.8059 33.2353C80.9388 33.296 81.0716 33.3567 81.2085 33.4192C83.284 34.3787 85.3195 35.4053 87.1758 36.7488C87.2678 36.8151 87.3597 36.8814 87.4545 36.9498C90.3004 39.0121 92.9336 41.2772 95.0977 44.0613C95.2177 44.2109 95.3376 44.3605 95.4613 44.5147C98.1048 47.8366 100.149 51.6144 101.496 55.6394C101.539 55.7663 101.581 55.8933 101.625 56.0241C102.081 57.411 102.46 58.8078 102.753 60.2383C102.776 60.3501 102.799 60.462 102.823 60.5772C103.272 62.9201 103.381 65.2373 103.372 67.6174C103.372 67.7653 103.371 67.9131 103.371 68.0655C103.363 70.2483 103.31 72.3853 102.867 74.53C102.837 74.6798 102.807 74.8295 102.775 74.9838C101.39 81.6451 98.3753 87.8201 93.7266 92.8113C93.5449 93.0201 93.364 93.2295 93.1838 93.4397C92.2672 94.4864 91.2842 95.4023 90.1983 96.2723C89.9181 96.4974 89.6406 96.7257 89.3663 96.9579C87.4333 98.5893 85.2973 99.8657 83.0625 101.038C82.899 101.125 82.899 101.125 82.7322 101.213C79.3375 102.995 75.5708 104.119 71.7891 104.694C71.6115 104.722 71.4338 104.75 71.2508 104.778C69.5354 105.022 67.8357 105.059 66.1047 105.056C65.9577 105.056 65.8106 105.056 65.6591 105.056C63.2335 105.05 60.9155 104.886 58.5352 104.389C58.3972 104.362 58.2593 104.336 58.1172 104.308C53.787 103.454 49.3884 101.703 45.7383 99.2097C45.6395 99.143 45.5407 99.0763 45.439 99.0076C43.9381 97.9904 42.5251 96.9073 41.168 95.7058C41.0301 95.5848 40.8923 95.4639 40.7502 95.3392C39.5316 94.2576 38.4218 93.1455 37.4022 91.8728C37.1772 91.5927 36.9488 91.3151 36.7167 91.0409C35.0852 89.1078 33.8089 86.9719 32.6367 84.737C32.5788 84.628 32.5209 84.5191 32.4612 84.4068C30.7113 81.0724 29.5639 77.3296 28.9805 73.6159C28.9386 73.3539 28.9386 73.3539 28.8959 73.0865C28.6444 71.3305 28.6213 69.5892 28.6282 67.8174C28.6285 67.6655 28.6288 67.5137 28.6292 67.3572C28.6368 65.1501 28.6822 62.9874 29.1328 60.8191C29.1782 60.5948 29.1782 60.5948 29.2245 60.3659C30.9773 51.9369 35.5329 43.9044 42.3867 38.5769C42.5364 38.4569 42.686 38.3369 42.8402 38.2133C46.2146 35.528 50.0054 33.5554 54.0775 32.1551C54.7553 31.9012 55.0843 31.712 55.4597 31.0835C56.9487 28.782 59.3808 27.7764 61.9806 27.2178C63.2457 26.9793 64.4962 26.9379 65.781 26.9416Z" fill="#FFDC3F"/>
<path d="M74.2266 65.0859C75.4277 65.6477 76.3819 66.456 77.3627 67.3314C77.5342 67.4843 77.7081 67.6344 77.8828 67.7835C79.0571 68.8533 80.0359 70.3888 80.7107 71.8176C81.0598 72.5016 81.5836 72.7062 82.2841 72.9673C82.6055 73.1602 82.6055 73.1602 82.7269 73.5624C82.7371 73.6811 82.7473 73.7997 82.7578 73.9219C82.876 73.9535 82.9943 73.9851 83.1161 74.0177C83.7294 74.2482 84.2556 74.5509 84.8202 74.8803C86.3892 75.7907 87.6666 76.2956 89.4609 76.5117C92.6849 77.1628 95.4509 78.6376 97.3316 81.4027C99.0642 84.0725 99.0642 84.0725 99.055 85.1638C98.8415 85.8651 98.4884 86.4483 98.1064 87.071C98.0254 87.2045 97.9443 87.3379 97.8608 87.4753C96.6668 89.4039 95.27 91.1533 93.7266 92.8125C93.5449 93.0214 93.364 93.2308 93.1838 93.4409C92.2672 94.4876 91.2842 95.4036 90.1983 96.2736C89.9181 96.4986 89.6406 96.7269 89.3663 96.9591C87.4333 98.5906 85.2973 99.8669 83.0625 101.039C82.899 101.126 82.899 101.126 82.7322 101.215C79.3375 102.996 75.5708 104.12 71.7891 104.695C71.5226 104.737 71.5226 104.737 71.2508 104.78C69.5354 105.023 67.8357 105.061 66.1047 105.057C65.9577 105.057 65.8106 105.057 65.6591 105.057C63.2335 105.052 60.9155 104.888 58.5352 104.391C58.3972 104.364 58.2593 104.337 58.1172 104.309C53.787 103.455 49.3884 101.704 45.7383 99.2109C45.6395 99.1442 45.5407 99.0775 45.4389 99.0088C43.9381 97.9916 42.5251 96.9086 41.168 95.707C41.0301 95.5861 40.8922 95.4651 40.7502 95.3405C39.5316 94.2589 38.4218 93.1467 37.4022 91.874C37.1772 91.5939 36.9488 91.3164 36.7167 91.0421C35.7656 89.9152 34.9463 88.7254 34.1602 87.4805C34.067 87.3342 34.067 87.3342 33.972 87.185C33.7932 86.9014 33.6189 86.6156 33.446 86.3284C33.3449 86.1616 33.2438 85.9949 33.1396 85.8231C32.8698 85.1758 32.9465 84.8021 33.2029 84.1605C33.3386 83.856 33.4847 83.5593 33.6365 83.2625C33.7181 83.1019 33.7181 83.1019 33.8013 82.9381C35.33 80.0039 37.6852 77.9066 40.8181 76.8474C41.6415 76.5975 42.4876 76.4729 43.3414 76.3764C44.2307 76.2679 44.9392 75.9964 45.7383 75.5977C45.8704 75.5335 46.0025 75.4694 46.1386 75.4034C46.5598 75.1965 46.9775 74.9836 47.395 74.7693C47.5376 74.6985 47.6802 74.6277 47.8271 74.5548C48.5652 74.1746 49.0197 73.928 49.3945 73.1602C49.695 72.9525 49.695 72.9525 50.0134 72.8079C50.1189 72.7582 50.2243 72.7085 50.333 72.6573C50.6133 72.5508 50.6133 72.5508 50.918 72.5508C50.8551 72.7299 50.7923 72.909 50.7275 73.0935C50.5113 73.7452 50.3187 74.4024 50.1372 75.0645C50.0865 75.2483 50.0359 75.4321 49.9837 75.6215C49.6672 77.0242 49.6788 78.414 49.6843 79.8448C49.6846 80.0615 49.6848 80.2781 49.685 80.4947C49.6856 81.0605 49.6871 81.6262 49.6888 82.192C49.6903 82.7711 49.691 83.3502 49.6918 83.9293C49.6934 85.0622 49.696 86.1952 49.6992 87.3281C49.85 87.2779 50.0009 87.2276 50.1562 87.1758C50.4352 87.1615 50.7148 87.156 50.9941 87.1567C51.1402 87.1563 51.2864 87.156 51.4369 87.1555C51.832 87.1758 51.832 87.1758 52.2891 87.3281C52.2877 87.2076 52.2864 87.087 52.285 86.9628C52.2726 85.8157 52.2634 84.6687 52.2575 83.5215C52.2543 82.932 52.2501 82.3426 52.2431 81.7531C52.2364 81.1822 52.2328 80.6113 52.2312 80.0403C52.2301 79.8246 52.228 79.6089 52.2246 79.3932C52.1936 77.2997 52.5535 75.3246 53.5078 73.4458C53.5581 73.3409 53.6084 73.2361 53.6602 73.128C53.9705 72.4928 54.3221 71.9117 54.7266 71.332C55.3133 71.3599 55.489 71.4851 55.9144 71.9069C56.0662 72.0882 56.2161 72.2712 56.3643 72.4556C56.4445 72.5523 56.5247 72.649 56.6074 72.7486C56.8456 73.0367 57.0813 73.3266 57.3164 73.6172C57.435 73.7621 57.5536 73.907 57.6758 74.0564C57.8945 74.3238 58.1127 74.5915 58.3304 74.8597C58.7474 75.3656 59.1736 75.8628 59.6016 76.3594C60.2596 77.1231 60.9042 77.8958 61.5398 78.6785C61.9297 79.154 62.3264 79.6233 62.7246 80.0918C63.3677 80.8484 63.9996 81.6134 64.6265 82.3835C65.026 82.8705 65.4351 83.3482 65.8477 83.8242C66.5115 83.583 66.8871 83.0656 67.3235 82.5388C67.4447 82.3949 67.4447 82.3949 67.5683 82.2482C68.1555 81.5491 68.7338 80.8427 69.3093 80.134C69.6992 79.6585 70.0959 79.1892 70.4941 78.7207C71.008 78.116 71.5166 77.508 72.0176 76.8926C72.57 76.214 73.1327 75.5449 73.7002 74.8789C74.1201 74.3846 74.534 73.8861 74.9436 73.3833C75.0875 73.2071 75.0875 73.2071 75.2342 73.0272C75.4228 72.7957 75.6108 72.5638 75.7983 72.3314C75.8845 72.2257 75.9707 72.12 76.0594 72.011C76.1739 71.8696 76.1739 71.8696 76.2906 71.7253C76.5117 71.4844 76.5117 71.4844 76.9687 71.1797C76.7661 70.9508 76.5628 70.7224 76.3594 70.4941C76.2351 70.3541 76.1108 70.2141 75.9827 70.0698C75.6442 69.7062 75.2935 69.3846 74.9216 69.0564C74.0371 68.1824 74.0676 67.0861 74.0457 65.9048C74.0507 65.2618 74.0507 65.2618 74.2266 65.0859Z" fill="#1FA2E9"/>
<path d="M54.8789 31.875C54.9292 31.9755 54.9795 32.0761 55.0313 32.1797C54.9873 32.3022 54.9433 32.4248 54.898 32.551C54.7395 33.0529 54.7021 33.4217 54.679 33.9412C54.6326 34.5231 54.611 34.7208 54.2505 35.198C54.0192 35.374 53.7873 35.5495 53.5519 35.7199C52.3713 36.635 51.9823 37.8929 51.7385 39.3243C51.6321 40.1793 51.635 41.0311 51.6416 41.8916C51.6422 42.0791 51.6428 42.2665 51.6434 42.4597C51.6546 43.634 51.7189 44.7648 51.9177 45.9234C51.9811 46.3269 51.9964 46.7017 51.9844 47.1094C51.7393 47.1565 51.7393 47.1565 51.4893 47.2046C50.9036 47.3715 50.9036 47.3715 50.5466 47.8044C50.1487 48.68 50.2074 49.5014 50.5258 50.402C50.6196 50.6415 50.7154 50.8801 50.8132 51.1179C51.1425 51.9541 51.4357 52.759 51.6226 53.6411C51.7882 54.3814 51.9918 54.7242 52.5938 55.1836C52.644 55.2339 52.6943 55.2841 52.7461 55.3359C52.9514 55.3711 53.158 55.3986 53.365 55.4216C53.563 55.4436 53.7609 55.4656 53.9649 55.4883C53.9855 55.6619 54.0061 55.8355 54.0273 56.0143C54.4335 59.1138 55.4375 62.2761 57.464 64.7176C57.6211 64.9336 57.6211 64.9336 57.6211 65.2383C57.364 65.419 57.0987 65.5882 56.8308 65.7524C54.5899 67.2128 52.9257 69.0993 51.6732 71.454C51.1485 72.3117 50.5916 72.7623 49.679 73.1316C49.3632 73.3002 49.3632 73.3002 49.1966 73.676C48.8948 74.1398 48.6538 74.2843 48.1639 74.5324C48.0121 74.6104 47.8603 74.6884 47.7039 74.7687C47.4662 74.8868 47.4662 74.8868 47.2236 75.0073C46.9895 75.1272 46.9895 75.1272 46.7505 75.2495C46.3136 75.4716 45.8745 75.6883 45.4336 75.9023C45.334 75.952 45.2344 76.0017 45.1319 76.0529C44.4355 76.3803 43.7595 76.468 43.0056 76.5593C39.7148 77.0245 36.96 78.6011 34.9141 81.2528C34.1129 82.4362 33.4907 83.7265 32.9414 85.043C30.5749 82.1336 29.5493 77.2379 28.9805 73.6172C28.9386 73.3551 28.9386 73.3551 28.8959 73.0877C28.6444 71.3317 28.6213 69.5904 28.6282 67.8186C28.6285 67.6668 28.6288 67.5149 28.6292 67.3585C28.6368 65.1513 28.6822 62.9886 29.1328 60.8203C29.1782 60.596 29.1782 60.596 29.2245 60.3671C30.9773 51.9382 35.5329 43.9057 42.3867 38.5781C42.6112 38.3981 42.6112 38.3981 42.8402 38.2145C46.4471 35.3442 50.5169 33.329 54.8789 31.875Z" fill="#FFDC3F"/>
<path d="M71.1797 27.6076C71.2863 27.6411 71.3929 27.6745 71.5027 27.709C74.2715 28.6092 77.3993 30.19 78.8921 32.8159C79.014 33.0596 79.1345 33.3041 79.2539 33.549C79.3419 33.7093 79.4299 33.8695 79.5205 34.0346C81.0215 36.8365 81.0943 39.9284 80.5506 43.0247C80.3689 44.3742 80.3648 45.7477 80.3203 47.1076C79.4908 47.2584 79.4908 47.2584 78.6446 47.4123C78.588 47.1986 78.5315 46.985 78.4732 46.7648C78.2901 46.1368 78.0444 45.6195 77.7192 45.0533C77.1861 44.0043 77.1529 43.0879 77.1687 41.9279C77.1763 39.9436 77.0467 38.0467 75.75 36.4435C74.5248 35.3258 72.7343 35.0937 71.1375 35.148C70.0998 35.2272 69.0947 35.5239 68.0988 35.8136C67.1458 36.0823 66.3062 36.1794 65.3152 36.14C64.9137 36.1185 64.9137 36.1185 64.4766 36.2912C64.3096 36.5679 64.3096 36.5679 64.1719 36.9006C64.1106 37.009 64.0494 37.1174 63.9862 37.2291C63.2129 38.6437 63.0827 40.0588 63.0788 41.6512C63.0726 43.2501 62.9456 44.4676 62.1444 45.8609C61.0342 47.9505 61.6736 50.5443 62.0391 52.7634C62.1842 53.6714 62.2651 54.5805 62.3438 55.496C62.7731 60.3051 64.6755 64.3641 68.4078 67.5568C69.1265 68.1747 69.1265 68.1747 69.961 68.5881C71.4692 68.2617 72.6349 66.8662 73.666 65.7929C73.9219 65.5412 73.9219 65.5412 74.0743 65.5412C74.084 65.8149 74.084 65.8149 74.0939 66.094C74.2391 68.047 74.8326 68.9923 76.3029 70.2633C76.3941 70.3374 76.4853 70.4115 76.5793 70.4879C76.8427 70.7467 76.9745 70.9936 77.1211 71.3303C76.9517 71.4207 76.9517 71.4207 76.7789 71.513C76.3274 71.8082 76.0709 72.0959 75.7405 72.5204C75.1986 73.203 74.6443 73.8703 74.0743 74.5295C73.4161 75.2931 72.7716 76.0659 72.136 76.8486C71.7461 77.3241 71.3494 77.7934 70.9512 78.2619C70.4374 78.8666 69.9287 79.4746 69.4278 80.09C68.3582 81.4035 67.2571 82.6909 66.1524 83.9748C65.7025 83.7751 65.4169 83.5735 65.0985 83.1994C65.0181 83.1059 64.9378 83.0124 64.855 82.916C64.771 82.8161 64.6869 82.7162 64.6004 82.6132C64.5124 82.5101 64.4245 82.4071 64.3338 82.3009C63.7241 81.5839 63.1254 80.8582 62.533 80.1269C62.1454 79.6528 61.7502 79.1855 61.3536 78.7189C60.8425 78.1177 60.3371 77.5129 59.8396 76.9003C59.2375 76.1604 58.6185 75.4363 57.9954 74.714C57.4013 74.0237 56.8243 73.3217 56.2554 72.6103C55.6048 71.8121 55.6048 71.8121 54.7266 71.3303C54.6885 71.4324 54.6504 71.5345 54.6111 71.6397C54.4264 72.0812 54.2142 72.5013 53.9926 72.9252C53.1086 74.6236 52.4361 76.3418 52.4102 78.2811C52.4079 78.4284 52.4079 78.4284 52.4056 78.5786C52.4008 78.9009 52.397 79.2232 52.3932 79.5455C52.3901 79.7699 52.3869 79.9942 52.3836 80.2185C52.3753 80.8073 52.3677 81.3961 52.3604 81.9849C52.3527 82.5864 52.3442 83.1879 52.3358 83.7894C52.3195 84.9684 52.304 86.1474 52.2891 87.3264C52.1422 87.3246 51.9953 87.3228 51.844 87.321C51.6515 87.3196 51.4591 87.3182 51.2608 87.3168C50.9745 87.3142 50.9745 87.3142 50.6823 87.3115C50.2652 87.3233 49.9401 87.3526 49.5469 87.4787C49.5398 86.2192 49.5344 84.9596 49.5311 83.7001C49.5295 83.1151 49.5274 82.53 49.5239 81.945C49.5206 81.379 49.5188 80.813 49.518 80.247C49.5174 80.0325 49.5164 79.818 49.5147 79.6035C49.5049 78.2843 49.5859 77.0413 49.8516 75.7482C49.9026 75.4911 49.9026 75.4911 49.9545 75.2287C50.2098 74.1655 50.5776 73.2191 51.0703 72.2443C51.1882 72.0063 51.1882 72.0063 51.3084 71.7635C52.6074 69.2376 54.8073 66.2206 57.6211 65.2365C57.4747 65.0288 57.4747 65.0288 57.3254 64.817C55.4411 62.0985 53.8558 58.8671 53.9649 55.4865C53.7795 55.4991 53.5941 55.5116 53.4031 55.5246C52.9172 55.5229 52.7544 55.4913 52.3177 55.239C51.6864 54.5536 51.4573 53.7789 51.2417 52.8871C51.0477 52.1055 50.8093 51.3763 50.4991 50.6306C50.141 49.7233 49.893 48.9411 50.2914 48.011C50.4865 47.6906 50.6147 47.4839 50.918 47.2599C51.4792 47.1552 51.4792 47.1552 51.9844 47.1076C51.9514 46.9371 51.9184 46.7667 51.8844 46.5911C51.3344 43.5199 50.7998 39.3876 52.5134 36.5905C52.8546 36.1516 53.2485 35.8024 53.6804 35.4545C54.2385 35.0443 54.2385 35.0443 54.4731 34.4262C54.4751 34.2938 54.477 34.1615 54.479 34.0251C54.6092 32.1998 55.3617 30.8067 56.7071 29.5881C60.3899 26.503 66.7329 26.2062 71.1797 27.6076Z" fill="#FEA97B"/>
<path d="M75.4357 36.0086C76.589 36.9501 77.0264 38.385 77.2733 39.7981C77.3189 40.5032 77.3141 41.2056 77.3114 41.9119C77.3312 43.4245 77.4534 44.504 78.2499 45.7907C78.5807 46.345 78.6317 46.7782 78.6444 47.4153C78.745 47.365 78.8455 47.3148 78.9491 47.263C79.6865 47.0172 80.3318 46.9869 81.0534 47.2915C81.5205 47.6786 81.804 48.0013 81.8791 48.6222C81.8999 49.553 81.6905 50.2642 81.339 51.1192C81.0108 51.9546 80.7141 52.7632 80.5202 53.6423C80.3409 54.4251 80.0971 54.9051 79.4347 55.3848C78.9639 55.5328 78.5247 55.5084 78.0351 55.4895C78.0294 55.6113 78.0237 55.733 78.0178 55.8585C77.7836 59.7715 76.1075 63.3037 73.4647 66.1536C73.3467 66.2822 73.2287 66.4108 73.1071 66.5434C71.0743 68.6693 71.0743 68.6693 69.9608 68.7434C66.8662 67.1907 64.5135 63.8087 63.2577 60.6692C63.2035 60.5478 63.1493 60.4265 63.0935 60.3014C62.2754 58.3294 62.1894 56.0649 61.9934 53.9599C61.9143 53.1237 61.7965 52.3028 61.6492 51.4756C61.5342 50.7847 61.4719 50.0946 61.4296 49.3958C61.4196 49.2501 61.4096 49.1043 61.3992 48.9542C61.3498 47.655 61.5823 46.3968 62.2276 45.2527C62.8081 44.2162 62.9019 43.3836 62.8959 42.207C62.9809 37.9149 62.9809 37.9149 64.4765 36.2942C64.9706 35.9902 65.3736 35.9826 65.9368 35.999C66.8557 36.0181 67.6552 35.7833 68.5326 35.5325C70.8935 34.9055 73.2386 34.6605 75.4357 36.0086Z" fill="#FEC6AA"/>
<path d="M54.879 31.875C54.9293 31.9755 54.9795 32.0761 55.0313 32.1797C54.9873 32.3022 54.9433 32.4248 54.898 32.551C54.7395 33.0529 54.7021 33.4217 54.679 33.9412C54.6326 34.5231 54.6111 34.7208 54.2506 35.198C54.0192 35.374 53.7874 35.5495 53.5519 35.7199C52.3714 36.635 51.9824 37.8929 51.7386 39.3243C51.6322 40.1793 51.6351 41.0311 51.6417 41.8916C51.6423 42.0791 51.6429 42.2665 51.6435 42.4597C51.6546 43.634 51.7189 44.7648 51.9178 45.9234C51.9812 46.3269 51.9965 46.7017 51.9845 47.1094C51.7394 47.1565 51.7394 47.1565 51.4893 47.2046C50.9036 47.3715 50.9036 47.3715 50.5467 47.8044C50.1487 48.68 50.2075 49.5014 50.5259 50.402C50.6196 50.6415 50.7155 50.8801 50.8133 51.1179C51.1426 51.9541 51.4357 52.759 51.6226 53.6411C51.7883 54.3814 51.9919 54.7242 52.5938 55.1836C52.6441 55.2339 52.6944 55.2841 52.7462 55.3359C52.9515 55.3711 53.1581 55.3986 53.3651 55.4216C53.563 55.4436 53.761 55.4656 53.9649 55.4883C53.9855 55.6619 54.0062 55.8355 54.0274 56.0143C54.4335 59.1138 55.4376 62.2761 57.4641 64.7176C57.6212 64.9336 57.6212 64.9336 57.6212 65.2383C57.364 65.419 57.0988 65.5882 56.8309 65.7524C54.59 67.2128 52.9258 69.0993 51.6732 71.454C51.1485 72.3117 50.5916 72.7623 49.6791 73.1316C49.3633 73.3002 49.3633 73.3002 49.1967 73.676C48.8949 74.1398 48.6539 74.2843 48.164 74.5324C48.0122 74.6104 47.8604 74.6884 47.704 74.7687C47.4662 74.8868 47.4662 74.8868 47.2237 75.0073C46.9895 75.1272 46.9895 75.1272 46.7506 75.2495C46.3137 75.4716 45.8746 75.6883 45.4337 75.9023C45.3341 75.952 45.2345 76.0017 45.1319 76.0529C44.4355 76.3803 43.7596 76.468 43.0057 76.5593C39.7149 77.0245 36.9601 78.6011 34.9142 81.2528C34.113 82.4362 33.4907 83.7265 32.9415 85.043C32.1758 84.1142 31.7392 82.94 31.2657 81.8438C31.2063 81.7086 31.1469 81.5735 31.0857 81.4343C30.0678 79.0575 30.0678 79.0575 30.3564 78.1512C30.6767 77.7426 31.0126 77.4443 31.418 77.1211C31.6222 76.8966 31.8253 76.6713 32.0274 76.4451C33.7106 74.8186 35.8297 73.6936 37.8402 72.5255C41.7305 70.259 45.3126 67.5992 46.5947 63.0764C46.9423 61.7358 47.2195 60.3793 47.2618 58.9922C47.2665 58.8463 47.2665 58.8463 47.2712 58.6975C47.4218 53.2563 45.9422 48.0391 42.1753 43.9874C41.2945 43.0603 40.3945 42.2028 39.3399 41.4727C43.1328 36.7572 49.2738 33.7434 54.879 31.875Z" fill="#FEC739"/>
<path d="M78.4922 32.4844C79.3444 32.5736 80.0369 32.8823 80.8059 33.2366C80.9388 33.2972 81.0716 33.3579 81.2085 33.4204C83.284 34.3799 85.3195 35.4065 87.1758 36.75C87.2678 36.8163 87.3597 36.8827 87.4545 36.951C88.5926 37.7758 89.7027 38.6308 90.7749 39.5398C90.8595 39.6109 90.9441 39.6821 91.0313 39.7554C91.6373 40.2782 92.1539 40.8535 92.6602 41.4727C92.4722 41.6276 92.4722 41.6276 92.2805 41.7857C87.9534 45.3793 85.4008 49.7756 84.7764 55.4216C84.7594 55.6975 84.7472 55.9737 84.7383 56.25C84.7265 56.5434 84.7265 56.5434 84.7145 56.8427C84.6023 60.9669 85.4271 64.9791 88.2422 68.1328C88.3435 68.2467 88.4449 68.3606 88.5493 68.478C90.4338 70.4741 92.9415 71.7684 95.2719 73.1707C100.991 76.6148 100.991 76.6148 101.801 78.7969C101.778 79.3074 101.606 79.7282 101.41 80.1965C101.336 80.3906 101.336 80.3906 101.26 80.5886C100.661 82.1095 99.9428 83.5823 99.2109 85.043C98.7814 84.4926 98.49 83.9096 98.1921 83.2815C96.7231 80.2785 94.5642 78.2205 91.3999 77.1111C90.5747 76.8446 89.7573 76.7091 88.8992 76.5974C87.6699 76.4341 86.7134 76.0785 85.6317 75.4519C85.3099 75.2718 84.9821 75.1084 84.6514 74.9454C84.4137 74.8264 84.1761 74.7074 83.9385 74.5884C83.7694 74.5062 83.7694 74.5062 83.5968 74.4223C82.9315 74.0797 82.702 73.8862 82.4531 73.1602C82.1299 72.9822 82.1299 72.9822 81.7485 72.865C80.9012 72.4778 80.5852 71.9184 80.1741 71.1267C78.8751 68.6313 76.8023 66.6427 74.3789 65.2383C74.5767 64.6884 74.8146 64.2726 75.1692 63.8101C76.9266 61.3438 77.6439 58.4431 78.0352 55.4883C78.1704 55.4685 78.1704 55.4685 78.3083 55.4484C79.1471 55.2993 79.6487 55.1427 80.168 54.4219C80.3398 53.9992 80.4463 53.5709 80.5488 53.127C80.7674 52.2547 81.0104 51.4335 81.3582 50.6038C81.6659 49.8304 81.8719 49.1572 81.6914 48.3281C81.3379 47.608 81.0593 47.3729 80.3203 47.1094C80.2636 43.731 80.2636 43.731 80.4727 42.5486C81.0947 38.83 80.4382 35.6724 78.4922 32.4844Z" fill="#FEC739"/>
<path d="M50.918 72.5508C50.8551 72.7299 50.7923 72.909 50.7275 73.0935C50.5113 73.7452 50.3187 74.4024 50.1372 75.0645C50.0865 75.2483 50.0359 75.4321 49.9837 75.6215C49.6672 77.0242 49.6788 78.414 49.6843 79.8448C49.6846 80.0615 49.6848 80.2781 49.685 80.4947C49.6856 81.0605 49.6871 81.6262 49.6888 82.192C49.6903 82.7711 49.691 83.3502 49.6918 83.9293C49.6934 85.0622 49.696 86.1952 49.6992 87.3281C49.85 87.2779 50.0009 87.2276 50.1562 87.1758C51.2353 87.0694 52.1748 87.0986 53.0508 87.7852C53.835 88.5747 55.4883 90.5884 55.4883 91.7461C55.578 91.7883 55.6678 91.8305 55.7602 91.874C58.088 93.0934 58.6704 96.1904 59.4207 98.4873C59.4826 98.6703 59.5446 98.8534 59.6084 99.0419C59.9369 100.049 60.1635 100.893 60.0586 101.953C59.7853 102.39 59.6042 102.637 59.1445 102.867C58.8083 102.914 58.8083 102.914 58.4114 102.934C58.2816 102.943 58.1518 102.952 58.018 102.962C57.4371 102.823 57.177 102.431 56.8594 101.953C56.6707 101.55 56.5373 101.137 56.4065 100.712C56.3685 100.595 56.3304 100.478 56.2912 100.357C56.1707 99.9853 56.0531 99.6125 55.9358 99.2395C55.3141 96.7485 55.3141 96.7485 53.9553 94.7168C52.9749 94.2162 52.0273 94.2965 50.9465 94.2883C50.7528 94.2839 50.5591 94.2795 50.3595 94.2749C49.0356 94.2659 48.4879 94.3465 47.5444 95.2625C47.1316 95.9117 46.9275 96.6039 46.6999 97.3352C46.6075 97.6247 46.5148 97.9141 46.422 98.2034C46.382 98.331 46.342 98.4586 46.3008 98.5901C46.1953 98.9062 46.1953 98.9062 46.043 99.2109C45.3846 98.9837 44.8503 98.6362 44.291 98.2302C44.1983 98.1634 44.1055 98.0965 44.01 98.0276C43.0198 97.3039 42.0884 96.5167 41.168 95.707C41.0295 95.5857 40.8911 95.4643 40.7484 95.3393C39.5309 94.2575 38.4214 93.1463 37.4022 91.874C37.1772 91.5939 36.9488 91.3164 36.7167 91.0421C35.7656 89.9152 34.9463 88.7254 34.1602 87.4805C34.098 87.383 34.0359 87.2855 33.972 87.185C33.7932 86.9014 33.6189 86.6156 33.446 86.3284C33.3449 86.1616 33.2438 85.9949 33.1396 85.8231C32.8698 85.1758 32.9465 84.8021 33.2029 84.1605C33.3386 83.856 33.4847 83.5593 33.6365 83.2625C33.7181 83.1019 33.7181 83.1019 33.8013 82.9381C35.33 80.0039 37.6852 77.9066 40.8181 76.8474C41.6415 76.5975 42.4876 76.4729 43.3414 76.3764C44.2307 76.2679 44.9392 75.9964 45.7383 75.5977C45.8704 75.5335 46.0025 75.4694 46.1386 75.4034C46.5598 75.1965 46.9775 74.9836 47.395 74.7693C47.5376 74.6985 47.6802 74.6277 47.8271 74.5548C48.5652 74.1746 49.0197 73.928 49.3945 73.1602C49.695 72.9525 49.695 72.9525 50.0134 72.8079C50.1189 72.7582 50.2243 72.7085 50.333 72.6573C50.6133 72.5508 50.6133 72.5508 50.918 72.5508Z" fill="#218EE7"/>
<path d="M71.1796 27.6076C71.2862 27.6411 71.3928 27.6745 71.5026 27.709C74.2714 28.6092 77.3992 30.19 78.892 32.8159C79.0139 33.0596 79.1344 33.3041 79.2538 33.549C79.3418 33.7093 79.4298 33.8695 79.5204 34.0346C81.0214 36.8365 81.0942 39.9284 80.5505 43.0247C80.3688 44.3742 80.3647 45.7477 80.3202 47.1076C79.4907 47.2584 79.4907 47.2584 78.6445 47.4123C78.5879 47.1986 78.5313 46.985 78.4731 46.7648C78.29 46.1368 78.0443 45.6195 77.7191 45.0533C77.186 44.0043 77.1528 43.0879 77.1686 41.9279C77.1762 39.9436 77.0466 38.0467 75.7499 36.4435C74.5251 35.3261 72.735 35.0937 71.1386 35.148C70.0917 35.228 69.0779 35.5259 68.0719 35.8136C66.4653 36.2636 65.2043 36.1888 63.6005 35.7675C61.42 35.2139 59.2703 34.7862 57.164 35.8342C57.0117 35.9063 57.0117 35.9063 56.8563 35.98C55.8736 36.5516 55.4211 37.6711 55.0911 38.7168C54.8659 39.5812 54.8578 40.4116 54.8598 41.3012C54.8598 43.1407 54.714 44.56 53.7839 46.1596C53.5356 46.601 53.4158 46.9153 53.3554 47.4123C52.9029 47.3117 52.4505 47.2112 51.9843 47.1076C51.3627 43.8961 50.7118 39.531 52.5133 36.5905C52.8545 36.1516 53.2484 35.8024 53.6803 35.4545C54.2384 35.0443 54.2384 35.0443 54.473 34.4262C54.4759 34.2276 54.4759 34.2276 54.4789 34.0251C54.6091 32.1998 55.3616 30.8067 56.707 29.5881C60.3898 26.503 66.7328 26.2062 71.1796 27.6076Z" fill="#2B428B"/>
<path d="M81.0822 72.5508C81.3047 72.6195 81.5268 72.6896 81.7487 72.7603C81.8724 72.7991 81.9961 72.838 82.1236 72.8781C82.4532 73.0078 82.4532 73.0078 82.7579 73.3125C82.7579 73.5136 82.7579 73.7147 82.7579 73.9219C82.9353 73.9693 82.9353 73.9693 83.1162 74.0177C83.7295 74.2482 84.2558 74.5509 84.8203 74.8803C86.3894 75.7907 87.6668 76.2956 89.4611 76.5117C92.685 77.1628 95.4511 78.6376 97.3317 81.4027C99.0643 84.0725 99.0643 84.0725 99.0551 85.1638C98.8416 85.8651 98.4885 86.4483 98.1066 87.071C98.0255 87.2045 97.9444 87.3379 97.8609 87.4753C96.7501 89.2695 95.4689 90.9385 94.032 92.484C93.6334 92.9129 93.2545 93.3575 92.8751 93.8033C92.6603 94.0312 92.6603 94.0312 92.3556 94.1836C92.3055 94.0324 92.2554 93.8812 92.2038 93.7254C91.5474 91.8222 90.5877 89.6003 88.8898 88.4041C88.2282 88.1878 87.69 88.1888 87.0236 88.3945C86.5822 88.7469 86.5822 88.7469 86.2618 89.1562C86.111 89.2568 85.9602 89.3573 85.8048 89.4609C85.753 89.3836 85.7011 89.3062 85.6477 89.2265C84.8129 88.0409 83.935 87.4317 82.6056 86.8711C82.608 87.024 82.6104 87.1769 82.6128 87.3345C82.6211 87.9037 82.6264 88.473 82.6307 89.0423C82.633 89.2883 82.6361 89.5343 82.6401 89.7803C82.6456 90.1347 82.6482 90.4889 82.6502 90.8433C82.6526 90.9527 82.6549 91.0621 82.6574 91.1748C82.6576 91.8535 82.5578 92.2691 82.1486 92.8125C81.7954 93.1657 81.5959 93.2597 81.1012 93.3457C80.4318 93.2386 80.1889 92.9857 79.7111 92.5078C79.5653 92.0705 79.5362 91.7831 79.5293 91.3282C79.5269 91.1817 79.5244 91.0352 79.5219 90.8843C79.5151 90.2153 79.5089 89.5463 79.5054 88.8772C79.5029 88.5245 79.4987 88.1718 79.4929 87.8191C79.4845 87.3101 79.4812 86.8012 79.479 86.2921C79.4755 86.1349 79.4721 85.9778 79.4685 85.8159C79.4721 84.5931 79.4721 84.5931 79.9255 84.0318C80.3537 83.6415 80.4873 83.5348 81.0536 83.4719C81.648 83.5302 81.8569 83.7467 82.3009 84.1289C82.3085 83.1805 82.314 82.2321 82.3176 81.2836C82.3192 80.9615 82.3212 80.6394 82.3239 80.3173C82.3276 79.8522 82.3293 79.387 82.3307 78.9218C82.3322 78.7798 82.3338 78.6377 82.3354 78.4913C82.3356 77.5431 82.2144 76.6719 81.9962 75.75C81.9587 75.5848 81.9212 75.4197 81.8826 75.2495C81.6545 74.3334 81.3941 73.442 81.0822 72.5508Z" fill="#1FA2E9"/>
<path d="M74.2266 65.0859C75.4277 65.6477 76.3819 66.456 77.3627 67.3314C77.5342 67.4843 77.7081 67.6344 77.8828 67.7835C80.3992 70.0761 82.1265 73.9259 82.4531 77.2734C82.4729 77.8193 82.4709 78.3644 82.468 78.9105C82.4678 79.0646 82.4676 79.2186 82.4674 79.3773C82.4665 79.8662 82.4646 80.3551 82.4626 80.844C82.4619 81.1768 82.4612 81.5095 82.4606 81.8423C82.4589 82.6553 82.4563 83.4683 82.4531 84.2812C82.3117 84.1823 82.1703 84.0833 82.0247 83.9813C81.4773 83.6325 81.2591 83.5662 80.625 83.6719C80.3234 83.873 80.0217 84.0741 79.7109 84.2812C79.7109 82.22 79.7109 80.1588 79.7109 78.0352C78.5419 79.2042 77.4509 80.4234 76.4123 81.7093C76.0199 82.1911 75.6194 82.6654 75.2168 83.1387C74.5893 83.877 73.9728 84.6233 73.3613 85.375C72.963 85.8592 72.5574 86.3367 72.1509 86.814C71.5003 87.5782 70.8716 88.3559 70.2656 89.1562C68.6344 87.5777 67.1854 85.8075 65.8477 83.9766C65.9702 83.8854 66.0927 83.7943 66.219 83.7004C66.8134 83.2047 67.2719 82.6129 67.7537 82.0104C68.1514 81.516 68.5592 81.0317 68.9707 80.5488C69.4846 79.9442 69.9932 79.3361 70.4941 78.7207C71.0651 78.0192 71.6474 77.3283 72.233 76.6391C72.6746 76.1186 73.1101 75.5938 73.541 75.0645C74.1871 74.2708 74.8469 73.4895 75.5096 72.7097C75.7118 72.471 75.9137 72.2321 76.1109 71.9894C76.6334 71.3473 76.6334 71.3473 76.9688 71.1797C76.7661 70.9508 76.5628 70.7224 76.3594 70.4941C76.2351 70.3541 76.1108 70.2141 75.9827 70.0698C75.6442 69.7062 75.2935 69.3846 74.9216 69.0564C74.0371 68.1824 74.0676 67.0861 74.0457 65.9048C74.0507 65.2618 74.0507 65.2618 74.2266 65.0859Z" fill="#73C2F8"/>
<path d="M52.4795 87.3941C53.8807 88.2184 54.7305 90.0507 55.4883 91.4408C55.4883 91.5413 55.4883 91.6418 55.4883 91.7454C55.578 91.7877 55.6678 91.8299 55.7602 91.8734C58.088 93.0927 58.6704 96.1897 59.4207 98.4866C59.4826 98.6697 59.5446 98.8527 59.6084 99.0413C59.9369 100.048 60.1635 100.892 60.0586 101.952C59.7853 102.39 59.6042 102.637 59.1445 102.867C58.8083 102.914 58.8083 102.914 58.4114 102.933C58.2816 102.942 58.1518 102.952 58.018 102.961C57.4371 102.823 57.177 102.431 56.8594 101.952C56.6707 101.549 56.5373 101.137 56.4065 100.712C56.3685 100.595 56.3304 100.477 56.2912 100.357C56.1707 99.9846 56.0531 99.6118 55.9358 99.2388C55.3141 96.7478 55.3141 96.7478 53.9553 94.7161C52.9749 94.2155 52.0273 94.2958 50.9465 94.2877C50.7528 94.2833 50.5591 94.2788 50.3595 94.2743C49.0356 94.2653 48.4879 94.3458 47.5444 95.2618C47.1316 95.911 46.9275 96.6032 46.7 97.3345C46.6075 97.624 46.5148 97.9134 46.422 98.2028C46.382 98.3304 46.342 98.458 46.3008 98.5894C46.1953 98.9056 46.1953 98.9056 46.043 99.2103C45.3226 98.9706 44.7719 98.5695 44.1672 98.1248C44.0198 98.0179 44.0198 98.0179 43.8694 97.9088C43.6286 97.734 43.3884 97.5582 43.1484 97.3822C43.6128 95.2529 44.223 93.2479 46.1049 91.9496C46.6932 91.4188 47.0265 90.7643 47.4141 90.0792C48.5149 88.1415 50.0053 86.3289 52.4795 87.3941Z" fill="#3B58A0"/>
<path d="M64.7717 26.9892C64.8904 26.9899 65.0091 26.9906 65.1314 26.9913C65.4209 26.993 65.7104 26.9958 65.9999 26.9987C65.8711 27.1432 65.7423 27.2878 65.6095 27.4367C64.1857 29.1103 63.3926 30.5257 63.4761 32.7622C63.571 33.7997 64.0986 34.6527 64.6288 35.53C64.6791 35.6305 64.7294 35.731 64.7812 35.8346C63.9424 35.7611 63.1469 35.6276 62.3246 35.4443C60.5285 35.0807 58.841 35.0003 57.164 35.8346C57.0117 35.9068 57.0117 35.9068 56.8563 35.9804C55.8736 36.5521 55.4211 37.6715 55.0911 38.7173C54.8659 39.5817 54.8578 40.412 54.8598 41.3017C54.8598 43.1412 54.714 44.5605 53.7839 46.1601C53.5356 46.6015 53.4158 46.9157 53.3554 47.4128C52.9029 47.3122 52.4505 47.2117 51.9843 47.1081C51.3627 43.8966 50.7118 39.5314 52.5133 36.591C52.8545 36.1521 53.2484 35.8029 53.6803 35.455C54.2384 35.0448 54.2384 35.0448 54.473 34.4266C54.4759 34.2281 54.4759 34.2281 54.4789 34.0256C54.6091 32.2002 55.3616 30.8071 56.707 29.5885C58.9016 27.7501 61.9498 26.9577 64.7717 26.9892Z" fill="#1D2F79"/>
<path d="M60.7775 79.4902C61.4857 79.4223 61.9827 79.4025 62.5663 79.8407C62.9257 80.2386 63.245 80.6508 63.5625 81.0827C63.7835 81.3534 64.0057 81.6232 64.229 81.892C64.3417 82.0313 64.4544 82.1705 64.5706 82.3139C64.9652 82.7972 65.3673 83.2735 65.7715 83.7487C66.398 84.4859 67.0136 85.2309 67.624 85.9815C68.1101 86.5723 68.6057 87.155 69.1034 87.7361C69.9663 88.7482 69.9663 88.7482 69.9425 89.2117C69.7759 89.7122 69.5317 90.0125 69.1897 90.4137C69.0664 90.5589 68.943 90.704 68.816 90.8535C68.6911 90.9975 68.5662 91.1414 68.4375 91.2897C68.3252 91.4227 68.2128 91.5556 68.0971 91.6926C67.0388 92.9239 67.0388 92.9239 66.019 93.0226C65.1744 92.9915 64.7323 92.6182 64.1635 92.0354C63.4426 91.2508 62.7677 90.4294 62.0974 89.6014C61.7028 89.1182 61.3007 88.6419 60.8965 88.1667C60.2574 87.414 59.622 86.6588 59.0047 85.8881C58.7995 85.6374 58.5867 85.3928 58.3656 85.1561C57.7925 84.5164 57.551 84.0768 57.5259 83.206C57.6111 81.9841 57.8305 81.2659 58.7351 80.4162C59.4181 79.858 59.9098 79.6348 60.7775 79.4902Z" fill="#49B0F6"/>
<path d="M58.0781 65.6953C59.0623 66.5329 59.0623 66.5329 59.4671 66.9093C61.4238 68.7198 63.3995 69.411 66 69.6562C66.1739 72.7486 65.1714 75.9275 63.1894 78.3363C62.8631 78.6999 62.5325 79.0566 62.1914 79.4062C61.4307 78.8406 60.8751 78.1773 60.2841 77.4389C59.8926 76.9518 59.4921 76.4737 59.0874 75.9976C58.9827 75.8741 58.9827 75.8741 58.8759 75.7481C58.5142 75.3217 58.1518 74.8959 57.7889 74.4706C57.6441 74.3004 57.4992 74.1302 57.3545 73.96C57.2846 73.8778 57.2147 73.7957 57.1427 73.7111C56.6479 73.1264 56.1768 72.5279 55.7222 71.9117C55.4689 71.6139 55.199 71.4023 54.8789 71.1797C55.0816 70.9508 55.2848 70.7224 55.4883 70.4941C55.6128 70.3529 55.7373 70.2117 55.8656 70.0663C56.25 69.6562 56.25 69.6562 56.5963 69.3748C57.6079 68.5494 57.6993 67.6217 57.8538 66.3862C57.9258 65.8477 57.9258 65.8477 58.0781 65.6953Z" fill="#FB9460"/>
<path d="M79.5585 86.8711C79.5608 87.024 79.563 87.1769 79.5653 87.3345C79.5741 87.9038 79.5859 88.473 79.5985 89.0423C79.6036 89.2883 79.6078 89.5343 79.6113 89.7803C79.6164 90.1347 79.6244 90.489 79.6329 90.8433C79.6339 90.9527 79.6349 91.0621 79.6359 91.1748C79.6554 91.8454 79.754 92.2801 80.1679 92.8125C80.703 93.1692 80.909 93.1928 81.539 93.1172C82.0475 92.7895 82.2603 92.6291 82.4531 92.0508C82.4764 91.6572 82.4922 91.267 82.5013 90.8731C82.5044 90.7588 82.5076 90.6444 82.5109 90.5267C82.5208 90.1619 82.5298 89.7971 82.5388 89.4324C82.5453 89.1849 82.552 88.9375 82.5587 88.69C82.575 88.0837 82.5904 87.4774 82.6054 86.8711C84.1819 87.3209 85.2751 88.1865 86.1188 89.6103C86.7271 90.9206 86.7781 92.3857 86.4438 93.7813C85.7966 95.5041 84.6821 96.6032 83.0315 97.3739C81.6459 97.8983 80.2456 97.8233 78.8837 97.2703C77.3423 96.5137 76.3283 95.3311 75.7499 93.7266C75.4016 92.6442 75.4023 91.1308 75.8452 90.0798C76.5593 88.7468 77.882 86.8711 79.5585 86.8711Z" fill="#D0DBFA"/>
<path d="M57.6211 65.0859C57.7217 65.1362 57.8222 65.1865 57.9258 65.2383C57.9457 65.7473 57.9389 66.2526 57.9258 66.7617C57.9299 66.8917 57.9341 67.0217 57.9383 67.1557C57.8679 68.4232 57.104 69.026 56.2324 69.8456C54.933 71.0763 54.1101 72.4626 53.3745 74.0837C53.3327 74.1751 53.2909 74.2665 53.2478 74.3607C52.5181 76.0728 52.3716 77.828 52.3635 79.6663C52.3609 79.8889 52.3581 80.1115 52.3552 80.3341C52.348 80.9129 52.3434 81.4916 52.3394 82.0704C52.3349 82.6638 52.3278 83.2573 52.3209 83.8507C52.3079 85.0098 52.2976 86.169 52.2891 87.3281C52.1422 87.3264 51.9953 87.3246 51.844 87.3228C51.6515 87.3214 51.4591 87.32 51.2608 87.3186C50.9745 87.316 50.9745 87.316 50.6823 87.3132C50.2652 87.325 49.9401 87.3544 49.5469 87.4805C49.5398 86.2209 49.5344 84.9614 49.5311 83.7019C49.5295 83.1168 49.5274 82.5318 49.5239 81.9468C49.5206 81.3808 49.5188 80.8148 49.518 80.2488C49.5174 80.0343 49.5164 79.8198 49.5147 79.6053C49.5049 78.2861 49.5859 77.0431 49.8516 75.75C49.8856 75.5786 49.9195 75.4071 49.9545 75.2305C50.2098 74.1673 50.5776 73.2209 51.0703 72.2461C51.1489 72.0874 51.2275 71.9287 51.3084 71.7653C52.7118 69.0363 54.8606 66.5256 57.6211 65.0859Z" fill="#DBECFE"/>
<path d="M74.2265 65.0859C75.4276 65.6477 76.3818 66.456 77.3626 67.3314C77.5341 67.4843 77.708 67.6344 77.8827 67.7835C80.3991 70.0761 82.1264 73.9259 82.453 77.2734C82.4728 77.8193 82.4708 78.3644 82.4679 78.9105C82.4677 79.0646 82.4675 79.2186 82.4673 79.3773C82.4664 79.8662 82.4645 80.3551 82.4625 80.844C82.4618 81.1768 82.4611 81.5095 82.4605 81.8423C82.4588 82.6553 82.4562 83.4683 82.453 84.2812C82.3116 84.1823 82.1702 84.0833 82.0246 83.9813C81.4772 83.6325 81.259 83.5662 80.6249 83.6719C80.3161 83.8687 80.0108 84.0713 79.7108 84.2812C79.7063 83.9979 79.7063 83.9979 79.7017 83.7089C79.69 83.0002 79.6765 82.2915 79.6625 81.5829C79.6567 81.2777 79.6514 80.9724 79.6466 80.6672C79.5845 76.7767 78.9488 73.2425 76.2069 70.2656C76.0504 70.1172 75.8927 69.97 75.7338 69.8241C74.1791 68.3882 74.1791 68.3882 74.0783 67.1711C74.0769 67.036 74.0755 66.9009 74.0741 66.7617C74.068 66.6172 74.0619 66.4726 74.0557 66.3237C74.0469 65.9584 74.0419 65.6023 74.0741 65.2383C74.1244 65.188 74.1747 65.1377 74.2265 65.0859Z" fill="#DBECFE"/>
<path d="M88.8516 88.2418C90.355 89.3327 91.3332 91.1307 92.0508 92.8121C92.1162 92.9386 92.1816 93.065 92.249 93.1953C92.4255 93.6456 92.4692 93.8622 92.3555 94.3355C91.7418 95.1133 90.9987 95.7062 90.2227 96.316C90.1139 96.4032 90.0052 96.4904 89.8932 96.5803C86.414 99.3629 86.414 99.3629 85.8047 99.3629C85.7895 98.7399 85.7785 98.117 85.7712 97.4939C85.7682 97.2826 85.7641 97.0714 85.7587 96.8601C85.7297 95.6777 85.7659 94.6877 86.2751 93.6008C86.4985 93.0678 86.4895 92.6281 86.4807 92.0504C86.4792 91.8938 86.4792 91.8938 86.4777 91.7342C86.46 91.0999 86.3566 90.5679 86.138 89.9747C85.9266 89.3852 85.9266 89.3852 86.0695 89.0237C86.7887 88.093 87.7646 87.8866 88.8516 88.2418Z" fill="#218EE8"/>
<path d="M81.5392 83.5214C81.9855 83.7976 82.3674 84.1114 82.6056 84.5878C82.6216 84.8233 82.6282 85.0595 82.6301 85.2956C82.6316 85.4425 82.6331 85.5895 82.6346 85.7409C82.6352 85.9003 82.6359 86.0596 82.6365 86.2237C82.6374 86.3872 82.6383 86.5506 82.6392 86.719C82.6406 87.0655 82.6416 87.4119 82.6422 87.7583C82.6437 88.2879 82.6484 88.8175 82.6532 89.3471C82.6542 89.6834 82.655 90.0197 82.6556 90.3561C82.6575 90.5145 82.6593 90.6729 82.6613 90.8361C82.6583 91.8049 82.5796 92.3833 81.8724 93.0905C81.4093 93.3419 81.1462 93.3548 80.6251 93.2714C80.1033 92.9554 79.7559 92.6441 79.5587 92.0527C79.5417 91.8122 79.533 91.5711 79.5293 91.33C79.5257 91.1103 79.5257 91.1103 79.5219 90.8862C79.5151 90.2172 79.5089 89.5481 79.5054 88.8791C79.5029 88.5264 79.4987 88.1737 79.4929 87.821C79.4845 87.3119 79.4812 86.8031 79.479 86.294C79.4755 86.1368 79.4721 85.9797 79.4685 85.8178C79.4721 84.595 79.4721 84.595 79.9255 84.0337C80.4844 83.5243 80.7839 83.4343 81.5392 83.5214Z" fill="#6289CC"/>
<path d="M57.621 95.4014C57.8221 95.4014 58.0232 95.4014 58.2304 95.4014C58.7225 96.1395 58.9364 96.9964 59.2089 97.8353C59.3146 98.1589 59.4232 98.4815 59.5318 98.8041C59.8813 99.863 60.1873 100.824 60.0585 101.952C59.7852 102.389 59.6041 102.636 59.1444 102.866C58.8082 102.913 58.8082 102.913 58.4113 102.933C58.2166 102.947 58.2166 102.947 58.0179 102.961C57.4384 102.823 57.1817 102.425 56.8593 101.952C56.6865 101.574 56.5405 101.219 56.4076 100.829C56.3523 100.671 56.3523 100.671 56.296 100.511C56.2193 100.291 56.1437 100.071 56.0691 99.8506C55.9546 99.5143 55.8351 99.1801 55.7152 98.8457C55.641 98.6308 55.5671 98.4158 55.4935 98.2007C55.4577 98.1016 55.4218 98.0026 55.3849 97.9005C55.1602 97.2174 55.1803 96.8113 55.4882 96.1631C56.1988 95.3848 56.6246 95.321 57.621 95.4014Z" fill="#4A6BB2"/>
<path d="M52.4795 87.3935C53.5757 88.0374 54.1782 89.2219 54.8027 90.288C54.858 90.3818 54.9133 90.4755 54.9703 90.5721C55.1022 90.8053 55.2204 91.0461 55.3359 91.2878C55.2857 91.3884 55.2354 91.4889 55.1836 91.5925C54.9406 91.4784 54.6976 91.3644 54.4546 91.2503C53.3789 90.8842 52.2203 90.9552 51.0989 90.9546C50.8419 90.9518 50.8419 90.9518 50.5797 90.9489C49.5341 90.9471 48.582 91.0451 47.5664 91.2878C47.3127 91.3394 47.0588 91.3904 46.8047 91.4401C47.0344 90.5987 47.4401 89.9365 47.9092 89.2121C48.0155 89.0407 48.0155 89.0407 48.124 88.8658C49.1036 87.3437 50.7119 86.6325 52.4795 87.3935Z" fill="#2A438D"/>
<path d="M51.9749 47.0808C52.1082 47.0786 52.2416 47.0764 52.379 47.0742C52.7461 47.1093 52.7461 47.1093 53.2032 47.414C53.2758 47.7383 53.2758 47.7383 53.2984 48.1418C53.3083 48.291 53.3183 48.4403 53.3285 48.594C53.3374 48.7545 53.3463 48.9149 53.3555 49.0803C53.4367 50.2831 53.5488 51.4629 53.7554 52.6508C53.9209 53.611 54.013 54.5102 53.9649 55.4882C52.8741 55.5622 52.8741 55.5622 52.3177 55.2407C51.6864 54.5553 51.4573 53.7806 51.2418 52.8889C51.0477 52.1072 50.8093 51.378 50.4991 50.6323C50.1921 49.8543 49.9489 49.161 50.1563 48.3281C50.6032 47.4573 50.9992 47.0879 51.9749 47.0808Z" fill="#FB945F"/>
<path d="M80.625 47.1071C81.2602 47.3753 81.5804 47.6882 81.8438 48.3258C81.9684 49.3562 81.7273 50.1715 81.3391 51.1156C81.0109 51.951 80.7142 52.7597 80.5203 53.6388C80.341 54.4216 80.0972 54.9016 79.4348 55.3813C78.964 55.5292 78.5248 55.5048 78.0352 55.486C77.9975 54.3384 78.1459 53.2656 78.3304 52.1344C78.5771 50.5584 78.7519 49.0061 78.7969 47.4118C79.4007 47.0743 79.9431 47.0201 80.625 47.1071Z" fill="#FEAA7A"/>
<path d="M79.5586 89.0039C79.5609 89.0922 79.5631 89.1805 79.5654 89.2715C79.5768 89.6744 79.5915 90.077 79.6063 90.4797C79.6097 90.6187 79.6131 90.7576 79.6167 90.9008C79.6467 91.6504 79.6694 92.2121 80.168 92.8125C80.7065 93.1715 80.9047 93.1918 81.5391 93.1172C82.0461 92.8302 82.0461 92.8302 82.4532 92.5078C82.5317 92.6523 82.6103 92.7969 82.6912 92.9458C83.1356 93.5155 83.4331 93.5927 84.129 93.7266C83.9275 94.5829 83.3145 94.9604 82.6055 95.4023C81.7361 95.8093 80.8298 95.8837 79.9205 95.5684C79.0859 95.1821 78.5485 94.7934 78.0352 94.0312C77.9441 93.9024 77.853 93.7736 77.7591 93.6409C77.4343 92.7008 77.3926 91.6785 77.7174 90.7303C78.0687 90.0538 78.7074 89.0039 79.5586 89.0039Z" fill="#A8B7EE"/>
<path d="M49.3945 78.3398C49.4448 78.3398 49.495 78.3398 49.5468 78.3398C49.5645 79.5211 49.578 80.7023 49.5863 81.8836C49.5903 82.4322 49.5957 82.9807 49.6043 83.5292C49.6126 84.0587 49.6171 84.588 49.6191 85.1176C49.6212 85.4177 49.6271 85.7177 49.6331 86.0178C49.6332 86.2008 49.6332 86.3837 49.6333 86.5722C49.6358 86.8138 49.6358 86.8138 49.6384 87.0602C49.515 87.6264 49.2513 87.7674 48.7851 88.0898C48.5239 88.4525 48.5239 88.4525 48.3084 88.8569C48.224 89.0046 48.1395 89.1524 48.0524 89.3046C47.9643 89.4599 47.8762 89.6152 47.7854 89.7751C46.9489 91.2046 46.1282 92.2532 44.8242 93.2695C44.669 93.419 44.5152 93.5701 44.3671 93.7266C44.2795 91.0977 45.0054 88.8293 46.8046 86.8711C47.546 86.2035 48.3494 85.6417 49.2421 85.1953C49.2924 82.933 49.3427 80.6707 49.3945 78.3398Z" fill="#23A1E9"/>
<path d="M52.4413 78.0352C53.5749 79.1322 54.5968 80.33 55.587 81.5563C55.8451 81.8732 56.1054 82.1865 56.3701 82.4978C56.4405 82.5809 56.511 82.6639 56.5835 82.7496C56.7831 82.9846 56.9833 83.219 57.1836 83.4535C57.4687 83.8242 57.4687 83.8242 57.4687 84.1289C57.2862 84.1271 57.1038 84.1254 56.9158 84.1236C56.6653 84.1221 56.4148 84.1207 56.1642 84.1194C56.0453 84.1181 55.9264 84.1168 55.8039 84.1155C54.6276 84.1108 53.4615 84.1941 52.289 84.2812C52.2852 83.4162 52.2825 82.5511 52.2806 81.6861C52.2799 81.3916 52.2788 81.097 52.2775 80.8025C52.2757 80.3801 52.2748 79.9578 52.2741 79.5354C52.2733 79.4029 52.2725 79.2704 52.2717 79.1338C52.2717 78.8183 52.2795 78.5029 52.289 78.1875C52.3393 78.1372 52.3895 78.087 52.4413 78.0352Z" fill="#208EE8"/>
<path d="M45.8906 92.2031C45.913 92.3575 45.913 92.3575 45.9359 92.515C46.073 93.3566 46.073 93.3566 46.4524 94.1074C46.9049 94.401 47.3482 94.5199 47.8711 94.6406C47.7049 94.973 47.5377 95.3035 47.3617 95.6309C47.0361 96.3188 46.7935 97.0251 46.5476 97.7446C46.4988 97.8858 46.45 98.027 46.3997 98.1725C46.2802 98.5185 46.1613 98.8646 46.043 99.2109C45.3226 98.9713 44.7719 98.5701 44.1672 98.1255C44.0689 98.0542 43.9707 97.9829 43.8694 97.9095C43.6286 97.7346 43.3884 97.5588 43.1484 97.3828C44.2781 92.2031 44.2781 92.2031 45.8906 92.2031Z" fill="#29448E"/>
<path d="M82.6055 86.8711C84.0718 87.2259 85.1298 88.0719 85.957 89.3372C86.4614 90.1883 86.6255 91.0316 86.6235 92.0127C86.6237 92.1725 86.6237 92.1725 86.6238 92.3356C86.6051 93.2252 86.4653 94.2847 85.8047 94.9453C84.848 94.8744 84.848 94.8744 84.4723 94.5954C84.2813 94.3359 84.2813 94.3359 84.27 94.0503C84.2894 93.9435 84.3088 93.8366 84.3289 93.7266C84.5366 92.2536 84.6034 91.0153 83.6719 89.7656C83.3887 89.5728 83.3887 89.5728 83.0911 89.4229C82.8161 89.2616 82.8161 89.2616 82.6055 89.0039C82.5116 88.2853 82.544 87.5917 82.6055 86.8711Z" fill="#DBECFE"/>
<path d="M82.4531 87.7852C82.5034 87.7852 82.5537 87.7852 82.6055 87.7852C82.6188 88.4802 82.6269 89.1752 82.634 89.8704C82.6379 90.0674 82.6417 90.2645 82.6456 90.4675C82.6471 90.6575 82.6486 90.8475 82.6501 91.0433C82.6525 91.218 82.6549 91.3927 82.6574 91.5727C82.5858 92.2325 82.3359 92.6251 81.8723 93.0886C81.4092 93.3401 81.1461 93.3529 80.625 93.2695C80.1616 93.0304 79.98 92.936 79.7109 92.5078C79.595 91.7788 79.6252 91.0632 79.6538 90.3274C79.6579 90.1274 79.6621 89.9274 79.6663 89.7213C79.6771 89.228 79.6921 88.7352 79.7109 88.2422C79.83 88.3162 79.9491 88.3903 80.0718 88.4666C80.6712 88.8144 81.005 88.7755 81.6914 88.6992C82.0618 88.4143 82.2461 88.1993 82.4531 87.7852Z" fill="#4C6CB3"/>
<path d="M57.6211 65.0859C57.7216 65.1362 57.8222 65.1865 57.9258 65.2383C57.9457 65.7473 57.9408 66.2525 57.9258 66.7617C57.9246 66.897 57.9234 67.0323 57.9222 67.1717C57.8143 68.4503 57.0994 69.0973 56.197 69.9246C55.793 70.2656 55.793 70.2656 55.6406 70.2656C55.6239 70.1702 55.6072 70.0747 55.59 69.9764C55.5659 69.8519 55.5417 69.7274 55.5168 69.5991C55.4939 69.4754 55.4709 69.3517 55.4472 69.2242C55.3549 68.84 55.3549 68.84 54.8789 68.5898C54.2976 68.537 53.9446 68.5085 53.4412 68.8184C53.3626 68.8938 53.2841 68.9692 53.2031 69.0469C53.9047 67.3985 56.0749 65.8923 57.6211 65.0859Z" fill="#C0CAF0"/>
<path d="M74.2266 65.0859C75.1211 65.5043 75.8753 66.0424 76.626 66.676C76.7086 66.7452 76.7912 66.8144 76.8764 66.8857C77.428 67.3606 77.8868 67.8678 78.3399 68.4375C78.2334 68.4542 78.127 68.4709 78.0173 68.4881C77.8787 68.5122 77.74 68.5364 77.5972 68.5613C77.4593 68.5843 77.3215 68.6072 77.1794 68.6309C76.764 68.7164 76.764 68.7164 76.5117 69.1992C76.4517 69.5532 76.3998 69.9088 76.3594 70.2656C76.1004 70.0495 75.8439 69.8313 75.5899 69.6092C75.4069 69.4504 75.2206 69.2952 75.0294 69.1463C74.3705 68.5883 74.225 68.0474 74.1105 67.2033C74.0567 66.5488 74.0163 65.8936 74.0742 65.2383C74.1245 65.188 74.1748 65.1377 74.2266 65.0859Z" fill="#BFCAF0"/>
<path d="M59.7539 102.105C59.8545 102.105 59.955 102.105 60.0586 102.105C60.1861 102.48 60.313 102.854 60.4395 103.229C60.4758 103.335 60.5121 103.442 60.5495 103.552C60.8203 104.356 60.8203 104.356 60.8203 104.695C59.875 104.622 58.9923 104.492 58.0781 104.238C57.9776 103.786 57.877 103.333 57.7734 102.867C58.0939 102.848 58.0939 102.848 58.4209 102.829C58.9425 102.774 59.1038 102.749 59.5159 102.401C59.5944 102.303 59.673 102.206 59.7539 102.105Z" fill="#D3E8FC"/>
<path d="M57.3164 68.5898C57.4688 68.8945 57.4688 68.8945 57.3438 69.2974C56.6713 70.9304 56.6713 70.9304 55.9453 71.4844C55.7945 71.5346 55.6437 71.5849 55.4883 71.6367C55.155 71.4177 55.155 71.4177 54.8789 71.1797C55.6676 70.2908 56.4637 69.4179 57.3164 68.5898Z" fill="#FDC63D"/>
<path d="M74.5312 68.7422C75.137 68.9862 75.5475 69.4085 75.9976 69.8657C76.0722 69.9392 76.1468 70.0126 76.2237 70.0883C76.608 70.4747 76.9163 70.8236 77.1211 71.332C76.8195 71.4326 76.5178 71.5331 76.207 71.6367C75.3703 70.9477 74.9544 70.0313 74.5312 69.0469C74.5312 68.9463 74.5312 68.8458 74.5312 68.7422Z" fill="#FDC73E"/>
<path d="M50.918 72.5508C50.8885 72.6374 50.8591 72.724 50.8287 72.8132C50.5857 73.534 50.359 74.2552 50.1562 74.9883C49.275 74.332 49.275 74.332 49.1089 73.7981C49.1026 73.6881 49.0963 73.5781 49.0898 73.4648C49.6376 72.9954 50.1664 72.5508 50.918 72.5508Z" fill="#28A3E4"/>
<path d="M81.082 72.5508C81.3046 72.6195 81.5266 72.6896 81.7485 72.7603C81.8723 72.7991 81.996 72.838 82.1234 72.8781C82.4531 73.0078 82.4531 73.0078 82.7578 73.3125C82.7063 74.2561 82.7063 74.2561 82.3865 74.6455C82.2686 74.7398 82.2686 74.7398 82.1484 74.8359C81.9976 75.0622 81.9976 75.0622 81.8438 75.293C81.8187 75.1684 81.8187 75.1684 81.7932 75.0412C81.6137 74.1877 81.3735 73.3726 81.082 72.5508Z" fill="#76C3F6"/>
<path d="M79.5586 86.8711C79.5586 87.4744 79.5586 88.0777 79.5586 88.6992C78.9492 88.3945 78.9492 88.3945 78.7969 87.9565C78.7969 87.4805 78.7969 87.4805 79.0825 87.1187C79.4062 86.8711 79.4062 86.8711 79.5586 86.8711Z" fill="#DDEDFE"/>
</g>
<defs>
<linearGradient id="paint0_linear_141_16230" x1="203.087" y1="43.5729" x2="-18.2236" y2="55.1336" gradientUnits="userSpaceOnUse">
<stop stop-color="#00ADEF"/>
<stop offset="1" stop-color="#D60F8C"/>
</linearGradient>
<clipPath id="clip0_141_16230">
<rect width="78" height="78" fill="white" transform="translate(27 27)"/>
</clipPath>
</defs>
</svg>
