<svg width="40" height="40" viewBox="0 0 40 40" fill="none" xmlns="http://www.w3.org/2000/svg">
<circle cx="20" cy="20" r="20" fill="url(#paint0_linear_270_1140)"/>
<circle cx="20.0001" cy="20.0013" r="17.3333" fill="white"/>
<path d="M26.6242 14.6133L23.7209 11.7083C22.6184 10.6067 21.1534 10 19.5959 10H15.8334C13.5359 10 11.6667 11.8692 11.6667 14.1667V25.8333C11.6667 28.1308 13.5359 30 15.8334 30H24.1667C26.4642 30 28.3334 28.1308 28.3334 25.8333V18.7375C28.3334 17.1783 27.7259 15.715 26.6242 14.6133ZM25.4459 15.7925C25.7084 16.055 25.9159 16.3542 26.0967 16.6675H22.5001C22.0401 16.6675 21.6667 16.2933 21.6667 15.8342V12.2367C21.9801 12.4175 22.2792 12.625 22.5426 12.8875L25.4459 15.7925ZM26.6667 25.8342C26.6667 27.2125 25.5451 28.3342 24.1667 28.3342H15.8334C14.4551 28.3342 13.3334 27.2125 13.3334 25.8342V14.1667C13.3334 12.7883 14.4551 11.6667 15.8334 11.6667H19.5959C19.7334 11.6667 19.8651 11.6933 20.0001 11.7058V15.8333C20.0001 17.2117 21.1217 18.3333 22.5001 18.3333H26.6276C26.6409 18.4683 26.6667 18.6 26.6667 18.7375V25.8342ZM25.0001 25.0008C25.0001 25.4608 24.6276 25.8342 24.1667 25.8342H15.8334C15.3726 25.8342 15.0001 25.4608 15.0001 25.0008C15.0001 24.5408 15.3726 24.1675 15.8334 24.1675H24.1667C24.6276 24.1675 25.0001 24.5408 25.0001 25.0008ZM15.8334 17.5C15.8334 16.5792 16.5792 15.8333 17.5001 15.8333C18.4209 15.8333 19.1667 16.5792 19.1667 17.5C19.1667 18.4208 18.4209 19.1667 17.5001 19.1667C16.5792 19.1667 15.8334 18.4208 15.8334 17.5ZM15.3676 22.3283C15.0026 22.0492 14.9334 21.5258 15.2126 21.16C15.3034 21.0408 16.1401 20 17.5209 20C18.9017 20 19.7367 21.0417 19.8284 21.16C20.1084 21.525 20.0392 22.0483 19.6734 22.3283C19.5217 22.4442 19.3434 22.5 19.1676 22.5C18.9167 22.5 18.6692 22.3875 18.5051 22.1733C18.5051 22.1733 18.0909 21.6667 17.5209 21.6667C16.9509 21.6667 16.5401 22.1683 16.5359 22.1733C16.2559 22.5392 15.7342 22.6092 15.3676 22.3283Z" fill="url(#paint1_linear_270_1140)"/>
<defs>
<linearGradient id="paint0_linear_270_1140" x1="4.62971e-08" y1="3.80952" x2="42.0865" y2="7.60863" gradientUnits="userSpaceOnUse">
<stop stop-color="#FBFDFF"/>
<stop offset="1" stop-color="#E9F6FF"/>
</linearGradient>
<linearGradient id="paint1_linear_270_1140" x1="37.3091" y1="16.602" x2="9.34253" y2="17.8194" gradientUnits="userSpaceOnUse">
<stop stop-color="#00ADEF"/>
<stop offset="1" stop-color="#D60F8C"/>
</linearGradient>
</defs>
</svg>
