<svg width="64" height="64" viewBox="0 0 64 64" fill="none" xmlns="http://www.w3.org/2000/svg">
<circle cx="32" cy="32" r="32" fill="url(#paint0_linear_1375_6921)"/>
<circle cx="32" cy="32" r="28" fill="white"/>
<g clip-path="url(#clip0_1375_6921)">
<path d="M32.7097 14.1642C32.8202 14.2702 32.9299 14.377 33.0391 14.4843C33.126 14.5653 33.2132 14.6459 33.3006 14.7264C33.767 15.1564 34.2284 15.5896 34.6698 16.0455C34.7195 16.0936 34.7692 16.1418 34.8203 16.1913C34.8774 16.2548 34.9344 16.3182 34.9932 16.3836C35.3461 16.6727 35.7781 16.609 36.2117 16.6008C36.358 16.6003 36.5042 16.5999 36.6504 16.5994C36.8071 16.5986 36.9637 16.5969 37.1204 16.595C37.4476 16.5911 37.7749 16.5903 38.1022 16.59C39.0326 16.5888 39.963 16.5831 40.8934 16.5749C41.4077 16.5705 41.922 16.5684 42.4363 16.5689C42.7612 16.5691 43.0859 16.5662 43.4107 16.5611C43.6611 16.558 43.9114 16.5593 44.1618 16.5599C44.251 16.5576 44.3402 16.5553 44.4321 16.553C44.9154 16.5588 45.1702 16.6163 45.5201 16.962C45.6174 17.0741 45.7126 17.1881 45.8047 17.3046C45.8658 17.3756 45.927 17.4466 45.9899 17.5197C46.0375 17.5804 46.085 17.6411 46.134 17.7036C46.3619 17.9881 46.5967 18.2612 46.8438 18.5292C47.0868 18.7932 47.3192 19.0615 47.5442 19.341C47.7833 19.6375 48.0317 19.9205 48.291 20.1992C48.6086 20.5405 48.906 20.8933 49.1982 21.2568C49.4427 21.5521 49.7023 21.8322 49.9633 22.1129C50.1415 22.3135 50.1807 22.3793 50.1975 22.6484C50.1836 22.871 50.1836 22.871 50.0352 23.0195C49.4963 23.0195 48.9575 23.0195 48.4023 23.0195C48.4023 24.8564 48.4023 26.6933 48.4023 28.5859C48.6963 28.5859 48.9902 28.5859 49.293 28.5859C49.5319 28.7132 49.5319 28.7132 49.6641 28.957C49.7121 29.2694 49.7091 29.5739 49.7012 29.8893C49.7014 29.9737 49.7016 30.058 49.7018 30.1449C49.6934 30.8498 49.6934 30.8498 49.4414 31.1093C49.2077 31.1872 49.0415 31.1911 48.7966 31.1882C48.7229 31.1875 48.6491 31.1868 48.5731 31.1861C48.5168 31.1853 48.4604 31.1844 48.4023 31.1835C48.3721 33.2442 48.3517 35.3048 48.3429 37.3657C48.3386 38.3228 48.3312 39.2797 48.3161 40.2367C48.3029 41.0716 48.2959 41.9063 48.296 42.7412C48.2958 43.1828 48.2928 43.6239 48.2823 44.0654C48.145 46.1238 48.145 46.1238 48.9829 47.9012C49.1718 48.0861 49.3687 48.2472 49.5857 48.3979C49.8166 48.5616 49.8166 48.5616 50.1836 48.9218C50.1836 49.3137 50.1836 49.7056 50.1836 50.1093C38.1824 50.1093 26.1813 50.1093 13.8164 50.1093C13.8164 49.7174 13.8164 49.3256 13.8164 48.9218C14.0623 48.6805 14.2611 48.5043 14.5358 48.3135C15.1251 47.882 15.5363 47.3833 15.6551 46.6518C15.7635 45.7079 15.7339 44.7525 15.7115 43.8045C15.7028 43.3598 15.704 42.9151 15.704 42.4703C15.7027 41.6306 15.6927 40.7913 15.6794 39.9518C15.6648 38.9949 15.6599 38.0381 15.6559 37.0812C15.6473 35.1151 15.6265 33.1494 15.5977 31.1835C15.5414 31.1847 15.4852 31.1859 15.4272 31.1871C15.3535 31.188 15.2799 31.189 15.2039 31.1899C15.1309 31.1911 15.0578 31.1923 14.9825 31.1935C14.7369 31.1813 14.5959 31.1219 14.4102 30.9609C14.2537 30.648 14.3123 30.2424 14.3081 29.8986C14.3053 29.8139 14.3026 29.7292 14.2997 29.6419C14.2959 29.2836 14.2959 29.0314 14.4676 28.7126C14.707 28.5859 14.707 28.5859 15.5977 28.5859C15.5977 26.749 15.5977 24.912 15.5977 23.0195C15.0588 23.0195 14.52 23.0195 13.9648 23.0195C13.8164 22.871 13.8164 22.871 13.7892 22.6632C13.8229 22.3691 13.9104 22.2621 14.104 22.0407C14.165 21.97 14.2261 21.8993 14.289 21.8265C14.5391 21.5485 14.7904 21.2718 15.0436 20.9967C15.2211 20.7989 15.3893 20.5964 15.5559 20.3893C15.8274 20.0528 16.1132 19.7349 16.4075 19.4186C16.6895 19.1138 16.9511 18.7952 17.2116 18.4718C17.4468 18.1873 17.6958 17.9164 17.9457 17.6447C18.1448 17.4271 18.3387 17.2056 18.5313 16.9822C18.5674 16.9417 18.6035 16.9011 18.6406 16.8593C18.6715 16.8205 18.7024 16.7817 18.7342 16.7417C18.9131 16.5962 19.0284 16.6108 19.2573 16.6141C19.3799 16.6149 19.3799 16.6149 19.505 16.6158C19.5948 16.6175 19.6846 16.6193 19.777 16.6211C19.9221 16.6225 20.0673 16.6239 20.2124 16.6252C20.3685 16.6268 20.5247 16.6289 20.6809 16.6311C21.0073 16.6355 21.3337 16.6374 21.6602 16.6386C21.7721 16.6391 21.8841 16.6396 21.996 16.64C22.0521 16.6402 22.1082 16.6405 22.1659 16.6407C22.9258 16.644 23.6855 16.6492 24.4452 16.6603C24.9579 16.6678 25.4704 16.6715 25.983 16.6711C26.2539 16.671 26.5245 16.6728 26.7954 16.6792C28.1168 16.7482 28.1168 16.7482 29.2676 16.2009C29.4422 16.0261 29.6002 15.845 29.7501 15.6486C29.8898 15.4693 30.0507 15.3145 30.2141 15.1569C30.265 15.1054 30.3159 15.0538 30.3683 15.0007C30.6052 14.7671 30.856 14.5512 31.1094 14.3359C31.1508 14.2989 31.1922 14.262 31.2349 14.224C31.6914 13.8236 32.2277 13.7473 32.7097 14.1642Z" fill="#E3E7EA"/>
<path d="M29.5143 33.8182C29.6044 33.8176 29.6044 33.8176 29.6963 33.817C29.893 33.8161 30.0896 33.8173 30.2863 33.8186C30.424 33.8186 30.5617 33.8185 30.6994 33.8183C30.9871 33.8182 31.2749 33.8191 31.5627 33.8208C31.9307 33.8229 32.2987 33.8227 32.6667 33.8218C32.9507 33.8212 33.2348 33.8218 33.5188 33.8227C33.6545 33.8231 33.7902 33.8231 33.9258 33.8228C34.1157 33.8226 34.3055 33.8238 34.4953 33.8254C34.5786 33.8249 34.5786 33.8249 34.6635 33.8244C35.0466 33.8298 35.3026 33.9037 35.6367 34.0781C35.9742 34.4333 36.0171 34.6954 36.0167 35.1748C36.0168 35.2519 36.0168 35.2519 36.0169 35.3306C36.0171 35.5032 36.0166 35.6759 36.0162 35.8485C36.0162 35.9721 36.0162 36.0957 36.0163 36.2193C36.0163 36.5553 36.0159 36.8912 36.0153 37.2272C36.0149 37.5781 36.0148 37.9291 36.0147 38.28C36.0145 38.9448 36.0139 39.6095 36.0132 40.2743C36.0123 41.031 36.0119 41.7877 36.0115 42.5444C36.0108 44.1012 36.0095 45.658 36.0078 47.2148C36.0705 47.2132 36.1332 47.2117 36.1978 47.21C37.7306 47.1722 39.2633 47.144 40.7965 47.1264C41.538 47.1176 42.2792 47.1057 43.0206 47.086C43.6675 47.0689 44.3143 47.058 44.9614 47.0542C45.3036 47.052 45.645 47.0469 45.9869 47.0343C48.3645 46.9503 48.3645 46.9503 49.283 47.7792C49.3597 47.8536 49.4357 47.9287 49.511 48.0045C49.547 48.04 49.583 48.0754 49.6201 48.112C50.2621 48.7702 50.1836 49.1215 50.1836 50.1093C38.1824 50.1093 26.1813 50.1093 13.8164 50.1093C13.8164 48.6897 13.8164 48.6897 14.3799 48.112C14.4159 48.0765 14.4519 48.041 14.489 48.0045C14.5259 47.9674 14.5628 47.9302 14.6008 47.8919C15.4338 47.0835 16.3055 47.0104 17.4244 47.018C17.6878 47.0226 17.951 47.032 18.2143 47.0417C18.5592 47.0525 18.904 47.0534 19.249 47.0554C19.8995 47.0607 20.5495 47.0746 21.1997 47.0919C21.9412 47.1111 22.6826 47.1204 23.4242 47.1289C24.9472 47.1466 26.4696 47.1766 27.9922 47.2148C27.9919 47.1506 27.9916 47.0865 27.9914 47.0204C27.9848 45.4587 27.9799 43.8971 27.9768 42.3355C27.9753 41.5803 27.9732 40.8251 27.9698 40.07C27.9668 39.4117 27.9649 38.7534 27.9643 38.0952C27.9639 37.7467 27.963 37.3982 27.9608 37.0497C27.9588 36.7215 27.9582 36.3934 27.9586 36.0652C27.9585 35.9449 27.9579 35.8246 27.9568 35.7043C27.9553 35.5396 27.9557 35.3751 27.9565 35.2105C27.9562 35.1185 27.9559 35.0265 27.9557 34.9316C28.007 34.5662 28.1349 34.2813 28.4257 34.0379C28.7971 33.8667 29.1069 33.8129 29.5143 33.8182Z" fill="#D8C4BE"/>
<path d="M38.6797 31.1094C41.8882 31.1094 45.0966 31.1094 48.4023 31.1094C48.4023 36.4242 48.4023 41.739 48.4023 47.2148C45.1939 47.2148 41.9854 47.2148 38.6797 47.2148C38.6797 41.9 38.6797 36.5852 38.6797 31.1094Z" fill="#E2F0FE"/>
<path d="M15.5977 31.1094C18.8061 31.1094 22.0146 31.1094 25.3203 31.1094C25.3203 36.4242 25.3203 41.739 25.3203 47.2148C22.1118 47.2148 18.9034 47.2148 15.5977 47.2148C15.5977 41.9 15.5977 36.5852 15.5977 31.1094Z" fill="#E2F0FE"/>
<path d="M18.4825 46.9917C18.8822 46.9956 19.2818 46.9895 19.6816 46.9849C20.4624 46.9773 21.243 46.9789 22.0238 46.9839C22.6589 46.9877 23.294 46.9882 23.9291 46.9864C24.0198 46.9861 24.1106 46.9859 24.2041 46.9856C24.3884 46.985 24.5728 46.9845 24.7572 46.9839C26.4822 46.9791 28.207 46.9846 29.9319 46.9938C31.4088 47.0015 32.8855 47.0001 34.3625 46.9923C36.0816 46.9831 37.8007 46.9795 39.5199 46.9848C39.7036 46.9853 39.8872 46.9858 40.0709 46.9864C40.2064 46.9868 40.2064 46.9868 40.3447 46.9872C40.9783 46.9886 41.6118 46.9862 42.2455 46.9821C43.0188 46.9773 43.7918 46.9787 44.5651 46.9877C44.959 46.9922 45.3524 46.994 45.7463 46.9883C48.4468 46.9526 48.4468 46.9526 49.4185 47.8955C49.4735 47.9511 49.4735 47.9511 49.5296 48.0079C49.5651 48.0433 49.6007 48.0786 49.6373 48.1151C50.2663 48.7699 50.1836 49.1371 50.1836 50.1093C38.1824 50.1093 26.1813 50.1093 13.8164 50.1093C13.8164 48.6838 13.8164 48.6838 14.3627 48.1151C14.416 48.062 14.416 48.062 14.4704 48.0079C14.5071 47.9708 14.5437 47.9337 14.5815 47.8955C15.6624 46.8466 17.0693 46.9712 18.4825 46.9917Z" fill="#A69BA6"/>
<path d="M31.9345 21.512C32.0494 21.5117 32.0494 21.5117 32.1667 21.5113C33.4716 21.5205 34.67 22.0624 35.6129 22.9547C36.7487 24.1407 37.0883 25.4584 37.0663 27.0486C37.0496 27.553 36.9586 27.9772 36.7494 28.4376C36.7201 28.5035 36.7201 28.5035 36.6902 28.5707C36.0376 30.0063 34.9938 30.8701 33.5343 31.424C32.2646 31.8726 30.9401 31.6679 29.7383 31.1463C28.421 30.4962 27.5501 29.3541 27.0778 27.9784C26.7176 26.6247 26.9013 25.2513 27.5648 24.0308C27.8346 23.5996 28.1531 23.2311 28.5111 22.8712C28.5549 22.8248 28.5988 22.7784 28.6439 22.7306C28.9548 22.4272 29.3052 22.2312 29.6894 22.0362C29.7374 22.0118 29.7855 21.9873 29.8351 21.9621C30.5328 21.6234 31.1596 21.4999 31.9345 21.512Z" fill="#FE5471"/>
<path d="M19.2643 16.6098C19.3894 16.6094 19.3894 16.6094 19.517 16.6089C19.6542 16.6101 19.6542 16.6101 19.7942 16.6113C19.9387 16.6113 19.9387 16.6113 20.0861 16.6112C20.3503 16.6112 20.6145 16.6125 20.8787 16.614C21.1547 16.6154 21.4308 16.6155 21.7069 16.6158C22.2297 16.6165 22.7525 16.6183 23.2753 16.6206C23.8705 16.623 24.4656 16.6243 25.0608 16.6254C26.2852 16.6277 27.5096 16.6316 28.7339 16.6366C28.6626 16.7202 28.5912 16.8037 28.5198 16.8872C28.48 16.9337 28.4403 16.9803 28.3993 17.0282C28.1235 17.3469 27.8205 17.6343 27.5 17.9076C27.2169 18.151 26.9552 18.4123 26.6929 18.6776C26.3954 18.9785 26.0948 19.2669 25.7718 19.5407C25.5221 19.7643 25.2898 20.0051 25.0543 20.2435C24.8088 20.4908 24.5557 20.7225 24.2901 20.9482C24.0399 21.1726 23.8068 21.4138 23.5707 21.6528C23.3201 21.9053 23.0638 22.1455 22.7897 22.3727C22.6466 22.495 22.6466 22.495 22.5359 22.6345C22.3607 22.8429 22.2195 22.995 21.9516 23.0668C21.7402 23.0843 21.5344 23.0854 21.3224 23.0807C21.2032 23.0812 21.2032 23.0812 21.0816 23.0817C20.82 23.0821 20.5586 23.0788 20.297 23.0754C20.1151 23.0748 19.9332 23.0744 19.7512 23.0742C19.3706 23.0733 18.99 23.0707 18.6094 23.0667C18.1206 23.0617 17.6318 23.0596 17.1431 23.0585C16.6775 23.0574 16.212 23.0548 15.7465 23.0522C15.6573 23.0518 15.5681 23.0514 15.4762 23.051C15.2249 23.0496 14.9737 23.0472 14.7224 23.0445C14.6099 23.0441 14.6099 23.0441 14.4952 23.0436C14.427 23.0427 14.3589 23.0417 14.2887 23.0407C14.2293 23.0402 14.1699 23.0397 14.1087 23.0391C13.9644 23.0194 13.9644 23.0194 13.816 22.871C13.7805 22.6005 13.7909 22.466 13.936 22.2323C13.9913 22.169 14.0466 22.1058 14.1036 22.0406C14.1646 21.9699 14.2256 21.8992 14.2885 21.8264C14.5386 21.5485 14.7899 21.2717 15.0432 20.9967C15.2207 20.7989 15.3888 20.5963 15.5555 20.3893C15.8269 20.0527 16.1127 19.7348 16.4071 19.4185C16.689 19.1137 16.9507 18.7952 17.2112 18.4718C17.4464 18.1872 17.6953 17.9163 17.9452 17.6446C18.1444 17.4271 18.3383 17.2055 18.5309 16.9822C18.5669 16.9416 18.603 16.901 18.6402 16.8592C18.6709 16.8205 18.7016 16.7818 18.7332 16.7419C18.9136 16.5954 19.0336 16.6092 19.2643 16.6098Z" fill="#FCAFA0"/>
<path d="M35.2656 16.6368C36.5411 16.6212 37.8166 16.6094 39.0921 16.6022C39.6844 16.5988 40.2767 16.5941 40.8689 16.5864C41.3854 16.5798 41.9018 16.5755 42.4182 16.574C42.6915 16.5731 42.9647 16.5711 43.238 16.5662C43.5436 16.5608 43.8491 16.5607 44.1548 16.561C44.2447 16.5586 44.3346 16.5562 44.4272 16.5537C44.9123 16.559 45.1692 16.615 45.5205 16.9621C45.6177 17.0742 45.7128 17.1883 45.8047 17.3048C45.8658 17.3758 45.927 17.4468 45.9899 17.5199C46.0375 17.5806 46.085 17.6412 46.134 17.7037C46.3619 17.9882 46.5967 18.2614 46.8438 18.5294C47.0868 18.7934 47.3192 19.0617 47.5442 19.3412C47.7833 19.6377 48.0317 19.9207 48.291 20.1993C48.6086 20.5406 48.906 20.8934 49.1982 21.2569C49.4427 21.5522 49.7023 21.8323 49.9633 22.1131C50.1415 22.3136 50.1807 22.3794 50.1975 22.6485C50.1836 22.8712 50.1836 22.8712 50.0352 23.0196C49.8923 23.0408 49.8923 23.0408 49.7144 23.0445C49.647 23.0462 49.5796 23.0479 49.5101 23.0496C49.436 23.0507 49.3618 23.0518 49.2854 23.053C49.2074 23.0547 49.1294 23.0564 49.0491 23.0581C48.2305 23.0746 47.4117 23.0816 46.593 23.0879C46.205 23.0912 45.8173 23.0974 45.4294 23.1062C44.9605 23.1168 44.4918 23.1222 44.0227 23.124C43.8446 23.1255 43.6664 23.1288 43.4884 23.134C41.9494 23.1765 41.9494 23.1765 41.387 22.6536C41.2212 22.4761 41.0695 22.2923 40.9239 22.098C40.8069 21.9485 40.6736 21.8301 40.5259 21.7115C40.225 21.4571 39.9524 21.1772 39.6758 20.8971C39.4736 20.6934 39.2697 20.4967 39.0508 20.3106C38.7895 20.0885 38.5494 19.8494 38.3086 19.6056C38.0693 19.3633 37.831 19.1255 37.571 18.9051C37.2492 18.6316 36.9569 18.3303 36.6604 18.03C36.4009 17.7684 36.1367 17.5193 35.8504 17.2868C35.7155 17.1606 35.5992 17.0291 35.4796 16.8884C35.4395 16.8414 35.3994 16.7943 35.3581 16.7459C35.3276 16.7099 35.2971 16.6739 35.2656 16.6368Z" fill="#FCAF9F"/>
<path d="M38.6797 23.0195C41.8882 23.0195 45.0966 23.0195 48.4023 23.0195C48.4023 24.8809 48.4023 26.7423 48.4023 28.6602C45.1939 28.6357 41.9854 28.6112 38.6797 28.5859C38.6797 26.749 38.6797 24.9121 38.6797 23.0195Z" fill="#E3F1FF"/>
<path d="M15.5977 23.0195C18.8061 23.0195 22.0146 23.0195 25.3203 23.0195C25.3203 24.8564 25.3203 26.6934 25.3203 28.5859C22.1118 28.5859 18.9034 28.5859 15.5977 28.5859C15.5977 26.749 15.5977 24.9121 15.5977 23.0195Z" fill="#E2F1FF"/>
<path d="M32.7097 14.1642C32.8202 14.2702 32.9299 14.377 33.0391 14.4843C33.126 14.5653 33.2132 14.6459 33.3006 14.7264C33.7714 15.1605 34.2341 15.6002 34.6832 16.0568C34.8019 16.1733 34.9221 16.2783 35.0522 16.3815C35.2257 16.5286 35.3574 16.6643 35.5025 16.8364C35.7717 17.1473 36.0619 17.426 36.365 17.7035C36.7098 18.0226 37.0509 18.3431 37.3809 18.6777C37.5819 18.8814 37.7847 19.0764 38.0024 19.2621C38.2665 19.4877 38.5101 19.7296 38.7539 19.9765C38.9947 20.2203 39.2348 20.4595 39.4961 20.6816C39.7994 20.9394 40.0753 21.2216 40.3548 21.5046C40.6062 21.7579 40.8654 21.9963 41.137 22.228C41.3937 22.4539 41.64 22.6932 41.8711 22.9452C41.8711 22.9697 41.8711 22.9942 41.8711 23.0195C41.4275 23.0342 40.984 23.0449 40.5402 23.0521C40.3894 23.0551 40.2387 23.0591 40.088 23.0643C38.8382 23.1059 38.8382 23.1059 38.466 22.9029C38.318 22.7529 38.2049 22.5993 38.0859 22.4257C37.9903 22.336 37.8919 22.2491 37.7911 22.1654C37.4745 21.8926 37.1697 21.6086 36.866 21.3217C36.8107 21.2696 36.7554 21.2175 36.6984 21.1639C36.3605 20.8446 36.0291 20.52 35.7028 20.1887C35.5662 20.0544 35.4252 19.9292 35.2795 19.8049C35.0141 19.5776 34.7688 19.3343 34.5234 19.0859C34.2842 18.8436 34.0458 18.6058 33.7859 18.3854C33.4625 18.1108 33.1679 17.8085 32.8715 17.5054C32.6178 17.2476 32.3557 17.0124 32.0742 16.7851C31.7721 16.9077 31.5563 17.1214 31.3228 17.3417C31.2803 17.3814 31.2378 17.421 31.194 17.4618C30.8676 17.7678 30.5516 18.0833 30.2373 18.4017C30.0916 18.5453 29.9432 18.6798 29.7874 18.8122C29.5084 19.0504 29.2519 19.3076 28.9941 19.5683C28.6966 19.8692 28.396 20.1576 28.0731 20.4314C27.8233 20.655 27.591 20.8957 27.3555 21.1342C27.1105 21.381 26.858 21.6124 26.5928 21.8375C26.334 22.0698 26.0919 22.319 25.849 22.5678C25.4163 23.0079 25.4163 23.0079 25.1724 23.0373C25.1162 23.037 25.06 23.0367 25.0021 23.0363C24.9382 23.0363 24.8743 23.0363 24.8085 23.0363C24.7398 23.0355 24.6712 23.0348 24.6004 23.034C24.5299 23.0338 24.4594 23.0335 24.3867 23.0333C24.1614 23.0325 23.936 23.0306 23.7107 23.0287C23.558 23.028 23.4052 23.0273 23.2525 23.0267C22.8779 23.0251 22.5034 23.0225 22.1289 23.0195C22.2002 22.9359 22.2716 22.8524 22.343 22.7688C22.3828 22.7223 22.4225 22.6758 22.4635 22.6279C22.7408 22.3075 23.0457 22.0189 23.3674 21.7438C23.6357 21.5131 23.8844 21.2671 24.1328 21.0156C24.4171 20.7278 24.7058 20.4543 25.0142 20.1922C25.2234 20.0045 25.4197 19.8053 25.6172 19.6054C25.8565 19.3632 26.0948 19.1253 26.3547 18.905C26.6769 18.6312 26.9694 18.3296 27.2662 18.029C27.4798 17.8137 27.6945 17.6062 27.9272 17.4113C28.2213 17.1626 28.4728 16.878 28.7296 16.5923C28.9611 16.3367 29.2009 16.1085 29.4647 15.8875C29.676 15.701 29.8724 15.5013 30.0703 15.3007C30.4043 14.963 30.7457 14.6417 31.1094 14.3359C31.1505 14.2992 31.1917 14.2626 31.234 14.2248C31.6906 13.8239 32.2271 13.7468 32.7097 14.1642Z" fill="#FECDBF"/>
<path d="M13.8164 48.9961C25.8176 48.9961 37.8188 48.9961 50.1836 48.9961C50.1836 49.3635 50.1836 49.7309 50.1836 50.1094C38.1824 50.1094 26.1813 50.1094 13.8164 50.1094C13.8164 49.742 13.8164 49.3746 13.8164 48.9961Z" fill="#928592"/>
<path d="M38.6797 28.586C40.0571 28.5776 41.4344 28.5708 42.8119 28.5667C43.4514 28.5648 44.0909 28.5622 44.7305 28.558C45.2879 28.5543 45.8453 28.5519 46.4027 28.5511C46.6979 28.5506 46.993 28.5494 47.2882 28.5467C47.5661 28.5442 47.8439 28.5434 48.1217 28.544C48.2722 28.5438 48.4228 28.5418 48.5733 28.5398C49.3088 28.544 49.3088 28.544 49.5392 28.7612C49.6852 28.9902 49.7101 29.1184 49.7081 29.3887C49.7079 29.4699 49.7077 29.5511 49.7076 29.6347C49.7054 29.7188 49.7033 29.8028 49.7012 29.8894C49.7014 29.9738 49.7016 30.0581 49.7018 30.145C49.6934 30.8499 49.6934 30.8499 49.4414 31.1094C49.2047 31.1883 49.0405 31.1917 48.7919 31.1897C48.7029 31.1892 48.6139 31.1887 48.5222 31.1881C48.4245 31.1872 48.3267 31.1862 48.226 31.1852C48.1222 31.1845 48.0183 31.1838 47.9144 31.1831C47.6323 31.1811 47.3502 31.1787 47.068 31.1762C46.7732 31.1736 46.4785 31.1715 46.1837 31.1693C45.6254 31.1652 45.0671 31.1606 44.5088 31.1559C43.8732 31.1506 43.2377 31.1457 42.6021 31.1408C41.2946 31.1308 39.9872 31.1202 38.6797 31.1094C38.6797 30.2767 38.6797 29.4439 38.6797 28.586Z" fill="#FECDBF"/>
<path d="M15.5879 28.5424C15.7218 28.5422 15.7218 28.5422 15.8583 28.5419C16.1029 28.5418 16.3473 28.5434 16.5918 28.5457C16.8489 28.5477 17.1061 28.5477 17.3632 28.5479C17.796 28.5486 18.2287 28.5507 18.6615 28.5537C19.2675 28.5578 19.8736 28.5595 20.4797 28.5607C20.9031 28.5617 21.3265 28.5632 21.7499 28.5648C21.8516 28.5652 21.9532 28.5656 22.0549 28.566C23.1463 28.57 24.2318 28.5813 25.3207 28.6599C25.3207 29.4682 25.3207 30.2764 25.3207 31.1092C23.9529 31.1239 22.5852 31.1377 21.2175 31.1497C20.5824 31.1554 19.9474 31.1614 19.3124 31.1685C18.7589 31.1746 18.2054 31.18 17.6519 31.1844C17.3588 31.1867 17.0657 31.1895 16.7726 31.1932C16.4967 31.1967 16.2208 31.1991 15.9449 31.2007C15.7955 31.2018 15.646 31.2041 15.4966 31.2064C15.4074 31.2067 15.3182 31.207 15.2263 31.2073C15.1489 31.2081 15.0716 31.2088 14.9918 31.2096C14.7471 31.1791 14.6083 31.1058 14.4105 30.9607C14.2541 30.6479 14.3127 30.2422 14.3084 29.8985C14.3057 29.8138 14.3029 29.729 14.3 29.6418C14.2992 29.5599 14.2983 29.4781 14.2974 29.3937C14.296 29.3189 14.2945 29.244 14.293 29.1669C14.4346 28.4799 15.0191 28.5342 15.5879 28.5424Z" fill="#FECDBF"/>
<path d="M37.6406 22.0547C37.8366 22.2016 38.0325 22.3486 38.2344 22.5C38.3613 22.5938 38.3613 22.5938 38.4908 22.6896C38.8091 23.0244 38.7393 23.4873 38.7332 23.9202C38.7334 24.0207 38.7338 24.1212 38.7344 24.2217C38.7354 24.4974 38.7336 24.7731 38.7314 25.0488C38.7294 25.3463 38.7301 25.6438 38.7304 25.9412C38.7307 26.4565 38.7293 26.9718 38.7268 27.487C38.7232 28.232 38.722 28.9769 38.7214 29.7219C38.7205 30.9306 38.7175 32.1393 38.7133 33.348C38.7092 34.5221 38.706 35.6961 38.7041 36.8702C38.704 36.9426 38.7039 37.015 38.7038 37.0896C38.7032 37.4527 38.7027 37.8157 38.7021 38.1788C38.6975 41.1908 38.6896 44.2028 38.6797 47.2148C38.3368 47.2148 37.9939 47.2148 37.6406 47.2148C37.6406 38.912 37.6406 30.6091 37.6406 22.0547Z" fill="#CAD0D7"/>
<path d="M31.4673 23.4449C31.5532 23.4447 31.6391 23.4445 31.7277 23.4443C31.8178 23.4449 31.9079 23.4455 32.0008 23.4461C32.0909 23.4455 32.181 23.4449 32.2739 23.4443C32.4027 23.4446 32.4027 23.4446 32.5342 23.4449C32.6133 23.4451 32.6925 23.4453 32.774 23.4454C32.9656 23.4646 32.9656 23.4646 33.114 23.6131C33.1309 23.8002 33.1309 23.8002 33.1285 24.0334C33.1281 24.1167 33.1276 24.1999 33.1271 24.2857C33.1258 24.3729 33.1246 24.4602 33.1233 24.5501C33.1227 24.6379 33.122 24.7257 33.1213 24.8162C33.1195 25.0337 33.1171 25.2511 33.114 25.4685C33.1695 25.4678 33.2249 25.467 33.282 25.4662C33.5322 25.4631 33.7823 25.4612 34.0325 25.4593C34.1198 25.458 34.207 25.4568 34.2969 25.4555C34.4218 25.4548 34.4218 25.4548 34.5491 25.454C34.6261 25.4533 34.703 25.4525 34.7823 25.4517C34.9695 25.4685 34.9695 25.4685 35.118 25.617C35.1372 25.8086 35.1372 25.8086 35.1377 26.0484C35.138 26.1772 35.138 26.1772 35.1382 26.3087C35.1377 26.3988 35.1371 26.489 35.1365 26.5818C35.1374 26.717 35.1374 26.717 35.1382 26.8549C35.1381 26.9408 35.1379 27.0267 35.1377 27.1153C35.1375 27.1944 35.1373 27.2735 35.1372 27.355C35.118 27.5467 35.118 27.5467 34.9695 27.6951C34.7823 27.712 34.7823 27.712 34.5491 27.7096C34.4659 27.7091 34.3827 27.7086 34.2969 27.7081C34.2097 27.7069 34.1224 27.7057 34.0325 27.7044C33.9447 27.7037 33.8568 27.703 33.7664 27.7023C33.5489 27.7006 33.3315 27.6981 33.114 27.6951C33.1152 27.7782 33.1152 27.7782 33.1164 27.8631C33.1195 28.1132 33.1214 28.3634 33.1233 28.6136C33.1246 28.7008 33.1258 28.7881 33.1271 28.878C33.1278 29.0028 33.1278 29.0028 33.1285 29.1302C33.1297 29.2456 33.1297 29.2456 33.1309 29.3634C33.114 29.5506 33.114 29.5506 32.9656 29.699C32.774 29.7182 32.774 29.7182 32.5342 29.7187C32.4483 29.7189 32.3624 29.7191 32.2739 29.7193C32.1837 29.7187 32.0936 29.7182 32.0008 29.7176C31.9106 29.7181 31.8205 29.7187 31.7277 29.7193C31.5988 29.719 31.5988 29.719 31.4673 29.7187C31.3882 29.7186 31.3091 29.7184 31.2276 29.7182C31.0359 29.699 31.0359 29.699 30.8875 29.5506C30.8706 29.3634 30.8706 29.3634 30.873 29.1302C30.8735 29.047 30.8739 28.9637 30.8744 28.878C30.8757 28.7907 30.8769 28.7035 30.8782 28.6136C30.8789 28.5257 30.8795 28.4379 30.8802 28.3474C30.882 28.13 30.8844 27.9125 30.8875 27.6951C30.8321 27.6959 30.7766 27.6967 30.7195 27.6975C30.4694 27.7005 30.2192 27.7025 29.969 27.7044C29.8818 27.7056 29.7945 27.7069 29.7046 27.7081C29.5798 27.7089 29.5798 27.7089 29.4524 27.7096C29.3754 27.7104 29.2985 27.7111 29.2192 27.712C29.032 27.6951 29.032 27.6951 28.8836 27.5467C28.8644 27.355 28.8644 27.355 28.8639 27.1153C28.8637 27.0294 28.8635 26.9434 28.8633 26.8549C28.8639 26.7648 28.8644 26.6747 28.865 26.5818C28.8644 26.4917 28.8639 26.4016 28.8633 26.3087C28.8635 26.2228 28.8637 26.1369 28.8639 26.0484C28.864 25.9692 28.8642 25.8901 28.8644 25.8086C28.8836 25.617 28.8836 25.617 29.032 25.4685C29.2192 25.4517 29.2192 25.4517 29.4524 25.454C29.5356 25.4545 29.6189 25.455 29.7046 25.4555C29.7919 25.4567 29.8791 25.458 29.969 25.4593C30.1008 25.4603 30.1008 25.4603 30.2352 25.4613C30.4526 25.463 30.67 25.4655 30.8875 25.4685C30.8867 25.4131 30.8859 25.3577 30.8851 25.3006C30.882 25.0504 30.8801 24.8003 30.8782 24.5501C30.877 24.4628 30.8757 24.3756 30.8744 24.2857C30.874 24.2024 30.8735 24.1192 30.873 24.0334C30.8722 23.9565 30.8714 23.8795 30.8706 23.8002C30.9054 23.4144 31.1395 23.4456 31.4673 23.4449Z" fill="#FEFEFE"/>
<path d="M47.1406 31.1094C47.557 31.1094 47.9734 31.1094 48.4023 31.1094C48.4023 36.4242 48.4023 41.739 48.4023 47.2148C45.1939 47.2148 41.9854 47.2148 38.6797 47.2148C38.6797 47.1904 38.6797 47.1659 38.6797 47.1406C41.4718 47.1406 44.2639 47.1406 47.1406 47.1406C47.1406 41.8503 47.1406 36.56 47.1406 31.1094Z" fill="#CEE6FE"/>
<path d="M24.0586 31.1094C24.475 31.1094 24.8913 31.1094 25.3203 31.1094C25.3203 36.4242 25.3203 41.739 25.3203 47.2148C22.1118 47.2148 18.9034 47.2148 15.5977 47.2148C15.5977 47.1904 15.5977 47.1659 15.5977 47.1406C18.3898 47.1406 21.1819 47.1406 24.0586 47.1406C24.0586 41.8503 24.0586 36.56 24.0586 31.1094Z" fill="#CEE6FE"/>
<path d="M27.9186 16.6042C27.9974 16.6065 28.0761 16.6089 28.1572 16.6113C28.3501 16.6174 28.5424 16.6259 28.735 16.6367C28.3492 17.0918 27.9558 17.5199 27.5012 17.9077C27.2181 18.1511 26.9563 18.4124 26.694 18.6777C26.3965 18.9786 26.0959 19.267 25.773 19.5408C25.5232 19.7644 25.2909 20.0051 25.0554 20.2436C24.8099 20.4909 24.5568 20.7226 24.2912 20.9483C24.041 21.1727 23.8079 21.4139 23.5719 21.6529C23.3213 21.9054 23.0649 22.1456 22.7908 22.3728C22.6477 22.4951 22.6477 22.4951 22.5371 22.6346C22.3618 22.843 22.2207 22.9951 21.9527 23.0669C21.7413 23.0844 21.5356 23.0855 21.3235 23.0808C21.2043 23.0813 21.2043 23.0813 21.0827 23.0818C20.8211 23.0822 20.5597 23.0789 20.2982 23.0754C20.1162 23.0749 19.9343 23.0745 19.7523 23.0743C19.3717 23.0734 18.9911 23.0708 18.6105 23.0668C18.1217 23.0618 17.633 23.0596 17.1442 23.0586C16.6787 23.0575 16.2131 23.0549 15.7476 23.0522C15.6584 23.0519 15.5692 23.0515 15.4773 23.0511C15.226 23.0497 14.9748 23.0473 14.7236 23.0446C14.6111 23.0442 14.6111 23.0442 14.4963 23.0437C14.4282 23.0428 14.36 23.0418 14.2898 23.0408C14.2304 23.0403 14.171 23.0398 14.1098 23.0392C13.9655 23.0195 13.9655 23.0195 13.8171 22.8711C13.8032 22.6438 13.8032 22.6438 13.8171 22.4257C13.8913 22.3515 13.8913 22.3515 14.168 22.3453C14.2946 22.3462 14.4211 22.3476 14.5476 22.3492C14.6906 22.3504 14.8335 22.3516 14.9764 22.3527C15.0526 22.3534 15.1289 22.3542 15.2075 22.3549C15.6953 22.3587 16.1832 22.3583 16.6711 22.3587C17.0998 22.3593 17.5285 22.3614 17.9572 22.3665C18.3716 22.3714 18.7859 22.3723 19.2004 22.3706C19.358 22.3706 19.5156 22.3721 19.6732 22.3751C20.6484 22.4217 20.6484 22.4217 21.48 21.9912C21.635 21.8238 21.7708 21.6438 21.9069 21.4609C22.0017 21.3729 22.0986 21.2871 22.1992 21.2058C22.4618 20.9819 22.7037 20.7414 22.946 20.4961C23.1853 20.2538 23.4236 20.016 23.6835 19.7956C23.9598 19.5609 24.2128 19.3063 24.4675 19.0488C24.765 18.7479 25.0656 18.4595 25.3885 18.1857C25.6348 17.9652 25.865 17.7287 26.0957 17.4921C26.1679 17.4186 26.241 17.3459 26.3148 17.2741C26.4001 17.1899 26.4826 17.1028 26.563 17.0138C26.9843 16.5839 27.3351 16.571 27.9186 16.6042Z" fill="#F29A89"/>
<path d="M35.2656 16.6367C36.6283 16.4488 36.6283 16.4488 37.1666 16.7425C37.5221 17.0141 37.8188 17.3391 38.109 17.6783C38.2668 17.862 38.4367 18.031 38.6101 18.1999C38.6602 18.2508 38.7104 18.3017 38.762 18.3542C38.8986 18.4885 39.0396 18.6137 39.1853 18.738C39.4507 18.9653 39.696 19.2086 39.9414 19.457C40.1807 19.6993 40.419 19.9371 40.679 20.1575C41.0007 20.4309 41.2928 20.7323 41.5894 21.0323C41.8524 21.2971 42.1204 21.5507 42.4069 21.7903C42.5391 21.9062 42.5391 21.9062 42.6889 22.0964C42.9975 22.3487 43.2261 22.3273 43.6132 22.3195C43.7186 22.3195 43.7186 22.3195 43.8261 22.3196C44.0578 22.3194 44.2895 22.3165 44.5212 22.3136C44.6821 22.3129 44.843 22.3124 45.0039 22.312C45.4269 22.3106 45.8499 22.3069 46.2729 22.3028C46.7047 22.299 47.1366 22.2973 47.5684 22.2955C48.4154 22.2915 49.2624 22.2851 50.1094 22.2773C50.2119 22.4824 50.1978 22.6445 50.1836 22.8711C50.0045 23.0502 49.9595 23.0393 49.7144 23.0444C49.647 23.0461 49.5796 23.0478 49.5101 23.0495C49.436 23.0506 49.3618 23.0517 49.2854 23.0529C49.2074 23.0546 49.1294 23.0562 49.0491 23.058C48.2305 23.0745 47.4117 23.0815 46.593 23.0878C46.205 23.0911 45.8173 23.0973 45.4294 23.1061C44.9605 23.1167 44.4918 23.1221 44.0227 23.1239C43.8446 23.1254 43.6664 23.1287 43.4884 23.1339C41.9494 23.1764 41.9494 23.1764 41.387 22.6535C41.2212 22.476 41.0695 22.2922 40.9239 22.0979C40.8069 21.9483 40.6736 21.83 40.5259 21.7114C40.225 21.457 39.9524 21.1771 39.6758 20.897C39.4736 20.6932 39.2697 20.4966 39.0508 20.3105C38.7895 20.0884 38.5494 19.8492 38.3086 19.6055C38.0693 19.3632 37.831 19.1254 37.571 18.905C37.2492 18.6315 36.9569 18.3302 36.6604 18.0299C36.4009 17.7683 36.1367 17.5192 35.8504 17.2867C35.6366 17.0867 35.4531 16.8612 35.2656 16.6367Z" fill="#F29A89"/>
<path d="M19.5684 40.5146C19.6517 40.5151 19.6517 40.5151 19.7368 40.5156C19.7939 40.5154 19.851 40.5153 19.9098 40.5151C20.0306 40.515 20.1514 40.5153 20.2722 40.5159C20.4574 40.5167 20.6426 40.5159 20.8278 40.515C20.945 40.5151 21.0622 40.5153 21.1794 40.5156C21.235 40.5153 21.2906 40.515 21.3479 40.5146C21.7399 40.5182 21.7399 40.5182 21.9054 40.6837C21.9242 40.8217 21.9242 40.8217 21.9246 40.9912C21.9251 41.0546 21.9255 41.118 21.926 41.1833C21.9257 41.2519 21.9254 41.3205 21.9251 41.3911C21.9253 41.4965 21.9253 41.4965 21.9255 41.6041C21.9256 41.7528 21.9254 41.9015 21.9247 42.0503C21.9239 42.2785 21.9247 42.5067 21.9257 42.7349C21.9256 42.8792 21.9254 43.0234 21.9251 43.1677C21.9254 43.2363 21.9257 43.3049 21.926 43.3755C21.9255 43.4389 21.9251 43.5023 21.9246 43.5677C21.9245 43.6236 21.9244 43.6795 21.9242 43.7371C21.9054 43.8751 21.9054 43.8751 21.757 44.0236C21.5618 44.0384 21.3746 44.0443 21.1794 44.0433C21.1223 44.0434 21.0652 44.0436 21.0064 44.0437C20.8856 44.0438 20.7649 44.0435 20.6441 44.0429C20.4589 44.0421 20.2737 44.0429 20.0885 44.0438C19.9713 44.0438 19.854 44.0436 19.7368 44.0433C19.6812 44.0436 19.6256 44.0439 19.5684 44.0442C19.1764 44.0406 19.1764 44.0406 19.0109 43.8751C18.992 43.7371 18.992 43.7371 18.9917 43.5677C18.9912 43.5043 18.9907 43.4409 18.9902 43.3755C18.9905 43.307 18.9908 43.2384 18.9911 43.1677C18.991 43.0974 18.9909 43.0272 18.9907 42.9548C18.9906 42.806 18.9909 42.6573 18.9915 42.5086C18.9923 42.2803 18.9915 42.0522 18.9906 41.824C18.9907 41.6797 18.9909 41.5354 18.9911 41.3911C18.9907 41.2882 18.9907 41.2882 18.9902 41.1833C18.9907 41.1199 18.9912 41.0565 18.9917 40.9912C18.9918 40.9353 18.9919 40.8793 18.992 40.8217C19.0382 40.4836 19.2855 40.5172 19.5684 40.5146Z" fill="#D8C5BF"/>
<path d="M19.5684 34.2803C19.6517 34.2807 19.6517 34.2807 19.7368 34.2812C19.7939 34.281 19.851 34.2809 19.9098 34.2808C20.0306 34.2807 20.1514 34.2809 20.2722 34.2815C20.4574 34.2823 20.6426 34.2816 20.8278 34.2806C20.945 34.2807 21.0622 34.2809 21.1794 34.2812C21.235 34.2809 21.2906 34.2806 21.3479 34.2803C21.7399 34.2838 21.7399 34.2838 21.9054 34.4493C21.9242 34.5873 21.9242 34.5873 21.9246 34.7568C21.9251 34.8202 21.9255 34.8836 21.926 34.9489C21.9257 35.0175 21.9254 35.0861 21.9251 35.1567C21.9253 35.2621 21.9253 35.2621 21.9255 35.3697C21.9256 35.5184 21.9254 35.6672 21.9247 35.8159C21.9239 36.0441 21.9247 36.2723 21.9257 36.5005C21.9256 36.6448 21.9254 36.7891 21.9251 36.9333C21.9254 37.0019 21.9257 37.0705 21.926 37.1412C21.9255 37.2046 21.9251 37.268 21.9246 37.3333C21.9245 37.3892 21.9244 37.4451 21.9242 37.5027C21.9054 37.6407 21.9054 37.6407 21.757 37.7892C21.5618 37.804 21.3746 37.8099 21.1794 37.8089C21.1223 37.809 21.0652 37.8092 21.0064 37.8093C20.8856 37.8094 20.7649 37.8092 20.6441 37.8085C20.4589 37.8077 20.2737 37.8085 20.0885 37.8095C19.9713 37.8094 19.854 37.8092 19.7368 37.8089C19.6812 37.8092 19.6256 37.8095 19.5684 37.8098C19.1764 37.8062 19.1764 37.8062 19.0109 37.6407C18.992 37.5027 18.992 37.5027 18.9917 37.3333C18.9912 37.2699 18.9907 37.2065 18.9902 37.1412C18.9905 37.0726 18.9908 37.004 18.9911 36.9333C18.991 36.8631 18.9909 36.7928 18.9907 36.7204C18.9906 36.5717 18.9909 36.4229 18.9915 36.2742C18.9923 36.046 18.9915 35.8178 18.9906 35.5896C18.9907 35.4453 18.9909 35.301 18.9911 35.1567C18.9907 35.0539 18.9907 35.0539 18.9902 34.9489C18.9907 34.8855 18.9912 34.8221 18.9917 34.7568C18.9918 34.7009 18.9919 34.645 18.992 34.5873C19.0382 34.2492 19.2855 34.2828 19.5684 34.2803Z" fill="#D8C5BF"/>
<path d="M29.4766 33.9298C29.4199 33.9819 29.3633 34.0339 29.3049 34.0875C28.9581 34.4586 28.8551 34.7661 28.8532 35.2703C28.8527 35.3213 28.8522 35.3723 28.8517 35.4248C28.8503 35.5948 28.8505 35.7646 28.8507 35.9345C28.85 36.0567 28.8493 36.1789 28.8484 36.3011C28.8464 36.6321 28.8457 36.9631 28.8452 37.2942C28.8445 37.6404 28.8426 37.9866 28.8408 38.3328C28.8375 38.988 28.8354 39.6433 28.8337 40.2986C28.8317 41.0447 28.8284 41.7909 28.8251 42.537C28.8182 44.0716 28.8129 45.6062 28.8086 47.1407C28.5637 47.1407 28.3187 47.1407 28.0664 47.1407C28.0612 45.5021 28.0573 43.8634 28.0549 42.2247C28.0537 41.4639 28.0521 40.703 28.0496 39.9422C28.0474 39.2791 28.0459 38.616 28.0454 37.9529C28.0452 37.6018 28.0445 37.2506 28.0429 36.8994C28.0413 36.569 28.0409 36.2385 28.0412 35.908C28.0412 35.7867 28.0407 35.6654 28.0399 35.5441C28.0387 35.3784 28.039 35.2128 28.0396 35.0472C28.0394 34.9545 28.0392 34.8618 28.039 34.7663C28.0765 34.4337 28.1917 34.2406 28.4375 34.0179C28.7784 33.883 29.1144 33.9127 29.4766 33.9298Z" fill="#C2A9A1"/>
<path d="M42.5824 40.525C42.6402 40.5252 42.698 40.5253 42.7576 40.5255C42.8167 40.5254 42.8757 40.5254 42.9365 40.5253C43.0615 40.5252 43.1866 40.5254 43.3116 40.5257C43.5036 40.5261 43.6957 40.5257 43.8877 40.5252C44.0089 40.5253 44.1301 40.5254 44.2513 40.5255C44.3091 40.5253 44.3669 40.5252 44.4265 40.525C44.8319 40.5268 44.8319 40.5268 44.9146 40.6096C44.9219 40.714 44.9241 40.8187 44.9242 40.9234C44.9244 40.99 44.9247 41.0567 44.9249 41.1253C44.9248 41.1977 44.9246 41.2702 44.9245 41.3448C44.9245 41.4187 44.9246 41.4925 44.9247 41.5686C44.9247 41.7251 44.9246 41.8816 44.9243 42.038C44.9239 42.2785 44.9243 42.5189 44.9248 42.7593C44.9247 42.9109 44.9246 43.0626 44.9245 43.2142C44.9246 43.2866 44.9248 43.3591 44.9249 43.4337C44.9246 43.5336 44.9246 43.5336 44.9242 43.6356C44.9242 43.6945 44.9241 43.7535 44.924 43.8142C44.9146 43.9494 44.9146 43.9494 44.8404 44.0236C44.6425 44.0302 44.4466 44.0322 44.2487 44.0309C44.1895 44.0308 44.1303 44.0307 44.0693 44.0306C43.8795 44.0301 43.6896 44.0292 43.4998 44.0283C43.3714 44.0279 43.243 44.0276 43.1147 44.0273C42.7993 44.0264 42.4839 44.0252 42.1685 44.0236C42.0823 43.8513 42.0849 43.7516 42.0847 43.5598C42.0845 43.4946 42.0842 43.4295 42.084 43.3624C42.0841 43.292 42.0843 43.2215 42.0844 43.149C42.0844 43.0769 42.0843 43.0048 42.0842 42.9305C42.0842 42.7779 42.0843 42.6254 42.0846 42.4729C42.085 42.2385 42.0846 42.0041 42.0841 41.7697C42.0842 41.6218 42.0843 41.4739 42.0844 41.326C42.0843 41.2554 42.0841 41.1848 42.084 41.1121C42.0842 41.0472 42.0845 40.9823 42.0847 40.9154C42.0848 40.858 42.0848 40.8006 42.0849 40.7415C42.1061 40.4448 42.3382 40.5261 42.5824 40.525Z" fill="#D8C4BE"/>
<path d="M42.5824 34.2907C42.6402 34.2908 42.698 34.291 42.7576 34.2911C42.8167 34.2911 42.8757 34.291 42.9365 34.2909C43.0615 34.2909 43.1866 34.291 43.3116 34.2913C43.5036 34.2917 43.6957 34.2913 43.8877 34.2908C44.0089 34.2909 44.1301 34.291 44.2513 34.2911C44.3091 34.291 44.3669 34.2908 44.4265 34.2907C44.8319 34.2924 44.8319 34.2924 44.9146 34.3752C44.9219 34.4796 44.9241 34.5844 44.9242 34.689C44.9244 34.7557 44.9247 34.8223 44.9249 34.8909C44.9248 34.9634 44.9246 35.0358 44.9245 35.1104C44.9245 35.1843 44.9246 35.2581 44.9247 35.3342C44.9247 35.4907 44.9246 35.6472 44.9243 35.8037C44.9239 36.0441 44.9243 36.2845 44.9248 36.5249C44.9247 36.6766 44.9246 36.8282 44.9245 36.9798C44.9246 37.0523 44.9248 37.1247 44.9249 37.1993C44.9246 37.2993 44.9246 37.2993 44.9242 37.4012C44.9242 37.4602 44.9241 37.5191 44.924 37.5798C44.9146 37.715 44.9146 37.715 44.8404 37.7893C44.6425 37.7958 44.4466 37.7978 44.2487 37.7965C44.1895 37.7964 44.1303 37.7963 44.0693 37.7962C43.8795 37.7958 43.6896 37.7948 43.4998 37.7939C43.3714 37.7935 43.243 37.7932 43.1147 37.7929C42.7993 37.7921 42.4839 37.7908 42.1685 37.7893C42.0823 37.6169 42.0849 37.5172 42.0847 37.3254C42.0845 37.2602 42.0842 37.1951 42.084 37.128C42.0841 37.0576 42.0843 36.9871 42.0844 36.9146C42.0844 36.8425 42.0843 36.7704 42.0842 36.6961C42.0842 36.5436 42.0843 36.391 42.0846 36.2385C42.085 36.0041 42.0846 35.7697 42.0841 35.5353C42.0842 35.3874 42.0843 35.2395 42.0844 35.0916C42.0843 35.021 42.0841 34.9504 42.084 34.8777C42.0842 34.8128 42.0845 34.7479 42.0847 34.681C42.0848 34.6236 42.0848 34.5662 42.0849 34.5071C42.1061 34.2104 42.3382 34.2917 42.5824 34.2907Z" fill="#D8C4BE"/>
<path d="M47.1406 23.0195C47.557 23.0195 47.9734 23.0195 48.4023 23.0195C48.4023 24.8809 48.4023 26.7423 48.4023 28.6602C47.986 28.6602 47.5696 28.6602 47.1406 28.6602C47.1406 26.7987 47.1406 24.9373 47.1406 23.0195Z" fill="#CEE7FE"/>
<path d="M24.0586 23.0195C24.475 23.0195 24.8913 23.0195 25.3203 23.0195C25.3203 24.8564 25.3203 26.6934 25.3203 28.5859C24.9039 28.5859 24.4876 28.5859 24.0586 28.5859C24.0586 26.749 24.0586 24.9121 24.0586 23.0195Z" fill="#CEE7FF"/>
<path d="M48.4023 28.586C48.5429 28.576 48.6837 28.5688 48.8245 28.5629C48.9028 28.5585 48.9812 28.5542 49.0619 28.5498C49.293 28.586 49.293 28.586 49.5055 28.7148C49.7514 29.0906 49.7122 29.4506 49.7012 29.8895C49.7014 29.9738 49.7016 30.0582 49.7018 30.1451C49.6934 30.85 49.6934 30.85 49.4414 31.1095C49.2047 31.1884 49.0405 31.1918 48.7919 31.1898C48.7029 31.1893 48.6139 31.1888 48.5222 31.1882C48.4245 31.1873 48.3267 31.1863 48.226 31.1853C48.1222 31.1846 48.0183 31.1838 47.9144 31.1832C47.6323 31.1812 47.3502 31.1788 47.068 31.1762C46.7732 31.1737 46.4785 31.1716 46.1837 31.1694C45.6254 31.1652 45.0671 31.1607 44.5088 31.156C43.8732 31.1507 43.2377 31.1458 42.6021 31.1409C41.2946 31.1309 39.9872 31.1204 38.6797 31.1095C38.6797 30.9625 38.6797 30.8156 38.6797 30.6642C38.7304 30.6639 38.7812 30.6637 38.8334 30.6634C40.0667 30.6574 41.2999 30.6506 42.5331 30.6428C43.1295 30.6391 43.7258 30.6357 44.3222 30.6329C44.8419 30.6304 45.3615 30.6275 45.8812 30.6239C46.1564 30.622 46.4317 30.6204 46.707 30.6194C47.0139 30.6183 47.3209 30.616 47.6278 30.6136C47.7654 30.6134 47.7654 30.6134 47.9059 30.6131C47.9891 30.6123 48.0724 30.6115 48.1582 30.6106C48.2308 30.6102 48.3035 30.6098 48.3784 30.6094C48.5651 30.6065 48.5651 30.6065 48.6992 30.4415C48.7348 30.1724 48.7267 29.9009 48.7271 29.6297C48.7289 29.5544 48.7307 29.4791 48.7326 29.4014C48.7328 29.3292 48.7331 29.2569 48.7334 29.1824C48.734 29.1161 48.7346 29.0498 48.7353 28.9815C48.7143 28.7954 48.7143 28.7954 48.5486 28.674C48.5004 28.645 48.4521 28.616 48.4023 28.586Z" fill="#FDB0A0"/>
<path d="M33.1133 21.6836C34.1948 21.7573 35.1219 22.4433 35.8498 23.2025C36.9196 24.4763 37.1479 25.8658 37.0469 27.4727C36.9916 27.8215 36.8958 28.1166 36.75 28.4375C36.7207 28.5034 36.7207 28.5034 36.6908 28.5706C36.0811 29.9119 35.0984 30.8276 33.7207 31.3648C33.5377 31.4116 33.3756 31.4139 33.1875 31.4062C33.3772 31.1856 33.5911 31.0869 33.8508 30.9609C35.0057 30.3494 35.7974 29.3515 36.215 28.1152C36.3793 27.5762 36.415 27.0738 36.4114 26.5125C36.4129 26.4316 36.4143 26.3507 36.4159 26.2673C36.4152 25.0581 35.867 23.8939 35.043 23.0195C34.4833 22.474 33.813 22.1585 33.1133 21.832C33.1133 21.783 33.1133 21.7341 33.1133 21.6836Z" fill="#F23757"/>
<path d="M14.3359 30.6641C17.9608 30.6641 21.5856 30.6641 25.3203 30.6641C25.3203 30.811 25.3203 30.958 25.3203 31.1094C23.9526 31.1243 22.5849 31.1379 21.2172 31.1499C20.5821 31.1556 19.9471 31.1616 19.312 31.1687C18.7585 31.1748 18.205 31.1802 17.6515 31.1846C17.3584 31.1869 17.0654 31.1897 16.7723 31.1934C16.4964 31.1969 16.2205 31.1993 15.9446 31.2009C15.7951 31.202 15.6457 31.2043 15.4962 31.2066C15.4071 31.2069 15.3179 31.2072 15.226 31.2076C15.1486 31.2083 15.0712 31.2091 14.9915 31.2098C14.7431 31.1788 14.6061 31.1159 14.4102 30.9609C14.3857 30.863 14.3612 30.765 14.3359 30.6641Z" fill="#FDB0A0"/>
<path d="M44.3945 40.5352C44.5415 40.5352 44.6884 40.5352 44.8398 40.5352C44.9556 40.6509 44.9235 40.7624 44.9237 40.9232C44.9239 40.9898 44.9241 41.0565 44.9244 41.1251C44.9242 41.1975 44.9241 41.27 44.9239 41.3446C44.924 41.4185 44.9241 41.4923 44.9241 41.5684C44.9242 41.7249 44.924 41.8814 44.9237 42.0378C44.9233 42.2783 44.9237 42.5187 44.9242 42.7591C44.9242 42.9107 44.9241 43.0624 44.9239 43.214C44.9241 43.2864 44.9242 43.3589 44.9244 43.4335C44.9241 43.5001 44.9239 43.5667 44.9237 43.6354C44.9236 43.7238 44.9236 43.7238 44.9235 43.814C44.9141 43.9492 44.9141 43.9492 44.8398 44.0234C44.6929 44.0234 44.5459 44.0234 44.3945 44.0234C44.3945 42.8723 44.3945 41.7212 44.3945 40.5352Z" fill="#C3AAA3"/>
<path d="M21.3125 40.5353C21.5259 40.526 21.5259 40.526 21.7578 40.5353C21.9351 40.7125 21.9249 40.7499 21.9255 40.9912C21.9259 41.0546 21.9264 41.118 21.9269 41.1833C21.9266 41.2519 21.9263 41.3205 21.926 41.3911C21.9261 41.4614 21.9262 41.5317 21.9264 41.6041C21.9265 41.7528 21.9262 41.9015 21.9256 42.0503C21.9248 42.2785 21.9256 42.5067 21.9265 42.7349C21.9264 42.8792 21.9263 43.0234 21.926 43.1677C21.9263 43.2363 21.9266 43.3049 21.9269 43.3755C21.9264 43.4389 21.9259 43.5023 21.9255 43.5677C21.9253 43.6515 21.9253 43.6515 21.9251 43.7371C21.9062 43.8751 21.9062 43.8751 21.7578 44.0236C21.5259 44.0328 21.5259 44.0328 21.3125 44.0236C21.337 43.9746 21.3615 43.9256 21.3867 43.8751C21.3937 43.7728 21.3962 43.6702 21.3963 43.5677C21.3966 43.5043 21.3968 43.4409 21.397 43.3755C21.3969 43.307 21.3967 43.2384 21.3966 43.1677C21.3966 43.0975 21.3967 43.0272 21.3968 42.9548C21.3968 42.806 21.3967 42.6573 21.3964 42.5086C21.396 42.2804 21.3964 42.0522 21.3969 41.824C21.3968 41.6797 21.3967 41.5354 21.3966 41.3911C21.3967 41.3225 21.3969 41.254 21.397 41.1833C21.3968 41.1199 21.3966 41.0565 21.3963 40.9912C21.3963 40.9353 21.3962 40.8793 21.3961 40.8217C21.3951 40.6767 21.3951 40.6767 21.3125 40.5353Z" fill="#C3AAA3"/>
<path d="M44.3945 34.3008C44.5415 34.3008 44.6884 34.3008 44.8398 34.3008C44.9556 34.4165 44.9235 34.528 44.9237 34.6888C44.9239 34.7555 44.9241 34.8221 44.9244 34.8907C44.9242 34.9632 44.9241 35.0356 44.9239 35.1102C44.924 35.1841 44.9241 35.2579 44.9241 35.334C44.9242 35.4905 44.924 35.647 44.9237 35.8035C44.9233 36.0439 44.9237 36.2843 44.9242 36.5247C44.9242 36.6764 44.9241 36.828 44.9239 36.9796C44.9241 37.0521 44.9242 37.1245 44.9244 37.1991C44.9241 37.2657 44.9239 37.3324 44.9237 37.401C44.9236 37.4894 44.9236 37.4894 44.9235 37.5796C44.9141 37.7148 44.9141 37.7148 44.8398 37.7891C44.6929 37.7891 44.5459 37.7891 44.3945 37.7891C44.3945 36.6379 44.3945 35.4868 44.3945 34.3008Z" fill="#C3AAA3"/>
<path d="M21.3125 34.3009C21.5259 34.2916 21.5259 34.2916 21.7578 34.3009C21.9351 34.4782 21.9249 34.5156 21.9255 34.7568C21.9259 34.8202 21.9264 34.8836 21.9269 34.9489C21.9266 35.0175 21.9263 35.0861 21.926 35.1567C21.9261 35.227 21.9262 35.2973 21.9264 35.3697C21.9265 35.5184 21.9262 35.6672 21.9256 35.8159C21.9248 36.0441 21.9256 36.2723 21.9265 36.5005C21.9264 36.6448 21.9263 36.7891 21.926 36.9333C21.9263 37.0019 21.9266 37.0705 21.9269 37.1412C21.9264 37.2046 21.9259 37.268 21.9255 37.3333C21.9253 37.4172 21.9253 37.4172 21.9251 37.5027C21.9062 37.6407 21.9062 37.6407 21.7578 37.7892C21.5259 37.7985 21.5259 37.7985 21.3125 37.7892C21.337 37.7402 21.3615 37.6912 21.3867 37.6407C21.3937 37.5384 21.3962 37.4358 21.3963 37.3333C21.3966 37.2699 21.3968 37.2065 21.397 37.1412C21.3969 37.0726 21.3967 37.004 21.3966 36.9333C21.3966 36.8631 21.3967 36.7928 21.3968 36.7204C21.3968 36.5717 21.3967 36.4229 21.3964 36.2742C21.396 36.046 21.3964 35.8178 21.3969 35.5896C21.3968 35.4453 21.3967 35.301 21.3966 35.1567C21.3967 35.0882 21.3969 35.0196 21.397 34.9489C21.3968 34.8855 21.3966 34.8221 21.3963 34.7568C21.3963 34.7009 21.3962 34.645 21.3961 34.5874C21.3951 34.4424 21.3951 34.4424 21.3125 34.3009Z" fill="#C3AAA3"/>
<path d="M29.2268 25.4595C29.285 25.4625 29.3432 25.4656 29.4031 25.4688C29.3786 25.5177 29.3541 25.5667 29.3289 25.6172C29.3226 25.7626 29.3209 25.9082 29.3216 26.0538C29.3219 26.1404 29.3221 26.227 29.3224 26.3162C29.323 26.407 29.3236 26.4978 29.3242 26.5913C29.3246 26.6827 29.3249 26.774 29.3253 26.8682C29.3261 27.0944 29.3275 27.3206 29.3289 27.5469C29.8432 27.5714 30.3576 27.5959 30.8875 27.6211C30.8875 27.6456 30.8875 27.6701 30.8875 27.6953C30.5813 27.6996 30.2752 27.7023 29.969 27.7046C29.8818 27.7058 29.7945 27.7071 29.7046 27.7084C29.5798 27.7091 29.5798 27.7091 29.4524 27.7098C29.3754 27.7106 29.2985 27.7114 29.2192 27.7122C29.032 27.6953 29.032 27.6953 28.8836 27.5469C28.8644 27.3552 28.8644 27.3552 28.8639 27.1155C28.8637 27.0296 28.8635 26.9437 28.8633 26.8551C28.8639 26.765 28.8644 26.6749 28.865 26.582C28.8644 26.4919 28.8639 26.4018 28.8633 26.3089C28.8635 26.223 28.8637 26.1371 28.8639 26.0486C28.864 25.9695 28.8642 25.8903 28.8644 25.8088C28.8913 25.5397 28.9556 25.4724 29.2268 25.4595Z" fill="#E8E4E8"/>
<path d="M30.8867 27.6953C31.0092 27.6953 31.1316 27.6953 31.2578 27.6953C31.2823 28.3076 31.3068 28.9199 31.332 29.5508C31.8709 29.5753 32.4097 29.5998 32.9648 29.625C32.9648 29.6495 32.9648 29.674 32.9648 29.6992C32.6463 29.7035 32.3278 29.7062 32.0093 29.7085C31.9185 29.7097 31.8277 29.711 31.7341 29.7123C31.6043 29.713 31.6043 29.713 31.4718 29.7137C31.3917 29.7145 31.3116 29.7153 31.2291 29.7161C31.0351 29.6992 31.0351 29.6992 30.8867 29.5508C30.8699 29.3636 30.8699 29.3636 30.8722 29.1304C30.8727 29.0472 30.8732 28.9639 30.8737 28.8782C30.8749 28.7909 30.8762 28.7037 30.8774 28.6138C30.8781 28.5259 30.8788 28.4381 30.8795 28.3476C30.8812 28.1302 30.8837 27.9128 30.8867 27.6953Z" fill="#E8E4E7"/>
<path d="M31.2293 23.4556C31.2874 23.4586 31.3456 23.4617 31.4055 23.4648C31.381 23.5138 31.3565 23.5628 31.3313 23.6133C31.3199 23.7532 31.3128 23.8934 31.3078 24.0337C31.3047 24.1169 31.3016 24.2001 31.2984 24.2859C31.294 24.4168 31.294 24.4168 31.2896 24.5503C31.2864 24.6381 31.2831 24.7259 31.2798 24.8164C31.272 25.0339 31.2644 25.2513 31.2571 25.4688C31.1346 25.4688 31.0122 25.4688 30.886 25.4688C30.8817 25.1626 30.879 24.8565 30.8767 24.5503C30.8755 24.463 30.8742 24.3758 30.8729 24.2859C30.8725 24.2027 30.872 24.1194 30.8715 24.0337C30.8707 23.9567 30.8699 23.8797 30.8691 23.8005C30.8932 23.533 30.9613 23.4683 31.2293 23.4556Z" fill="#E5E5E8"/>
<path d="M33.4102 31.4062C33.1207 31.5991 32.8554 31.5658 32.5195 31.5546C32.8478 31.3357 33.0278 31.3106 33.4102 31.4062Z" fill="#F14A66"/>
</g>
<defs>
<linearGradient id="paint0_linear_1375_6921" x1="98.4667" y1="21.1263" x2="-8.8357" y2="26.7315" gradientUnits="userSpaceOnUse">
<stop stop-color="#00ADEF"/>
<stop offset="1" stop-color="#D60F8C"/>
</linearGradient>
<clipPath id="clip0_1375_6921">
<rect width="38" height="38" fill="white" transform="translate(13 13)"/>
</clipPath>
</defs>
</svg>
