<svg width="32" height="32" viewBox="0 0 32 32" fill="none" xmlns="http://www.w3.org/2000/svg">
<g clip-path="url(#clip0_6_604)">
<path d="M13.9654 7.3496C13.8839 7.34881 13.8023 7.34802 13.7183 7.3472C13.6298 7.34733 13.5413 7.34752 13.4528 7.34776C13.3615 7.34747 13.2702 7.34714 13.1789 7.34677C12.9879 7.34621 12.7969 7.34636 12.6058 7.34698C12.3614 7.3477 12.117 7.34643 11.8726 7.34461C11.6842 7.34346 11.4958 7.34348 11.3074 7.34384C11.2173 7.34385 11.1272 7.34347 11.0371 7.34269C10.911 7.34176 10.7849 7.34259 10.6588 7.3435C10.5872 7.34351 10.5155 7.34352 10.4417 7.34353C10.207 7.38181 10.106 7.46051 9.93713 7.62486C9.78533 7.85255 9.79608 8.01906 9.79992 8.28184C9.80019 8.35011 9.80019 8.35011 9.80046 8.41976C9.80116 8.56496 9.80272 8.71013 9.80432 8.85533C9.80494 8.95384 9.80551 9.05235 9.80602 9.15086C9.8074 9.3922 9.80956 9.63352 9.81213 9.87486C9.77877 9.88404 9.74542 9.89323 9.71105 9.90269C8.9246 10.1394 8.39779 10.6274 7.83198 11.1967C7.75445 11.2738 7.67686 11.3508 7.59923 11.4278C7.38985 11.6358 7.18126 11.8445 6.97285 12.0535C6.79822 12.2285 6.62319 12.403 6.44817 12.5776C6.03496 12.9897 5.6224 13.4025 5.21025 13.8157C4.78634 14.2407 4.36142 14.6646 3.93598 15.088C3.56952 15.4528 3.20368 15.8182 2.83832 16.1841C2.62064 16.4021 2.40275 16.6198 2.18427 16.837C1.97872 17.0414 1.77395 17.2466 1.56974 17.4523C1.49511 17.5273 1.42022 17.6019 1.34504 17.6763C0.516994 18.4963 -0.0171852 19.3646 -0.0346336 20.5633C-0.0351181 20.7012 -0.0344276 20.839 -0.033577 20.9769C-0.0337448 21.075 -0.033989 21.1731 -0.0343018 21.2712C-0.034668 21.4753 -0.0341454 21.6794 -0.0329666 21.8835C-0.0315399 22.1433 -0.0323639 22.403 -0.0338593 22.6628C-0.0347672 22.8649 -0.0344696 23.0669 -0.0338249 23.2689C-0.0336609 23.3647 -0.0338593 23.4604 -0.0344467 23.5561C-0.0385551 24.4123 0.117559 25.0898 0.687128 25.7499C0.843353 25.8954 1.00537 26.0132 1.18713 26.1249C1.22483 26.1485 1.26254 26.1721 1.30139 26.1964C1.56901 26.3465 1.80131 26.391 2.1051 26.4335C2.31713 26.4693 2.31713 26.4693 2.49963 26.5624C2.62295 26.7587 2.6827 26.9434 2.74841 27.1654C2.97632 27.9146 3.62894 28.4714 4.29438 28.8364C5.10078 29.2562 6.05402 29.3352 6.93322 29.0897C7.88728 28.7422 8.59424 28.1522 9.06213 27.2499C9.18588 26.9095 9.18588 26.9095 9.31213 26.5624C13.6434 26.5624 17.9746 26.5624 22.4371 26.5624C22.5403 26.8305 22.6434 27.0986 22.7496 27.3749C22.8943 27.624 23.0657 27.8409 23.2496 28.0624C23.2822 28.1027 23.3147 28.1431 23.3483 28.1847C23.9087 28.8116 24.7566 29.1559 25.5804 29.2066C26.5169 29.243 27.3919 29.0259 28.1195 28.4073C28.6609 27.9026 29.0199 27.3274 29.2496 26.6249C29.2496 26.5836 29.2496 26.5424 29.2496 26.4999C29.318 26.5012 29.3865 26.5025 29.4569 26.5038C29.7114 26.5084 29.9659 26.5112 30.2205 26.5136C30.3305 26.5148 30.4405 26.5166 30.5505 26.5187C30.709 26.5218 30.8673 26.5232 31.0258 26.5243C31.0747 26.5256 31.1237 26.5269 31.1741 26.5282C31.4072 26.5283 31.5451 26.5106 31.7441 26.385C32.0214 26.0979 32.0175 25.8728 32.0159 25.4927C32.0162 25.4337 32.0164 25.3747 32.0166 25.3139C32.0173 25.1152 32.017 24.9166 32.0168 24.718C32.0171 24.5759 32.0174 24.4338 32.0178 24.2917C32.0186 23.9051 32.0186 23.5185 32.0185 23.1318C32.0184 22.8093 32.0187 22.4867 32.019 22.1641C32.0197 21.3594 32.0197 20.5546 32.0193 19.7499C32.019 19.0515 32.0197 18.353 32.0209 17.6546C32.0221 16.9373 32.0226 16.22 32.0224 15.5028C32.0222 15.1001 32.0224 14.6975 32.0233 14.2948C32.0241 13.916 32.0239 13.5371 32.0231 13.1583C32.023 13.0193 32.0231 12.8804 32.0237 12.7414C32.0243 12.5515 32.0238 12.3616 32.023 12.1717C32.0235 12.1169 32.0239 12.062 32.0244 12.0055C32.0191 11.398 31.7876 10.8748 31.3763 10.4286C30.7724 9.85343 30.1276 9.73979 29.3202 9.74234C29.2275 9.74226 29.2275 9.74226 29.1328 9.74218C28.9258 9.74208 28.7189 9.74242 28.5119 9.74276C28.3634 9.74278 28.215 9.74277 28.0665 9.74273C27.7054 9.74272 27.3442 9.74299 26.9831 9.74339C26.5627 9.74383 26.1424 9.74393 25.7221 9.744C24.9725 9.74414 24.223 9.74455 23.4734 9.74514C22.7454 9.74572 22.0174 9.74616 21.2894 9.74642C21.2445 9.74644 21.1996 9.74646 21.1534 9.74647C20.9282 9.74656 20.7029 9.74663 20.4777 9.74671C18.61 9.74736 16.7423 9.74847 14.8746 9.74986C14.8756 9.69469 14.8766 9.63953 14.8776 9.5827C14.8808 9.37711 14.8832 9.17154 14.8849 8.96594C14.8859 8.87713 14.8871 8.78832 14.8888 8.69952C14.8911 8.57152 14.8921 8.44355 14.8929 8.31553C14.8939 8.23862 14.8949 8.1617 14.8959 8.08245C14.8728 7.85657 14.822 7.74271 14.6871 7.56236C14.4482 7.37494 14.2651 7.35102 13.9654 7.3496ZM13.2496 8.93736C13.2496 9.20548 13.2496 9.47361 13.2496 9.74986C12.6309 9.74986 12.0121 9.74986 11.3746 9.74986C11.3746 9.48173 11.3746 9.21361 11.3746 8.93736C11.9934 8.93736 12.6121 8.93736 13.2496 8.93736ZM26.7496 12.5624C26.925 12.8255 26.9452 13.0552 26.9432 13.3663C26.9429 13.4494 26.9429 13.4494 26.9426 13.5342C26.9421 13.5912 26.9416 13.6482 26.941 13.7069C26.9408 13.7651 26.9405 13.8233 26.9402 13.8833C26.9394 14.0263 26.9384 14.1693 26.9371 14.3124C26.973 14.3117 27.0089 14.311 27.0459 14.3104C27.2102 14.3078 27.3744 14.3061 27.5387 14.3045C27.5952 14.3035 27.6516 14.3025 27.7098 14.3014C28.1141 14.2984 28.4204 14.3145 28.7379 14.5897C29.0148 14.914 28.9532 15.2984 28.9556 15.7053C28.9567 15.8308 28.9594 15.9563 28.9622 16.0818C28.9627 16.1615 28.9632 16.2412 28.9637 16.3233C28.9647 16.3961 28.9656 16.4689 28.9665 16.5439C28.9215 16.8593 28.7871 17.0477 28.5368 17.2409C28.3536 17.3216 28.2291 17.334 28.0297 17.3307C27.9658 17.3301 27.902 17.3295 27.8362 17.3288C27.7702 17.3273 27.7043 17.3257 27.6363 17.3241C27.5692 17.3232 27.502 17.3224 27.4329 17.3215C27.2676 17.3193 27.1024 17.3162 26.9371 17.3124C26.9381 17.3498 26.9391 17.3873 26.9401 17.4259C26.944 17.5977 26.9464 17.7695 26.9488 17.9413C26.9504 18.0002 26.952 18.0591 26.9536 18.1199C26.9574 18.4845 26.9359 18.7451 26.7496 19.0624C26.5729 19.2395 26.473 19.3071 26.223 19.3437C26.1028 19.3435 26.1028 19.3435 25.9801 19.3434C25.9153 19.3435 25.9153 19.3435 25.8492 19.3436C25.7582 19.3435 25.6672 19.3428 25.5762 19.3415C25.4375 19.3397 25.299 19.3402 25.1603 19.341C24.6102 19.3543 24.6102 19.3543 24.1246 19.1249C23.8738 18.7842 23.9157 18.4118 23.9254 18.0077C23.9263 17.9408 23.9271 17.8739 23.928 17.805C23.9302 17.6408 23.9333 17.4766 23.9371 17.3124C23.8955 17.3133 23.854 17.3143 23.8111 17.3153C23.6214 17.3192 23.4316 17.3217 23.2418 17.3241C23.1764 17.3256 23.111 17.3272 23.0436 17.3288C22.5557 17.3359 22.5557 17.3359 22.1246 17.1249C21.8585 16.7711 21.9045 16.3771 21.9058 15.9549C21.9059 15.8168 21.9033 15.679 21.9005 15.541C21.9002 15.4525 21.9 15.364 21.9 15.2755C21.8996 15.1957 21.8991 15.1158 21.8987 15.0336C21.9492 14.7427 22.0424 14.6442 22.2496 14.4374C22.5804 14.2656 22.9406 14.2981 23.3043 14.3045C23.3652 14.3051 23.4261 14.3057 23.4889 14.3063C23.6383 14.3077 23.7877 14.3098 23.9371 14.3124C23.9358 14.2708 23.9345 14.2292 23.9332 14.1864C23.9279 13.9966 23.9247 13.8068 23.9215 13.617C23.9194 13.5516 23.9173 13.4862 23.9152 13.4188C23.9104 13.0406 23.9153 12.7893 24.1871 12.4999C24.5606 12.2279 24.9532 12.2826 25.3981 12.285C25.4794 12.2838 25.5608 12.2825 25.6446 12.2812C26.0843 12.2815 26.3994 12.2833 26.7496 12.5624ZM13.0621 12.7499C13.147 12.9195 13.134 13.0546 13.1357 13.2445C13.1365 13.3222 13.1373 13.3998 13.1381 13.4797C13.1386 13.5649 13.1391 13.6501 13.1395 13.7352C13.1398 13.7781 13.14 13.8209 13.1403 13.8651C13.1416 14.092 13.1425 14.319 13.1431 14.546C13.1438 14.78 13.1459 15.0139 13.1484 15.2479C13.15 15.4281 13.1506 15.6084 13.1508 15.7887C13.1511 15.8749 13.1518 15.9611 13.153 16.0473C13.1767 16.5656 13.1767 16.5656 13.0214 17.0479C12.7002 17.3531 12.3114 17.3307 11.894 17.3295C11.8341 17.3298 11.7742 17.3302 11.7125 17.3305C11.5152 17.3314 11.3178 17.3313 11.1205 17.3312C10.983 17.3314 10.8456 17.3317 10.7082 17.332C10.4204 17.3324 10.1327 17.3324 9.84492 17.3321C9.47614 17.3317 9.10739 17.3328 8.73861 17.3342C8.45492 17.3352 8.17124 17.3352 7.88755 17.335C7.75157 17.335 7.61559 17.3354 7.47961 17.336C7.28961 17.3368 7.09965 17.3364 6.90965 17.3356C6.82543 17.3363 6.82543 17.3363 6.73951 17.3371C6.41251 17.3343 6.18014 17.3054 5.93713 17.0624C5.94797 16.6784 6.08308 16.4871 6.34777 16.2282C6.38406 16.1912 6.42035 16.1543 6.45774 16.1162C6.57755 15.9948 6.69868 15.8747 6.81994 15.7547C6.90404 15.6704 6.98808 15.586 7.07206 15.5015C7.24821 15.3248 7.42502 15.1488 7.60232 14.9733C7.82882 14.7489 8.0536 14.5229 8.2779 14.2964C8.45117 14.1217 8.62532 13.948 8.79975 13.7746C8.88295 13.6916 8.96587 13.6084 9.04851 13.5249C9.16455 13.4079 9.28173 13.2922 9.39929 13.1767C9.43282 13.1424 9.46634 13.1081 9.50089 13.0728C9.90937 12.6775 10.3862 12.5955 10.9381 12.6022C10.9893 12.6021 11.0405 12.6021 11.0932 12.6021C11.2003 12.6022 11.3075 12.6028 11.4146 12.6038C11.5782 12.6053 11.7418 12.6051 11.9054 12.6047C12.01 12.6051 12.1147 12.6055 12.2194 12.6061C12.2679 12.606 12.3165 12.6059 12.3665 12.6059C12.6238 12.6092 12.8339 12.6257 13.0621 12.7499ZM27.2496 24.4374C27.6017 24.8969 27.772 25.3804 27.7418 25.963C27.6588 26.4533 27.3942 26.9082 27.0035 27.2147C26.5337 27.5303 26.0686 27.6758 25.5074 27.5897C24.9859 27.4685 24.5587 27.2007 24.2611 26.753C23.9912 26.2855 23.9394 25.8523 23.9996 25.3124C24.059 25.1077 24.1425 24.9335 24.2496 24.7499C24.2844 24.6841 24.3192 24.6184 24.3551 24.5506C24.6776 24.1584 25.1232 23.9091 25.6295 23.8539C26.2675 23.846 26.7948 23.9619 27.2496 24.4374ZM7.31213 24.4374C7.6505 24.8864 7.83194 25.3431 7.80432 25.9103C7.72652 26.4281 7.47944 26.8896 7.06603 27.2147C6.59621 27.5303 6.13114 27.6758 5.56994 27.5897C5.04842 27.4685 4.62122 27.2007 4.3236 26.753C4.03052 26.2452 3.95764 25.7078 4.10974 25.1322C4.31403 24.5912 4.62092 24.2778 5.12463 23.9999C5.88327 23.6982 6.74246 23.8418 7.31213 24.4374Z" fill="#3D3D3D"/>
<path d="M12.0628 2.81261C11.8252 2.93792 11.7117 3.02679 11.5628 3.25011C11.4871 3.51972 11.4892 3.7919 11.4876 4.06994C11.4873 4.1184 11.4869 4.16686 11.4865 4.21679C11.486 4.31901 11.4855 4.42123 11.4853 4.52346C11.4847 4.67886 11.4828 4.83422 11.4808 4.98961C11.4804 5.0893 11.48 5.18899 11.4798 5.28869C11.479 5.33466 11.4783 5.38064 11.4775 5.42801C11.4791 5.80881 11.5618 6.10047 11.8128 6.39855C12.0472 6.589 12.2707 6.58737 12.5628 6.56261C12.8405 6.41843 12.9957 6.28387 13.1253 6.00011C13.1525 5.79752 13.1516 5.59685 13.1502 5.39269C13.1504 5.33422 13.1506 5.27575 13.1508 5.21551C13.1509 5.09217 13.1505 4.96882 13.1498 4.84548C13.1488 4.657 13.1498 4.46861 13.1509 4.28014C13.1508 4.1601 13.1506 4.04007 13.1502 3.92003C13.1506 3.86384 13.151 3.80765 13.1514 3.74975C13.148 3.44838 13.1338 3.24463 12.9378 3.00011C12.675 2.77599 12.3937 2.75902 12.0628 2.81261Z" fill="#3D3D3D"/>
<path d="M6.81215 4.31272C6.60561 4.47289 6.51946 4.5658 6.43715 4.81272C6.40429 5.21364 6.44699 5.35373 6.68715 5.68772C6.79574 5.80672 6.90746 5.92293 7.02162 6.03659C7.05288 6.06782 7.08414 6.09905 7.11634 6.13122C7.18185 6.19655 7.24751 6.26172 7.31331 6.32674C7.4142 6.42648 7.51458 6.52672 7.61489 6.62705C8.1875 7.19691 8.1875 7.19691 8.54653 7.20725C8.84944 7.20418 9.01928 7.14505 9.24965 6.93772C9.41047 6.66968 9.425 6.42981 9.37465 6.12522C9.14003 5.69841 8.74736 5.35207 8.4059 5.01194C8.3541 4.95912 8.30229 4.90631 8.24892 4.8519C7.8014 4.40402 7.45939 4.13365 6.81215 4.31272Z" fill="#3D3D3D"/>
<path d="M16.688 4.31268C16.5706 4.39468 16.5706 4.39468 16.4563 4.49969C16.4132 4.5391 16.3702 4.57851 16.3258 4.61912C16.0816 4.85134 15.8404 5.08619 15.6021 5.32439C15.5517 5.37398 15.5013 5.42357 15.4495 5.47466C15.4014 5.52264 15.3533 5.57062 15.3037 5.62005C15.2604 5.66309 15.2171 5.70612 15.1725 5.75047C14.9376 6.0179 14.9077 6.24774 14.9133 6.59515C14.9535 6.84763 15.0654 6.95331 15.2505 7.12518C15.4005 7.2002 15.5049 7.20239 15.6724 7.20721C15.7249 7.20954 15.7774 7.21188 15.8315 7.21429C16.307 7.13939 16.6585 6.67588 16.9844 6.34852C17.0787 6.25399 17.1738 6.16034 17.269 6.0667C17.3296 6.00625 17.3902 5.94574 17.4507 5.88519C17.5052 5.83081 17.5598 5.77643 17.616 5.72041C17.7808 5.52716 17.8697 5.36243 17.8828 5.1076C17.8487 4.79537 17.8043 4.59639 17.563 4.37518C17.2847 4.20024 16.9937 4.22303 16.688 4.31268Z" fill="#3D3D3D"/>
</g>
<defs>
<clipPath id="clip0_6_604">
<rect width="32" height="32" fill="white" transform="matrix(-1 0 0 1 32 0)"/>
</clipPath>
</defs>
</svg>
