<svg width="64" height="64" viewBox="0 0 64 64" fill="none" xmlns="http://www.w3.org/2000/svg">
<circle cx="32" cy="32" r="32" fill="url(#paint0_linear_6_540)"/>
<circle cx="32" cy="32" r="28" fill="white"/>
<path d="M39.2735 21.0157C39.3473 21.0774 39.4212 21.1391 39.4973 21.2027C40.3818 21.9659 41.0382 22.8773 41.5743 23.9102C41.6092 23.977 41.6441 24.0437 41.6801 24.1126C41.8758 24.5138 42.0163 24.9263 42.1448 25.3528C42.1599 25.4024 42.1749 25.4519 42.1904 25.5029C42.838 27.7559 42.5144 30.1886 41.4107 32.2378C40.1354 34.4932 38.0973 35.9118 35.6368 36.6016C35.3392 36.6752 35.0512 36.722 34.7461 36.75C34.654 36.7598 34.5619 36.7696 34.4669 36.7796C32.2197 36.9848 29.8775 36.3615 28.0943 34.9549C26.5513 33.6187 25.5122 32.1115 24.9493 30.1446C24.9112 30.0189 24.9112 30.0189 24.8724 29.8906C24.3127 27.6724 24.7915 25.1965 25.9373 23.2469C26.271 22.7046 26.6728 22.2267 27.1016 21.7578C27.1557 21.6977 27.2097 21.6375 27.2654 21.5755C30.3735 18.2829 35.8651 18.1675 39.2735 21.0157Z" fill="#FEE076"/>
<path d="M27.172 37.0986C27.3372 37.1425 27.5023 37.1864 27.6676 37.2302C28.0125 37.3219 28.3573 37.4145 28.7019 37.5076C29.1422 37.6265 29.583 37.7432 30.024 37.8594C30.3648 37.9494 30.7053 38.0406 31.0457 38.1322C31.2081 38.1757 31.3706 38.2188 31.5332 38.2616C31.7608 38.3216 31.9879 38.3832 32.215 38.4453C32.2813 38.4624 32.3476 38.4795 32.4159 38.4972C32.9674 38.6509 33.4397 38.8973 33.8137 39.3385C34.0747 39.8606 34.143 40.3382 34.0039 40.9063C33.8223 41.3226 33.5576 41.6143 33.1875 41.8712C32.937 41.9686 32.937 41.9686 32.7422 42.0196C33.0027 42.1499 33.2806 42.0768 33.5586 42.0196C33.7682 41.9412 33.9581 41.8382 34.1523 41.7274C34.2067 41.6975 34.2611 41.6675 34.3171 41.6367C34.7915 41.3736 35.2588 41.0982 35.7248 40.8208C36.1493 40.5687 36.5772 40.3224 37.0051 40.076C37.1283 40.005 37.1283 40.005 37.254 39.9326C37.4225 39.8355 37.5911 39.7384 37.7597 39.6413C38.0856 39.4536 38.4114 39.2656 38.7372 39.0777C38.8961 38.9859 39.0551 38.8942 39.2142 38.8026C39.5908 38.5855 39.9673 38.368 40.3431 38.1494C40.5205 38.0463 40.698 37.9433 40.8755 37.8404C41.0006 37.7677 41.1255 37.6948 41.2505 37.6219C41.3264 37.5779 41.4023 37.5339 41.4805 37.4885C41.5805 37.4303 41.5805 37.4303 41.6824 37.371C42.2549 37.0634 42.8681 36.9976 43.4984 37.1861C44.0214 37.4274 44.4501 37.817 44.656 38.3678C44.7911 38.9923 44.748 39.5775 44.4522 40.1433C44.0316 40.6831 43.4381 40.9824 42.8498 41.3099C42.7572 41.3621 42.6646 41.4143 42.572 41.4666C42.3818 41.574 42.1915 41.6812 42.0011 41.7882C41.5817 42.0245 41.1651 42.2656 40.7485 42.5067C40.5892 42.5987 40.43 42.6907 40.2707 42.7827C40.1921 42.8281 40.1134 42.8736 40.0324 42.9204C39.7903 43.0602 39.5481 43.1998 39.3059 43.3393C38.4575 43.8281 37.6106 44.3191 36.7656 44.8134C36.0856 45.2105 35.4019 45.601 34.7174 45.99C34.341 46.2043 33.9668 46.4202 33.598 46.6473C33.3516 46.7959 33.1255 46.9125 32.8442 46.983C32.7509 47.008 32.7509 47.008 32.6558 47.0334C32.1467 47.1134 31.7035 47.0527 31.2105 46.9282C31.1453 46.9122 31.08 46.8962 31.0128 46.8797C29.8955 46.6012 28.7855 46.293 27.6746 45.9905C27.1769 45.855 26.6792 45.72 26.1814 45.585C26.0094 45.5383 25.8374 45.4915 25.6654 45.4446C25.5595 45.4158 25.4535 45.387 25.3476 45.3583C25.256 45.3333 25.1645 45.3084 25.0702 45.2827C24.4709 45.1086 24.4709 45.1086 23.8545 45.044C23.8013 45.0437 23.7481 45.0433 23.6933 45.0429C23.5174 45.0654 23.3955 45.124 23.2422 45.211C23.2842 45.2845 23.3262 45.358 23.3694 45.4337C23.4245 45.5326 23.4795 45.6316 23.5344 45.7306C23.5621 45.7787 23.5898 45.8268 23.6183 45.8764C23.8393 46.2785 23.952 46.6406 23.8817 47.1065C23.8635 47.1576 23.8454 47.2087 23.8266 47.2613C23.8096 47.3128 23.7926 47.3643 23.775 47.4173C23.4607 48.0231 22.9563 48.2662 22.3747 48.588C22.2059 48.683 22.037 48.7781 21.8682 48.8733C21.7869 48.9187 21.7056 48.9642 21.6218 49.0111C21.3437 49.1691 21.0702 49.3339 20.7979 49.5017C20.3567 49.7555 19.9417 49.7825 19.457 49.6642C18.9395 49.4588 18.6748 49.0747 18.4072 48.6057C18.3637 48.5298 18.3201 48.4538 18.2753 48.3756C18.229 48.2942 18.1827 48.2127 18.135 48.1288C18.0856 48.0425 18.0362 47.9562 17.9868 47.87C17.8843 47.691 17.7819 47.512 17.6796 47.3328C17.4447 46.9216 17.2076 46.5117 16.9707 46.1017C16.8782 45.9413 16.7857 45.781 16.6932 45.6207C16.5049 45.2942 16.3164 44.9677 16.1279 44.6413C15.6825 43.8701 15.2376 43.0986 14.7951 42.3258C14.7582 42.2614 14.7212 42.1969 14.6832 42.1306C14.6492 42.0712 14.6153 42.0118 14.5803 41.9506C14.5509 41.8992 14.5214 41.8477 14.4911 41.7947C14.24 41.3413 14.1963 40.9816 14.2617 40.461C14.486 39.8863 14.9487 39.5911 15.4686 39.2947C15.5344 39.2571 15.5344 39.2571 15.6015 39.2188C15.6939 39.166 15.7864 39.1135 15.879 39.061C16.0183 38.9821 16.1572 38.9027 16.2962 38.8231C17.9214 37.8959 17.9214 37.8959 18.4922 38.0118C19.0828 38.1854 19.3596 38.497 19.6663 39.0193C19.7539 39.1993 19.7539 39.1993 19.7539 39.3477C19.8022 39.3199 19.8506 39.292 19.9004 39.2632C19.969 39.2237 20.0375 39.1841 20.1082 39.1434C20.1854 39.0988 20.2626 39.0543 20.3421 39.0084C20.5145 38.9089 20.6869 38.8095 20.8593 38.7101C21.268 38.4745 21.6766 38.2387 22.0845 38.0017C22.214 37.9264 22.3436 37.8513 22.4732 37.7761C22.6354 37.682 22.7976 37.5877 22.9596 37.4933C24.5568 36.5679 25.4228 36.6259 27.172 37.0986Z" fill="#FECABD"/>
<path d="M18.8679 38.137C19.3573 38.4049 19.5763 38.8721 19.8281 39.3477C19.8643 39.4129 19.9004 39.478 19.9377 39.5451C20.0092 39.6745 20.0799 39.8043 20.1499 39.9345C20.7153 40.9856 21.3136 42.0171 21.9174 43.0466C22.0577 43.2865 22.1972 43.5269 22.3365 43.7675C22.3825 43.8469 22.4285 43.9263 22.476 44.0081C22.5634 44.159 22.6508 44.3099 22.7379 44.461C22.9605 44.8443 23.1913 45.2181 23.4418 45.5838C23.7508 46.0501 23.9871 46.5184 23.8774 47.0882C23.6378 47.9054 23.0883 48.1931 22.3747 48.5879C22.2059 48.683 22.037 48.7781 21.8682 48.8732C21.7869 48.9187 21.7056 48.9642 21.6218 49.0111C21.3437 49.169 21.0702 49.3338 20.7979 49.5016C20.3567 49.7555 19.9417 49.7825 19.457 49.6641C18.9395 49.4587 18.6748 49.0747 18.4072 48.6056C18.3637 48.5297 18.3201 48.4538 18.2753 48.3756C18.229 48.2941 18.1827 48.2126 18.135 48.1287C18.0856 48.0424 18.0362 47.9562 17.9868 47.87C17.8843 47.691 17.7819 47.5119 17.6796 47.3328C17.4447 46.9216 17.2076 46.5117 16.9707 46.1016C16.8782 45.9413 16.7857 45.781 16.6932 45.6206C16.5049 45.2941 16.3164 44.9677 16.1279 44.6413C15.6825 43.8701 15.2376 43.0986 14.7951 42.3257C14.7582 42.2613 14.7212 42.1969 14.6832 42.1305C14.6492 42.0711 14.6153 42.0118 14.5803 41.9506C14.5509 41.8991 14.5214 41.8477 14.4911 41.7946C14.24 41.3413 14.1963 40.9816 14.2617 40.461C14.486 39.8863 14.9487 39.5911 15.4686 39.2947C15.5125 39.2696 15.5563 39.2445 15.6015 39.2187C15.6939 39.166 15.7864 39.1134 15.879 39.061C16.0183 38.9821 16.1572 38.9026 16.2962 38.8231C18.0592 37.8172 18.0592 37.8172 18.8679 38.137Z" fill="#A69AA6"/>
<path d="M43.3185 14.0006C43.3794 14.0001 43.4403 13.9995 43.503 13.999C43.7029 13.9977 43.9027 13.9986 44.1025 13.9996C44.2422 13.9994 44.3818 13.9991 44.5214 13.9987C44.8135 13.9983 45.1055 13.9989 45.3975 14.0003C45.7713 14.002 46.145 14.001 46.5188 13.9992C46.8069 13.9982 47.095 13.9985 47.3831 13.9993C47.5209 13.9995 47.6587 13.9992 47.7965 13.9985C47.9893 13.9978 48.1819 13.9989 48.3746 14.0006C48.4312 14 48.4878 13.9994 48.5461 13.9988C48.9295 14.0048 49.1454 14.0952 49.4414 14.3359C49.7436 14.6789 49.8217 14.8541 49.8256 15.308C49.827 15.4507 49.827 15.4507 49.8285 15.5963C49.8291 15.7007 49.8296 15.8051 49.8301 15.9095C49.8304 15.9621 49.8307 16.0146 49.8311 16.0687C49.8326 16.3469 49.8337 16.6251 49.8344 16.9033C49.8352 17.1901 49.8377 17.4769 49.8407 17.7637C49.8426 17.9847 49.8433 18.2056 49.8435 18.4266C49.8439 18.5323 49.8447 18.638 49.8461 18.7436C49.8479 18.8919 49.8477 19.0403 49.8473 19.1886C49.8478 19.2728 49.8482 19.3571 49.8487 19.4439C49.7912 19.8182 49.6015 20.0474 49.3254 20.2966C49.0152 20.5113 48.7451 20.504 48.3826 20.5012C48.2741 20.5019 48.1655 20.5027 48.057 20.5036C47.8866 20.5048 47.7164 20.5053 47.546 20.5034C46.8988 20.4778 46.8988 20.4778 46.3 20.6719C46.1702 20.8037 46.0638 20.9419 45.9531 21.0898C45.8582 21.1775 45.761 21.2629 45.662 21.3461C45.2942 21.6635 44.9433 21.9981 44.5911 22.3326C44.5411 22.3798 44.4912 22.427 44.4397 22.4756C44.3953 22.5177 44.3509 22.5599 44.3051 22.6034C43.9229 22.9452 43.9229 22.9452 43.7265 22.9452C43.7265 22.137 43.7265 21.3288 43.7265 20.496C43.4081 20.496 43.0897 20.496 42.7617 20.496C42.3672 20.3692 42.186 20.1514 41.9453 19.8281C41.843 19.6235 41.8599 19.4571 41.8579 19.2282C41.857 19.1333 41.856 19.0384 41.855 18.9406C41.8544 18.8364 41.8539 18.7323 41.8534 18.6281C41.8531 18.5756 41.8528 18.5232 41.8525 18.4692C41.8509 18.1914 41.8498 17.9136 41.8491 17.6358C41.8483 17.3497 41.8458 17.0635 41.8428 16.7774C41.8409 16.5567 41.8403 16.3361 41.84 16.1155C41.8396 16.0101 41.8388 15.9046 41.8374 15.7992C41.8244 14.7382 41.8244 14.7382 42.1679 14.3359C42.5642 14.0635 42.8433 13.9955 43.3185 14.0006Z" fill="#F04B4E"/>
<path d="M18.8263 14.0006C18.8872 14.0001 18.9481 13.9995 19.0108 13.999C19.2107 13.9977 19.4105 13.9986 19.6104 13.9996C19.75 13.9994 19.8896 13.9991 20.0293 13.9987C20.3213 13.9983 20.6133 13.9989 20.9053 14.0003C21.2791 14.002 21.6528 14.001 22.0266 13.9992C22.3147 13.9982 22.6028 13.9985 22.8909 13.9993C23.0287 13.9995 23.1665 13.9992 23.3043 13.9985C23.4971 13.9978 23.6897 13.9989 23.8824 14.0006C23.939 14 23.9956 13.9994 24.0539 13.9988C24.4373 14.0048 24.6532 14.0952 24.9492 14.3359C25.2514 14.6789 25.3295 14.8541 25.3334 15.308C25.3348 15.4507 25.3348 15.4507 25.3363 15.5963C25.3369 15.7007 25.3375 15.8051 25.338 15.9095C25.3383 15.9621 25.3386 16.0146 25.3389 16.0687C25.3404 16.3469 25.3415 16.6251 25.3422 16.9033C25.343 17.1901 25.3456 17.4769 25.3485 17.7637C25.3504 17.9847 25.3511 18.2056 25.3513 18.4266C25.3517 18.5323 25.3526 18.638 25.3539 18.7436C25.3557 18.8919 25.3555 19.0403 25.3552 19.1886C25.3556 19.2728 25.356 19.3571 25.3565 19.4439C25.299 19.8182 25.1093 20.0474 24.8332 20.2966C24.3517 20.6299 24.0865 20.496 23.3906 20.496C23.3906 21.3043 23.3906 22.1125 23.3906 22.9452C23.1143 22.8071 22.9865 22.7036 22.7783 22.486C22.5303 22.2324 22.2813 21.9926 22.0051 21.7702C21.8582 21.6337 21.7526 21.5077 21.6334 21.3487C21.2912 20.9271 20.9874 20.6183 20.4354 20.5196C19.9984 20.4778 19.5617 20.4782 19.1232 20.4891C19.0705 20.4903 19.0178 20.4916 18.9635 20.4928C18.818 20.4972 18.6726 20.5043 18.5272 20.5116C18.1923 20.4914 17.9481 20.3891 17.7021 20.1594C17.4383 19.8144 17.3695 19.6604 17.3657 19.2282C17.3648 19.1333 17.3638 19.0384 17.3628 18.9406C17.3622 18.8364 17.3617 18.7323 17.3612 18.6281C17.3609 18.5756 17.3606 18.5232 17.3603 18.4692C17.3587 18.1914 17.3577 17.9136 17.357 17.6358C17.3561 17.3497 17.3536 17.0635 17.3506 16.7774C17.3487 16.5567 17.3481 16.3361 17.3478 16.1155C17.3474 16.0101 17.3466 15.9046 17.3452 15.7992C17.3322 14.7382 17.3322 14.7382 17.6757 14.3359C18.072 14.0635 18.3511 13.9955 18.8263 14.0006Z" fill="#45DDA6"/>
<path d="M32.5937 22.5743C33.1729 22.949 33.5711 23.5539 33.7812 24.2071C33.7992 24.3998 33.8094 24.5806 33.8091 24.7731C33.8091 24.8514 33.8091 24.8514 33.8092 24.9313C33.7983 25.4517 33.6366 25.8772 33.4224 26.3469C33.3913 26.5223 33.3913 26.5223 33.5393 26.6817C33.604 26.7456 33.6688 26.8096 33.7355 26.8755C33.771 26.911 33.8065 26.9465 33.843 26.9831C33.9606 27.1004 34.0795 27.2164 34.1984 27.3324C34.2801 27.4135 34.3618 27.4946 34.4433 27.5758C34.6584 27.7894 34.8745 28.0019 35.0909 28.2141C35.3114 28.4309 35.5309 28.6487 35.7505 28.8664C36.1816 29.2935 36.6139 29.7194 37.0469 30.1446C36.6863 30.5711 36.3109 30.9782 35.9193 31.3765C35.8487 31.4486 35.7786 31.5212 35.7091 31.5943C35.1141 32.2185 34.4426 32.7657 33.551 32.8342C32.691 32.8523 32.0424 32.6682 31.4062 32.0743C30.8092 31.4389 30.6242 30.8563 30.6332 29.9924C30.6661 29.1328 31.0387 28.6593 31.6289 28.0665C31.6677 28.0271 31.7066 27.9878 31.7466 27.9472C32.0023 27.6881 32.2601 27.4313 32.5195 27.1759C32.4756 27.1965 32.4317 27.217 32.3864 27.2382C31.5915 27.6026 30.9013 27.6593 30.0674 27.3527C29.325 27.006 28.8803 26.4555 28.5761 25.7075C28.4065 25.079 28.3959 24.2595 28.7152 23.6812C28.7614 23.6109 28.7614 23.6109 28.8086 23.5392C28.8409 23.4877 28.8732 23.4362 28.9066 23.3832C29.773 22.1191 31.2656 21.8719 32.5937 22.5743Z" fill="#E7EBF8"/>
<path d="M38.6982 24.2534C39.2862 24.7327 39.6575 25.387 39.7445 26.1364C39.7819 26.9344 39.5819 27.5931 39.0507 28.1925C38.664 28.6094 38.2625 29.0114 37.8586 29.4116C37.7865 29.4833 37.7145 29.555 37.6425 29.6267C37.4688 29.7995 37.295 29.9721 37.121 30.1445C36.8514 30.0304 36.6765 29.8685 36.4691 29.6637C36.4349 29.6302 36.4007 29.5966 36.3655 29.562C36.2531 29.4514 36.1413 29.3402 36.0295 29.229C35.9515 29.1517 35.8736 29.0744 35.7956 28.9971C35.6326 28.8353 35.4699 28.6732 35.3073 28.5108C35.0987 28.3026 34.8889 28.0957 34.6788 27.8889C34.5176 27.7299 34.3572 27.57 34.197 27.4099C34.1199 27.3332 34.0426 27.2568 33.965 27.1807C33.8568 27.0745 33.7498 26.9669 33.643 26.8594C33.5817 26.7985 33.5205 26.7376 33.4574 26.6749C33.3359 26.5078 33.3359 26.5078 33.3399 26.342C33.4101 26.2109 33.4101 26.2109 33.6328 26.1367C33.6843 26.0388 33.7334 25.9397 33.7812 25.8398C33.9792 25.6102 34.1972 25.3997 34.4121 25.1858C34.4689 25.1278 34.5257 25.0697 34.5843 25.01C35.7569 23.8363 37.1754 23.2285 38.6982 24.2534Z" fill="#F75647"/>
<path d="M32.668 19.0118C35.1393 18.9537 37.3278 19.3899 39.2734 21.0157C39.3473 21.0774 39.4212 21.1391 39.4973 21.2027C40.3817 21.966 41.0382 22.8774 41.5742 23.9103C41.6091 23.977 41.6441 24.0438 41.68 24.1126C41.8758 24.5138 42.0163 24.9264 42.1448 25.3529C42.1598 25.4024 42.1749 25.452 42.1903 25.503C42.8379 27.7559 42.5144 30.1887 41.4107 32.2378C40.1354 34.4933 38.0973 35.9119 35.6367 36.6017C34.888 36.7869 33.8692 36.9468 33.1133 36.7501C33.1133 36.7256 33.1133 36.7011 33.1133 36.6759C33.1612 36.6748 33.2091 36.6738 33.2585 36.6727C35.3729 36.5657 37.2748 35.5427 38.7539 34.0782C38.8039 34.0327 38.854 33.9872 38.9055 33.9402C40.386 32.5716 41.2059 30.3009 41.3008 28.3254C41.3284 27.3854 41.2235 26.5238 40.9805 25.6173C40.959 25.5315 40.9376 25.4457 40.9155 25.3572C40.3137 23.1674 38.7394 21.2898 36.7841 20.176C35.7331 19.6039 34.6009 19.2512 33.4102 19.151C33.3027 19.1414 33.3027 19.1414 33.193 19.1316C33.018 19.116 32.843 19.1008 32.668 19.086C32.668 19.0616 32.668 19.0371 32.668 19.0118Z" fill="#FECA5C"/>
<path d="M18.8679 38.1369C19.3573 38.4047 19.5763 38.872 19.8281 39.3476C19.8643 39.4127 19.9005 39.4779 19.9377 39.545C20.0093 39.6743 20.08 39.8041 20.1499 39.9344C20.7153 40.9855 21.3136 42.017 21.9174 43.0464C22.0577 43.2864 22.1972 43.5268 22.3365 43.7673C22.3825 43.8467 22.4286 43.9261 22.476 44.0079C22.5635 44.1588 22.6508 44.3098 22.7379 44.4609C22.9606 44.8442 23.1914 45.2179 23.4418 45.5837C23.7508 46.05 23.9871 46.5182 23.8774 47.0881C23.6653 47.8115 23.2543 48.0927 22.6221 48.4599C22.5573 48.4899 22.4925 48.5198 22.4258 48.5507C22.3768 48.5262 22.3278 48.5017 22.2773 48.4765C22.3716 48.3677 22.4658 48.259 22.56 48.1503C22.8183 47.8022 22.7793 47.3258 22.7227 46.9179C22.585 46.5706 22.3952 46.26 22.1985 45.9437C22.1441 45.8531 22.0899 45.7622 22.0359 45.6713C21.9247 45.4846 21.8127 45.2986 21.6999 45.1129C21.4488 44.6984 21.2098 44.277 20.9692 43.8563C20.5737 43.1704 20.1759 42.4857 19.7752 41.8027C19.5678 41.4486 19.3622 41.0937 19.1614 40.7359C19.0619 40.5586 18.9617 40.3817 18.8616 40.2047C18.791 40.0792 18.7213 39.9532 18.6516 39.8272C18.2651 39.1408 18.2651 39.1408 17.6016 38.7538C17.4488 38.7372 17.2956 38.7236 17.1423 38.7121C17.0617 38.7058 16.981 38.6996 16.8979 38.6932C16.8362 38.6887 16.7745 38.6842 16.7109 38.6796C17.2721 38.044 18.0959 37.8337 18.8679 38.1369Z" fill="#847683"/>
<path d="M27.0273 37.1212C26.8498 37.3175 26.6609 37.4372 26.4312 37.5673C26.3552 37.6107 26.2792 37.6541 26.2009 37.6988C26.1185 37.7455 26.036 37.7921 25.9511 37.8402C25.7747 37.9407 25.5985 38.0416 25.4223 38.1425C25.3543 38.1814 25.3543 38.1814 25.285 38.2211C24.8113 38.4926 24.3421 38.7714 23.873 39.0509C23.2252 39.436 22.5761 39.8187 21.9238 40.1962C21.7975 40.2693 21.6713 40.3426 21.5451 40.4159C21.4311 40.4817 21.4311 40.4817 21.3148 40.5489C21.2144 40.6069 21.2144 40.6069 21.112 40.6661C20.9414 40.7579 20.9414 40.7579 20.7187 40.8321C20.6942 40.8811 20.6697 40.9301 20.6445 40.9805C20.5054 40.7526 20.3683 40.5234 20.2316 40.294C20.1723 40.1969 20.1723 40.1969 20.1118 40.0977C20.0747 40.0351 20.0376 39.9724 19.9994 39.9078C19.9475 39.8216 19.9475 39.8216 19.8946 39.7335C19.8281 39.5704 19.8281 39.5704 19.8339 39.4144C19.9291 39.2183 20.0421 39.1629 20.2313 39.0564C20.3016 39.0161 20.3719 38.9759 20.4443 38.9344C20.521 38.8917 20.5978 38.849 20.6769 38.805C20.8394 38.7126 21.0019 38.6202 21.1643 38.5278C21.2918 38.456 21.2918 38.456 21.4218 38.3827C21.6842 38.2346 21.9448 38.0835 22.2051 37.9318C22.2909 37.8818 22.3767 37.8319 22.4626 37.782C22.6258 37.687 22.7889 37.592 22.9521 37.497C24.4899 36.6076 25.3395 36.5861 27.0273 37.1212Z" fill="#F9BEAF"/>
<path d="M31.1093 22.2031C31.1093 23.9421 31.1093 25.681 31.1093 27.4727C30.2592 27.4727 29.7136 27.2587 29.1054 26.6562C28.5365 25.8892 28.4191 25.1374 28.5117 24.207C28.5735 23.9526 28.6653 23.7571 28.8086 23.5391C28.8409 23.4876 28.8732 23.4361 28.9066 23.3831C29.4344 22.613 30.1802 22.2031 31.1093 22.2031Z" fill="#6AC8EA"/>
<path d="M27.254 39.4429C27.3518 39.4687 27.3518 39.4687 27.4517 39.4949C27.6661 39.5513 27.8803 39.6082 28.0946 39.665C28.2442 39.7045 28.3938 39.744 28.5434 39.7835C28.8565 39.8661 29.1695 39.9489 29.4824 40.0318C29.883 40.138 30.2838 40.2438 30.6845 40.3495C30.9933 40.431 31.302 40.5126 31.6108 40.5942C31.7585 40.6333 31.9062 40.6723 32.054 40.7113C32.2606 40.7659 32.4672 40.8206 32.6737 40.8754C32.7344 40.8914 32.7952 40.9074 32.8578 40.9239C33.1696 41.0069 33.4763 41.097 33.7813 41.203C33.6682 41.5085 33.4513 41.6929 33.1876 41.871C32.6462 42.1129 32.1488 42.0203 31.5997 41.8696C31.5396 41.8537 31.4796 41.8377 31.4177 41.8214C31.2205 41.769 31.0235 41.7156 30.8265 41.6623C30.6182 41.6064 30.41 41.5507 30.2017 41.495C30.0575 41.4565 29.9132 41.4178 29.7691 41.3791C29.2537 41.2411 28.7371 41.1094 28.2195 40.9801C28.0068 40.9264 27.7941 40.8726 27.5814 40.8188C27.4447 40.7844 27.3078 40.7505 27.1708 40.717C26.9792 40.6701 26.788 40.6216 26.5969 40.5728C26.5405 40.5594 26.4841 40.5461 26.426 40.5323C26.0652 40.438 25.8572 40.3162 25.6172 40.0155C25.5755 39.7882 25.5755 39.7882 25.6172 39.5702C26.0733 39.0077 26.643 39.28 27.254 39.4429Z" fill="#FABEAF"/>
<path d="M21.3124 15.106C21.5815 15.162 21.7105 15.2591 21.9062 15.4492C22.0176 15.6721 21.9873 15.879 21.9851 16.1265C21.9844 16.2216 21.9837 16.3167 21.983 16.4146C21.9822 16.4879 21.9813 16.5612 21.9804 16.6367C22.0503 16.6324 22.1201 16.6281 22.1921 16.6237C23.0418 16.5929 23.0418 16.5929 23.3071 16.7944C23.4648 17.0078 23.4648 17.0078 23.5158 17.2305C23.4465 17.5329 23.3371 17.6335 23.0937 17.8242C22.8856 17.8679 22.6882 17.8597 22.4768 17.8474C22.4218 17.8457 22.3668 17.8441 22.3102 17.8423C22.1755 17.838 22.0408 17.8313 21.9062 17.8242C21.9105 17.9056 21.9148 17.9871 21.9192 18.0709C21.9227 18.1789 21.9261 18.2868 21.9294 18.3948C21.9325 18.4483 21.9356 18.5018 21.9388 18.557C21.9459 18.8666 21.9305 18.9798 21.736 19.2358C21.5351 19.3828 21.5351 19.3828 21.2661 19.3828C21.0197 19.3098 20.9443 19.2814 20.7929 19.0859C20.7676 18.9448 20.7676 18.9448 20.7712 18.7882C20.7719 18.732 20.7726 18.6758 20.7733 18.6179C20.7752 18.5596 20.7771 18.5012 20.779 18.4412C20.78 18.382 20.781 18.3228 20.782 18.2618C20.7847 18.116 20.7887 17.9701 20.7929 17.8242C20.7053 17.8285 20.6176 17.8328 20.5274 17.8373C20.4118 17.8407 20.2962 17.8441 20.1806 17.8474C20.1229 17.8505 20.0652 17.8536 20.0058 17.8568C19.5761 17.866 19.5761 17.866 19.3451 17.6511C19.2074 17.4049 19.1765 17.2852 19.2343 17.0078C19.391 16.7959 19.4434 16.7308 19.6796 16.6367C20.0283 16.6061 20.3697 16.6152 20.7187 16.6367C20.7144 16.5669 20.7101 16.497 20.7057 16.4251C20.6749 15.5754 20.6749 15.5754 20.8764 15.3101C21.0898 15.1523 21.0898 15.1523 21.3124 15.106Z" fill="#E4EBF7"/>
<path d="M44.9303 16.5875C45.0027 16.5871 45.0751 16.5868 45.1498 16.5864C45.3025 16.5862 45.4552 16.5868 45.6079 16.5884C45.8411 16.5904 46.0739 16.5884 46.3071 16.586C46.4558 16.5863 46.6045 16.5868 46.7533 16.5875C46.8226 16.5867 46.892 16.586 46.9634 16.5852C47.2887 16.591 47.5175 16.6059 47.7785 16.8115C47.957 17.0079 47.957 17.0079 48.008 17.2305C47.9372 17.5396 47.8401 17.6334 47.5859 17.8243C47.3176 17.8795 47.0539 17.8763 46.7808 17.8736C46.703 17.8739 46.6251 17.8743 46.5449 17.8746C46.3807 17.8749 46.2164 17.8742 46.0521 17.8726C45.8006 17.8707 45.5493 17.8726 45.2977 17.875C45.138 17.8748 44.9783 17.8743 44.8186 17.8736C44.7058 17.8747 44.7058 17.8747 44.5907 17.8758C44.0713 17.8672 44.0713 17.8672 43.8282 17.6496C43.701 17.4039 43.6698 17.2802 43.7265 17.0079C44.0951 16.6016 44.3982 16.5817 44.9303 16.5875Z" fill="#E8E8F4"/>
<path d="M48.4023 14.0391C48.855 14.0078 49.0805 14.0324 49.4414 14.3359C49.7436 14.679 49.8217 14.8542 49.8256 15.3081C49.8266 15.4032 49.8275 15.4984 49.8285 15.5964C49.8291 15.7008 49.8297 15.8052 49.8302 15.9096C49.8305 15.9621 49.8308 16.0147 49.8311 16.0688C49.8327 16.347 49.8337 16.6251 49.8344 16.9033C49.8352 17.1902 49.8378 17.477 49.8407 17.7638C49.8427 17.9847 49.8433 18.2057 49.8436 18.4266C49.8439 18.5323 49.8448 18.638 49.8462 18.7437C49.848 18.892 49.8477 19.0403 49.8474 19.1886C49.848 19.315 49.848 19.315 49.8487 19.444C49.7912 19.8183 49.6015 20.0475 49.3254 20.2966C49.0819 20.4652 48.9003 20.5055 48.6111 20.5007C48.5177 20.4992 48.4243 20.4977 48.3281 20.4961C48.4738 20.399 48.6222 20.306 48.7734 20.2178C49.0281 20.0267 49.099 19.8975 49.2188 19.6055C49.2525 19.3722 49.2525 19.3722 49.2487 19.1259C49.2497 19.0323 49.2506 18.9387 49.2516 18.8422C49.2514 18.741 49.2512 18.6398 49.2509 18.5386C49.2513 18.4338 49.2517 18.329 49.2521 18.2242C49.2528 18.0051 49.2526 17.786 49.2519 17.5669C49.251 17.2869 49.2525 17.0069 49.2547 16.7269C49.256 16.5107 49.256 16.2945 49.2556 16.0782C49.2556 15.975 49.256 15.8718 49.2569 15.7686C49.281 15.0242 49.281 15.0242 48.9219 14.4102C48.7858 14.2998 48.7858 14.2998 48.6436 14.2339C48.564 14.1941 48.4844 14.1543 48.4023 14.1133C48.4023 14.0888 48.4023 14.0643 48.4023 14.0391Z" fill="#CD2B2F"/>
<path d="M23.9102 14.0391C24.3628 14.0078 24.5883 14.0324 24.9492 14.3359C25.2514 14.679 25.3295 14.8542 25.3334 15.3081C25.3344 15.4032 25.3354 15.4984 25.3363 15.5964C25.3369 15.7008 25.3375 15.8052 25.338 15.9096C25.3383 15.9621 25.3386 16.0147 25.3389 16.0688C25.3405 16.347 25.3415 16.6251 25.3422 16.9033C25.343 17.1902 25.3456 17.477 25.3485 17.7638C25.3505 17.9847 25.3511 18.2057 25.3514 18.4266C25.3517 18.5323 25.3526 18.638 25.354 18.7437C25.3558 18.892 25.3555 19.0403 25.3552 19.1886C25.3558 19.315 25.3558 19.315 25.3565 19.444C25.299 19.8183 25.1094 20.0475 24.8333 20.2966C24.5241 20.5106 24.2775 20.503 23.9102 20.4961C23.9722 20.4525 23.9722 20.4525 24.0354 20.408C24.3262 20.1801 24.5903 19.9546 24.7266 19.6055C24.75 19.3867 24.75 19.3867 24.7481 19.1428C24.7491 19.0492 24.75 18.9555 24.751 18.859C24.7512 18.7571 24.7514 18.6551 24.7515 18.5531C24.752 18.4481 24.7525 18.3431 24.753 18.2381C24.7539 18.0181 24.7542 17.7981 24.7541 17.5781C24.7541 17.2969 24.7561 17.0158 24.7586 16.7346C24.7603 16.5178 24.7606 16.3009 24.7605 16.084C24.7607 15.9804 24.7613 15.8768 24.7625 15.7732C24.764 15.6279 24.7633 15.4826 24.7626 15.3373C24.7629 15.2136 24.7629 15.2136 24.7633 15.0873C24.7104 14.7531 24.557 14.507 24.287 14.3017C24.2423 14.2793 24.1975 14.257 24.1514 14.2339C24.0718 14.1941 23.9922 14.1543 23.9102 14.1133C23.9102 14.0888 23.9102 14.0643 23.9102 14.0391Z" fill="#1CBE87"/>
<path d="M36.9727 23.7618C37.6655 23.7095 38.2998 23.9286 38.8394 24.3685C39.4167 24.9385 39.7182 25.5727 39.7559 26.378C39.716 27.7434 38.7662 28.5123 37.8586 29.4117C37.7866 29.4833 37.7145 29.555 37.6425 29.6268C37.4689 29.7995 37.2951 29.9721 37.1211 30.1446C37.0231 30.0956 36.9252 30.0466 36.8242 29.9961C36.9391 29.7169 37.1106 29.5503 37.3287 29.3444C37.4006 29.2751 37.4725 29.2057 37.5444 29.1362C37.6566 29.0286 37.769 28.9213 37.8824 28.8149C38.4853 28.2471 39.0786 27.5801 39.1427 26.714C39.1593 25.8529 39.0095 25.2493 38.4504 24.5761C38.0339 24.146 37.5432 23.9798 36.9727 23.836C36.9727 23.8115 36.9727 23.787 36.9727 23.7618Z" fill="#CE3030"/>
<path d="M31.1094 22.2031C31.8524 22.2031 32.5168 22.4182 33.0602 22.9433C33.6618 23.6545 33.8459 24.338 33.7948 25.2486C33.7277 25.9728 33.3389 26.4739 32.8164 26.9531C32.2054 27.4478 31.51 27.5912 30.7383 27.5469C30.7383 27.5224 30.7383 27.4979 30.7383 27.4727C30.8607 27.4727 30.9832 27.4727 31.1094 27.4727C31.1094 25.7337 31.1094 23.9948 31.1094 22.2031ZM31.1836 22.2773C31.1836 23.9918 31.1836 25.7062 31.1836 27.4727C31.8423 27.2531 32.2072 27.0792 32.668 26.582C32.7185 26.53 32.769 26.4779 32.821 26.4243C33.2646 25.7661 33.3989 24.985 33.2617 24.207C33.0673 23.5279 32.663 22.9648 32.0742 22.5742C31.7788 22.4106 31.5246 22.2773 31.1836 22.2773Z" fill="#D1D5D5"/>
<path d="M17.6016 40.5352C17.7891 40.7337 17.9116 40.9673 18.0469 41.2032C18.1053 41.2955 18.1641 41.3876 18.2232 41.4795C18.2851 41.5775 18.3469 41.6756 18.4087 41.7737C18.4388 41.8204 18.469 41.8671 18.5 41.9152C18.6801 42.209 18.7637 42.4173 18.7149 42.7618C18.5618 42.9798 18.5618 42.9798 18.3438 43.1329C18.0887 43.1607 18.0887 43.1607 17.8243 43.0586C17.6344 42.8607 17.5129 42.6286 17.3789 42.3907C17.3195 42.2938 17.2599 42.1971 17.2001 42.1005C17.1374 41.9963 17.0749 41.892 17.0125 41.7876C16.9817 41.738 16.951 41.6884 16.9193 41.6373C16.7636 41.3682 16.7097 41.2362 16.7217 40.9161C16.7852 40.6836 16.7852 40.6836 16.9058 40.5352C17.1816 40.4191 17.318 40.4374 17.6016 40.5352Z" fill="#CAC2CA"/>
<path d="M36.75 29.9219C36.848 30.0198 36.9459 30.1178 37.0469 30.2188C36.7687 30.508 36.489 30.7957 36.2079 31.0822C36.1128 31.1795 36.0181 31.2772 35.9238 31.3754C35.2108 32.1171 34.5538 32.7646 33.467 32.8158C33.4237 32.816 33.3805 32.8162 33.3359 32.8164C33.5586 32.668 33.5586 32.668 33.7328 32.5975C34.5327 32.2625 35.0631 31.6585 35.6553 31.0444C35.762 30.9355 35.8687 30.8267 35.9756 30.718C36.235 30.4538 36.4929 30.1882 36.75 29.9219Z" fill="#D3D5D5"/>
<path d="M46.4727 20.496C46.1768 20.8619 45.8603 21.174 45.5075 21.4849C45.1836 21.7716 44.8706 22.0703 44.5562 22.3674C43.9414 22.9452 43.9414 22.9452 43.7266 22.9452C43.6895 22.755 43.6895 22.755 43.7266 22.4999C43.8437 22.3631 43.9754 22.26 44.1162 22.1476C44.3829 21.929 44.6311 21.693 44.8816 21.4562C45.0646 21.2834 45.2484 21.1117 45.4336 20.9413C45.4797 20.8983 45.5259 20.8553 45.5735 20.811C45.6184 20.7705 45.6633 20.7299 45.7096 20.6882C45.7494 20.6518 45.7893 20.6155 45.8303 20.578C46.0374 20.4397 46.2347 20.4668 46.4727 20.496Z" fill="#CD2A2D"/>
<path d="M22.9453 20.4961C23.0922 20.4961 23.2392 20.4961 23.3906 20.4961C23.3906 21.3043 23.3906 22.1126 23.3906 22.9453C23.0129 22.7565 23.0129 22.7565 22.8711 22.5C22.8526 22.2823 22.8526 22.2823 22.8656 22.0327C22.8696 21.9432 22.8737 21.8537 22.8779 21.7616C22.8833 21.6685 22.8887 21.5754 22.8943 21.4795C22.8988 21.3853 22.9034 21.291 22.908 21.1939C22.9194 20.9612 22.9319 20.7287 22.9453 20.4961Z" fill="#1ABD86"/>
<path d="M36.9727 23.7616C37.066 23.7601 37.1594 23.7586 37.2556 23.757C37.3081 23.7561 37.3607 23.7553 37.4148 23.7544C37.5664 23.7616 37.5664 23.7616 37.7891 23.8359C37.7646 23.9093 37.7401 23.9828 37.7148 24.0585C37.4699 23.985 37.225 23.9116 36.9727 23.8359C36.9727 23.8114 36.9727 23.7869 36.9727 23.7616Z" fill="#D53D36"/>
<defs>
<linearGradient id="paint0_linear_6_540" x1="98.4667" y1="21.1263" x2="-8.8357" y2="26.7315" gradientUnits="userSpaceOnUse">
<stop stop-color="#00ADEF"/>
<stop offset="1" stop-color="#D60F8C"/>
</linearGradient>
</defs>
</svg>
