<svg width="136" height="18" viewBox="0 0 136 18" fill="none" xmlns="http://www.w3.org/2000/svg">
<path d="M9.96819 15.0265L14.8026 17.78C15.688 18.2847 16.7713 17.5387 16.5383 16.5952L15.2569 11.4173L19.5322 7.92875C20.3127 7.29247 19.8933 6.08575 18.8682 6.00895L13.2416 5.55917L11.0399 0.666443C10.6438 -0.222148 9.29253 -0.222148 8.89646 0.666443L6.69476 5.5482L1.06818 5.99798C0.0430526 6.07478 -0.376319 7.2815 0.404178 7.91778L4.67944 11.4063L3.39803 16.5843C3.16504 17.5277 4.24842 18.2737 5.13376 17.7691L9.96819 15.0265Z" fill="url(#paint0_linear_372_22)"/>
<path d="M38.8764 15.0265L43.7108 17.78C44.5962 18.2847 45.6795 17.5387 45.4466 16.5952L44.1651 11.4173L48.4404 7.92875C49.2209 7.29247 48.8015 6.08575 47.7764 6.00895L42.1498 5.55917L39.9481 0.666443C39.552 -0.222148 38.2007 -0.222148 37.8047 0.666443L35.603 5.5482L29.9764 5.99798C28.9513 6.07478 28.5319 7.2815 29.3124 7.91778L33.5876 11.4063L32.3062 16.5843C32.0732 17.5277 33.1566 18.2737 34.042 17.7691L38.8764 15.0265Z" fill="url(#paint1_linear_372_22)"/>
<path d="M67.7846 15.0265L72.619 17.78C73.5044 18.2847 74.5877 17.5387 74.3548 16.5952L73.0733 11.4173L77.3486 7.92875C78.1291 7.29247 77.7097 6.08575 76.6846 6.00895L71.058 5.55917L68.8563 0.666443C68.4602 -0.222148 67.1089 -0.222148 66.7129 0.666443L64.5112 5.5482L58.8846 5.99798C57.8595 6.07478 57.4401 7.2815 58.2206 7.91778L62.4958 11.4063L61.2144 16.5843C60.9814 17.5277 62.0648 18.2737 62.9502 17.7691L67.7846 15.0265Z" fill="url(#paint2_linear_372_22)"/>
<path d="M96.6908 15.0265L101.525 17.78C102.411 18.2847 103.494 17.5387 103.261 16.5952L101.98 11.4173L106.255 7.92875C107.035 7.29247 106.616 6.08575 105.591 6.00895L99.9643 5.55917L97.7626 0.666443C97.3665 -0.222148 96.0152 -0.222148 95.6191 0.666443L93.4174 5.5482L87.7908 5.99798C86.7657 6.07478 86.3463 7.2815 87.1268 7.91778L91.4021 11.4063L90.1207 16.5843C89.8877 17.5277 90.9711 18.2737 91.8564 17.7691L96.6908 15.0265Z" fill="url(#paint3_linear_372_22)"/>
<path d="M125.599 15.0265L130.434 17.78C131.319 18.2847 132.402 17.5387 132.169 16.5952L130.888 11.4173L135.163 7.92875C135.944 7.29247 135.524 6.08575 134.499 6.00895L128.873 5.55917L126.671 0.666443C126.275 -0.222148 124.924 -0.222148 124.527 0.666443L122.326 5.5482L116.699 5.99798C115.674 6.07478 115.255 7.2815 116.035 7.91778L120.31 11.4063L119.029 16.5843C118.796 17.5277 119.879 18.2737 120.765 17.7691L125.599 15.0265Z" fill="url(#paint4_linear_372_22)" fill-opacity="0.5"/>
<path d="M122.326 5.5516L124.527 0.66685C124.725 0.222283 125.162 0 125.599 0V15.0357L120.765 17.7799C119.879 18.2849 118.796 17.5384 119.029 16.5944L120.31 11.4133L116.035 7.92262C115.255 7.28596 115.674 6.07849 116.699 6.00165L122.326 5.5516Z" fill="url(#paint5_linear_372_22)" fill-opacity="0.5"/>
<defs>
<linearGradient id="paint0_linear_372_22" x1="30.6729" y1="5.92286" x2="-2.73105" y2="7.86168" gradientUnits="userSpaceOnUse">
<stop stop-color="#372FA6"/>
<stop offset="1" stop-color="#6A91F3"/>
</linearGradient>
<linearGradient id="paint1_linear_372_22" x1="59.5811" y1="5.92286" x2="26.1772" y2="7.86168" gradientUnits="userSpaceOnUse">
<stop stop-color="#372FA6"/>
<stop offset="1" stop-color="#6A91F3"/>
</linearGradient>
<linearGradient id="paint2_linear_372_22" x1="88.4893" y1="5.92286" x2="55.0854" y2="7.86168" gradientUnits="userSpaceOnUse">
<stop stop-color="#372FA6"/>
<stop offset="1" stop-color="#6A91F3"/>
</linearGradient>
<linearGradient id="paint3_linear_372_22" x1="117.396" y1="5.92286" x2="83.9916" y2="7.86168" gradientUnits="userSpaceOnUse">
<stop stop-color="#372FA6"/>
<stop offset="1" stop-color="#6A91F3"/>
</linearGradient>
<linearGradient id="paint4_linear_372_22" x1="146.304" y1="5.92286" x2="112.9" y2="7.86168" gradientUnits="userSpaceOnUse">
<stop stop-color="#372FA6"/>
<stop offset="1" stop-color="#6A91F3"/>
</linearGradient>
<linearGradient id="paint5_linear_372_22" x1="130.967" y1="5.92286" x2="114.223" y2="6.40879" gradientUnits="userSpaceOnUse">
<stop stop-color="#372FA6"/>
<stop offset="1" stop-color="#6A91F3"/>
</linearGradient>
</defs>
</svg>
