<svg width="76" height="76" viewBox="0 0 76 76" fill="none" xmlns="http://www.w3.org/2000/svg">
<g filter="url(#filter0_i_141_16387)">
<circle cx="38" cy="38" r="38" fill="white"/>
</g>
<path d="M56 32.0015C56 34.4735 55.061 37.01 53.6285 39.4475C53.2175 38.408 52.5845 37.445 51.725 36.65C52.511 35.057 53 33.4835 53 32.0015C53 27.9365 49.9085 24.5015 46.25 24.5015C42.8975 24.5015 40.988 25.859 39.701 27.0425L33.965 32.366C33.4355 32.897 33.3095 33.7895 33.7205 34.361C33.989 34.7345 34.3835 34.9595 34.829 34.9955C35.2715 35.036 35.7005 34.874 36.011 34.5605L42.2705 28.568L44.345 30.734L42.488 32.5115L49.6085 38.7605C51.2765 40.2245 51.6875 42.683 50.564 44.4785C49.8725 45.5825 48.743 46.325 47.4665 46.5125C47.3795 46.5245 47.294 46.535 47.207 46.5425C47.201 47.315 46.9955 48.08 46.574 48.755C45.8825 49.859 44.753 50.6015 43.4765 50.789C43.199 50.828 42.923 50.8445 42.647 50.831C42.566 51.404 42.371 51.962 42.0545 52.4675C41.363 53.5715 40.2335 54.3125 38.957 54.5C38.7425 54.5315 38.528 54.5465 38.3165 54.5465C37.256 54.5465 36.227 54.164 35.42 53.4545L30.764 49.2785C25.8515 44.8415 20 38.243 20 32.0015C20 26.2115 24.374 21.5015 29.75 21.5015C32.1545 21.5015 33.9995 22.0655 35.447 22.805L33.0485 25.031C32.1335 24.71 31.0535 24.5015 29.75 24.5015C26.0915 24.5015 23 27.9365 23 32.0015C23 36.0125 26.4695 41.357 32.7725 47.0525L37.4135 51.2135C37.709 51.473 38.1185 51.593 38.5235 51.5345C38.9345 51.4745 39.287 51.242 39.5135 50.8775C39.8585 50.324 39.6875 49.502 39.122 49.007L34.3115 44.4335L36.3755 42.2555L41.9585 47.5265C42.227 47.7605 42.6425 47.8835 43.0415 47.8205C43.4525 47.7605 43.805 47.5265 44.0315 47.1635C44.3765 46.61 44.2055 45.788 43.64 45.2915L38.3 40.457L40.3025 38.225L45.9155 43.22C46.2155 43.484 46.6265 43.607 47.03 43.544C47.441 43.484 47.7935 43.25 48.02 42.887C48.365 42.3335 48.194 41.5115 47.6285 41.015L40.3115 34.5935L38.1065 36.704C37.28 37.532 36.1385 38 34.9505 38C33.3815 38 32.063 37.196 31.283 36.113C30.0155 34.352 30.272 31.8125 31.88 30.2045L37.6625 24.8375C39.2255 23.402 41.8085 21.5 46.247 21.5C51.623 21.5 55.997 26.21 55.997 32L56 32.0015Z" fill="url(#paint0_linear_141_16387)"/>
<defs>
<filter id="filter0_i_141_16387" x="0" y="0" width="94" height="91" filterUnits="userSpaceOnUse" color-interpolation-filters="sRGB">
<feFlood flood-opacity="0" result="BackgroundImageFix"/>
<feBlend mode="normal" in="SourceGraphic" in2="BackgroundImageFix" result="shape"/>
<feColorMatrix in="SourceAlpha" type="matrix" values="0 0 0 0 0 0 0 0 0 0 0 0 0 0 0 0 0 0 127 0" result="hardAlpha"/>
<feOffset dx="18" dy="15"/>
<feGaussianBlur stdDeviation="17.5"/>
<feComposite in2="hardAlpha" operator="arithmetic" k2="-1" k3="1"/>
<feColorMatrix type="matrix" values="0 0 0 0 0 0 0 0 0 0.498039 0 0 0 0 0.992157 0 0 0 0.09 0"/>
<feBlend mode="normal" in2="shape" result="effect1_innerShadow_141_16387"/>
</filter>
<linearGradient id="paint0_linear_141_16387" x1="75.3875" y1="32.4086" x2="15.0606" y2="35.8415" gradientUnits="userSpaceOnUse">
<stop stop-color="#00ADEF"/>
<stop offset="1" stop-color="#D60F8C"/>
</linearGradient>
</defs>
</svg>
