<svg width="28" height="28" viewBox="0 0 28 28" fill="none" xmlns="http://www.w3.org/2000/svg">
<path d="M11.1826 8.5923C11.1017 8.76317 11.0859 8.94077 11.1353 9.12511C11.1848 9.30944 11.2904 9.42856 11.4522 9.48249C11.4882 9.50046 11.7535 9.5139 12.248 9.52279C12.7426 9.53169 13.4575 9.53604 14.3927 9.53586L17.2118 9.5488L12.7732 13.9873C10.5607 16.1999 9.26554 17.4995 8.88779 17.8863C8.51004 18.273 8.31217 18.5023 8.29417 18.5743C8.24917 18.7631 8.31658 18.9475 8.49639 19.1273C8.6762 19.3071 8.86052 19.3745 9.04937 19.3295C9.12131 19.3115 9.35065 19.1136 9.73739 18.7359C10.1241 18.3581 11.4238 17.063 13.6363 14.8504L18.0749 10.4119L18.0878 13.231C18.0876 14.1122 18.092 14.8136 18.1009 15.3351C18.1097 15.8567 18.1232 16.1354 18.1412 16.1714C18.1501 16.1984 18.1636 16.2299 18.1816 16.2658C18.1996 16.3018 18.2221 16.3333 18.249 16.3602C18.267 16.3782 18.2895 16.3962 18.3165 16.4142C18.3434 16.4321 18.3749 16.4501 18.4109 16.4681L18.3974 16.4546C18.5772 16.5265 18.7571 16.531 18.9369 16.468C19.1168 16.405 19.2337 16.2926 19.2877 16.1307C19.2967 16.1037 19.3013 15.7216 19.3014 14.9842C19.3105 14.2558 19.3174 13.4488 19.3221 12.563C19.3268 11.6773 19.3247 10.8523 19.3158 10.0879C19.316 9.33257 19.3116 8.91443 19.3026 8.8335C19.2936 8.73459 19.2802 8.66715 19.2622 8.63118C19.2442 8.59522 19.2037 8.54577 19.1408 8.48283C19.0869 8.42889 19.0419 8.39293 19.0059 8.37495C18.97 8.35698 18.907 8.339 18.8171 8.32104C18.7542 8.31206 18.345 8.30764 17.5897 8.30779C16.8253 8.29895 15.9981 8.29461 15.1078 8.29479C14.2176 8.29496 13.4038 8.30412 12.6664 8.32225C11.9291 8.32239 11.5424 8.32247 11.5064 8.32247C11.4704 8.34046 11.4322 8.3607 11.3918 8.38319C11.3513 8.40568 11.3131 8.43491 11.2771 8.47089C11.2591 8.48888 11.2434 8.50911 11.2299 8.5316C11.2164 8.55408 11.2006 8.57432 11.1826 8.5923Z" fill="url(#paint0_linear_6_159)"/>
<defs>
<linearGradient id="paint0_linear_6_159" x1="26.2103" y1="4.08738" x2="7.14653" y2="20.6363" gradientUnits="userSpaceOnUse">
<stop stop-color="#00ADEF"/>
<stop offset="1" stop-color="#D60F8C"/>
</linearGradient>
</defs>
</svg>
