<svg width="76" height="76" viewBox="0 0 76 76" fill="none" xmlns="http://www.w3.org/2000/svg">
<g filter="url(#filter0_i_141_16344)">
<circle cx="38" cy="38" r="38" fill="white"/>
</g>
<path d="M52.8133 27.9102H23.1867C22.5307 27.9102 22 28.4422 22 29.0982V46.9022C22 47.5582 22.5307 48.0902 23.1867 48.0902H52.8133C53.4693 48.0902 54 47.5582 54 46.9022V29.0982C54 28.4422 53.4693 27.9102 52.8133 27.9102ZM28.2773 42.2488L26.5267 35.4688C26.4187 35.0502 26.3267 34.8982 26.004 34.7208C25.4747 34.4355 24.604 34.1675 23.8347 33.9995L23.888 33.7528H27.6267C28.1027 33.7528 28.532 34.0702 28.64 34.6195L29.5653 39.5368L31.8533 33.7528H34.1627L30.6027 42.2488H28.2773ZM33.2867 42.2488L35.1053 33.7528H37.304L35.4853 42.2488H33.2867ZM39.4387 42.3835C38.456 42.3715 37.5067 42.1675 36.9933 41.9315L37.3907 40.0688C37.9027 40.3075 38.544 40.6235 39.6493 40.6062C40.2813 40.5955 40.9587 40.3462 40.964 39.7755C40.9667 39.4022 40.6813 39.1355 39.824 38.7195C38.9907 38.3128 37.8853 37.6302 37.9 36.4075C37.9133 34.7542 39.4427 33.5995 41.6147 33.5995C42.46 33.5995 43.1413 33.7835 43.6707 33.9755L43.2853 35.7768C42.3013 35.3248 41.4333 35.3555 41.1173 35.3982C40.4827 35.4795 40.192 35.8035 40.1853 36.1102C40.1627 37.1128 43.2747 37.2355 43.264 39.4768C43.2587 41.2408 41.748 42.3835 39.4387 42.3835ZM49.0027 42.2488L48.7373 40.9795H45.9173L45.46 42.2488H43.1533L46.4493 34.3755C46.6067 33.9995 46.9613 33.7528 47.384 33.7528H49.26L51.0347 42.2488H49.0027ZM46.5493 39.2382H48.372L47.7067 36.0475L46.5493 39.2382Z" fill="url(#paint0_linear_141_16344)"/>
<defs>
<filter id="filter0_i_141_16344" x="0" y="0" width="94" height="91" filterUnits="userSpaceOnUse" color-interpolation-filters="sRGB">
<feFlood flood-opacity="0" result="BackgroundImageFix"/>
<feBlend mode="normal" in="SourceGraphic" in2="BackgroundImageFix" result="shape"/>
<feColorMatrix in="SourceAlpha" type="matrix" values="0 0 0 0 0 0 0 0 0 0 0 0 0 0 0 0 0 0 127 0" result="hardAlpha"/>
<feOffset dx="18" dy="15"/>
<feGaussianBlur stdDeviation="17.5"/>
<feComposite in2="hardAlpha" operator="arithmetic" k2="-1" k3="1"/>
<feColorMatrix type="matrix" values="0 0 0 0 0 0 0 0 0 0.498039 0 0 0 0 0.992157 0 0 0 0.09 0"/>
<feBlend mode="normal" in2="shape" result="effect1_innerShadow_141_16344"/>
</filter>
<linearGradient id="paint0_linear_141_16344" x1="71.2333" y1="34.5715" x2="17.8024" y2="38.9974" gradientUnits="userSpaceOnUse">
<stop stop-color="#00ADEF"/>
<stop offset="1" stop-color="#D60F8C"/>
</linearGradient>
</defs>
</svg>
