<svg width="120" height="120" viewBox="0 0 120 120" fill="none" xmlns="http://www.w3.org/2000/svg">
<circle cx="60" cy="60" r="60" fill="url(#paint0_linear_141_15130)"/>
<circle cx="60" cy="60" r="52" fill="white"/>
<path d="M83.3761 59.308C83.1141 58.6 76.8021 42 60.0001 42C42.6401 42.306 36.9281 58.612 36.3701 59.998C36.9221 61.38 42.6121 77.698 60.0001 78C77.3621 77.692 83.0721 61.39 83.6301 60L83.3761 59.308ZM60.0001 74C47.5321 74 41.9261 62.942 40.6581 60.002C41.9321 57.062 47.5541 46 60.0001 46C72.4461 46 78.0661 57.058 79.3421 60C78.0661 62.942 72.4441 74 60.0001 74ZM70.0001 60C70.0001 65.522 65.5221 70 60.0001 70C56.6621 70 53.7241 68.348 51.9081 65.834L54.9141 62.828L57.9141 65.828L63.3281 60.414L65.9141 63V56.142C65.9141 55.51 65.4021 55 64.7721 55H57.9141L60.5001 57.586L57.9141 60.172L54.9141 57.172L50.1901 61.896C50.0721 61.282 49.9981 60.65 49.9981 60.002C49.9981 54.48 54.4761 50.002 59.9981 50.002C65.5201 50.002 69.9981 54.48 69.9981 60.002L70.0001 60Z" fill="url(#paint1_linear_141_15130)"/>
<defs>
<linearGradient id="paint0_linear_141_15130" x1="1.38891e-07" y1="11.4286" x2="126.259" y2="22.8259" gradientUnits="userSpaceOnUse">
<stop stop-color="#FBFDFF"/>
<stop offset="1" stop-color="#E9F6FF"/>
</linearGradient>
<linearGradient id="paint1_linear_141_15130" x1="109.082" y1="53.8835" x2="30.0012" y2="59.3065" gradientUnits="userSpaceOnUse">
<stop stop-color="#00ADEF"/>
<stop offset="1" stop-color="#D60F8C"/>
</linearGradient>
</defs>
</svg>
