<svg width="40" height="40" viewBox="0 0 40 40" fill="none" xmlns="http://www.w3.org/2000/svg">
<circle cx="20" cy="20" r="20" fill="url(#paint0_linear_270_1149)"/>
<circle cx="20.0001" cy="20.0013" r="17.3333" fill="white"/>
<g clip-path="url(#clip0_270_1149)">
<path d="M16.0675 18.1983L17.2475 17.5267C17.7525 18.0767 18.4142 18.4775 19.1667 18.6492V20H20.8333V18.6492C21.5858 18.4775 22.2475 18.0767 22.7525 17.5267L23.9325 18.1983L24.7575 16.75L23.5742 16.0758C23.6775 15.7325 23.75 15.3767 23.75 15C23.75 14.6233 23.6775 14.2667 23.5742 13.9242L24.7575 13.25L23.9325 11.8017L22.7525 12.4733C22.2475 11.9233 21.5858 11.5233 20.8333 11.3508V10H19.1667V11.3508C18.4142 11.5225 17.7525 11.9233 17.2475 12.4733L16.0675 11.8017L15.2433 13.25L16.4267 13.9242C16.3225 14.2675 16.25 14.6242 16.25 15.0008C16.25 15.3775 16.3225 15.7342 16.4267 16.0775L15.2433 16.7517L16.0675 18.2V18.1983ZM20 12.9167C21.1492 12.9167 22.0833 13.8517 22.0833 15C22.0833 16.1483 21.1492 17.0833 20 17.0833C18.8508 17.0833 17.9167 16.1483 17.9167 15C17.9167 13.8517 18.8517 12.9167 20 12.9167ZM24.1667 22.0833C24.1667 20.9325 25.0992 20 26.25 20C27.4008 20 28.3333 20.9325 28.3333 22.0833C28.3333 23.2342 27.4008 24.1667 26.25 24.1667C25.0992 24.1667 24.1667 23.2342 24.1667 22.0833ZM30 27.0833V30H28.3333V27.0833C28.3333 26.8542 28.1458 26.6667 27.9167 26.6667H24.5833C24.3542 26.6667 24.1667 26.8542 24.1667 27.0833V30H22.5V29.1667C22.5 28.7067 22.1267 28.3333 21.6667 28.3333H18.3333C17.8742 28.3333 17.5 28.7067 17.5 29.1667V30H15.8333V27.0833C15.8333 26.8542 15.6467 26.6667 15.4167 26.6667H12.0833C11.8533 26.6667 11.6667 26.8542 11.6667 27.0833V30H10V27.0833C10 25.9342 10.935 25 12.0833 25H15.4167C16.4783 25 17.3467 25.8008 17.4742 26.8283C17.7433 26.7292 18.03 26.6667 18.3333 26.6667H21.6667C21.97 26.6667 22.2567 26.7292 22.5258 26.8283C22.6533 25.8008 23.5217 25 24.5833 25H27.9167C29.0658 25 30 25.9342 30 27.0833ZM11.6667 22.0833C11.6667 20.9325 12.5992 20 13.75 20C14.9008 20 15.8333 20.9325 15.8333 22.0833C15.8333 23.2342 14.9008 24.1667 13.75 24.1667C12.5992 24.1667 11.6667 23.2342 11.6667 22.0833ZM20 21.6667C21.1508 21.6667 22.0833 22.5992 22.0833 23.75C22.0833 24.9008 21.1508 25.8333 20 25.8333C18.8492 25.8333 17.9167 24.9008 17.9167 23.75C17.9167 22.5992 18.8492 21.6667 20 21.6667Z" fill="url(#paint1_linear_270_1149)"/>
</g>
<defs>
<linearGradient id="paint0_linear_270_1149" x1="4.62971e-08" y1="3.80952" x2="42.0865" y2="7.60863" gradientUnits="userSpaceOnUse">
<stop stop-color="#FBFDFF"/>
<stop offset="1" stop-color="#E9F6FF"/>
</linearGradient>
<linearGradient id="paint1_linear_270_1149" x1="40.7708" y1="16.602" x2="7.23884" y2="18.3536" gradientUnits="userSpaceOnUse">
<stop stop-color="#00ADEF"/>
<stop offset="1" stop-color="#D60F8C"/>
</linearGradient>
<clipPath id="clip0_270_1149">
<rect width="20" height="20" fill="white" transform="translate(10 10)"/>
</clipPath>
</defs>
</svg>
