<svg width="132" height="132" viewBox="0 0 132 132" fill="none" xmlns="http://www.w3.org/2000/svg">
<circle cx="66" cy="66" r="66" fill="url(#paint0_linear_141_16297)"/>
<circle cx="66" cy="66" r="57.75" fill="white"/>
<g clip-path="url(#clip0_141_16297)">
<path d="M95.6005 34.6382C97.9161 36.427 99.6199 39.0149 99.9999 41.9595C100.267 45.4133 99.6055 48.4307 97.3437 51.1236C96.6958 51.8398 96.0247 52.4513 95.2187 52.983C95.3021 53.591 95.4615 54.1319 95.6669 54.7095C97.2752 59.3701 96.8295 64.5862 94.7256 69.0074C93.9378 70.5956 92.9358 71.9476 91.7055 73.2178C91.4622 73.4762 91.2295 73.7429 90.9951 74.0094C90.0722 75.0387 89.0783 75.9996 88.0966 76.9722C87.7071 77.3582 87.3181 77.7446 86.9293 78.1312C86.842 78.2174 86.7547 78.3037 86.6647 78.3925C86.2475 78.8075 85.8456 79.2284 85.4612 79.6741C84.9721 80.2405 84.4492 80.767 83.9172 81.2928C83.7677 81.4415 83.7677 81.4415 83.6152 81.5933C83.1935 82.0127 82.7711 82.4314 82.3488 82.8502C82.0384 83.1581 81.7285 83.4664 81.4186 83.7747C81.3247 83.8676 81.2307 83.9604 81.1339 84.0561C80.6056 84.5818 80.1045 85.122 79.6179 85.6864C79.3751 85.9651 79.1207 86.2289 78.8584 86.4891C78.7655 86.5815 78.6726 86.674 78.5769 86.7692C78.4366 86.9079 78.4366 86.9079 78.2934 87.0494C78.1962 87.1459 78.0991 87.2425 77.999 87.342C77.7626 87.5768 77.5259 87.8113 77.289 88.0455C78.3091 87.9519 79.2988 87.7639 80.3022 87.5604C80.4762 87.5255 80.6503 87.4905 80.8244 87.4557C81.1875 87.3829 81.5505 87.3097 81.9134 87.2363C82.3755 87.1429 82.8376 87.0499 83.2998 86.9572C83.745 86.8679 84.1901 86.7784 84.6352 86.6888C84.7996 86.6557 84.964 86.6227 85.1333 86.5886C85.8896 86.4357 86.6443 86.2803 87.3953 86.1027C87.8539 86.0131 88.3111 86.0024 88.7773 86.0035C88.9244 86.0038 88.9244 86.0038 89.0744 86.0041C89.8442 86.0214 90.4494 86.1567 91.1015 86.5845C91.2275 86.6667 91.3535 86.7489 91.4833 86.8336C92.0809 87.4311 92.2467 88.0765 92.3046 88.8979C92.2812 89.9291 91.7931 90.7608 91.1015 91.4986C90.1827 92.2727 89.1055 92.6113 87.9804 92.9678C87.7762 93.0341 87.572 93.1004 87.3679 93.167C86.8964 93.3202 86.4244 93.4722 85.9523 93.6235C85.1024 93.896 84.2537 94.172 83.405 94.4481C81.1928 95.1676 78.9786 95.8808 76.7634 96.5912C76.4957 96.6771 76.2279 96.7631 75.9602 96.8491C74.9657 97.1684 73.9707 97.4863 72.9752 97.8024C72.6741 97.8981 72.3731 97.9941 72.0722 98.0905C67.4564 99.5683 67.4564 99.5683 65.203 99.5338C65.0692 99.5358 64.9353 99.5379 64.7973 99.54C64.0004 99.536 63.2442 99.4387 62.4682 99.2626C62.3667 99.2398 62.2651 99.2169 62.1605 99.1934C60.5832 98.8292 59.0239 98.3918 57.4626 97.9654C56.9964 97.8383 56.53 97.7117 56.0637 97.5851C55.2813 97.3726 54.4991 97.1597 53.7169 96.9465C52.6218 96.648 51.5265 96.3502 50.4312 96.0525C43.9546 94.2923 43.9546 94.2923 41.5624 93.6236C41.5637 93.7446 41.565 93.8655 41.5663 93.9902C41.5754 94.8557 41.5754 94.8557 41.5624 95.2174C41.3141 95.4657 40.8942 95.3671 40.5632 95.3673C40.4727 95.3676 40.3822 95.3678 40.289 95.3681C39.9886 95.3686 39.6881 95.3683 39.3876 95.3678C39.1797 95.3679 38.9718 95.368 38.7638 95.3682C38.3275 95.3684 37.8912 95.3681 37.4548 95.3675C36.8943 95.3667 36.3338 95.3672 35.7732 95.368C35.3437 95.3684 34.9142 95.3683 34.4847 95.3679C34.2779 95.3678 34.0712 95.368 33.8645 95.3683C33.576 95.3686 33.2876 95.3681 32.9991 95.3673C32.8347 95.3672 32.6702 95.3671 32.5008 95.367C32.1327 95.3502 32.1327 95.3502 31.9999 95.2174C31.9871 94.9753 31.9837 94.7328 31.9839 94.4904C31.9837 94.2538 31.9837 94.2538 31.9834 94.0124C31.9839 93.8378 31.9844 93.6632 31.9848 93.4832C31.9849 93.2987 31.9849 93.1142 31.9848 92.9297C31.9847 92.4273 31.9855 91.9249 31.9865 91.4224C31.9873 90.8979 31.9874 90.3734 31.9875 89.8489C31.9879 88.8551 31.989 87.8612 31.9904 86.8673C31.9918 85.7361 31.9926 84.6049 31.9932 83.4736C31.9946 81.146 31.997 78.8184 31.9999 76.4908C32.3743 76.3036 32.6875 76.34 33.1062 76.3387C33.1924 76.3382 33.2786 76.3378 33.3674 76.3373C33.6529 76.3361 33.9385 76.3358 34.224 76.3357C34.4222 76.3352 34.6204 76.3348 34.8185 76.3343C35.2342 76.3335 35.6499 76.3333 36.0655 76.3334C36.5985 76.3334 37.1314 76.3316 37.6644 76.3293C38.0738 76.3278 38.4831 76.3275 38.8925 76.3276C39.089 76.3274 39.2855 76.3269 39.482 76.3258C39.7567 76.3245 40.0314 76.3249 40.3061 76.3257C40.4625 76.3255 40.6189 76.3253 40.78 76.3251C41.164 76.358 41.164 76.358 41.5624 76.6236C41.5624 77.1057 41.5624 77.5878 41.5624 78.0845C43.8853 77.6901 46.2082 77.2956 48.6015 76.8892C48.6318 76.572 48.6318 76.572 48.2565 76.2573C48.1036 76.1077 47.9502 75.9587 47.7963 75.8101C47.2305 75.2553 46.686 74.6973 46.1745 74.0913C45.9 73.7839 45.6041 73.5049 45.3061 73.2203C42.1858 70.1236 40.5206 65.5719 40.4678 61.2197C40.4562 56.5692 41.7157 52.325 44.7499 48.733C44.8398 48.6236 44.9297 48.5142 45.0223 48.4015C47.1321 45.929 50.1744 44.4594 53.393 44.1375C57.7593 43.7942 62.0885 45.3143 65.4687 48.0689C66.3751 48.8435 67.2341 49.6655 68.0212 50.5617C68.2529 50.7541 68.2529 50.7541 68.5721 50.7309C69.0452 50.5435 69.331 50.228 69.6689 49.8619C71.7477 47.7022 74.4901 45.6986 77.4218 44.8814C77.5095 44.8814 77.5971 44.8814 77.6874 44.8814C77.6828 44.7112 77.6782 44.5411 77.6734 44.3657C77.6093 41.029 78.504 38.2316 80.823 35.7666C84.8463 31.7762 91.0036 31.4443 95.6005 34.6382Z" fill="#FD636E"/>
<path d="M66.3818 48.8828C66.9557 49.418 67.503 49.9721 68.0212 50.5621C68.253 50.7545 68.253 50.7545 68.5722 50.7313C69.0451 50.5439 69.3311 50.2285 69.6689 49.8623C70.6553 48.8344 71.7329 47.9479 72.9062 47.1396C74.9587 49.0268 76.1497 52.4882 76.8906 55.1084C76.916 55.1981 76.9414 55.2879 76.9676 55.3804C77.6325 57.7794 77.9929 60.1863 77.9531 62.6787C78.0407 62.6349 78.1284 62.591 78.2187 62.5459C78.5054 62.5303 78.7925 62.5233 79.0796 62.5203C79.2121 62.5186 79.2121 62.5186 79.3473 62.517C79.6402 62.5137 79.933 62.5115 80.2259 62.5096C80.326 62.5089 80.426 62.5081 80.5291 62.5074C81.0586 62.5039 81.5881 62.5013 82.1176 62.4994C82.6642 62.4972 83.2108 62.4912 83.7575 62.4845C84.178 62.48 84.5985 62.4785 85.0191 62.4777C85.2206 62.4768 85.4221 62.4748 85.6235 62.4716C85.9059 62.4674 86.188 62.4674 86.4704 62.4684C86.6309 62.4673 86.7914 62.4662 86.9568 62.4651C87.5066 62.5694 87.7035 62.7771 88.0468 63.2099C88.1215 63.6167 88.1215 63.6167 88.0468 64.0068C87.7989 64.3126 87.601 64.4953 87.25 64.6709C86.9957 64.6739 86.7412 64.6681 86.4871 64.6581C85.6856 64.6306 84.8848 64.6129 84.0829 64.603C83.5979 64.5964 83.1139 64.5853 82.6293 64.5639C80.5578 64.3933 80.5578 64.3933 78.6944 65.0478C77.8408 66.0368 77.4454 67.3298 77.3378 68.6163C76.9594 72.0093 74.994 75.9735 72.9062 78.6162C72.8641 78.5487 72.822 78.4813 72.7786 78.4118C71.7113 76.8373 70.0512 76.457 68.2773 76.1141C68.1366 76.0879 67.9959 76.0617 67.851 76.0346C67.6268 75.9926 67.6268 75.9926 67.3981 75.9497C66.9323 75.8634 66.4661 75.7787 66 75.6943C65.8538 75.6673 65.7076 75.6403 65.557 75.6125C62.275 75.0121 59.4727 75.2108 56.2042 75.7758C55.7931 75.8466 55.3818 75.9162 54.9705 75.9858C54.1649 76.1223 53.3595 76.2598 52.5545 76.3996C52.2875 76.4459 52.0205 76.492 51.7535 76.5381C51.4346 76.5933 51.1159 76.6494 50.7973 76.7063C50.5887 76.7429 50.5887 76.7429 50.3758 76.7802C50.197 76.8121 50.197 76.8121 50.0146 76.8447C48.9999 76.9748 48.9999 76.9748 48.6086 76.7236C48.5352 76.6469 48.4618 76.5702 48.3862 76.4912C48.3036 76.4067 48.2211 76.3223 48.136 76.2353C48.009 76.099 48.009 76.099 47.8793 75.9599C47.7908 75.8681 47.7023 75.7763 47.611 75.6818C47.1132 75.1624 46.6278 74.6335 46.1652 74.0824C45.8944 73.7777 45.6009 73.5023 45.3061 73.2207C42.1858 70.124 40.5206 65.5723 40.4679 61.2202C40.4563 56.5696 41.7158 52.3254 44.75 48.7334C44.8398 48.624 44.9297 48.5146 45.0223 48.4019C47.1322 45.9295 50.1744 44.4598 53.3931 44.1379C58.2024 43.7598 62.8678 45.64 66.3818 48.8828Z" fill="#FC8087"/>
<path d="M65.5267 75.4784C65.9495 75.5556 66.3726 75.6293 66.7962 75.7019C67.1634 75.7654 67.5301 75.8315 67.8968 75.8981C68.1582 75.9452 68.4199 75.9902 68.6817 76.0352C70.244 76.3284 71.8668 76.8947 72.8392 78.2278C73.454 79.1804 73.5539 80.0126 73.4374 81.1429C73.1257 82.0095 72.3993 82.6984 71.6009 83.1351C69.9082 83.9005 67.963 83.4779 66.1892 83.2571C65.8067 83.2095 65.4241 83.1633 65.0414 83.1172C64.7966 83.0875 64.5519 83.0576 64.3071 83.0277C64.1367 83.007 64.1367 83.007 63.9629 82.9858C63.4411 82.9207 62.9292 82.8431 62.414 82.7367C61.7125 82.6857 61.2784 82.7453 60.6874 83.1351C60.1428 83.6734 59.7946 84.0941 59.7162 84.8783C59.768 85.5198 59.8993 86.0681 60.289 86.5882C61.0211 87.1644 61.7323 87.3864 62.6402 87.5309C62.7621 87.5523 62.884 87.5737 63.0096 87.5957C63.3973 87.6633 63.7855 87.7277 64.1738 87.7919C64.5546 87.8569 64.9353 87.9227 65.3161 87.9885C65.5685 88.032 65.821 88.0753 66.0735 88.1181C67.0347 88.2825 67.9904 88.4683 68.944 88.6721C71.6616 89.2387 74.076 88.891 76.7577 88.3148C76.8973 88.285 77.0368 88.2551 77.1806 88.2244C77.7552 88.1013 78.3296 87.9778 78.9038 87.8529C80.7353 87.4566 82.5737 87.095 84.4117 86.7305C84.5376 86.7055 84.6636 86.6805 84.7933 86.6547C85.0293 86.6079 85.2653 86.5612 85.5014 86.5146C86.1292 86.39 86.7538 86.2569 87.3768 86.1103C87.8424 86.0189 88.304 86.0061 88.7773 86.0072C88.8753 86.0074 88.9734 86.0076 89.0744 86.0078C89.8442 86.0251 90.4494 86.1604 91.1015 86.5882C91.2275 86.6704 91.3535 86.7526 91.4833 86.8373C92.0809 87.4348 92.2467 88.0803 92.3046 88.9016C92.2812 89.9328 91.7931 90.7645 91.1015 91.5023C90.1827 92.2764 89.1055 92.615 87.9804 92.9715C87.7762 93.0378 87.572 93.1041 87.3679 93.1707C86.8964 93.3239 86.4244 93.4759 85.9523 93.6272C85.1024 93.8997 84.2537 94.1757 83.405 94.4518C81.1928 95.1713 78.9786 95.8845 76.7634 96.595C76.4957 96.6809 76.2279 96.7668 75.9602 96.8528C74.9657 97.1721 73.9707 97.49 72.9752 97.8061C72.6741 97.9018 72.3731 97.9978 72.0722 98.0942C67.4564 99.572 67.4564 99.572 65.203 99.5375C65.0022 99.5405 65.0022 99.5405 64.7973 99.5437C64.0004 99.5397 63.2442 99.4424 62.4682 99.2664C62.3667 99.2435 62.2651 99.2206 62.1605 99.1971C60.5832 98.8329 59.0239 98.3955 57.4626 97.9692C56.9964 97.842 56.53 97.7154 56.0637 97.5888C55.2813 97.3763 54.4991 97.1634 53.7169 96.9502C52.6218 96.6517 51.5265 96.3539 50.4312 96.0562C43.9546 94.2961 43.9546 94.2961 41.5624 93.6273C41.5637 93.7483 41.565 93.8692 41.5663 93.9939C41.5754 94.8595 41.5754 94.8595 41.5624 95.2211C41.3141 95.4694 40.8942 95.3708 40.5632 95.3711C40.4727 95.3713 40.3822 95.3715 40.289 95.3718C39.9886 95.3723 39.6881 95.372 39.3876 95.3715C39.1797 95.3716 38.9718 95.3717 38.7638 95.3719C38.3275 95.3721 37.8912 95.3718 37.4548 95.3712C36.8943 95.3704 36.3338 95.3709 35.7732 95.3717C35.3437 95.3721 34.9142 95.372 34.4847 95.3716C34.2779 95.3716 34.0712 95.3717 33.8645 95.372C33.576 95.3723 33.2876 95.3718 32.9991 95.3711C32.8347 95.3709 32.6702 95.3708 32.5008 95.3707C32.1327 95.3539 32.1327 95.3539 31.9999 95.2211C31.9871 94.979 31.9837 94.7365 31.984 94.4942C31.9837 94.2575 31.9837 94.2575 31.9834 94.0161C31.9839 93.8415 31.9844 93.6669 31.9848 93.4869C31.9849 93.3024 31.9849 93.1179 31.9848 92.9334C31.9847 92.431 31.9855 91.9286 31.9865 91.4262C31.9873 90.9017 31.9874 90.3772 31.9875 89.8527C31.9879 88.8588 31.989 87.8649 31.9904 86.871C31.9918 85.7398 31.9926 84.6086 31.9932 83.4774C31.9946 81.1497 31.997 78.8221 31.9999 76.4945C32.3743 76.3073 32.6875 76.3437 33.1062 76.3424C33.1924 76.3419 33.2786 76.3415 33.3674 76.341C33.6529 76.3398 33.9385 76.3395 34.224 76.3394C34.4222 76.3389 34.6204 76.3385 34.8185 76.338C35.2342 76.3372 35.6499 76.337 36.0655 76.3371C36.5985 76.3371 37.1314 76.3353 37.6644 76.333C38.0738 76.3315 38.4831 76.3312 38.8925 76.3313C39.089 76.3312 39.2855 76.3306 39.482 76.3295C39.7567 76.3282 40.0314 76.3286 40.3061 76.3294C40.5407 76.3291 40.5407 76.3291 40.78 76.3288C41.164 76.3617 41.164 76.3617 41.5624 76.6273C41.6013 76.9728 41.6013 76.9728 41.5873 77.3744C41.5819 77.5742 41.5819 77.5742 41.5764 77.778C41.5718 77.8804 41.5672 77.9828 41.5624 78.0882C41.6356 78.0756 41.7087 78.063 41.7841 78.05C45.5442 77.402 49.3058 76.7699 53.0778 76.1944C54.5799 75.9639 56.0735 75.7074 57.5647 75.4144C60.3069 74.8791 62.7896 74.9753 65.5267 75.4784Z" fill="#FED0A2"/>
<path d="M95.6005 34.6399C97.9161 36.4287 99.6199 39.0166 99.9999 41.9612C100.267 45.4154 99.6052 48.4319 97.3436 51.1253C96.9635 51.5462 96.5683 51.9396 96.1483 52.3206C96.0716 52.3911 95.9949 52.4617 95.9159 52.5344C93.599 54.4582 90.3059 55.1148 87.3827 54.844C84.4484 54.4723 81.7431 52.7769 79.9452 50.4612C78.8621 48.9843 78.1905 47.3349 77.8202 45.5472C77.7957 45.4486 77.7712 45.3499 77.746 45.2483C77.2918 42.4185 78.0159 39.4769 79.663 37.1499C83.5373 32.0934 90.3535 30.9944 95.6005 34.6399Z" fill="#F7F1EF"/>
<path d="M95.6006 34.6387C97.9162 36.4274 99.62 39.0153 100 41.96C100.267 45.4141 99.6053 48.4307 97.3437 51.124C96.9636 51.5449 96.5684 51.9383 96.1484 52.3193C96.0334 52.4251 96.0334 52.4251 95.916 52.5331C93.6923 54.3796 90.5402 55.058 87.7255 54.8769C86.5304 54.7579 85.4212 54.4003 84.3281 53.9131C84.7029 53.6632 85.067 53.4823 85.4736 53.2905C86.237 52.9116 86.8676 52.47 87.5156 51.9209C87.6024 51.8548 87.6892 51.7887 87.7787 51.7206C89.6906 50.2018 91.0265 47.5606 91.334 45.1724C91.3449 45.0327 91.3559 44.893 91.3672 44.749C91.4952 44.7456 91.6233 44.7422 91.7552 44.7386C91.923 44.7311 92.0908 44.7236 92.2637 44.7158C92.4301 44.7097 92.5965 44.7035 92.7679 44.6971C93.2863 44.6057 93.4521 44.5064 93.7578 44.085C93.8464 43.6145 93.8464 43.6145 93.7578 43.1553C93.331 42.7119 92.9269 42.6954 92.3301 42.6655C92.1746 42.6568 92.0192 42.6481 91.859 42.6391C91.7405 42.6341 91.6221 42.6291 91.5 42.624C91.4644 42.4597 91.4288 42.2953 91.3921 42.126C91.3673 42.0162 91.3424 41.9065 91.3169 41.7934C91.2616 41.5493 91.208 41.3047 91.156 41.0598C90.4322 37.8691 88.6349 35.6109 85.9219 33.8584C85.6154 33.6716 85.3087 33.4965 84.9922 33.3271C84.9922 33.2395 84.9922 33.1518 84.9922 33.0615C88.6563 31.8217 92.4564 32.4541 95.6006 34.6387Z" fill="#D6DCE9"/>
<path d="M33.1062 76.3418C33.1924 76.3414 33.2786 76.3409 33.3674 76.3405C33.6529 76.3392 33.9385 76.339 34.224 76.3388C34.4222 76.3384 34.6204 76.3379 34.8185 76.3375C35.2342 76.3367 35.6499 76.3364 36.0655 76.3365C36.5985 76.3365 37.1314 76.3347 37.6644 76.3324C38.0738 76.3309 38.4831 76.3307 38.8925 76.3307C39.089 76.3306 39.2855 76.33 39.482 76.329C39.7567 76.3277 40.0314 76.3281 40.3061 76.3289C40.5407 76.3286 40.5407 76.3286 40.78 76.3283C41.164 76.3611 41.164 76.3611 41.5624 76.6267C41.6118 76.9494 41.6118 76.9494 41.6112 77.3637C41.612 77.5203 41.6127 77.6769 41.6135 77.8383C41.6122 78.011 41.611 78.1837 41.6098 78.3616C41.6099 78.5447 41.6101 78.7277 41.6106 78.9107C41.6113 79.4084 41.6095 79.9062 41.6072 80.4039C41.6052 80.9239 41.6054 81.4439 41.6052 81.9639C41.6048 82.8372 41.6028 83.7104 41.5998 84.5836C41.5959 85.7059 41.5946 86.8281 41.594 87.9504C41.5934 88.9135 41.5918 89.8766 41.5899 90.8397C41.5894 91.1502 41.589 91.4606 41.5886 91.7711C41.588 92.258 41.5866 92.745 41.5847 93.2319C41.5838 93.4969 41.5836 93.7619 41.5834 94.0269C41.5826 94.1832 41.5819 94.3394 41.5811 94.5004C41.5807 94.6371 41.5803 94.7737 41.5799 94.9145C41.5624 95.2205 41.5624 95.2205 41.4296 95.3533C41.1411 95.3665 40.8521 95.3703 40.5632 95.3705C40.4727 95.3707 40.3822 95.371 40.289 95.3712C39.9886 95.3718 39.6881 95.3714 39.3876 95.3709C39.1797 95.371 38.9718 95.3712 38.7638 95.3713C38.3275 95.3715 37.8912 95.3712 37.4548 95.3706C36.8943 95.3699 36.3338 95.3703 35.7732 95.3711C35.3437 95.3716 34.9142 95.3714 34.4847 95.3711C34.2779 95.371 34.0712 95.3711 33.8645 95.3714C33.576 95.3717 33.2876 95.3712 32.9991 95.3705C32.8347 95.3704 32.6702 95.3703 32.5008 95.3702C32.1327 95.3533 32.1327 95.3533 31.9999 95.2205C31.9871 94.9785 31.9837 94.736 31.984 94.4936C31.9837 94.257 31.9837 94.257 31.9834 94.0156C31.9839 93.8409 31.9844 93.6663 31.9848 93.4864C31.9849 93.3019 31.9849 93.1173 31.9848 92.9328C31.9847 92.4304 31.9855 91.928 31.9865 91.4256C31.9873 90.9011 31.9874 90.3766 31.9875 89.8521C31.9879 88.8582 31.989 87.8643 31.9904 86.8704C31.9918 85.7392 31.9926 84.608 31.9932 83.4768C31.9946 81.1492 31.997 78.8216 31.9999 76.4939C32.3743 76.3067 32.6875 76.3432 33.1062 76.3418Z" fill="#99E5FB"/>
<path d="M91.7656 87.5156C91.8533 87.5156 91.9409 87.5156 92.0313 87.5156C92.381 88.4415 92.3965 89.336 92.0188 90.2627C90.6314 92.7946 87.0723 93.292 84.5364 94.1041C84.1757 94.2197 83.8152 94.3356 83.4547 94.4515C80.8815 95.2788 78.3058 96.0979 75.7285 96.9121C75.5766 96.9601 75.4247 97.0081 75.2682 97.0576C73.6324 97.5741 71.9952 98.0859 70.3558 98.5909C70.2124 98.6352 70.0689 98.6794 69.9211 98.725C68.3332 99.2129 66.9078 99.5029 65.2363 99.5269C65.0989 99.5299 64.9614 99.5328 64.8197 99.5359C64.0143 99.5334 63.2515 99.4429 62.4671 99.2643C62.3149 99.23 62.3149 99.23 62.1597 99.195C60.5828 98.8304 59.0237 98.3931 57.4627 97.9668C56.9965 97.8397 56.5301 97.7131 56.0638 97.5865C55.2814 97.374 54.4992 97.1611 53.717 96.9479C52.6219 96.6494 51.5266 96.3516 50.4313 96.0539C44.1177 94.3381 44.1177 94.3381 41.5625 93.625C41.5625 92.6608 41.5625 91.6966 41.5625 90.7031C43.6845 91.2215 45.7999 91.7448 47.8932 92.3713C48.8281 92.6497 49.7678 92.8937 50.7155 93.1239C51.5056 93.3173 52.2834 93.5397 53.0619 93.7751C53.7644 93.9851 54.4716 94.1658 55.1841 94.3389C56.1618 94.5767 57.1254 94.8474 58.0894 95.1357C62.0456 96.2973 65.4344 97.1218 69.4531 95.8828C69.6363 95.8279 69.8194 95.7731 70.0027 95.7185C72.3511 95.0179 74.6864 94.2812 77.0079 93.4961C78.7535 92.9063 80.5103 92.3545 82.2695 91.8071C82.4077 91.7641 82.5458 91.7211 82.6882 91.6768C83.2266 91.5092 83.765 91.3417 84.3034 91.1743C85.3252 90.8566 86.3464 90.5374 87.3662 90.2134C87.4889 90.1748 87.6115 90.1363 87.7379 90.0966C89.4493 89.5505 90.7325 89.0349 91.7656 87.5156Z" fill="#FEBC85"/>
<path d="M68.6396 57.3086C69.1689 57.3827 69.3339 57.5271 69.7188 57.8979C69.948 58.2513 70.1309 58.6242 70.3164 59.002C70.433 59.2315 70.5501 59.4608 70.6676 59.6899C70.7292 59.81 70.7908 59.9302 70.8542 60.0539C71.1769 60.6694 71.5232 61.2711 71.8687 61.874C72.3641 62.7403 72.8491 63.611 73.3171 64.4924C73.3626 64.5778 73.408 64.6633 73.4548 64.7513C73.6782 65.1723 73.9006 65.5938 74.1216 66.0161C74.2018 66.1678 74.282 66.3195 74.3646 66.4758C74.4357 66.6114 74.5068 66.7471 74.58 66.8869C74.7376 67.2104 74.7376 67.2104 75.0312 67.3276C75.0962 67.2151 75.1611 67.1026 75.228 66.9867C75.471 66.566 75.7151 66.1458 75.9594 65.7258C76.0647 65.5446 76.1696 65.3633 76.2743 65.1818C76.4256 64.9196 76.5779 64.6579 76.7303 64.3964C76.7763 64.3163 76.8222 64.2362 76.8696 64.1536C77.6426 62.8345 77.6426 62.8345 78.2188 62.5464C78.5054 62.5308 78.7925 62.5238 79.0796 62.5208C79.2121 62.5191 79.2121 62.5191 79.3473 62.5175C79.6402 62.5142 79.9331 62.512 80.226 62.5101C80.326 62.5094 80.426 62.5087 80.5291 62.5079C81.0586 62.5044 81.5881 62.5018 82.1176 62.4999C82.6643 62.4977 83.2109 62.4917 83.7575 62.485C84.178 62.4805 84.5986 62.479 85.0191 62.4782C85.2206 62.4773 85.4221 62.4753 85.6236 62.4721C85.9059 62.4679 86.188 62.4679 86.4704 62.4689C86.7112 62.4673 86.7112 62.4673 86.9568 62.4656C87.5067 62.5699 87.7035 62.7776 88.0469 63.2104C88.1216 63.6172 88.1216 63.6172 88.0469 64.0073C87.7989 64.3132 87.6011 64.4958 87.25 64.6714C86.9977 64.6711 86.7454 64.6617 86.4935 64.6481C85.6967 64.6098 84.9011 64.5845 84.1036 64.5691C83.6214 64.559 83.1409 64.5433 82.6594 64.5143C80.5338 64.3286 80.5338 64.3286 78.6643 65.1076C78.0651 65.8623 77.6837 66.6949 77.3291 67.5856C77.0598 68.2185 76.7001 68.7888 76.3345 69.3696C76.2754 69.4684 76.2164 69.5673 76.1555 69.6691C75.8976 70.0957 75.7173 70.3677 75.2969 70.6479C74.915 70.7061 74.915 70.7061 74.5 70.6479C73.7558 70.0676 73.3998 69.2298 72.9727 68.4067C72.8074 68.0939 72.642 67.7813 72.4762 67.4688C72.4344 67.3898 72.3927 67.3109 72.3497 67.2296C71.9432 66.4629 71.5181 65.7074 71.0884 64.9536C70.3083 63.5831 69.545 62.2038 68.7891 60.8198C68.7014 60.8198 68.6138 60.8198 68.5234 60.8198C68.4475 60.9577 68.4475 60.9577 68.3701 61.0984C67.4273 62.8088 66.4784 64.5156 65.502 66.207C65.4245 66.3427 65.347 66.4784 65.2671 66.6182C65.1946 66.7429 65.1222 66.8676 65.0475 66.9961C64.9528 67.1601 64.9528 67.1601 64.8562 67.3274C64.5742 67.7342 64.3207 67.8489 63.8418 67.9502C63.1916 67.831 63.0538 67.6127 62.6844 67.0859C60.9565 64.3863 60.9565 64.3863 60.6875 63.6089C60.3565 63.912 60.1434 64.2249 59.9202 64.6133C59.852 64.73 59.7837 64.8468 59.7135 64.9671C59.5716 65.2124 59.4301 65.458 59.2891 65.7038C59.2207 65.8206 59.1523 65.9373 59.0818 66.0576C59.0204 66.1643 58.9589 66.2709 58.8956 66.3808C58.6736 66.6942 58.49 66.8592 58.1641 67.062C57.8324 67.1144 57.8324 67.1144 57.4559 67.1178C57.2438 67.121 57.2438 67.121 57.0274 67.1242C56.7994 67.1242 56.7994 67.1242 56.5667 67.1243C56.4098 67.1253 56.253 67.1263 56.0913 67.1273C55.7597 67.1288 55.428 67.1291 55.0963 67.1285C54.5888 67.1284 54.0815 67.1339 53.574 67.1398C53.2517 67.1405 52.9295 67.1409 52.6072 67.1409C52.4554 67.143 52.3036 67.1452 52.1473 67.1475C51.0998 67.1383 51.0998 67.1383 50.5597 66.7551C50.3281 66.3979 50.3281 66.3979 50.3198 65.9165C50.4759 65.4207 50.5558 65.3234 50.9922 65.0698C51.2779 65.0428 51.2779 65.0428 51.5897 65.0735C51.7074 65.0832 51.8251 65.0928 51.9464 65.1027C52.073 65.1141 52.1997 65.1255 52.3302 65.1373C55.1808 65.4688 55.1808 65.4688 57.7407 64.563C58.5238 63.7011 58.9629 62.5898 59.3237 61.4972C59.5009 61.0641 59.6582 60.8425 60.0234 60.5542C60.4717 60.4629 60.4717 60.4629 60.9531 60.5542C61.7078 61.3175 62.2377 62.2244 62.7959 63.1357C62.8873 63.2836 62.9787 63.4314 63.0729 63.5837C63.2967 63.9458 63.5198 64.3084 63.7422 64.6714C64.1207 64.2196 64.4239 63.769 64.7051 63.2514C64.7852 63.1052 64.8652 62.959 64.9477 62.8084C65.0103 62.6934 65.0103 62.6934 65.0741 62.576C65.2931 62.1735 65.5147 61.7723 65.7365 61.3713C65.7809 61.2909 65.8254 61.2105 65.8712 61.1277C66.2886 60.3755 66.7205 59.6323 67.1621 58.894C67.227 58.7847 67.2919 58.6754 67.3587 58.5628C67.4192 58.4625 67.4796 58.3623 67.5419 58.259C67.5939 58.1727 67.6459 58.0863 67.6995 57.9973C67.982 57.5871 68.1354 57.3853 68.6396 57.3086Z" fill="#F8EFEE"/>
<path d="M73.039 78.75C73.4814 79.1924 73.4689 79.6354 73.4873 80.2358C73.4774 81.2224 73.2256 81.7326 72.555 82.4304C71.5717 83.3404 70.4766 83.5675 69.1661 83.5561C68.1688 83.5075 67.1796 83.3781 66.1892 83.2548C65.8067 83.2072 65.4241 83.161 65.0415 83.1149C64.7967 83.0852 64.5519 83.0553 64.3071 83.0254C64.1935 83.0116 64.0799 82.9977 63.9629 82.9835C63.4411 82.9184 62.9292 82.8408 62.414 82.7344C61.3808 82.6592 60.7949 83.006 60.0234 83.6641C59.6033 82.9691 59.6679 82.1898 59.7578 81.4062C59.9701 80.8025 60.3184 80.3725 60.8452 80.0117C61.9365 79.5037 63.3143 79.8855 64.4477 80.0698C68.3189 80.8263 68.3189 80.8263 72.0056 80.0029C72.659 79.4841 72.659 79.4841 73.039 78.75Z" fill="#FEBB85"/>
<path d="M89.3746 38.6384C89.7203 38.9803 89.8894 39.1986 89.9662 39.6826C89.9634 39.8183 89.9606 39.9539 89.9578 40.0936C89.9561 40.2413 89.9544 40.389 89.9526 40.5411C89.9481 40.6939 89.9437 40.8467 89.9391 41.0041C89.9367 41.1595 89.9343 41.3149 89.9318 41.4749C89.9256 41.8577 89.9169 42.2402 89.9059 42.6228C90.003 42.62 90.1001 42.6172 90.2002 42.6143C90.6416 42.6033 91.083 42.5964 91.5245 42.5896C91.6773 42.5851 91.8301 42.5807 91.9876 42.5761C92.1352 42.5744 92.2829 42.5727 92.435 42.5709C92.5707 42.5681 92.7063 42.5653 92.846 42.5625C93.3301 42.6393 93.5484 42.8084 93.8903 43.154C93.9907 43.7064 93.9639 43.9691 93.6594 44.4427C92.9851 44.9175 92.327 44.8185 91.5245 44.7893C91.3692 44.7863 91.2138 44.7833 91.0537 44.7802C90.671 44.7724 90.2885 44.7615 89.9059 44.7478C89.9094 44.8449 89.9129 44.942 89.9164 45.042C89.9303 45.4835 89.9389 45.9249 89.9474 46.3664C89.953 46.5192 89.9585 46.672 89.9643 46.8295C89.9826 48.0956 89.9826 48.0956 89.5967 48.5018C89.1628 48.7835 88.9525 48.8293 88.445 48.7321C88.1391 48.4842 87.9564 48.2864 87.7809 47.9353C87.7696 47.6944 87.7667 47.4532 87.7679 47.2121C87.7684 47.0691 87.7688 46.9262 87.7692 46.7789C87.7703 46.6291 87.7714 46.4793 87.7726 46.3249C87.7732 46.1741 87.7738 46.0233 87.7744 45.8679C87.776 45.4945 87.7782 45.1211 87.7809 44.7478C87.6352 44.753 87.6352 44.753 87.4866 44.7583C87.0452 44.7721 86.6038 44.7808 86.1622 44.7893C86.0094 44.7948 85.8566 44.8004 85.6992 44.8061C84.4331 44.8245 84.4331 44.8245 84.0274 44.4381C83.7416 43.9994 83.6896 43.8001 83.7965 43.2868C84.0175 42.9477 84.1149 42.8107 84.4606 42.6228C85.0297 42.5399 85.5887 42.5604 86.1622 42.5813C86.3176 42.5843 86.473 42.5873 86.6331 42.5903C87.0158 42.5982 87.3983 42.6091 87.7809 42.6228C87.7774 42.5257 87.7739 42.4286 87.7704 42.3285C87.7565 41.8871 87.7479 41.4457 87.7394 41.0041C87.7338 40.8513 87.7283 40.6985 87.7225 40.5411C87.7061 39.4086 87.7061 39.4086 88.0859 38.8693C88.5595 38.5647 88.8223 38.538 89.3746 38.6384Z" fill="#FC838A"/>
<path d="M63.533 82.7398C63.6376 82.7543 63.7422 82.7687 63.85 82.7836C64.1821 82.8294 64.5141 82.8762 64.8461 82.923C65.2827 82.984 65.7194 83.0447 66.1561 83.1051C66.2597 83.1194 66.3633 83.1338 66.4701 83.1486C67.1975 83.2483 67.9247 83.3312 68.6562 83.3961C68.1595 83.9106 67.6375 84.3694 67.079 84.8156C66.9931 84.8843 66.9072 84.953 66.8186 85.0238C63.83 87.3805 63.83 87.3805 63.078 87.3805C63.078 87.4682 63.078 87.5558 63.078 87.6461C61.957 87.5456 60.9747 87.4128 60.1562 86.5836C59.7141 85.923 59.507 85.2543 59.6249 84.4586C59.9549 83.7061 60.4094 83.1997 61.0859 82.7321C61.8854 82.4656 62.7153 82.6227 63.533 82.7398Z" fill="#FD8087"/>
<path d="M32.0001 92.2969C32.1315 92.3626 32.1315 92.3626 32.2657 92.4297C32.5559 92.4419 32.8466 92.4453 33.1371 92.4448C33.2265 92.4448 33.3159 92.4448 33.4081 92.4448C33.7041 92.4447 34.0002 92.4437 34.2963 92.4427C34.5013 92.4424 34.7064 92.4422 34.9115 92.4421C35.4517 92.4416 35.9919 92.4403 36.532 92.4388C37.0831 92.4374 37.6341 92.4368 38.1852 92.4362C39.2667 92.4347 40.3482 92.4325 41.4298 92.4297C41.5167 93.0977 41.5807 93.7383 41.5792 94.4136C41.5797 94.6373 41.5797 94.6373 41.5802 94.8654C41.5626 95.2188 41.5626 95.2188 41.4298 95.3516C41.1412 95.3648 40.8522 95.3686 40.5634 95.3687C40.4729 95.369 40.3824 95.3692 40.2892 95.3695C39.9887 95.37 39.6882 95.3696 39.3878 95.3692C39.1798 95.3693 38.9719 95.3694 38.764 95.3696C38.3276 95.3698 37.8913 95.3695 37.455 95.3689C36.8944 95.3681 36.3339 95.3686 35.7734 95.3694C35.3439 95.3698 34.9143 95.3697 34.4848 95.3693C34.2781 95.3692 34.0713 95.3694 33.8646 95.3697C33.5762 95.37 33.2877 95.3695 32.9993 95.3687C32.8348 95.3686 32.6703 95.3685 32.5009 95.3684C32.1329 95.3516 32.1329 95.3516 32.0001 95.2188C31.9885 95.0016 31.9859 94.784 31.9871 94.5666C31.9875 94.4352 31.988 94.3038 31.9884 94.1684C31.9895 94.0302 31.9906 93.8919 31.9918 93.7495C31.9924 93.6108 31.993 93.472 31.9936 93.329C31.9952 92.985 31.9973 92.6409 32.0001 92.2969Z" fill="#62DBFB"/>
</g>
<defs>
<linearGradient id="paint0_linear_141_16297" x1="203.087" y1="43.5729" x2="-18.2236" y2="55.1336" gradientUnits="userSpaceOnUse">
<stop stop-color="#00ADEF"/>
<stop offset="1" stop-color="#D60F8C"/>
</linearGradient>
<clipPath id="clip0_141_16297">
<rect width="68" height="68" fill="white" transform="translate(32 32)"/>
</clipPath>
</defs>
</svg>
